<svg id="Layer_1" data-name="Layer 1" xmlns="http://www.w3.org/2000/svg" viewBox="0 0 24 24"><defs><style>.cls-1{fill:#fff;}</style></defs><title>Artboard 3</title><path class="cls-1" d="M12.1,22a20.13,20.13,0,0,1-4.32-.47A2.3,2.3,0,0,1,7,21.17a3,3,0,0,1-.6-.59c-.52-.69-1-3.23-1.2-4.45-.06-.33-.11-.59-.14-.74A65.26,65.26,0,0,1,4,8.77.81.81,0,0,1,4.23,8a1.72,1.72,0,0,1,1-.36C8,7.52,10.07,7.46,12,7.46c2.26,0,4.23.08,7,.2A1.55,1.55,0,0,1,20,8a.79.79,0,0,1,.26.73q-.39,3.36-1.1,6.65s-.64,4-1.36,5.21a1.49,1.49,0,0,1-.19.27,2.09,2.09,0,0,1-1.16.63A19.94,19.94,0,0,1,12.2,22ZM7.26,9.25a.83.83,0,0,0-.63.3,1.44,1.44,0,0,0-.23,1.17l1.48,8.36c.14.84.65,1.14,1,1.14a.81.81,0,0,0,.63-.31,1.41,1.41,0,0,0,.23-1.16L8.29,10.39C8.15,9.55,7.64,9.25,7.26,9.25Zm4.82.05a1,1,0,0,0-.95,1v8.79a1,1,0,1,0,1.9,0V10.33A1,1,0,0,0,12.08,9.3Zm4.42,0a1,1,0,0,0-.92.95l-1,8.69a1,1,0,0,0,.19.82.92.92,0,0,0,.65.36h0a.89.89,0,0,0,.64-.27,1.07,1.07,0,0,0,.3-.74l1-8.65a1.05,1.05,0,0,0-.23-.87A.82.82,0,0,0,16.5,9.32Z"/><path class="cls-1" d="M12,7.75c2.26,0,4.23.08,7,.19a1.36,1.36,0,0,1,.82.28.52.52,0,0,1,.18.46v.05a66.88,66.88,0,0,1-1.1,6.63,21.62,21.62,0,0,1-1.32,5.1,1.26,1.26,0,0,1-.16.22,1.8,1.8,0,0,1-1,.54,19.38,19.38,0,0,1-4.17.46h-.1a19.42,19.42,0,0,1-4.25-.46,2.29,2.29,0,0,1-.68-.29,3.46,3.46,0,0,1-.53-.52c-.47-.64-.94-3.23-1.15-4.33-.06-.33-.1-.6-.14-.76-.47-2.17-.84-4.39-1.09-6.59V8.68a.5.5,0,0,1,.18-.46,1.4,1.4,0,0,1,.82-.28C8,7.81,10.08,7.75,12,7.75M8.91,20.5a1.1,1.1,0,0,0,.85-.4,1.67,1.67,0,0,0,.29-1.4L8.58,10.34C8.41,9.39,7.79,9,7.26,9a1.09,1.09,0,0,0-.85.41,1.67,1.67,0,0,0-.29,1.4l1.47,8.36c.17.95.79,1.37,1.32,1.37m3.17-.06a1.25,1.25,0,0,0,1.24-1.32V10.33a1.34,1.34,0,0,0-.37-1A1.23,1.23,0,0,0,12.08,9h0a1.26,1.26,0,0,0-1.24,1.32v8.79a1.25,1.25,0,0,0,1.24,1.32m2.18-1.54A1.32,1.32,0,0,0,14.51,20a1.19,1.19,0,0,0,.86.48h.05a1.14,1.14,0,0,0,.81-.36,1.33,1.33,0,0,0,.39-.9l1-8.66a1.41,1.41,0,0,0-.3-1.1A1.16,1.16,0,0,0,16.5,9a1.25,1.25,0,0,0-1.2,1.2l-1,8.67M12,7.17c-1.87,0-3.94.06-6.79.2A1.92,1.92,0,0,0,4,7.8a1.09,1.09,0,0,0-.35,1,65.35,65.35,0,0,0,1.11,6.65c.17.8.7,4.38,1.38,5.3a3.07,3.07,0,0,0,.68.65,2.89,2.89,0,0,0,.86.39,21,21,0,0,0,4.39.47h.1a20.82,20.82,0,0,0,4.29-.47,2.48,2.48,0,0,0,1.32-.73,2.44,2.44,0,0,0,.22-.31c.76-1.27,1.39-5.3,1.39-5.3a65.19,65.19,0,0,0,1.1-6.65,1,1,0,0,0-.35-1A1.86,1.86,0,0,0,19,7.37c-2.72-.11-4.7-.2-7-.2ZM8.91,19.93c-.31,0-.64-.29-.75-.9L6.69,10.67c-.13-.73.2-1.13.57-1.13s.64.29.75.9L9.48,18.8c.13.72-.2,1.13-.57,1.13Zm3.17-.07a.67.67,0,0,1-.66-.74V10.33a.68.68,0,0,1,.66-.74.68.68,0,0,1,.67.74v8.79a.68.68,0,0,1-.67.74Zm3.34,0h0a.71.71,0,0,1-.57-.86l1-8.69c.06-.47.35-.69.63-.69s.64.29.58.84l-1,8.68a.7.7,0,0,1-.62.72Z"/><path class="cls-1" d="M12.29,1l-2.72.55a1.54,1.54,0,0,0-.89.56l-.15.19A1.52,1.52,0,0,0,9,4.58l.21.12a1.57,1.57,0,0,0,1,.16L13,4.3a1.49,1.49,0,0,0,.89-.55l.15-.2a1.51,1.51,0,0,0-.45-2.24l-.22-.12A1.53,1.53,0,0,0,12.29,1Z"/><path class="cls-1" d="M2.27,7.4l19-3.88c1.3-.26.75-2.24-.54-2l-19,3.88c-1.3.27-.75,2.25.54,2Z"/></svg>