<svg id="Layer_1" data-name="Layer 1" xmlns="http://www.w3.org/2000/svg" viewBox="0 0 24 24"><defs><style>.cls-1,.cls-2{fill:none;stroke:#fff;stroke-miterlimit:10;}.cls-1{stroke-width:1.14px;}.cls-2{stroke-width:0.49px;}</style></defs><title>Artboard 44</title><path class="cls-1" d="M1.66,4.13a19.41,19.41,0,0,0-.06,6.7,19.1,19.1,0,0,0,1.8,5.53,14,14,0,0,0,3.21,3.73,13.37,13.37,0,0,0,5.09,2.77,14.71,14.71,0,0,0,5.86-3.54,15,15,0,0,0,2.44-3,16.77,16.77,0,0,0,1.8-4.76,17.24,17.24,0,0,0-.06-7.47,11.61,11.61,0,0,1-5.31-.23A11.51,11.51,0,0,1,11.9,1.45,11.28,11.28,0,0,1,7,4.09,11.32,11.32,0,0,1,1.66,4.13Z"/><path class="cls-2" d="M4.67,6.86a13.86,13.86,0,0,0,0,4.72A13.61,13.61,0,0,0,5.9,15.49a9.93,9.93,0,0,0,2.27,2.64,9.47,9.47,0,0,0,3.59,1.95,10.33,10.33,0,0,0,4.13-2.5,10.75,10.75,0,0,0,1.73-2.09,12.07,12.07,0,0,0,1.27-3.36,12.18,12.18,0,0,0,0-5.27A8.34,8.34,0,0,1,15.1,6.7,8.41,8.41,0,0,1,11.9,5,8,8,0,0,1,8.44,6.83,8.08,8.08,0,0,1,4.67,6.86Z"/><path class="cls-2" d="M21.69,4.15,18.78,7.06"/><path class="cls-2" d="M12,1.45V5.1"/><path class="cls-2" d="M1.67,4.07l3,3.05"/><path class="cls-2" d="M11.64,22.87V20.13"/></svg>