<svg id="Layer_1" data-name="Layer 1" xmlns="http://www.w3.org/2000/svg" viewBox="0 0 24 24"><defs><style>.cls-1{fill:lime;}</style></defs><title>Artboard 11</title><path class="cls-1" d="M11.84,1A11.16,11.16,0,0,0,.71,12.31a11.31,11.31,0,0,0,22.61,0A11.46,11.46,0,0,0,11.84,1ZM6.68,12.49c-.09-.9-.14-1.87-.15-2.92s.06-2.19.15-3.15a.86.86,0,0,1,.85-.83.81.81,0,0,1,.86.83,22,22,0,0,1,.2,3,23.58,23.58,0,0,1-.2,3.09A.86.86,0,0,1,6.68,12.49Zm5.16,6.19c-2.78,0-5.29-2.52-5-3.3.11-.27.57-.36,1-.38h7.69c.45,0,.92.1,1,.37C16.92,16.14,14.55,18.63,11.84,18.68Zm4.52-6.2a.86.86,0,0,1-1.72,0,20.67,20.67,0,0,1,0-6.15.86.86,0,0,1,1.72,0,17.52,17.52,0,0,1,.28,3.24A17,17,0,0,1,16.36,12.48Z"/></svg>