<svg id="Layer_1" data-name="Layer 1" xmlns="http://www.w3.org/2000/svg" viewBox="0 0 24 24"><defs><style>.cls-1,.cls-2{fill:#fff;}.cls-1{stroke:#fff;stroke-miterlimit:10;stroke-width:0.92px;}</style></defs><title>Artboard 30</title><path class="cls-1" d="M18.3,18l2-4.81L18.3,8l5,5Z"/><path class="cls-1" d="M13.19,18l2-4.81L13.19,8l5,5Z"/><path class="cls-1" d="M7.94,17.85,10,13l-2-5.21,5,5Z"/><path class="cls-2" d="M.38,9.32H6.27a.2.2,0,0,0,0-.39H.38a.2.2,0,0,0,0,.39Z"/><path class="cls-2" d="M.38,16.4H6.27a.2.2,0,0,0,0-.4H.38a.2.2,0,0,0,0,.4Z"/><path class="cls-2" d="M1.69,12.86H7.58a.2.2,0,0,0,0-.4H1.69a.2.2,0,0,0,0,.4Z"/></svg>