<svg id="Layer_1" data-name="Layer 1" xmlns="http://www.w3.org/2000/svg" viewBox="0 0 24 24"><defs><style>.cls-1{fill:none;stroke:lime;stroke-miterlimit:10;stroke-width:0.95px;}</style></defs><title>Artboard 18</title><rect class="cls-1" x="1.47" y="10.47" width="7.84" height="7.84" rx="1.26"/><path class="cls-1" d="M20.39,17.77c-.72.65-1.39.69-3.71.68-1.24,0-2.71,0-4.36-.11h-.45a.89.89,0,0,1-.88-.87v-.21c0-.83,0-5.27,0-7,0-1.52,1.74-1.33,2.52-3.31.18-.46.54-1.68.64-2l.27-1.22c.28-1.18.35-1.38.54-1.48a1.47,1.47,0,0,1,1.49.4,3,3,0,0,1,.67,2.43c-.09,1.77-1.17,2.66-.81,3.11.17.22.54.58,1.49.41,1.3-.24,1.59-.4,2.82-.53a6.56,6.56,0,0,1,1.91.39,2,2,0,0,1,.81,1c.21.65-.37.9-.28,1.77.06.55.3.56.28,1.07A3,3,0,0,1,23,13.44c-.29.64-.4.68-.4,1s0,.51,0,.95a1.44,1.44,0,0,1-.27.81c-.31.51-.7.63-1.22,1.08S20.67,17.51,20.39,17.77Z"/></svg>