<svg id="Layer_1" data-name="Layer 1" xmlns="http://www.w3.org/2000/svg" viewBox="0 0 24 24"><defs><style>.cls-1{fill:#fff;}</style></defs><title>Artboard 12</title><path class="cls-1" d="M12.3,1.6A11.16,11.16,0,0,0,1.17,12.9a11.3,11.3,0,0,0,22.6,0A11.45,11.45,0,0,0,12.3,1.6ZM7.14,13.07Q7,11.74,7,10.16C7,9,7.05,8,7.14,7A.86.86,0,0,1,8,6.17.81.81,0,0,1,8.85,7a22.12,22.12,0,0,1,.2,3,23.42,23.42,0,0,1-.2,3.08A.86.86,0,0,1,7.14,13.07Zm7.7,5H9.57a.86.86,0,0,1,0-1.71h5.27A.86.86,0,0,1,14.84,18.06Zm2-5a.86.86,0,0,1-1.71,0,20.6,20.6,0,0,1,0-6.14A.87.87,0,0,1,16,6.09a.85.85,0,0,1,.85.83,16.55,16.55,0,0,1,.29,3.24A16.68,16.68,0,0,1,16.81,13.06Z"/></svg>