<svg id="Layer_1" data-name="Layer 1" xmlns="http://www.w3.org/2000/svg" viewBox="0 0 24 24"><defs><style>.cls-1{fill:none;stroke:#fff;stroke-miterlimit:10;stroke-width:1.15px;}.cls-2{fill:#fff;}</style></defs><title>Artboard 31</title><path class="cls-1" d="M16.78,9.17h0l-.16-3.79,6.31,6.31L16.62,18V13.3H4.9"/><path class="cls-2" d="M16.47,10.86H2.64a.25.25,0,0,0,0,.5H16.47a.25.25,0,0,0,0-.5Z"/><path class="cls-2" d="M16.66,8.73h-5.2a.25.25,0,0,0,0,.49h5.2a.25.25,0,0,0,0-.49Z"/><path class="cls-2" d="M3,12.25H1.25a.25.25,0,0,0,0,.5H3a.25.25,0,0,0,0-.5Z"/><path class="cls-2" d="M10,9.29H6.69a.25.25,0,0,0,0,.5H10a.25.25,0,0,0,0-.5Z"/></svg>