<svg xmlns="http://www.w3.org/2000/svg" viewBox="0 0 453.32 61.61"><defs><style>.cls-1,.cls-3{fill:#fff;}.cls-1{fill-opacity:0.2;}.cls-1,.cls-2,.cls-3{stroke:#fff;stroke-miterlimit:10;stroke-width:4px;}.cls-2{fill:none;}.cls-3{fill-opacity:0.4;}</style></defs><title>NEW_HP_OPP</title><g id="Layer_2" data-name="Layer 2"><g id="Layer_1-2" data-name="Layer 1"><path class="cls-1" d="M389.79,47.92H40.15L4.83,12.6h385Z"/><line class="cls-2" x1="367.4" y1="41.42" x2="367.4" y2="48.81"/><line class="cls-2" x1="343.9" y1="41.42" x2="343.9" y2="48.81"/><line class="cls-2" x1="320.4" y1="41.42" x2="320.4" y2="48.81"/><line class="cls-2" x1="296.9" y1="41.42" x2="296.9" y2="48.81"/><line class="cls-2" x1="273.4" y1="41.42" x2="273.4" y2="48.81"/><line class="cls-2" x1="249.9" y1="41.42" x2="249.9" y2="48.81"/><line class="cls-2" x1="226.4" y1="41.42" x2="226.4" y2="48.81"/><line class="cls-2" x1="202.9" y1="41.42" x2="202.9" y2="48.81"/><line class="cls-2" x1="179.4" y1="41.42" x2="179.4" y2="48.81"/><line class="cls-2" x1="155.9" y1="41.42" x2="155.9" y2="48.81"/><line class="cls-2" x1="132.4" y1="41.42" x2="132.4" y2="48.81"/><line class="cls-2" x1="108.89" y1="41.42" x2="108.89" y2="48.81"/><line class="cls-2" x1="85.39" y1="41.42" x2="85.39" y2="48.81"/><line class="cls-2" x1="61.89" y1="41.42" x2="61.89" y2="48.81"/><path class="cls-3" d="M451.32,59.61H399.79l-10-10V12l10-10h51.53Z"/></g></g></svg>