<svg id="armL" xmlns="http://www.w3.org/2000/svg" viewBox="0 0 142.68 112.66"><defs><style>.cls-1{fill:#c6947d;}.cls-2{fill:#2d2721;}</style></defs><title>armL</title><path class="cls-1" d="M1215,661.15c1.81,13.34,2,28.2-4.52,40.41-5.22,9.81-15.46,18.25-27,18.05-12.6-.21-22.68-10.3-33-16.23a92.34,92.34,0,0,0-16.76-7.45c-4.69-1.55-11.3-2.85-13.38,3.27-1.58,4.67,1.7,12.14,3.33,16.39a38.68,38.68,0,0,0,10.11,15c8.87,8.06,20.62,12.51,32,15.84,22.91,6.74,51.15,6.87,68.55-12.1,9.72-10.58,13.42-25,15.06-39a117.79,117.79,0,0,0-4-46.26c-1.78-6.17-11.43-3.54-9.64,2.66a110.18,110.18,0,0,1,4.16,38.18c-.81,11.82-3.28,24.78-10.39,34.55-15.24,21-44.85,17.84-66.34,10.62-9.88-3.33-20.79-7.87-26.91-16.79a30.77,30.77,0,0,1-3.5-7c-.89-2.48-1-6.16-2.32-8.38l-.39-1.69q-4.59,3.46-.57,3.81a22.78,22.78,0,0,0,3.24,1.07,76.73,76.73,0,0,1,9.75,4.26c10,5.2,18.55,13,29.21,16.93A35.29,35.29,0,0,0,1201,725c24-13.12,26.87-42.11,23.56-66.5-.86-6.35-10.49-3.64-9.64,2.66Z" transform="translate(-1113.17 -641.61)"/><path class="cls-1" d="M1146.32,716.86c-1.66-6.43-5.91-10.72-12-13.21-4-1.65-8,3.93-5.64,7.34a59.66,59.66,0,0,0,23.33,20c5.9,2.81,10.17-4.81,5-8.64l-23.51-17.57c-4.11-3.07-9.36,2.82-6.85,6.84,9,14.41,23.16,26.28,41.2,22.8,4.14-.8,5-7.28,1.2-9.14l-29.08-14.44c-4.9-2.44-10.31,3.7-6.06,7.85a105.1,105.1,0,0,0,27.21,19.36c6.47,3.16,19.46,10.14,23-.29.75-2.18-.53-4.46-2.3-5.65-10.85-7.28-26.07-11-32.86-23l-6.84,6.84c7.29,5.41,14.79,10.8,22.56,15.48,7.06,4.26,14.44,6.88,22.73,5.34,4.09-.77,5-7.36,1.19-9.14a211.29,211.29,0,0,0-31.44-11.88c-4.61-1.33-8.72,5-4.87,8.36a65.69,65.69,0,0,0,33.27,15.66c10.93,1.64,24,1.46,32.14-7.09,2.82-3,1.21-6.95-2.21-8.36a51.7,51.7,0,0,0-31.94-2.25c-5.2,1.25-4.27,8,0,9.65,15.21,5.86,32.25,2.44,44.57-8,3.46-2.93.52-8.46-3.53-8.54a56.19,56.19,0,0,0-31.17,8.49c-3.4,2.15-8.2,5.05-9,9.36-1.11,5.82,4.08,8.58,9,9.44,10.57,1.86,21-3.18,29.35-9.32,7.36-5.45,15.38-14.21,12.6-24.22-3.17-11.44-17.49-5.12-23.62-.12-5.76,4.69-14.59,17.23-8.7,24.59s18.19.9,23.63-3.71c6.58-5.58,12.86-14.64,15.4-23,1.48-4.82.36-10.43-4.64-12.63-4.82-2.13-10.21.22-14.16,3.1-8.92,6.52-12.76,17.47-10.94,28.17.6,3.55,6.08,5,8.36,2.21,9.91-12.19,20.21-25.82,19.19-42.4a5.06,5.06,0,0,0-7.52-4.31,41.8,41.8,0,0,0-22.22,38.9c.16,2.87,3.14,6.15,6.33,4.82,8.56-3.56,14.09-10.39,17.93-18.68,3.74-8,7.79-19.26,6.16-28.3-1.47-8.2-11.22-10.92-15.82-3.54-5,8.07-5.62,18.55-2.82,27.45a5.07,5.07,0,0,0,9.14,1.2,55.5,55.5,0,0,0,8.46-19.24c1.22-5.51,2.62-12.66-.31-17.88a8.27,8.27,0,0,0-13.26-1.91c-4.21,4.08-6.33,10.56-6.44,16.3-.11,5.34,1.53,12.09,6.72,14.72,5.59,2.85,10.8-.85,13.92-5.4,3.64-5.3,6.43-12.25,4.67-18.72-1.4-5.16-6.29-9.67-11.73-10.05-12.23-.86-18.44,18.32-10.27,26.26,10.53,10.25,23.84-5.47,22.42-16.34a18.1,18.1,0,0,0-9.58-13.48c-5-2.57-11.54-2.54-14.11,3.2-4.12,9.17,3.07,24.76,14.24,23.34,5.91-.75,9.88-6,10.52-11.72.72-6.36-3-11.81-8-15.35-4.64-3.24-12.56-6.94-16.47-.76-1.75,2.77-1.72,6.58-1.92,9.74a87,87,0,0,0,.35,14.16c.63,6.34,10.64,6.4,10,0a89.24,89.24,0,0,1-.48-11.32c0-1.62.81-4.22.35-5.66l.21-1.62q-3.7,1.11-1.47,1.69c1.67,1.91,4.84,2.1,6.48,4.5,1,1.43,2,5-.2,6.21s-3.41-2.32-3.9-3.76a18.42,18.42,0,0,1-.65-3.19c-.41-2.48-.55-1.27.58-.5,2.32,1.57,4.2,3.56,4.24,6.59,0,2.12-2.34,8.37-5.53,7.2-2.3-.84.06-7.73,1.59-8.74,2.67-1.76,4,2.79,3.87,4.74-.08,1.4-2.48,8.8-4.33,9.19-2.06.44-1.53-6-1.28-7.32A15,15,0,0,1,1231,674c.61-1.28,3.3-3.41.83-3.3-1.94.08-1,.47-.9,2.09a25.16,25.16,0,0,1-.49,5.54,47.76,47.76,0,0,1-8,19.39l9.14,1.2a24.6,24.6,0,0,1-.29-15c.22-.72,1.78-3.31,1.71-4,.74-.86.43-1.12-1-.78-1.36-.51-1.77-.11-1.24,1.22-.77,2.38-.49,5.56-1,8.06-1.9,9.29-6.34,22.61-16,26.62l6.33,4.82a31.94,31.94,0,0,1,17.27-30.27L1230,685.2c.85,13.79-8,25.18-16.26,35.33l8.35,2.21a18.35,18.35,0,0,1,6.27-16.77,12.33,12.33,0,0,1,4.3-2.5c.76,0,.84-.25.22-.7a9.65,9.65,0,0,1-.89,2.67,54.52,54.52,0,0,1-4.12,7.44c-3.1,5-7.16,10.24-12.76,12.56-.69.29-3.07,1.38-3.89,1,.43,1.06.67.81.73-.74a10.38,10.38,0,0,1,.75-2,19.58,19.58,0,0,1,5.68-7.38c2.05-1.64,5.12-3.64,7.81-3.74q-.66-2.25-.19.57a6.32,6.32,0,0,1-.48,2.23,14.43,14.43,0,0,1-2.93,4.73,41.26,41.26,0,0,1-18.07,11.68,22.63,22.63,0,0,1-4.94,1,47.54,47.54,0,0,1-5-.31c-.25,2.67.41,3,2,1.13l1.35-.91a45,45,0,0,1,5.66-3.21,46.63,46.63,0,0,1,21.15-4.35l-3.54-8.53c-9.73,8.24-23.09,10-34.84,5.41v9.65A42.45,42.45,0,0,1,1213,734l-2.21-8.35c-6.17,6.47-17.54,5.58-25.58,4A55.69,55.69,0,0,1,1159.5,717l-4.87,8.35a198,198,0,0,1,29.06,10.87l1.19-9.14c-7.1,1.32-13.71-3.37-19.32-7.09-6.18-4.1-12.3-8.29-18.26-12.71-4.22-3.14-9.12,2.8-6.84,6.84,7.89,14,23.88,18.2,36.45,26.62l-2.3-5.64q2.73-1.83.37-2c-.78-.28-1.56-.57-2.33-.87q-2.48-1-4.89-2.09a94.76,94.76,0,0,1-26.68-18.51l-6.06,7.85L1164.1,734l1.19-9.14c-13.24,2.56-23.51-8-29.9-18.2l-6.84,6.84L1152.06,731l5-8.64a49.69,49.69,0,0,1-19.75-16.45l-5.64,7.35a8.64,8.64,0,0,1,5,6.23c1.61,6.23,11.25,3.59,9.65-2.66Z" transform="translate(-1113.17 -641.61)"/><path class="cls-1" d="M1216.47,661.35c.45,11.08.76,22.43-2.68,33s-11.4,20.29-22.21,22.76c-9.68,2.21-19.74-1.67-28.22-6.84s-16.17-11.72-25.26-15.72c-4.32-1.9-9.42-3.15-13.66-1.07-4,1.95-6.18,6.52-6.29,10.95s1.59,8.71,3.73,12.59c7.16,13,19.66,22.57,33.59,27.6s29.2,5.7,43.84,3.42c8.66-1.35,17.38-3.8,24.41-9a49.92,49.92,0,0,0,9.4-9.53,85.47,85.47,0,0,0,15.45-71.6,11.49,11.49,0,0,0-1.74-4.31,10.39,10.39,0,0,0-3.4-2.65,33.86,33.86,0,0,0-16.53-4.14c-2.69,0-5.63.5-7.43,2.5a10.1,10.1,0,0,0-2,4.26,42.07,42.07,0,0,0-.93,16.68" transform="translate(-1113.17 -641.61)"/><path class="cls-2" d="M1211.47,661.35c.6,15.48,1.26,33.89-11.08,45.39-13.34,12.44-30.2,2.37-42.56-6.13-10.09-6.94-28-20.44-39.55-8.76-10.59,10.72-2.64,26.6,5.16,36.29,19.67,24.44,54.41,30.33,83.68,23.46,30.1-7.07,46.06-38.5,48.44-67.35a88.07,88.07,0,0,0-1.47-24.57c-.73-3.65-1.57-7.42-4.22-10.19s-6.92-4.57-10.64-5.8c-6.55-2.19-16.53-3.74-22.31,1.16-6.48,5.5-6.29,17.71-5.35,25.35.77,6.3,10.78,6.38,10,0-.6-4.86-2.16-17.87,4.65-18.41,6.19-.5,16.1,1.38,17.71,8.18a78.56,78.56,0,0,1-.59,37.24c-3.15,12.36-9.18,24.6-18.14,33.8-9.45,9.71-23.46,12.45-36.51,13.12-24.45,1.27-54.09-8.31-64.14-33-1.94-4.77-2.52-13,4.36-13.76,6.4-.71,13.86,5.09,18.8,8.39,10.92,7.27,21.71,15.62,35.28,16.8,13.31,1.16,25-6.51,31.54-17.75,7.67-13.12,7.51-28.78,6.94-43.48-.25-6.41-10.25-6.45-10,0Z" transform="translate(-1113.17 -641.61)"/><path class="cls-1" d="M1189.87,729.84a15.74,15.74,0,0,0-8.57,2.43c-4,2.58-2.61,9.42,2.52,9.32l2.79-.06a5,5,0,0,0,4.91-4.33c.3-2.22-1.12-5.12-3.58-5.49l-3.91-.59v9.65a10.62,10.62,0,0,0,3.67-1.54c2.17-1.45,3.32-4.48,1.79-6.84-1.39-2.16-4.51-3.35-6.84-1.79-.11.07-1.14.61-.59.39s-.68.13-.69.13a5,5,0,0,0-3.67,4.82c.09,2,1.47,4.5,3.67,4.83l3.91.58,1.33-9.82-2.79.06,2.52,9.31a12.57,12.57,0,0,1,1.29-.73c-.63.3.14,0,.41-.1a8.35,8.35,0,0,1,1.2-.28c-.87.13.43.05.63.05a5,5,0,0,0,0-10Z" transform="translate(-1113.17 -641.61)"/></svg>