<svg id="armR" xmlns="http://www.w3.org/2000/svg" viewBox="0 0 162.81 169.81"><defs><style>.cls-1{fill:#c6947d;}.cls-2{fill:#2d2721;}</style></defs><title>armR</title><path class="cls-1" d="M1409.68,663.44c.4,17.1.21,34.5-5.58,50.8-4.7,13.24-15.55,30.84-31.65,30.2-15-.59-31.14-9.88-42.29-19.32-5-4.22-9.82-9.1-16.18-11.18-5.42-1.77-13-1.26-15.39,4.87-2.18,5.67,3.27,13.75,6,18.47a83.67,83.67,0,0,0,12.21,16.05,72.16,72.16,0,0,0,36.34,20.49,66,66,0,0,0,43.1-5.1c13-6.52,23.25-17.87,30.43-30.35,9.12-15.86,15.23-34.85,17.83-52.91,1-6.68,3.51-19.91-2.82-24.68s-17.36-3.33-24.24-.9c-6,2.12-3.43,11.79,2.66,9.64a26.26,26.26,0,0,1,10.23-1.68c.78,0,4.76.16,5.3.93.15.21-.2,4.36-.2,4.9.06,7.89-1.51,15.63-3.5,23.23-3.7,14.18-8.47,28.35-16.52,40.71-7.14,11-17.28,20.52-29.83,24.83a57.83,57.83,0,0,1-39.28-1c-11.58-4.47-21.67-12.81-28.94-22.81a82.9,82.9,0,0,1-9-16c.94,2.18-2.19-.78-.06.42,1.11.63,3.11.64,4.38,1.25,3.23,1.55,5.88,4.13,8.56,6.45a104.57,104.57,0,0,0,33.4,19.79c12.53,4.47,25.24,6,36.74-1.92,26.75-18.52,28.89-55.76,28.21-85.1-.15-6.42-10.15-6.45-10,0Z" transform="translate(-1290.57 -608.98)"/><path class="cls-1" d="M1331.53,736.57l-20.08-14.46c-4-2.86-9.76,2.87-6.84,6.84a292.73,292.73,0,0,0,24.13,28.94c4,4.24,10.39-1.15,7.86-6.06a182.07,182.07,0,0,0-23.89-35.27c-3.2-3.71-10,.23-8.36,4.87a81.76,81.76,0,0,0,18.85,30c5.83,5.83,18.69,19,27.21,11.84a5,5,0,0,0,.78-6.06c-6.08-9.32-13.83-18.82-23.2-25-3.51-2.33-8.24-2.7-10.91,1.13-2.54,3.66-.8,8.46,1.73,11.58,6.51,8,16.41,14,25.87,17.82,7.67,3.11,21.26,8.11,27.74.34a5.15,5.15,0,0,0,0-7.07,109.73,109.73,0,0,0-33.14-25,5,5,0,0,0-6.06,7.86c10.6,12.39,27.53,27.74,45.1,25.09,3.53-.54,5-6.16,2.21-8.36a78.67,78.67,0,0,0-39.81-16.32c-5.35-.62-6.19,6.84-2.52,9.32,13.36,9,29.75,9.87,45.37,10.23v-10c-10.94-.23-21.88-.53-32.81-.68-3.41-.05-7.27,0-9.52,3.06s-1.32,6.64.78,9.52c10,13.73,31.65,11.8,45.24,5.57,6.66-3.06,16.08-8.79,18.65-16.15,2.71-7.73-4-13.38-11.19-13.84-7.82-.5-15.88,3.51-21.41,8.8-4.15,4-12.07,14.13-7.21,19.78,5.73,6.66,18.23,0,24.37-2.77A82.61,82.61,0,0,0,1415.6,744c2.09-2.18,2-6.39-1-7.85-8.39-4.13-17-.32-24.42,4.28A66.84,66.84,0,0,0,1371,758.76c-2.39,3.38.92,7.22,4.32,7.52,10.55,1,20.37-10,27.67-16.35,7.54-6.51,17.7-13.81,19.61-24.25.76-4.12-3.34-8-7.34-5.65a85.1,85.1,0,0,0-32.48,34.29c-2.16,4.18,2.4,9.73,6.84,6.84a116.11,116.11,0,0,0,31.73-30.52c3.67-5.21,9.14-12.1,9.26-18.76.12-6.3-5.64-10.59-11.55-7.63-6.14,3.08-11.39,9.35-15.46,14.74s-8.44,12.07-9.91,18.78c-1.12,5.09,1.62,13.49,8.42,11.7,2.86-.76,5.39-4.16,7.4-6.18a101,101,0,0,0,7.94-9c10.19-13,17.11-28.58,16.19-45.34a5.2,5.2,0,0,0-3.68-4.82c-8.07-2.83-12.64,7-15.17,12.92a60,60,0,0,0-4.82,24.81c.07,4.8,6.91,7,9.31,2.53a149.12,149.12,0,0,0,16.44-52.28c.51-4.14-6-6.83-8.54-3.53a80.42,80.42,0,0,0-17.36,46.54c-.24,5.47,6.6,6.1,9.32,2.52a104.44,104.44,0,0,0,14.32-25.75,99.32,99.32,0,0,0,4.21-13.93c.87-3.9,2.41-9,.17-12.7-4.89-8.18-15.17-.64-19.44,4.06a34.16,34.16,0,0,0-9,22.74c0,7.24,4.09,16.66,13,12.59,7-3.19,12.58-13.11,14-20.38s-.53-18.46-9.8-18.52c-9.7-.07-12.12,11-12.12,18.66,0,8.66,7.28,19.28,17,13.85,9.37-5.24,7.17-19.53,7.38-28.43l-9.32,2.52c3,4.74-1.39,13.34-2.83,18.18l-5.94,20c-1.83,6.18,7.82,8.82,9.64,2.66l7.56-25.5c2-6.78,4.36-14,.21-20.43a5,5,0,0,0-9.32,2.53l-.21,8.89c-.06,2.65.36,6-.57,8.5-2,5.37-3.67-1.1-3.56-3.68,0-1.24.62-7.83,1.76-7.18,1.56.89.27,6.33-.08,7.48a24.44,24.44,0,0,1-3.83,7.35c-.81,1.1-1.87,2-2.64,3.15-1.4.78-1.59,1.15-.58,1.11.82.25.94-.15.36-1.21.48-2.33-.06-4.9.51-7.33a23.81,23.81,0,0,1,7.55-12.56c.81-.71,2.57-1.39,3.1-2.2,1.41-.58.85-1.2-1.66-1.88l-.27,1.68c-1.06,2.43-1.21,5.77-1.93,8.34a96.07,96.07,0,0,1-16.27,32.3l9.31,2.53a69.06,69.06,0,0,1,14.43-39.47l-8.53-3.54a135.92,135.92,0,0,1-15.07,47.23l9.32,2.52a51,51,0,0,1,1.94-15.24c.48-1.66,5-13,5.4-12.85l-3.67-4.82c1.15,20.9-11.44,38.77-26.39,52.13l4.86-1.29c1,1.41,1.44,1.42,1.33,0a18.17,18.17,0,0,1,1-2.83,55.16,55.16,0,0,1,2.88-5.69A59.63,59.63,0,0,1,1414,722c2.27-2.62,6.12-5,8-7.75,2.38-1,1.92-2-1.36-2.88a4.8,4.8,0,0,1-.43,1.93c-1.1,1.38-1.81,3.38-2.71,4.92a103.8,103.8,0,0,1-32.93,34.35l6.84,6.84a75.47,75.47,0,0,1,28.9-30.69L1413,723c-1.44,7.88-10,13.67-15.66,18.64q-4.82,4.22-9.79,8.21c-3.51,2.83-7.37,6.85-12.19,6.41l4.32,7.53a54.08,54.08,0,0,1,13-13c4.05-2.84,11.8-8.52,16.92-6l-1-7.85a74.85,74.85,0,0,1-17.35,13.57,69.65,69.65,0,0,1-9.78,4.59q-2.26.84-4.59,1.54c-1,.31-2.07.59-3.11.86-1.17,0-1.14.3.1,1l.5,3.85c2.29-8.11,10.16-16.28,19.19-16.12.41,0,2.46,0,2.77.55s-.31,1-1.11,1.81a43.73,43.73,0,0,1-6.13,5.24,41.42,41.42,0,0,1-13.72,6.07,35.3,35.3,0,0,1-14.54.63,22.35,22.35,0,0,1-6.08-2,14.79,14.79,0,0,1-2.93-1.92c-1.67-1.45-1.23-3.07-2.78-.3-1.38,2.47-.6,1.76,1.79,1.8l3.86.08,9.65.2,19.3.4c6.44.14,6.43-9.85,0-10-13.93-.32-28.4-.8-40.32-8.86l-2.53,9.31a66.19,66.19,0,0,1,32.74,13.39l2.2-8.36c-7.17,1.09-14.34-4.08-19.86-8a87.69,87.69,0,0,1-15.51-14.49l-6.06,7.85A102,102,0,0,1,1365.35,763V756c-2.88,3.45-13.12-1-16.54-2.33a60.16,60.16,0,0,1-17.43-10.42q-1.8-1.56-3.48-3.24c-2-2-1.3-3.2-4-1.24-3,2.17-.89,2,1.31,3.89,1.28,1.08,2.53,2.18,3.76,3.33a88.52,88.52,0,0,1,13.61,16.29l.78-6.06c1.58-.69,1.52-1.25-.18-1.7-.88-.53-1.75-1.09-2.6-1.66a60.2,60.2,0,0,1-5.16-3.81,73.87,73.87,0,0,1-8.8-8.62,69.12,69.12,0,0,1-12.6-21.61l-8.36,4.87A170.27,170.27,0,0,1,1328,756.87l7.86-6.06a272.19,272.19,0,0,1-22.58-26.9l-6.84,6.84,20.08,14.46c5.23,3.76,10.23-4.91,5-8.64Z" transform="translate(-1290.57 -608.98)"/><path class="cls-1" d="M1408.42,728.38c-.61,3-4,5-6.26,6.91q-4.34,3.57-8.78,7c-6.07,4.72-12.3,9.24-18.62,13.62l5,8.63q14.07-10.2,29-19.12l-5-8.64c-11.47,6.93-23,13.91-35.5,18.82l3.85,9.14,23-12.29c4.9-2.61,1.54-11.12-3.85-9.13-6.59,2.42-13.18,4.84-20,6.7-3.22.88-6.48,1.64-9.78,2.2-2.6.44-7.53,1.75-9.73-.37-4.63-4.47-11.71,2.59-7.07,7.07,6,5.78,14.76,3.92,22.15,2.44,9.28-1.87,18.19-5.14,27.05-8.4l-3.86-9.14-23,12.29c-4.89,2.61-1.5,11.24,3.85,9.14,13.34-5.25,25.64-12.44,37.88-19.83,5.5-3.33.5-12-5-8.64q-14.93,8.93-29,19.13c-5.13,3.72-.29,12.33,5,8.63q11.3-7.83,22.12-16.33c5.71-4.48,14.61-9.54,16.13-17.19,1.25-6.29-8.39-9-9.64-2.66Z" transform="translate(-1290.57 -608.98)"/><path class="cls-1" d="M1408.75,662.54a87,87,0,0,1-15.92,68c-2.86,3.77-6.14,7.39-10.36,9.52-7.94,4-17.55,2-25.84-1.2a99.39,99.39,0,0,1-29-17.39c-4.66-4-9.13-8.58-14.92-10.65s-13.46-.59-16,5c-1.51,3.28-1,7.12,0,10.6,4.6,17.16,17.61,31.48,33.53,39.36s34.48,9.63,52,6.73c10.7-1.78,21.42-5.41,29.49-12.64,5.84-5.23,10-12.06,13.64-19a202.5,202.5,0,0,0,23.11-85.75" transform="translate(-1290.57 -608.98)"/><path class="cls-2" d="M1403.93,663.87a82.61,82.61,0,0,1-4.75,45.48,74.56,74.56,0,0,1-11.86,20.14c-5.48,6.48-12.09,8.87-20.47,7.23-15.92-3.13-28.89-13.21-41-23.36-8.7-7.32-23.79-13.52-32.28-2.08-8,10.79,1.65,28.3,8.43,37.38a73.87,73.87,0,0,0,33.07,24.69c14.52,5.55,30.53,6.55,45.82,4.36,15-2.14,29.66-7.74,39.38-19.8,11-13.62,18-31.33,23.31-47.85a211.08,211.08,0,0,0,9.77-54.93c.29-6.43-9.71-6.42-10,0-1.41,30.67-9.68,61.8-25.29,88.38-7.81,13.31-19,20.53-34.07,23.58a84.23,84.23,0,0,1-43.84-2.51,62.5,62.5,0,0,1-31.24-23.37,49.27,49.27,0,0,1-7.88-17.63c-.57-2.85-.71-6,2.11-7.68,2.4-1.38,5.67-1.17,8.17-.25,6.21,2.3,10.92,8,16,12.07a104.48,104.48,0,0,0,18.21,11.69c11.79,5.89,26.76,11.48,39.44,5,13-6.64,21.13-23.83,25.52-37a93.3,93.3,0,0,0,3.07-46.19c-1.15-6.32-10.79-3.64-9.65,2.66Z" transform="translate(-1290.57 -608.98)"/><path class="cls-1" d="M1427.63,643.08l-.23-2.45c-.58-6.32-10.41-6.49-10,0l1.68,26c.41,6.36,10,6.49,10,0a133,133,0,0,0-2.75-25.94c-1.31-6.35-10.75-3.6-9.65,2.66a105.17,105.17,0,0,1,1.41,23h10a236.56,236.56,0,0,0-3.3-24.86c-1-5.52-10.13-4.28-9.82,1.33q.57,10.38.53,20.76h10a102.47,102.47,0,0,0-3.26-20.6c-1.42-5.32-10.2-4.42-9.82,1.33l1.23,18.86c.42,6.37,9.91,6.5,10,0A91.58,91.58,0,0,0,1421,640c-1.33-5.45-10-4.34-9.82,1.33a92.45,92.45,0,0,0,4.4,25.87c1.37,4.27,8.81,5.22,9.64,0,1.58-9.86,1.53-19.7,1.23-29.65h-10l3.07,27.28c.71,6.29,9.63,6.56,10,0l1.86-33.22h-10l3.07,35.63c.45,5.25,8.56,7.23,9.82,1.33,2.83-13.23-1.32-26.66,1.37-39.82l-9.82-1.33,1.66,38c.24,5.31,8.92,7.17,9.83,1.33,1.75-11.29,3-22.63,3.63-34h-10l-1.15,28.44c-.22,5.53,8.84,6.95,9.83,1.33l4.19-23.81L1434,637.4c.35,8.8-.7,17.46-1.94,26.16-.89,6.26,8.63,9.05,9.64,2.66,1.88-11.81,3.55-24.5,2.29-36.46-.41-3.88-1.81-8-5.54-9.84-2.46-1.23-4.88-.54-7.4-1.21-2.3-.61-3.54-1.76-6.07-1.44-9.32,1.18-13.38,14.32-12.87,22.17.81,12.35,4,24.85,6,37l9.65-2.65a174.57,174.57,0,0,1-5.28-41c0-5.49-8.65-7-9.82-1.33a79.94,79.94,0,0,0,2,40.92c1.64,5.14,10.16,4.55,9.82-1.33-.52-8.84-2.47-17.72-1.94-26.61.21-3.59.72-8.44,3.12-11.38,2.91-3.56,4.37-.24,5.08,2.86,1.92,8.34.39,18.35-1.15,26.64-1.73,9.33-4.37,18.46-7,27.57-1.8,6.19,7.85,8.83,9.64,2.66,3.65-12.56,7.2-25.17,8.58-38.22,1-9.27,2.54-24.11-5.79-30.8-8.68-7-17.83,1.59-20.62,9.94-4,12.08-.63,25,.1,37.34l9.82-1.33a69.46,69.46,0,0,1-2-35.61l-9.82-1.32a186.3,186.3,0,0,0,5.63,43.65c1.56,6.35,10.71,3.58,9.65-2.65l-4.32-25.3c-1-5.58-4-16.86,2.37-20.68.86-.52.2-.36,1.88.27,1.37.51,4,.1,5.08.72,2.25,1.24,1.4,6.27,1.39,8.68a173.34,173.34,0,0,1-2.14,26l9.64,2.66c1.37-9.58,2.68-19.13,2.3-28.82-.22-5.35-8.8-7.14-9.83-1.33L1430,659.89l9.82,1.32,1.15-28.44c.26-6.45-9.64-6.4-10,0-.59,10.51-1.66,21-3.28,31.38l9.82,1.33-1.66-38c-.24-5.37-8.65-7.1-9.82-1.33-2.71,13.23,1.44,26.7-1.37,39.82l9.82,1.33-3.07-35.63c-.55-6.36-9.63-6.49-10,0l-1.86,33.22h10l-3.07-27.28c-.7-6.23-10.2-6.58-10,0,.27,9,.55,18.07-.87,27h9.64a82.5,82.5,0,0,1-4-23.21l-9.82,1.33a80.23,80.23,0,0,1,2.27,20.48h10l-1.23-18.86-9.83,1.33a88.59,88.59,0,0,1,2.91,17.94c.36,6.38,10,6.49,10,0q0-10.4-.53-20.76l-9.82,1.33a212.72,212.72,0,0,1,2.94,22.2c.51,6.37,9.72,6.5,10,0a117.76,117.76,0,0,0-1.76-25.63l-9.65,2.66a119,119,0,0,1,2.4,23.28h10l-1.68-26h-10l.23,2.45c.59,6.35,10.6,6.42,10,0Z" transform="translate(-1290.57 -608.98)"/><path class="cls-1" d="M1409.26,671.24a149.34,149.34,0,0,1,2.26-41.67c.68-3.43,1.52-6.94,3.53-9.8a13.7,13.7,0,0,1,22.42,0,27.44,27.44,0,0,1,3,6.21c4.78,12.69,9.64,26.18,7.16,39.52" transform="translate(-1290.57 -608.98)"/><path class="cls-2" d="M1414.26,671.24a154.16,154.16,0,0,1,.27-28.5c.72-6.76.9-20.39,8.77-23.26,10.11-3.68,13.19,9.86,15.48,16.6,3.07,9,5.52,18.52,4,28.1-1,6.3,8.61,9,9.64,2.66,2.12-13.12-1.05-25.53-5.54-37.82-1.9-5.23-3.58-11-7.78-15a19.06,19.06,0,0,0-14.27-5c-11.64.9-16.59,10.87-18.47,21.08a158,158,0,0,0-2.08,41.13c.5,6.37,10.51,6.43,10,0Z" transform="translate(-1290.57 -608.98)"/></svg>