<svg id="book" xmlns="http://www.w3.org/2000/svg" viewBox="0 0 243.72 153.73"><defs><style>.cls-1{fill:#a20032;}.cls-2{fill:#780032;}.cls-3{fill:#fff6d0;}.cls-4{fill:#4f4a33;}.cls-5{fill:#3d0016;}</style></defs><title>book</title><path class="cls-1" d="M1113,678.18a1010.87,1010.87,0,0,0,62.4,95.92c3.77,5.14,12.46.15,8.64-5.05a1008.91,1008.91,0,0,1-62.4-95.92c-3.2-5.59-11.84-.55-8.64,5Z" transform="translate(-1104.2 -638.3)"/><path class="cls-1" d="M1121.38,676.19c.69-2.12,5.07-1.9,6.9-1.94,4.28-.1,8.58,0,12.85.06a167.67,167.67,0,0,1,25.13,1.94c17,2.9,31.53,10.8,45.85,20.14,5.4,3.52,10.42-5.13,5-8.64-17.75-11.57-35.53-20-56.79-22.33a265.67,265.67,0,0,0-31.16-1.17c-7.23,0-15,1.58-17.46,9.28-2,6.14,7.66,8.76,9.64,2.66Z" transform="translate(-1104.2 -638.3)"/><path class="cls-1" d="M1216,694.33c9.84-11.84,23.4-19.14,38-23.41a176.11,176.11,0,0,1,24.84-5.06c4.53-.64,9.08-1.16,13.62-1.67,4-.44,8.57-1.43,12.36.18,5.85,2.49,11-6.12,5.05-8.64-8.57-3.65-17.81-1.56-26.76-.44a212.49,212.49,0,0,0-30,5.48c-16.81,4.63-33,12.91-44.27,26.49-4.08,4.92,3,12,7.08,7.07Z" transform="translate(-1104.2 -638.3)"/><path class="cls-1" d="M1297,662.93a509.4,509.4,0,0,1,24.54,52c2.38,5.89,12.06,3.32,9.64-2.66a530.94,530.94,0,0,0-25.54-54.38c-3.07-5.67-11.71-.62-8.64,5Z" transform="translate(-1104.2 -638.3)"/><path class="cls-1" d="M1180.15,771.75a61.06,61.06,0,0,1,49.93,7.73c5.41,3.51,10.43-5.14,5.05-8.64a71.05,71.05,0,0,0-57.64-8.73c-6.19,1.73-3.56,11.38,2.66,9.64Z" transform="translate(-1104.2 -638.3)"/><path class="cls-1" d="M1230.49,780c24.9-16.57,56.13-24.55,85.16-14.82,6.12,2,8.74-7.6,2.66-9.64-31.38-10.52-65.91-2.11-92.86,15.83-5.34,3.55-.34,12.21,5,8.63Z" transform="translate(-1104.2 -638.3)"/><path class="cls-1" d="M1301.49,661.41q17.22,50.4,32.78,101.33l4.82-6.33a88.12,88.12,0,0,1-39.29-9.51c-5.73-2.9-10.8,5.72-5,8.64a99.52,99.52,0,0,0,44.34,10.87,5,5,0,0,0,4.82-6.33q-15.56-50.93-32.77-101.33c-2.07-6-11.73-3.45-9.65,2.66Z" transform="translate(-1104.2 -638.3)"/><path class="cls-1" d="M1315.35,702.71A323.64,323.64,0,0,1,1329.22,752c1.25,6.31,10.89,3.64,9.64-2.66A323.64,323.64,0,0,0,1325,700.05c-2.21-6-11.88-3.4-9.64,2.66Z" transform="translate(-1104.2 -638.3)"/><path class="cls-1" d="M1317.36,707.55a279.07,279.07,0,0,1,15.6,49.62c1.36,6.28,11,3.62,9.64-2.66a291.7,291.7,0,0,0-16.6-52c-2.5-5.91-11.12-.82-8.64,5Z" transform="translate(-1104.2 -638.3)"/><path class="cls-1" d="M1318.51,709.14l14.81,51.6c1.77,6.17,11.43,3.54,9.64-2.66l-14.81-51.6c-1.77-6.17-11.42-3.55-9.64,2.66Z" transform="translate(-1104.2 -638.3)"/><path class="cls-1" d="M1310.56,691.43q8.28,30.78,13.75,62.19c1.1,6.38,10.59,3.61,9.64-2.66-3.1-20.33-6.7-41.32-19-58.39a5,5,0,0,0-9.14,3.85,305.87,305.87,0,0,0,20,65.76c2.26,5.28,10.65,1.49,9.14-3.85-8.13-28.82-23.63-55.71-27.35-85.73l-9.82,1.33A403.77,403.77,0,0,0,1319.38,752c2.28,5.86,11.59,3.61,9.64-2.66l-26.48-85.17c-2-6.31-10.53-3.56-9.64,2.66,2.36,16.43,5.11,33,13.85,47.41,3.08,5.09,10,1.55,9.14-3.85-2.55-15-7.1-29.59-11.74-44.1a5.22,5.22,0,0,0-4.83-3.68,121.66,121.66,0,0,0-58.94,10.49c-17,7.68-34.76,19.7-41.15,38.08-2.11,6.09,7.54,8.71,9.65,2.66,5.59-16.09,23.25-26.46,38.11-32.79a112.2,112.2,0,0,1,52.33-8.44L1294.5,669c4.64,14.51,9.2,29,11.75,44.1l9.13-3.85c-8.26-13.64-10.61-29.49-12.84-45l-9.64,2.66L1319.38,752l9.64-2.66a403.35,403.35,0,0,1-21.62-78.09c-1-5.49-10.52-4.28-9.83,1.33,3.85,31.08,19.29,58.57,27.71,88.39l9.14-3.85a295.13,295.13,0,0,1-18.94-63.38l-9.14,3.86c11.78,16.39,15,36.49,18,56L1334,751q-5.46-31.4-13.75-62.18c-1.67-6.21-11.32-3.58-9.64,2.65Z" transform="translate(-1104.2 -638.3)"/><path class="cls-1" d="M1217,699c1.19-8.22-6.62-12.15-12.75-15.85-7.76-4.69-15.34-6.39-24.16-7.88s-16.74-5.18-25.64-6c-9.19-.89-18.42.27-27.54,1.42-5,.64-7.45,8.79-1.33,9.83l2.45.41c6.3,1.06,9-8.57,2.66-9.64l-2.45-.42-1.33,9.82c7.32-.92,14.68-1.85,22.07-1.72s13.79,2.07,20.78,4.21c6.41,2,13.18,2.09,19.58,4a43.18,43.18,0,0,1,9.87,4.64c.86.52,8,5.21,8.15,4.55-.92,6.29,8.72,9,9.64,2.66Z" transform="translate(-1104.2 -638.3)"/><path class="cls-1" d="M1123.34,678.55a903.1,903.1,0,0,0,46.28,79.55c3.51,5.38,11.69.66,8.63-5.05-12.22-22.76-26-45.37-34-70.06l-9.14,3.85c12.84,27.06,26,54,44.46,77.71,3.51,4.5,10.82-1.3,7.85-6.06-16-25.71-32.18-51.65-42.44-80.31l-9.13,3.85a332.57,332.57,0,0,0,22.93,44.33q6.45,10.44,13.66,20.37c4,5.47,8,11.41,15.07,12.86,4.16.85,8-3.4,5.65-7.35a739.76,739.76,0,0,1-40.67-80.54c-2.27-5.26-10.69-1.49-9.14,3.85a208.89,208.89,0,0,0,47,83.38c3.9,4.25,10.59-1.19,7.85-6.06-14.94-26.56-29.85-53.18-42.19-81.08-2.61-5.89-11.15-.78-8.64,5.05,13.41,31.12,27.31,62.47,50.18,88,3.21,3.57,10.21-.18,8.36-4.86-11.32-28.73-32.07-53.73-37.83-84.56l-9.64,2.66c12.94,31.14,26.16,62.3,47.06,89.08,3.07,3.94,10-.33,8.35-4.86-10.5-29.18-32.4-52.9-41.17-82.77l-9.14,3.85c13.55,29.92,27.53,60,49.53,84.76,4.11,4.63,9.87-1.28,7.85-6.06-11.53-27.31-31.07-50.81-39.58-79.45l-9.14,3.86c11.61,25.68,23.42,51.47,40.58,74,3.87,5.08,11.41.89,8.64-5l-30.84-65.91-8.63,5c12.77,26.65,25.69,53.35,43,77.44,3.12,4.36,10.84,1.94,9.14-3.85-3.82-13-11.94-24.38-18.06-36.38a313.24,313.24,0,0,1-17.22-40.84l-9.64,2.65A258.06,258.06,0,0,0,1204,728.15c5.36,10.27,10.94,21.17,20.35,28.28,2.87,2.16,8-.72,7.53-4.32-1.17-9.15-5.35-16.77-9.82-24.7l-15.19-26.94-5.65,7.35a19.19,19.19,0,0,0,10.95.68c3.07-.59,4.69-4.79,3-7.34-7.71-11.56-22-10.29-32.36-17.78l-3.85,9.14a104.66,104.66,0,0,1,39.41,27.15c4.35,4.76,11.41-2.33,7.07-7.07a115.4,115.4,0,0,0-43.82-29.72c-5.66-2.19-8.1,6.08-3.85,9.14,4.55,3.28,9.9,5,15.2,6.64,4.93,1.54,10.54,3,13.57,7.54l3-7.34a9.46,9.46,0,0,1-5.63-.69c-4.26-1.59-7.64,3.81-5.64,7.35L1211.42,729c4.06,7.21,9.34,14.73,10.41,23.13l7.52-4.31c-8.15-6.16-13-17.44-17.6-26.31a241.82,241.82,0,0,1-13-30.56c-2.1-6-11.73-3.47-9.64,2.65a331.6,331.6,0,0,0,16.55,39.9c6.1,12.33,14.84,24.06,18.73,37.33l9.14-3.85c-17.28-24.1-30.2-50.8-43-77.45-2.78-5.82-11.34-.74-8.63,5l30.83,65.9,8.64-5c-17.17-22.54-29-48.34-40.59-74-2.35-5.2-10.73-1.5-9.14,3.85,8.78,29.53,28.72,53.7,40.6,81.84l7.85-6.06c-21.37-24.08-34.81-53.68-48-82.73-2.36-5.21-10.71-1.5-9.14,3.85,8.8,30,30.67,53.58,41.17,82.77l8.36-4.87c-19.75-25.3-32.27-55.25-44.49-84.67-2.44-5.86-10.85-3.8-9.64,2.66,5.79,31,26.48,55.75,37.83,84.56l8.36-4.87C1182.35,733,1169,702,1156,671.79l-8.64,5.05c12.35,27.9,27.25,54.52,42.19,81.08l7.86-6.06a197.79,197.79,0,0,1-44.4-79l-9.14,3.85a740.79,740.79,0,0,0,40.67,80.55l5.65-7.34c-6.06-1.25-10.06-9.52-13.3-14.2q-6.48-9.33-12.28-19.09A333.33,333.33,0,0,1,1144.46,677c-2.21-5.17-11-1.47-9.14,3.86,10.56,29.51,26.94,56.22,43.45,82.7l7.85-6.06c-17.92-23-30.47-49.5-42.89-75.69-2.43-5.11-10.88-1.51-9.14,3.86,8.28,25.54,22.39,48.91,35,72.45l8.63-5.05A900.52,900.52,0,0,1,1132,673.5c-3-5.72-11.58-.67-8.64,5Z" transform="translate(-1104.2 -638.3)"/><path class="cls-1" d="M1215.55,707.9a9.14,9.14,0,0,1-4.8,2.17l3.54,8.54c18.46-20.5,44.13-31.65,69.07-42.15l-3.86-9.14a662.6,662.6,0,0,0-67.91,33.43l5.05,8.64c21-15.74,46.44-23.5,69.33-35.95,4.44-2.42,2.31-9.26-2.53-9.32-16-.17-31.53,8-45.53,15A313.59,313.59,0,0,0,1195.35,705c-5.16,3.71-.75,11.68,5,8.63q41.19-21.61,83.84-40.26c4.81-2.1,2-9.2-2.53-9.31-8.12-.2-15.42,3.59-22.52,7.11a217.54,217.54,0,0,0-20.77,11.75,228.69,228.69,0,0,0-36.87,29.49c-4,4,1.14,10.77,6.06,7.86q42.74-25.35,87.62-46.72c5-2.4,1.41-11.31-3.85-9.14a349.43,349.43,0,0,0-87.27,52c-4.55,3.69,1.25,10.45,6.05,7.85q43.32-23.48,88.58-43c5.17-2.23,1.48-11-3.86-9.14-32.09,11.11-60.26,30.09-87.9,49.4l5,8.64c29.65-22.36,63.46-37.94,97.07-53.29,5.14-2.34,1.5-11-3.85-9.14A255.94,255.94,0,0,0,1205,730.25c-3.62,3.67.08,9.42,4.86,8.36,8.1-1.8,15.41-8.27,22.33-12.61q11.61-7.28,23.49-14.12,24.18-13.9,49.34-26c5.82-2.8.74-11.34-5-8.64-32.17,15-63.48,32.74-88.9,57.88-3.92,3.87,1.33,11.25,6.05,7.85a448.7,448.7,0,0,1,97.41-53.38l-3.86-9.14c-33.7,15.8-67.2,33.37-93.84,59.88-3.94,3.92,1.21,11,6.06,7.85,27.85-18.18,56-36.54,87.56-47.75l-3.85-9.14a440,440,0,0,0-83.33,52.77c-4.56,3.65,1.26,10.49,6.06,7.85l83.83-46.11c4.89-2.69,1.6-11-3.85-9.14a195.56,195.56,0,0,0-47.28,23.81c-13.23,8.9-29.93,19.06-36.6,34.17-1.74,4,2.33,10.2,6.84,6.84a300.7,300.7,0,0,1,74.83-40.87l-2.66-9.64c-29.54,11.57-58.92,25.64-80.72,49.35-3.77,4.1,1,10.81,6.06,7.86,24.42-14.33,49-28.71,75.75-38.28,6-2.14,3.57-11.55-2.66-9.65a180.39,180.39,0,0,0-71,41.26c-3.35,3.16-.57,8.25,3.54,8.53,5.83.41,11.07-1.82,16-4.75,5.67-3.36,11.2-6.91,17-10.11a293.23,293.23,0,0,1,37-17.27l-3.85-9.14a350.11,350.11,0,0,0-50.91,26.91c-5.54,3.54-.74,11.19,5,8.63q30.95-13.65,62.4-26.1l-3.85-9.14a294.85,294.85,0,0,0-44.3,23.7c-4.46,2.9-1.64,11.42,3.86,9.13q23.73-9.84,47.1-20.51l-5-8.63a169.52,169.52,0,0,0-29.34,17.83c-5.11,3.87-.88,11.36,5.05,8.64l31.65-14.52-5-8.64a106.18,106.18,0,0,0-18.65,14.53c-4.37,4.27,1.16,10,6.06,7.86l21.53-9.27-5-8.64-18.93,14c-4.31,3.19-2,10.73,3.85,9.14a85.37,85.37,0,0,0,23.75-10.52l-6.06-7.85-10.09,8.83c-3.77,3.3.22,9.81,4.86,8.35a50.26,50.26,0,0,0,12.41-5.77,5,5,0,0,0-3.85-9.14l-.14-.28c-5.39-3.55-10.4,5.1-5,8.64a9.48,9.48,0,0,0,7.84,1.28l-3.85-9.14a40.45,40.45,0,0,1-10,4.77l4.87,8.36,10.09-8.83c4.26-3.73-1.29-10.91-6.06-7.86a76.5,76.5,0,0,1-21.35,9.52l3.85,9.13,18.92-14c5.22-3.87.88-11.19-5-8.64l-21.54,9.27,6.06,7.85a93.58,93.58,0,0,1,16.63-13c5.59-3.43.72-11.28-5-8.64l-31.65,14.52,5.05,8.64A169.19,169.19,0,0,1,1321,741.43c5.83-2.78.74-11.28-5-8.63q-22.18,10.14-44.71,19.5l3.85,9.14a295.18,295.18,0,0,1,44.29-23.69c5.15-2.21,1.43-11.23-3.85-9.14q-32.65,12.93-64.79,27.11l5,8.63a350.57,350.57,0,0,1,50.91-26.91c5.15-2.2,1.44-11.17-3.85-9.14A317.38,317.38,0,0,0,1268.24,744q-8.1,4.31-15.93,9.1c-5.2,3.18-10.42,7.47-16.83,7l3.53,8.54a169.21,169.21,0,0,1,66.56-38.68l-2.66-9.65c-27.59,9.87-53,24.52-78.14,39.29l6.06,7.85c20.61-22.41,48.36-35.83,76.31-46.78,5.9-2.31,3.42-11.9-2.66-9.64a309.08,309.08,0,0,0-77.21,41.88l6.84,6.84c6.2-14.05,22.11-23.37,34.44-31.55,13.58-9,28-16.68,43.46-21.83l-3.85-9.14-83.84,46.11,6.06,7.85a429.06,429.06,0,0,1,81.3-51.2c5.06-2.45,1.5-11-3.85-9.14-32.39,11.51-61.32,30.07-89.95,48.75l6.06,7.86c26-25.9,58.9-42.88,91.82-58.32,5.07-2.37,1.44-11.22-3.85-9.14a458.64,458.64,0,0,0-99.79,54.4l6.06,7.85c24.82-24.54,55.48-41.63,86.87-56.31l-5-8.64q-24.29,11.67-47.7,25-11.49,6.57-22.73,13.55-5.62,3.5-11.18,7.09c-3.55,2.29-7,5.09-11.16,6l4.86,8.35a244.85,244.85,0,0,1,95.8-60.06l-3.85-9.14c-33.62,15.35-67.42,30.93-97.08,53.28-5,3.79-.31,12.38,5,8.64,26.87-18.78,54.3-37.6,85.51-48.39l-3.85-9.14q-45.23,19.54-88.57,43l6.06,7.86A333.45,333.45,0,0,1,1294,674l-3.86-9.14q-44.85,21.36-87.62,46.72l6.06,7.86a214.26,214.26,0,0,1,33.42-27q8.57-5.58,17.64-10.35c6.69-3.52,14.27-8.26,22-8.07l-2.52-9.32q-42.63,18.62-83.83,40.26l5,8.63a315.74,315.74,0,0,1,39.34-24.17c13.22-6.82,28.45-15.48,43.71-15.31l-2.52-9.31c-22.89,12.44-48.29,20.21-69.33,35.94-5,3.76-.71,11.89,5.05,8.64A657.51,657.51,0,0,1,1284.55,676c5.16-2.18,1.38-11.35-3.85-9.14-26.52,11.16-53.83,22.89-73.48,44.72-2.57,2.85-1.11,9.1,3.53,8.53a21.24,21.24,0,0,0,11.87-5.1c4.93-4.16-2.18-11.2-7.07-7.07Z" transform="translate(-1104.2 -638.3)"/><path class="cls-1" d="M1321.5,730.82a64.79,64.79,0,0,0-16.15-16.17c-4.6-3.22-10.54,4.33-6.06,7.85a100.78,100.78,0,0,1,19.88,20.64c3.71,5.19,12.38.2,8.63-5a109.49,109.49,0,0,0-21.44-22.66l-6.06,7.85a51.44,51.44,0,0,1,12.57,12.58c3.66,5.24,12.33.25,8.63-5Z" transform="translate(-1104.2 -638.3)"/><path class="cls-1" d="M1341.61,760.09c-37-6.38-78.73-10.41-109.26,16.06-4.87,4.22,2.23,11.27,7.07,7.07C1266.86,759.43,1306,764,1339,769.73c6.29,1.09,9-8.55,2.65-9.64Z" transform="translate(-1104.2 -638.3)"/><path class="cls-1" d="M1239.34,776c-18.17-10.92-44.31-19.81-64.8-10.51-5.85,2.65-.77,11.27,5,8.63,8.81-4,19.29-2.48,28.39-.33a92,92,0,0,1,26.31,10.84c5.53,3.33,10.56-5.32,5-8.63Z" transform="translate(-1104.2 -638.3)"/><path class="cls-1" d="M1188.42,750.16A40.84,40.84,0,0,0,1182,758c-2.43,3.83,1.57,8.32,5.65,7.35a25.89,25.89,0,0,0,13.4-8c3.56-4-1.22-11.39-6.06-7.85a50.12,50.12,0,0,0-12.31,12.76c-2.68,4,1.73,8,5.64,7.34a10.49,10.49,0,0,0,8.33-7.92c1-3.87-3.64-8.35-7.34-5.64a56.63,56.63,0,0,0-10.56,9.78c-1.6,1.94-2,4.47-.39,6.56,1.4,1.82,4.42,2.76,6.45,1.29l7.85-5.68c5.14-3.72.28-12.35-5-8.64a53.56,53.56,0,0,0-8.95,7.72c-3.69,4,1.09,11,6.06,7.85a67.31,67.31,0,0,0,11.72-9.5c4.51-4.59-2.55-11.67-7.07-7.07a56,56,0,0,1-9.7,7.94l6.06,7.85a41.68,41.68,0,0,1,6.92-6.15l-5-8.64-7.86,5.69,6.06,7.85a47.49,47.49,0,0,1,8.54-8.22l-7.35-5.65c-.24.94-.39.78-1.35.94l5.65,7.34a36.59,36.59,0,0,1,8.73-9.17l-6.06-7.85a16.61,16.61,0,0,1-9,5.38l5.65,7.35a29.88,29.88,0,0,1,4.86-5.84c4.69-4.43-2.39-11.49-7.07-7.07Z" transform="translate(-1104.2 -638.3)"/><path class="cls-1" d="M1244.05,734.43A317.9,317.9,0,0,1,1207.84,703c-2.85-2.88-7-1.19-8.35,2.2-2.39,6.2-.87,12.48,1,18.6,2.12,7,4.35,14,6.62,21l9.14-3.85a209.37,209.37,0,0,0-21.13-27.41q-5.79-6.3-12.09-12.1c-3.68-3.37-8.31-8.77-13.27-10.18a8.14,8.14,0,0,0-9.9,5.44c-1.53,4.57,0,9.92,1,14.43a123.78,123.78,0,0,0,13.26,34.22c2.73,4.84,11,1.61,9.14-3.85a34.8,34.8,0,0,0-9.76-15.13c-4.77-4.3-11.87,2.75-7.08,7.07a24.61,24.61,0,0,1,7.19,10.71l9.14-3.85a113.84,113.84,0,0,1-10.51-24.93q-1-3.42-1.74-6.89c-.37-1.71-.32-5.46-1.25-6.86v-1.24c-2.46.26-2.57.9-.36,1.94,1.77,1.44,3.48,2.95,5.18,4.47a194.93,194.93,0,0,1,33.56,39.21c3,4.55,11,1.77,9.14-3.86s-3.71-11.51-5.5-17.3c-1.68-5.45-4.28-11.3-2.11-16.93l-8.36,2.21a333.85,333.85,0,0,0,38.23,33c5.17,3.84,10.16-4.83,5-8.63Z" transform="translate(-1104.2 -638.3)"/><path class="cls-2" d="M1190.58,683.61,1219,775c1.9,6.13,11.56,3.51,9.64-2.66L1200.22,681c-1.9-6.12-11.56-3.51-9.64,2.66Z" transform="translate(-1104.2 -638.3)"/><path class="cls-2" d="M1196.59,677.87c-10.63-8.13-25.26-9.61-38.09-11.47-14.29-2.07-28.88-2.82-42.66,2.26-6,2.21-3.4,11.88,2.66,9.64,12.65-4.66,26-4,39.15-2,11.46,1.76,24.4,2.93,33.89,10.19,5.11,3.91,10.1-4.77,5-8.63Z" transform="translate(-1104.2 -638.3)"/><path class="cls-2" d="M1112.76,678.33l30.36,50.26c9.3,15.38,18.43,30.84,29.46,45.08,3.93,5.08,11-2,7.07-7.07-10.89-14.05-19.75-29.58-28.92-44.76l-29.34-48.56c-3.32-5.5-12-.48-8.63,5.05Z" transform="translate(-1104.2 -638.3)"/><path class="cls-2" d="M1178.7,776.8c8.36-3.16,15.71-4.23,24.44-1.72,8.21,2.36,15.88,6.49,23.41,10.44,5.7,3,10.76-5.64,5-8.64-8.78-4.6-17.86-9.48-27.54-11.92s-18.68-1.33-28,2.2c-6,2.25-3.38,11.92,2.66,9.64Z" transform="translate(-1104.2 -638.3)"/><path class="cls-2" d="M1233.28,777.8a540.67,540.67,0,0,1-31.42-80.33c-1.86-6.15-11.51-3.53-9.65,2.66a557.89,557.89,0,0,0,32.43,82.72c2.82,5.78,11.45.72,8.64-5.05Z" transform="translate(-1104.2 -638.3)"/><path class="cls-2" d="M1208.12,730a150.9,150.9,0,0,0-17.76-49.44c-2.84-5-10.48-1.61-9.14,3.85a29.62,29.62,0,0,0,5.91,11.62l7.07-7.07c-7.62-7.91-18.41-9.52-28.76-11.24l-40.61-6.74c-4.17-.69-7.94,3.28-5.65,7.35q15.69,27.75,32.8,54.65c2.88,4.53,11.29,1.68,9.14-3.85-7.34-18.84-18.15-35.76-29.21-52.59-3.51-5.34-11.88-.57-8.63,5,11.3,19.55,22.68,39.1,36.28,57.18,2,2.7,6.83,3.74,8.63,0,2.07-4.32,1-7.84-1.31-11.83-3-5.34-6.2-10.61-9.3-15.91L1139,679.16l-7.86,6.06c12.13,15.54,21.89,32.74,31.61,49.84,3.21,5.63,11.53.66,8.64-5L1142,672c-2.91-5.77-11.44-.71-8.63,5q8.63,17.66,18.34,34.71c5.41,9.48,10.72,22.34,20.55,28a5.06,5.06,0,0,0,7.35-5.65c-3-10.73-9-20.51-14.1-30.34l-16.9-32.44-8.63,5c11.73,21.5,23.52,43,37,63.48a5,5,0,0,0,9.14-3.86c-5-22.13-20.73-39.61-27.25-61.14l-9.14,3.85q16.93,31.51,35.73,62c3.07,5,10.21,1.63,9.14-3.86-2.29-11.77-10.37-22.55-16.21-32.81l-19.92-35c-3.19-5.61-11.66-.63-8.63,5,13.25,24.88,25.15,51.82,44.17,73,3.39,3.78,9.67-.2,8.35-4.86-6.76-23.92-25.07-42.32-32.15-66l-9.14,3.85,42.35,70.28c2.83,4.7,11,1.67,9.14-3.85-7.9-23-25.53-41.39-31.85-65l-9.14,3.86,29.93,60.87c2.46,5,11.25,1.44,9.14-3.85l-21.89-54.92-9.14,3.86q15.8,35.68,32.91,70.78l8.63-5.05-13.74-21.65c-3.44-5.42-12.09-.41-8.63,5.05l13.74,21.65c3.47,5.48,11.44.71,8.63-5.05q-17.1-35.09-32.91-70.78c-2.26-5.12-11.24-1.42-9.14,3.85L1201,745l9.14-3.85-29.93-60.87c-2.54-5.17-10.57-1.52-9.13,3.85,6.35,23.7,23.94,42,31.85,65l9.13-3.85L1169.71,675c-2.87-4.77-10.79-1.7-9.14,3.85,7.1,23.77,25.42,42.2,32.16,66l8.36-4.87c-18.37-20.42-29.8-46.9-42.61-70.94l-8.63,5,18.94,33.25c5.69,10,14,20.7,16.18,32.13l9.14-3.85q-18.79-30.45-35.73-62c-2.68-5-10.79-1.58-9.14,3.86,6.52,21.53,22.23,39.1,27.25,61.14l9.14-3.85c-13.48-20.48-25.26-42-37-63.48-3.09-5.67-11.6-.65-8.63,5l16,30.73c5,9.59,11,19.19,14,29.66l7.34-5.65c-4.68-2.69-7.16-7.84-9.86-12.32q-4.59-7.61-9-15.34Q1149.81,688,1142,672l-8.63,5,29.33,58,8.64-5c-10.17-17.88-20.5-35.61-33.17-51.86-3.55-4.55-10.65,1.27-7.86,6.05l15.18,26,7.35,12.57,3.92,6.7c.39.67,2.57,4.67,2.78,4.24h8.63c-13.59-18.08-25-37.62-36.28-57.18l-8.63,5c10.54,16,21.2,32.23,28.2,50.2l9.13-3.85q-17.1-26.89-32.79-54.66l-5.65,7.34,36.75,6.1c9.42,1.57,21.18,2,28.21,9.31,4.58,4.75,11-2.16,7.07-7.07a18.15,18.15,0,0,1-3.33-7.21l-9.14,3.85a143,143,0,0,1,16.74,47.06c1.08,6.33,10.72,3.64,9.65-2.66Z" transform="translate(-1104.2 -638.3)"/><path class="cls-2" d="M1154.34,715.92c-2.54,3.92-1.26,7.91.49,11.86,2.37,5.35,5,10.61,7.68,15.79a305.48,305.48,0,0,0,18.11,30.08c3,4.35,11.33,1.76,9.14-3.86-7.42-19.08-19.86-36.17-30.65-53.46-3.46-5.55-11.28-.72-8.63,5l21.5,46.88c2.16,4.7,9.29,2.12,9.32-2.52.11-15.33-5-29.68-10.38-43.82l-9.14,3.86q9.49,20,20.56,39.26c2.82,4.92,10.62,1.64,9.13-3.85-3.16-11.66-8.12-22.67-13.13-33.63l-8.63,5.05,12.68,23.74c3,5.63,5.8,15.67,13.36,15.89,3,.09,6-3.31,4.82-6.33q-7.33-18.79-16.45-36.81l-8.63,5c9,12.49,13,27.71,23,39.6,1.78,2.11,5.23,1.71,7.07,0,5-4.65,1.45-10.77-1-15.76l-10.19-21-7.86,6.06c9.8,9.08,13.87,22.37,24.73,30.61,4.29,3.26,8.93-2.84,6.84-6.84l-15.11-29-7.86,6.06c7.91,9.3,13.66,20.1,19.36,30.83,2.84,5.36,10,1.39,9.13-3.85-1.17-7.23-5.33-13.74-8.65-20.15l-10.88-21-8.63,5L1207,750.47c3.76,5.14,12.44.16,8.64-5.05l-11.46-15.69c-3.74-5.12-11.65-.77-8.63,5l10,19.31c3.21,6.19,7.39,12.47,8.52,19.44l9.14-3.86c-6.12-11.52-12.42-22.86-20.91-32.85-3.83-4.5-10.37,1.23-7.86,6.06l15.12,29,6.84-6.84c-9.88-7.5-13.63-20.64-22.71-29-4.27-4-10.31,1-7.85,6.06l6.53,13.45,3.26,6.73c.57,1.18,1.87,5.48,2.94,4.47h7.07c-9.36-11.13-13-25.81-21.48-37.57-3.72-5.17-11.59-.78-8.63,5q8.55,16.83,15.44,34.42l4.82-6.33-1.16,0,3.54,1.46c-2.26-1.82-3.39-5.43-4.75-8l-5.17-9.68-9.87-18.46c-3.08-5.77-11.26-.7-8.63,5.05,4.66,10.19,9.18,20.4,12.12,31.24L1191,760q-11.06-19.23-20.56-39.27c-2.39-5.06-11.16-1.46-9.13,3.85,5.06,13.28,10.13,26.75,10,41.16l9.32-2.52-21.51-46.89-8.63,5c10.27,16.47,22.57,32.9,29.64,51.07l9.14-3.85c-5.21-7.64-10.1-15.49-14.6-23.57q-3.14-5.65-6-11.44c-.86-1.73-6.67-11-5.64-12.63,3.5-5.42-5.15-10.44-8.64-5Z" transform="translate(-1104.2 -638.3)"/><path class="cls-2" d="M1212.14,687.53q10.77,42.19,23.43,83.87c.74,2.46,4.61,1.41,3.85-1.06q-12.64-41.67-23.42-83.88c-.64-2.49-4.5-1.43-3.86,1.07Z" transform="translate(-1104.2 -638.3)"/><path class="cls-3" d="M1213.47,678.78c-4.66-7-13.84-10-21.17-13.52a178.06,178.06,0,0,0-27.43-10.82c-17.42-4.94-36-5.27-52.64,2.41-5.25,2.42-.68,10.18,4.55,7.77,14.37-6.63,30.78-5.73,45.7-1.5a155.08,155.08,0,0,1,22.78,8.74c3.61,1.67,7.18,3.42,10.74,5.18,3.29,1.62,7.6,3.11,9.7,6.28,3.18,4.8,11,.3,7.77-4.54Z" transform="translate(-1104.2 -638.3)"/><path class="cls-4" d="M1104.24,654.55a31.91,31.91,0,0,0,2.75,14.38c1,2.24,4.25,2.73,6.16,1.61,2.31-1.35,2.57-3.91,1.61-6.15a21.92,21.92,0,0,1-1.52-9.84c.3-5.79-8.7-5.77-9,0Z" transform="translate(-1104.2 -638.3)"/><path class="cls-3" d="M1212.94,682.29c5.31-5,11.73-8.26,18.27-11.33,7.12-3.34,14.28-6.63,21.63-9.44,14.52-5.55,30-9.4,45.52-6.21,5.66,1.16,8.07-7.51,2.4-8.68-17.17-3.53-34.18,0-50.31,6.22-7.81,3-15.44,6.45-23,10s-14.75,7.35-20.86,13.1c-4.23,4,2.14,10.33,6.36,6.36Z" transform="translate(-1104.2 -638.3)"/><path class="cls-4" d="M1209.58,675.5c29.94-15.73,61.86-32,96.75-27.36l-4.5-4.5-1,9.37c-.64,5.75,8.37,5.7,9,0l1-9.37c.29-2.64-2.32-4.21-4.5-4.5-36.38-4.85-70.08,12.19-101.29,28.59-5.13,2.7-.58,10.47,4.54,7.77Z" transform="translate(-1104.2 -638.3)"/><path class="cls-4" d="M1204.29,671.62a26.52,26.52,0,0,0-.64,8c.19,2.34,1.93,4.61,4.5,4.5,2.28-.11,4.71-2,4.5-4.5a24,24,0,0,1-.05-3.17c0-.23.12-1.3.09-1.1s0,.15.08-.37c.06-.32.12-.64.2-1a4.5,4.5,0,1,0-8.68-2.4Z" transform="translate(-1104.2 -638.3)"/><path class="cls-5" d="M1215.52,687.53A141.82,141.82,0,0,1,1305.18,661c5.79.29,5.78-8.71,0-9a149.78,149.78,0,0,0-94.2,27.74c-4.67,3.35-.18,11.16,4.54,7.77Z" transform="translate(-1104.2 -638.3)"/><path class="cls-5" d="M1305,658.36a723.13,723.13,0,0,1,34.09,110.69c1.25,5.65,9.93,3.26,8.68-2.39A724.24,724.24,0,0,0,1313.71,656c-2.12-5.32-10.83-3-8.68,2.39Z" transform="translate(-1104.2 -638.3)"/><path class="cls-5" d="M1344.12,764.68c-10.52-1.68-21.23-2.22-31.84-3.11-10.08-.86-20.22-1.79-30.35-1.29-9.25.46-18.4,2.09-26.91,5.83-9.33,4.11-17,10.95-24.54,17.7-4.32,3.88,2.06,10.23,6.36,6.37,7.07-6.36,14.3-12.84,23.21-16.49,8-3.28,16.72-4.36,25.3-4.52a247.81,247.81,0,0,1,26,1.32c10.11.85,20.37,1.27,30.39,2.87,5.67.9,8.11-7.77,2.4-8.68Z" transform="translate(-1104.2 -638.3)"/><path class="cls-5" d="M1235.92,784.34c-17.35-17.36-42.81-21.72-65.16-11.88-5.29,2.32-.71,10.08,4.54,7.77a48.79,48.79,0,0,1,54.26,10.47c4.1,4.11,10.46-2.26,6.36-6.36Z" transform="translate(-1104.2 -638.3)"/><path class="cls-5" d="M1106.52,673.84q30.86,52.17,62.7,103.76c3,4.92,10.83.4,7.77-4.54q-31.85-51.59-62.7-103.76c-3-5-10.73-.46-7.77,4.54Z" transform="translate(-1104.2 -638.3)"/><path class="cls-5" d="M1112.44,674c32-16.07,67.17,1.55,95.8,16.48,5.12,2.68,9.68-5.09,4.54-7.77-31.91-16.65-69.56-34.24-104.88-16.48-5.18,2.6-.63,10.36,4.54,7.77Z" transform="translate(-1104.2 -638.3)"/><path class="cls-4" d="M1110.1,657.48a115.24,115.24,0,0,1,93.22,17.27c4.77,3.31,9.27-4.49,4.54-7.78a124.17,124.17,0,0,0-100.15-18.17c-5.62,1.4-3.24,10.09,2.39,8.68Z" transform="translate(-1104.2 -638.3)"/></svg>