<svg id="head" xmlns="http://www.w3.org/2000/svg" viewBox="0 0 581.93 396.64"><defs><style>.cls-1,.cls-4{fill:#704636;}.cls-2{fill:#2d1c0c;}.cls-3{fill:#c6947d;stroke:#2d2721;}.cls-3,.cls-4{stroke-miterlimit:10;stroke-width:10px;}.cls-4{stroke:#2d1c0c;}.cls-5{fill:#915c47;}</style></defs><title>head</title><path class="cls-1" d="M1081.58,409.63c-18.4,4.42-15.47,31.44-9.86,44.24,2.22,5.07,8.87,1.76,9.32-2.52,1.18-11.17-8.14-20-7.13-30.9h-10a114.53,114.53,0,0,0,1.46,23.47c1,5.56,3.53,9.94,9,12,3.4,1.29,7.5-2.72,6.15-6.15a48.59,48.59,0,0,0-7-12.3c-3.21-4.12-9.57.4-8.36,4.87a27.84,27.84,0,0,0,7.65,13l3.54-8.54a172.21,172.21,0,0,1-22.65-4c-5.56-1.36-8.64,6.07-3.86,9.14a50.71,50.71,0,0,0,20,7.56c6.2.94,9-7.81,2.65-9.64l-23.82-6.89c-6.21-1.79-8.8,7.76-2.66,9.65a71.77,71.77,0,0,1,15,6.52c4.75,2.74,10.54-4.11,6.06-7.85a47.56,47.56,0,0,0-21.15-10.42,5.07,5.07,0,0,0-6.15,6.15,12.26,12.26,0,0,0,12.93,9.82,5,5,0,0,0,2.53-9.32l-13.88-9c-5-3.24-9.65,3.77-6.06,7.86l4.51,5.14,6.06-7.85a19,19,0,0,1-7.33-5.73c-3-3.81-10.23.32-8.36,4.86a83.9,83.9,0,0,0,26.85,35.14c4.69,3.61,9.68-3.85,6.06-7.85l-17.11-18.91c-3.74-4.13-11.28,1.46-7.85,6.06a166.07,166.07,0,0,0,22.52,24.8c4,3.56,11.33-1.19,7.85-6.06q-10.17-14.22-21.47-27.57c-3.62-4.27-11.26,1.49-7.85,6.06a173.84,173.84,0,0,0,27.6,29.45c4.23,3.56,10.69-.85,7.85-6.06a111.68,111.68,0,0,0-21-27.34c-3.92-3.74-11.37,1.33-7.85,6.06a239.76,239.76,0,0,0,28.07,31.65c4.38,4.13,10-1,7.85-6.05a103.59,103.59,0,0,0-26.86-36.87c-4.23-3.72-10.57.91-7.85,6.06a113.59,113.59,0,0,0,32.61,37.89c4.51,3.39,8.55-2.9,6.84-6.84a121.44,121.44,0,0,0-25.68-37.6c-3.95-4-10.91,1.16-7.85,6.06,9.62,15.38,19.63,30.58,34.56,41.34,4.31,3.11,9-2.78,6.84-6.84a242.35,242.35,0,0,0-23.36-35.66c-3.5-4.46-11,1.34-7.86,6.06,9.25,14.08,18.67,28.19,31,39.84,4.26,4,10.27-1,7.85-6.06A127.33,127.33,0,0,0,1075,452.54c-3.94-3.78-11.22,1.23-7.85,6.06a195.3,195.3,0,0,0,17.48,21.75c4.77,5.12,12,15.1,20.12,12.11,2.79-1,5-4.48,3-7.34a157.11,157.11,0,0,0-27.9-30.86c-4.87-4.1-11.56,2.32-7.08,7.07q10,10.56,20.31,20.76c5.65,5.57,11.39,12.9,19.93,13.16,4.78.15,6-5.37,3.54-8.53l-26-33.15c-3.47-4.43-11.21,1.47-7.85,6.06a172.36,172.36,0,0,0,35.06,35.68c4.28,3.25,9-2.84,6.84-6.84-6.63-12.57-15.82-23.41-25.05-34.12-3.65-4.25-11.33,1.53-7.85,6.06a159.45,159.45,0,0,0,34.15,33c4,2.87,9.61-2.81,6.84-6.85q-11.58-16.82-24.78-32.42c-3.62-4.29-11.17,1.43-7.85,6.06a136.46,136.46,0,0,0,31.45,31.45c4.18,3,9.28-2.77,6.84-6.84l-22.12-36.85-8.63,5.05A390,390,0,0,0,1131,486.54c3.7,4.79,10.08-1.31,7.85-6.06a237.86,237.86,0,0,0-18.6-32.72c-3.58-5.27-12.08-.47-8.64,5.05,7.32,11.72,14.45,23.55,21.58,35.39,2.82,4.7,11.06,1.67,9.14-3.85q-7.9-22.67-17.77-44.56c-2.65-5.88-11.19-.77-8.64,5a363.9,363.9,0,0,0,23.37,44.61c2.85,4.65,11.09,1.69,9.13-3.85l-15.52-43.94-9.64,2.66c6,16.11,12.16,32.35,22.36,46.35,3.12,4.28,11,2,9.14-3.85a427.6,427.6,0,0,0-19.43-50.59c-2.4-5.23-10.61-1.49-9.14,3.86a162.77,162.77,0,0,0,25.9,53.53c3.08,4.17,11.2,1.95,9.14-3.85q-10.32-29-22.91-57.19c-2.35-5.28-10.55-1.48-9.14,3.85a164.51,164.51,0,0,0,25.63,54.26,5,5,0,0,0,8.64-5.05q-8.4-17.88-17.9-35.18c-3.15-5.74-11.26-.7-8.64,5a225.68,225.68,0,0,0,31.32,49.87c3.58,4.35,11.11-1.41,7.85-6.06l-26.61-37.94-8.64,5.05A293.46,293.46,0,0,0,1180,510.3c4.79,4.38,11.27-2.22,7.07-7.07l-24.71-28.51c-3.67-4.23-11.34,1.53-7.86,6.06a203.52,203.52,0,0,0,37.45,37.48c4.48,3.46,10.26-4.1,6-7.85l-19.25-17.17c-4.82-4.3-11.31,2.23-7.07,7.07a152.37,152.37,0,0,0,26,23.46c4.57,3.27,10.55-4.37,6.06-7.86l-9.17-7.12c-4.32-3.36-10.67.71-7.85,6.06,2.9,5.53,7.67,10.34,14.38,8.54l-6.15-6.15a20,20,0,0,1-6.12,12l8.36,2.21a179.22,179.22,0,0,0-11.5-27.44c-2.59-5-11-1.55-9.14,3.86l9,26.83c2,6,11.55,3.54,9.65-2.66a169,169,0,0,0-14.36-33.54c-2.71-4.8-11.17-1.56-9.14,3.86a74.81,74.81,0,0,0,14.52,24c3.86,4.29,10.63-1.21,7.86-6.06a117.63,117.63,0,0,0-16.37-22.11c-3.78-4-11.36,1.5-7.85,6.06l6.13,8,4.32-7.52c-11.37-.43-22.5,4.22-33.2,7.49l-35.37,10.82,4.86,8.36c9.51-10.94,19-22.28,22.68-36.59a5.06,5.06,0,0,0-6.15-6.15c-14.62,3.19-31.91,5.35-46.43.58-7.25-2.38-13.32-7.26-19-12.24-2.14-1.89-4.86-4.11-5.88-6.87-1.48-4,3.34-5.54,6.4-6.66,29.69-10.85,58.08,11.35,79.67,28.92l4.87-8.36c-6-2.06-11.35,1.64-14.15,6.87-3.81,7.08-6.63,14.88-9.87,22.24l9.13,3.86,7.72-30.56c1.32-5.26-6.76-9.22-9.14-3.86a187.84,187.84,0,0,0-12.13,36.95c-1.11,5.19,6.79,9.35,9.14,3.86l14.92-34.87-9.14-3.86L1130.55,516c-1.24,4.49,5.11,8.92,8.36,4.86a99,99,0,0,0,17.78-33.69c1.86-6.24-7.49-8.63-9.65-2.66a220,220,0,0,0-7.87,27.23c-1.19,5.4,6.19,8.91,9.14,3.85l14.61-25.08-9.14-3.86-7.68,24.7c-1.78,5.71,6,8.26,9.14,3.85a114.61,114.61,0,0,0,10.19-17.52l-9.14-3.85a118.78,118.78,0,0,0-4.27,16.72c-.83,4.61,4.64,8.74,8.35,4.86a52.59,52.59,0,0,0,10.28-15.18l-9.14-3.85a62.7,62.7,0,0,0-1.65,14c0,3.67,4.3,6.4,7.52,4.32l5.67-3.67-6.06-.78,3.17,3.84c4.1,5,11.14-2.14,7.07-7.07l-3.17-3.84a5,5,0,0,0-6.06-.78l-5.67,3.66,7.53,4.32a50.78,50.78,0,0,1,1.29-11.32c1.21-5.23-6.74-9.27-9.14-3.85a45,45,0,0,1-8.71,13.15l8.36,4.86a118.65,118.65,0,0,1,4.27-16.71c1.78-5.3-6.71-9-9.13-3.86a115.25,115.25,0,0,1-10.2,17.53l9.14,3.85,7.69-24.7c1.69-5.45-6.31-8.71-9.14-3.85l-14.61,25.08,9.14,3.86a216.62,216.62,0,0,1,7.87-27.23l-9.65-2.66a86.18,86.18,0,0,1-15.2,29.28l8.36,4.87,8.66-31.36c1.46-5.27-6.85-9.19-9.13-3.85l-14.92,34.87,9.14,3.85a176.29,176.29,0,0,1,11.11-34.56l-9.14-3.85-7.71,30.56c-1.32,5.26,6.78,9.22,9.14,3.85,1.3-3,9.54-25.61,12.73-24.52,4.57,1.56,8.75-5.19,4.86-8.35-22.49-18.31-48.27-38.11-79.14-33.91-11,1.49-28.75,7.46-23.43,21.89,2.27,6.17,7.81,10.55,12.75,14.56,5.51,4.49,11.28,8.4,18.05,10.74,16.41,5.67,36,3.32,52.56-.3l-6.16-6.15c-3.28,12.61-11.72,22.54-20.1,32.18-3.09,3.56-.21,9.9,4.87,8.35l33.51-10.25c10.32-3.16,21.45-8.11,32.4-7.7,3.47.13,6.66-4.49,4.32-7.53l-6.13-8-7.86,6.06a105.94,105.94,0,0,1,14.8,20.09l7.85-6.06a61.51,61.51,0,0,1-12-19.64l-9.14,3.85a156.13,156.13,0,0,1,13.35,31.15l9.65-2.66-9-26.83-9.13,3.85a163.35,163.35,0,0,1,10.48,25,5.06,5.06,0,0,0,8.36,2.21,28.5,28.5,0,0,0,8.69-16.41c.57-3.66-2.14-7.22-6.15-6.15-1.18.32-2.7-3.21-3.09-3.95l-7.85,6.06,9.17,7.12,6.06-7.85a141.4,141.4,0,0,1-24-21.89l-7.07,7.07,19.25,17.17,6.06-7.86a185.35,185.35,0,0,1-33.85-33.89l-7.86,6.06L1180,510.3l7.07-7.07a280.73,280.73,0,0,1-37.58-41.86c-3.74-5.12-12.37-.26-8.64,5.05l26.61,37.94,7.86-6.06a216.43,216.43,0,0,1-29.75-47.84l-8.64,5q9.51,17.31,17.9,35.19l8.64-5.05a156.71,156.71,0,0,1-24.62-51.87l-9.14,3.85q12,27,21.9,54.81l9.14-3.85a155,155,0,0,1-24.9-51.15l-9.14,3.85a409.24,409.24,0,0,1,18.43,48.2l9.14-3.85c-9.71-13.34-15.63-28.63-21.36-44-2.22-6-11.8-3.46-9.64,2.66l15.52,43.94,9.14-3.85a364,364,0,0,1-23.36-44.62l-8.64,5q9.3,20.71,16.76,42.17l9.14-3.86c-7.12-11.83-14.26-23.67-21.57-35.39l-8.64,5.05a237.33,237.33,0,0,1,18.61,32.72l7.85-6.06a368.63,368.63,0,0,1-21.78-31.53c-3.37-5.46-12-.49-8.63,5.05l22.12,36.85,6.84-6.85a121.56,121.56,0,0,1-27.86-27.86l-7.86,6.06a381.79,381.79,0,0,1,23.21,30.4l6.84-6.84a143.66,143.66,0,0,1-30.56-29.39l-7.85,6.06c8.69,10.09,17.24,20.26,23.49,32.1l6.84-6.84a156.25,156.25,0,0,1-31.48-32.1l-7.85,6.06,26,33.15,3.53-8.54c-3.52-.1-6.37-3.9-8.71-6.17q-4.17-4.05-8.28-8.15-8.2-8.21-16.17-16.67l-7.08,7.07a146.88,146.88,0,0,1,26.34,28.83l3-7.34c-1.59.59-6.33-5.32-7.32-6.33q-3.42-3.48-6.65-7.16a175.64,175.64,0,0,1-12.34-15.78l-7.85,6.06a119.54,119.54,0,0,1,25.18,34.9l7.85-6.06c-11.69-11.09-20.6-24.42-29.39-37.82l-7.86,6.06a227.62,227.62,0,0,1,21.8,33.64l6.84-6.85c-13.42-9.68-22.33-23.94-31-37.75l-7.85,6.06a113.88,113.88,0,0,1,24.11,35.58l6.84-6.84a102.71,102.71,0,0,1-29-34.31l-7.85,6.06a97.13,97.13,0,0,1,25.3,34.84l7.85-6.06a227.28,227.28,0,0,1-26.51-29.63l-7.85,6.06a102.88,102.88,0,0,1,19.41,25.32l7.86-6.06a163.39,163.39,0,0,1-26-27.43l-7.85,6.06q10.47,12.38,19.91,25.55l7.85-6.06a153.91,153.91,0,0,1-21-22.78l-7.85,6.06,17.11,18.91,6.06-7.85A71.11,71.11,0,0,1,1039.65,440l-8.35,4.87a25.3,25.3,0,0,0,9.35,7.3c5.12,2.34,9.94-3.43,6.06-7.86l-4.51-5.14-6.06,7.85,13.88,9,2.52-9.32c-2,.15-2.88-.46-3.28-2.48l-6.15,6.15a37.36,37.36,0,0,1,16.73,7.85l6.06-7.86a84,84,0,0,0-17.35-7.53l-2.66,9.65,23.83,6.88,2.65-9.64a44,44,0,0,1-17.55-6.55l-3.85,9.14a195.26,195.26,0,0,0,25.31,4.4c4.42.48,6.44-5.72,3.53-8.53a17.83,17.83,0,0,1-5.08-8.57l-8.35,4.86a32.34,32.34,0,0,1,4.46,7.89l6.15-6.15c-2.63-1-2.51-9.16-2.69-11.14a130.9,130.9,0,0,1-.39-14.69c.17-6.52-9.42-6.3-10,0-1,11.14,8.28,20,7.13,30.9l9.32-2.53a35.67,35.67,0,0,1-2.84-17.78c.44-4.43,1.74-10.57,6.72-11.76,6.25-1.5,3.61-11.15-2.66-9.65Z" transform="translate(-1025.13 -158.23)"/><path class="cls-1" d="M1070.94,441.83a69.57,69.57,0,0,1-42-13.33c1.37,26.08,17.53,50.88,40.83,62.67a121.64,121.64,0,0,0,19.59,7.47c13.4,4.11,28.49,7.25,41,.84l-25.37,32c1.48,2.5,5,2.6,7.91,2.32A178.42,178.42,0,0,0,1177,515a62.38,62.38,0,0,0,8.1,21.66c1.4,2.33,3.57,4.84,6.25,4.42a6.9,6.9,0,0,0,3.2-1.76,63.64,63.64,0,0,0,15.37-18.74" transform="translate(-1025.13 -158.23)"/><path class="cls-2" d="M1070.94,438.08a67.9,67.9,0,0,1-40.16-12.81c-2.27-1.63-5.81.53-5.64,3.23a80.77,80.77,0,0,0,32.65,59.72c10.47,7.69,23,12.08,35.41,15.46,13,3.52,26.51,5,39-1l-4.54-5.89-25.37,32a3.89,3.89,0,0,0,0,5.3c3.5,4.33,9.22,3.61,14.17,3a181.08,181.08,0,0,0,62.45-18.95l-5.51-2.24a68.8,68.8,0,0,0,6.31,18.65c2.15,4.21,5.06,9.63,10.36,10.16,4.81.48,8.92-4.16,11.94-7.24a69.92,69.92,0,0,0,11.17-15.09c2.35-4.23-4.12-8-6.47-3.79a64,64,0,0,1-6.72,10c-1.57,1.88-5.6,7.4-8.07,8-3.94,1-6.91-8-7.93-10.62a66.2,66.2,0,0,1-3.36-12c-.47-2.53-3.52-3.25-5.51-2.25a177,177,0,0,1-33.8,13.06q-8.32,2.27-16.86,3.71c-3.62.62-14.09,3.76-16.87.33v5.3l25.37-32c2.62-3.31-.55-7.81-4.54-5.89-11.28,5.42-24.13,2.86-35.63-.49-11-3.2-21.87-7.12-31.16-14a72.82,72.82,0,0,1-28.94-53.24l-5.64,3.24a74.66,74.66,0,0,0,43.94,13.84c4.82,0,4.83-7.53,0-7.5Z" transform="translate(-1025.13 -158.23)"/><path class="cls-1" d="M1550,437.08a16.84,16.84,0,0,1-5.64,4.19l6.06.78c-.09-.09.08-4.82.09-6.08l.08-8.9c0-5.74-8.15-6.64-9.82-1.33l-3,9.63c-.8,2.55-1.41,7.71-3.19,9.65l3.53-1.47-1.12.14,5,5a50.18,50.18,0,0,1,4.6-21.47l-9.14-3.85a104.41,104.41,0,0,1-7.31,25.93l9.32,2.52c.35-9.43,2.65-18.48,5-27.56l-9.65-2.66c-1.32,9.56-1.72,20.91-7.49,29l9.14,1.2c-1.85-4.48.93-10.23,1.25-14.89.25-3.55-4.53-6.55-7.52-4.32-5.34,4-7.7,9.58-10.8,15.27-4.09,7.5-9.1,14.5-13.57,21.76l8.64,5.05A457.56,457.56,0,0,1,1543,433.15l-7.85-6.06a365.19,365.19,0,0,0-23.65,38c-2.57,4.76,4.11,10.64,7.85,6.06,10.93-13.38,22-26.71,35.27-37.81l-7.07-7.07-37.31,38.4,7.07,7.07c15.45-16.43,31.27-33,52-42.66l-5-8.63c-17.88,12.94-35.79,26-51.33,41.74-4.62,4.68,2.17,11.05,7.07,7.07a262.52,262.52,0,0,1,41-27.31l-5-8.63a319,319,0,0,0-41.67,32.08c-4.14,3.77,1.33,11.1,6.06,7.85l44.72-30.72-6.06-7.85a126.64,126.64,0,0,1-38,25.48l5.05,8.63A195,195,0,0,0,1577,434c4-3.84-1.3-11.1-6.06-7.86a296.62,296.62,0,0,0-23.74,18c-4.33,3.64,1.34,11,6.06,7.85a255.11,255.11,0,0,0,34.64-27.42c4-3.82-1.33-11.15-6.06-7.85L1558.46,433l6.06,7.85a130.31,130.31,0,0,1,22.26-19.15c5.28-3.57.58-11.93-5-8.64a243.25,243.25,0,0,1-30.63,15.23l5.65,2.3c1,2-.35,1.81,1.86,1.59a16.43,16.43,0,0,0,2.83-.93c1.91-.6,3.83-1.17,5.75-1.75,4.07-1.22,8.15-2.43,12.12-4,7.42-2.85,14.3-6.63,19.62-12.64l-7.07-7.07c-8.13,10.43-20.79,17.7-31.28,25.55l-35.09,26.27,6.06,7.85,13.33-10.36-7.07-7.07a399.32,399.32,0,0,0-31.7,28.45c-3.88,3.87,1.41,11.38,6.06,7.85l22-16.74c5.15-3.91.91-11.2-5-8.63a40,40,0,0,0-18.34,16.16,5.05,5.05,0,0,0,3,7.35,65.33,65.33,0,0,0,26,1.86c6.41-.84,6.43-9.16,0-10l-20-2.6c-5.91-.76-6.26,8.05-1.33,9.83q8.46,3,16.58,6.84c5.3,2.49,9.59-3.38,6.06-7.85a67.48,67.48,0,0,0-17.17-15.32c-5-3.15-9.69,3.75-6.06,7.85a43.91,43.91,0,0,0,30,14.62c5.15.4,6.52-6.89,2.52-9.31a27,27,0,0,0-18.57-3.52c-4.14.6-5,7.44-1.19,9.14a41.94,41.94,0,0,0,26.62,3l-2.66-9.64c-19.67,4.53-39.33,9.12-58.47,15.6l3.85,9.14a83.87,83.87,0,0,1,23.1-9.06l-2.66-9.64-35.87,11.78,3.85,9.14a42.17,42.17,0,0,1,10.92-3l-2.66-9.64-19.45,4,2.65,9.64,6.73-2.23-3.85-9.14a40.27,40.27,0,0,1-11.61,3.35l3.53,8.54a159.9,159.9,0,0,0,36.9-46.95c3-5.71-5.22-10.54-8.64-5.05l-17.37,27.87c-3,4.72,4.14,10.47,7.85,6.06l18.5-22-7.86-6.06a341.46,341.46,0,0,1-23.31,30.64c-2.42,2.83-1.6,7.24,2.21,8.36,6.26,1.83,11.37-4.52,15.76-8.11l17.51-14.29-7.07-7.07-17.91,18.18c-3.86,3.92,1.24,11.16,6.06,7.85l22-15.12-5-8.63a155.27,155.27,0,0,0-17.34,14.85c-4.27,4.26,1.11,10.06,6.06,7.85a138.52,138.52,0,0,0,20.48-11.32l-6.06-7.85-12.2,11c-3.58,3.23-.38,8.05,3.54,8.54,4.37.54,8.51-.63,12.55-2.22,3.82-1.5,8.12-3.89,12.33-2.94,6.27,1.42,9-8.22,2.66-9.64-4.78-1.08-9.19-.34-13.73,1.38s-8.83,4-13.81,3.42l3.53,8.53,12.2-11c4.18-3.77-1.31-11-6.06-7.85a138.43,138.43,0,0,1-20.48,11.32l6.06,7.85a138.33,138.33,0,0,1,15.32-13.29c5.06-3.75.34-12.33-5-8.63l-22,15.12,6.06,7.85,17.91-18.18c4.61-4.68-2.18-11.06-7.07-7.07l-12.41,10.12-5.83,4.76c-.53.44-5.52,4.88-5.31,4.94l2.21,8.36a363.26,363.26,0,0,0,24.88-32.66c3.14-4.65-4.19-10.43-7.86-6.06l-18.49,22,7.85,6.05,17.38-27.86-8.64-5.05a152.31,152.31,0,0,1-35.33,44.93c-3.06,2.66-.77,9.09,3.54,8.53a56.22,56.22,0,0,0,16.65-4.71c5.14-2.35,1.5-10.91-3.85-9.14l-6.72,2.23c-6.13,2-3.65,10.93,2.65,9.64l19.46-4c6.4-1.31,3.56-10.58-2.66-9.64a50.92,50.92,0,0,0-13.31,4c-5.16,2.29-1.49,10.89,3.86,9.14L1523,493.06c6.1-2,3.64-11.1-2.66-9.64a92.92,92.92,0,0,0-25.48,10.07c-4.8,2.76-1.63,11,3.85,9.14,19.13-6.49,38.8-11.08,58.47-15.61,6.29-1.45,3.61-11-2.66-9.64a30.28,30.28,0,0,1-18.91-2l-1.2,9.14a16.05,16.05,0,0,1,10.87,2.5l2.52-9.32A33.77,33.77,0,0,1,1524.87,466l-6.06,7.85A59.85,59.85,0,0,1,1534,487.64l6.06-7.85q-9.3-4.37-19-7.86l-1.33,9.82,20,2.6v-10a58.1,58.1,0,0,1-23.29-1.5l3,7.34a31.16,31.16,0,0,1,14.74-12.58l-5-8.63-22,16.74,6.06,7.85a399.32,399.32,0,0,1,31.7-28.45c5-4.06-2.07-10.95-7.07-7.07l-13.33,10.36c-4.44,3.44,1.51,11.26,6.06,7.85l36.69-27.46c10.6-7.94,23.48-15.36,31.7-25.92,3.84-4.94-2.71-12-7.07-7.07-7,7.86-16.86,10.88-26.6,13.81-6.94,2.08-22.68,5.38-17.14,16,.91,1.75,3.7,3.09,5.64,2.29a260.93,260.93,0,0,0,33-16.23l-5-8.64a141.37,141.37,0,0,0-24.29,20.72c-3.69,4,1.2,11.24,6.06,7.86l23.41-16.32-6.06-7.85a240.61,240.61,0,0,1-32.62,25.86l6.06,7.85A270.67,270.67,0,0,1,1576,434.73l-6.06-7.86a186.37,186.37,0,0,1-48.84,33.31c-5.87,2.77-.75,11.16,5.05,8.63a134.16,134.16,0,0,0,40-27c4-3.87-1.28-11.13-6.06-7.85l-44.72,30.72,6.06,7.85A304.51,304.51,0,0,1,1561.11,442c5.4-3.48.65-11.7-5-8.63A274.67,274.67,0,0,0,1513,462.21l7.07,7.07c15-15.16,32.1-27.73,49.3-40.18a5,5,0,0,0-5-8.63c-21.49,10-38.07,27.21-54.06,44.22-4.4,4.68,2.57,11.7,7.07,7.07l37.31-38.4c4.56-4.69-2.19-11.13-7.07-7.07-13.31,11.1-24.34,24.43-35.27,37.81l7.85,6.06a367.53,367.53,0,0,1,23.65-38c3.25-4.58-4.36-10.55-7.85-6.06a481.28,481.28,0,0,0-30.2,43.56c-3.37,5.5,5.27,10.53,8.64,5.05,3.93-6.4,8.16-12.61,12-19.06,2.63-4.43,4.54-11.22,8.78-14.39l-7.53-4.31c-.4,5.92-3.32,11.68-.9,17.54,1.68,4.07,6.51,4.9,9.14,1.2,6.35-8.92,7.06-20.92,8.51-31.41.85-6.16-8-9.09-9.65-2.66-2.59,9.94-5,19.91-5.37,30.22-.17,4.7,7.3,7.17,9.32,2.52A113.69,113.69,0,0,0,1547,426c.77-5.06-6.53-9.47-9.14-3.85a62,62,0,0,0-6,26.51c0,2.46,2.3,5.32,5,5,5.26-.64,6.73-3.91,8.22-8.66l5.23-16.63-9.82-1.33c-.06,6.54-2.23,16.86,2.76,22.05a5.16,5.16,0,0,0,6.06.79,23.9,23.9,0,0,0,7.66-5.76c4.27-4.78-2.78-11.88-7.07-7.07Z" transform="translate(-1025.13 -158.23)"/><path class="cls-1" d="M1572.37,414.73l24.38-11.66c1.87-.89,4.34-1.7,5.79-.23s.6,4-.43,5.88c-15.53,27.85-42.53,47.84-71.6,60.95a102.09,102.09,0,0,0,39.36,9.94c-5.79,4.16-12.66,6.52-19.44,8.73q-31.08,10.13-62.92,17.66c-8.25,1.95-17.83,3.5-24.46-1.78" transform="translate(-1025.13 -158.23)"/><path class="cls-2" d="M1574.26,418l16.55-7.91c2.51-1.2,5.17-3,7.84-3.75l.87-1a10.54,10.54,0,0,1-1,2.23c-.48.92-1,1.81-1.58,2.7a119,119,0,0,1-18.84,23.51c-14.25,13.93-31.38,24.48-49.44,32.71-2.48,1.12-2.43,5.33,0,6.47a110.58,110.58,0,0,0,41.25,10.46l-1.89-7c-7.28,5-15.71,7.47-24,10.12q-13.74,4.36-27.64,8.23t-27.92,7.22c-7.74,1.84-16.44,4.07-23.43-1-3.93-2.83-7.67,3.68-3.79,6.47,6.75,4.86,15,4.58,22.88,3.13,10.28-1.91,20.47-4.85,30.55-7.61s20.35-5.77,30.43-9c9.2-2.91,18.7-5.65,26.74-11.16a3.78,3.78,0,0,0-1.89-7,100.83,100.83,0,0,1-37.47-9.43v6.47c22.81-10.38,44.4-24.71,60.46-44.19A124.16,124.16,0,0,0,1603.38,414c2.3-3.82,5.71-9.27,2.11-13.42s-9.18-1.43-13.24.51l-21.77,10.41c-4.35,2.09-.55,8.56,3.78,6.48Z" transform="translate(-1025.13 -158.23)"/><ellipse class="cls-3" cx="301.07" cy="242.55" rx="186.1" ry="149.09"/><path class="cls-4" d="M1589.67,308.13c0-24.05-25.23-43.55-56.35-43.55a72.59,72.59,0,0,0-12.65,1.12c0-34.41-17.35-62.3-38.74-62.3-12.43,0-23.48,9.43-30.57,24.06-12.36-36.86-57.94-64.23-112.28-64.23-47,0-87.53,20.51-105.57,50a86.34,86.34,0,0,0-42.61-10.79c-39.25,0-71.06,24.17-71.06,54a41.93,41.93,0,0,0,2.69,14.69,52.27,52.27,0,0,0-50.09,84.18c-10.54,13.07-17.2,32.18-17.2,53.48,0,39.4,22.74,71.33,50.79,71.33s50.79-31.93,50.79-71.33c0-17.09-4.29-32.78-11.43-45.07a52.43,52.43,0,0,0,12.89-14.73c14.09,17.7,36.94,29.22,62.74,29.22,35.84,0,66-22.2,74.85-52.36a153.24,153.24,0,0,0,43.21,6.1c47,0,87.39-20.44,105.47-49.79,4.48,26.45,19.51,45.91,37.38,45.91.41,0,.82,0,1.22-.05,6.28,9.47,16.91,16.92,29.85,20.8a87.91,87.91,0,0,0-5.52,31.35c0,32.32,15.88,58.52,35.48,58.52s35.47-26.2,35.47-58.52c0-14.82-3.34-28.34-8.84-38.65C1581.86,333.47,1589.67,321.51,1589.67,308.13Z" transform="translate(-1025.13 -158.23)"/><path class="cls-1" d="M1504.09,310.67c-15.52,8.61-31.79,16.15-49.25,8.29-7.53-3.38-14.23-8.49-20.39-13.9s-12.44-11.58-15.08-19.73c-2-6.1-11.64-3.49-9.64,2.65,3.11,9.6,9.61,17,17,23.61s15.38,12.7,24.48,16.66c20.53,8.92,39.52,1.24,57.89-8.94,5.63-3.12.59-11.76-5.05-8.64Z" transform="translate(-1025.13 -158.23)"/><path class="cls-1" d="M1418.64,304.83c8.93,19.63,31.47,31,53,30.15s41.7-12.26,56.71-27.75c-7.13,2.17-14.8-.29-21.59-3.37A119.66,119.66,0,0,1,1468.25,276" transform="translate(-1025.13 -158.23)"/><path class="cls-2" d="M1415.41,306.72c9.34,19.69,30.59,31.22,51.93,32,24.29.9,47.08-12,63.68-28.85a3.78,3.78,0,0,0-3.65-6.27c-10.93,2.78-22.8-4.42-31.81-9.95a119,119,0,0,1-24.66-20.31c-3.3-3.54-8.6,1.78-5.3,5.3a125.71,125.71,0,0,0,29,23.18c10.35,6,22.54,12.12,34.74,9l-3.65-6.27c-15,15.2-35,26.93-56.93,26.68-19.36-.22-38.46-10.55-46.9-28.33-2.07-4.36-8.54-.55-6.47,3.79Z" transform="translate(-1025.13 -158.23)"/><path class="cls-1" d="M1155.52,327c-6.65,7.93-13.42,15.92-21.83,21.95s-18.77,10-29,8.74c4.1,5.86,9,11.27,15.17,14.92,12,7.14,27.46,6.56,40.63,1.78s24.59-13.29,35.81-21.69" transform="translate(-1025.13 -158.23)"/><path class="cls-2" d="M1152.87,324.33c-12.32,14.68-27.13,31.52-48.23,29.59-2.72-.25-4.82,3.41-3.23,5.64,5.15,7.21,11.25,13.88,19.35,17.78a48,48,0,0,0,26.24,4c19.6-2.26,35.78-13.92,51.14-25.41,3.82-2.86.09-9.37-3.78-6.48-13.21,9.88-27,20.36-43.53,23.74a44,44,0,0,1-23.49-1.18c-8.28-2.95-14.45-9.21-19.46-16.23l-3.24,5.65c23.14,2.11,39.94-15.59,53.53-31.78,3.08-3.68-2.2-9-5.3-5.31Z" transform="translate(-1025.13 -158.23)"/><path class="cls-1" d="M1524.89,451.87l3.26-9.74c1.78-5.32-6.63-9-9.14-3.86a155.65,155.65,0,0,0-11.7,32.2c-1.27,5.27,6.57,9.15,9.14,3.85a352.54,352.54,0,0,0,21.18-54.9c1.3-4.48-5.19-8.95-8.36-4.87a91.28,91.28,0,0,0-18.84,46c-.58,4.92,7.22,6.82,9.32,2.52a293.18,293.18,0,0,0,20.07-54c.87-3.33-1.59-6.08-4.83-6.33-4.36-.33-7.3,2.53-9.48,6a132.26,132.26,0,0,0-7.55,14.64,214.29,214.29,0,0,0-11.35,30.32c-1.54,5.29,6.84,9.16,9.14,3.86q5.79-13.38,11.1-26.94c2.78-7.15,9-17.1,5.23-24.66-1.62-3.25-7-3.28-8.64,0a137.23,137.23,0,0,0-13,43.72c-.72,5.69,8.37,6.62,9.82,1.33q3.88-14.12,7.52-28.3c2-7.78,5.65-16.32,2.23-24.09-1.71-3.9-8.34-2.83-9.14,1.19l-9,45.31,9.64,2.65,7.77-42.7-9.82-1.33c-1.57,12-3.33,23.89-7.21,35.36l9.64,2.66a252.47,252.47,0,0,0,5.58-27c.94-6.19-8.22-9.07-9.64-2.66l-6.59,29.74,9.82,1.33c1-10.4,4.28-20.17,5.93-30.43a66.83,66.83,0,0,0-1.79-29c-1.77-6.18-11.42-3.55-9.65,2.66a57.38,57.38,0,0,1,.76,28.92c-2.09,9.31-4.35,18.34-5.25,27.87-.53,5.61,8.61,6.8,9.82,1.33l6.59-29.74-9.64-2.66a257.49,257.49,0,0,1-5.58,27c-1.66,6.27,7.59,8.72,9.64,2.66,4.17-12.32,5.88-25.17,7.57-38,.72-5.54-8.82-6.86-9.83-1.33l-7.76,42.71c-1.14,6.27,8.38,9,9.64,2.65l9-45.3-9.14,1.2c1.21,2.76-1.1,7.95-1.8,10.7q-1.42,5.68-2.9,11.35-3,11.34-6.06,22.63l9.82,1.33A122.9,122.9,0,0,1,1532.08,411h-8.64c.67,1.34-2.61,7.42-3.15,8.88q-2,5.4-4.13,10.76-4.34,11-9.05,21.87l9.14,3.85a198,198,0,0,1,8.47-23.76q2.37-5.46,5.08-10.76c.78-1.53,4.28-9.17,5.19-9.1l-4.82-6.33a278.6,278.6,0,0,1-19.06,51.65l9.32,2.53a78.78,78.78,0,0,1,15.91-38.95l-8.36-4.87a334.47,334.47,0,0,1-20.17,52.51l9.14,3.85a143.4,143.4,0,0,1,10.7-29.8l-9.14-3.85-3.26,9.75c-2,6.11,7.6,8.74,9.64,2.65Z" transform="translate(-1025.13 -158.23)"/><path class="cls-1" d="M1538.8,433.23l1.38-1.24-8.36-4.87-4.68,21.22c-1.25,5.69,5.88,8.45,9.14,3.85a224.31,224.31,0,0,0,12.9-20.43c3.24-5.79-4.82-10-8.63-5a95.83,95.83,0,0,0-12,20.22c-1.43,3.3.18,7.62,4.32,7.53,6.29-.14,11.32-7.45,15.57-11.46s11.13-8.28,9.45-15.05c-1-3.9-5.61-4.53-8.35-2.2a82.44,82.44,0,0,0-15.24,17.2c-1.71,2.56-.07,6.73,3,7.34,5.33,1.07,8.31-2.22,12.06-5.57l13.47-12c4.43-4-1.21-10.29-6.06-7.85-6.07,3.05-19.9,13.29-15.78,21.62,5,10.16,19.33-2.89,23-7.86,2.58-3.55,3.14-8.87-1.48-11.17s-9.76,2.22-13,5.1c-3.59,3.22-5.8,8.3-1.29,11.84a7.47,7.47,0,0,0,6.06,1.48c2.52-.47,4-2.89,6.3-3.39,6.29-1.37,3.63-11-2.66-9.64a9.86,9.86,0,0,0-3.41,1.35l-1,.78q-2.84,1.49,1.88,2.73l-.51,3.85a12.85,12.85,0,0,1,6.4-5l-3.85-.51.89.64-2.3-3c-.19-.91-4.45,3.38-5.13,3.89-.89.68-2.63,1.26-3.21,2.1-1.38.5-1.08,1.37.87,2.62q1.29,4,2.26,1c1.58-1.47,2.62-3.69,4.24-5.23a27.24,27.24,0,0,1,6.79-4.59l-6.06-7.85-8.51,7.58L1543,437c-.45.41-3.8,3.49-3,3.64l3,7.34a73.32,73.32,0,0,1,13.67-15.17l-8.36-2.21.3,1.22.51-3.86c-1.43,3.29-5.84,6.21-8.39,8.61l-4.16,3.93c-.51.48-3.57,4-3.64,4l4.32,7.52a96.54,96.54,0,0,1,12-20.23l-8.63-5a229.35,229.35,0,0,1-12.9,20.43l9.14,3.85,4.68-21.22a5,5,0,0,0-8.36-4.86l-1.38,1.24c-4.8,4.31,2.29,11.36,7.07,7.07Z" transform="translate(-1025.13 -158.23)"/><path class="cls-1" d="M1553.58,415.31c-6.38,1.68-6,9.71-.7,12.44,5.73,2.94,13.69,3.38,20,3.84s6.39-9.53,0-10a74.07,74.07,0,0,1-8.38-1c-1.37-.26-2.74-.56-4.1-.9l-1.35-.35q-4.18-1.87-2.79,5.67c6.22-1.64,3.58-11.29-2.66-9.65Z" transform="translate(-1025.13 -158.23)"/><path class="cls-1" d="M1554,427.24q11.52-.15,23-1.13c6.36-.54,6.42-10.55,0-10q-11.47,1-23,1.13c-6.43.08-6.45,10.08,0,10Z" transform="translate(-1025.13 -158.23)"/><path class="cls-1" d="M1577,429.9l2.54-1.38-5-8.63L1548.9,435.7l6.06,7.85c6.69-6.69,16.68-8.46,23.36-15.34,4.19-4.32-1.08-10-6.06-7.85a226.12,226.12,0,0,0-22.9,11.68c-5.55,3.24-.53,11.89,5.05,8.63A228,228,0,0,1,1577.3,429l-6.06-7.85c-6.58,6.78-16.59,8.58-23.35,15.34-4,4,1.16,10.89,6.06,7.85l25.54-15.81c5.48-3.39.62-11.71-5-8.63l-2.55,1.38c-5.65,3.07-.61,11.71,5,8.63Z" transform="translate(-1025.13 -158.23)"/><path class="cls-1" d="M1517.31,436.73q-5.32,9.12-10,18.57l9.14,3.85,5.64-15c2.14-5.67-6.07-8.12-9.14-3.85a59.82,59.82,0,0,0-7.37,14.05c-2,5.25,6.87,9.06,9.13,3.86,2.08-4.78,4-9.61,5.58-14.56l-9.64-2.66-7.36,27c-1.69,6.21,8,8.87,9.65,2.65l7.35-27c1.7-6.24-7.65-8.75-9.64-2.66-1.35,4.13-2.84,8.19-4.57,12.17l9.14,3.85a50,50,0,0,1,6.37-11.66l-9.14-3.86-5.65,15c-2,5.28,6.62,8.9,9.14,3.85q4.72-9.43,10-18.56c3.25-5.57-5.39-10.61-8.63-5Z" transform="translate(-1025.13 -158.23)"/><path class="cls-1" d="M1440.8,258.1l-2.39.1c-3.37.13-6.79,4.32-4.32,7.52l17.21,22.36,7.85-6.06a258,258,0,0,0-24.65-26.76c-3.92-3.71-11.42,1.35-7.85,6.06l26.45,34.89,7.86-6.06-30.63-26.81c-4.83-4.23-11.43,2.28-7.07,7.07l33.64,37,6-7.86a280.76,280.76,0,0,1-34.36-27.34l-7.08,7.08q19.11,15.3,37.48,31.45l6.06-7.85-41.83-30.21c-4.61-3.32-10.21,4.05-6.06,7.86a421.31,421.31,0,0,0,42,33.74l5-8.63A207.55,207.55,0,0,1,1428.45,280c-4.85-4.33-11.22,2.18-7.07,7.07a287.72,287.72,0,0,0,26.18,27.12l7.07-7.07-31.58-25.27c-4.91-3.94-11.65,2.32-7.07,7.07l23.21,24,6.06-7.85a279.9,279.9,0,0,1-23.09-19.44c-4.69-4.4-11.56,2.43-7.07,7.07l16.61,17.16,7.07-7.07-21.23-19c-4-3.55-11.34,1.19-7.85,6.06,9.33,13,20.18,26.09,35,33,13.74,6.37,30,7.21,43.31-.78,5.51-3.32.49-12-5-8.64-25.52,15.38-50.84-9.23-64.69-28.59l-7.85,6.05,21.23,19c4.78,4.27,11.59-2.41,7.07-7.07l-16.61-17.16-7.07,7.07a301.47,301.47,0,0,0,25.11,21c4.66,3.5,9.87-3.9,6.06-7.85l-23.21-24L1416,288.9l31.58,25.27c4.91,3.93,11.93-2.65,7.07-7.07A290.25,290.25,0,0,1,1428.45,280l-7.07,7.07a219.85,219.85,0,0,0,37.76,27.22c5.68,3.24,10.23-5,5-8.63a403.49,403.49,0,0,1-39.94-32.18l-6.06,7.85,41.83,30.2c4.58,3.31,10.3-4.12,6-7.85q-18.37-16.16-37.47-31.46c-4.91-3.92-11.89,2.59-7.08,7.08a299.84,299.84,0,0,0,36.4,28.9c4.88,3.3,9.73-3.81,6.06-7.85l-33.64-37-7.07,7.07,30.63,26.81c4,3.48,11.49-1.25,7.85-6.05l-26.45-34.9-7.86,6.06a260.1,260.1,0,0,1,24.65,26.76c3.5,4.39,11.32-1.55,7.85-6l-17.2-22.36-4.32,7.52,2.39-.1c6.41-.25,6.45-10.25,0-10Z" transform="translate(-1025.13 -158.23)"/><path class="cls-1" d="M1461.33,305.55c-4.13-1.59-8.93-1.85-11.91,1.95-2.48,3.15-2.43,7.75.85,10.36,3.73,3,10.57,1.43,14.94,1.3l18.73-.55c5.35-.16,7.14-9,1.33-9.82a80,80,0,0,0-32,1.78c-5.21,1.38-4.25,7.89,0,9.64,6.78,2.8,14.08,1.24,21,3l2.65-9.64a58.39,58.39,0,0,1-12.2-3.62c-5.85-2.52-11,6.09-5,8.64a69.25,69.25,0,0,0,14.6,4.62c6.24,1.19,9-8,2.65-9.64-6.93-1.8-14.37-.3-21-3v9.64a67.55,67.55,0,0,1,26.66-1.78l1.33-9.82-15,.44c-4.09.12-10.49,1.54-14.32.06l3,2.3q-1.84,3.39,1.06,3.78c6,2.31,8.62-7.35,2.66-9.64Z" transform="translate(-1025.13 -158.23)"/><path class="cls-1" d="M1426.93,303.78c9.77,28.79,47.49,29.1,69.75,16.13,5.55-3.24.53-11.89-5-8.64-9.75,5.69-21.25,8.63-32.51,6.62-9.54-1.71-19.28-7.13-22.55-16.76-2.06-6.06-11.72-3.46-9.64,2.65Z" transform="translate(-1025.13 -158.23)"/><path class="cls-1" d="M1525.92,335.34c-6.25-5.14-10.44.77-12.38,6.52a51.46,51.46,0,0,0-1.73,23.71c2,13.55,8.19,29.55,22.14,34.45,6.08,2.14,8.7-7.52,2.66-9.64-8.14-2.86-11.84-13.12-13.82-20.71a49.14,49.14,0,0,1-1.61-14,37.65,37.65,0,0,1,.87-7.09c.25-1.11.54-2.2.88-3.28s1.48-2.41.09-2.21l-4.87-1.28.7.57c4.93,4.06,12.05-3,7.07-7.07Z" transform="translate(-1025.13 -158.23)"/><path class="cls-1" d="M1168.1,326.43A308.08,308.08,0,0,0,1142,351.26c-3.73,4,1.16,11.15,6.06,7.85l35.76-24.06c5.3-3.57.37-12.19-5-8.64-12.57,8.24-25.1,16.6-36.13,26.86-4.43,4.12,1.19,10.09,6.06,7.86,9.12-4.19,18.18-9.1,28.14-10.94l-3.86-9.14-38.54,18.58,5,8.64,36.6-17.85c5-2.44,1.44-11.26-3.85-9.13a181.12,181.12,0,0,0-31.37,16.19c-3.77,2.45-2.77,9.9,2.53,9.32,11-1.22,19.11-8.31,29.31-11.76l-3.85-9.14-13.91,7.6c-4.46,2.44-9.05,5.53-14.23,6.06v10c7.24-.78,14.61-1.56,21.45-4.23,7.3-2.85,12.53-7.75,17.58-13.62,4.17-4.86-2.87-12-7.07-7.07s-8.42,9.31-14.63,11.6c-5.54,2-11.5,2.7-17.33,3.32-6.32.67-6.42,10.65,0,10,11.94-1.22,22.88-9.4,33.19-15,4.89-2.67,1.58-11-3.85-9.14-9,3.05-17.08,10.35-26.66,11.41l2.52,9.32a167.66,167.66,0,0,1,29-15.19l-3.86-9.14-36.59,17.84c-5.8,2.83-.73,11.42,5,8.64L1178,349.69c5.42-2.61,1.37-10.11-3.85-9.14-10.76,2-20.67,7.42-30.53,11.94l6.06,7.85c10.42-9.69,22.24-17.52,34.11-25.29l-5-8.64L1143,350.48l6.06,7.85a308.08,308.08,0,0,1,26.14-24.83c4.93-4.15-2.18-11.2-7.07-7.07Z" transform="translate(-1025.13 -158.23)"/><path class="cls-1" d="M1134.75,372.26a48.77,48.77,0,0,0,32.27-4.2c11.24-5.77,19.87-16.63,28.7-25.41,4.57-4.55-2.5-11.62-7.07-7.08-7.51,7.47-14.85,16.73-23.93,22.31a37.73,37.73,0,0,1-27.31,4.74c-6.29-1.29-9,8.35-2.66,9.64Z" transform="translate(-1025.13 -158.23)"/><path class="cls-1" d="M1176.53,343.61c-2.79-.57-5.11-.45-7.46,1.32-3.6,2.7-3,7.46,1.19,9.14q12.65,5.08,25.44,9.77l2.66-9.65q-10.08-3.33-20.42-5.68c-6.36-1.43-8.64,7.42-2.66,9.65l17.86,6.65,2.66-9.65-15.29-4.29-2.66,9.64a84.86,84.86,0,0,1,17.65,6.9l3.85-9.14a183.24,183.24,0,0,1-21.79-7.87l-3.85,9.14,18.33,5.15,2.66-9.64a29.58,29.58,0,0,1-15.71-7.73l-4.86,8.36,30.35,9.43c3.79,1.18,7-2.58,6.15-6.15-1.23-5.28-7.49-6.46-11.87-8.23L1179.58,343l-2.66,9.65,30.7,10.12c4.7,1.55,8.52-5,4.86-8.36-7.56-6.87-18.37-7-26-13.26l-4.87,8.36,21.58,4.37a5,5,0,0,0,3.85-9.13,48.26,48.26,0,0,0-15.24-7.11c-6.21-1.7-8.87,7.95-2.66,9.64a40.42,40.42,0,0,1,12.85,6.1l3.85-9.14-21.57-4.37c-4.41-.9-9.06,4.92-4.86,8.36,7.73,6.32,18.78,6.64,26.05,13.25l4.87-8.36L1179.58,343c-6.24-2.05-8.48,7.3-2.66,9.65l12.79,5.16,5.48,2.22c.61.24,6.07,2.78,5.8,1.61l6.15-6.15L1176.78,346c-4.67-1.45-8.59,5-4.86,8.36,5.78,5.18,12.35,9.13,20.12,10.3,6.2.94,9-7.85,2.66-9.64l-18.34-5.16c-5.28-1.48-9.16,6.82-3.85,9.14a201.67,201.67,0,0,0,24.18,8.88c5.37,1.58,8.92-6.46,3.85-9.14a96.73,96.73,0,0,0-20-7.9c-6.22-1.68-8.86,7.9-2.66,9.64l15.29,4.3c6.3,1.76,8.6-7.44,2.66-9.65l-17.86-6.65-2.66,9.65q10.35,2.34,20.42,5.68c6.17,2,8.64-7.46,2.66-9.65q-12.79-4.67-25.44-9.77l1.19,9.14-.24-.3c6.28,1.28,9-8.36,2.66-9.65Z" transform="translate(-1025.13 -158.23)"/><path class="cls-1" d="M1172.43,345.47l-2.27-.45c-3.36-.68-7.63,2.3-6.15,6.15,2.81,7.29,9.82,9.39,16.85,11.22a89.87,89.87,0,0,0,25.72,2.75c6.42-.22,6.45-10.23,0-10a80.41,80.41,0,0,1-17.73-1.19c-3.21-.62-13.81-1.84-15.19-5.44l-6.15,6.15,2.27.46c6.28,1.26,9-8.38,2.65-9.65Z" transform="translate(-1025.13 -158.23)"/><path class="cls-1" d="M1142.55,363.63c7.54-8.25,14.58-16.65,18.73-27.16,4.26-10.84,5.47-22.59,6.7-34.08.68-6.39-9.32-6.34-10,0-1.07,10-2.2,20.25-5.73,29.79s-10,17-16.77,24.38c-4.34,4.74,2.72,11.83,7.07,7.07Z" transform="translate(-1025.13 -158.23)"/><path class="cls-1" d="M1485,308c-6.19-8.75-12.44-17.58-17-27.33-4.86-10.48-5.9-21.7-8-32.91-1.17-6.32-10.81-3.65-9.64,2.66,2.15,11.58,3.46,22.84,8.28,33.73,4.6,10.36,11.17,19.68,17.68,28.89,3.69,5.22,12.37.23,8.64-5Z" transform="translate(-1025.13 -158.23)"/><path class="cls-1" d="M1484.14,304.13a144.76,144.76,0,0,1-19.76-50c-1.22-6.32-10.86-3.64-9.64,2.65a152.47,152.47,0,0,0,20.77,52.4c3.42,5.43,12.08.42,8.63-5Z" transform="translate(-1025.13 -158.23)"/><path class="cls-1" d="M1389.57,305.05c13.08-6,26.21-11.72,40.44-14.29l-3.86-9.13q-23.14,12.75-46.84,24.43l5,8.63c13.75-9.89,31.19-12,46.49-18.57l-5-8.63-47,21.65c-5.21,2.4-1.5,10.65,3.85,9.14,18.59-5.25,35.43-14.7,52.07-24.27,5.6-3.22.64-11.62-5-8.63a486.89,486.89,0,0,1-53.32,24.08c-6,2.27-3.38,11.94,2.65,9.64A506.88,506.88,0,0,0,1434.69,294l-5-8.63c-15.91,9.14-31.92,18.24-49.69,23.26l3.86,9.13,47-21.65c5.9-2.71.76-11.13-5-8.63-15.41,6.63-32.6,8.57-46.49,18.57-5.2,3.74-.8,11.51,5,8.63q23.7-11.67,46.85-24.43c5.24-2.89,1.47-10.1-3.85-9.14-15,2.72-29,9-42.82,15.29-5.85,2.67-.77,11.29,5,8.64Z" transform="translate(-1025.13 -158.23)"/><path class="cls-5" d="M1301.52,403.54a1.5,1.5,0,0,0,0-3,1.5,1.5,0,0,0,0,3Z" transform="translate(-1025.13 -158.23)"/><path class="cls-5" d="M1293.7,447.37a1.5,1.5,0,0,0,0-3,1.5,1.5,0,0,0,0,3Z" transform="translate(-1025.13 -158.23)"/><path class="cls-5" d="M1222.74,455.2a1.5,1.5,0,0,0,0-3,1.5,1.5,0,0,0,0,3Z" transform="translate(-1025.13 -158.23)"/><path class="cls-5" d="M1275.43,421.8a1.5,1.5,0,0,0,0-3,1.5,1.5,0,0,0,0,3Z" transform="translate(-1025.13 -158.23)"/><path class="cls-5" d="M1321.35,426.5a1.5,1.5,0,0,0,0-3,1.5,1.5,0,0,0,0,3Z" transform="translate(-1025.13 -158.23)"/><path class="cls-5" d="M1324,404.59a1.5,1.5,0,0,0,0-3,1.5,1.5,0,0,0,0,3Z" transform="translate(-1025.13 -158.23)"/><path class="cls-5" d="M1304.13,420.24h.52a1.5,1.5,0,0,0,0-3h-.52a1.5,1.5,0,0,0,0,3Z" transform="translate(-1025.13 -158.23)"/><path class="cls-5" d="M1331.78,441.63h.52a1.5,1.5,0,0,0,0-3h-.52a1.5,1.5,0,0,0,0,3Z" transform="translate(-1025.13 -158.23)"/><path class="cls-5" d="M1349.52,410.33a1.5,1.5,0,0,0,0-3,1.5,1.5,0,0,0,0,3Z" transform="translate(-1025.13 -158.23)"/><path class="cls-5" d="M1387.61,441.63a1.5,1.5,0,0,0,0-3,1.5,1.5,0,0,0,0,3Z" transform="translate(-1025.13 -158.23)"/><path class="cls-5" d="M1435.09,440.59a1.5,1.5,0,0,0,0-3,1.5,1.5,0,0,0,0,3Z" transform="translate(-1025.13 -158.23)"/><path class="cls-5" d="M1441.35,397.28a1.5,1.5,0,0,0,0-3,1.5,1.5,0,0,0,0,3Z" transform="translate(-1025.13 -158.23)"/><path class="cls-5" d="M1365.7,429.63a1.5,1.5,0,0,0,0-3,1.5,1.5,0,0,0,0,3Z" transform="translate(-1025.13 -158.23)"/><path class="cls-5" d="M1246.28,483.43V484a1.5,1.5,0,1,0,3,0v-.53a1.5,1.5,0,0,0-3,0Z" transform="translate(-1025.13 -158.23)"/><path class="cls-5" d="M1227.43,432.76a1.5,1.5,0,0,0,0-3,1.5,1.5,0,0,0,0,3Z" transform="translate(-1025.13 -158.23)"/><path class="cls-5" d="M1183.61,471.37a1.5,1.5,0,0,0,0-3,1.5,1.5,0,0,0,0,3Z" transform="translate(-1025.13 -158.23)"/><path class="cls-5" d="M1284.3,432.24a1.5,1.5,0,0,0,0-3,1.5,1.5,0,0,0,0,3Z" transform="translate(-1025.13 -158.23)"/><path class="cls-5" d="M1272.3,454.67a1.5,1.5,0,0,0,0-3,1.5,1.5,0,0,0,0,3Z" transform="translate(-1025.13 -158.23)"/><path class="cls-5" d="M1305.7,436.41a1.5,1.5,0,0,0,0-3,1.5,1.5,0,0,0,0,3Z" transform="translate(-1025.13 -158.23)"/><path class="cls-5" d="M1286.91,402a1.5,1.5,0,0,0,0-3,1.5,1.5,0,0,0,0,3Z" transform="translate(-1025.13 -158.23)"/><path class="cls-5" d="M1298.39,378a1.5,1.5,0,0,0,0-3,1.5,1.5,0,0,0,0,3Z" transform="translate(-1025.13 -158.23)"/><path class="cls-5" d="M1340.65,364.41a1.5,1.5,0,0,0,0-3,1.5,1.5,0,0,0,0,3Z" transform="translate(-1025.13 -158.23)"/><path class="cls-5" d="M1324,345.63a1.5,1.5,0,0,0,0-3,1.5,1.5,0,0,0,0,3Z" transform="translate(-1025.13 -158.23)"/><path class="cls-5" d="M1338.57,395.72a1.5,1.5,0,0,0,0-3,1.5,1.5,0,0,0,0,3Z" transform="translate(-1025.13 -158.23)"/><path class="cls-5" d="M1318.74,392.59a1.5,1.5,0,0,0,0-3,1.5,1.5,0,0,0,0,3Z" transform="translate(-1025.13 -158.23)"/><path class="cls-5" d="M1315.09,414.5a1.5,1.5,0,0,0,0-3,1.5,1.5,0,0,0,0,3Z" transform="translate(-1025.13 -158.23)"/><path class="cls-5" d="M1339.09,422.85a1.5,1.5,0,0,0,0-3,1.5,1.5,0,0,0,0,3Z" transform="translate(-1025.13 -158.23)"/><path class="cls-5" d="M1356.3,463.54a1.5,1.5,0,0,0,0-3,1.5,1.5,0,0,0,0,3Z" transform="translate(-1025.13 -158.23)"/><path class="cls-5" d="M1396,468.76a1.5,1.5,0,0,0,0-3,1.5,1.5,0,0,0,0,3Z" transform="translate(-1025.13 -158.23)"/><path class="cls-5" d="M1394.39,405.63a1.5,1.5,0,0,0,0-3,1.5,1.5,0,0,0,0,3Z" transform="translate(-1025.13 -158.23)"/><path class="cls-5" d="M1444.48,471.37a1.5,1.5,0,0,0,0-3,1.5,1.5,0,0,0,0,3Z" transform="translate(-1025.13 -158.23)"/><path class="cls-5" d="M1391.78,496.93a1.5,1.5,0,0,0,0-3,1.5,1.5,0,0,0,0,3Z" transform="translate(-1025.13 -158.23)"/><path class="cls-5" d="M1351.61,441.63a1.5,1.5,0,0,0,0-3,1.5,1.5,0,0,0,0,3Z" transform="translate(-1025.13 -158.23)"/><path class="cls-5" d="M1371.43,394.15a1.5,1.5,0,0,0,0-3,1.5,1.5,0,0,0,0,3Z" transform="translate(-1025.13 -158.23)"/><path class="cls-5" d="M1249.33,416.15l.52.52a1.53,1.53,0,0,0,2.12,0,1.51,1.51,0,0,0,0-2.12l-.52-.52a1.51,1.51,0,0,0-2.12,0,1.53,1.53,0,0,0,0,2.12Z" transform="translate(-1025.13 -158.23)"/><path class="cls-5" d="M1250.39,447.89a1.5,1.5,0,0,0,0-3,1.5,1.5,0,0,0,0,3Z" transform="translate(-1025.13 -158.23)"/><path class="cls-5" d="M1267.09,440.59a1.5,1.5,0,0,0,0-3,1.5,1.5,0,0,0,0,3Z" transform="translate(-1025.13 -158.23)"/><path class="cls-5" d="M1475.78,444.76a1.5,1.5,0,0,0,0-3,1.5,1.5,0,0,0,0,3Z" transform="translate(-1025.13 -158.23)"/><path class="cls-5" d="M1196.65,428.07a1.5,1.5,0,0,0,0-3,1.5,1.5,0,0,0,0,3Z" transform="translate(-1025.13 -158.23)"/><path class="cls-1" d="M1062.31,416.43c-1.85,7.73.85,14.82,4.07,21.77,1.47,3.16,2.55,6.78,4.61,9.6,2.21,3,5.36,5.4,8.1,7.91,4.74,4.34,11.83-2.71,7.07-7.07-2.23-2-4.9-4-6.81-6.32-1.7-2.08-2.43-5.05-3.55-7.47-2.23-4.85-5.16-10.27-3.85-15.77,1.5-6.25-8.14-8.92-9.64-2.65Z" transform="translate(-1025.13 -158.23)"/><path class="cls-1" d="M1062.28,416.93a82.66,82.66,0,0,0,14,38l6.84-6.85c-3.17-1.43-4.34-6.41-5.63-9.36-2-4.47-3.8-9-5.38-13.6-2.14-6.22-10.56-3.61-9.64,2.66a52.17,52.17,0,0,0,8.92,22.37,5.07,5.07,0,0,0,6.25,2.05c2.09-.92,3.8-3.54,2.89-5.9q-3.67-9.56-8-18.83c-2.46-5.21-10.58-1.5-9.14,3.85,1.8,6.7,3.77,13.51,7.79,19.25,3.67,5.24,11.57.75,8.63-5a130.36,130.36,0,0,1-8.61-21.7,5,5,0,0,0-5.49-3.58c-2.19.33-4.66,2.41-4.33,4.91a37.68,37.68,0,0,0,16.29,26.75c5.33,3.64,10.34-5,5-8.63a26.79,26.79,0,0,1-11.33-18.12l-9.83,1.33a145.16,145.16,0,0,0,9.63,24.09l8.63-5c-3.56-5.09-5.19-10.93-6.78-16.85l-9.14,3.85q3.81,8.1,7,16.44l9.14-3.86a45.61,45.61,0,0,1-7.92-20l-9.64,2.66c2,5.73,4.33,11.3,6.76,16.84,2,4.57,4,9.89,8.85,12.1a5.2,5.2,0,0,0,6.05-.78,5,5,0,0,0,.79-6.06,72.4,72.4,0,0,1-12.68-33c-.3-2.69-2.08-5-5-5-2.47,0-5.31,2.29-5,5Z" transform="translate(-1025.13 -158.23)"/><path class="cls-1" d="M1051.19,457.75c6.71,1.4,13.1-.35,19.67-1.66a177.15,177.15,0,0,1,19.32-2.74l-1.33-9.83a136.26,136.26,0,0,0-18.43,4.56c-3,.88-5.91,1.76-8.92,2.48-2.36.57-4.32.7-6.28-.92L1053,458a38.79,38.79,0,0,1,18.65-2V446a57.15,57.15,0,0,1-16.1-.47l1.19,9.14.65-.28-2.52.68c1.08-.09,2.61.72,3.76,1.05a33.7,33.7,0,0,0,5,1,35.16,35.16,0,0,0,5,.41c.93,0,1.84-.09,2.76-.12,1.79-.07.56.6-.68-.71l-1.28-2.21.16.45,4.82-6.33a50.49,50.49,0,0,1-13.78-.35l-1.33,9.82c8.68.75,16.43-4.05,25-4l-1.33-9.82a98.17,98.17,0,0,0-22.9,10.94c-4,2.62-2.64,9.38,2.52,9.32s9.33-2.33,13.68-4.71a59.09,59.09,0,0,1,12.68-5.12l-3.85-9.14-11.47,7.59c-3.6,2.38-7.2,4.59-9.61,8.27a5.06,5.06,0,0,0,.78,6.06,5.22,5.22,0,0,0,6.06.78l18.46-8.59-5-8.64q-8.28,6.17-16.41,12.52c-2,1.56-1.9,5.51,0,7.07,3.66,3,7.28,2.62,11.68,1.84l12.68-2.25c2.66-.47,4.16-3.72,3.5-6.15-.77-2.8-3.49-4-6.15-3.49l-8.93,1.58-4.23.75c-.59.1-2.38-.09-1.47.65v7.07q7.13-5.57,14.37-10.95c5.15-3.83.87-11.39-5-8.64l-18.47,8.59,6.84,6.85c1.68-2.56,5.18-4.12,7.66-5.77l9.84-6.51c4.6-3,1.81-10.7-3.86-9.13a69.26,69.26,0,0,0-12.74,4.9c-3.46,1.73-7,4.52-11,4.57l2.52,9.32a87.83,87.83,0,0,1,20.52-9.94c5.26-1.73,4.48-9.77-1.33-9.82-8.55-.07-16.44,4.71-25,4-5.55-.47-6.89,8.86-1.32,9.83a59.94,59.94,0,0,0,16.43.7c2.92-.3,6.08-3,4.83-6.33-2.21-5.86-7.46-4.52-12.46-4.81a26.57,26.57,0,0,1-6.81-1.42c-3-1-5.26-1.35-8.27,0-3.85,1.69-2.86,8.4,1.2,9.14a66.32,66.32,0,0,0,18.76.82c6.5-.68,6.35-9.16,0-10a45.32,45.32,0,0,0-21.31,2.34c-3.18,1.15-5.36,5.76-2.2,8.35,2.89,2.38,6,4.15,9.89,4.3s7.81-1.19,11.48-2.24c7.28-2.09,14.47-4.48,22-5.6,5.53-.83,4.28-10.31-1.33-9.82-6.43.56-12.84,1.4-19.18,2.56-5.45,1-11.59,3.36-17.15,2.19a5.12,5.12,0,0,0-6.15,3.5c-.69,2.48.83,5.59,3.49,6.15Z" transform="translate(-1025.13 -158.23)"/><path class="cls-1" d="M1076.54,458.42a13.72,13.72,0,0,0-9.5-1.68c-3.63.49-4.92,6.13-2.21,8.36a217.79,217.79,0,0,0,23,16.5c4.79,3,10.22-4,6.06-7.86a39.55,39.55,0,0,0-21.59-10.54c-2.24-.31-4.42.21-5.64,2.3-1,1.79-.9,4.65.78,6.06a115.14,115.14,0,0,0,16.78,11.8c5.67,3.24,12.58,7.83,18.6,3,2.63-2.1,1.44-6.3-1-7.85a117.1,117.1,0,0,0-24.89-11.83c-5.31-1.8-9,6.68-3.86,9.14,11.39,5.46,22.91,10.94,35.26,13.83,5.79,1.35,8.3-5.85,3.86-9.14a214,214,0,0,0-26.92-17c-5.77-3.07-10.23,4.94-5,8.63l17,12.14c5.43,3.87,11,9.46,18.21,8,3.76-.75,4.74-5.86,2.21-8.36a171.76,171.76,0,0,0-30.69-24.08c-5.54-3.41-10.31,5-5.05,8.63l16.2,11.07c5.2,3.55,10.21,7.63,16.75,8,4.25.24,6.7-5.68,3.54-8.53a39.13,39.13,0,0,0-20.58-9.89c-4.24-.61-7.83,3.19-5.64,7.34,2.82,5.37,8.4,8.53,14.17,9.85,6.41,1.46,13.13.61,19.45,2.53l2.66-9.65-20.05-5.41a5.07,5.07,0,0,0-6.15,3.49c-.78,2.83,1,5.17,3.49,6.15a66,66,0,0,0,38,2.8l-3.85-9.14c-1.67.83-3.74.58-5.53.49-2.25-.13-4.49-.3-6.73-.45l-14.75-1c-5.76-.38-6.59,8.25-1.33,9.82,13.31,4,27.08.74,40.11-2.71,6.22-1.64,3.58-11.29-2.65-9.64-11.3,3-23.24,6.15-34.8,2.71l-1.33,9.82,16.72,1.1c5.3.35,10.41.9,15.34-1.53,5.29-2.62,1.45-10.29-3.86-9.14a56.65,56.65,0,0,1-32.64-2.8l-2.66,9.64,20,5.42c6.23,1.68,8.81-7.78,2.66-9.65-5.68-1.72-11.54-1.36-17.36-2.13-4-.53-8.31-1.89-10.29-5.65l-5.65,7.35a30.12,30.12,0,0,1,16.17,7.32l3.53-8.54c-2.27-.12-4.3-1.59-6.13-2.82-2.42-1.61-4.8-3.28-7.2-4.91l-14.57-10-5.05,8.63A160.07,160.07,0,0,1,1110.54,491l2.2-8.36c.46-.09-.39-.07-.61-.17a12.1,12.1,0,0,1-1.51-.91c-1.21-.78-2.36-1.64-3.52-2.47l-7.3-5.21-14.6-10.4-5,8.63a215.1,215.1,0,0,1,26.92,17l3.85-9.13c-11.54-2.71-22.23-7.72-32.87-12.82l-3.85,9.14a106.46,106.46,0,0,1,22.51,10.81l-1-7.85c1.37-1.09,1.37-.12.51-.92s-2.49-1.22-3.52-1.76q-3.3-1.72-6.48-3.68a99.46,99.46,0,0,1-11.74-8.45l-4.87,8.35a30.79,30.79,0,0,1,17.18,8l6.06-7.86A195.89,195.89,0,0,1,1071.9,458l-2.21,8.36a3.25,3.25,0,0,1,1.8.68c5.51,3.35,10.54-5.3,5-8.64Z" transform="translate(-1025.13 -158.23)"/><path class="cls-1" d="M1099.29,477.27c6.13,4.8,13.46,6.54,21.17,6.32,8.35-.24,16.49-2.55,24.88-2.12,6.43.34,6.41-9.66,0-10-7.6-.39-15,1.44-22.52,2-5.43.4-12,.26-16.46-3.27-2.13-1.66-5-2.07-7.07,0-1.73,1.73-2.14,5.4,0,7.07Z" transform="translate(-1025.13 -158.23)"/><path class="cls-1" d="M1102.24,483.43c7.36.5,14.58-1.76,21.63-3.58l21.48-5.56c6.23-1.61,3.59-11.26-2.66-9.64L1122.15,470c-6.52,1.69-13.1,3.94-19.91,3.47-2.7-.18-5,2.43-5,5a5.09,5.09,0,0,0,5,5Z" transform="translate(-1025.13 -158.23)"/><path class="cls-1" d="M1518,355.29c-8.82,11.37-8.52,27.91-4.6,41.13,4,13.41,12,25,21,35.54,1.76,2.05,5.27,1.8,7.07,0a5.11,5.11,0,0,0,0-7.07c-7.47-8.71-14.32-18.41-17.92-29.41a51.69,51.69,0,0,1-2.73-17.22c.12-5.19.92-11.64,4.22-15.9,1.66-2.13,2.08-5,0-7.07-1.72-1.72-5.4-2.14-7.07,0Z" transform="translate(-1025.13 -158.23)"/></svg>