<svg id="legL" xmlns="http://www.w3.org/2000/svg" viewBox="0 0 322.73 229.63"><defs><style>.cls-1{fill:#2d4751;}.cls-2{fill:#00a200;}.cls-3{fill:#002600;}.cls-4{fill:#121b1e;}</style></defs><title>legL</title><path class="cls-1" d="M1241.12,757.76a483.68,483.68,0,0,0-70.09-.12c-10.42.75-21.82.92-31.92,3.83-9.08,2.61-14.91,9.15-19.59,17-11.22,18.92-20.84,39-29.6,59.15q-6.51,15-12.27,30.3-2.93,7.81-5.65,15.71c-1.63,4.73-4.07,10-4.7,14.94-1.19,9.35,11.78,16.25,18.75,19.86,10,5.18,20.86,8.28,31.66,11.25,2.53.7,4.63-.88,5.53-3.14q14.15-35.46,29.32-70.5c1.28-3,2.56-5.93,3.87-8.89,1.71-3.87,2.7-4,7-4.52,6.44-.83,12.89-1.62,19.33-2.43l37.71-4.74c21-2.65,43.78-5.24,61.42-18.09,14.82-10.79,27.5-30.72,22-49.75-3.2-11.11-15.56-10.22-24.84-10.28l-44.28-.26c-5.79,0-5.79,9,0,9l36.41.21c5.35,0,10.72-.09,16.06.11,1.93.08,4.22.08,5.93,1.08,2.25,1.3,2.45,3.88,2.68,6.28,1.93,20.18-15.26,36.56-32.51,43.52-20.11,8.12-42.87,9.17-64.17,11.85l-34.81,4.38c-4,.51-9,.4-12.17,3.26-3.81,3.39-5.41,10.17-7.39,14.72q-15.65,36.11-30.22,72.66l5.54-3.15c-8.49-2.34-17.09-4.66-25.16-8.25a73.62,73.62,0,0,1-10.56-5.71,48.73,48.73,0,0,1-5.44-4.14c-2.5-2.22-2.79-3.19-1.79-6.32a585,585,0,0,1,20.91-55.27q11.68-26.77,25.88-52.37c4.27-7.7,8.46-16.2,17.56-18.83,9.33-2.7,19.9-2.82,29.53-3.51a483.68,483.68,0,0,1,70.09.12c5.77.42,5.75-8.58,0-9Z" transform="translate(-986.86 -747.75)"/><path class="cls-1" d="M1149.13,843.87a603.36,603.36,0,0,0-38.31,92.57l3.14-3.15a57.23,57.23,0,0,1-45.88-9.88c-2.29-1.7-3.64-1.87-2.49-4.6.73-1.76,1.51-3.51,2.28-5.26q3-7,6.21-14,5.93-13.08,12.18-26c2.52-5.19-5.24-9.75-7.77-4.54q-7.92,16.35-15.31,33c-2.35,5.29-5.43,10.75-7,16.31-1.37,4.7,1.1,7.9,4.61,10.73a66.48,66.48,0,0,0,55.6,12.93,4.53,4.53,0,0,0,3.15-3.14,588.36,588.36,0,0,1,37.4-90.42c2.65-5.14-5.12-9.7-7.77-4.54Z" transform="translate(-986.86 -747.75)"/><path class="cls-2" d="M1055.5,914.26l-32.5-8.72c-7.37-2-19.72-8.24-26-1.28-6.47,7.19-.43,16.33,4,22.68a152.59,152.59,0,0,0,18.85,22.21C1033.13,962,1050,975,1069.54,971.69c11.55-2,41.45-12.68,29.08-29.49-6.21-8.44-17.83-7.12-26.38-11.54-8.73-4.51-16.36-11-26.3-12.7a4.52,4.52,0,0,0-3.47,8.22,59.77,59.77,0,0,0,17.76,8.83c5,1.55,7.68-5.55,3.47-8.22A142,142,0,0,0,1029.56,911c-4.83-1.5-8,5.85-3.47,8.23l11.2,5.83,3.47-8.23-26.08-5.77c-5.64-1.25-8,7.42-2.39,8.68a70.47,70.47,0,0,1,20.87,8.25l3.47-8.22-32-13.38c-5-2.08-7.4,5.53-3.46,8.22l21.8,14.94c4.21,2.88,9.24-3.65,5.45-7.07a98.45,98.45,0,0,0-22.59-15.43c-4.72-2.34-8.67,3.11-5.45,7.06a224.09,224.09,0,0,0,42.14,39.77c4.1,3,9.37-3.79,5.46-7.07q-18.16-15.24-37.3-29.25c-3.54-2.59-8.85,2.62-6.16,6.16a222.75,222.75,0,0,0,24.73,27.71,165,165,0,0,0,14,12c3.32,2.49,7.92,3.92,11,.33,1.55-1.77,1.89-4.63,0-6.36q-20.49-18.81-42.58-35.73c-4.18-3.22-8.8,3.49-5.45,7.07a241.42,241.42,0,0,0,27.15,25c8.78,6.89,18.06,14.93,29.54,16.12,4.31.44,5.35-5,3.18-7.69a230.18,230.18,0,0,0-42.69-40.39c-4.29-3.13-8.74,3.47-5.45,7.07a206,206,0,0,0,25.38,23.58c7.3,5.71,17.32,15.69,27.35,13.4,2.66-.6,4.35-4.28,2.69-6.61a136.55,136.55,0,0,0-43.2-39.37c-4.71-2.71-8.48,3.25-5.45,7.07a154.31,154.31,0,0,0,27.23,26.7A135.94,135.94,0,0,0,1067.41,964c4.27,2.42,9.18,3.61,12.28-1.13,1.19-1.83.5-3.92-.71-5.46a136.58,136.58,0,0,0-47.11-38.1,4.52,4.52,0,0,0-5.45,7.06A128.8,128.8,0,0,0,1077,963.5c2.3,1,4.89-1,5.53-3.14,2.71-8.75-8-16.57-13.71-21.65A143.42,143.42,0,0,0,1045,921.56c-4.52-2.61-8.85,3.33-5.45,7.07A152,152,0,0,0,1081.34,961c3.83,2,8.62-2.16,6.15-6.16a104.8,104.8,0,0,0-18.34-22.41c-5.32-4.88-14.51-14.55-22.44-12.2a4.56,4.56,0,0,0-2,7.52,120.76,120.76,0,0,0,44.81,32.06c3.77,1.58,6.91-3.52,5.08-6.61a52.47,52.47,0,0,0-29.51-23.41c-4.42-1.4-7.37,4.4-4.38,7.53a43.43,43.43,0,0,0,25.68,13.21c3.43.46,7.59-3,5.08-6.61-2.66-3.85-6.28-6-11-5.76s-6.43,7.81-1.2,8.84a3.32,3.32,0,0,1,3,1.72l.7-5.45c.27-.22-4.64-2.3-5.5-2.59a26.38,26.38,0,0,0-8-1.32,27.11,27.11,0,0,0-15.29,4.62l5.45,7.06a9.28,9.28,0,0,0,1.3-1.56l3.89-2.23a19.85,19.85,0,0,0-13,5.07c-2.17,1.84-1.51,5.78.91,7.07a12.33,12.33,0,0,1,5.5,5.19c1.25,2.42,1.09,4.39,3.63,5.85,3.86,2.24,9.31,2.86,13.68,3a42.69,42.69,0,0,0,26.14-7.73c6.42-4.59,16.75-14.68,11.19-23.28-7.18-11.08-17,2.84-21.27,8.72a4.51,4.51,0,0,0,1.62,6.16c5.78,2.65,11.37.59,14.87-4.65,2.88-4.31,5.47-11,.29-14.72-8.11-5.76-25.92,7.44-18.86,16.41,7.72,9.81,20.44-6.77,14.74-15.53-3.08-4.73-9.2-5.27-14-3-5.92,2.78-7.7,9.07-12.77,12.66-4.69,3.32-.2,11.12,4.54,7.77a29.36,29.36,0,0,0,6.57-6.64c1-1.37,5.71-8.3,7.94-5.7,1.4,1.62-1.54,3-1.24,3.91,1,3.37,4.27-.59,5.26-1.17a7.81,7.81,0,0,1,2.06-.93q-.06-3.23-.91-.16c-.89,1-1.82,5-4,4l1.62,6.16c1.6-2.24,3.31-5.23,5.46-7s0,.69-.7,1.86a24.41,24.41,0,0,1-2.32,3,32,32,0,0,1-10.58,7.74,33.24,33.24,0,0,1-26.45.56l3.14,3.15a21,21,0,0,0-10.66-13.52l.91,7.07a10,10,0,0,1,6.69-2.43,4.45,4.45,0,0,0,3.88-2.23c4.77-10.25-8.27-17.64-15.43-9.34-3.14,3.64.92,10.06,5.45,7.07a18.47,18.47,0,0,1,18-1.73c4.6,1.88,8.44,3.08,12.62-.39a4.52,4.52,0,0,0,.7-5.45,12.5,12.5,0,0,0-8.37-5.86l-1.19,8.84a2.86,2.86,0,0,1,3.28,1.3l5.08-6.61a35.67,35.67,0,0,1-21.71-10.9l-4.38,7.52a42.94,42.94,0,0,1,24.14,19.27l5.08-6.61a111,111,0,0,1-40.83-29.75l-2,7.52c1.93-.57,8,5.05,9.34,6.14a97.48,97.48,0,0,1,7.9,7.17,96,96,0,0,1,13.38,17.18l6.16-6.16a144.87,144.87,0,0,1-40-31l-5.45,7.07a131.92,131.92,0,0,1,18.09,12.4q4,3.27,7.66,6.83c1.55,1.5,8.37,7,7.64,9.4l5.53-3.14A119.86,119.86,0,0,1,1032.78,920l-5.45,7.07a130.63,130.63,0,0,1,45.29,36.7l-.7-5.46-.52.8,2.69-2.07c-1.19.47-4-1.94-5-2.56q-3.22-2-6.35-4.14a137.9,137.9,0,0,1-11.77-9.07,152.28,152.28,0,0,1-19.77-20.69l-5.46,7.07a126.33,126.33,0,0,1,40,36.15l2.69-6.61c-4.07.92-10-4.79-13.1-7q-5.68-4.08-11-8.57a207,207,0,0,1-19.85-19.1l-5.45,7.07a221.31,221.31,0,0,1,40.87,39l3.18-7.68c-5.26-.55-9.74-3.71-14-6.66q-6.9-4.85-13.43-10.21a241.42,241.42,0,0,1-22.94-21.61l-5.45,7.07q21.12,16.25,40.76,34.32v-6.36q3.36-.09.3-1.42c-.92-.73-1.82-1.47-2.73-2.22-1.8-1.5-3.58-3-5.34-4.58q-4.92-4.37-9.58-9.05a209.51,209.51,0,0,1-18.28-21l-6.15,6.16q18.19,13.32,35.47,27.83l5.45-7.07a215.79,215.79,0,0,1-40.32-38.35l-5.45,7.07a90.39,90.39,0,0,1,20.77,14l5.45-7.06-21.8-14.94-3.47,8.23,32,13.38c4.8,2,7.72-5.7,3.47-8.23a78.48,78.48,0,0,0-23-9.16l-2.39,8.68,26.08,5.77c4.76,1.06,8.2-5.76,3.47-8.22l-11.21-5.84-3.47,8.23a132.7,132.7,0,0,1,32,14.86l3.47-8.23a52.33,52.33,0,0,1-15.62-7.92l-3.47,8.23c12.52,2.11,21.55,12.49,33.82,15.54,4.1,1,19.05,2.93,13.86,10.3-3.47,4.94-12.52,7.34-17.93,9-16,5-29.46-3.14-41.25-13.4a148.55,148.55,0,0,1-15.39-15.54c-4.44-5.21-10.76-11.88-12.94-18.49-1-3.11-.39-4.23,3-3.6,2.18.41,4.36,1.17,6.5,1.74l13,3.49,26.93,7.23c5.6,1.5,8-7.18,2.39-8.68Z" transform="translate(-986.86 -747.75)"/><path class="cls-1" d="M1094.3,880l.8-8.38c.44-4.65-6.22-5.82-8.39-2.27a143.1,143.1,0,0,0-18.51,48.53,4.53,4.53,0,0,0,8.23,3.47c5.61-8.05,7.85-17.54,9.8-27,.89-4.31-4.16-7.63-7.52-4.38A47.89,47.89,0,0,0,1064.14,922c-.2,3.44,4,5.56,6.77,3.88a22.91,22.91,0,0,0,11.3-18.22c.3-3.23-3.11-4.72-5.7-4.34-7.63,1.11-17.57,9.11-14.65,17.88a9.11,9.11,0,0,0,8.16,5.86c4.72.28,8.39-2.65,11.56-5.79s-.07-8.65-4.38-7.52c-6.37,1.67-10.53,7.12-7.71,13.5,1.44,3.24,6.16,2.6,7.77,0a102.48,102.48,0,0,0,15.25-50c.18-4.48-6.25-6.1-8.39-2.27a100,100,0,0,0-12.71,49.86,4.55,4.55,0,0,0,3.31,4.33c8.81,1.61,10.66-9.1,12.74-15.43,3.18-9.7,5.88-19.53,8.19-29.47,1.22-5.26-5.23-7.39-8.23-3.47a84.56,84.56,0,0,0-14.73,30.05c-1.94,7.44-5.79,20.35,3.61,24.08a4.36,4.36,0,0,0,4.38-1.15,80.72,80.72,0,0,0,18-38.08c.26-1.48.14-3.34-1.16-4.38-10.39-8.32-19.32,8-22.33,16-2.49,6.59-7.67,28.21,4.9,28.14,5.5,0,9.79-5.72,12.89-9.59a63.73,63.73,0,0,0,9.44-16.21c1.82-4.54,4.06-10.46.22-14.64-3.55-3.85-9.24-2.35-12.79.62-8.54,7.14-12.9,21.5-12.29,32.3.27,4.71,3,9.08,8.27,8.68,5.72-.43,9.33-5.71,12.05-10.14a67,67,0,0,0,7.21-16.4c1.33-4.59,2.77-10.36-.76-14.4-9.07-10.37-17.37,12.77-18.72,18.58s-2.78,13.53.16,19c2.51,4.65,8.3,6.58,12.25,2.29,4.53-4.91,7-13.38,9.1-19.61a105.74,105.74,0,0,0,4.56-22.27,4.39,4.39,0,0,0-2.23-3.88c-8.76-4.35-13.35,6.75-15.79,13.22a62,62,0,0,0-3.47,14.4c-.49,4-1.52,9.59.62,13.28a6.75,6.75,0,0,0,8.53,2.79c3.91-1.65,6-6.2,8-9.67a127.56,127.56,0,0,0,12-29.35c1-3.54-2.25-6.13-5.54-5.54-9.39,1.69-13.71,11.78-16.7,19.77-2.38,6.37-8.12,21.19-.94,26.38,7.83,5.64,15.25-7.79,18.47-13,3.48-5.63,12.77-19.18,4.85-24.58s-15.25,4.94-18.68,10.88c-3.9,6.74-8.65,17.79-6.22,25.72a7.26,7.26,0,0,0,7.64,5.36c4.4-.5,6.79-4.53,8.85-8,4.87-8.21,9.82-19.08,10.08-28.8.1-3.57-1.32-7.9-5.19-8.93-5-1.33-7.73,3.4-9.41,7.2a56.93,56.93,0,0,0-3.73,33.69c.66,3.6,6.73,4.6,8.23,1.08q6.57-15.5,12.76-31.13c2.12-5.37,4.56-10.78,6.26-16.3,1.11-3.59,1-7.64-2.29-10.08-8.54-6.43-12.83,9.24-14.81,14.82a96.22,96.22,0,0,0-5.36,30.63c-.08,5.2,7.32,6,8.84,1.2,7.72-24.15,14.33-49.32,28-71l-7.77-4.55-22.3,47.34c-2.43,5.17,5,9.71,7.77,4.54l37.54-69.4c2.3-4.27-3.81-9.66-7.07-5.45a246.78,246.78,0,0,0-37.85,69.25c-1.68,4.75,6.1,8.12,8.23,3.47,13.29-29.1,26.8-58.34,46.26-83.93l-7.77-4.54a502.33,502.33,0,0,0-56.16,96l8.22,3.47c12-36.27,29.66-71.24,57.55-97.92l-6.37-6.36c-12.91,12.38-22.5,27.65-31.48,43a525.59,525.59,0,0,0-26.36,51.5l8.23,3.46a292.4,292.4,0,0,1,56.34-103.66c3.07-3.63-.94-10.15-5.45-7.06-19.94,13.64-32.86,35.63-43.29,56.91-11.39,23.23-19.7,47.8-27.4,72.45l8.68,2.39A269.67,269.67,0,0,1,1166,805.62l-6.36-6.37A386.36,386.36,0,0,0,1097,909.05l8.68,2.39c11.83-44.33,39.62-81.78,69.36-115.84,3.79-4.34-2.46-10.69-6.36-6.37-32.23,35.74-55.45,78.13-75.34,121.67l8.38,2.27c.32-11.73,5.47-23.41,10-34.08a258.43,258.43,0,0,1,55-81.27l-6.37-6.36C1129.44,822.93,1101.8,859,1089,901.79c-1.69,5.69,6.58,7.63,8.68,2.4,16.5-41,36-81.77,66.32-114.53l-6.36-6.36c-31.5,34.63-50.91,77.61-67.2,121l8.68,2.39c10.09-42.42,32.76-80.19,59.12-114.45,3.12-4.05-3.66-9.19-7.07-5.45-29.81,32.71-47.86,73.37-65.3,113.51l8.23,3.47c10.28-38.37,32.38-71.75,54.17-104.44,2.65-4-2.42-8.07-6.16-6.15-8.45,4.32-14,12.86-19.48,20.34a258.18,258.18,0,0,0-17.19,27,266.43,266.43,0,0,0-23.54,58c-1.3,4.74,6.18,8.27,8.23,3.46a733.6,733.6,0,0,1,53.59-102.54c2.72-4.34-3.5-9.09-7.07-5.45-27.8,28.44-43,65.66-57.44,102l8.67,2.39a285.09,285.09,0,0,1,45.19-95.2l-7.77-4.55a427.21,427.21,0,0,0-27.09,44.23c-4,7.64-7.9,15.4-11.45,23.29-3.16,7-6,14.1-5.48,21.94a4.52,4.52,0,0,0,8.84,1.2,406.87,406.87,0,0,1,42.42-84c2.79-4.24-3.66-9.28-7.07-5.46-21.07,23.67-32.13,53.56-41.66,83.3-1.52,4.77,6.11,8.17,8.23,3.47l20.33-45.17,9.76-21.68c3.23-7.18,7-14.33,8-22.22.54-4-4.12-8.06-7.52-4.37A158.42,158.42,0,0,0,1085.1,863c-1,4.05,4.48,8,7.52,4.38,9.1-10.93,14.34-25.06,20.52-37.75l20.25-41.59c2.59-5.32-4.3-9.07-7.77-4.54a148.34,148.34,0,0,0-25.08,50.4c-1.36,4.87,5.7,8,8.22,3.46a411.82,411.82,0,0,0,25.16-53.59c1.88-4.87-5.67-7.7-8.22-3.47a82.91,82.91,0,0,0-11.31,33c-.47,3.77,5.32,6.08,7.68,3.18a90.82,90.82,0,0,0,17.68-34.47c.82-3.11-1.47-5.35-4.34-5.7-4.68-.57-8,2.36-9.72,6.42s4.77,7.75,7.52,4.38l7.58-9.26a4.66,4.66,0,0,0,0-6.36c-2.31-2.71-5.13-2.65-8.18-1.34l4.55,7.77a36.38,36.38,0,0,1,18.65-3.59l-1.2-8.84a73.93,73.93,0,0,0-27.41,12.68c-3.67,2.73-2.31,7.89,2.27,8.38,8.72.93,17.18-2.87,25.31-5.53l25.78-8.43c5.47-1.79,3.24-10.21-2.39-8.68A175.38,175.38,0,0,0,1132,784c-4.29,2.65-1.55,9.61,3.46,8.23,16.15-4.46,32.25-9.09,47.33-16.53,4.55-2.24,1.37-9.84-3.47-8.22a219.8,219.8,0,0,0-53.79,26.61c-3.92,2.67-1.58,10.22,3.46,8.23L1199,774.69l-2.39-8.67c-21.43,8.56-42.89,17.18-63.16,28.28-4.76,2.6-1.29,9,3.46,8.22,28.13-4.73,54-18.63,82.48-21.68l-1.2-8.84-40.06,11.11c-11.91,3.31-24.38,5.95-35.17,12.23-3.66,2.13-2.31,8.75,2.28,8.38,28.59-2.25,54.73-18.44,83.7-17.16l-1.2-8.84A341.28,341.28,0,0,0,1144,800.66c-5.18,2.16-3.24,10.57,2.39,8.68l83.55-28c4.56-1.53,4.13-9.17-1.2-8.84q-34.42,2.13-68.59,6.88l5.53,5.53s4-.87,4.92-1.07c2.87-.62,5.75-1.24,8.63-1.84q9.11-1.89,18.27-3.6,17.84-3.33,35.78-5.93c5-.74,3.82-9.06-1.19-8.84l-58.41,2.49c-5.77.25-5.8,9.25,0,9l58.41-2.49-1.2-8.84q-21.35,3.12-42.52,7.21c-7.06,1.37-14.11,2.79-21.12,4.37-4.67,1.06-8.45,2.39-10.25,7.15-1.36,3.61,2.54,5.95,5.54,5.54q33-4.54,66.2-6.56l-1.2-8.84-83.54,28,2.39,8.68a341.4,341.4,0,0,1,83.69-22.94c5.22-.74,3.63-8.63-1.19-8.84-29.19-1.29-55.06,14.9-83.7,17.16l2.27,8.39c10.61-6.18,23.2-8.59,34.92-11.85l38.15-10.58c4.71-1.31,4-9.4-1.19-8.84-29.35,3.15-55.91,17.13-84.87,22l3.47,8.23c19.6-10.72,40.29-19.1,61-27.38,5.31-2.12,3-10.81-2.39-8.67l-69.93,27.61,3.47,8.22a211,211,0,0,1,51.65-25.7l-3.47-8.23c-14.36,7.09-29.8,11.38-45.18,15.62l3.47,8.22a167.06,167.06,0,0,1,44-19.1l-2.39-8.68-24,7.83c-7.81,2.56-16.39,6.7-24.75,5.81l2.27,8.39A67.62,67.62,0,0,1,1157,774.24c5.15-1.2,3.69-8.54-1.19-8.84a45.59,45.59,0,0,0-23.2,4.82c-5.28,2.6-.65,10,4.55,7.77l1-.42-3.47.46-.24-.11v-6.36l-7.57,9.26,7.52,4.38c0,.38.34.44,1,.18l-4.34-5.7a80.41,80.41,0,0,1-15.36,30.51l7.68,3.18a72.31,72.31,0,0,1,10.08-28.49l-8.23-3.47A396.88,396.88,0,0,1,1101,832.85l8.23,3.47a141.61,141.61,0,0,1,24.17-48.25l-7.77-4.54-19.39,39.82-9.48,19.47c-3.07,6.3-6,12.8-10.5,18.22l7.53,4.38A149,149,0,0,1,1129,799.49l-7.52-4.38c-1,7.8-4.73,14.78-7.93,21.88l-9.75,21.68L1084.29,882l8.22,3.46c9-28.18,19.35-56.87,39.35-79.32l-7.07-5.46a416.85,416.85,0,0,0-43.33,86.17l8.84,1.19c-.49-8.08,3.24-15.31,6.59-22.45s7-14.44,10.86-21.5a428.46,428.46,0,0,1,25.34-41c3.34-4.79-4.41-9.17-7.77-4.55A291.88,291.88,0,0,0,1079.23,896c-1.51,5.73,6.58,7.64,8.67,2.39,13.91-34.87,28.47-70.76,55.14-98l-7.07-5.46a733.6,733.6,0,0,0-53.59,102.54l8.22,3.47a255,255,0,0,1,36.81-78.59c5.24-7.53,10.87-17.06,19.26-21.35l-6.15-6.16c-22.22,33.34-44.59,67.46-55.08,106.59-1.27,4.74,6.14,8.27,8.23,3.46,17.09-39.35,34.65-79.61,63.89-111.69l-7.07-5.45c-26.82,34.85-49.77,73.46-60,116.6-1.36,5.72,6.67,7.75,8.68,2.39,15.72-41.86,34.48-83.59,64.88-117,3.88-4.27-2.42-10.63-6.36-6.36-31.43,34-51.53,76-68.64,118.49l8.68,2.4c12.33-41.33,39.2-76,69-106.37,4.06-4.13-2.27-10.47-6.37-6.36a268.46,268.46,0,0,0-42.42,55.18,264.66,264.66,0,0,0-15,30.29c-4.83,11.5-9.9,23.61-10.24,36.24-.11,4.25,6.49,6.42,8.39,2.27,19.56-42.8,42.24-84.71,73.93-119.84l-6.36-6.37c-30.76,35.23-59.44,74-71.68,119.82-1.51,5.68,6.7,7.75,8.68,2.39A373.28,373.28,0,0,1,1166,805.62c3.59-4.41-2.42-10.74-6.36-6.37a279,279,0,0,0-64.39,123.19c-1.31,5.65,7,7.93,8.68,2.39,7.29-23.34,15.06-46.63,25.7-68.69,9.79-20.28,21.84-42.28,40.85-55.29l-5.45-7.07a303.35,303.35,0,0,0-58.66,107.63c-1.45,4.77,6.11,8.2,8.22,3.47A522.39,522.39,0,0,1,1140,855c8.86-15.29,18.19-30.52,31-42.83,4.19-4-2.18-10.37-6.37-6.36-29,27.74-47.35,64.17-59.86,101.88-1.57,4.76,6.14,8.17,8.23,3.47a502.63,502.63,0,0,1,56.16-96c3.48-4.66-4.31-9.08-7.77-4.54-19.46,25.59-33,54.83-46.27,83.92l8.23,3.47a233.57,233.57,0,0,1,35.53-65.28l-7.06-5.45-37.54,69.4,7.77,4.54,22.3-47.33c2.44-5.19-4.64-9.52-7.77-4.55-14,22.29-20.92,48.24-28.87,73.11l8.84,1.19a87.35,87.35,0,0,1,10.36-40l-3.88,2.23q-1.86-1.7-1.94.74c-.34.92-.69,1.84-1,2.76q-1,2.76-2.12,5.51-2.3,6-4.67,11.91-4.89,12.25-10,24.4l8.22,1.08a47.06,47.06,0,0,1,.74-20.55c.37-1.38.78-2.76,1.27-4.1.19-.52,2.44-4.87,2.29-5.2l-3.61-.23a29.79,29.79,0,0,1-.55,3.25c-.29,1.42-.65,2.83-1,4.22a69.16,69.16,0,0,1-3.33,9.58c-1.24,2.83-4.26,6.3-4.89,9.21l-.94,1.46c1.23,1.25,1.79,1.34,1.66.28.5-.48.4-3.31.6-4.31a41.66,41.66,0,0,1,3.29-10,42.61,42.61,0,0,1,5-8,30.56,30.56,0,0,0,2.72-2.81c-1.15-.68-1.77-.41-1.87.81-.34.88-.72,1.75-1.12,2.61A78.69,78.69,0,0,1,1101.62,925a20.44,20.44,0,0,1-1.54,1.81q-1.56,1.26,1.78.93c.32-.22.64-4.94.73-5.42a67.19,67.19,0,0,1,2.28-8.71c1.82-5.52,4.73-14.84,11.31-16l-5.53-5.53a118.29,118.29,0,0,1-6,17.05q-1.6,3.6-3.45,7.08c-.92,1.73-4.2,5.71-4.37,7.58-.8.73-.57,1.21.71,1.44q1.9,1.81,1.16-1a20.31,20.31,0,0,0,.14-3.41,51.51,51.51,0,0,1,1.45-8.89,54.17,54.17,0,0,1,2.88-8.59c.46-1,.94-2.07,1.49-3.07a7,7,0,0,1,1.24-2c.81-.73.48-1-1-.65l-2.22-3.89a94.54,94.54,0,0,1-6.07,25q-1.11,2.79-2.43,5.51-.78,1.62-1.62,3.21-2.19,2.52,1,1.28c.24-.79-.29-3.76-.25-4.66a40.63,40.63,0,0,1,1-7.28,42.81,42.81,0,0,1,4.12-10.89q.61-1.14,1.29-2.22c-1.69-2.17-2.4-2.37-2.11-.6-.75.88-.81,3.51-1.16,4.75a57,57,0,0,1-4.63,11.33,55.6,55.6,0,0,1-3,5c-.73,1.07-3.45,3-2.18,3.89-1.48-1,1.13-10.49,1.49-11.7a29.08,29.08,0,0,1,8.35-14.27q-.89-2.52-1,.64l-.51,1.57a49.74,49.74,0,0,1-5.2,10.83c-2.12,3.42-5.4,6.11-7.46,9.44-1.21.52-1.51,1.31-.91,2.36-.07-.81-.11-1.62-.11-2.43a37.39,37.39,0,0,1,.34-6.07,39,39,0,0,1,3.47-11.24c.54-1.11,6-9.52,6.13-9.4l-1.16-4.38a72,72,0,0,1-15.73,34.1l4.38-1.16c1.13.45.71-2.51.83-3.55.21-1.81.54-3.61.9-5.39a77.68,77.68,0,0,1,3.17-11.23,78.47,78.47,0,0,1,11.6-20.74l-8.22-3.47c-1.59,6.84-3.35,13.62-5.34,20.35q-1.37,4.59-2.85,9.13c-.6,1.82-1.2,3.63-1.84,5.43l-.63,1.81c-1.31,1.7-1,2.33.8,1.91l3.3,4.34a90.67,90.67,0,0,1,11.48-45.32l-8.38-2.27a93.23,93.23,0,0,1-14,45.45h7.77a2.52,2.52,0,0,0,2.34-.28l-4.38-7.52c-1.46,1.44-7.06,5.44-3.41.73,1.79-2.31,4.29-3.23,7.09-3.65l-5.69-4.33a13.42,13.42,0,0,1-6.84,10.45l6.77,3.89a38.59,38.59,0,0,1,11.93-25.7l-7.52-4.37c-1.81,8.75-3.7,17.41-8.89,24.86l8.22,3.46a135.81,135.81,0,0,1,17.61-46.37l-8.39-2.28-.8,8.38c-.54,5.76,8.46,5.72,9,0Z" transform="translate(-986.86 -747.75)"/><path class="cls-1" d="M1172.13,764.85l-16.72-1.29v9q17.8-1.48,35.66-1.35v-9l-30.47.35c-5.12.05-6,7.34-1.2,8.83,24.38,7.5,49.35,14.87,75.15,13.21a4.5,4.5,0,0,0,0-9,134.89,134.89,0,0,0-73.07,16.52c-5.74,3.16-14.33,6.87-16.09,13.76a4.56,4.56,0,0,0,5.54,5.54c30-6.79,59.37-15.94,88.7-25.14,5.5-1.72,3.22-10.23-2.39-8.67A490.45,490.45,0,0,0,1151.89,810c-4.54,2.22-1.36,9.87,3.47,8.22,29.27-10,58.82-20,89.62-24l-1.2-8.83c-33.48,8.21-67.3,16.75-97.5,33.94-4.55,2.58-1.42,9.31,3.47,8.22q46.44-10.36,92.13-23.8c5.55-1.63,3.24-10.1-2.39-8.68-17.73,4.48-35.45,9.1-53,14.26-16,4.71-31.81,10.42-45.65,19.88-4,2.74-1.68,9.77,3.47,8.22l82.86-25c5.6-1.69,3.24-9.74-2.4-8.67-14.78,2.8-29.52,6-44.1,9.67-11.81,3-23.34,7.14-32.45,15.54-2.66,2.44-.77,8.18,3.18,7.68,27.53-3.5,53.88-11.88,80.16-20.5,5.47-1.8,3.24-10.24-2.39-8.68l-76.1,21.07c-5.6,1.55-3.25,10,2.39,8.67l97.67-22.09c5.75-1.31,3.19-9.55-2.4-8.68-21.67,3.36-43.47,7.07-63,17.64-3.88,2.1-2.18,8.57,2.27,8.39a213.33,213.33,0,0,0,70.13-14.75,4.51,4.51,0,0,0-2.4-8.68l-37.29,6.72c-10.29,1.85-23.2,2.15-32,8.31-3.23,2.26-2.6,8.95,2.27,8.38a320,320,0,0,0,71.4-16.58,4.5,4.5,0,0,0-2.39-8.67c-26.19,4.44-52.47,9-77.37,18.59-5.33,2.05-3.36,10,2.39,8.68l39.09-8.92c4.86-1.11,3.91-9.26-1.2-8.84a149.72,149.72,0,0,0-46.15,11.18c-3.48,1.47-4.61,6-1.07,8.23,5.81,3.69,12.37,2.17,18.7.85q11.28-2.36,22.35-5.5a335.28,335.28,0,0,0,43.47-15.79c4.66-2.06,1.34-9.77-3.47-8.23a51.64,51.64,0,0,0-17.17,9.41c-3.81,3.12.44,8.25,4.38,7.52a73.52,73.52,0,0,0,29.59-12.62c4.1-2.94,1.7-9.31-3.47-8.22a37.52,37.52,0,0,0-23.34,15.76c-2.4,3.47,1.56,7.35,5.08,6.61a57.36,57.36,0,0,0,40.09-31.81c1.85-4-2-8.4-6.16-6.15a48.32,48.32,0,0,0-21.2,22.43c-1.77,3.86,2,8.63,6.16,6.16a63.49,63.49,0,0,0,28.07-35.28c1.55-4.8-5.94-8.06-8.23-3.47l-4.84,9.72a4.5,4.5,0,0,0,7.77,4.55c5.68-8.11,9.68-18.18,6.61-28.11-3-9.55-11.37-14.4-20.83-15.6-21.49-2.72-45,3.9-64.23,13.12-4,1.9-2.11,8.73,2.27,8.39l69.2-5.46c5.72-.45,5.81-9.38,0-9A225.93,225.93,0,0,0,1222.28,769c-5.35,2-3.32,10.08,2.4,8.67l64.91-16c4.84-1.19,3.94-9.19-1.19-8.84a188.39,188.39,0,0,0-70.65,19c-5,2.45-1.13,8.87,3.47,8.22,24.7-3.48,48.77-10.08,72.77-16.76,5.75-1.59,3.16-9.44-2.4-8.67a235.08,235.08,0,0,0-69.6,21.09c-4.08,2-2,8.52,2.27,8.39,10.69-.32,20.9-3.12,31.12-6.07l33.55-9.7-2.4-8.67a376.48,376.48,0,0,0-64.66,26c-2.95,1.5-2.93,6.25,0,7.77,4.51,2.33,8.5,1.07,13.09-.42l17.77-5.78,35.52-11.56c5.55-1.81,3.27-9.78-2.39-8.68-24.45,4.74-47.45,14.83-68.46,28.07-4.14,2.6-1.55,10,3.46,8.22l65.49-22.77-2.39-8.68c-22,8.61-44.06,17.34-63.83,30.43-4,2.65-1.58,10.09,3.46,8.22l64.17-23.71-2.39-8.68c-20.46,7.8-40.95,15.69-60.09,26.42-3.91,2.19-2.14,8.39,2.28,8.38,9.46,0,18.67-4.87,27.37-8.12l28.83-10.79-3.47-8.23c-16.69,7.43-33.36,14.94-48.74,24.89-4,2.61-1.51,10.2,3.47,8.22l47.65-19-3.46-8.22c-10,5.33-19.89,10.9-27.68,19.26-3.63,3.9.9,9.15,5.45,7.07a67.72,67.72,0,0,0,37.68-47.08c1-4.69-6-8.35-8.23-3.47l-12.42,27c-2,4.25,3.54,9.7,7.07,5.45a126.81,126.81,0,0,0,17-26.5c2-4.24-3.72-9.78-7.07-5.45a35,35,0,0,0-7.76,21.85A4.55,4.55,0,0,0,1291,793c12-11.54,12.58-30.72,2.17-43.41-3.68-4.48-10,1.92-6.37,6.37,7.36,9,6,22.78-2.16,30.68l7.68,3.18a25.17,25.17,0,0,1,5.13-15.49l-7.07-5.45a117.64,117.64,0,0,1-15.63,24.68l7.07,5.45,12.43-27-8.23-3.47a59.32,59.32,0,0,1-33.54,41.7l5.45,7.07c7.28-7.82,16.54-12.88,25.86-17.86,4.39-2.35,1.34-10.14-3.47-8.22l-47.65,19,3.46,8.23c15.38-9.94,32.05-17.46,48.75-24.89,4.61-2.05,1.31-10-3.47-8.22l-27,10.09c-8.21,3.07-18,8.49-26.84,8.5l2.27,8.39c18.47-10.35,38.19-18,57.93-25.51,5.34-2,3.07-10.7-2.39-8.68l-64.17,23.71,3.47,8.23c19.13-12.67,40.41-21.19,61.68-29.52,5.29-2.07,3.16-10.61-2.39-8.68l-65.49,22.77,3.47,8.23c20.42-12.87,42.55-22.55,66.31-27.16l-2.39-8.68-29.92,9.73-15,4.87-7.47,2.43c-1.57.51-5.4,2.51-7.1,1.64v7.77a364.38,364.38,0,0,1,62.52-25.07c5.53-1.64,3.19-10.29-2.4-8.67l-31.63,9.13c-10.06,2.91-20.1,6-30.64,6.31l2.27,8.39a228.14,228.14,0,0,1,67.46-20.2l-2.4-8.67c-24,6.67-48.06,13.27-72.77,16.75l3.47,8.23a176.88,176.88,0,0,1,66.11-17.75l-1.2-8.84-64.92,16,2.4,8.67a217.47,217.47,0,0,1,61.54-13.24v-9l-69.2,5.46,2.27,8.38A123.64,123.64,0,0,1,1269.9,757c7-.16,16.19,0,20.15,6.94,4.55,7.92,0,17-4.62,23.61l7.77,4.55,4.84-9.72-8.22-3.47a54,54,0,0,1-23.93,29.9l6.16,6.15a40.4,40.4,0,0,1,18-19.2l-6.16-6.16a48.92,48.92,0,0,1-34.71,27.67l5.08,6.61a28.31,28.31,0,0,1,18-11.62l-3.47-8.23a67.49,67.49,0,0,1-27.43,11.71l4.38,7.52a39.76,39.76,0,0,1,13.19-7.09l-3.47-8.22a320.18,320.18,0,0,1-37.77,13.85q-9.27,2.76-18.7,4.94c-5.23,1.22-14,4.78-19,1.65l-1.08,8.22a142.36,142.36,0,0,1,43.76-10.86l-1.19-8.84-39.09,8.92,2.39,8.68c24.9-9.56,51.18-14.15,77.37-18.6l-2.39-8.67a309.94,309.94,0,0,1-69,16.25l2.28,8.39c4.24-3,9.17-3.68,14.16-4.58l17.66-3.18,35.34-6.36-2.4-8.68A205.84,205.84,0,0,1,1190,823.49l2.27,8.38c18.76-10.16,40-13.51,60.84-16.73l-2.4-8.68-97.66,22.1,2.39,8.67,76.1-21.06-2.39-8.68c-25.44,8.35-51.11,16.79-77.77,20.18l3.18,7.68c8.73-8.05,20.32-11.23,31.58-14q20.38-5,41-8.91l-2.4-8.67-82.86,25,3.47,8.23c13.73-9.39,29.32-14.85,45.18-19.46,17-4.94,34.14-9.44,51.31-13.77l-2.39-8.68q-45.66,13.44-92.14,23.8l3.47,8.23c29.52-16.8,62.63-25,95.36-33,4.79-1.17,3.92-9.49-1.2-8.84-31.67,4-61.9,14-92,24.28l3.47,8.23a478.16,478.16,0,0,1,83.19-31.52l-2.39-8.67c-29.33,9.19-58.7,18.35-88.71,25.13l5.54,5.54c.69-2.71,6.12-5,8.25-6.26q4.41-2.62,9-4.89a123.39,123.39,0,0,1,20.44-7.86,127.93,127.93,0,0,1,42.78-4.67v-9c-25,1.61-49.1-5.61-72.75-12.88l-1.2,8.84,30.47-.35c5.79-.07,5.8-9,0-9q-17.86-.13-35.66,1.35a4.5,4.5,0,0,0,0,9l16.72,1.29c5.78.44,5.75-8.56,0-9Z" transform="translate(-986.86 -747.75)"/><path class="cls-3" d="M1056.55,911.42a213.5,213.5,0,0,0-54.63-14.48c-3.78-.48-7.58-1-10.8,1.48s-4.39,6.66-4.25,10.54c.27,8.2,6.41,14.77,11.6,20.5q10.13,11.17,21.07,21.56c6.43,6.11,13,12.47,20.35,17.43,12.87,8.66,29.59,11,44.53,7.15,16.17-4.14,34.62-17.6,33.07-36.22-.47-5.73-9.48-5.78-9,0,1.45,17.42-19.46,27.64-34.14,28.85a47.27,47.27,0,0,1-24-4.14c-8-3.81-14.56-10.23-21-16.21q-10.71-9.93-20.68-20.62c-2.28-2.45-19.43-20.58-10.29-21.72,4.22-.53,9.86,1.3,14,2.08,4.76.89,9.5,2,14.19,3.17a214.16,214.16,0,0,1,27.56,9.31c5.34,2.21,7.67-6.5,2.39-8.68Z" transform="translate(-986.86 -747.75)"/><path class="cls-4" d="M1232.15,749.8a448.88,448.88,0,0,0-51-.13q-13.21.72-26.37,2.24c-6.77.78-13.76,1.38-20.11,4s-10.54,7.5-14,13.41c-4.13,7.06-8,14.26-11.9,21.48q-11.85,22.17-22.46,45-10.47,22.34-20.08,45.07-4.69,11-9.26,22.09-2.34,5.7-4.67,11.42c-1.36,3.36-3.41,7-2.16,10.66,1.81,5.38,9.59,8.93,14.25,11.26a71.71,71.71,0,0,0,39.26,7.27c6-.65,13.35-1.34,17.18-6.66,4.29-5.94,6.51-14.41,9-21.22,2.84-7.77,5.45-15.62,8.17-23.43,5.67-16.23,11.93-32.23,21.5-46.61,3.21-4.84-4.58-9.35-7.78-4.55-14.79,22.25-21.74,48.19-30.86,73-1,2.67-2,5.33-3.05,8-1.14,2.85-2.07,6.76-4,9.19-3.44,4.3-13.92,3.79-18.86,3.67a63.3,63.3,0,0,1-17.53-3,59.78,59.78,0,0,1-9.19-3.78c-2.49-1.28-6.29-2.81-8.11-5-1.62-1.91-1.28-1.19-.2-3.8q1.08-2.64,2.14-5.28l3.6-8.78q4.49-10.86,9.09-21.68c5.72-13.39,11.6-26.7,17.74-39.89q9.39-20.22,19.64-40,5-9.67,10.31-19.22c3.32-6,6.51-14.41,12.27-18.47s14.14-4.5,21-5.28q12.68-1.44,25.4-2.13a448.88,448.88,0,0,1,51,.13c5.79.33,5.77-8.67,0-9Z" transform="translate(-986.86 -747.75)"/><path class="cls-4" d="M1156.57,847.12a233.42,233.42,0,0,0,101-14c14.37-5.43,26.92-12.73,35.85-25.54,8.23-11.79,12.64-25.88,16-39.7,1.38-5.63-7.29-8-8.68-2.4-3.16,12.9-7.13,25.86-14.69,36.93-8.68,12.72-22,19-36.11,23.92a227.64,227.64,0,0,1-93.38,11.77c-5.77-.46-5.74,8.54,0,9Z" transform="translate(-986.86 -747.75)"/></svg>