<svg id="legR" xmlns="http://www.w3.org/2000/svg" viewBox="0 0 260.03 320.6"><defs><style>.cls-1{fill:#2d4751;}.cls-2{fill:#121b1e;}.cls-3{fill:#00a200;}.cls-4{fill:#002600;}</style></defs><title>legR</title><path class="cls-1" d="M1361.92,741.65c-12.49,1.78-23.94,7.15-34.8,13.35-11.82,6.75-23.35,14-34.82,21.39-23.22,14.84-46.26,30.27-68.2,47-4.15,3.15-8.16,6.5-11.2,10.78-3.8,5.38-5.54,11.77-6.79,18.15a315.31,315.31,0,0,0-5,40.05c-1.84,28.14-.49,56.36,1.49,84.45.35,4.87.25,10.06,5,12.85,4.88,2.88,12.27,3.22,17.79,3.91,12.83,1.6,26.57,1.68,39.25-1.17,11.72-2.64,15.94-10.92,16.77-22.2,1-13.89,1.78-27.8,2.67-41.69l1.38-21.45c.42-6.55-.11-13.91,1.56-20.25,1.55-5.89,9.5-8.29,14.32-10.81l19.31-10.1c11.8-6.17,24.07-11.92,34.85-19.81a106.78,106.78,0,0,0,22.72-22.75c14.68-19.83,22.53-44.1,25.57-68.38,1-7.83,4.52-24.34-5.91-27.78-5.88-1.95-13.08,2.66-18.42,4.69l-23.66,9c-5.36,2-3,10.74,2.39,8.68l18.2-6.91,7.28-2.77c2.19-.83,8-4.26,10.43-3.93,1.8.25,1.73,1.66,1.88,3.63a44,44,0,0,1-.28,6.28c-.38,5.19-1,10.36-1.88,15.5-3.37,19.56-10.19,38.69-21.63,55a95,95,0,0,1-21.24,21.95c-9.17,6.75-19.51,11.79-29.58,17.05-11.31,5.92-23.11,11.33-34.06,17.87-9.33,5.57-9.59,14.15-10.23,24.07l-2.5,39c-.77,12-.93,24.2-2.35,36.13-.72,6-3.15,9.62-9.22,11.1a89.51,89.51,0,0,1-19.18,2,124.58,124.58,0,0,1-16.61-.77c-3.27-.37-6.52-.91-9.75-1.58a17.77,17.77,0,0,1-3.61-.79c-2-1-1.74-1.66-2.1-3.69-1-5.88-.85-12.26-1.19-18.22q-.6-10.1-1-20.18c-.41-12.16-.51-24.33-.07-36.49A334.38,334.38,0,0,1,1213,865c1.81-11.68,3.29-23.23,12.64-31.42,10.26-9,22.21-16.48,33.4-24.24q17.1-11.87,34.61-23.13c11.54-7.42,23.17-14.73,35-21.68,11.18-6.57,22.69-12.34,35.66-14.19,5.71-.82,3.28-9.49-2.39-8.68Z" transform="translate(-1147.03 -726.69)"/><path class="cls-1" d="M1366.19,747.14c-11.14.28-20.93,6-30.43,11.29q-14.94,8.3-29,17.94a381.48,381.48,0,0,0-51.58,42.36c-4.24,4.15,1.95,9.91,6.36,6.37q36.4-29.19,75.12-55.29c4.78-3.23.62-10.52-4.54-7.78a623.43,623.43,0,0,0-104.64,70.21l6.36,6.37a334.77,334.77,0,0,1,70.26-51.52l-4.54-7.77a504.41,504.41,0,0,0-79.21,58c-4.33,3.87,2,10.2,6.36,6.36q19.39-17.24,40.32-32.59c4.58-3.36.31-11.08-4.55-7.77a374.15,374.15,0,0,0-53.07,43.71c-3.51,3.49,1.21,10.14,5.45,7.07a887.28,887.28,0,0,1,90.81-57.57l-4.55-7.77c-28,16.14-54.93,34.59-76.52,58.83-4,4.43,1.88,9.86,6.36,6.36a782.25,782.25,0,0,1,100.83-66.56c5.1-2.83.6-10.37-4.54-7.78A343.18,343.18,0,0,0,1236.63,846c-4.12,4.21,2,10,6.36,6.36a532.38,532.38,0,0,1,91.85-61.72l-4.54-7.77c-32.4,17.42-62.83,39-87.39,66.58-3.88,4.36,2,10.09,6.37,6.36a535.41,535.41,0,0,1,96.64-65c5.14-2.71.6-10.42-4.54-7.78a346,346,0,0,0-97.5,74.66c-3.64,4,.89,9,5.45,7.07,8.8-3.75,16-11.11,23.38-17q13.26-10.44,27.17-20a569,569,0,0,1,55.68-33.87c5.13-2.74.6-10.4-4.54-7.77A353.89,353.89,0,0,0,1248.64,865c-3.84,4.29,2.18,10.43,6.37,6.36A443.77,443.77,0,0,1,1357.29,797l-4.54-7.77c-35.29,22-68.44,48-94.44,80.74-3.58,4.51,1.86,10.12,6.37,6.36L1338.22,815c3.9-3.26-1.23-9.94-5.45-7.07a357.14,357.14,0,0,0-86.6,83.34c-3.44,4.66,4.36,9.16,7.77,4.54a344.68,344.68,0,0,1,83.37-80.11l-5.45-7.07L1258.31,870l6.37,6.36c25.54-32.14,57.92-57.69,92.61-79.33,4.92-3.07.58-10.48-4.54-7.77A452.62,452.62,0,0,0,1248.64,865l6.37,6.36a347,347,0,0,1,100.55-77.46l-4.54-7.77A567.84,567.84,0,0,0,1295.34,820q-12.94,8.94-25.37,18.6c-8,6.22-15.75,14.36-25.18,18.38l5.45,7.07a338.76,338.76,0,0,1,95.68-73.25l-4.54-7.78a546.31,546.31,0,0,0-98.47,66.46l6.37,6.36c24.1-27.07,53.77-48.07,85.56-65.17,5.11-2.75.58-10.49-4.54-7.77A542.19,542.19,0,0,0,1236.63,846l6.36,6.36a335.21,335.21,0,0,1,88.75-64.93l-4.54-7.78a795.35,795.35,0,0,0-102.65,68l6.36,6.36c21.12-23.71,47.36-41.64,74.71-57.42,5-2.89.53-10.57-4.55-7.77a888.23,888.23,0,0,0-90.8,57.57l5.45,7.06a361.79,361.79,0,0,1,51.26-42.3l-4.55-7.77q-21.86,16-42.13,34l6.36,6.36a492.61,492.61,0,0,1,77.39-56.64c5-3,.54-10.56-4.54-7.77a344,344,0,0,0-72.08,52.92c-4.26,4.08,2,10,6.36,6.37a611.07,611.07,0,0,1,102.82-68.8l-4.54-7.78q-39.63,26.76-76.94,56.7l6.36,6.37a368.27,368.27,0,0,1,48.32-40q12.62-8.7,25.91-16.35c9.22-5.28,19.54-12.37,30.47-12.64,5.78-.15,5.8-9.15,0-9Z" transform="translate(-1147.03 -726.69)"/><path class="cls-1" d="M1326.23,789.41a32.16,32.16,0,0,0,8.46-8.94c2.19-3.44-1.41-7.49-5.08-6.61-22.65,5.44-39.29,22.52-54.58,39-4,4.35,1.92,9.88,6.37,6.36L1349.84,765c4.14-3.27-1.13-9.38-5.45-7.06-19.13,10.27-33,27.38-41.24,47.28-1.84,4.47,4.53,7.1,7.52,4.38a543.56,543.56,0,0,0,55.24-58.3c3-3.65.13-8.13-4.38-7.52-7.83,1.08-12.68,7.77-16.92,13.79a165.09,165.09,0,0,0-13.44,22.8,171.39,171.39,0,0,0-15.58,50.73c-.47,3.23,1.91,6.57,5.53,5.53,6.86-2,10.53-7.7,14.41-13.26,4.78-6.82,9.52-13.66,14-20.67,8.87-13.79,16.67-28.22,22.08-43.73,1.17-3.36-2.41-6.33-5.54-5.54-7.83,2-13,9.89-17.71,15.92a169.8,169.8,0,0,0-14.75,22.34,172.07,172.07,0,0,0-11,24.41c-2,5.48-3.46,13.49,3.88,15.53a4.46,4.46,0,0,0,4.38-1.16q18-21.69,33.84-45c4-5.84,28.81-36.71,11.88-39.77-7.57-1.37-15.58,4.38-21.13,8.73a126.15,126.15,0,0,0-17.34,16.46,133.66,133.66,0,0,0-24.54,41.63c-1.74,4.7,4.42,6.85,7.52,4.38,11.77-9.39,21.28-21.62,31.26-32.82l32-35.85c3.19-3.58-1.1-10.25-5.46-7.07-13.53,9.89-23.89,22.9-32.42,37.23-4.37,7.35-8.27,15-12,22.64s-8.16,15.71-7.36,24.62a4.56,4.56,0,0,0,7.68,3.18c5.66-4.71,9.27-11.69,13.24-17.79l13.36-20.53,27.26-41.87c2.65-4.07-2.4-7.95-6.16-6.16-7,3.34-11.83,9.14-16.3,15.26a191.77,191.77,0,0,0-13.89,22.12,206.41,206.41,0,0,0-10.64,23.24c-2.65,6.85-6.88,15.33-3.9,22.65,1.51,3.71,5.83,4.36,8.22,1.08l28.75-39.42c4.59-6.31,9.22-12.6,13.79-18.92,3.8-5.25,7.67-11.32,5-17.95-.86-2.14-3-4-5.54-3.14-13.39,4.6-20,20.43-25.45,32.31a201.22,201.22,0,0,0-8.57,21.7c-2.25,6.86-5.17,13.92-2.05,20.89,1.08,2.41,4.13,2.47,6.16,1.61,4.66-2,6.71-6.71,8.93-10.94q4.79-9.1,9.56-18.22,9.33-17.79,18.61-35.61a4.56,4.56,0,0,0-3.88-6.77c-6.31-.41-10,5-13.51,9.48a149,149,0,0,0-11.14,16.27c-6.21,10.54-13.8,23.81-12.71,36.45.29,3.38,5,6.59,7.68,3.19a329.88,329.88,0,0,0,33.4-52.41c2.43-4.78-3.13-8.54-7.07-5.45-8,6.22-11.79,16.19-15.74,25.17q-6.71,15.24-12.08,31c-1.72,5,5.53,7.54,8.22,3.47q16.71-25.23,31.12-51.85c2.82-5.2-4.41-9.14-7.77-4.54a159.56,159.56,0,0,0-24,48.37c-.81,2.67,1.44,5.87,4.34,5.7,7.51-.47,9-10.29,11.25-16l10.48-26.57-8.68-2.39a242.53,242.53,0,0,1-19,41.87c-2.45,4.27,3.84,9.61,7.06,5.45q14.12-18.18,26.42-37.61c2.68-4.25-3.72-9.4-7.07-5.46a246,246,0,0,0-29.06,42.47c-2.41,4.46,3.33,9.07,7.06,5.45a108.34,108.34,0,0,0,32.73-74.09l-8.39,2.27c2.68,5.28,1.67,11.26.48,16.81q-1.72,8.07-4,16c-3,10.38-6.84,20.66-13.29,29.41-6.81,9.24-16.56,15.9-26.18,21.91a202.49,202.49,0,0,1-32.21,16.33c-5.31,2.12-3,10.83,2.39,8.68a215.22,215.22,0,0,0,35.86-18.18c10.93-7,21.41-14.75,28.86-25.53,7.07-10.23,11.21-22.28,14.34-34.23,3-11.49,7.22-24.49,1.49-35.76-2.11-4.17-8.24-1.95-8.38,2.27a99.11,99.11,0,0,1-30.09,67.73l7.07,5.45A235.25,235.25,0,0,1,1398.84,783l-7.07-5.46c-7.77,12.32-16.08,24.29-25,35.8l7.07,5.45a255.23,255.23,0,0,0,19.93-44c1.9-5.56-6.6-7.67-8.68-2.39l-7.59,19.24-3.61,9.16c-.6,1.53-1.19,3.06-1.8,4.58l-.73,1.84c-1.29,1.94-1.07,2.31.68,1.11l4.33,5.69a152.44,152.44,0,0,1,23.06-46.22l-7.77-4.54q-14.4,26.61-31.12,51.84l8.23,3.47c3.33-9.76,7-19.41,11.17-28.86,3.64-8.26,7-17.62,14.33-23.35l-7.07-5.45a318.46,318.46,0,0,1-32,50.58l7.68,3.18c-.87-10.07,5-20.28,9.72-28.84q3.44-6.18,7.48-12c1.77-2.56,7.35-12.59,11.16-12.35l-3.89-6.77q-8.37,16.08-16.79,32.14l-8.19,15.62c-2.1,4-4.49,11.92-8.89,13.78l6.15,1.62c-1.12-2.51.65-6.48,1.37-8.88.84-2.83,1.75-5.65,2.72-8.44a183.5,183.5,0,0,1,7.28-17.8c2.51-5.29,5.24-10.5,8.25-15.52,2.71-4.52,5.87-9.25,11.08-11L1384.8,753c2.24,5.61-5.65,13.1-8.72,17.31l-12.65,17.35-25.29,34.68,8.23,1.08c-2.39-5.87,2.65-14.8,4.86-20.3a184.53,184.53,0,0,1,9.61-20.18,195.38,195.38,0,0,1,11-17.76c4.13-5.91,8.45-11.68,15.09-14.86l-6.15-6.16-26.19,40.23-12.83,19.71c-4,6.2-7.68,13.64-13.43,18.43l7.68,3.18c-.74-8.27,4-15.78,7.54-22.94,3.33-6.7,6.79-13.34,10.62-19.78,7.69-12.92,17-25.06,29.2-34l-5.46-7.07-32,35.86c-10,11.2-19.48,23.43-31.25,32.82l7.52,4.38a121.89,121.89,0,0,1,19.15-34,124.21,124.21,0,0,1,13.1-13.94c5-4.54,10.71-9.92,17.32-11.83a12.8,12.8,0,0,1,2.75-.57c-1-.24-1.63.13-1.73,1.1-1,1.09-1.64,3.1-2.43,4.39-1.92,3.14-3.89,6.25-5.88,9.34q-6,9.28-12.29,18.33-13.12,18.75-27.75,36.37l4.38-1.16c1.52.42.77.83,1.28-1.23a44,44,0,0,1,1.72-4.83c1.06-2.84,2.2-5.65,3.44-8.42a164.6,164.6,0,0,1,9.07-17.43,160.22,160.22,0,0,1,10.72-15.77c3.35-4.33,7.8-11.75,13.38-13.16l-5.53-5.54c-4.75,13.65-11.58,26.37-19.26,38.58-3.8,6-7.8,12-11.86,17.83-3.27,4.72-7.22,13.28-13.11,15l5.53,5.54a161.46,161.46,0,0,1,24.3-65.7c3.66-5.68,8-14.32,15.37-15.33l-4.38-7.52a544.5,544.5,0,0,1-55.24,58.3l7.52,4.37c7.31-17.72,20.16-32.8,37.1-41.9l-5.45-7.07L1275,812.9l6.37,6.36c14.22-15.37,29.5-31.65,50.61-36.72l-5.09-6.61a20.36,20.36,0,0,1-5.23,5.71c-4.64,3.38-.15,11.19,4.54,7.77Z" transform="translate(-1147.03 -726.69)"/><path class="cls-1" d="M1373.11,810.77q-25.27,17-49.27,35.75c-4,3.12,1.25,10,5.45,7.07,14.87-10.28,29.84-20.49,46.45-27.78L1371.2,818l-60.74,43.36,5.46,7.07c15.69-16.38,34.45-29.06,53.23-41.6,4.78-3.19.56-10.63-4.55-7.77A599.83,599.83,0,0,0,1285.82,872l6.37,6.36c21.08-20.27,45.36-36.57,69.62-52.75,4.85-3.23.67-10.26-4.55-7.77-31.14,14.87-58.07,36.65-84.68,58.29l6.36,6.36a318.75,318.75,0,0,1,85.79-58.67l-4.54-7.77a419.94,419.94,0,0,0-101.1,68.35l6.36,6.36c27-29.61,62-49.66,96.56-69.26,4.3-2.44,1.4-10.11-3.47-8.22-40.6,15.74-74.07,43.88-106.8,71.84l6.37,6.36c23.76-27.86,54.39-48.1,84.78-68,4.81-3.15.46-10.77-4.55-7.77-37.13,22.25-72.47,48.79-97.14,84.91-2.86,4.2,3.69,9.29,7.07,5.46a797.53,797.53,0,0,1,76.09-75.51c4.2-3.64-1.17-8.89-5.45-7.06l-28.57,12.17c-5.31,2.27-.73,10,4.54,7.77l28.57-12.17L1318,824.2a796.15,796.15,0,0,0-76.08,75.5l7.07,5.45c23.76-34.8,58.15-60.25,93.91-81.68l-4.55-7.77c-31,20.25-62.37,41-86.6,69.37a4.5,4.5,0,0,0,6.37,6.36c31.45-26.87,63.78-54.38,102.82-69.52l-3.46-8.23c-35.15,20-70.84,40.51-98.38,70.67-3.92,4.28,2.07,10.27,6.36,6.36a412.26,412.26,0,0,1,99.28-66.94c5.23-2.52.66-10.21-4.54-7.77a326.16,326.16,0,0,0-87.61,60.08c-4.27,4.09,2,9.94,6.36,6.36,26-21.17,52.4-42.34,82.87-56.88l-4.55-7.77c-24.88,16.59-49.81,33.37-71.44,54.16-4.28,4.12,1.94,9.86,6.37,6.36a584.73,584.73,0,0,1,77-51.44l-4.55-7.77c-19.38,12.95-38.84,26.09-55,43-3.38,3.54,1.14,10.14,5.46,7.07l60.73-43.37c4.77-3.41.75-10.09-4.54-7.77-16.61,7.29-31.58,17.5-46.45,27.78l5.45,7.07q23.11-18,47.45-34.35c4.78-3.22.28-11-4.54-7.77Z" transform="translate(-1147.03 -726.69)"/><path class="cls-1" d="M1239.44,854a61.63,61.63,0,0,0,1.84-19.83,4.55,4.55,0,0,0-8.39-2.27c-8.29,12-10,27.19-12.44,41.16-2.84,16.16-5,32.47-4.21,48.9.23,4.76,8.1,6.48,8.84,1.2q2.89-20.76,5.15-41.59,1.11-10.37,2-20.75c.47-5.23,1.71-11.1-1.54-15.69-1.89-2.67-6-3.12-7.77,0A107.87,107.87,0,0,0,1210.4,918c1,5.48,8.24,3.34,8.84-1.2q4.35-33,6.14-66.23c.22-4-5-5.76-7.68-3.18-10.77,10.36-12.27,27.7-13.57,41.76a178.13,178.13,0,0,0,2.88,51.1c1,5.08,8.78,3.76,8.84-1.2a462.69,462.69,0,0,1,9.05-85.84c1-5.16-5.21-7.57-8.22-3.47-9.81,13.36-10.2,33-11.67,48.94-1.64,17.82-1.36,36,5,53,1.29,3.41,6.23,4.72,8.23,1.07,3.6-6.56,2.78-14.22,3-21.45q.42-13.11,1.7-26.18a395.16,395.16,0,0,1,9.07-53.38c1.38-5.75-6.59-7.68-8.68-2.39a189.27,189.27,0,0,0-8.13,112.1c1,4.27,7.7,4.31,8.67,0,1.88-8.33,1.12-16.61.65-25s-.71-16.83-.49-25.25c.46-17,3-33.73,9-49.65l-8.68-2.39a245.54,245.54,0,0,0-5,117.42c1,5,9,3.85,8.84-1.2a389.12,389.12,0,0,1,15.58-123.2c1.65-5.61-6.78-7.8-8.68-2.39-12.91,36.87-17.61,77.19-7.07,115.25,1.33,4.79,9.08,4,8.84-1.19a511.18,511.18,0,0,1,7.37-113.07c1-5.61-7.1-8.07-8.68-2.39a281.32,281.32,0,0,0-10,61,271.93,271.93,0,0,0,.13,30.35c.54,9.06.77,18.75,5.33,26.83,2.18,3.86,8.49,2.2,8.39-2.27-.79-34.45-1.46-69.41,8.43-102.79l-8.68-2.39a336.11,336.11,0,0,0-7.32,62.58q-.33,15.72.85,31.41c.54,7.07-.69,19.51,7.61,22.31,2.53.86,6-1.49,5.69-4.34-5.23-43.25-2.55-87.69,14.27-128.27l-8.68-2.4c-8.89,41.36-17.59,84.1-8.29,126.2,1.07,4.86,9.35,3.9,8.84-1.2A256.59,256.59,0,0,1,1265.3,854.8l-8.68-2.39a422.52,422.52,0,0,0-10.76,57.52c-2.14,18.44-4.93,38.75.54,56.82,1.46,4.8,8.85,4,8.84-1.19a344.92,344.92,0,0,1,20.14-116.68l-8.68-2.39a302.75,302.75,0,0,0-14.87,118.25,4.5,4.5,0,0,0,9,0c2.59-34.34,5.59-68.84,15.94-101.87l-8.68-2.39c-8.32,35.91-14.69,72.74-11.49,109.72.49,5.7,8.8,5.87,9,0a427.22,427.22,0,0,1,15.65-100.8l-8.68-2.4a956.39,956.39,0,0,0-11.94,99.52c-.39,5.82,8.5,5.72,9,0,2.6-30.17,6-60.3,13.72-89.67l-8.68-2.39a418.87,418.87,0,0,0-10.89,87c-.12,5.81,8.74,5.77,9,0,1-22.51,2.09-45.1,8.4-66.87l-8.84-1.2a713.17,713.17,0,0,1-7,74c-.84,5.67,7.83,8.11,8.68,2.4a737.35,737.35,0,0,0,7.33-76.37c.22-5.15-7.45-6-8.84-1.19-6.53,22.51-7.71,46-8.72,69.26h9a407.43,407.43,0,0,1,10.57-84.62c1.31-5.62-7.21-8-8.68-2.39-7.88,30.12-11.37,61.11-14,92.06h9a931.87,931.87,0,0,1,11.62-97.12c1-5.61-7.09-8.08-8.68-2.4a438,438,0,0,0-16,103.2h9c-3.14-36.24,3-72.14,11.17-107.33,1.31-5.65-6.94-7.93-8.68-2.39-10.58,33.76-13.61,69.15-16.26,104.26h9a295.75,295.75,0,0,1,14.55-115.86c1.85-5.53-6.75-7.8-8.68-2.39a352.59,352.59,0,0,0-20.46,119.07l8.84-1.2c-5.21-17.21-2.26-36.88-.22-54.43a404.93,404.93,0,0,1,10.44-55.13c1.47-5.66-6.78-7.81-8.68-2.39a262.9,262.9,0,0,0-13.45,113l8.83-1.2c-8.92-40.42-.24-81.71,8.3-121.4,1.25-5.81-6.5-7.64-8.68-2.4-17.08,41.22-19.91,86.75-14.59,130.67l5.7-4.33c-.23-.08-.71-10.12-.85-11.74q-.54-6.65-.81-13.31-.54-13.32,0-26.66a322.58,322.58,0,0,1,6.8-53.53c1.2-5.64-7-8-8.68-2.39-10.11,34.13-9.56,69.95-8.75,105.18l8.38-2.27c-4.26-7.57-3.92-17.6-4.31-26.08a272.71,272.71,0,0,1,.19-28.45,269.31,269.31,0,0,1,9.61-56.71l-8.68-2.39A521.84,521.84,0,0,0,1228,963.83l8.84-1.2c-10.13-36.59-5.33-75.06,7.07-110.47l-8.68-2.39a397.43,397.43,0,0,0-15.9,125.59l8.84-1.19a235.64,235.64,0,0,1,5-112.64c1.66-5.66-6.65-7.7-8.68-2.39-5.91,15.48-8.53,31.93-9.24,48.44-.36,8.41-.23,16.84.17,25.25.42,8.69,1.8,17.66-.13,26.24h8.67a181,181,0,0,1,8.14-107.31l-8.68-2.39a414.25,414.25,0,0,0-8.78,50q-1.41,12.55-2,25.18-.3,6.32-.42,12.63c-.06,3.76.24,7.67-1.63,11.08l8.22,1.07c-5.92-15.68-6.27-32.28-4.87-48.81.69-8.11,1.65-16.24,2.87-24.29,1.19-7.85,3-15.39,7.73-21.9l-8.23-3.47a476.57,476.57,0,0,0-9.37,88.24l8.84-1.19a169.8,169.8,0,0,1-2.87-44.94c.87-12.41,1.67-30,11.24-39.17l-7.68-3.18q-1.79,33.23-6.14,66.23l8.83-1.19a98,98,0,0,1,11.65-66H1223c2.51,3.55.33,11,0,15.09q-.87,9.39-1.88,18.77-2,18.65-4.62,37.23l8.84,1.19c-.79-15.65,1.18-31.12,3.89-46.51,2.32-13.16,3.73-27.75,11.53-39l-8.38-2.28a53.91,53.91,0,0,1-1.52,17.44c-1.44,5.61,7.24,8,8.68,2.39Z" transform="translate(-1147.03 -726.69)"/><path class="cls-1" d="M1218,943.28l-2.13-.06a4.55,4.55,0,0,0-4.33,3.3,56,56,0,0,0,2,32.53c1.63,4.35,7,4.16,8.68,0a45.07,45.07,0,0,0,3.11-22.47c-.64-5.24-2.41-13.12-9.09-13.38s-8.57,8.52-9.34,13.55c-1.07,7-.63,15.1,2.48,21.62,6.53,13.69,21.19-4.08,15.42-14.1-3.08-5.36-9.93-4.47-13.12.31-3.32,5-3.57,13.31.6,17.89,9.16,10.07,24.79-10.31,17.66-18.58-3.86-4.47-10.83-2.74-13.51,2.08s-2,11.7,2,15.65c8.91,8.89,26.74-5.85,19.79-15.85-3.25-4.68-9.73-5.37-14.32-2.41-4.88,3.16-7.78,10.13-7.41,15.83.39,6.23,5.63,10.32,11.72,9.87,6.44-.48,12-6,15.8-10.72,3.42-4.24,5.41-11.19-.41-14.52-5.37-3.09-11.87,2-14.75,6.38-3,4.63-4.19,11.14.76,14.85,5.16,3.86,11.73,1.3,16.58-1.82,4.45-2.87,11.31-8.17,11.54-14,.27-6.71-7.14-8-12-5.89-5.13,2.21-9.54,7.42-10,13.14-.5,6.26,4.17,10.61,10.35,10.1s11.82-4.82,15.54-9.48c3.18-4,5.46-10.37-1.12-12.37-10.34-3.15-25,9.57-19,20.26,7.32,13.09,24.68-4.45,28.47-11.89,2.83-5.56,0-12.1-6.75-11.84-5.73.23-10.75,5.12-12.86,10.15-2.31,5.51-1.63,12.2,4.65,14.45,5.93,2.12,12.18-1.34,16.06-5.74,3.41-3.87,7.38-10.58,1.15-13.92-4.75-2.55-10.91.34-13.58,4.62-7.38,11.79,12.84,20.09,17.41,6.8,2.09-6.08-1.32-11.5-6.08-15s-9.15,4.36-4.55,7.78c1.08.79,2.28,2.14,2.18,3.57a1.78,1.78,0,0,1-.78,1.84l.53-1.16c-1.79-2.3-1-2.62-3.15-.3a10.51,10.51,0,0,1-3.06,2.5c-.48.23-2.67,1.15-3.16.61s.69-2.63.9-3c.56-1.11,1.65-1.82,2.21-2.83l1.27-.84c-.6-1-1.06-1.09-1.41-.15-1.64.73-3.5,4.24-5,5.62-.75.71-5.3,5.12-6.42,4.27-1.4-1.07,1.72-4.59,2.52-5.24a20.45,20.45,0,0,1,5.16-2.18l-1.31-3.18c.47-1.06.3-.85-.53.62l-1.07,1.42a19.93,19.93,0,0,1-4,3.62c-1,.66-2.88,2.17-4.13,2-2.18-.32-.9-2.41.22-3.74a35.83,35.83,0,0,1,3.54-2.44L1248,969.7a28.29,28.29,0,0,1-2,2.23,23.84,23.84,0,0,1-7.59,5.37c-5.74,2.3-1.79-1.35-.68-3.75q2.43-.94.16-1.9l-1.24,1.56c-1.45,1-2.6,2.81-4,4-2.41,2.08-8.12,5.16-7-.79a10.48,10.48,0,0,1,1.85-4.27c.85-1.08,3-3,2.41-.3-.19.9-3.22,3.8-4.16,3.74-2-.12-1.64-2.18-1.94-3.39q1.29-2.15-1.22-3l-.46,1.46a25.76,25.76,0,0,0-2.81,4.46c-1.37.73-1.53,1.14-.48,1.22a5.78,5.78,0,0,1-.61-3,6.12,6.12,0,0,1,.43-2.73c-1.23-1.11-1.8-1-1.7.24a5.53,5.53,0,0,1-.88,2.58c-1.68,1.3-1.61,1.8.21,1.48q2.52.69.73-1.63c-.36-1.1-.67-2.21-.92-3.34a32.54,32.54,0,0,1-.51-10.87c.23-1.78,1.13-3.8,1.25-5.58q1.65-2.34-.57-1.51c-1.41-.19-1.61.33-.58,1.54-.16,1.71.77,3.86.9,5.67a36.24,36.24,0,0,1,0,5.21,39.23,39.23,0,0,1-3.06,12.27h8.68a47.39,47.39,0,0,1-2-27.74l-4.34,3.3,2.13.06c5.8.17,5.79-8.83,0-9Z" transform="translate(-1147.03 -726.69)"/><path class="cls-2" d="M1403.63,749.55c-.57-11.41-16.51-14.59-25.54-15.7-12.15-1.5-23.85,1.15-34.85,6.3-12,5.61-23,13.55-33.79,21.14-11.54,8.09-22.91,16.41-34.34,24.64l-33.74,24.33c-10.09,7.28-21.72,14.07-30.09,23.42-7.77,8.68-10.79,19.37-12.12,30.72-1.58,13.6-2,27.43-2.34,41.1q-.67,23.71.12,47.42c.42,12.77-.67,28.16,7,39.17,3.29,4.72,11.09.22,7.77-4.55-6.21-8.92-5.26-21.26-5.65-31.65q-.68-18.27-.49-36.56t1.23-36.53c.65-11.28.59-23.68,5.29-34.18,4.51-10.07,14-16.25,22.6-22.48l28.92-20.85c20.2-14.56,40.17-29.54,60.84-43.42,10.27-6.89,20.91-14.12,32.92-17.55a50.26,50.26,0,0,1,19-1.68,49.44,49.44,0,0,1,9.24,1.93c1.9.58,8.93,2.31,9.06,5,.29,5.76,9.29,5.79,9,0Z" transform="translate(-1147.03 -726.69)"/><path class="cls-2" d="M1393.54,750.81c9.24,16.13,3.09,37.06-4.73,52.55-8.11,16.06-21.87,27.55-36.92,36.89-16,9.89-33.2,17.6-48.61,28.37-6.69,4.68-13.51,10-17.08,17.58-4,8.4-4.39,18.53-5.77,27.6q-5.37,35.13-10.72,70.27c-.87,5.66,7.8,8.11,8.68,2.39q4.9-32.21,9.82-64.41c1.5-9.81,1.79-21,5.38-30.3,3.43-8.88,12.57-14.47,20.24-19.35,31.21-19.89,69-32.81,85-69.16,7.78-17.71,12.72-39.19,2.53-57-2.87-5-10.65-.49-7.77,4.55Z" transform="translate(-1147.03 -726.69)"/><path class="cls-3" d="M1209.44,992.74q-18.37,8.7-36.36,18.2c-7.49,4-24.09,9.43-22.43,20.52,1.42,9.48,13,10,20.43,9.9a251.52,251.52,0,0,0,34.14-2.48,147.22,147.22,0,0,0,34-8.91c10-4,21-9.15,28.23-17.32,4.52-5.09,11.38-19.32,2-23.51-4.6-2-11.51-.12-16.31.29l-21.51,1.8c-6.74.56-13.71.83-20.12,3.17-6,2.18-11.35,5.7-16.79,8.91-13,7.69-25.92,15.5-38.41,24-2.5,1.7-3.34,6.29,0,7.77,9.09,4,17.56-.53,26.42-3.07,10.48-3,21.24-4.87,31.86-7.27,18-4.08,36.06-10.21,49.5-23.45a4.54,4.54,0,0,0-.91-7.06c-5.31-3.33-11.37-1.28-17,.2q-10,2.63-19.77,6.08a263.6,263.6,0,0,0-38,17c-4.43,2.4-1.43,9.82,3.47,8.22a312.59,312.59,0,0,0,45.45-18.88c3.29-1.67,2.74-7.56-1.07-8.22-22.22-3.86-44.83,8.74-62.21,21.39a4.5,4.5,0,0,0,4.54,7.77l52.33-23.28c4.69-2.08,1.35-9.66-3.47-8.22a245.64,245.64,0,0,0-60.23,27.19c-3,1.87-3,7.56,1.08,8.22,14.52,2.39,29.15-4.54,42.5-9.48,14.5-5.35,28.79-11.27,42.88-17.64,4.74-2.14,1.33-9.49-3.47-8.22a146.14,146.14,0,0,0-57.83,30.35c-3.54,3,.27,8.61,4.38,7.52,25-6.64,48.37-17.67,71.61-28.72,4.56-2.17,1.34-10-3.47-8.23-13.71,4.94-28.23,11.3-33.51,26-1.41,3.91,3.39,6.8,6.61,5.08a156.06,156.06,0,0,0,32.43-23.09c4.3-4-2-10.12-6.36-6.37-25,21.61-59.09,27.35-91.09,28.66-4.8.19-6.44,8-1.2,8.84,21.69,3.65,41.31-6.5,59.58-17,5-2.88.5-10.66-4.54-7.77-15.8,9-33.72,19.24-52.64,16.05l-1.2,8.84c34.58-1.41,70.52-8,97.45-31.29l-6.36-6.37a146.68,146.68,0,0,1-30.62,21.69l6.61,5.08c4-11.22,17-16,27.23-19.7l-3.46-8.22c-22.56,10.73-45.23,21.37-69.46,27.81l4.38,7.52a136.08,136.08,0,0,1,53.86-28l-3.47-8.22q-19.21,8.68-39,16.08c-6.47,2.41-13,4.74-19.53,6.92s-13.11,4.34-19.95,3.22l1.08,8.22a236.09,236.09,0,0,1,58.08-26.28l-3.47-8.23L1174,1020l4.54,7.77c15-11,35.83-23.86,55.28-20.48l-1.08-8.23a297.18,297.18,0,0,1-43.31,18l3.47,8.23a249.33,249.33,0,0,1,32.46-14.83q8-3,16.23-5.37c2.87-.85,5.77-1.65,8.67-2.39,2.5-.64,5.9-2.15,8.3-.65l-.91-7.07c-11.87,11.69-27.82,17-43.71,20.71-8.8,2.05-17.69,3.66-26.47,5.8-4.22,1-8.42,2.17-12.56,3.53s-9.72,4.3-14.14,2.34v7.77c8.58-5.84,17.37-11.37,26.26-16.74,8.35-5.05,16.75-11,25.73-14.8,9.27-4,20.61-3.47,30.52-4.3l15.65-1.31c1.68-.14,4.94-1,6.45-.51.9.3-.2-.46-.58.77a28,28,0,0,1-1,4c-3.73,8-13.7,12.83-21.23,16.48a123.31,123.31,0,0,1-25.69,8.85,180.41,180.41,0,0,1-28,4.12c-8,.59-17.74,2-25.66.34-1.74-.38-3.73-.73-3.32-2.58s4.29-3.43,5.82-4.28q7.62-4.22,15.35-8.25,16.29-8.53,32.93-16.39c5.24-2.47.68-10.23-4.54-7.77Z" transform="translate(-1147.03 -726.69)"/><path class="cls-4" d="M1205,990.05c-15.58,8.92-31.27,17.65-46.83,26.6-5.42,3.12-11.63,7.11-11.09,14.24.52,6.78,7,10.84,12.72,13.12,14.86,6,32.06,2.55,47.14-.78,16.39-3.63,33.13-8.74,48.14-16.38,13.64-6.94,26.86-21.77,20.18-38.06-2.17-5.28-10.88-3-8.68,2.39,7,17.13-13.39,27.29-26.1,32.33a229.73,229.73,0,0,1-48.7,13.5c-7.86,1.24-16.17,2-24,.11-3.25-.77-8-1.93-10.26-4.63-3.44-4.1,2-6.26,5.18-8.07,15.57-9,31.26-17.68,46.84-26.6,5-2.88.49-10.65-4.55-7.77Z" transform="translate(-1147.03 -726.69)"/><path class="cls-2" d="M1268.92,982.84c-2.87,2.95-7.64,3.21-11.5,3.83-5.53.88-11.1,1.5-16.68,1.91-3.35.24-30.24,2.54-30.66-1.46-.59-5.7-9.6-5.76-9,0,.64,6.16,4.93,9.58,10.91,10.42,7.54,1,15.5.7,23.08.37a219.14,219.14,0,0,0,22.87-2.27c6.24-.95,12.74-1.69,17.34-6.44,4-4.16-2.32-10.53-6.36-6.36Z" transform="translate(-1147.03 -726.69)"/></svg>