<svg id="sleeve" xmlns="http://www.w3.org/2000/svg" viewBox="0 0 76.35 96.49"><defs><style>.cls-1,.cls-2{fill:#7194ff;}.cls-1{stroke:#111433;stroke-miterlimit:10;stroke-width:10px;}</style></defs><title>sleeve</title><rect class="cls-1" x="18.47" y="5.99" width="52.87" height="63.42" rx="12"/><path class="cls-2" d="M1420.36,641.79c-1.52-6.72-2.31-13.95-7-19.34-1.84-2.13-4.2-3.86-5.55-6.38-1.52-2.83-2-5.44-4.44-7.79-4.18-4.06-10.38,1.05-7.85,6.06a77.73,77.73,0,0,0,21,25.85c4,3.22,11.37-1,7.85-6.06-7.17-10.38-14.89-20.36-22.61-30.34l-6.06,7.85a140,140,0,0,1,19.45,12.79c5,3.92,12.08-2.95,7.07-7.07l-18.18-15c-4.9-4-12,2.78-7.08,7.07a72.8,72.8,0,0,0,17,11.23,5,5,0,0,0,5-8.63l-16.47-11.49c-4.6-3.22-10.55,4.35-6,7.85a44.63,44.63,0,0,0,25.81,9.74c6.43.32,6.41-9.68,0-10a33,33,0,0,1-18.74-6.81l-6.06,7.85,16.47,11.49,5-8.63a64,64,0,0,1-14.93-9.67l-7.08,7.07,18.19,14.95,7.07-7.07A154.4,154.4,0,0,0,1400.74,603c-5.3-2.92-9.39,3.55-6.06,7.85,7.2,9.3,14.36,18.64,21,28.32l7.86-6.06a71,71,0,0,1-19.41-23.83l-7.85,6.06c1.7,1.65,2,4.34,3.23,6.36a31.41,31.41,0,0,0,4.83,5.78c4.47,4.6,5,10.91,6.34,17,1.41,6.27,11.06,3.62,9.64-2.66Z" transform="translate(-1385.3 -593.27)"/><path class="cls-2" d="M1410,623.4a35.38,35.38,0,0,0,14.81,10.36c2.52,1,5.49-1.08,6.15-3.5.78-2.82-1-5.17-3.49-6.15a25.48,25.48,0,0,1-10.4-7.78c-1.72-2.08-5.29-1.78-7.07,0-2.06,2.06-1.73,5,0,7.07Z" transform="translate(-1385.3 -593.27)"/><path class="cls-2" d="M1401.54,605.09l-.53-2.16-3.49,6.15a33.7,33.7,0,0,1,22.68,3.84c5.63,3.13,10.68-5.5,5-8.63a44.72,44.72,0,0,0-30.39-4.85c-2.71.5-4.08,3.71-3.49,6.15l.53,2.16c1.52,6.25,11.17,3.61,9.64-2.66Z" transform="translate(-1385.3 -593.27)"/><path class="cls-2" d="M1400.69,604.78s7.25,3.24,8,3.43c3.5.87,7.12.56,10.68.51,8.46-.11,16.43,2.6,24.35,5.29,6.11,2.08,8.73-7.58,2.66-9.64a117.84,117.84,0,0,0-15.8-4.58c-5.52-1.06-10.81-.76-16.36-1-4.68-.17-8-3.54-12.56-4a9.45,9.45,0,0,0-9.62,4.88c-3,5.71,5.66,10.77,8.63,5Z" transform="translate(-1385.3 -593.27)"/><path class="cls-2" d="M1392.2,603l45.47,8.45c6.29,1.17,9-8.46,2.65-9.64l-45.46-8.46c-6.29-1.17-9,8.47-2.66,9.65Z" transform="translate(-1385.3 -593.27)"/><path class="cls-2" d="M1417.78,607.58l13.44,2.58c1.71.33,9.38.77,9.77,2.82,1.2,6.31,10.84,3.64,9.64-2.66-.94-5-5.36-7.34-9.88-8.46-6.67-1.65-13.57-2.63-20.31-3.93-6.29-1.2-9,8.43-2.66,9.65Z" transform="translate(-1385.3 -593.27)"/><path class="cls-2" d="M1404.45,620.12q5.92,13.23,12.2,26.28c2.79,5.79,11.42.73,8.64-5q-6.29-13.05-12.2-26.28c-2.62-5.86-11.24-.78-8.64,5Z" transform="translate(-1385.3 -593.27)"/><path class="cls-2" d="M1395.31,655.09l.73-13.58c.35-6.43-9.65-6.41-10,0l-.73,13.58c-.35,6.43,9.66,6.41,10,0Z" transform="translate(-1385.3 -593.27)"/><path class="cls-2" d="M1388.43,607.61q-.12,32.64-2.26,65.21c-.42,6.43,9.58,6.4,10,0q2.14-32.57,2.26-65.21c0-6.44-10-6.45-10,0Z" transform="translate(-1385.3 -593.27)"/><path class="cls-2" d="M1390.5,608.13a374,374,0,0,1-4.14,75.35c-1,6.3,8.64,9,9.65,2.66a387.29,387.29,0,0,0,4.49-78c-.29-6.41-10.29-6.45-10,0Z" transform="translate(-1385.3 -593.27)"/><path class="cls-2" d="M1420.44,645.81l-9.16-27.9c-2-6.09-11.66-3.48-9.64,2.65l9.16,27.91c2,6.09,11.66,3.48,9.64-2.66Z" transform="translate(-1385.3 -593.27)"/></svg>