<svg id="torso" xmlns="http://www.w3.org/2000/svg" viewBox="0 0 256.04 244.17"><defs><style>.cls-1,.cls-3{fill:#7194ff;}.cls-1{stroke:#111433;}.cls-1,.cls-2{stroke-miterlimit:10;stroke-width:10px;}.cls-2{fill:#c6947d;stroke:#2d2721;}.cls-4{fill:#111433;}</style></defs><title>torso</title><path class="cls-1" d="M1443.93,595.51l-79.52-11.14h-70.83s-83.69,29.32-83.69,35.92V649.1a12,12,0,0,0,12,12h26.32l4.25,18.46,3,45.29-24.8,29.39a12,12,0,0,0,12,12l157.53-3c6.6,0,10-7.39,10-14L1425.06,711V667.16l-.5-5h19.37a12,12,0,0,0,12-12V607.51A12,12,0,0,0,1443.93,595.51Z" transform="translate(-1204.89 -527.07)"/><rect class="cls-2" x="96.63" y="5" width="54.78" height="67.54" rx="12"/><path class="cls-3" d="M1403.11,629a216.84,216.84,0,0,0,1.62,31.61,2.15,2.15,0,0,0,.4,1.19,2.11,2.11,0,0,0,1.49.52,60.4,60.4,0,0,0,15.88-.84c1.59-.3,25.46-1.52,26.8-.62" transform="translate(-1204.89 -527.07)"/><path class="cls-4" d="M1398.11,629c-.1,5.61,0,11.22.28,16.82.3,5.22.27,11,1.51,16.11,2.11,8.55,15.89,5.65,22.17,4.67.67-.1,2.69-.36.89-.18l.83-.07c.86-.07,1.72-.12,2.58-.17q4-.24,8-.4c2.88-.11,5.75-.21,8.63-.23,1.18,0,2.42.1,3.59,0s1.89.35.15-.39c5.85,2.5,11-6.11,5-8.64-5.61-2.4-13.58-.93-19.49-.67-3,.13-6,.22-9,.52-2,.2-4.07.63-6.11.84s-7.86,1.26-9.58.25l2.3,3c-1.59-4.74-1.36-10.68-1.61-15.64-.27-5.27-.32-10.55-.23-15.83.12-6.44-9.88-6.44-10,0Z" transform="translate(-1204.89 -527.07)"/><path class="cls-3" d="M1244.36,637.66l5.23,30.43" transform="translate(-1204.89 -527.07)"/><path class="cls-4" d="M1239.54,639l5.23,30.43c1.09,6.33,10.73,3.64,9.64-2.66l-5.22-30.43c-1.09-6.33-10.73-3.65-9.65,2.66Z" transform="translate(-1204.89 -527.07)"/><path class="cls-3" d="M1267.56,665.2a151.92,151.92,0,0,1-18.29-49c-1.19-6.32-10.83-3.64-9.64,2.66a159.52,159.52,0,0,0,19.3,51.35c3.25,5.55,11.9.53,8.63-5Z" transform="translate(-1204.89 -527.07)"/></svg>