<svg id="Laag_47" data-name="Laag 47" xmlns="http://www.w3.org/2000/svg" viewBox="0 0 90.15 78.67"><defs><style>.cls-1{fill:#ad9936;}.cls-2{fill:#494019;}.cls-3{fill:#7c6d2e;}.cls-4{fill:#332d13;}.cls-5{fill:#d1bb5e;}</style></defs><title>banana</title><path class="cls-1" d="M899.58,178.39c1.61,6.19,3.27,15-3,19.33-2.38,1.61-5.48,2-8,3.41a18.17,18.17,0,0,0-5.48,4.85c-7.55,9.52-11.43,21.83-13.34,33.65-.91,5.59,7.09,8.1,8.68,2.39a42.52,42.52,0,0,1,4.8-11.57c1.15-1.81,2.67-3.42,3.66-5.31.9-1.71,1-3.79,2-5.43,2.59-4.28,7.69-8.46,11.52-11.58.37-.31,2.61-1.56,2.67-1.9s-1.39-.75-1.4.08c0,1.2,3.06,4.8,3.79,5.93,2.41,3.7,7.38,7.38,10.58,2.06h-7.77c1.39,3,2,6.14,3.13,9.2a30.51,30.51,0,0,0,5,8.27,74.82,74.82,0,0,1,5,7.88c1.86,3,4.9,3.34,6.88,5l5.45-7.07c-5.53-3.91-9-11.18-11.41-17.29-2.56-6.42-4.62-13.37-4.84-20.32l-5.7,4.34c6.62,1.23,13.28-.85,19.82.42,5.64,1.09,12.7,2.8,17.29,6.42s10.87-2.62,6.37-6.37c-7.4-6.16-15.52-10.46-25.27-8.66-5,.91-10.29,2.61-13.15-2.77-2.28-4.29-2.7-9.52-4.42-14.05-2-5.36-10.74-3-8.68,2.4,3.29,8.66,3.8,21.08,14.61,24,5.32,1.43,10.25-.65,15.48-1.15,5.49-.52,11,3.25,15.06,6.62l6.37-6.37c-5.48-4.31-12.21-6.46-18.89-8.15a35.64,35.64,0,0,0-9.91-1.25c-4.06.12-8.24,1-12.28.26-2.76-.52-5.8,1.2-5.7,4.33.28,8.63,2.78,17.15,6.13,25.06,3.28,7.73,7.6,15.39,14.58,20.32,4.13,2.92,9.41-3.82,5.45-7.06-1.79-1.47-4.69-2.53-6-4.08-.76-.92-1.11-2.37-1.78-3.4a54.26,54.26,0,0,0-3.34-4.37c-4-5.06-4.88-10.88-7.56-16.64-1.48-3.18-6.16-2.68-7.77,0,.44-.74,5.51-.2,5.61-1.07.05-.37-.91-1.42-1.1-1.73-.67-1.08-1.28-2.18-2-3.24-1.29-2-2.8-4.4-5-5.61-5-2.79-10,1.94-13.44,5.06-3.93,3.53-8.61,7.57-11.32,12.17-1.07,1.82-1.43,3.91-2.4,5.76-1.11,2.15-2.83,4-4.05,6.1a52.92,52.92,0,0,0-4.93,12.43l8.68,2.39a76.94,76.94,0,0,1,5.53-19.8c3-6.52,5.91-12.11,12.78-14.76,13.61-5.25,14.81-18.84,11.52-31.46-1.46-5.6-10.14-3.23-8.68,2.39Z" transform="translate(-868.81 -170.57)"/><path class="cls-2" d="M898.3,176.87l1.33,4.65a4.5,4.5,0,0,0,4.94,3.22c2.36-.31,3.65-2.16,3.9-4.42-.12,1.07.12-.56.16-.76a15.92,15.92,0,0,1,.47-1.53l-8.23,1.07a6.58,6.58,0,0,1,.4.67c.23.46.23.46,0,0,.07.25.29,1.77.2.69.19,2.34,1.94,4.62,4.5,4.5a4.56,4.56,0,0,0,4.5-4.5,38.08,38.08,0,0,1,.28-4.89l-8.39,2.27,2.06,4.86c.74,1.74,3.38,2.62,5.09,2.07a4.65,4.65,0,0,0,3.3-4.34l.1-3.68h-9l0,3.05a4.5,4.5,0,1,0,9,0l0-3.05a4.5,4.5,0,1,0-9,0l-.1,3.68,8.39-2.27-2.06-4.86c-.74-1.74-3.38-2.62-5.09-2.07a4.78,4.78,0,0,0-3.3,4.34,38.08,38.08,0,0,0-.28,4.89h9a12.38,12.38,0,0,0-1.83-5.88,4.56,4.56,0,0,0-8.22,1.08,20.15,20.15,0,0,0-.95,4.68l8.84-1.19L907,174.48a4.5,4.5,0,0,0-8.68,2.39Z" transform="translate(-868.81 -170.57)"/><path class="cls-3" d="M899.6,183.27a13.34,13.34,0,0,1-1.07,9c-1.48,3.14-4,4.72-7,6.17a28,28,0,0,0-8.22,5.38,40.88,40.88,0,0,0-6.15,8.39,62.84,62.84,0,0,0-7.4,19.72c-1.08,5.58-2.09,12.37,2.24,16.86a1.53,1.53,0,0,0,2.36-.3,106,106,0,0,0,12.79-22.88c3-7.06,7.89-16,16.6-16.2,1.93,0,1.93-3,0-3-9.4.22-15.22,8.71-18.68,16.5-3.67,8.25-7.71,16.76-13.3,24.06l2.36-.3c-4.54-4.7-1.74-14-.17-19.41a54.6,54.6,0,0,1,9.81-19.48,23.3,23.3,0,0,1,8.14-6.22c2.63-1.25,5.38-2.46,7.29-4.74a16.56,16.56,0,0,0,3.31-14.36,1.5,1.5,0,0,0-2.89.8Z" transform="translate(-868.81 -170.57)"/><path class="cls-3" d="M902.43,208.68c1.71,3.61,3.74,7.08,5.62,10.6s3.49,6.9,5.59,10.16c5,7.81,11.36,17.54,21.12,19.57a1.52,1.52,0,0,0,1.9-1.44c.36-4.28.05-7.91-2.73-11.35-2.51-3.11-5-5.68-6.7-9.34-3.32-7-5-14.6-7.29-21.95-.56-1.83-3.46-1.05-2.89.8,2.15,7,3.85,14.06,6.74,20.76a32.22,32.22,0,0,0,5.06,8.55c1.46,1.7,3.29,3.23,4.24,5.31,1,2.26.77,4.82.57,7.22l1.9-1.45c-9.37-2-15.6-12.06-20.31-19.74-1.84-3-3.33-6.23-5-9.33-1.76-3.28-3.65-6.52-5.24-9.88-.82-1.75-3.41-.23-2.59,1.51Z" transform="translate(-868.81 -170.57)"/><path class="cls-3" d="M918.5,206.83c5,.5,9.77-.24,14.71-.41a18.48,18.48,0,0,1,9.07,1.86c2.88,1.28,5.72,2.66,8.66,3.81,2,.8,4.66,1.91,6.89,1.24a1.53,1.53,0,0,0,1.1-1.44c.27-3.8-2.63-7.21-5.18-9.69a27.39,27.39,0,0,0-10.83-7,25.32,25.32,0,0,0-8.08-.94c-2.92.1-5.8.88-8.72.89-3.62,0-6.2-1.76-8-4.79-1.48-2.43-3.58-4.7-4.43-7.44-.57-1.84-3.47-1-2.89.8.77,2.46,2.31,4.37,3.71,6.5s2.48,4.12,4.5,5.68c4.54,3.53,9.81,1.72,15,1.41a20.88,20.88,0,0,1,14.55,4.28c3,2.25,7.71,6.11,7.41,10.27l1.11-1.45c-2,.61-5.22-1.18-7-1.94-2.85-1.22-5.64-2.6-8.5-3.78-7.26-3-15.43-.12-23-.89-1.92-.19-1.91,2.81,0,3Z" transform="translate(-868.81 -170.57)"/><path class="cls-3" d="M886.67,210.9c-2.33-1.7-5.51.9-4.81,3.52a3.81,3.81,0,0,0,6.53,1.4,3.18,3.18,0,0,0,.13-3.92,2.87,2.87,0,0,0-3.76-.94,3,3,0,0,0-1.34,3.35c.6,1.86,2.66,1.64,3.83.42,1.34-1.39-.78-3.51-2.12-2.12-.1,0-.12.09-.07.12l1.3.75c-.31-.41,0,.06-.08.08s-.21,0-.21,0,.08.21.06.27-.4.3-.56.31-.89-.25-.82-.62a1.53,1.53,0,0,1,.15-.13c.17-.14.13,0,.26.06a1.51,1.51,0,0,0,2.05-.54,1.53,1.53,0,0,0-.54-2Z" transform="translate(-868.81 -170.57)"/><path class="cls-3" d="M889.61,209.2a1.5,1.5,0,0,0,0-3,1.5,1.5,0,0,0,0,3Z" transform="translate(-868.81 -170.57)"/><path class="cls-3" d="M911.85,192.88a4.49,4.49,0,0,0,4.43,7.38,1.51,1.51,0,0,0,0-2.89c-1.39-.25-1.24-2.07-1.22-3.15l-2.95.4a6.57,6.57,0,0,0,4.14,4.82c1.45.59,2.43-1.52,1.46-2.51l-.45-.45c-1.36-1.38-3.48.74-2.12,2.12l.45.45,1.46-2.5a3.58,3.58,0,0,1-2-2.73c-.32-1.7-2.92-1.25-2.94.4,0,2.44.55,5.52,3.42,6v-2.89A1.52,1.52,0,0,1,914,195a1.54,1.54,0,0,0,0-2.12,1.51,1.51,0,0,0-2.12,0Z" transform="translate(-868.81 -170.57)"/><path class="cls-3" d="M910.58,189.51a1.71,1.71,0,1,0-1,2.44,1.5,1.5,0,1,0-.8-2.89l-.1,0h.8l-.09,0,.66.39.11.15.2.76v-.1l-.21.75.05-.07-.54.54.08,0-.76.21-.52-.15-.54-.54,0,.07a1.5,1.5,0,1,0,2.59-1.51Z" transform="translate(-868.81 -170.57)"/><path class="cls-3" d="M922.52,229.16a3,3,0,1,0,2.8,4.87,2.77,2.77,0,0,0-1.41-4.56,2.52,2.52,0,0,0-2.75,3.77,2.34,2.34,0,0,0,3,1,2.44,2.44,0,0,0,1.41-2.9,1.54,1.54,0,0,0-1.85-1.05,1.53,1.53,0,0,0-1.05,1.85.56.56,0,0,1,.7-.66.65.65,0,0,1,.44.33c-.08-.15-.08-.14,0,0s0,.22,0,0a.46.46,0,0,1-.08.3.55.55,0,0,1-.47.26c.27,0-.15-.11.11,0a.49.49,0,0,1-.32-.35c0,.18.05.18,0,0h0c.08-.14.07-.13,0,0,.1-.12.09-.11,0,0a.34.34,0,0,1,.2-.13c-.17,0-.16,0,0,0q-.22,0-.06,0c.11,0,.09,0-.06,0,.16.08.16.07,0,0h0c.09.14.1.14,0,0a.39.39,0,0,1,.06.26c0-.18,0-.17,0,0,.05-.16,0-.17,0,0l.13-.23c-.1.13-.09.14,0,0-.13.11-.13.11,0,0-.16.08-.16.09,0,0a1.52,1.52,0,0,0,1-1.84,1.53,1.53,0,0,0-1.85-1.05Z" transform="translate(-868.81 -170.57)"/><path class="cls-3" d="M918.7,228a1.5,1.5,0,0,0,0-3,1.5,1.5,0,0,0,0,3Z" transform="translate(-868.81 -170.57)"/><path class="cls-3" d="M941.78,203.2H942a1.5,1.5,0,0,0,0-3h-.26a1.5,1.5,0,0,0,0,3Z" transform="translate(-868.81 -170.57)"/><path class="cls-3" d="M873.82,235l-.12.5a1.5,1.5,0,0,0,2.9.79l.11-.49a1.5,1.5,0,1,0-2.89-.8Z" transform="translate(-868.81 -170.57)"/><path class="cls-3" d="M900.57,182.85a1.5,1.5,0,0,0,0-3,1.5,1.5,0,0,0,0,3Z" transform="translate(-868.81 -170.57)"/><path class="cls-4" d="M902.49,182.47l-1.22-5.59c-.14-.66-.73-2-.21-2.64s3.2-.52,3.78-.56c2.42-.16,5-.57,5.44,2.53a32.75,32.75,0,0,1-.07,5.94c-.08,1.93,2.92,1.92,3,0,.11-2.74,1-7.22-.79-9.6s-5.53-2.05-8-1.84c-2.06.17-5.57.17-6.41,2.54a6.59,6.59,0,0,0,.21,3.49c.46,2.18,1,4.36,1.43,6.53.41,1.89,3.3,1.09,2.89-.8Z" transform="translate(-868.81 -170.57)"/><path class="cls-1" d="M907.73,193.5a5.71,5.71,0,0,0-2.56,9.51,4.53,4.53,0,0,0,4.38,1.15,4.45,4.45,0,0,0,3.14-3.14l.25-1.28a4.81,4.81,0,0,0-.45-3.47,4.65,4.65,0,0,0-2.69-2.07,4.58,4.58,0,0,0-3.47.46,4.4,4.4,0,0,0-2.06,2.68l-.26,1.29,7.52-2a1.07,1.07,0,0,1-.14-.16l.7.91a1.14,1.14,0,0,1-.1-.19l.46,1.08a1.87,1.87,0,0,1-.08-.32l.16,1.2c0-.11,0-.21,0-.33l-.16,1.2a2,2,0,0,1,.1-.32l-.46,1.08a1.69,1.69,0,0,1,.17-.29l-.71.91a1.61,1.61,0,0,1,.23-.22l-.91.7a.69.69,0,0,1,.19-.1l-1.08.45a.83.83,0,0,1,.21-.06,4.5,4.5,0,0,0-2.39-8.68Z" transform="translate(-868.81 -170.57)"/><path class="cls-5" d="M914.54,195c5.23,6.76,13.07,5.13,20.49,4.32,1.9-.21,1.92-3.21,0-3-6.58.72-13.68,2.62-18.37-3.44-1.18-1.52-3.28.61-2.12,2.12Z" transform="translate(-868.81 -170.57)"/><path class="cls-5" d="M939.7,199.8a1.5,1.5,0,0,0,0-3,1.5,1.5,0,0,0,0,3Z" transform="translate(-868.81 -170.57)"/><path class="cls-5" d="M914.48,209.15l3.08,8.11c.68,1.78,3.58,1,2.89-.8l-3.08-8.11c-.68-1.79-3.58-1-2.89.8Z" transform="translate(-868.81 -170.57)"/><path class="cls-5" d="M920.39,222a1.5,1.5,0,0,0,0-3,1.5,1.5,0,0,0,0,3Z" transform="translate(-868.81 -170.57)"/><path class="cls-5" d="M883.65,217.65a89.73,89.73,0,0,0-5.62,12.1c-.69,1.8,2.21,2.58,2.89.79a84.61,84.61,0,0,1,5.32-11.37,1.5,1.5,0,0,0-2.59-1.52Z" transform="translate(-868.81 -170.57)"/><path class="cls-5" d="M877.61,235.8a1.5,1.5,0,0,0,0-3,1.5,1.5,0,0,0,0,3Z" transform="translate(-868.81 -170.57)"/></svg>