<svg id="stars2" xmlns="http://www.w3.org/2000/svg" viewBox="0 0 889.69 654.38"><defs><style>.cls-1{fill:#ffffd7;}.cls-2{fill:none;stroke:#ffffd7;stroke-miterlimit:10;}</style></defs><title>bigstars</title><path class="cls-1" d="M649.82,694.51a20.65,20.65,0,0,1-4.29,1,3.64,3.64,0,0,1-2.75-.63,1.13,1.13,0,0,0-.89.07c-1.7,1.1-3.51,2.54-5.64,4.19-.35.26-.11.62.28.55a26.64,26.64,0,0,1,4.89-.19,1.67,1.67,0,0,0,1.07-.26,10.84,10.84,0,0,0,1.36-1.35,11.74,11.74,0,0,1,2.52-1.88,25.14,25.14,0,0,1,3.34-1.43c.57-.23.82-.33.23-.13a26.88,26.88,0,0,0-3.79,1.44,14.74,14.74,0,0,0-3,2.09,5.52,5.52,0,0,1-1.06.9l-.44-.06a8.37,8.37,0,0,1-1.65-.08,22.94,22.94,0,0,0-3.38.24c.09.18.18.36.28.54a59.42,59.42,0,0,1,5.85-4.46l-.88.1a2.74,2.74,0,0,0,1.36.64,5.72,5.72,0,0,0,1.87.06,21.23,21.23,0,0,0,4.74-1.35C650.41,694.33,650.41,694.32,649.82,694.51Z" transform="translate(-117.33 -85.57)"/><path class="cls-1" d="M643.1,695.67a4.41,4.41,0,0,0-1.77,0c-.38.05-.63.3-.45.41a5.09,5.09,0,0,0,3.67.11c.47-.12.73-.35.44-.37l-2-.15c-.87,0-1.77,0-1.92.54s.82.66,1.92.48a17.59,17.59,0,0,0,3-.8c.39-.14.6-.32.3-.29-.89.08-1.85.12-3.06.26a9.58,9.58,0,0,0-3.16.72c-.72.53-.14.76.7.73a12.47,12.47,0,0,0,2.34-.37c.78-.12,4.25-1.27,3.67-1.45a12.22,12.22,0,0,0-3.14.51,36.87,36.87,0,0,0-3.92,1.19c-.39.14-.44.52,0,.49a16.07,16.07,0,0,0,3.78-.82c1.22-.4,2.44-.89,3.69-1.39.43-.17.43-.27,0-.16l-4.43,1.11c-1.55.39-3.1.8-4.65,1.31-.43.14-.66.64-.15.62,2.89-.17,5.64-1.37,8.37-2.51.53-.22.35-.31-.14-.17-2.58.76-5.37,1.55-8.07,2.51-.52.18-.57.73,0,.61a36.68,36.68,0,0,0,6.52-2.17c.48-.2.61-.47.07-.32a67.64,67.64,0,0,0-7.05,2.19c-.48.18-.57.79,0,.62a72.81,72.81,0,0,0,8.2-3c.48-.2.61-.41.08-.26a39.75,39.75,0,0,0-6.7,2.26c-.45.21-.34.62.12.5a39.77,39.77,0,0,0,5.84-2.07c.58-.26.53-.48-.06-.26l-4.9,1.82c-.55.2-.51.64,0,.52a19.09,19.09,0,0,0,3.62-1.33c.57-.28.5-.53-.09-.32a21.51,21.51,0,0,0-3.18,1.41c-.43.24-.3.59.15.44a15.08,15.08,0,0,0,2.47-1c.56-.3.49-.61-.11-.35a3.94,3.94,0,0,0-1.34.84c-.16.16-.08.3.11.29a3.1,3.1,0,0,1,.59,0c-.45.39.16.47.59.07a2.11,2.11,0,0,0,.49-.53c.09-.12,0-.18-.15-.16-.33,0-.65.06-1,.07,0,.09.06.18.1.27l.7-.47c0-.12-.08-.23-.11-.35a14.47,14.47,0,0,1-2.26.85c0,.15.09.29.14.43a20.8,20.8,0,0,1,2.88-1.42c0-.11-.06-.22-.09-.32a17.08,17.08,0,0,1-3.41,1.09c0,.17,0,.34,0,.52l4.82-2c0-.09,0-.18-.06-.26a38.42,38.42,0,0,1-5.65,1.74c0,.17.08.33.12.5a36.66,36.66,0,0,1,6.12-2.36l.09-.28a73.24,73.24,0,0,1-8.05,2.55c0,.2,0,.41,0,.62a62.84,62.84,0,0,1,6.7-2.42c0-.11,0-.22.08-.33a35.51,35.51,0,0,1-6.34,1.82q0,.3,0,.6c2.65-1.08,5.38-2,8-2.86l-.15-.17a24.86,24.86,0,0,1-7.7,2c-.06.2-.1.4-.15.61,1.48-.56,3-1,4.45-1.48l4.3-1.27c0-.06,0-.12,0-.17-1.13.39-2.24.79-3.35,1.1a15.75,15.75,0,0,1-3.44.62c0,.16,0,.32,0,.48a28,28,0,0,1,4.61-1.48c.42-.09,1.59-.42.4,0a13.23,13.23,0,0,1-1.73.43,9.68,9.68,0,0,1-1.69.24c-.78,0-.59,0,0-.22a9.66,9.66,0,0,1,2.23-.41l1.8-.16.3-.3c-1.08.34-3,.85-3.59.5-.34-.21.45,0,.72,0,.48,0,.8,0,1.19.08l.44-.37a4.56,4.56,0,0,1-3-.13c-.15.12-.3.26-.45.4h1.07C642.8,696.17,643.5,695.75,643.1,695.67Z" transform="translate(-117.33 -85.57)"/><path class="cls-1" d="M642.7,698.67a8.15,8.15,0,0,0-3.59-.33c-.61,0-.89.62-.35.64a16.23,16.23,0,0,0,3.7-.29c.46-.1.82-.61.41-.57a25.69,25.69,0,0,1-4.56,0c-.57-.06-.92.6-.37.65a17.15,17.15,0,0,0,2.68,0,4.69,4.69,0,0,0,1.75-.29,6,6,0,0,0,1.57-1.21,4.17,4.17,0,0,1,1.64-1l-.15-.18a21.45,21.45,0,0,0-3,2.11l.72-.06a7.39,7.39,0,0,1,3.57-2.31c.58-.24.56-.39,0-.19-1.94.65-3.61,1.49-4.38,2.7-.18.29.39.24.72-.06a21.08,21.08,0,0,1,2.89-2.16c.27-.17.29-.3-.14-.17a6.06,6.06,0,0,0-2.3,1.15,9.53,9.53,0,0,1-.8.7,3.31,3.31,0,0,1-1.44.37,11.55,11.55,0,0,1-2.94-.06c-.13.21-.25.43-.37.65a28,28,0,0,0,4.42-.06l.41-.57a16.5,16.5,0,0,1-3.66.2c-.13.21-.24.42-.35.64a6.45,6.45,0,0,1,3.15.26C642.22,699.37,643,698.77,642.7,698.67Z" transform="translate(-117.33 -85.57)"/><path class="cls-1" d="M650.41,694.32a26.44,26.44,0,0,0-4.91,1.95c-1.37.78-2.33,1.84-2.4,2.79,0,.32.84-.15.86-.44a4,4,0,0,1,2-2.34,24.87,24.87,0,0,1,4.17-1.85C650.75,694.2,651,694.13,650.41,694.32Z" transform="translate(-117.33 -85.57)"/><path class="cls-1" d="M643.63,698.86c-1.15,0-2.48,0-4,0-.53,0-1.07.63-.53.65H643C643.45,699.52,644,698.83,643.63,698.86Z" transform="translate(-117.33 -85.57)"/><path class="cls-1" d="M218.06,431.78c-3,1.64-6,2.13-8,1.35-.23-.09-.68.19-.76.41a15.19,15.19,0,0,1-3.86,5.29c-.3.28,0,.5.33.36a11.71,11.71,0,0,1,4.89-.6,1.75,1.75,0,0,0,1.12-.17,5.19,5.19,0,0,0,1.29-1.46c1.37-1.69,2.62-3.36,5.24-4.45.59-.24.59-.81,0-.57-3,1.27-4.26,3.05-6,5a3.15,3.15,0,0,1-1,1l-.48-.09c-.57.09-1.15-.08-1.73,0a14.05,14.05,0,0,0-3.33.79l.33.37a15.91,15.91,0,0,0,4.09-5.63l-.76.41c2.19.86,5.6.26,8.9-1.53C218.87,431.94,218.62,431.48,218.06,431.78Z" transform="translate(-117.33 -85.57)"/><path class="cls-1" d="M211,434a3.26,3.26,0,0,0-1.79.45c-.34.17-.44.5-.19.55a6.79,6.79,0,0,0,4-.53c.47-.19.6-.59.22-.61-.64,0-4.29,0-3.93,1.22s4-.28,5.3-1c.38-.21.46-.57.11-.56a10.2,10.2,0,0,0-3.39.66,7.41,7.41,0,0,0-2.79,1.53c-1,1.38,2.55.17,3.36-.11s4.36-1.54,3.33-2.24-5.56,2.19-6.79,3c-.33.22-.26.58.12.48a22.68,22.68,0,0,0,7.15-3.4c.39-.26.22-.62-.23-.44A64.44,64.44,0,0,0,207,437.2c-.38.22-.49.69,0,.55a25.94,25.94,0,0,0,8-3.78c.48-.33.12-.62-.36-.38-2.56,1.23-5,2.56-7.5,4-.47.27-.42.72.12.51a41.6,41.6,0,0,0,6.21-3c.46-.26.43-.73-.12-.51a46.9,46.9,0,0,0-6.6,3.33c-.43.27-.43.76.13.52a81.5,81.5,0,0,0,7.79-4c.47-.27.42-.72-.12-.51a29.61,29.61,0,0,0-6.29,3.33c-.39.28-.21.62.24.45a48.93,48.93,0,0,0,5.65-2.64c.56-.31.32-.77-.25-.46l-4.62,2.49c-.5.27-.38.68.13.51a18.18,18.18,0,0,0,3.53-1.58c.57-.32.33-.73-.24-.46a18.88,18.88,0,0,0-3,1.77c-.39.28-.21.61.24.44a13.38,13.38,0,0,0,2.42-1.15c.54-.33.33-.78-.24-.46a3.49,3.49,0,0,0-1.21,1c-.13.17,0,.32.18.32a2.62,2.62,0,0,1,.63,0c-.43.4.23.56.66.16a1.57,1.57,0,0,0,.44-.6c.07-.14-.05-.24-.22-.24h-1.06l.17.33.65-.53-.24-.46a13.63,13.63,0,0,1-2.18,1.05l.23.44a17.62,17.62,0,0,1,2.75-1.63l-.24-.46a17.45,17.45,0,0,1-3.29,1.47l.12.52,4.62-2.49-.25-.46a45.58,45.58,0,0,1-5.4,2.53l.24.44a26.09,26.09,0,0,1,5.81-3.08l-.12-.52a77.91,77.91,0,0,1-7.56,3.86l.13.51a44,44,0,0,1,6.35-3.22l-.12-.52a39.87,39.87,0,0,1-6,2.87l.12.52c2.46-1.44,4.95-2.76,7.5-4l-.35-.39a24.17,24.17,0,0,1-7.28,3.45v.55a62.71,62.71,0,0,1,8.28-4.14l-.24-.44a20.72,20.72,0,0,1-6.44,3.07l.11.48a21.49,21.49,0,0,1,4.25-2.34c.43-.15,1.59-.64.47,0a12.1,12.1,0,0,1-1.74.69,11.71,11.71,0,0,1-1.67.51c-.82.14-.61.12-.12-.24a8.72,8.72,0,0,1,4.17-1.12l.1-.56c-1,.56-2.93,1.4-3.73,1.1-.48-.17.44-.15.74-.18a8.33,8.33,0,0,1,1.41,0l.23-.62a5.61,5.61,0,0,1-3.36.46l-.19.55,1.09-.25C211,434.64,211.49,434,211,434Z" transform="translate(-117.33 -85.57)"/><path class="cls-1" d="M211.92,437.72a5.39,5.39,0,0,0-3.82-.18c-.59.15-.78.7-.24.64l3.8-.46c.49-.06.79-.66.34-.65a38.25,38.25,0,0,0-4.75.43c-.57.09-.78.71-.24.64l2.72-.34a6,6,0,0,0,1.8-.31c1.47-.69,1.32-2.15,2.83-2.76l-.33-.36c-.78.93-1.6,1.85-2.47,2.77h.77a6.42,6.42,0,0,1,3.16-3c.58-.29.33-.75-.24-.46a7.72,7.72,0,0,0-3.8,3.59c-.13.32.47.31.77,0,.87-.92,1.69-1.84,2.47-2.77.21-.25.11-.54-.33-.37a4.36,4.36,0,0,0-2,1.64,3.44,3.44,0,0,1-.63.87,3.23,3.23,0,0,1-1.45.46c-1,.2-2,.25-3,.37l-.24.64a36.78,36.78,0,0,1,4.54-.41l.34-.64-3.79.45-.24.64a4.66,4.66,0,0,1,3.27.11C211.46,438.47,212.25,437.9,211.92,437.72Z" transform="translate(-117.33 -85.57)"/><path class="cls-1" d="M218.7,431.64c-3.53,1.56-6.24,4.37-6.31,6.62,0,.38.9,0,.91-.33.06-1.91,2.38-4.39,5.41-5.72C219.29,432,219.29,431.38,218.7,431.64Z" transform="translate(-117.33 -85.57)"/><path class="cls-1" d="M213,438.14a14.87,14.87,0,0,0-4.23-.19c-.54.05-1,.71-.45.66a14,14,0,0,1,4,.17C212.75,438.87,213.39,438.23,213,438.14Z" transform="translate(-117.33 -85.57)"/><path class="cls-1" d="M428.7,85.94a13.31,13.31,0,0,1-4.05,1.27,2.54,2.54,0,0,1-2.5-1.09c-.1-.17-.66-.12-.89.07A36.64,36.64,0,0,0,415.82,92a.48.48,0,0,0,.44.78c2.24-.5,3.38,0,5.22-.18.43,0,.66,0,1.09-.36a8.51,8.51,0,0,0,.93-1.78,9,9,0,0,1,2.05-2.5,16.42,16.42,0,0,1,3.06-1.88c.53-.3.76-.42.21-.17a17.67,17.67,0,0,0-3.52,1.87,10.65,10.65,0,0,0-2.55,2.8,4.12,4.12,0,0,1-.8,1.2,4.17,4.17,0,0,1-.51-.08,6.54,6.54,0,0,1-1.8-.15,18.36,18.36,0,0,0-3.48.24c.13.26.28.51.43.76a30.48,30.48,0,0,1,5.47-6.17l-.89.1a2.45,2.45,0,0,0,1.28,1,3.86,3.86,0,0,0,1.79.19A13.91,13.91,0,0,0,428.72,86C429.26,85.71,429.26,85.71,428.7,85.94Z" transform="translate(-117.33 -85.57)"/><path class="cls-1" d="M422.35,87.24a3,3,0,0,0-1.75-.14c-.38.05-.65.41-.47.58a2.55,2.55,0,0,0,1.59.64,3.74,3.74,0,0,0,1,0,7.68,7.68,0,0,0,1-.24c.45-.15.67-.47.39-.51l-.72-.12c-.34-.06-.69-.16-1.15-.21-.86-.11-1.77-.15-1.93.69s.87,1,2,.8a11.69,11.69,0,0,0,2.89-1c.37-.19.54-.43.26-.41-.87.07-1.76.06-2.91.2-.76.13-2.5.26-3.14.9s-.07,1.1.78,1.09a8.87,8.87,0,0,0,2.33-.42c.77-.15,4-1.61,3.41-1.9a7.53,7.53,0,0,0-3,.56,26.81,26.81,0,0,0-3.83,1.54c-.39.19-.38.74,0,.71a11.38,11.38,0,0,0,3.73-1c1.14-.5,2.26-1.15,3.43-1.79.39-.23.38-.38,0-.24-.69.24-1.39.47-2.08.68l-2.14.68a47.33,47.33,0,0,0-4.55,1.7c-.43.18-.57.89,0,.88,3-.13,5.56-1.75,8-3.23.49-.29.29-.42-.17-.24-2.39.93-5.16,2-7.75,3.24-.51.24-.43,1,.13.86a24.87,24.87,0,0,0,6.24-2.82c.44-.27.52-.65,0-.46-1.05.38-2.23.8-3.37,1.25A29.32,29.32,0,0,0,417.12,91c-.45.24-.41,1.1.18.88A49.35,49.35,0,0,0,425.06,88c.45-.27.54-.56,0-.37-1.08.39-2,.73-3.17,1.21a18.26,18.26,0,0,0-3.22,1.73c-.43.29-.21.87.25.72a26.8,26.8,0,0,0,5.53-2.72c.53-.33.43-.64-.12-.37l-4.62,2.4c-.53.26-.37.88.15.72a12.05,12.05,0,0,0,3.42-1.75c.52-.36.38-.72-.17-.45A14.31,14.31,0,0,0,420.2,91c-.39.33-.15.81.29.62a10.23,10.23,0,0,0,2.29-1.39c.5-.39.34-.83-.21-.49a3.06,3.06,0,0,0-1.17,1.14.25.25,0,0,0,.22.4,2.29,2.29,0,0,1,.63,0c-.35.51.37.61.68.08a1.81,1.81,0,0,0,.32-.7c.05-.15-.07-.24-.23-.22a6.9,6.9,0,0,1-1,.08c.06.13.12.25.19.37l.59-.63a4.25,4.25,0,0,1-.21-.49,9.57,9.57,0,0,1-2.14,1.13c.08.2.18.4.28.6a13.7,13.7,0,0,1,2.61-1.9,3.47,3.47,0,0,1-.17-.45,12.16,12.16,0,0,1-3.28,1.43q.06.36.15.72l4.47-2.7c-.05-.12-.08-.24-.12-.37A26.16,26.16,0,0,1,419,90.49c.07.24.16.47.25.7a25.24,25.24,0,0,1,5.75-3.1,2.56,2.56,0,0,1,0-.39,49.64,49.64,0,0,1-7.73,3.3c.06.29.1.59.18.88a43.3,43.3,0,0,1,6.36-3.17,3.7,3.7,0,0,1,0-.47,24.56,24.56,0,0,1-6.14,2.34,8.51,8.51,0,0,0,.13.86c2.5-1.44,5.16-2.63,7.55-3.75l-.18-.26c-2.29,1.18-4.8,2.52-7.46,2.51,0,.28,0,.57,0,.86A45.21,45.21,0,0,1,422,88.87c1.45-.58,2.73-1.05,4.09-1.61,0-.09,0-.17,0-.25-1.06.5-2.1,1-3.14,1.4a10.87,10.87,0,0,1-3.4.75c0,.23,0,.45,0,.69a19.18,19.18,0,0,1,4.43-1.93c.4-.1,1.5-.51.38,0a8.64,8.64,0,0,1-1.64.52,6.35,6.35,0,0,1-1.67.26c-.79,0-.6,0,0-.31a6.17,6.17,0,0,1,2.19-.49l1.73-.13c.08-.14.17-.28.26-.42-1,.43-2.83,1.06-3.46.53-.34-.33.45,0,.71,0,.5,0,.78.13,1.17.19.13-.18.26-.35.4-.51a4.9,4.9,0,0,1-1.65.16,2.15,2.15,0,0,1-1.27-.52,6.06,6.06,0,0,0-.47.56,9.59,9.59,0,0,0,1.07.06C422,88,422.73,87.38,422.35,87.24Z" transform="translate(-117.33 -85.57)"/><path class="cls-1" d="M422.53,91.45a8.33,8.33,0,0,0-3.93-.52c-.62,0-.77.84-.2.89a12.47,12.47,0,0,0,3.88-.33c.47-.14.65-.81.23-.76a19,19,0,0,1-4.78-.15c-.6-.11-.83.83-.24.92a13.5,13.5,0,0,0,2.83.1,3.45,3.45,0,0,0,1.78-.37,4.62,4.62,0,0,0,1.27-1.62,3.08,3.08,0,0,1,1.43-1.35l-.19-.27a16.72,16.72,0,0,0-2.52,2.84,6.34,6.34,0,0,0,.75-.07c.35-1.31,1.55-2.27,3-3.08.54-.31.48-.52-.07-.27a9.85,9.85,0,0,0-2.41,1.49A4.27,4.27,0,0,0,422,91c-.09.39.51.32.75-.07a15,15,0,0,1,2.37-2.9c.24-.22.23-.41-.18-.25a4.41,4.41,0,0,0-2.08,1.53,7,7,0,0,1-.65,1,2.35,2.35,0,0,1-1.41.48,8.84,8.84,0,0,1-3.07-.19c-.1.3-.16.6-.24.92a20.93,20.93,0,0,0,4.68,0,6.7,6.7,0,0,1,.24-.76,12.08,12.08,0,0,1-3.81.18c-.08.29-.13.58-.2.89a6.68,6.68,0,0,1,3.49.39C422.3,92.37,422.9,91.59,422.53,91.45Z" transform="translate(-117.33 -85.57)"/><path class="cls-1" d="M429.26,85.71a17.76,17.76,0,0,0-4.55,2.53c-1.21,1-1.93,2.51-1.56,3.71.14.41.91-.23.78-.58a3.39,3.39,0,0,1,1.3-3.09A16.48,16.48,0,0,1,429,85.85C429.57,85.55,429.81,85.46,429.26,85.71Z" transform="translate(-117.33 -85.57)"/><path class="cls-1" d="M423.66,91.68a31.88,31.88,0,0,1-4.37,0c-.57,0-1,.86-.35.89,1.61.06,3,0,4.38,0C423.81,92.5,424.11,91.62,423.66,91.68Z" transform="translate(-117.33 -85.57)"/><path class="cls-2" d="M972.3,174.3" transform="translate(-117.33 -85.57)"/><path class="cls-1" d="M1006.08,181.25c-3.37-.66-6.07-1.84-7.23-3.12A1.2,1.2,0,0,0,998,178a19.82,19.82,0,0,1-6.14.61c-.4,0-.32.2.06.32a16.27,16.27,0,0,1,4.29,2,2.34,2.34,0,0,0,1,.44,7.06,7.06,0,0,0,1.88-.06,18.83,18.83,0,0,1,6.77.42c.6.16.93-.1.32-.26a23,23,0,0,0-7.74-.52,4.71,4.71,0,0,1-1.35,0l-.34-.27c-.51-.22-.88-.57-1.37-.81a19.63,19.63,0,0,0-3.14-1.19l.06.32a21,21,0,0,0,6.51-.66l-.84-.17c1.27,1.41,4.36,2.73,8,3.45C1006.65,181.7,1006.71,181.37,1006.08,181.25Z" transform="translate(-117.33 -85.57)"/><path class="cls-1" d="M999.15,179a4.69,4.69,0,0,0-1.7-.63c-.37-.08-.63,0-.47.16a9.57,9.57,0,0,0,3.52,1.62c.49.14.82,0,.53-.18-.49-.32-3.44-2-3.87-1.27s3.36,1.72,4.86,2c.42.08.69,0,.4-.21a14.64,14.64,0,0,0-3.1-1.27,12,12,0,0,0-3.13-.61c-1.56.18,1.95,1.27,2.77,1.51s4.39,1.34,4,.54-5.73-1.59-7.19-1.79c-.39-.06-.54.14-.17.27a36,36,0,0,0,7.7,1.79c.47.05.53-.19.06-.31-3.05-.82-6.13-1.5-9.29-2-.43-.07-.79.08-.31.25a41,41,0,0,0,8.58,2c.58.07.46-.23-.06-.34-2.77-.63-5.54-1.19-8.33-1.68-.53-.1-.75.13-.2.29,2.2.62,4.41,1.13,6.72,1.54.52.09.76-.14.19-.29a72,72,0,0,0-7.23-1.56c-.5-.08-.78.14-.19.29,2.83.71,5.66,1.32,8.55,1.83.53.09.75-.14.2-.29a44.73,44.73,0,0,0-7-1.41c-.47-.06-.52.18-.06.31,2,.56,4,1,6.06,1.43.63.12.7-.2.06-.32l-5.14-1c-.57-.12-.7.13-.19.29a31.13,31.13,0,0,0,3.75.93c.64.11.69-.18.06-.33a28.92,28.92,0,0,0-3.41-.58c-.47,0-.51.18-.06.31a18.82,18.82,0,0,0,2.62.6c.62.11.7-.2.06-.32a5.25,5.25,0,0,0-1.54-.1c-.21,0-.21.13,0,.22a2.86,2.86,0,0,1,.51.3c-.58,0-.14.37.44.38a2.07,2.07,0,0,0,.7-.06c.13,0,.1-.14,0-.22l-.87-.48,0,.22.83.06.06-.32a20.23,20.23,0,0,1-2.36-.54l-.06.32a26.25,26.25,0,0,1,3.15.54l.06-.33a27.38,27.38,0,0,1-3.49-.86l-.19.29,5.14,1,.06-.32c-2-.39-3.88-.83-5.8-1.37l-.06.31a42.62,42.62,0,0,1,6.45,1.31l.2-.29c-2.8-.5-5.56-1.08-8.3-1.77l-.19.29a70.77,70.77,0,0,1,7,1.5l.19-.3A64.31,64.31,0,0,1,994,178.8l-.2.29c2.8.49,5.57,1,8.33,1.68l-.06-.34a37.36,37.36,0,0,1-7.84-1.82l-.31.25c3.07.53,6.07,1.18,9,2l.06-.32a32.6,32.6,0,0,1-6.95-1.6l-.18.27a33.34,33.34,0,0,1,4.76.92c.44.13,1.65.45.38.21-.55-.11-1.29-.34-1.79-.49s-1.18-.36-1.64-.55c-.74-.32-.56-.23,0-.17a12.76,12.76,0,0,1,4,1.43l.4-.2c-1.15-.23-3.16-.73-3.63-1.24-.29-.3.44.14.69.26a11,11,0,0,1,1.15.65l.54-.17a7.86,7.86,0,0,1-3-1.35l-.47.16,1,.39C998.8,179.28,999.53,179.19,999.15,179Z" transform="translate(-117.33 -85.57)"/><path class="cls-1" d="M997.74,181.09a6.37,6.37,0,0,0-3-1.86c-.56-.21-1,0-.55.18l3.32,1.56c.43.2,1,.07.64-.13-1.25-.7-2.6-1.37-4.07-2-.51-.23-1,0-.56.18l2.39,1.11a8,8,0,0,0,1.63.69c1.57.37,2.29-.35,3.86.07l-.06-.32c-1.17.06-2.36.1-3.58.11l.63.36a9.23,9.23,0,0,1,4.24.13c.63.13.69-.19.06-.33a11.21,11.21,0,0,0-5.12-.13c-.29.08.2.36.63.35,1.22,0,2.41,0,3.58-.11.31,0,.39-.2-.06-.32a6.49,6.49,0,0,0-2.57-.19,6,6,0,0,1-1,.1,4.9,4.9,0,0,1-1.43-.47c-.93-.38-1.78-.83-2.64-1.23l-.56.18c1.41.62,2.7,1.26,3.89,1.93l.65-.14-3.32-1.56-.55.18a5.5,5.5,0,0,1,2.56,1.58C996.94,181.22,997.9,181.33,997.74,181.09Z" transform="translate(-117.33 -85.57)"/><path class="cls-1" d="M1006.69,181.49c-3.74-.94-7.54-.92-8.89.07-.22.16.71.43.93.27,1.14-.84,4.43-.89,7.63-.08C1007,181.9,1007.3,181.64,1006.69,181.49Z" transform="translate(-117.33 -85.57)"/><path class="cls-1" d="M998.33,181.77a17.39,17.39,0,0,0-3.31-2.06c-.45-.23-1.2-.14-.74.09a17.07,17.07,0,0,1,3.17,2C997.75,182,998.63,182,998.33,181.77Z" transform="translate(-117.33 -85.57)"/><path class="cls-1" d="M681.12,336.37a29.19,29.19,0,0,1-3,3.2,4.87,4.87,0,0,1-2.31,1.3,2,2,0,0,0-.69.6c-1,1.67-2,3.66-3.13,6-.19.38.1.48.38.2a30.55,30.55,0,0,1,3.7-2.93,2.28,2.28,0,0,0,.74-.79,15,15,0,0,0,.68-1.76,20.63,20.63,0,0,1,3.56-5.7c.37-.49.53-.7.14-.23a23.22,23.22,0,0,0-4.23,6.4,7.17,7.17,0,0,1-.56,1.25l-.35.21a12.12,12.12,0,0,1-1.28.88,29.5,29.5,0,0,0-2.55,2.15l.37.2a64,64,0,0,1,3.24-6.37l-.67.61a3.44,3.44,0,0,0,1.27-.47,7.84,7.84,0,0,0,1.44-1.07,30.43,30.43,0,0,0,3.25-3.67C681.53,335.9,681.53,335.9,681.12,336.37Z" transform="translate(-117.33 -85.57)"/><path class="cls-1" d="M676.31,341.1a6.51,6.51,0,0,0-1.4,1.08c-.3.27-.42.57-.23.52a7.19,7.19,0,0,0,2.88-2.15c.33-.36.46-.66.23-.5l-1.56,1.09c-.7.51-1.41,1.08-1.35,1.51s.84-.09,1.64-.85a24.85,24.85,0,0,0,2.1-2.32c.26-.33.37-.56.15-.37-.66.57-1.38,1.16-2.27,2a15.84,15.84,0,0,0-2.26,2.38c-.4.77.13.56.77,0a19,19,0,0,0,1.71-1.63c.56-.54,2.89-3.34,2.4-3.13a17.24,17.24,0,0,0-2.26,2.19c-1.09,1.16-2.24,2.53-2.7,3.13-.27.32-.19.6.11.34a23,23,0,0,0,2.69-2.8c.82-1,1.61-2,2.43-3.08.28-.36.26-.44,0-.1l-3.09,3.34c-1.09,1.19-2.18,2.4-3.24,3.66-.29.34-.32.8.07.48a38.19,38.19,0,0,0,5.75-6.62c.34-.46.17-.41-.16,0-1.75,2-3.7,4.2-5.52,6.45-.35.43-.22.81.19.4a53.64,53.64,0,0,0,4.41-5.3c.31-.42.34-.69,0-.27-1.55,1.75-3.28,3.64-4.82,5.64-.32.41-.2.86.21.4,1.94-2.16,3.74-4.55,5.46-6.82.32-.42.36-.64,0-.23-.77.87-1.49,1.66-2.28,2.6S674.74,344,674,345c-.28.4-.08.61.25.26a58.11,58.11,0,0,0,3.89-4.82c.38-.51.28-.64-.11-.15l-3.25,4.11c-.37.46-.21.74.15.35a25.07,25.07,0,0,0,2.4-3c.37-.53.24-.66-.15-.18a31.85,31.85,0,0,0-2.05,2.83c-.26.42-.07.59.24.23a20.82,20.82,0,0,0,1.6-2.16c.35-.53.21-.72-.18-.19a5.77,5.77,0,0,0-.79,1.37c-.08.21,0,.26.16.15a3.21,3.21,0,0,1,.45-.36c-.25.54.23.26.46-.27a3,3,0,0,0,.23-.67c0-.13-.05-.13-.16,0s-.48.41-.72.6a.93.93,0,0,0,.14.14l.41-.74-.18-.19a20.65,20.65,0,0,1-1.49,1.91l.22.22a30.35,30.35,0,0,1,1.81-2.66l-.15-.18a25.12,25.12,0,0,1-2.32,2.75c.05.12.1.23.16.35l3.12-4.21-.11-.15a56.6,56.6,0,0,1-3.86,4.5l.24.26a54.46,54.46,0,0,1,4-5.19v-.23c-1.71,2.11-3.55,4.4-5.49,6.46l.2.39c1.42-2,3-3.81,4.48-5.57l0-.27a53.12,53.12,0,0,1-4.38,5c0,.14.12.27.18.4,1.74-2.3,3.6-4.53,5.32-6.62l-.16,0a37,37,0,0,1-5.39,5.9l.07.47c1-1.25,2-2.45,3-3.62l2.94-3.38-.06-.1c-.75.91-1.49,1.83-2.25,2.69a24.18,24.18,0,0,1-2.49,2.47c0,.11.07.22.1.34a41.19,41.19,0,0,1,3.14-3.72c.3-.31,1.09-1.21.3-.24-.35.42-.85.94-1.21,1.3a14.46,14.46,0,0,1-1.23,1.16c-.62.47-.47.36-.08-.13a27.88,27.88,0,0,1,2.94-2.76l.15-.39a10.28,10.28,0,0,1-2.62,2.46c-.33.08.34-.3.55-.46.38-.29.63-.44.94-.65.07-.17.15-.34.23-.51a6.59,6.59,0,0,1-2.39,1.76c-.08.17-.16.34-.23.51l.85-.66C676.22,341.6,676.64,340.91,676.31,341.1Z" transform="translate(-117.33 -85.57)"/><path class="cls-1" d="M676.82,343.4a9,9,0,0,0-2.84,1.83c-.45.38-.5.94-.08.64a23.59,23.59,0,0,0,2.75-2.32c.32-.33.46-.91.17-.65a38.62,38.62,0,0,1-3.53,2.66c-.46.31-.53.94-.09.65a22.92,22.92,0,0,0,2.08-1.55,6.06,6.06,0,0,0,1.25-1.2c.9-1.34.82-2.23,1.85-3.42l-.16,0a29.11,29.11,0,0,0-1.7,3.2l.52-.45a10.68,10.68,0,0,1,2.1-3.69c.38-.5.32-.59-.08-.11a11.43,11.43,0,0,0-2.6,4.43c-.06.3.36-.05.52-.45a29.93,29.93,0,0,1,1.63-3.2c.16-.27.13-.37-.16,0a8.6,8.6,0,0,0-1.43,2.12c-.14.27-.25.65-.43,1a4.66,4.66,0,0,1-1,1.09,16.54,16.54,0,0,1-2.3,1.69c0,.22-.06.44-.09.65a41.91,41.91,0,0,0,3.38-2.59c0-.22.1-.43.16-.65a22.44,22.44,0,0,1-2.76,2.26l-.08.64a7.06,7.06,0,0,1,2.48-1.61C676.64,344.19,677.07,343.32,676.82,343.4Z" transform="translate(-117.33 -85.57)"/><path class="cls-1" d="M681.53,335.9a36.63,36.63,0,0,0-3.21,4.18,5.38,5.38,0,0,0-1.1,3.39c.08.27.61-.55.54-.8a5.09,5.09,0,0,1,.94-2.87,33.4,33.4,0,0,1,2.67-3.68C681.75,335.63,681.92,335.43,681.53,335.9Z" transform="translate(-117.33 -85.57)"/><path class="cls-1" d="M677.57,343c-.84.66-1.85,1.4-3,2.26-.41.29-.64,1-.22.75,1.17-.83,2.08-1.58,3-2.16C677.65,343.66,677.86,342.8,677.57,343Z" transform="translate(-117.33 -85.57)"/><path class="cls-1" d="M824.2,248.77c-3.43,0-6.31-.59-7.7-1.6a1.19,1.19,0,0,0-.87,0,20.45,20.45,0,0,1-5.9,1.76c-.39.07-.27.26.12.3a16.16,16.16,0,0,1,4.6,1.1,2.4,2.4,0,0,0,1.07.23,7.18,7.18,0,0,0,1.83-.42,19.32,19.32,0,0,1,6.72-.9c.63,0,.9-.27.27-.31a23.58,23.58,0,0,0-7.7,1,4.53,4.53,0,0,1-1.32.26l-.38-.19c-.55-.12-1-.38-1.51-.52a20.21,20.21,0,0,0-3.31-.55l.12.3a21.4,21.4,0,0,0,6.26-1.88h-.87c1.53,1.11,4.82,1.78,8.57,1.77C824.85,249.1,824.85,248.77,824.2,248.77Z" transform="translate(-117.33 -85.57)"/><path class="cls-1" d="M817,247.9a4.77,4.77,0,0,0-1.79-.28c-.38,0-.62.14-.43.24a9.57,9.57,0,0,0,3.77.88c.51,0,.8-.15.48-.27-.54-.21-3.77-1.27-4-.48s3.62,1,5.15,1c.43,0,.67-.18.36-.28a14.91,14.91,0,0,0-3.29-.63,12.12,12.12,0,0,0-3.19,0c-1.5.47,2.16.84,3,.92s4.57.44,4-.24-5.93-.43-7.4-.35c-.4,0-.51.25-.12.3a37.07,37.07,0,0,0,7.91.24c.46,0,.48-.28,0-.31-3.16-.2-6.31-.26-9.52-.17-.43,0-.76.23-.25.3a42.2,42.2,0,0,0,8.81.27c.58,0,.4-.31-.13-.32-2.84-.07-5.66-.08-8.5,0-.54,0-.71.27-.13.32,2.28.17,4.54.24,6.88.19.53,0,.72-.28.13-.32a72.71,72.71,0,0,0-7.39-.11c-.5,0-.74.29-.13.32,2.91.13,5.81.17,8.75.11.53,0,.7-.27.13-.32a47,47,0,0,0-7.12,0c-.47,0-.47.28,0,.31,2.06.15,4.11.22,6.23.21.64,0,.64-.32,0-.32h-5.25c-.58,0-.66.26-.13.31a28.81,28.81,0,0,0,3.86.17c.65,0,.64-.3,0-.32a30.49,30.49,0,0,0-3.46.1c-.48,0-.47.27,0,.31a21.7,21.7,0,0,0,2.68.07c.63,0,.66-.33,0-.32a5.31,5.31,0,0,0-1.53.2c-.2.05-.18.17,0,.23a2.84,2.84,0,0,1,.56.18c-.57.1-.07.38.5.28a1.86,1.86,0,0,0,.67-.19c.13-.06.07-.15-.07-.2l-1-.3v.23l.82-.11v-.32a19.25,19.25,0,0,1-2.41-.06v.31a28.12,28.12,0,0,1,3.19-.09v-.32a28.41,28.41,0,0,1-3.6-.16l-.13.32h5.25v-.32c-2,0-4-.05-6-.2v.31a43.8,43.8,0,0,1,6.58,0l.14-.31c-2.85.06-5.66,0-8.49-.1l-.13.31c2.41-.08,4.75,0,7.13.1l.13-.32a66.11,66.11,0,0,1-6.62-.18l-.13.32c2.84-.06,5.66-.06,8.5,0l-.14-.31a38.32,38.32,0,0,1-8-.24l-.25.3c3.12-.09,6.18,0,9.25.16v-.31a33.75,33.75,0,0,1-7.13-.21l-.12.3a34.14,34.14,0,0,1,4.85,0c.45,0,1.7.12.41.13a18.31,18.31,0,0,1-1.85-.13,17.22,17.22,0,0,1-1.72-.21c-.79-.16-.59-.11,0-.17a13.34,13.34,0,0,1,4.21.61l.35-.28c-1.17,0-3.24-.09-3.8-.48-.35-.24.45,0,.73.11a12.47,12.47,0,0,1,1.26.41l.48-.27a7.91,7.91,0,0,1-3.17-.73l-.43.24,1.08.19C816.67,248.28,817.38,248.05,817,247.9Z" transform="translate(-117.33 -85.57)"/><path class="cls-1" d="M816,250.22A6.43,6.43,0,0,0,812.7,249c-.58-.09-1,.16-.5.28l3.56.86c.46.11,1-.13.61-.25-1.37-.43-2.82-.81-4.4-1.16-.54-.12-1,.16-.5.28l2.55.61a8.23,8.23,0,0,0,1.74.35c1.62.06,2.17-.78,3.79-.67l-.11-.3c-1.13.28-2.29.55-3.49.8l.68.22a9.47,9.47,0,0,1,4.19-.69c.64,0,.64-.32,0-.33a11.39,11.39,0,0,0-5.05.86c-.27.13.27.3.68.22,1.2-.25,2.36-.52,3.49-.8.3-.07.35-.26-.12-.29a6.51,6.51,0,0,0-2.56.3,4.54,4.54,0,0,1-1,.29,5.18,5.18,0,0,1-1.49-.17c-1-.19-1.91-.46-2.84-.68l-.5.28c1.5.33,2.89.7,4.19,1.11l.61-.26L812.7,249l-.5.28a5.56,5.56,0,0,1,2.82,1C815.24,250.51,816.2,250.42,816,250.22Z" transform="translate(-117.33 -85.57)"/><path class="cls-1" d="M824.84,248.89c-3.85-.19-7.57.56-8.69,1.77-.19.2.78.29,1,.09,1-1,4.17-1.71,7.47-1.55C825.21,249.23,825.48,248.92,824.84,248.89Z" transform="translate(-117.33 -85.57)"/><path class="cls-1" d="M816.7,250.76a17.81,17.81,0,0,0-3.64-1.34c-.5-.13-1.21.09-.71.23a17.42,17.42,0,0,1,3.49,1.27C816.18,251.1,817.05,250.94,816.7,250.76Z" transform="translate(-117.33 -85.57)"/><path class="cls-1" d="M824.75,267.07c-3.19,1.28-6,1.88-7.65,1.63a1.46,1.46,0,0,0-.8.32,24,24,0,0,1-4.95,3.51c-.35.2-.18.3.2.18a19.83,19.83,0,0,1,4.6-.86,2.88,2.88,0,0,0,1.06-.21,9.08,9.08,0,0,0,1.58-1,23.25,23.25,0,0,1,6-3.16c.6-.21.76-.54.16-.34a28.65,28.65,0,0,0-6.86,3.59,5.36,5.36,0,0,1-1.15.68h-.41c-.55.11-1,.07-1.56.16a24.31,24.31,0,0,0-3.24.81l.2.18a25,25,0,0,0,5.25-3.74l-.8.32c1.75.28,5-.42,8.49-1.82C825.44,267.08,825.34,266.83,824.75,267.07Z" transform="translate(-117.33 -85.57)"/><path class="cls-1" d="M817.75,269.08a5.93,5.93,0,0,0-1.75.45c-.35.14-.53.34-.33.34a11.18,11.18,0,0,0,3.77-.72c.49-.16.71-.41.37-.38-.57,0-3.88.42-3.9,1.12s3.67-.57,5.09-1.14c.4-.16.57-.38.25-.34a17.86,17.86,0,0,0-3.25.73,15.24,15.24,0,0,0-3,1.19c-1.25.92,2.27-.15,3.08-.4s4.38-1.36,3.64-1.67-5.65,1.87-7,2.48c-.36.16-.4.37,0,.26a44.72,44.72,0,0,0,7.42-2.73c.42-.2.37-.4-.09-.24-3,1-6,2.13-8.9,3.39-.4.16-.63.45-.14.32a50.52,50.52,0,0,0,8.27-3.05c.52-.25.28-.38-.22-.19-2.66,1-5.28,2-7.9,3.12-.5.21-.58.47,0,.29,2.17-.7,4.29-1.49,6.45-2.39.49-.21.59-.48,0-.29-2.33.79-4.61,1.66-6.9,2.64-.47.2-.6.5,0,.29,2.75-1,5.45-2,8.16-3.14.5-.21.58-.47,0-.29a56.92,56.92,0,0,0-6.62,2.62c-.43.2-.35.38.1.23,2-.64,3.88-1.34,5.85-2.13.59-.24.5-.49-.1-.25l-4.87,1.94c-.54.22-.54.44,0,.29a36,36,0,0,0,3.64-1.29c.6-.25.5-.47-.1-.25-1.13.42-2.12.85-3.18,1.35-.44.21-.36.38.09.24.89-.28,1.64-.56,2.52-.93.58-.25.51-.5-.1-.25a6.94,6.94,0,0,0-1.37.71c-.17.12-.11.2.07.18a3.26,3.26,0,0,1,.58-.06c-.5.28,0,.31.55,0a2.41,2.41,0,0,0,.57-.4c.1-.09,0-.13-.14-.12l-1,.12.07.18.74-.38-.1-.25a22.24,22.24,0,0,1-2.27.84l.1.24c1-.47,1.91-.86,2.94-1.24l-.1-.25a34.53,34.53,0,0,1-3.39,1.21l0,.29,4.87-1.94-.1-.25c-1.88.76-3.71,1.43-5.6,2.05l.1.24a51.88,51.88,0,0,1,6.12-2.42l0-.29c-2.63,1.09-5.25,2.11-7.92,3.05l0,.29c2.21-.95,4.39-1.79,6.65-2.56l0-.29c-2.08.87-4.11,1.63-6.21,2.31l0,.29c2.62-1.1,5.25-2.14,7.91-3.13l-.22-.19a46.71,46.71,0,0,1-7.55,2.79l-.14.32c2.87-1.21,5.73-2.31,8.64-3.29l-.09-.24a41.44,41.44,0,0,1-6.69,2.48l0,.26a42.53,42.53,0,0,1,4.49-1.81c.43-.13,1.62-.54.42-.06a18.18,18.18,0,0,1-1.76.59c-.53.16-1.18.37-1.66.47-.78.17-.58.14,0-.12a15.71,15.71,0,0,1,4.09-1.1l.24-.34a12.49,12.49,0,0,1-3.68,1c-.39-.05.44-.14.72-.18a10.79,10.79,0,0,1,1.29-.16l.37-.38a9.53,9.53,0,0,1-3.17.61l-.33.35,1.06-.27C817.6,269.48,818.19,269.05,817.75,269.08Z" transform="translate(-117.33 -85.57)"/><path class="cls-1" d="M817.55,271.21a7.29,7.29,0,0,0-3.42.29c-.57.14-.89.49-.38.4l3.57-.66c.46-.09.89-.47.48-.42-1.39.18-2.86.43-4.43.74-.54.11-.89.5-.38.4l2.55-.48a9.54,9.54,0,0,0,1.72-.37c1.52-.56,1.79-1.4,3.33-1.92l-.2-.18c-1,.63-2,1.26-3,1.9l.7-.09a11.34,11.34,0,0,1,3.68-2.07c.6-.23.5-.48-.1-.25a13.6,13.6,0,0,0-4.43,2.52c-.21.2.34.13.7-.09,1-.63,2-1.26,3-1.89.26-.17.25-.33-.2-.18a7.83,7.83,0,0,0-2.28,1.18,3.8,3.8,0,0,1-2.25,1c-1,.22-1.91.36-2.84.53l-.38.4c1.49-.3,2.89-.54,4.23-.71l.48-.41-3.57.66-.38.4a6.38,6.38,0,0,1,2.93-.27C816.93,271.7,817.81,271.28,817.55,271.21Z" transform="translate(-117.33 -85.57)"/><path class="cls-1" d="M825.38,266.92c-3.64,1.28-6.87,3.23-7.55,4.56-.11.22.81-.07.92-.29.58-1.13,3.36-2.83,6.47-3.93C825.82,267.05,826,266.71,825.38,266.92Z" transform="translate(-117.33 -85.57)"/><path class="cls-1" d="M818.38,271.35a20.46,20.46,0,0,0-3.8.33c-.5.08-1.09.51-.59.43a20.35,20.35,0,0,1,3.63-.32C818,271.8,818.75,271.36,818.38,271.35Z" transform="translate(-117.33 -85.57)"/><path class="cls-1" d="M140.17,237.09a13.81,13.81,0,0,1-4.17,1.17,2.81,2.81,0,0,1-2.66-1.15c-.12-.18-.67-.14-.89,0a45.61,45.61,0,0,0-5.39,5.61.48.48,0,0,0,.43.79c2.25-.44,3.4,0,5.24-.06a1.3,1.3,0,0,0,1.09-.33,8.56,8.56,0,0,0,1-1.73,8.58,8.58,0,0,1,2.12-2.41,17.11,17.11,0,0,1,3.13-1.79c.55-.28.78-.4.22-.16a17.86,17.86,0,0,0-3.61,1.77,10.71,10.71,0,0,0-2.63,2.69,3.83,3.83,0,0,1-.84,1.16l-.5-.08a7.53,7.53,0,0,1-1.81-.19,18.24,18.24,0,0,0-3.5.15c.13.26.27.51.42.76a35.62,35.62,0,0,1,5.45-6l-.88.07a2.64,2.64,0,0,0,1.33,1.05,4,4,0,0,0,1.86.22,14.35,14.35,0,0,0,4.6-1.57C140.74,236.87,140.74,236.87,140.17,237.09Z" transform="translate(-117.33 -85.57)"/><path class="cls-1" d="M133.61,238.24a3.1,3.1,0,0,0-1.76-.19c-.39,0-.65.39-.46.56.87.82,2.23.85,3.69.44.46-.14.69-.45.4-.49s-1.09-.22-2-.37-1.78-.2-1.91.63.88,1,2,.84a12.59,12.59,0,0,0,3-.92c.37-.18.55-.41.26-.39-.9.05-1.84,0-3,.14-.76.1-2.5.18-3.13.79s-.06,1.09.79,1.1a9,9,0,0,0,2.36-.36c.78-.13,4.11-1.51,3.49-1.8a8.1,8.1,0,0,0-3.09.5,23.87,23.87,0,0,0-3.84,1.42c-.39.17-.38.72,0,.7a11.4,11.4,0,0,0,3.76-.92c1.18-.47,2.33-1.09,3.52-1.69.4-.21.39-.37,0-.23-1.45.45-2.81.81-4.33,1.25s-3.06.93-4.58,1.55c-.42.16-.57.87-.05.86,3,0,5.61-1.57,8.17-3,.5-.28.3-.41-.18-.24-2.47.88-5.24,1.81-7.86,3-.5.22-.44,1,.13.85a24.94,24.94,0,0,0,6.32-2.63c.46-.25.54-.62,0-.45a47,47,0,0,0-6.88,2.63c-.47.23-.43,1.07.16.88a50.85,50.85,0,0,0,7.88-3.65c.47-.25.55-.54,0-.36-1.1.36-2.11.68-3.24,1.13a17.86,17.86,0,0,0-3.25,1.61c-.43.27-.22.85.24.71a27.14,27.14,0,0,0,5.63-2.54c.54-.32.44-.62-.12-.36L131,241.5c-.54.25-.39.86.14.72a12.84,12.84,0,0,0,3.48-1.64c.53-.35.39-.7-.18-.45a14.73,14.73,0,0,0-3,1.78c-.4.31-.16.79.29.61a10.14,10.14,0,0,0,2.33-1.31c.51-.37.35-.8-.21-.48a2.87,2.87,0,0,0-1.19,1.09.24.24,0,0,0,.21.39,2.76,2.76,0,0,1,.64,0c-.37.49.34.61.68.1a2.31,2.31,0,0,0,.34-.69c.05-.15-.07-.23-.23-.22a8.89,8.89,0,0,1-1,.06c.06.13.12.25.19.37l.6-.61c-.07-.16-.15-.31-.21-.48a9.9,9.9,0,0,1-2.17,1.06,6.28,6.28,0,0,0,.27.59,13.6,13.6,0,0,1,2.67-1.8c-.07-.15-.12-.3-.18-.45a12.09,12.09,0,0,1-3.32,1.33c0,.24.08.47.14.71l4.56-2.55a2.53,2.53,0,0,1-.12-.36,27.23,27.23,0,0,1-5.5,2.09c.06.23.15.46.23.69a25.8,25.8,0,0,1,5.86-2.91,2.34,2.34,0,0,1,0-.38,50.9,50.9,0,0,1-7.83,3.06,8.6,8.6,0,0,0,.15.86,45.51,45.51,0,0,1,6.47-3,2.26,2.26,0,0,1,0-.45,24.92,24.92,0,0,1-6.22,2.15c0,.28.08.56.13.84,2.53-1.35,5.2-2.45,7.67-3.51l-.19-.25c-2.36,1.12-4.89,2.36-7.56,2.29,0,.28,0,.56,0,.84a46,46,0,0,1,4.33-1.79c1.45-.53,2.78-1,4.18-1.5a1.84,1.84,0,0,1-.05-.25c-1.08.48-2.15,1-3.22,1.33a11,11,0,0,1-3.43.64c0,.23,0,.45,0,.68a19.58,19.58,0,0,1,4.48-1.79c.42-.09,1.55-.47.4,0a10,10,0,0,1-1.69.48,7.18,7.18,0,0,1-1.68.22c-.8-.07-.61,0,0-.31a6.39,6.39,0,0,1,2.21-.43l1.79-.09c.09-.14.17-.28.27-.41-1.05.4-2.92,1-3.56.44-.35-.33.46,0,.73,0,.49.06.81.14,1.21.21a4.78,4.78,0,0,1,.39-.5,3.31,3.31,0,0,1-3-.43c-.16.18-.31.36-.45.55l1.08.09C133.32,238.93,134,238.39,133.61,238.24Z" transform="translate(-117.33 -85.57)"/><path class="cls-1" d="M133.81,242.37a8.76,8.76,0,0,0-3.94-.6c-.62,0-.79.81-.21.87a12.35,12.35,0,0,0,3.9-.24c.47-.12.67-.78.25-.74a18.58,18.58,0,0,1-4.81-.26c-.6-.11-.84.8-.26.9a13.11,13.11,0,0,0,2.85.17,3.61,3.61,0,0,0,1.8-.32,4.64,4.64,0,0,0,1.31-1.57,3.08,3.08,0,0,1,1.47-1.29,2.69,2.69,0,0,1-.2-.27,17,17,0,0,0-2.59,2.74c.26,0,.51,0,.76-.06.38-1.27,1.61-2.2,3.13-3,.55-.29.49-.5-.08-.26a9.81,9.81,0,0,0-2.47,1.42,4.17,4.17,0,0,0-1.43,2c-.1.38.51.32.76-.06a15.16,15.16,0,0,1,2.45-2.79c.24-.21.23-.39-.19-.25a4.47,4.47,0,0,0-2.13,1.47,7.44,7.44,0,0,1-.66.91,2.4,2.4,0,0,1-1.44.44,9,9,0,0,1-3.08-.27c-.1.3-.18.6-.26.9a20.33,20.33,0,0,0,4.71.12,6.49,6.49,0,0,1,.26-.74,12.31,12.31,0,0,1-3.84.09c-.08.29-.15.57-.21.87a7,7,0,0,1,3.49.46C133.55,243.27,134.17,242.52,133.81,242.37Z" transform="translate(-117.33 -85.57)"/><path class="cls-1" d="M140.74,236.87a17.93,17.93,0,0,0-4.66,2.4,3.79,3.79,0,0,0-1.67,3.61c.12.4.91-.2.8-.56a3.38,3.38,0,0,1,1.39-3,16.63,16.63,0,0,1,3.91-2.32C141.06,236.72,141.31,236.63,140.74,236.87Z" transform="translate(-117.33 -85.57)"/><path class="cls-1" d="M134.93,242.62a33.39,33.39,0,0,1-4.39-.1c-.56-.06-1,.82-.37.86,1.62.1,3,.09,4.38.07C135,243.43,135.38,242.58,134.93,242.62Z" transform="translate(-117.33 -85.57)"/><path class="cls-1" d="M120.72,253.25c-.82,3.34-2,6-3.16,7.16a1.47,1.47,0,0,0-.21.83,23.19,23.19,0,0,1,0,6.08c0,.4.14.32.27-.06a18.77,18.77,0,0,1,2-4.24,3,3,0,0,0,.44-1,8.42,8.42,0,0,0,.11-1.86,23.23,23.23,0,0,1,.91-6.69c.18-.61,0-.93-.18-.32a27.76,27.76,0,0,0-1.08,7.65,5.62,5.62,0,0,1-.12,1.34l-.25.33c-.23.51-.54.87-.78,1.36a25.63,25.63,0,0,0-1.24,3.1l.27-.05a24.2,24.2,0,0,0,0-6.45l-.21.84c1.26-1.26,2.6-4.32,3.5-8C121.13,252.69,120.87,252.63,120.72,253.25Z" transform="translate(-117.33 -85.57)"/><path class="cls-1" d="M118.26,260.1a5.83,5.83,0,0,0-.66,1.69c-.09.36,0,.63.09.46a11.24,11.24,0,0,0,1.62-3.48c.15-.48.08-.81-.1-.53-.3.5-1.93,3.41-1.37,3.83s1.69-3.31,2.06-4.8c.1-.41,0-.68-.14-.4a17.7,17.7,0,0,0-1.3,3.07,14.89,14.89,0,0,0-.76,3.1c0,1.54,1.2-1.93,1.47-2.74s1.46-4.35.77-3.92-1.78,5.67-2.07,7.11c-.08.39.07.54.21.17a44.68,44.68,0,0,0,2.11-7.62c.08-.46-.11-.53-.25-.06-.93,3-1.74,6.07-2.45,9.2-.09.42,0,.78.18.3A50.45,50.45,0,0,0,120,257c.1-.57-.15-.45-.29.06-.75,2.74-1.43,5.48-2.07,8.25-.12.52,0,.74.22.19.7-2.18,1.29-4.36,1.82-6.64.12-.52,0-.76-.22-.19-.72,2.35-1.34,4.71-1.88,7.14-.11.5,0,.78.22.2.82-2.8,1.55-5.61,2.21-8.47.13-.52,0-.74-.22-.19a58.5,58.5,0,0,0-1.73,6.9c-.09.47.1.52.25.06.62-2,1.17-3.94,1.67-6,.15-.62-.1-.69-.26-.07l-1.26,5.09c-.14.56.05.7.22.2a35,35,0,0,0,1.07-3.72c.15-.63-.09-.68-.25-.06-.32,1.16-.56,2.22-.77,3.37-.08.48.11.52.25.07a24.71,24.71,0,0,0,.71-2.59c.14-.61-.1-.7-.25-.07a6.18,6.18,0,0,0-.22,1.53c0,.21.09.21.18.05a3.3,3.3,0,0,1,.29-.51c-.06.57.29.14.35-.43a2.61,2.61,0,0,0,0-.69c0-.14-.1-.1-.17,0l-.48.85.18.05.12-.82-.25-.07c-.19.82-.39,1.56-.64,2.34l.25.06c.19-1.06.41-2.05.7-3.12l-.25-.06a35.73,35.73,0,0,1-1,3.46l.22.19,1.26-5.09-.26-.07c-.48,2-1,3.85-1.6,5.74l.25.07a52,52,0,0,1,1.61-6.39l-.22-.19c-.65,2.77-1.35,5.5-2.14,8.21l.22.19c.52-2.35,1.11-4.62,1.81-6.89l-.23-.2c-.5,2.2-1.07,4.29-1.74,6.39l.22.19c.63-2.77,1.32-5.5,2.07-8.24l-.29.06a45.39,45.39,0,0,1-2.14,7.76l.18.3c.69-3,1.47-6,2.37-8.94l-.25-.06a40.7,40.7,0,0,1-1.89,6.88l.21.17a42.49,42.49,0,0,1,1.14-4.71c.15-.43.51-1.63.21-.37-.13.54-.39,1.27-.56,1.77s-.38,1.17-.58,1.62c-.32.73-.23.55-.13,0a16,16,0,0,1,1.5-4l-.13-.39a12.11,12.11,0,0,1-1.32,3.59c-.27.29.15-.43.28-.69a12.77,12.77,0,0,1,.62-1.13l-.09-.53a9.36,9.36,0,0,1-1.36,2.93l.09.47.41-1C118.5,260.46,118.49,259.73,118.26,260.1Z" transform="translate(-117.33 -85.57)"/><path class="cls-1" d="M119.89,261.51a7.17,7.17,0,0,0-1.77,2.95c-.22.55-.12,1,.1.54l1.55-3.28c.2-.43.15-1,0-.64-.68,1.24-1.34,2.57-2,4-.23.5-.12,1,.1.55l1.1-2.36a9.35,9.35,0,0,0,.71-1.61c.43-1.56-.1-2.27.38-3.82l-.27.06c0,1.15-.12,2.32-.21,3.54l.35-.62a11.07,11.07,0,0,1,.46-4.2c.16-.62-.1-.68-.26-.06a13.42,13.42,0,0,0-.54,5.06c0,.29.31-.19.34-.62q.14-1.81.21-3.54c0-.31-.13-.39-.27.06a7.72,7.72,0,0,0-.37,2.54,5.44,5.44,0,0,1,0,1,5.78,5.78,0,0,1-.51,1.41c-.39.93-.82,1.77-1.22,2.62l.1.55c.63-1.4,1.26-2.67,1.9-3.85l-.06-.64c-.51,1.1-1,2.19-1.55,3.29l.1.54a6.37,6.37,0,0,1,1.5-2.54C119.93,262.3,120.1,261.34,119.89,261.51Z" transform="translate(-117.33 -85.57)"/><path class="cls-1" d="M121,252.65c-1.08,3.7-1.38,7.46-.68,8.79.11.22.41-.69.3-.91-.59-1.13-.36-4.39.57-7.56C121.33,252.37,121.14,252,121,252.65Z" transform="translate(-117.33 -85.57)"/><path class="cls-1" d="M120.49,260.92a21.17,21.17,0,0,0-2,3.27c-.22.46-.21,1.19,0,.73a19.71,19.71,0,0,1,1.87-3.12C120.63,261.5,120.71,260.63,120.49,260.92Z" transform="translate(-117.33 -85.57)"/><path class="cls-1" d="M182.94,706.47a10.93,10.93,0,0,1-4.35,0,2.85,2.85,0,0,1-2.17-2.36c0-.26-.56-.4-.84-.25a36,36,0,0,0-6.7,5,.68.68,0,0,0,.29,1.1c2.33.23,3.43,1.18,5.4,1.65.45.1.7.26,1.2,0s.87-1.36,1.16-1.71a7.21,7.21,0,0,1,2.46-2.18,12.92,12.92,0,0,1,3.43-1.1c.59-.16.85-.23.25-.13a14.57,14.57,0,0,0-3.93.92,9.19,9.19,0,0,0-3,2.36,3.34,3.34,0,0,1-1,1.1,4.34,4.34,0,0,1-.53-.26,7.23,7.23,0,0,1-1.84-.81,18.32,18.32,0,0,0-3.52-1c.07.36.17.72.27,1.07a30,30,0,0,1,6.72-5.44l-.84-.21a2.92,2.92,0,0,0,.91,1.76,3.74,3.74,0,0,0,1.76.93,11.54,11.54,0,0,0,4.86-.35C183.55,706.41,183.55,706.4,182.94,706.47Z" transform="translate(-117.33 -85.57)"/><path class="cls-1" d="M176.29,705.61a2.63,2.63,0,0,0-1.61-.84c-.37-.09-.73.26-.6.54a3.43,3.43,0,0,0,3.44,1.81c.49,0,.77-.3.49-.47s-1-.64-1.79-1.13-1.62-.87-2,.12.59,1.55,1.71,1.72a9.38,9.38,0,0,0,3.11-.11c.41-.09.63-.31.34-.39-.9-.24-1.81-.6-3-.88-.76-.13-2.44-.64-3.22-.1s-.34,1.31.5,1.63a7.34,7.34,0,0,0,2.39.37,11.57,11.57,0,0,0,2.42-.25c.93-.21,1.66-.47,1.39-.76s-1.64-.44-3.14-.45a20,20,0,0,0-4.06.41c-.42.08-.53.76-.14.87a9.35,9.35,0,0,0,3.9.18,36.92,36.92,0,0,0,3.8-.87c.44-.12.46-.31,0-.3-1.52.06-2.94,0-4.52,0a35.61,35.61,0,0,0-4.8.32c-.45,0-.75.87-.24,1,2.94,1,5.85,0,8.65-.84.55-.17.37-.4-.13-.36a79.31,79.31,0,0,0-8.35,1c-.55.1-.63,1.05,0,1.09a19.92,19.92,0,0,0,6.76-1.05c.5-.15.64-.57.09-.54a37.28,37.28,0,0,0-7.3.85c-.5.12-.63,1.16,0,1.12a39.8,39.8,0,0,0,8.51-1.74c.5-.16.63-.47.09-.44-1.15.08-2.23.12-3.43.27a14.29,14.29,0,0,0-3.51.86c-.48.19-.37,1,.12,1a21.85,21.85,0,0,0,6.05-1.18c.6-.2.54-.61-.06-.48l-5.08,1.13a.46.46,0,0,0,0,.91,9.93,9.93,0,0,0,3.76-.81c.59-.24.49-.71-.12-.59a11.29,11.29,0,0,0-3.29,1.14.43.43,0,0,0,.21.82,7.94,7.94,0,0,0,2.56-.8c.57-.27.45-.84-.16-.64a2.41,2.41,0,0,0-1.35.91.33.33,0,0,0,.17.53,3.18,3.18,0,0,1,.66.19c-.42.47.33.83.72.33a1.78,1.78,0,0,0,.41-.69.25.25,0,0,0-.22-.33,8.52,8.52,0,0,1-1.08-.27,4.16,4.16,0,0,0,.16.5c.23-.18.45-.36.69-.53a4.61,4.61,0,0,1-.16-.64,7.56,7.56,0,0,1-2.35.54,8,8,0,0,0,.2.81,11,11,0,0,1,3-1.28c-.05-.19-.08-.4-.12-.59a9.78,9.78,0,0,1-3.54.48,6.77,6.77,0,0,0,0,.9l5-1.54a3.93,3.93,0,0,1-.06-.48,21.24,21.24,0,0,1-5.85.67,9.24,9.24,0,0,0,.11.92,20.27,20.27,0,0,1,6.35-1.55c0-.15,0-.3.09-.45a39.4,39.4,0,0,1-8.33,1,10.28,10.28,0,0,0,0,1.11,35.2,35.2,0,0,1,7-1.4,5.21,5.21,0,0,1,.08-.55,19.46,19.46,0,0,1-6.54.5c0,.35,0,.71-.05,1.07a81.05,81.05,0,0,1,8.26-1.66c0-.12-.09-.24-.13-.37-2.56.56-5.31,1.22-7.9.2-.09.33-.16.67-.23,1a33.59,33.59,0,0,1,4.61-.7c1.54-.15,2.95-.24,4.43-.41v-.31a32.48,32.48,0,0,1-3.44.51,8.61,8.61,0,0,1-3.49-.39c-.06.28-.09.56-.13.84a14.9,14.9,0,0,1,4.77-.65c.43,0,1.62,0,.39.15a6.92,6.92,0,0,1-1.76,0,5.51,5.51,0,0,1-1.7-.31c-.75-.36-.57-.26,0-.39a5,5,0,0,1,2.25.24l1.79.5a2.64,2.64,0,0,1,.34-.41c-1.12.13-3.1.21-3.57-.69-.25-.53.45.13.7.25.46.24.75.46,1.14.68a5.55,5.55,0,0,1,.49-.48,3,3,0,0,1-2.76-1.57,7.08,7.08,0,0,0-.59.52c.33.18.66.34,1,.49C175.83,706.37,176.61,705.93,176.29,705.61Z" transform="translate(-117.33 -85.57)"/><path class="cls-1" d="M175.8,710.69a11,11,0,0,0-4-2,.53.53,0,0,0-.36,1,11.09,11.09,0,0,0,4,1c.51,0,.77-.7.33-.79a16,16,0,0,1-4.8-1.94c-.56-.35-1,.69-.43,1a12,12,0,0,0,2.84,1.15,3.1,3.1,0,0,0,1.9.2,3.76,3.76,0,0,0,1.52-1.43,2.54,2.54,0,0,1,1.68-1.06c-.06-.13-.11-.26-.16-.39a13.08,13.08,0,0,0-3,2.42,5.62,5.62,0,0,0,.79.18c.51-1.39,1.91-2.1,3.56-2.5.6-.17.57-.45,0-.35A7.86,7.86,0,0,0,177,708a3.73,3.73,0,0,0-1.72,2c-.15.41.5.54.8.18a12.57,12.57,0,0,1,2.83-2.53c.28-.18.3-.4-.14-.36a3.59,3.59,0,0,0-2.38,1.05c-.24.23-.49.69-.8.88a2,2,0,0,1-1.51,0,8.29,8.29,0,0,1-3-1.38c-.16.33-.29.67-.43,1a17.75,17.75,0,0,0,4.78,1.7c.1-.27.22-.54.34-.79a10.82,10.82,0,0,1-3.9-1.18c-.14.32-.25.65-.36,1a8.32,8.32,0,0,1,3.56,1.69C175.47,711.66,176.18,711,175.8,710.69Z" transform="translate(-117.33 -85.57)"/><path class="cls-1" d="M183.55,706.4a14.29,14.29,0,0,0-5.07,1.33,3.65,3.65,0,0,0-2.06,3.73c.12.5,1,0,.89-.4A3.24,3.24,0,0,1,179,708a13.31,13.31,0,0,1,4.3-1.47C183.89,706.33,184.15,706.31,183.55,706.4Z" transform="translate(-117.33 -85.57)"/><path class="cls-1" d="M177,711.32a24.11,24.11,0,0,1-4.59-1.52c-.57-.27-1.11.66-.49.9a31.17,31.17,0,0,0,4.63,1.44C177.07,712.25,177.49,711.39,177,711.32Z" transform="translate(-117.33 -85.57)"/><path class="cls-2" d="M186.57,718.22" transform="translate(-117.33 -85.57)"/><path class="cls-1" d="M193.24,723.63c-.41,3.41-1.75,6.15-3.54,7.32a.79.79,0,0,0-.11.86,15,15,0,0,1,2.08,6.21c.06.4.38.33.49-.06a11.57,11.57,0,0,1,2.34-4.34,1.75,1.75,0,0,0,.5-1,5.17,5.17,0,0,0-.43-1.9c-.59-2.09-1.23-4.08-.6-6.85.14-.62-.33-1-.47-.33-.73,3.22,0,5.24.61,7.83a3.2,3.2,0,0,1,.24,1.37l-.35.34c-.26.51-.73.89-1,1.39a13.13,13.13,0,0,0-1.28,3.17l.48,0A15.9,15.9,0,0,0,190,731l-.11.85c2-1.29,3.46-4.42,3.9-8.14C193.83,723.06,193.31,723,193.24,723.63Z" transform="translate(-117.33 -85.57)"/><path class="cls-1" d="M190.93,730.64a3.17,3.17,0,0,0-.67,1.72c-.06.38.15.65.33.48a6.85,6.85,0,0,0,1.88-3.56c.12-.5-.13-.83-.37-.54-.41.5-2.51,3.48-1.28,3.91s2.07-3.39,2.24-4.91c.05-.42-.19-.7-.39-.41a10,10,0,0,0-1.42,3.14,7.48,7.48,0,0,0-.37,3.17c.57,1.58,1.62-2,1.85-2.8s1.27-4.45.11-4-1.43,5.8-1.48,7.27c0,.4.32.55.46.18a22.77,22.77,0,0,0,1.37-7.8c0-.47-.39-.54-.5-.06a65.58,65.58,0,0,0-1.46,9.41c0,.43.28.8.45.31a26.21,26.21,0,0,0,1.54-8.69c0-.58-.44-.46-.53.07-.47,2.8-.83,5.6-1.08,8.43-.05.53.34.76.49.19a42.24,42.24,0,0,0,1.16-6.79c.05-.52-.35-.77-.49-.19a47.06,47.06,0,0,0-1.1,7.31c0,.5.38.79.5.2a81.39,81.39,0,0,0,1.27-8.66c.05-.54-.35-.76-.49-.2a29.45,29.45,0,0,0-.91,7.06c0,.48.38.53.5.06a47.63,47.63,0,0,0,1.11-6.13c.07-.64-.44-.7-.52-.06-.21,1.73-.43,3.47-.64,5.2-.07.57.33.71.49.2a19,19,0,0,0,.76-3.8c.06-.65-.41-.69-.52-.06a19.12,19.12,0,0,0-.28,3.45c0,.48.38.52.5.06a13,13,0,0,0,.46-2.65c0-.63-.45-.71-.52-.06a3.45,3.45,0,0,0,.12,1.56c.07.21.25.21.37,0a2.58,2.58,0,0,1,.37-.51c.08.58.59.14.51-.45a1.52,1.52,0,0,0-.23-.7c-.08-.14-.23-.1-.32,0-.21.29-.41.58-.61.88l.37,0-.06-.84-.52-.06a12.46,12.46,0,0,1-.4,2.38l.49.06a18,18,0,0,1,.27-3.18l-.52-.06a17.8,17.8,0,0,1-.7,3.53l.49.2c.21-1.74.43-3.47.64-5.21l-.52-.06a45.94,45.94,0,0,1-1.06,5.87l.5.06a26.65,26.65,0,0,1,.85-6.53l-.5-.2a78.3,78.3,0,0,1-1.22,8.4l.49.19a45.08,45.08,0,0,1,1.05-7l-.49-.19a41.83,41.83,0,0,1-1.12,6.53l.49.19c.25-2.83.62-5.63,1.09-8.42l-.53.06a23.77,23.77,0,0,1-1.38,7.93l.45.31a62.27,62.27,0,0,1,1.41-9.14l-.5-.07a20.88,20.88,0,0,1-1.22,7l.45.18a21.67,21.67,0,0,1,.56-4.82c.12-.43.39-1.67.26-.38a12,12,0,0,1-.44,1.81,12.42,12.42,0,0,1-.56,1.66c-.36.75-.25.57-.26,0a8.72,8.72,0,0,1,1.49-4.06l-.39-.4c-.14,1.16-.56,3.19-1.26,3.68-.42.29.13-.45.28-.71a7.92,7.92,0,0,1,.81-1.16L192,729a5.65,5.65,0,0,1-1.56,3l.33.48.43-1C191.51,731,191.23,730.26,190.93,730.64Z" transform="translate(-117.33 -85.57)"/><path class="cls-1" d="M194.53,732.07a5.3,5.3,0,0,0-2.35,3c-.23.56.12,1,.38.56l1.82-3.37c.24-.43-.08-1-.33-.65a38.63,38.63,0,0,0-2.4,4.13c-.26.51.13,1,.39.56l1.29-2.41a5.85,5.85,0,0,0,.78-1.65c.29-1.6-1-2.32-.6-3.91l-.49.06c.31,1.18.59,2.38.84,3.62l.43-.63a6.42,6.42,0,0,1-.58-4.29c.09-.64-.42-.7-.52-.07a7.77,7.77,0,0,0,.74,5.18c.18.29.52-.2.44-.63-.26-1.24-.53-2.45-.84-3.62-.08-.32-.38-.4-.49,0a4.33,4.33,0,0,0,.17,2.6,4,4,0,0,1,.35,1,3.23,3.23,0,0,1-.47,1.44c-.43.95-1,1.8-1.44,2.68l.39.56a33.68,33.68,0,0,1,2.29-3.94l-.33-.65-1.82,3.36.38.56a4.63,4.63,0,0,1,2-2.6C194.88,732.88,194.87,731.9,194.53,732.07Z" transform="translate(-117.33 -85.57)"/><path class="cls-1" d="M193.5,723c-.78,3.78-.05,7.62,1.75,9,.29.23.55-.71.26-.93-1.53-1.16-2.21-4.48-1.55-7.72C194.09,722.73,193.62,722.4,193.5,723Z" transform="translate(-117.33 -85.57)"/><path class="cls-1" d="M195.48,731.47a14.8,14.8,0,0,0-2.61,3.35c-.27.46,0,1.21.28.75a14,14,0,0,1,2.48-3.21C196,732.06,195.8,731.17,195.48,731.47Z" transform="translate(-117.33 -85.57)"/><path class="cls-1" d="M636.45,662.11a9.64,9.64,0,0,1,1.79,4.33,5.31,5.31,0,0,1-1.15,4c-.22.26,0,.73.32.8a36.23,36.23,0,0,1,7.51,2.59c.42.2.88-.3.75-.69-.78-2.22-.37-3.61-.41-5.71,0-.48.1-.79-.31-1.2s-1.61-.42-2.06-.54a10.32,10.32,0,0,1-3.21-1.25,7.81,7.81,0,0,1-2.53-2.68c-.33-.54-.87-.47-.56.08a8.52,8.52,0,0,0,2.72,3.14,13.77,13.77,0,0,0,3.64,1.62,2.55,2.55,0,0,1,1.38.53l-.12.63a11.91,11.91,0,0,1-.15,2.11,12.16,12.16,0,0,0,.6,3.67l.73-.67a42.91,42.91,0,0,0-7.92-2.59l.35.79a5.78,5.78,0,0,0,1.21-4.55,10.55,10.55,0,0,0-2.15-4.73C636.5,661.3,636.1,661.57,636.45,662.11Z" transform="translate(-117.33 -85.57)"/><path class="cls-1" d="M638.58,669.26a2.49,2.49,0,0,0,.14,1.92.45.45,0,0,0,.8.09,4.68,4.68,0,0,0,0-4.38c-.21-.47-.71-.49-.78-.08a25.22,25.22,0,0,0-.25,2.58c0,1,.17,1.92,1.21,1.53s1.06-1.52.77-2.68a9.31,9.31,0,0,0-1.4-3c-.25-.34-.67-.34-.68,0a12,12,0,0,0,.47,3.56c.24.75.73,2.47,1.58,2.76s1.24-.48,1.16-1.43a9.65,9.65,0,0,0-.65-2.44c-.27-.79-2-4.22-2.74-3-.42.64.12,2,.91,3.42a20.68,20.68,0,0,0,2.36,3.28.47.47,0,0,0,.8-.37,13.86,13.86,0,0,0-4-6.86c-.32-.34-.72-.1-.51.34a50.24,50.24,0,0,0,4.72,8.28c.26.36,1,.24.94-.3-.55-3.08-2.31-5.46-4.44-7.64-.41-.42-.74,0-.48.48a66.88,66.88,0,0,0,4.66,7.11c.32.44,1.12.1.9-.45a21.83,21.83,0,0,0-3.65-5.86c-.35-.4-.94-.21-.68.32a30.27,30.27,0,0,0,3.93,6.27c.32.39,1.2.07.91-.48a41.92,41.92,0,0,0-5-7.2c-.35-.41-.88-.23-.63.29a18.61,18.61,0,0,0,4,5.87.48.48,0,0,0,.76-.55,23.27,23.27,0,0,0-3.36-5.26c-.4-.5-1-.08-.58.44l3.11,4.22a.47.47,0,0,0,.82-.45,10.32,10.32,0,0,0-2.08-3.29c-.43-.48-1,0-.61.49a10.72,10.72,0,0,0,2.31,2.58.45.45,0,0,0,.69-.56,7.52,7.52,0,0,0-1.58-2.17c-.45-.45-1,0-.63.52a2.23,2.23,0,0,0,1.36.86.39.39,0,0,0,.47-.4,2.75,2.75,0,0,1,0-.76c.58.24.77-.65.18-.87a1.63,1.63,0,0,0-.83-.13.36.36,0,0,0-.31.39c0,.4,0,.82,0,1.23l.45-.39-.73-.45-.63.52a7.22,7.22,0,0,1,1.36,2c.23-.18.46-.36.68-.56a10.31,10.31,0,0,1-2.22-2.3l-.61.49a9.82,9.82,0,0,1,1.81,3.13q.41-.21.81-.45l-3.28-4.09-.58.44a23,23,0,0,1,3,5.15c.26-.17.51-.36.75-.54a17,17,0,0,1-3.92-5.29c-.21.11-.42.21-.64.3a41.13,41.13,0,0,1,4.57,7.15c.3-.16.61-.31.91-.48a28.83,28.83,0,0,1-4-5.88c-.22.12-.44.23-.67.33a21.22,21.22,0,0,1,3.3,5.75l.9-.45a68.48,68.48,0,0,1-4.94-6.92l-.47.49a13.65,13.65,0,0,1,3.82,7.1l.93-.3a46.68,46.68,0,0,1-4.91-7.85l-.52.35a12.73,12.73,0,0,1,3.37,6.3l.78-.35a13.32,13.32,0,0,1-2.74-4c-.16-.43-.74-1.56,0-.51a7.29,7.29,0,0,1,.77,1.71,6.5,6.5,0,0,1,.46,1.74c0,.91.05.67-.38.23-.94-1-1-3.33-1-4.33l-.69,0c.66,1,1.61,2.84,1,3.85-.37.6-.11-.46-.1-.79a13,13,0,0,1,.17-1.58l-.79-.08a4,4,0,0,1-.07,3.65l.78.09c0-.4,0-.79-.08-1.19C639.57,669,638.73,668.71,638.58,669.26Z" transform="translate(-117.33 -85.57)"/><path class="cls-1" d="M644,666.55a8,8,0,0,0-.55,4.72.5.5,0,0,0,1-.1,24.24,24.24,0,0,0-.42-4.32c-.11-.54-.93-.5-.9,0,.08,1.76.09,3.58.06,5.49,0,.66,1,.56,1-.08a25.26,25.26,0,0,0-.1-3.15,3.88,3.88,0,0,0-.39-2,2.81,2.81,0,0,0-1.94-.83,2.21,2.21,0,0,1-1.76-1l-.45.48a39.63,39.63,0,0,0,3.67,1.54l0-.89a4.41,4.41,0,0,1-3.91-2.17c-.38-.51-.88-.14-.53.39,1.16,1.77,2.78,2.87,4.7,2.71.46,0,.43-.75,0-.9-1.29-.44-2.51-.92-3.68-1.45-.32-.14-.65.06-.44.47a3,3,0,0,0,2.09,1.64,4.66,4.66,0,0,1,1.17.29c.48.34.49,1,.57,1.47a14.79,14.79,0,0,1,0,3.46l1-.08c0-1.84,0-3.59-.15-5.29h-.9a24.19,24.19,0,0,1,.31,4.3l1-.1a6.56,6.56,0,0,1,.4-4.09C645.05,666.55,644.2,666,644,666.55Z" transform="translate(-117.33 -85.57)"/><path class="cls-1" d="M636.24,661.48a10.19,10.19,0,0,0,3.7,3.95,4.92,4.92,0,0,0,4.73.19c.5-.26-.09-1.06-.56-.81a4.39,4.39,0,0,1-4-.13,8.88,8.88,0,0,1-3.32-3.27C636.45,660.89,635.92,660.93,636.24,661.48Z" transform="translate(-117.33 -85.57)"/><path class="cls-1" d="M644.44,665.06c-.14,1.62-.23,3.35-.24,5.19,0,.63,1,.76,1,.11,0-1.78.05-3.45.18-5.05C645.41,664.74,644.47,664.5,644.44,665.06Z" transform="translate(-117.33 -85.57)"/><path class="cls-1" d="M831.47,342.07a9.68,9.68,0,0,1-1.53,4.61,20.92,20.92,0,0,1-2.77,3.59c-.23.24,0,.72.26.83a6.15,6.15,0,0,1,3.54,5.44c0,.39.23.3.34-.09a5.84,5.84,0,0,1,2.83-4c.35-.23.62-.26.87-.78s-.12-1.63-.27-2.08c-.33-1.18-.88-2.32-1.28-3.49a5.14,5.14,0,0,1-.1-3.73c.27-.61-1-1-1.24-.41a5.81,5.81,0,0,0,.35,4.2A25.8,25.8,0,0,1,834,350.1a2.08,2.08,0,0,1,.16,1.44l-.51.23a17.82,17.82,0,0,0-1.38,1.21,7.47,7.47,0,0,0-1.23,3.17l.35-.08a6.41,6.41,0,0,0-3.79-5.91l.23.83a26.82,26.82,0,0,0,3-3.82,11.49,11.49,0,0,0,2-5C832.87,341.52,831.48,341.42,831.47,342.07Z" transform="translate(-117.33 -85.57)"/><path class="cls-1" d="M828.87,349.41a2.16,2.16,0,0,0-.35,1.88c.07.38.41.55.59.34a9.39,9.39,0,0,0,2-3.87.49.49,0,0,0-.8-.5,6.41,6.41,0,0,0-1.54,2.26c-.35,1-.27,1.84.58,1.86s1.27-.86,1.75-2a11.9,11.9,0,0,0,.87-3.2.53.53,0,0,0-.88-.4,5.16,5.16,0,0,0-1.77,3.34c-.12.8-.12,2.56.36,3.17s.83.15,1.21-.66.75-1.92.9-2.34a17.72,17.72,0,0,0,.74-2.43c.19-.95,0-1.82-1.2-1.6s-1.51,1.8-1.44,3.37.37,3.28.46,4c.06.39.43.5.55.12.75-2.54,1.6-5.06,1.12-7.85-.08-.48-1-.55-1.1-.06a32,32,0,0,0-.45,9.52c0,.42.32.76.44.25.72-2.82,1.72-5.62,1.32-8.73-.07-.59-1-.49-1.05.06a70.82,70.82,0,0,0-.35,8.49c0,.53.34.74.46.16a49,49,0,0,0,1.26-6.77c.05-.54-.76-.82-.91-.24a28.43,28.43,0,0,0-.71,7.36c0,.51.31.76.42.17a80.41,80.41,0,0,0,1.41-8.63c0-.54-.81-.82-1-.25a18.7,18.7,0,0,0-.57,7.1c0,.47.4.51.54.05a60.22,60.22,0,0,0,1.49-6.06.49.49,0,1,0-1-.14l-.59,5.21c-.06.57.38.71.58.22a17.15,17.15,0,0,0,1.17-3.7.45.45,0,1,0-.87-.17,15.46,15.46,0,0,0-.33,3.45c0,.49.41.56.61.13a10.92,10.92,0,0,0,.82-2.56c.12-.62-.71-.84-.81-.18a2.86,2.86,0,0,0,.15,1.6.29.29,0,0,0,.49.12,2,2,0,0,1,.58-.4c0,.6.8.36.8-.25a1.28,1.28,0,0,0-.23-.8.36.36,0,0,0-.51-.08,9.87,9.87,0,0,0-1,.72l.53.13,0-.86c-.27-.06-.54-.14-.81-.18a9.3,9.3,0,0,1-.58,2.35l.63.13a13.48,13.48,0,0,1,.53-3.15c-.29-.07-.58-.11-.87-.17a15.88,15.88,0,0,1-.85,3.52,6,6,0,0,1,.59.22l.94-5.16c-.32-.06-.65-.11-1-.14a54.75,54.75,0,0,1-1,5.88,5.14,5.14,0,0,1,.55.06,17.17,17.17,0,0,1,1-6.51c-.33-.09-.66-.18-1-.25a74.33,74.33,0,0,1-.79,8.45c.15.06.3.1.44.17a28,28,0,0,1,1.14-7l-.91-.23a45.07,45.07,0,0,1-.76,6.59c.16,0,.31.11.47.16a68.64,68.64,0,0,1,.92-8.45c-.35,0-.7,0-1,.06.54,2.78-.16,5.44-.69,8,.16.08.31.18.46.26a31.38,31.38,0,0,1,1-9.2c-.36,0-.72,0-1.08,0,.58,2.46,0,4.82-.55,7.13l.57.12a14.56,14.56,0,0,1,.09-4.84c.14-.45.44-1.7.41-.4A9,9,0,0,1,831,349a12.52,12.52,0,0,1-.55,1.7c-.35.8-.22.6-.37,0a3.58,3.58,0,0,1,.32-2.31,5.8,5.8,0,0,1,1.4-1.86q-.42-.21-.87-.39c0,1.18-.38,3.2-1.27,3.84-.55.38.06-.47.24-.76A5.07,5.07,0,0,1,831,348q-.37-.25-.78-.48a7.07,7.07,0,0,1-1.58,3.35,5.11,5.11,0,0,1,.6.34c.09-.38.19-.76.3-1.13C829.89,349.6,829.23,348.93,828.87,349.41Z" transform="translate(-117.33 -85.57)"/><path class="cls-1" d="M834.47,351a3.61,3.61,0,0,0-3.13,2.63c-.19.57.14,1,.4.55a12,12,0,0,1,2.49-3c.41-.34,0-1.06-.39-.76a8.5,8.5,0,0,0-3,3.94c-.18.53.17,1,.38.53a11.45,11.45,0,0,1,1.43-2.35,7.71,7.71,0,0,0,1.19-1.48,2.18,2.18,0,0,0-.39-2.06c-.37-.65-.84-1.27-.55-2.05H832a11.31,11.31,0,0,1,1.52,3.8c.23-.17.47-.34.72-.5a5.87,5.87,0,0,1-1-4.54c.15-.64-1-.78-1.09-.14a7.84,7.84,0,0,0,1.48,5.39c.22.34.77,0,.71-.49a11.51,11.51,0,0,0-1.38-3.92c-.2-.33-.82-.46-1,0a3.15,3.15,0,0,0,.57,2.64c.18.32.55.72.56,1.09,0,.57-.46,1-.7,1.38a17.39,17.39,0,0,0-1.54,2.68,5.08,5.08,0,0,1,.38.53,8.43,8.43,0,0,1,2.9-3.63,7.79,7.79,0,0,0-.39-.76,12.23,12.23,0,0,0-2.41,3.16,6.36,6.36,0,0,1,.4.55,3.19,3.19,0,0,1,2.57-2.21C834.78,351.9,835,350.93,834.47,351Z" transform="translate(-117.33 -85.57)"/><path class="cls-1" d="M832,341.46a8.33,8.33,0,0,0,.76,5.48,16.44,16.44,0,0,0,2.76,4.28c.34.37,1-.36.63-.77a12.48,12.48,0,0,1-2.43-3.84,6.89,6.89,0,0,1-.44-4.75C833.48,341.24,832.15,340.82,832,341.46Z" transform="translate(-117.33 -85.57)"/><path class="cls-1" d="M836,350.83a6.08,6.08,0,0,0-3.87,2.5c-.3.46-.07,1.21.23.78a5.77,5.77,0,0,1,3.58-2.33C836.44,351.68,836.53,350.75,836,350.83Z" transform="translate(-117.33 -85.57)"/><path class="cls-1" d="M818.09,241a8.22,8.22,0,0,1-6.1,6.54c-.35.08-.41.61-.19.84a14.38,14.38,0,0,1,3.58,6.84.45.45,0,0,0,.84.06c1.07-2.05,2.31-2.64,4-3.81.4-.27.73-.33.87-.9s-.55-1.6-.75-2c-1-2.28-2.11-4.46-1-7.11.24-.59-.56-1-.8-.45-1.26,3.08,0,5.33,1,8.11a2.34,2.34,0,0,1,.4,1.45l-.6.25c-.45.46-1.25.72-1.76,1.16a9.39,9.39,0,0,0-2.21,2.89l.84.07a15.26,15.26,0,0,0-3.82-7.26l-.19.84a9.2,9.2,0,0,0,6.73-7.28A.46.46,0,1,0,818.09,241Z" transform="translate(-117.33 -85.57)"/><path class="cls-1" d="M814.1,247.56a2.25,2.25,0,0,0-1.15,1.58.46.46,0,0,0,.58.57,5.6,5.6,0,0,0,3.23-3.14c.21-.47-.23-.88-.63-.64-.71.4-4.33,2.9-2.22,3.65,1.93.69,3.57-2.92,3.88-4.42a.45.45,0,0,0-.68-.51,7.45,7.45,0,0,0-2.45,2.82c-.36.73-1.08,2.35-.65,3.13,1,1.75,2.79-1.6,3.21-2.38s2.18-4.19.18-4.05-2.47,5.53-2.55,7a.45.45,0,0,0,.79.3,13.41,13.41,0,0,0,2.37-7.57.45.45,0,0,0-.86-.2,37.52,37.52,0,0,0-2.53,9.19c-.06.43.47.88.78.43a15.29,15.29,0,0,0,2.65-8.43c0-.6-.75-.58-.9-.07a60.25,60.25,0,0,0-1.88,8.29c-.08.53.59.86.84.32a24.5,24.5,0,0,0,2-6.6c.08-.52-.62-.87-.85-.32a26.68,26.68,0,0,0-1.89,7.15c-.07.5.63.89.84.32a46.7,46.7,0,0,0,2.21-8.47c.08-.53-.6-.86-.85-.32a16.92,16.92,0,0,0-1.58,6.93.45.45,0,0,0,.86.19,27.3,27.3,0,0,0,1.92-5.94.46.46,0,1,0-.89-.2l-1.11,5.12a.46.46,0,0,0,.85.33A11.27,11.27,0,0,0,819,248a.46.46,0,1,0-.89-.19,10.79,10.79,0,0,0-.49,3.43.45.45,0,0,0,.86.19,8,8,0,0,0,.79-2.57c.08-.63-.77-.84-.89-.2a2.27,2.27,0,0,0,.2,1.62.44.44,0,0,0,.63.14,2.3,2.3,0,0,1,.65-.43c.14.61,1,.29.87-.32a1.45,1.45,0,0,0-.39-.78.43.43,0,0,0-.56,0l-1,.74.63.14-.1-.87-.89-.2a7.17,7.17,0,0,1-.7,2.32l.86.19A9.74,9.74,0,0,1,819,248l-.89-.19a10.54,10.54,0,0,1-1.22,3.41l.84.32,1.11-5.12-.89-.2a26.24,26.24,0,0,1-1.83,5.69l.86.19a15.29,15.29,0,0,1,1.46-6.41l-.84-.33a44.92,44.92,0,0,1-2.12,8.22l.85.32a25.21,25.21,0,0,1,1.81-6.89l-.85-.33a23.45,23.45,0,0,1-1.93,6.35l.85.33A60.25,60.25,0,0,1,818,245l-.91-.07a14,14,0,0,1-2.39,7.71l.77.43a36.26,36.26,0,0,1,2.44-8.93l-.86-.2a12.09,12.09,0,0,1-2.11,6.84l.79.3a12.21,12.21,0,0,1,1-4.75c.22-.42.69-1.6.45-.33a6.85,6.85,0,0,1-.76,1.73,7.85,7.85,0,0,1-.95,1.55c-.63.67-.44.51-.46-.11,0-1.39,1.67-3.08,2.58-3.73l-.68-.52c-.24,1.15-1,3.11-2.17,3.42-.72.19.23-.42.48-.64a7.77,7.77,0,0,1,1.39-1l-.64-.64a4.66,4.66,0,0,1-2.7,2.65l.58.57.74-1A.48.48,0,0,0,814.1,247.56Z" transform="translate(-117.33 -85.57)"/><path class="cls-1" d="M820.3,249.93a6,6,0,0,0-4,2.47c-.39.52.21,1.09.66.66l3.14-2.95c.41-.38-.13-1.06-.57-.75a31.82,31.82,0,0,0-4.13,3.59.47.47,0,1,0,.66.66l2.22-2.12c.44-.42,1.16-.86,1.36-1.48.49-1.55-1.69-2.6-1-4.12l-.84-.06c.53,1.27,1,2.57,1.43,3.89l.76-.53a4.66,4.66,0,0,1-1-4.51.46.46,0,1,0-.89-.2,5.7,5.7,0,0,0,1.25,5.45c.32.34.91-.07.76-.53-.43-1.33-.9-2.62-1.43-3.89-.15-.35-.66-.51-.84-.07a2.84,2.84,0,0,0,.29,2.68c.16.32.57.76.59,1.12,0,.58-.5,1-.81,1.35-.73.85-1.67,1.59-2.47,2.36l.66.66a31.25,31.25,0,0,1,4-3.42l-.57-.74-3.14,3,.66.66a5.08,5.08,0,0,1,3.42-2.13C820.91,250.84,820.89,249.85,820.3,249.93Z" transform="translate(-117.33 -85.57)"/><path class="cls-1" d="M818.54,240.47a7.93,7.93,0,0,0,3,9.58c.51.3,1-.59.44-.89a6.9,6.9,0,0,1-2.64-8.24C819.56,240.33,818.76,239.87,818.54,240.47Z" transform="translate(-117.33 -85.57)"/><path class="cls-1" d="M821.93,249.56a16.41,16.41,0,0,0-4.49,2.74c-.46.4,0,1.24.48.83a15.18,15.18,0,0,1,4.28-2.62C822.75,250.28,822.49,249.34,821.93,249.56Z" transform="translate(-117.33 -85.57)"/><path class="cls-1" d="M819.71,263.75a11.68,11.68,0,0,1-5.61,6.19c-.23.1-.33.62-.23.83a9.85,9.85,0,0,1,.43,6.4c-.09.39.16.37.37,0a9,9,0,0,1,3.47-3.38,1.87,1.87,0,0,0,.86-.74,4.3,4.3,0,0,0,.28-1.94c.17-2.2-.14-4.42,1.38-6.83.35-.54-.22-1.09-.56-.54-1.69,2.84-1.18,5.13-1.51,7.8a2.82,2.82,0,0,1-.26,1.37l-.45.18c-.42.39-1,.59-1.4,1a11.28,11.28,0,0,0-2.05,2.7l.39,0a10.21,10.21,0,0,0-.44-6.82l-.24.83a11.08,11.08,0,0,0,3.35-2.49,15.26,15.26,0,0,0,2.92-4.31C820.67,263.45,820,263.15,819.71,263.75Z" transform="translate(-117.33 -85.57)"/><path class="cls-1" d="M815.46,269.87a2.91,2.91,0,0,0-1,1.56c-.13.36,0,.66.24.53a8.1,8.1,0,0,0,2.76-3c.26-.44,0-.85-.3-.64a8.59,8.59,0,0,0-1.8,1.61c-.61.75-1,1.55-.41,1.89s1.2-.39,1.9-1.32a15.46,15.46,0,0,0,1.68-2.82c.16-.39-.07-.76-.38-.54a7.4,7.4,0,0,0-2.31,2.64,7.47,7.47,0,0,0-1,3c.08.83.55.43,1.11-.24s1.19-1.63,1.43-2c.41-.67,2.68-3.81,1.14-3.85s-2.89,5.24-3.34,6.63c-.11.39.14.6.36.28a22.8,22.8,0,0,0,3.5-7.11c.12-.46-.37-.68-.61-.25a51,51,0,0,0-3.81,8.72c-.14.41,0,.82.28.39a28.11,28.11,0,0,0,3.92-7.91c.16-.56-.42-.62-.65-.13-1.22,2.56-2.27,5.18-3.27,7.84-.19.5,0,.8.34.29a51.23,51.23,0,0,0,3.12-6.14c.21-.49-.2-.88-.49-.37a42.62,42.62,0,0,0-3.07,6.73c-.17.48,0,.83.33.29,1.36-2.58,2.69-5.16,3.81-7.88.21-.49-.22-.87-.53-.38a26.81,26.81,0,0,0-2.84,6.52c-.14.46.17.6.41.19a57.61,57.61,0,0,0,3-5.48c.28-.58-.31-.86-.57-.27l-2.13,4.79c-.24.53.07.76.38.33a21.26,21.26,0,0,0,1.95-3.35c.28-.59-.23-.82-.53-.25a19.26,19.26,0,0,0-1.32,3.2c-.15.46.16.6.43.21a14,14,0,0,0,1.33-2.33c.26-.58-.24-.86-.51-.26a3.52,3.52,0,0,0-.38,1.53c0,.22.17.28.34.17a2,2,0,0,1,.53-.35c-.13.58.52.36.67-.21a1.38,1.38,0,0,0,0-.75c0-.16-.2-.19-.34-.1l-.9.6.34.18.23-.81-.51-.26a13.25,13.25,0,0,1-1.14,2.14l.44.21a18.46,18.46,0,0,1,1.3-2.92l-.53-.25a18.9,18.9,0,0,1-1.74,3.16l.38.32,2.26-4.73-.57-.27a53.1,53.1,0,0,1-2.71,5.32l.42.19a25.17,25.17,0,0,1,2.78-6l-.52-.38c-1,2.66-2.23,5.2-3.49,7.73l.34.29a40.72,40.72,0,0,1,3.1-6.41l-.5-.37a48.25,48.25,0,0,1-2.85,6l.35.29c1.07-2.63,2.19-5.22,3.48-7.75l-.65-.13a25.27,25.27,0,0,1-3.39,7.3l.29.39a50.89,50.89,0,0,1,3.9-8.4l-.6-.25a20.36,20.36,0,0,1-3,6.49l.37.28a21.15,21.15,0,0,1,1.8-4.5c.25-.39.88-1.49.4-.29a12.24,12.24,0,0,1-.94,1.62,13.57,13.57,0,0,1-1,1.45c-.54.64-.39.49-.26-.1A6.85,6.85,0,0,1,818.3,268l-.37-.54c-.44,1.09-1.4,2.92-2.23,3.23-.49.18.23-.41.45-.62a6,6,0,0,1,1.15-.9l-.29-.64a6.46,6.46,0,0,1-2.3,2.55l.25.53.65-.92C816,270.37,815.87,269.57,815.46,269.87Z" transform="translate(-117.33 -85.57)"/><path class="cls-1" d="M818.75,272.4a4.38,4.38,0,0,0-3.16,2.09c-.36.48-.22,1,.15.62a29.8,29.8,0,0,1,2.79-2.58c.39-.3.29-1-.09-.73A16,16,0,0,0,815,275c-.35.43-.2,1,.15.61.59-.67,1.22-1.32,1.88-1.94a6.81,6.81,0,0,0,1.3-1.28c.88-1.38-.24-2.56.6-3.94l-.58-.13a21.71,21.71,0,0,1-.19,3.77l.65-.43a6.55,6.55,0,0,1,.71-4.33c.29-.57-.34-.86-.61-.28a8.27,8.27,0,0,0-.75,5.24c.07.34.58,0,.66-.42a21.87,21.87,0,0,0,.24-3.79c0-.33-.34-.54-.58-.13a4.06,4.06,0,0,0-.53,2.57,1.94,1.94,0,0,1-.88,2.3c-.7.76-1.44,1.44-2.07,2.18l.15.61a15.86,15.86,0,0,1,3.35-3l-.1-.73a29.82,29.82,0,0,0-2.76,2.62l.15.62a3.9,3.9,0,0,1,2.66-1.8C818.78,273.28,819.15,272.38,818.75,272.4Z" transform="translate(-117.33 -85.57)"/><path class="cls-1" d="M820.21,263.26a12.1,12.1,0,0,0-1.47,5.22,7.7,7.7,0,0,0,.73,4.15c.19.33.83-.4.63-.74a6.49,6.49,0,0,1-.65-3.61,10,10,0,0,1,1.33-4.48C821.11,263.26,820.53,262.7,820.21,263.26Z" transform="translate(-117.33 -85.57)"/><path class="cls-1" d="M819.91,272.25a9,9,0,0,0-3.64,2.16c-.38.37-.4,1.14,0,.78a8.87,8.87,0,0,1,3.44-2.06C820.12,273,820.36,272.12,819.91,272.25Z" transform="translate(-117.33 -85.57)"/><path class="cls-1" d="M675.92,334.86a10.82,10.82,0,0,1-1.29,4.58,10.38,10.38,0,0,1-2.58,3.2c-.23.18-.12.7.09.86a8.79,8.79,0,0,1,3.19,5.82c.06.4.34.31.44-.08a7.71,7.71,0,0,1,2.57-4.24c.3-.29.54-.37.68-.94a3.78,3.78,0,0,0-.47-2c-.72-2.2-2-4.21-1.28-7,.18-.61-.73-1-.89-.34-.76,3.24.82,5.25,1.55,7.93a2.47,2.47,0,0,1,.27,1.4l-.44.3c-.33.5-.89.84-1.21,1.35a9.43,9.43,0,0,0-1.22,3.2l.45-.08a9.13,9.13,0,0,0-3.38-6.26l.07.86a11.58,11.58,0,0,0,2.83-3.5,12.69,12.69,0,0,0,1.56-5A.47.47,0,1,0,675.92,334.86Z" transform="translate(-117.33 -85.57)"/><path class="cls-1" d="M673.59,342.07a2.47,2.47,0,0,0-.5,1.81c0,.39.32.61.51.41a7.58,7.58,0,0,0,1.92-3.75c.12-.5-.31-.82-.62-.51a8,8,0,0,0-1.4,2.13c-.38.93-.44,1.8.33,1.92s1.22-.78,1.64-1.89a12.58,12.58,0,0,0,.75-3.2c0-.42-.4-.7-.67-.4a6.54,6.54,0,0,0-1.56,3.26c-.14.79-.33,2.54.08,3.19s.82.21,1.18-.6.68-1.92.81-2.34c.19-.77,1.51-4.47-.31-4s-1.12,5.9-1.06,7.36c0,.4.42.52.54.14a18.66,18.66,0,0,0,1-7.85.41.41,0,0,0-.82-.05,41.31,41.31,0,0,0-.71,9.49c0,.44.35.78.49.28a23.29,23.29,0,0,0,1.19-8.75c0-.59-.75-.46-.81.08a82.78,82.78,0,0,0-.47,8.48c0,.53.39.74.51.17a43,43,0,0,0,1-6.82c0-.53-.61-.78-.74-.19a34.79,34.79,0,0,0-.7,7.36c0,.5.4.76.5.17a74.31,74.31,0,0,0,1.09-8.68c0-.54-.62-.78-.78-.2a21.94,21.94,0,0,0-.53,7.09c0,.48.44.51.55,0a50,50,0,0,0,1.13-6.14c.07-.64-.72-.73-.77-.08l-.46,5.22c0,.58.41.71.58.2a17.47,17.47,0,0,0,.86-3.78c.07-.65-.62-.72-.73-.09a16.75,16.75,0,0,0-.19,3.46c0,.48.44.53.59.08a11.74,11.74,0,0,0,.56-2.63c.06-.63-.63-.76-.7-.1a3,3,0,0,0,.21,1.57.26.26,0,0,0,.45.08,2.24,2.24,0,0,1,.48-.49c.09.6.75.22.68-.37a1.44,1.44,0,0,0-.28-.75.28.28,0,0,0-.44,0c-.27.27-.54.55-.79.83l.47.08-.08-.85-.7-.1a9.51,9.51,0,0,1-.42,2.38l.6.08a14.21,14.21,0,0,1,.29-3.18l-.73-.09a15.85,15.85,0,0,1-.68,3.54l.58.2.62-5.21-.77-.08a46.53,46.53,0,0,1-.89,5.91l.56,0a20,20,0,0,1,.7-6.54l-.77-.2a70,70,0,0,1-.77,8.44l.5.18a33.63,33.63,0,0,1,.89-7.08l-.73-.19a39,39,0,0,1-.77,6.58l.52.17a82.75,82.75,0,0,1,.76-8.47l-.81.08a20.67,20.67,0,0,1-.84,8l.5.28a40.65,40.65,0,0,1,1-9.21l-.81-.05a16.72,16.72,0,0,1-.71,7.12l.55.14a16.77,16.77,0,0,1,.18-4.85c.12-.44.38-1.69.33-.39a9.48,9.48,0,0,1-.4,1.83,12.06,12.06,0,0,1-.52,1.7c-.35.78-.24.59-.34,0-.27-1.36.8-3.37,1.55-4.15l-.67-.39c0,1.18-.38,3.22-1.2,3.78-.5.35.09-.45.25-.73a6.11,6.11,0,0,1,.95-1.23l-.61-.51a6,6,0,0,1-1.57,3.2c.18.13.34.27.51.41l.36-1.09C674.44,342.35,673.93,341.64,673.59,342.07Z" transform="translate(-117.33 -85.57)"/><path class="cls-1" d="M678.45,343.45a4.3,4.3,0,0,0-2.77,2.92c-.2.57.18,1,.44.55a24.15,24.15,0,0,1,2.14-3.27c.32-.41-.08-1-.41-.69a14,14,0,0,0-2.68,4.11c-.22.53.2,1,.43.53a23.84,23.84,0,0,1,1.35-2.41,6.21,6.21,0,0,0,1-1.6c.44-1.59-1.36-2.41-1-4l-.73.05a18.09,18.09,0,0,1,1.36,3.68l.58-.6a5.74,5.74,0,0,1-1-4.37.42.42,0,1,0-.83-.08,7.34,7.34,0,0,0,1.34,5.24c.22.31.68-.14.58-.59a18.67,18.67,0,0,0-1.3-3.72c-.16-.32-.63-.41-.74,0a3.46,3.46,0,0,0,.47,2.62c.15.29.49.67.51,1a2.72,2.72,0,0,1-.56,1.43c-.48.94-1,1.82-1.47,2.72l.43.53a13.69,13.69,0,0,1,2.59-3.86c-.13-.24-.27-.47-.41-.69a25,25,0,0,0-2.1,3.32l.44.55a3.76,3.76,0,0,1,2.3-2.49C678.85,344.31,678.91,343.33,678.45,343.45Z" transform="translate(-117.33 -85.57)"/><path class="cls-1" d="M676.29,334.24a10,10,0,0,0,.52,5.44,8.66,8.66,0,0,0,2.57,3.82c.35.28.79-.59.42-.88a7.44,7.44,0,0,1-2.25-3.35,8.21,8.21,0,0,1-.36-4.68C677.35,334,676.42,333.61,676.29,334.24Z" transform="translate(-117.33 -85.57)"/><path class="cls-1" d="M679.72,343a8.52,8.52,0,0,0-3.28,3.07c-.29.47,0,1.21.3.76a8.25,8.25,0,0,1,3.09-2.91C680.28,343.71,680.19,342.79,679.72,343Z" transform="translate(-117.33 -85.57)"/><path class="cls-1" d="M208.64,425.67a8,8,0,0,1-1.5,4.73,21.53,21.53,0,0,1-3.47,4c-.31.28,0,.74.3.81a7.12,7.12,0,0,1,5.41,5c.14.38.5.29.6-.1.57-2.2,1.62-3,3.42-4.07.42-.25.78-.27,1-.82s-.53-1.68-.81-2.13c-.64-1.19-1.5-2.31-2.13-3.45a4.33,4.33,0,0,1-.55-3.72c.23-.63-1.3-1-1.49-.31a4.91,4.91,0,0,0,.83,4.15,42.22,42.22,0,0,1,2.43,3.85,2,2,0,0,1,.5,1.47c-.22.08-.43.15-.64.24-.47.46-1.26.76-1.7,1.27a6.63,6.63,0,0,0-1.46,3.23l.62-.1a7.52,7.52,0,0,0-5.79-5.46l.27.82a24.84,24.84,0,0,0,3.81-4.19,9.43,9.43,0,0,0,1.93-5.14C210.21,425,208.6,425,208.64,425.67Z" transform="translate(-117.33 -85.57)"/><path class="cls-1" d="M205.9,433.25a2,2,0,0,0-.47,1.95.5.5,0,0,0,.81.25,8.11,8.11,0,0,0,2.45-4.09c.12-.5-.6-.79-1-.42a7.5,7.5,0,0,0-1.88,2.43c-.44,1-.38,1.9.79,1.8s1.73-1,2.25-2.16a9,9,0,0,0,.81-3.25c0-.42-.73-.68-1.12-.34a5.36,5.36,0,0,0-2,3.51c-.12.82-.12,2.59.57,3.14s1.23.05,1.68-.8a20.71,20.71,0,0,0,1-2.4,12.59,12.59,0,0,0,.67-2.48c.11-1-.19-1.82-1.63-1.51s-1.73,1.94-1.56,3.5a29.9,29.9,0,0,0,.84,4,.43.43,0,0,0,.81.07c.88-2.59,1.56-5.17.71-7.92-.14-.47-1.23-.47-1.33,0a26.15,26.15,0,0,0,.1,9.54c.07.41.58.72.73.2.85-2.87,1.67-5.72.86-8.81-.16-.58-1.26-.4-1.29.15a52.33,52.33,0,0,0,.28,8.49c.06.52.64.7.76.12a30.24,30.24,0,0,0,.86-6.85c0-.53-1-.76-1.18-.16a21.84,21.84,0,0,0-.23,7.39c.06.51.64.73.72.14a52,52,0,0,0,.79-8.72c0-.54-1.09-.76-1.26-.17a14.19,14.19,0,0,0,0,7.12.41.41,0,0,0,.81,0,34.72,34.72,0,0,0,1.15-6.15c.06-.66-1.22-.74-1.23-.08l-.15,5.24a.45.45,0,0,0,.87.19,11.8,11.8,0,0,0,1-3.77c.05-.67-1-.75-1.14-.12a10.63,10.63,0,0,0,0,3.47.46.46,0,0,0,.88.11,7.7,7.7,0,0,0,.65-2.62c0-.63-1.05-.81-1.08-.14a2.29,2.29,0,0,0,.44,1.6.52.52,0,0,0,.7.11,2.23,2.23,0,0,1,.69-.43.52.52,0,0,0,1-.27,1.38,1.38,0,0,0-.47-.81.57.57,0,0,0-.67-.07c-.4.24-.78.5-1.15.77a6.17,6.17,0,0,1,.73.12l-.19-.88c-.36-.05-.72-.11-1.08-.14a6.92,6.92,0,0,1-.43,2.39c.3,0,.6.06.9.11a9.8,9.8,0,0,1,.18-3.2c-.38-.06-.76-.08-1.14-.12a11.14,11.14,0,0,1-.69,3.57c.29.05.59.11.88.19l.48-5.22c-.41-.05-.82-.07-1.23-.08a33,33,0,0,1-.73,5.94l.83,0a13.1,13.1,0,0,1,.42-6.57c-.41-.06-.83-.13-1.25-.16a49,49,0,0,1-.21,8.48c.25.05.49.07.73.14a21.78,21.78,0,0,1,.64-7.1c-.39-.07-.78-.13-1.17-.17a28.3,28.3,0,0,1-.41,6.63c.26,0,.51.08.76.12a53.52,53.52,0,0,1,.26-8.49c-.43,0-.86.08-1.28.14.89,2.73.37,5.43-.3,8.07l.75.21a25.73,25.73,0,0,1,.45-9.25c-.44,0-.88,0-1.31,0,.89,2.4.49,4.8-.2,7.17.27,0,.55,0,.83.06-.28-1.44-.75-3.37-.3-4.84.13-.46.4-1.72.48-.43a6.41,6.41,0,0,1-.42,1.87,9.23,9.23,0,0,1-.59,1.75c-.43.84-.27.63-.51.05a2.94,2.94,0,0,1,.29-2.34,6.27,6.27,0,0,1,1.61-2c-.37-.12-.73-.23-1.11-.33.09,1.18-.22,3.23-1.39,4-.71.44.07-.48.29-.79a6.32,6.32,0,0,1,1.32-1.37c-.33-.15-.68-.29-1-.41a6.21,6.21,0,0,1-1.94,3.54c.28.08.55.16.82.26.11-.39.24-.79.38-1.17C207.23,433.32,206.35,432.72,205.9,433.25Z" transform="translate(-117.33 -85.57)"/><path class="cls-1" d="M213.5,434.39a4.41,4.41,0,0,0-3.91,2.77c-.23.58.36,1,.69.53a15.17,15.17,0,0,1,2.94-3.13c.46-.36-.18-1.09-.67-.77a10.37,10.37,0,0,0-3.63,4.1c-.25.55.39,1,.67.5a15.35,15.35,0,0,1,1.76-2.42c.4-.46,1.14-.91,1.35-1.53s-.27-1.45-.86-2.07-1.24-1.22-1-2c-.39,0-.78,0-1.16.07a13.73,13.73,0,0,1,2.48,3.72l.84-.54a5.2,5.2,0,0,1-2-4.5c.1-.65-1.29-.71-1.33-.06-.14,2.12,1,3.87,2.6,5.31a.52.52,0,0,0,.84-.53,13.85,13.85,0,0,0-2.35-3.86c-.28-.32-1-.41-1.18.07-.28,1.08.29,1.76,1,2.6.26.3.82.68.88,1.06.11.58-.45,1-.72,1.42a28,28,0,0,0-1.91,2.77c.24.16.46.34.67.5a9.93,9.93,0,0,1,3.52-3.75,9.72,9.72,0,0,0-.66-.76,15.42,15.42,0,0,0-2.86,3.28c.24.17.47.35.69.53a3.77,3.77,0,0,1,3.22-2.3C214.13,435.36,214.17,434.36,213.5,434.39Z" transform="translate(-117.33 -85.57)"/><path class="cls-1" d="M209.17,425a7,7,0,0,0,1.46,5.4,18,18,0,0,0,4.26,4.23.5.5,0,1,0,.6-.81,14.79,14.79,0,0,1-3.72-3.81,5.79,5.79,0,0,1-1.08-4.71C210.89,424.69,209.32,424.37,209.17,425Z" transform="translate(-117.33 -85.57)"/><path class="cls-1" d="M215.39,434.24a7.82,7.82,0,0,0-4.72,2.62c-.37.47.12,1.21.5.78a7.3,7.3,0,0,1,4.39-2.4A.51.51,0,1,0,215.39,434.24Z" transform="translate(-117.33 -85.57)"/><path class="cls-1" d="M131,233.26a8.33,8.33,0,0,1-1.52,4.5,6.65,6.65,0,0,1-3.95,2.52.5.5,0,0,0-.17.85,24.2,24.2,0,0,1,5.17,6.6.64.64,0,0,0,1.08-.07c.84-2.21,2.17-3,3.74-4.63.37-.37.71-.52.68-1.1s-1.07-1.38-1.39-1.76c-1.68-1.94-3-3.91-2.49-6.71.11-.63-.63-.93-.76-.31-.73,3.24.77,5.29,2.58,7.74a2.45,2.45,0,0,1,.82,1.31l-.59.4c-.37.55-1.22,1-1.7,1.51a10.37,10.37,0,0,0-2,3.23l1.06-.07a26.82,26.82,0,0,0-5.54-6.89l-.16.85a7.28,7.28,0,0,0,4.37-2.89,9.14,9.14,0,0,0,1.57-5C131.85,232.67,131.07,232.62,131,233.26Z" transform="translate(-117.33 -85.57)"/><path class="cls-1" d="M127.85,240.2a2.23,2.23,0,0,0-1.13,1.64.53.53,0,0,0,.71.55,5,5,0,0,0,3.1-3.46.48.48,0,0,0-.75-.55,17.65,17.65,0,0,0-2.07,1.89c-.72.81-1.1,1.65.14,2s2-.56,2.61-1.65a8.21,8.21,0,0,0,.87-3.19.45.45,0,0,0-.74-.41,9.06,9.06,0,0,0-2.16,3.09c-.29.75-.94,2.43-.34,3.17s1.46.37,2-.42a9.54,9.54,0,0,0,1.15-2.32c.3-.78,1.41-4.5-.48-4s-1.85,5.79-1.65,7.29a.56.56,0,0,0,1,.2,11.93,11.93,0,0,0,1.23-7.84.43.43,0,0,0-.84-.06,38.15,38.15,0,0,0-1.35,9.44c0,.44.74.82,1,.34a13,13,0,0,0,1.36-8.75c-.08-.58-.8-.45-.89.08a57.12,57.12,0,0,0-.67,8.47c0,.54.91.77,1.09.2A19.89,19.89,0,0,0,132,239c0-.53-.77-.75-.92-.18a25,25,0,0,0-.82,7.36c0,.51,1,.8,1.11.19a37.53,37.53,0,0,0,.69-8.72c0-.54-.72-.74-.88-.18a15.38,15.38,0,0,0-.47,7.1.56.56,0,0,0,1,.05,22.06,22.06,0,0,0,.82-6.2.47.47,0,1,0-.93,0l-.2,5.24c0,.58.84.69,1,.17a9.27,9.27,0,0,0,.59-3.86.49.49,0,0,0-1,0,9.18,9.18,0,0,0,.21,3.46.54.54,0,0,0,1,0,6.74,6.74,0,0,0,.22-2.68c-.06-.63-1-.66-1,0a2.07,2.07,0,0,0,.6,1.54.53.53,0,0,0,.73,0,2.41,2.41,0,0,1,.58-.57c.33.56,1.19,0,.85-.55a1.62,1.62,0,0,0-.63-.64.5.5,0,0,0-.6.1c-.3.32-.61.64-.93.95h.72l-.33-.82h-1a6.15,6.15,0,0,1-.25,2.41h1a8.59,8.59,0,0,1-.26-3.19h-1a8.76,8.76,0,0,1-.64,3.57l1,.16.07-5.24-.93,0a20.91,20.91,0,0,1-.93,5.92l1.05,0a14.08,14.08,0,0,1,.27-6.58l-.89-.18a37,37,0,0,1-.86,8.45l1.11.19a23.32,23.32,0,0,1,.58-7.11L131,239a19.56,19.56,0,0,1-1,6.56l1.09.2a57.18,57.18,0,0,1,.45-8.48l-.89.07a12.09,12.09,0,0,1-1.4,8l1,.33a36.5,36.5,0,0,1,1.06-9.2l-.84-.06a11,11,0,0,1-1.25,7l1,.2a11.13,11.13,0,0,1,.25-4.84c.16-.44.45-1.68.41-.39a6.47,6.47,0,0,1-.51,1.83,6.18,6.18,0,0,1-.81,1.65c-.59.73-.41.56-.51-.05-.22-1.39,1.38-3.25,2.15-4.05l-.75-.4c-.07,1.17-.52,3.22-1.81,3.64-.77.25.2-.44.44-.69a11.11,11.11,0,0,1,1.33-1.14l-.75-.55a4.24,4.24,0,0,1-2.6,2.87l.7.54.71-1C129,240.63,128.37,239.86,127.85,240.2Z" transform="translate(-117.33 -85.57)"/><path class="cls-1" d="M135,241.52a7.71,7.71,0,0,0-4,3.26c-.35.57.49,1,.93.54a40.87,40.87,0,0,0,2.82-3.57c.33-.47-.43-1-.81-.58-1.3,1.39-2.6,2.8-3.91,4.28-.45.51.49,1.05.94.57.75-.82,1.46-1.65,2.12-2.5.4-.5,1.09-1.1,1.13-1.75.09-1.6-2.4-2.17-2-3.8l-.85.09c.75,1.17,1.52,2.34,2.31,3.53l.68-.69a4.28,4.28,0,0,1-2-4.18.44.44,0,1,0-.88,0,5.08,5.08,0,0,0,2.42,5.09.5.5,0,0,0,.67-.7c-.81-1.18-1.6-2.33-2.35-3.48-.21-.32-.73-.38-.84.08a2.69,2.69,0,0,0,.79,2.59c.23.28.77.63.88,1,.17.56-.32,1.07-.59,1.48a18.48,18.48,0,0,1-2.38,2.73l.94.57c1.23-1.44,2.46-2.82,3.7-4.17l-.81-.58a40.3,40.3,0,0,1-2.86,3.51l.93.54a6.45,6.45,0,0,1,3.36-2.85C135.91,242.22,135.58,241.27,135,241.52Z" transform="translate(-117.33 -85.57)"/><path class="cls-1" d="M131.34,232.64a8.35,8.35,0,0,0,.71,5.41,6.31,6.31,0,0,0,4.28,3.22c.64.14.8-.85.19-1a5.54,5.54,0,0,1-3.67-2.71,7.07,7.07,0,0,1-.76-4.64C132.18,232.32,131.46,232,131.34,232.64Z" transform="translate(-117.33 -85.57)"/><path class="cls-1" d="M136.59,240.69a33.06,33.06,0,0,0-4.2,3.79c-.45.48.31,1.21.77.71a30.24,30.24,0,0,1,4-3.68C137.69,241.11,137.1,240.3,136.59,240.69Z" transform="translate(-117.33 -85.57)"/><path class="cls-1" d="M193.33,725.3c-.49,3.4-2.15,6.07-4.39,7.14-.26.12-.29.65-.13.85a14.17,14.17,0,0,1,2.68,6.37c.07.41.48.35.61,0a10.24,10.24,0,0,1,2.91-4.21c.28-.32.52-.41.62-1a4.51,4.51,0,0,0-.57-1.93c-.75-2.14-1.58-4.18-.81-6.92.17-.61-.42-1-.59-.36-.89,3.18.08,5.27.84,7.91a2.76,2.76,0,0,1,.31,1.38l-.44.32c-.33.5-.91.85-1.28,1.34a11.74,11.74,0,0,0-1.58,3.1l.61,0a14.93,14.93,0,0,0-2.85-6.76l-.13.85c2.46-1.17,4.31-4.22,4.84-7.94C194.07,724.77,193.42,724.67,193.33,725.3Z" transform="translate(-117.33 -85.57)"/><path class="cls-1" d="M190.48,732.2a2.7,2.7,0,0,0-.83,1.69c-.07.37.2.65.43.5a6.1,6.1,0,0,0,2.33-3.46c.15-.5-.18-.85-.47-.57-.51.48-3.13,3.35-1.58,3.86s2.58-3.28,2.78-4.8c.06-.42-.25-.71-.5-.43a8.63,8.63,0,0,0-1.76,3.06c-.25.76-.76,2.44-.44,3.16.74,1.62,2-1.88,2.32-2.7s1.55-4.39.09-4-1.75,5.74-1.79,7.21c0,.41.41.58.58.21a18.15,18.15,0,0,0,1.65-7.74c0-.48-.49-.57-.62-.1a50.85,50.85,0,0,0-1.76,9.36c0,.43.35.82.57.34a20.87,20.87,0,0,0,1.85-8.63c0-.59-.55-.49-.66,0-.57,2.78-1,5.57-1.29,8.39,0,.54.45.79.62.23a33.87,33.87,0,0,0,1.41-6.75c.06-.52-.46-.79-.62-.22a37.09,37.09,0,0,0-1.32,7.27c0,.51.48.82.62.23a62.45,62.45,0,0,0,1.53-8.62c.06-.53-.44-.78-.62-.22a22.93,22.93,0,0,0-1.08,7c0,.48.48.55.62.09a37.55,37.55,0,0,0,1.35-6.09c.09-.63-.56-.73-.65-.09-.25,1.72-.51,3.45-.76,5.18-.09.58.42.74.62.23a15.29,15.29,0,0,0,.92-3.77c.07-.64-.52-.72-.65-.09a14.89,14.89,0,0,0-.33,3.45c0,.48.48.54.63.09a10.61,10.61,0,0,0,.55-2.63c.06-.63-.57-.75-.65-.1a2.85,2.85,0,0,0,.17,1.58.26.26,0,0,0,.46.07,2.48,2.48,0,0,1,.46-.5c.11.6.75.18.64-.41a1.38,1.38,0,0,0-.3-.73.25.25,0,0,0-.4,0l-.76.85.46.07-.08-.85-.65-.1a9.42,9.42,0,0,1-.49,2.37l.63.1a13.75,13.75,0,0,1,.31-3.19l-.65-.09a14.58,14.58,0,0,1-.86,3.5l.62.23c.25-1.73.51-3.46.76-5.19l-.65-.09a36.93,36.93,0,0,1-1.28,5.83l.62.09a21.48,21.48,0,0,1,1-6.51l-.62-.22a61.79,61.79,0,0,1-1.46,8.35l.62.23a34.8,34.8,0,0,1,1.25-7l-.62-.22a32.17,32.17,0,0,1-1.35,6.48l.62.23c.3-2.82.72-5.61,1.29-8.4l-.66,0a19,19,0,0,1-1.67,7.88l.57.34a50.69,50.69,0,0,1,1.69-9.1l-.62-.1a16.78,16.78,0,0,1-1.48,7l.58.2a16.9,16.9,0,0,1,.65-4.8c.15-.43.48-1.65.32-.37a16,16,0,0,1-1.22,3.43c-.44.73-.31.55-.33-.06,0-1.37,1.19-3.23,1.85-4l-.51-.44c-.16,1.17-.67,3.18-1.54,3.62-.53.27.16-.44.34-.69a9.14,9.14,0,0,1,1-1.12l-.47-.56a5,5,0,0,1-1.94,2.91l.42.51.53-1C191.22,732.6,190.86,731.83,190.48,732.2Z" transform="translate(-117.33 -85.57)"/><path class="cls-1" d="M195,733.87a5.32,5.32,0,0,0-2.93,2.88c-.27.55.17,1,.49.58l2.26-3.26c.3-.42-.1-1-.42-.68a34.36,34.36,0,0,0-3,4c-.32.49.17,1.05.49.58l1.6-2.34a4.93,4.93,0,0,0,1-1.61c.34-1.58-1.26-2.39-.8-4l-.62,0c.4,1.2.76,2.43,1.09,3.69l.55-.61a5.48,5.48,0,0,1-.78-4.35c.11-.63-.54-.73-.65-.09a6.61,6.61,0,0,0,1,5.24c.23.31.66-.17.55-.61-.33-1.26-.69-2.48-1.09-3.68-.11-.33-.48-.43-.61,0a3.58,3.58,0,0,0,.23,2.62,3.45,3.45,0,0,1,.45,1,2.7,2.7,0,0,1-.58,1.43c-.52.92-1.2,1.75-1.78,2.6l.49.58a32,32,0,0,1,2.85-3.81l-.42-.68-2.27,3.27.49.58a4.52,4.52,0,0,1,2.47-2.48C195.48,734.7,195.45,733.72,195,733.87Z" transform="translate(-117.33 -85.57)"/><path class="cls-1" d="M193.65,724.7c-1,3.76,0,7.66,2.28,9.14.37.24.69-.68.32-.93-1.93-1.25-2.82-4.63-2-7.85C194.39,724.45,193.8,724.09,193.65,724.7Z" transform="translate(-117.33 -85.57)"/><path class="cls-1" d="M196.21,733.32a14.66,14.66,0,0,0-3.25,3.2c-.33.45,0,1.22.36.77a14,14,0,0,1,3.09-3.07C196.82,733.94,196.62,733,196.21,733.32Z" transform="translate(-117.33 -85.57)"/><path class="cls-1" d="M173.67,700.39a6.9,6.9,0,0,1-1.13,4.7,8,8,0,0,1-4.51,3,.45.45,0,0,0-.06.86,30.85,30.85,0,0,1,7.63,5.76.91.91,0,0,0,1.32-.27c.67-2.35,2.19-3.41,3.88-5.37.39-.46.79-.69.65-1.26s-1.55-1.1-2-1.41c-2.41-1.51-4.49-3.2-4.26-6.07,0-.64-1-.79-1-.15-.36,3.32,1.9,5.08,4.56,7.09a2.41,2.41,0,0,1,1.24,1.1l-.67.53c-.37.63-1.35,1.24-1.86,1.86a10.27,10.27,0,0,0-1.94,3.57c.44-.08.88-.17,1.31-.27a34,34,0,0,0-8.13-5.93l0,.86a8.65,8.65,0,0,0,5-3.5,7.68,7.68,0,0,0,1.1-5.24A.52.52,0,0,0,173.67,700.39Z" transform="translate(-117.33 -85.57)"/><path class="cls-1" d="M170.89,707.75a2.08,2.08,0,0,0-1.12,1.78c0,.38.57.63,1,.44a5.21,5.21,0,0,0,3.28-3.9c.09-.52-.6-.76-1-.42a20,20,0,0,0-2.28,2.19c-.75.9-1.07,1.78.54,1.92a3,3,0,0,0,3-2,6.8,6.8,0,0,0,.54-3.31.6.6,0,0,0-1-.27,8.7,8.7,0,0,0-2.17,3.41c-.23.78-.74,2.53.14,3.18s1.89.13,2.48-.75a8.43,8.43,0,0,0,1-2.49c.25-.83,1-4.71-1.3-3.89s-1.31,6-.8,7.47c.12.4,1,.45,1.24,0a9.6,9.6,0,0,0,.19-8c-.17-.45-1-.4-1.07.09a29.65,29.65,0,0,0,0,9.54c.07.44,1.07.69,1.33.16a10.63,10.63,0,0,0,.2-8.87c-.22-.57-1.1-.29-1.11.24a44.57,44.57,0,0,0,.63,8.47c.09.54,1.26.6,1.39,0a16,16,0,0,0,0-6.93c-.11-.51-1.11-.59-1.19,0a19.85,19.85,0,0,0,.26,7.41c.11.49,1.35.61,1.4,0a30.07,30.07,0,0,0-.62-8.73c-.12-.53-1.05-.59-1.15,0a12.2,12.2,0,0,0,.64,7.09c.19.47,1.23.35,1.32-.15a17.84,17.84,0,0,0,0-6.27c-.11-.63-1.25-.49-1.17.15l.64,5.2c.07.58,1.17.53,1.33,0a7.46,7.46,0,0,0,.08-3.92c-.14-.62-1.23-.46-1.22.19a7.68,7.68,0,0,0,.85,3.37.76.76,0,0,0,1.28-.2,5.48,5.48,0,0,0-.17-2.7c-.19-.6-1.36-.43-1.24.21a1.87,1.87,0,0,0,1,1.39.81.81,0,0,0,.91-.16,3.25,3.25,0,0,1,.64-.7c.5.49,1.48-.26,1-.73a1.75,1.75,0,0,0-.89-.48.75.75,0,0,0-.73.23c-.32.38-.66.77-1,1.14l.89-.16-.54-.74c-.41.07-.82.15-1.24.21a5,5,0,0,1,.09,2.42c.43-.05.85-.12,1.27-.2a7.16,7.16,0,0,1-.86-3.09l-1.22.19a7.05,7.05,0,0,1-.18,3.64l1.32,0-.8-5.18-1.17.15a17.12,17.12,0,0,1-.15,6c.44,0,.88-.1,1.31-.15a11.29,11.29,0,0,1-.78-6.54h-1.15a29.75,29.75,0,0,1,.39,8.48h1.4a18.77,18.77,0,0,1-.48-7.12h-1.2a15.55,15.55,0,0,1-.12,6.65h1.38a45.4,45.4,0,0,1-.89-8.45l-1.11.24a9.81,9.81,0,0,1-.37,8.08l1.32.16a28.83,28.83,0,0,1-.26-9.27l-1.08.1a8.86,8.86,0,0,1-.33,7.16l1.23,0a8.87,8.87,0,0,1-.53-4.82c.13-.46.28-1.73.45-.45a5.4,5.4,0,0,1-.32,1.89,5.84,5.84,0,0,1-.72,1.76c-.62.83-.42.62-.66,0-.52-1.34,1.16-3.43,2-4.37l-1-.26c.11,1.16-.09,3.28-1.63,3.9-.93.36.17-.47.43-.75a13.42,13.42,0,0,1,1.46-1.35c-.35-.13-.69-.27-1-.42a4.36,4.36,0,0,1-2.76,3.22l1,.44.71-1.1C172.4,708,171.49,707.33,170.89,707.75Z" transform="translate(-117.33 -85.57)"/><path class="cls-1" d="M180.05,707.7a9.89,9.89,0,0,0-4.4,4c-.34.63.79.93,1.26.35a41.06,41.06,0,0,0,2.9-4.12c.33-.55-.7-.87-1.1-.39-1.4,1.66-2.78,3.3-4.15,5-.47.58.79,1,1.26.39.8-1,1.54-1.9,2.23-2.88.41-.57,1.16-1.32,1.11-2-.06-.82-.92-1.19-1.72-1.62s-1.54-.87-1.45-1.69l-1.05.24c1.14,1,2.3,2,3.49,3l.73-.84a4,4,0,0,1-3.24-3.69c-.06-.63-1.16-.5-1.13.14a4.88,4.88,0,0,0,3.9,4.52c.59.16,1.15-.51.73-.84-1.21-1-2.39-1.94-3.54-2.93-.31-.27-1-.23-1,.25-.15,1.09.45,1.73,1.43,2.4.35.23,1.07.46,1.27.78.32.51-.21,1.13-.48,1.58a19.13,19.13,0,0,1-2.5,3.14l1.26.39c1.29-1.65,2.59-3.25,3.92-4.87-.38-.13-.75-.26-1.11-.4a41.2,41.2,0,0,1-3,4l1.26.35a8.14,8.14,0,0,1,3.69-3.54C181.32,708.17,180.75,707.31,180.05,707.7Z" transform="translate(-117.33 -85.57)"/><path class="cls-1" d="M174,699.71a6.79,6.79,0,0,0,1.83,5.2,7.73,7.73,0,0,0,5.89,2.22c.82,0,.86-1.06.07-1a6.82,6.82,0,0,1-5-1.83,5.85,5.85,0,0,1-1.75-4.41C175,699.24,174,699.08,174,699.71Z" transform="translate(-117.33 -85.57)"/><path class="cls-1" d="M181.92,706.49a47.3,47.3,0,0,0-4.6,4.69c-.48.56.59,1.14,1.08.54a44.74,44.74,0,0,1,4.37-4.58C183.35,706.62,182.48,706,181.92,706.49Z" transform="translate(-117.33 -85.57)"/><path class="cls-1" d="M430.79,455.75a8.16,8.16,0,0,1-4.41,8.18.5.5,0,0,0,.09.86,15.07,15.07,0,0,1,6.24,5.31.54.54,0,0,0,.94-.21c.46-2.3,1.6-3.26,3.08-4.93.34-.39.68-.55.64-1.13s-1.15-1.34-1.52-1.69c-1.87-1.83-3.82-3.53-3.55-6.4.06-.64-1-.81-1-.17-.31,3.33,1.87,5,3.92,7.34a2.29,2.29,0,0,1,.93,1.24l-.56.44c-.34.58-1.12,1.09-1.53,1.67a8.86,8.86,0,0,0-1.41,3.46l.93-.21a16,16,0,0,0-6.64-5.63l.08.86a9.08,9.08,0,0,0,4.83-9.09C431.75,455,430.71,455.11,430.79,455.75Z" transform="translate(-117.33 -85.57)"/><path class="cls-1" d="M428.68,463.24a2.12,2.12,0,0,0-.71,1.87.52.52,0,0,0,.82.35,5.68,5.68,0,0,0,2.45-4,.53.53,0,0,0-.92-.4c-.62.61-3.71,4.16-1.15,4.18,2.33,0,2.88-3.93,2.7-5.45a.53.53,0,0,0-.92-.26,7.35,7.35,0,0,0-1.7,3.47c-.13.8-.36,2.58.37,3.17,1.68,1.34,2.5-2.42,2.68-3.29s.94-4.69-1.19-3.9-.8,6-.37,7.48a.53.53,0,0,0,1,0,11.89,11.89,0,0,0,0-7.94.53.53,0,0,0-1,.1,32.68,32.68,0,0,0,.39,9.52c.08.43.82.68,1,.16a13.52,13.52,0,0,0,0-8.86c-.19-.56-1-.3-1,.24a54.68,54.68,0,0,0,.8,8.46c.09.53.94.62,1,0a21.65,21.65,0,0,0-.07-6.91c-.09-.52-1-.63-1,0a23.52,23.52,0,0,0,.38,7.39c.11.5,1,.64,1,0a40.59,40.59,0,0,0-.51-8.74c-.09-.53-.94-.62-1,0a14.68,14.68,0,0,0,.66,7.08.53.53,0,0,0,1-.1,24.22,24.22,0,0,0,.06-6.25c-.08-.64-1.11-.54-1,.1.18,1.74.36,3.47.55,5.21a.52.52,0,0,0,1,0,9.81,9.81,0,0,0,.17-3.89.52.52,0,0,0-1,.1,9.48,9.48,0,0,0,.65,3.41.53.53,0,0,0,1-.1,6.77,6.77,0,0,0,0-2.69c-.13-.62-1.13-.55-1,.1a2.11,2.11,0,0,0,.78,1.46.53.53,0,0,0,.73-.07,2.67,2.67,0,0,1,.55-.61c.37.53,1.22-.06.85-.59a1.48,1.48,0,0,0-.7-.61.54.54,0,0,0-.62.14l-.88,1,.73-.07-.4-.79-1,.1a6.21,6.21,0,0,1,0,2.43l1-.1a9,9,0,0,1-.58-3.15l-1,.1a9.07,9.07,0,0,1-.16,3.63l1,0-.54-5.21-1,.1a23.1,23.1,0,0,1-.05,6l1-.1a13.53,13.53,0,0,1-.6-6.56l-1,0a39.38,39.38,0,0,1,.51,8.47l1,0a22.75,22.75,0,0,1-.39-7.13l-1,0a21.13,21.13,0,0,1,.07,6.64l1,0a53.48,53.48,0,0,1-.8-8.46l-1,.23a12.43,12.43,0,0,1,0,8.08l1,.15a31.54,31.54,0,0,1-.41-9.25l-1,.09a10.76,10.76,0,0,1,0,7.17l1,0a10.94,10.94,0,0,1-.59-4.81c.1-.46.21-1.73.38-.45a6,6,0,0,1-.23,1.88,7.26,7.26,0,0,1-.51,1.78c-.45.83-.3.62-.53.05-.53-1.31.76-3.47,1.52-4.38l-.92-.27c.14,1.17,0,3.26-1.18,3.95-.73.41.1-.47.3-.77a8.54,8.54,0,0,1,1.18-1.38l-.92-.4a4.63,4.63,0,0,1-2,3.39l.82.36.48-1.14C430,463.4,429.14,462.77,428.68,463.24Z" transform="translate(-117.33 -85.57)"/><path class="cls-1" d="M436.25,463.46a6.51,6.51,0,0,0-3.57,3.66.51.51,0,0,0,.94.41l2.41-3.82c.32-.49-.51-1-.87-.52a33.35,33.35,0,0,0-3.28,4.74c-.33.58.61,1,.95.41l1.69-2.73c.34-.54,1-1.19,1-1.84,0-1.63-2.73-1.92-2.55-3.56l-.94.21c1,1,2,2.1,2.9,3.22l.64-.75a4.46,4.46,0,0,1-2.63-3.95c0-.64-1.07-.54-1,.11a5.47,5.47,0,0,0,3.23,4.75c.46.22,1-.37.65-.75q-1.38-1.68-2.9-3.22c-.27-.28-.88-.26-.94.21a2.67,2.67,0,0,0,1.24,2.45c.29.25.88.52,1,.86.24.54-.21,1.1-.42,1.54a32,32,0,0,1-1.89,3l.95.41a31.67,31.67,0,0,1,3.13-4.52l-.87-.52-2.41,3.82.94.41a5.52,5.52,0,0,1,3-3.13C437.22,464.13,436.86,463.19,436.25,463.46Z" transform="translate(-117.33 -85.57)"/><path class="cls-1" d="M431.08,455.08a7.86,7.86,0,0,0,6.55,8.09.5.5,0,0,0,.18-1,6.84,6.84,0,0,1-5.7-6.94C432.14,454.61,431.11,454.44,431.08,455.08Z" transform="translate(-117.33 -85.57)"/><path class="cls-1" d="M437.9,462.58a17.49,17.49,0,0,0-3.95,4.06c-.38.53.42,1.17.8.63a16.44,16.44,0,0,1,3.75-3.88A.5.5,0,0,0,437.9,462.58Z" transform="translate(-117.33 -85.57)"/><path class="cls-2" d="M426.83,451.35" transform="translate(-117.33 -85.57)"/><path class="cls-2" d="M422.91,450.57" transform="translate(-117.33 -85.57)"/><path class="cls-1" d="M428.13,448.17c-1.78,2.94-3.9,5-5.63,5.59a1,1,0,0,0-.45.73,18.22,18.22,0,0,1-1.33,6.11c-.14.37.11.39.35.08a14.47,14.47,0,0,1,3.51-3.25,2.16,2.16,0,0,0,.78-.77,6.75,6.75,0,0,0,.55-1.81,16.65,16.65,0,0,1,2.62-6.28c.37-.51.2-.93-.17-.41-1.92,2.67-2.3,4.68-3.05,7.15a4.06,4.06,0,0,1-.44,1.28l-.39.21c-.41.39-.89.6-1.31,1a17.4,17.4,0,0,0-2.27,2.49l.36.08a18.91,18.91,0,0,0,1.4-6.48l-.45.73c1.91-.62,4.3-3,6.24-6.22C428.79,447.82,428.47,447.62,428.13,448.17Z" transform="translate(-117.33 -85.57)"/><path class="cls-1" d="M423.47,453.81a4.11,4.11,0,0,0-1.21,1.36c-.21.32-.19.61,0,.51a8.44,8.44,0,0,0,2.85-2.67c.3-.41.28-.78,0-.58-.5.33-3.24,2.43-2.6,3.15s2.9-2.47,3.69-3.78c.22-.37.18-.68-.09-.47a12.66,12.66,0,0,0-2.35,2.42,10.65,10.65,0,0,0-1.65,2.72c-.31,1.57,2-1.33,2.5-2s2.82-3.63,1.84-3.55-3.53,4.79-4.21,6.1c-.19.35,0,.58.23.28a31.45,31.45,0,0,0,4.37-6.59c.21-.42,0-.59-.31-.19a89.41,89.41,0,0,0-5.15,8c-.21.38-.16.79.17.4a35.78,35.78,0,0,0,4.88-7.34c.26-.52-.09-.53-.38-.08-1.56,2.37-3,4.77-4.46,7.23-.27.46-.1.77.24.31a58.27,58.27,0,0,0,3.79-5.75c.27-.46.1-.79-.24-.31a62.72,62.72,0,0,0-4,6.23c-.24.45-.1.81.25.31,1.66-2.4,3.21-4.84,4.69-7.38.27-.47.1-.77-.25-.31a40.87,40.87,0,0,0-3.74,6.05c-.21.43,0,.58.31.19,1.23-1.66,2.38-3.36,3.47-5.17.33-.55,0-.75-.32-.2-.91,1.49-1.83,3-2.74,4.48-.3.49-.08.72.25.3a26.24,26.24,0,0,0,2.19-3.18c.33-.56,0-.73-.32-.2a25.87,25.87,0,0,0-1.72,3c-.21.43,0,.56.31.19a18.86,18.86,0,0,0,1.48-2.24c.31-.55,0-.76-.32-.2a4.71,4.71,0,0,0-.61,1.42c-.05.21.08.26.23.14a3.33,3.33,0,0,1,.48-.36c-.2.55.34.29.54-.26a1.83,1.83,0,0,0,.16-.69c0-.14-.12-.15-.24-.05l-.8.62.23.14.33-.76-.32-.2a16.38,16.38,0,0,1-1.33,2l.31.19a24.73,24.73,0,0,1,1.59-2.77l-.32-.2a25.49,25.49,0,0,1-2,3l.24.3,2.74-4.47-.32-.2c-1.05,1.74-2.13,3.36-3.32,5l.31.19a36.51,36.51,0,0,1,3.46-5.6l-.24-.31c-1.43,2.46-2.94,4.84-4.54,7.16l.24.31a61.19,61.19,0,0,1,3.83-6l-.25-.31a56.75,56.75,0,0,1-3.64,5.53l.25.31c1.42-2.46,2.9-4.86,4.46-7.24l-.39-.08a32.7,32.7,0,0,1-4.44,6.71l.17.4a85.94,85.94,0,0,1,5-7.79l-.31-.19a28.63,28.63,0,0,1-3.93,6l.23.28a29.11,29.11,0,0,1,2.5-4.15c.28-.36,1-1.39.35-.28-.29.48-.78,1.09-1.1,1.51s-.76,1-1.11,1.33c-.58.57-.42.43-.17-.11a11.46,11.46,0,0,1,2.81-3.21l-.09-.47c-.61,1-1.79,2.7-2.48,2.95-.41.14.29-.37.5-.56a10.15,10.15,0,0,1,1.06-.82v-.58a7.05,7.05,0,0,1-2.39,2.26l0,.51.75-.81C423.71,454.29,423.85,453.55,423.47,453.81Z" transform="translate(-117.33 -85.57)"/><path class="cls-1" d="M425.28,456.06a5.88,5.88,0,0,0-2.93,2.06c-.4.44-.37,1,0,.6l2.73-2.51c.35-.33.39-.94.06-.68-1.14.91-2.28,1.92-3.45,3-.4.39-.37,1,0,.6l1.94-1.8a7.54,7.54,0,0,0,1.27-1.26c.9-1.35.36-2.34,1.31-3.65l-.36-.08c-.31,1.13-.65,2.28-1,3.46l.58-.45a8.21,8.21,0,0,1,1.5-4c.34-.54,0-.74-.32-.2a10.1,10.1,0,0,0-1.8,4.82c0,.31.45,0,.58-.44.38-1.18.72-2.32,1-3.46.08-.31-.08-.46-.36-.08a5.83,5.83,0,0,0-1,2.37,5.19,5.19,0,0,1-.22,1,4.35,4.35,0,0,1-.95,1.16c-.71.73-1.46,1.35-2.16,2v.6c1.12-1.07,2.21-2,3.3-2.89l.06-.67-2.72,2.51v.6a5.17,5.17,0,0,1,2.5-1.79C425.16,456.87,425.58,456,425.28,456.06Z" transform="translate(-117.33 -85.57)"/><path class="cls-1" d="M428.58,447.7c-2.2,3.16-3.4,6.79-2.79,8.49.1.28.69-.49.59-.77-.52-1.44.49-4.59,2.37-7.31C429.11,447.59,428.94,447.17,428.58,447.7Z" transform="translate(-117.33 -85.57)"/><path class="cls-1" d="M426.18,455.78a16.71,16.71,0,0,0-3.24,2.28c-.39.34-.53,1.09-.14.74a15.86,15.86,0,0,1,3.09-2.19C426.25,456.43,426.54,455.59,426.18,455.78Z" transform="translate(-117.33 -85.57)"/></svg>