<svg id="debr1" xmlns="http://www.w3.org/2000/svg" viewBox="0 0 198.26 196.18"><defs><style>.cls-1{fill:#a6a6cc;}.cls-2{fill:#8888a3;}.cls-3{fill:#76768e;}.cls-4{fill:#e3e3ff;}</style></defs><title>debr1</title><path class="cls-1" d="M978,577.11c-7.87,19.41-12.42,44.74-2.15,64.12,15,28.29,52.84,20.86,76.63,9.9a229.24,229.24,0,0,0,73.56-54.21c20.77-23,40.49-52.86,37.24-85.39A62.57,62.57,0,0,0,1156,487.3c-4.28-7.73-11.94-12.41-20.45-14.48-16.44-4-33.37,1.8-48.08,8.93-8.69,4.2-1.09,17.14,7.57,12.95,10.2-4.94,22.11-9.44,33.66-8,5.67.71,11.51,3,14.35,8.15a45.06,45.06,0,0,1,5.32,17.42c2.6,27.21-13.66,52.09-30.78,71.63a219.29,219.29,0,0,1-61.36,48.55c-12,6.46-25,12.32-38.83,13.35-9.78.74-20.22-.4-26.51-8.79-11.44-15.27-4.85-40,1.61-55.93,1.53-3.78-1.67-8.21-5.24-9.23-4.28-1.22-7.71,1.5-9.23,5.24Z" transform="translate(-968.43 -467.79)"/><path class="cls-1" d="M1102.64,474.08a175.6,175.6,0,0,0-87.32,47.43c-6.81,6.86,3.79,17.47,10.6,10.6,22-22.19,50.23-37,80.7-43.57,9.43-2,5.44-16.51-4-14.46Z" transform="translate(-968.43 -467.79)"/><path class="cls-1" d="M991.71,650.08c36.53,9.22,74.07,2.23,110.27-5.05,15.91-3.2,31.17-8,40.87-21.94,9.28-13.3,11.8-31.23,14-46.89a290.82,290.82,0,0,0,2.06-64.93c-.78-9.55-15.78-9.63-15,0a283.6,283.6,0,0,1-.41,51.55c-1.5,14.94-3.4,31.62-9.57,45.49s-18.15,18.48-32.11,21.46c-16.19,3.46-32.58,6.67-49,8.46-19.1,2.09-38.4,2.11-57.12-2.61-9.36-2.37-13.36,12.1-4,14.46Z" transform="translate(-968.43 -467.79)"/><path class="cls-1" d="M1129,574.82a73.83,73.83,0,0,1-34.08,41.42L1104,628a110.47,110.47,0,0,1,23-15.83l-9.09-11.77c-12.7,13.76-30.33,20.61-47.48,27.06-9.14,3.43-5.52,15.92,4,14.46a103.74,103.74,0,0,0,50-22.57c7.17-5.89,13.65-12.65,16.9-21.49,3.07-8.37,2.48-18,7.14-25.75l-14-3.78c-.52,10.79-.85,23.21-8.08,32s-19.3,8.5-29.59,8.52c-9.65,0-9.67,15,0,15,14.48,0,30.23-1.27,40.32-13.06s11.62-27.42,12.35-42.44c.37-7.64-10.29-9.94-14-3.79-4.5,7.5-5.18,15.79-7.13,24.11s-6.95,13.64-13.32,19.06c-12.64,10.73-28.31,17.24-44.61,19.75l4,14.46c19.55-7.35,39.62-15.22,54.1-30.92,5.82-6.31-1.47-15.74-9.09-11.78a125.78,125.78,0,0,0-26.06,18.17c-6.46,5.8,1.8,15.9,9.08,11.78a89.39,89.39,0,0,0,41-50.39c3-9.2-11.49-13.14-14.46-4Z" transform="translate(-968.43 -467.79)"/><path class="cls-1" d="M1122.52,603.43c-2.45,5.3-7,8.16-12.82,7.79-4-.25-7.5,3.63-7.5,7.5,0,4.27,3.44,7.24,7.5,7.5A27.05,27.05,0,0,0,1135.47,611c1.7-3.67,1-8.08-2.69-10.26-3.24-1.89-8.55-1-10.26,2.69Z" transform="translate(-968.43 -467.79)"/><path class="cls-2" d="M1026.58,539.33a441.67,441.67,0,0,1,91.17-41.17c7.71-2.47,6.81-15.23-2-14.73a121.82,121.82,0,0,0-76.29,32.48c-6.54,6.08,1.76,15.35,9.09,11.78q27.62-13.47,53.91-29.39c5.85-3.54,4-14.9-3.79-14-31.34,3.73-60,19.57-81.82,42.12-6.71,6.95,3.88,17.57,10.61,10.61,18.83-19.46,44-34.49,71.21-37.73l-3.78-14q-26.28,15.91-53.91,29.39l9.09,11.78a105.48,105.48,0,0,1,65.68-28.09l-2-14.73A459.3,459.3,0,0,0,1019,526.38c-8.28,4.93-.75,17.9,7.58,13Z" transform="translate(-968.43 -467.79)"/><path class="cls-2" d="M1119.23,487.09c-35.94,4.89-71.33,17.15-100.44,39.2-3.26,2.46-4.87,6.44-2.7,10.26,1.83,3.2,7,5.13,10.27,2.69,28.24-21.39,62-32.94,96.86-37.68,4-.55,6.23-5.7,5.24-9.23-1.21-4.33-5.18-5.79-9.23-5.24Z" transform="translate(-968.43 -467.79)"/><path class="cls-2" d="M984,583.14c-.84,2.12-1.63,4.26-2.39,6.41-1.3,3.71,1.48,8.37,5.24,9.23a7.69,7.69,0,0,0,9.23-5.24c.75-2.15,1.55-4.29,2.38-6.42a7.52,7.52,0,0,0-.75-5.77,7.52,7.52,0,0,0-10.27-2.7,8.67,8.67,0,0,0-3.44,4.49Z" transform="translate(-968.43 -467.79)"/><path class="cls-2" d="M1062.56,502.5c-9-4.36-17-.29-24.07,5.57a191.12,191.12,0,0,0-21.16,20.46c-6.4,7.19,4.17,17.83,10.61,10.61a195.22,195.22,0,0,1,16.58-16.47c2-1.78,8.44-8.2,10.47-7.22,8.65,4.19,16.26-8.74,7.57-13Z" transform="translate(-968.43 -467.79)"/><path class="cls-2" d="M983.75,583.51c-3.72,13.46-4.16,27.85.91,41,1.45,3.76,5.05,6.4,9.23,5.23,3.61-1,6.71-5.41,5.24-9.22-4.18-10.85-4-21.94-.92-33,2.57-9.32-11.89-13.29-14.46-4Z" transform="translate(-968.43 -467.79)"/><path class="cls-2" d="M1020,529.46l-2.13,2.17a7.8,7.8,0,0,0-2.19,5.31,8.28,8.28,0,0,0,2.19,5.3,7.57,7.57,0,0,0,5.31,2.2,7.74,7.74,0,0,0,5.3-2.2l2.13-2.18a7.76,7.76,0,0,0,2.19-5.3,8.28,8.28,0,0,0-2.19-5.3,7.57,7.57,0,0,0-5.31-2.2,7.78,7.78,0,0,0-5.3,2.2Z" transform="translate(-968.43 -467.79)"/><path class="cls-2" d="M984.35,584.6c-4.41,14.63-6.71,32.76,4.83,44.77,6.7,7,17.3-3.64,10.61-10.61-7.35-7.64-3.66-21.27-1-30.17,2.79-9.27-11.68-13.22-14.46-4Z" transform="translate(-968.43 -467.79)"/><path class="cls-2" d="M982.08,581.71c-6.44,20.11-8.13,47.79,11.09,61.63,5.93,4.27,11.6,5.41,18.8,4.92a113.71,113.71,0,0,0,21.31-3.46,127.53,127.53,0,0,0,37.39-17.11,200.2,200.2,0,0,0,59.16-61.6c1-1.73,3.4-3.9,4.85-6.42,1.92-3.33,3.91-6.61,5.83-9.93a110.4,110.4,0,0,0,9.84-20.86c4.22-13,3.91-28.53-6-38.94-8.56-9-21.82-10.82-33.58-9.27-16.1,2.14-30,11.37-45.51,15.8-9.27,2.64-5.33,17.12,4,14.46a172.94,172.94,0,0,0,20.93-7.55c5.32-2.29,10.31-5.05,15.92-6.57,7.26-2,16-3,23,.35,9.14,4.31,10,15.1,7.86,23.91a67.41,67.41,0,0,1-6.6,16.07c-3.16,5.85-6.34,12.53-10.68,17.56a42.88,42.88,0,0,0-4,6.19c-1.11,1.82-3.27,4.15-4.63,6.25a136.71,136.71,0,0,1-12.1,15.2A207.21,207.21,0,0,1,1073.71,607c-18.19,14.75-40.39,25.35-64,26.42-10.15.47-15.43-10-16.65-18.8-1.34-9.66.58-19.7,3.53-28.89s-11.53-13.16-14.47-4Z" transform="translate(-968.43 -467.79)"/><path class="cls-2" d="M1048.31,593.61c-6.21,6.07-12.48,12.11-18.67,18.2-5,4.88-9.53,11.89-5.34,18.73,1.92,3.14,7,5.21,10.26,2.7q49.43-37.85,96.87-78.15c6.44-5.48-2.06-16.61-9.09-11.78a318,318,0,0,0-75.43,72.84c-2.22,3-.75,7.61,1.93,9.67,3.16,2.44,6.89,1.8,9.85-.58,28.72-23.15,57.48-46.47,82-74.19a7.53,7.53,0,0,0-9.08-11.78,121,121,0,0,0-54.75,55.15,7.54,7.54,0,0,0,11.78,9.09,193.65,193.65,0,0,0,60.34-98c2-7.83-6.92-11.69-12.53-7.3a73.91,73.91,0,0,0-25.9,40.25c-1.81,7.22,7.13,12.62,12.53,7.3a56.12,56.12,0,0,0,16.74-43.61c-.32-4.71-4.56-8.72-9.5-7.23A30.9,30.9,0,0,0,1108.24,523c-.46,7.13,8.21,9,12.8,5.3a74.66,74.66,0,0,0,14.41-16.1c3.58-5.22,6.62-12.48,3.17-18.57-5.89-10.37-18.8-2.86-25.48,2.23C1089,514.29,1072.61,544,1067,573.59c-1.79,9.43,12.66,13.48,14.47,4a120.26,120.26,0,0,1,32.44-62.32q2.88-2.91,6-5.63c.57-.5,1.13-1,1.72-1.48.39-.32-.88.64.25-.2,2.23-1.64,5.5-3.13,7.27-4.37.8-.57.87-.67.57-.16q-4-.63-4.52-3.46c0-.23-.08-.14-.14.27-1.28,1.35-2.19,4-3.33,5.55a61,61,0,0,1-11.25,11.9l12.81,5.31a15.4,15.4,0,0,1,11-13.62l-9.49-7.23a41.56,41.56,0,0,1-12.34,33l12.53,7.3a61,61,0,0,1,22-33.63l-12.53-7.3A179.81,179.81,0,0,1,1078,592.9l11.78,9.09a107.85,107.85,0,0,1,49.37-49.77l-9.09-11.78c-24.5,27.72-53.27,51-82,74.19l11.78,9.09a296.63,296.63,0,0,1,70.05-67.46l-9.08-11.78q-46,39.09-93.84,75.8l10.26,2.69c2.57,4.2-1.08,3.15.61,2.07a14.48,14.48,0,0,0,1.59-1.83c1.41-1.46,3-2.76,4.44-4.14,5.15-4.8,10-9.94,15-14.86,6.92-6.76-3.69-17.36-10.61-10.6Z" transform="translate(-968.43 -467.79)"/><path class="cls-2" d="M1077,586.52l54.09-44.41c6.51-5.34-2.21-16.83-9.09-11.78a652.56,652.56,0,0,0-55.21,45.76c-7.11,6.55,3.51,17.14,10.61,10.61a614.6,614.6,0,0,1,52.17-43.42l-9.08-11.78-54.09,44.41c-3.16,2.59-2.64,7.91,0,10.61,3.06,3.13,7.49,2.55,10.6,0Z" transform="translate(-968.43 -467.79)"/><path class="cls-2" d="M1020.43,611.06q-3.37,4.25-6.63,8.56c-2.22,2.94-.76,7.66,1.93,9.67,3.18,2.38,6.88,1.85,9.85-.58l23.8-19.54c3.13-2.58,2.66-7.94,0-10.61-3.1-3.1-7.47-2.58-10.61,0L1015,618.1l11.78,9.09q2.12-2.79,4.29-5.52c2.52-3.16,3.09-7.51,0-10.61-2.62-2.61-8.07-3.18-10.61,0Z" transform="translate(-968.43 -467.79)"/><path class="cls-2" d="M1065.58,582.84c23.4-19.24,47.72-37.5,74.83-51.24l-7.58-13c-3.54,2.12-7,4.31-10.7,6.19l7.57,12.95a112.74,112.74,0,0,1,10.71-6.19l-7.58-13c-27,15.18-52.72,32.78-75.49,53.91-7.1,6.58,3.53,17.16,10.6,10.6,21.87-20.27,46.5-37,72.47-51.56,8.45-4.74,1-17.36-7.58-13a111.69,111.69,0,0,0-10.7,6.19c-8,5.35-1.06,17.37,7.57,12.95,3.68-1.88,7.16-4.07,10.71-6.19,8.33-5,1-17.29-7.58-13C1104.6,533,1079.34,552.2,1055,572.24c-3.15,2.59-2.64,7.91,0,10.6,3.06,3.13,7.5,2.56,10.61,0Z" transform="translate(-968.43 -467.79)"/><path class="cls-2" d="M1056.15,580.43a766.53,766.53,0,0,1,70-55.92c7.77-5.52.47-18.44-7.57-12.95-3.38,2.31-6.78,4.59-10.1,7-7.72,5.53-.61,18.33,7.57,13,3.42-2.25,6.77-4.59,10.1-7l-7.57-12.95c-24.79,18.32-48.59,37.91-71.7,58.31-7.25,6.4,3.4,17,10.61,10.61,22.14-19.56,44.9-38.41,68.66-56,3.28-2.42,4.85-6.47,2.69-10.26-1.87-3.28-7-5-10.26-2.69s-6.68,4.72-10.1,7l7.57,13c3.32-2.38,6.72-4.66,10.1-7l-7.57-12.95a799.62,799.62,0,0,0-73,58.26c-7.18,6.48,3.46,17.06,10.61,10.61Z" transform="translate(-968.43 -467.79)"/><path class="cls-2" d="M1000.77,603.65q-3.22,3.76-6.38,7.59c-2.07,2.5-3.09,6.12-1.17,9.09a7.8,7.8,0,0,0,8.46,3.44,36.19,36.19,0,0,0,10.58-4.23c3.4-2,4.89-6.86,2.69-10.26a7.64,7.64,0,0,0-10.26-2.69c-.73.42-1.46.83-2.22,1.21-.35.17-2.09.82-.53.26a32.73,32.73,0,0,1-4.24,1.25l7.29,12.54q3.16-3.83,6.39-7.59c2.55-3,3.14-7.72,0-10.61-2.81-2.57-7.89-3.18-10.61,0Z" transform="translate(-968.43 -467.79)"/><path class="cls-2" d="M1047,575.79c22.6-17.81,44.7-36.23,67.09-54.3,6.58-5.31-2.08-16.58-9.09-11.78-4.06,2.78-8.11,5.51-12,8.59-6.73,5.37,1.92,16.06,9.09,11.78a110.56,110.56,0,0,0,12-8.59c6.61-5.26-2.1-16.62-9.09-11.78-24.21,16.76-47.35,35.07-68.36,55.72-6.9,6.78,3.71,17.38,10.6,10.61a492.58,492.58,0,0,1,65.33-53.37l-9.09-11.78a81.87,81.87,0,0,1-8.92,6.23l9.09,11.78c2.83-2.26,5.93-4.19,8.92-6.23l-9.09-11.78c-22.39,18.06-44.49,36.49-67.08,54.29-3.21,2.53-2.6,8,0,10.61,3.1,3.18,7.44,2.49,10.6,0Z" transform="translate(-968.43 -467.79)"/><path class="cls-2" d="M1038.64,565.3a610.73,610.73,0,0,1,71.73-51.07l-7.57-13a600.3,600.3,0,0,0-72,59.35c-7,6.72,3.66,17.32,10.61,10.61a574.79,574.79,0,0,1,69-57c7.78-5.46.8-18.05-7.57-13A637.94,637.94,0,0,0,1028,554.69c-7.44,6.16,3.22,16.72,10.61,10.61Z" transform="translate(-968.43 -467.79)"/><path class="cls-2" d="M1032.54,557.26c23.81-17.36,47.65-34.69,70.8-52.94,3.2-2.53,2.59-8,0-10.61-3.13-3.19-7.43-2.47-10.61,0-2.88,2.24-5.76,4.49-8.68,6.68l9.09,11.78c2.85-2.28,5.75-4.49,8.68-6.68l-9.09-11.78c-22.86,18.27-45.3,37.1-66.21,57.59-6.91,6.77,3.7,17.37,10.6,10.61,20.92-20.5,43.35-39.32,66.22-57.59,6.58-5.26-2.26-16.9-9.09-11.78-4,2.95-7.87,5.94-11.72,9-6.57,5.26,2.27,16.89,9.09,11.78,4-3,7.82-6,11.72-9l-10.61-10.61c-22.14,17.46-45,34-67.77,50.6-3.29,2.41-4.83,6.49-2.69,10.26,1.85,3.25,7,5.07,10.27,2.69Z" transform="translate(-968.43 -467.79)"/><path class="cls-2" d="M1031.75,551.78c12.53-10.74,24.13-22.48,35.67-34.26,5.8-5.91-1.8-16.63-9.08-11.78-13.81,9.19-27.11,19.19-38.83,31-6.81,6.85,3.79,17.46,10.61,10.61,10.84-10.9,23-20.13,35.79-28.63l-9.09-11.78c-11.55,11.78-23.15,23.52-35.68,34.26-7.34,6.3,3.31,16.87,10.61,10.61Z" transform="translate(-968.43 -467.79)"/><path class="cls-2" d="M1113.31,493.66a52.69,52.69,0,0,0-25,5q-11.4,5.24-22.4,11.25a348.58,348.58,0,0,0-44,28.7c-3.24,2.48-4.87,6.43-2.69,10.26,1.81,3.19,7,5.15,10.26,2.7a346.73,346.73,0,0,1,40.9-27q10.16-5.7,20.69-10.72c3.53-1.68,7.21-3.76,11-4.67,3.65-.87,7.49-.7,11.21-.6,9.66.24,9.65-14.76,0-15Z" transform="translate(-968.43 -467.79)"/><path class="cls-2" d="M1047.26,638.57c25.13-14.08,51.34-29,69.94-51.56a109.57,109.57,0,0,0,21.29-40.56c4.48-16.05,5.78-32.84,6.63-49.41.49-9.65-14.51-9.62-15,0-1.5,29.34-5.49,58.75-25.5,81.69-17.74,20.34-41.67,33.85-64.93,46.88-8.43,4.72-.87,17.68,7.57,13Z" transform="translate(-968.43 -467.79)"/><path class="cls-2" d="M1078.78,610.49c11.27-1.59,20.67-9.18,28.81-16.65a132.31,132.31,0,0,0,20.87-24.78,134,134,0,0,0,21-60.11c.41-4-3.74-7.5-7.5-7.5-4.39,0-7.09,3.45-7.5,7.5a117.58,117.58,0,0,1-18.08,51.22,115.24,115.24,0,0,1-17.1,20.91c-6.91,6.68-14.64,13.56-24.46,14.95-4,.57-6.24,5.68-5.24,9.23,1.2,4.31,5.18,5.81,9.22,5.23Z" transform="translate(-968.43 -467.79)"/><path class="cls-2" d="M1137.83,512.85l4.48.22-6.47-3.72c1.52,3.21-1.2,8.7-2.16,11.8-1.25,4.06-2.52,8.13-3.87,12.16a155.39,155.39,0,0,1-10.89,25.79c-7.34,13.3-18.08,25.64-32.62,31.13-8.94,3.38-5.07,17.88,4,14.46,18.91-7.14,33.07-22,42.45-39.61,5.28-9.94,9.21-20.57,12.67-31.25,3.36-10.36,8.39-21.48,3.38-32.05-1.14-2.41-4-3.59-6.48-3.71l-4.48-.22c-9.65-.47-9.63,14.53,0,15Z" transform="translate(-968.43 -467.79)"/><path class="cls-2" d="M1089.51,613.28c36.4-24.36,59-66.41,58.76-110.29-.06-9.65-15.06-9.67-15,0,.23,38.42-19.33,75.92-51.33,97.33-8,5.35-.48,18.35,7.57,13Z" transform="translate(-968.43 -467.79)"/><path class="cls-2" d="M1018,614.86c-1.27,6.16-.09,13.37,6.13,16.44,5,2.48,12.39,1.67,17.59.13,11.4-3.36,20.34-12.4,25.47-22.9,4.22-8.64-8.71-16.25-13-7.57-2.53,5.17-5.83,9.92-10.66,13.17a20.68,20.68,0,0,1-7.21,3.2,16.88,16.88,0,0,1-3.68.42,20.41,20.41,0,0,1-2.21-.08q1.59,2.88,2,1.18c2-9.42-12.51-13.45-14.46-4Z" transform="translate(-968.43 -467.79)"/><path class="cls-2" d="M1009,609c-7.51,2.46-16.69,7.37-19.34,15.46-2.39,7.3,3.33,12.74,10.44,12.5s14.37-3.83,20.58-7A98.3,98.3,0,0,0,1043,614c5.62-5.27-.27-14.29-7.3-12.54l-.51.13c-9.36,2.34-5.4,16.81,4,14.47l.52-.13-7.3-12.54a81.2,81.2,0,0,1-26.1,16.68,43.28,43.28,0,0,1-4.71,1.56,7.56,7.56,0,0,0-1.75.38c.51-.32-.43.36-.28,0,1.5.21,2.27,1.43,2.3,3.66.55,3.61,1.33,4.69,2.32,3.23.81-.39,1.48-1.64,2.26-2.24a21.29,21.29,0,0,1,6.53-3.22c9.13-3,5.22-17.49-4-14.47Z" transform="translate(-968.43 -467.79)"/><path class="cls-2" d="M1005.79,611.16c-8.55,7.61-15.29,21.81-1.33,27.92,13.46,5.89,27.6-3.13,35-14.29,1.86-2.81,1-6.78-1.18-9.09-6.43-6.75-16.45-6.93-24-1.94-3.38,2.22-6.6,5.33-7.18,9.5a10.81,10.81,0,0,0,6.14,11.22c8.61,4.12,21.34-1,26.27-8.69a13.25,13.25,0,0,0,.21-13.85c-3-4.55-7.43-5.26-12.42-4.57-4,.56-6.22,5.69-5.23,9.23,1.21,4.32,5.18,5.8,9.22,5.24q-5.85-4.23-3.74-1.05l-1-3.79c0,2,.44.62-.4,1.42a8.92,8.92,0,0,1-2.34,1.6c-2.15,1-4.49.76-6.76.48l3.79,1q-1.86,8.26.69,5.52a2.86,2.86,0,0,1,.84-.67,20.46,20.46,0,0,1,2.12-1c1.72-.41,2.18-.23,3.26.9l-1.18-9.09c-2.74,4.13-8.85,9.83-14.37,8.81-.46-.09-2.15-1.16-2.5-1,.54.94,1,1.9,1.5,2.87.24-.36.45-.73.66-1.1,1.64-1.16,3-3.6,4.58-5,7.23-6.43-3.41-17-10.6-10.61Z" transform="translate(-968.43 -467.79)"/><path class="cls-3" d="M1161.76,516.22q-6.43,45.62-14.37,91c-.55,3.15,4.26,4.5,4.82,1.33q7.93-45.37,14.37-91c.45-3.15-4.37-4.51-4.82-1.33Z" transform="translate(-968.43 -467.79)"/><path class="cls-2" d="M1146.66,504.3a86.9,86.9,0,0,1-11.08,52.1c-9.42,16.25-24.64,29-38.67,41.21-2.44,2.12,1.11,5.64,3.53,3.54,14.79-12.82,30.65-26.31,40.26-43.65a91.51,91.51,0,0,0,11-53.2c-.31-3.17-5.31-3.21-5,0Z" transform="translate(-968.43 -467.79)"/><path class="cls-2" d="M1143.2,539.93c-8.23,21.83-24.75,38.71-41.82,54-8.44,7.55-16.9,15.11-25.6,22.35s-17.84,13.58-28.68,16.81c-3.08.92-1.77,5.75,1.33,4.82,22.17-6.61,39.7-25.43,56.48-40.44,17.79-15.92,34.55-33.49,43.11-56.2,1.14-3-3.69-4.32-4.82-1.33Z" transform="translate(-968.43 -467.79)"/><path class="cls-2" d="M1010.65,647.5c33.43,1.38,61.69-16.56,85.56-38.33,21.66-19.76,39.1-44.15,48.45-72.09,1-3.05-3.8-4.37-4.82-1.33-8.91,26.62-25.51,49.83-46,68.81-23.09,21.38-50.58,39.28-83.2,37.94-3.22-.14-3.21,4.86,0,5Z" transform="translate(-968.43 -467.79)"/><path class="cls-2" d="M1144.65,534.15A182.58,182.58,0,0,1,1089,608.46c-2.52,2,1,5.52,3.54,3.54a187.36,187.36,0,0,0,57-76.52c1.2-3-3.63-4.28-4.82-1.33Z" transform="translate(-968.43 -467.79)"/><path class="cls-2" d="M991.53,632.48c-2.09-2.55-3.25-6-4.75-8.87-1.92-3.74-3.63-7.3-2.44-11.59.86-3.11-4-4.43-4.82-1.33-1.24,4.49-.31,8.6,1.61,12.77S985,632.39,988,636c2,2.49,5.56-1.07,3.54-3.54Z" transform="translate(-968.43 -467.79)"/><path class="cls-2" d="M982.72,610.86c-6.66,6.56,0,19.3,4.9,24.93,7.46,8.52,19,11.81,30,10.62,3.16-.34,3.2-5.35,0-5-8.1.88-16.33-.6-22.87-5.71a26,26,0,0,1-7.11-8.57c-1.55-3-4.36-9.84-1.42-12.74,2.3-2.26-1.24-5.79-3.54-3.53Z" transform="translate(-968.43 -467.79)"/><path class="cls-2" d="M1136.64,552.37C1131,565,1120.38,576,1111,586a257.09,257.09,0,0,1-31.48,28.24c-2.53,1.92,0,6.27,2.52,4.32a264.84,264.84,0,0,0,32.5-29c9.63-10.2,20.62-21.71,26.44-34.63,1.32-2.91-3-5.45-4.31-2.52Z" transform="translate(-968.43 -467.79)"/><path class="cls-2" d="M1130.57,488.56c-6.84-6.11-20.5-5.41-29-4.58a74.62,74.62,0,0,0-31,10.24c-2.77,1.64-.26,6,2.52,4.32a69.5,69.5,0,0,1,26.84-9.38,68.66,68.66,0,0,1,13.29-.37c4.14.27,10.52.35,13.83,3.3,2.39,2.14,5.94-1.38,3.53-3.53Z" transform="translate(-968.43 -467.79)"/><path class="cls-2" d="M1056.61,505.42c20.59-13.65,47.91-23.25,72.59-16.68,3.11.83,4.44-4,1.33-4.82-26-6.92-54.73,2.78-76.45,17.18-2.67,1.77-.17,6.1,2.53,4.32Z" transform="translate(-968.43 -467.79)"/><path class="cls-2" d="M1126.45,482.6c-15.52-4.37-34.16,2.34-48.65,7.89a173.46,173.46,0,0,0-43.59,24.41c-2.51,1.93,0,6.28,2.53,4.32a166.35,166.35,0,0,1,61.91-30.06c8.65-2.15,17.69-4.21,26.48-1.73,3.1.87,4.42-3.95,1.32-4.83Z" transform="translate(-968.43 -467.79)"/><path class="cls-1" d="M1126.47,472.65c-4-1.88-9.1-1-13.29-.48a128.14,128.14,0,0,0-18.44,4.3c-3.09.88-1.77,5.71,1.33,4.82,4.56-1.31,9.12-2.63,13.78-3.54,3.61-.7,10.53-2.48,14.09-.79,2.89,1.38,5.43-2.93,2.53-4.31Z" transform="translate(-968.43 -467.79)"/><path class="cls-3" d="M977.38,571.42c-7.16,17.47-10.82,36.82-8,55.65,2.46,16.25,11.73,32.3,28.74,36.25,3.13.72,4.47-4.1,1.33-4.82-16.9-3.93-24.34-20.93-25.7-36.76-1.44-16.8,2.08-33.49,8.44-49,1.22-3-3.62-4.27-4.83-1.33Z" transform="translate(-968.43 -467.79)"/><path class="cls-3" d="M1166.38,518.61c2.59-21.92-11.55-41-32-48-13-4.45-27.17-3.22-40.24.4a174.7,174.7,0,0,0-40.74,17.14c-14.17,8.26-26.78,18.95-38.51,30.35-2.31,2.24,1.22,5.78,3.53,3.53,12.08-11.73,25.08-22.69,39.85-30.9s31.79-15.35,48.61-17.73c14.51-2.05,29.7.73,41.06,10.45a38.74,38.74,0,0,1,13.43,34.72c-.37,3.19,4.63,3.17,5,0Z" transform="translate(-968.43 -467.79)"/><path class="cls-3" d="M995.86,663c16.12,2.43,30.59-.09,46-4.63,15.13-4.44,31-5.28,46.44-8.1,14.44-2.63,28.82-6.56,41.81-13.55,5.74-3.1,11.76-6.71,15.74-12,4.26-5.68,5.71-12.72,6.71-19.61.46-3.15-4.36-4.5-4.82-1.33-1,6.73-2.24,13.94-6.9,19.21s-11.55,8.76-17.79,11.71c-12.42,5.88-26,9.07-39.47,11.35-13.76,2.33-27.84,3.2-41.32,7-7.37,2.09-14.55,4.54-22.2,5.5a84.12,84.12,0,0,1-22.91-.36c-3.15-.47-4.51,4.35-1.33,4.82Z" transform="translate(-968.43 -467.79)"/><path class="cls-3" d="M1109.83,594.81Q1082,571.58,1056,546.38c-2.31-2.24-5.85,1.29-3.53,3.53q26.05,25.19,53.87,48.43c2.45,2,6-1.47,3.53-3.53Z" transform="translate(-968.43 -467.79)"/><path class="cls-3" d="M1050.94,541.19c-3.66.67-7.51,5.6-3.34,8.39,3.29,2.2,7.55-.35,9-3.56.9-1.95.71-4.39-1.21-5.66a5.58,5.58,0,0,0-5-.33,5.89,5.89,0,0,0-3.73,3.82,4.86,4.86,0,0,0,1.43,4.9,2.57,2.57,0,0,0,3.53,0,2.52,2.52,0,0,0,0-3.54c-.54-.45-.09-.15-.14,0a1.46,1.46,0,0,1,.53-.44c.17-.08.63-.16.64-.2.1-.2-.28-.93-.46-.82,0,0-.5.92-.21.45a3.05,3.05,0,0,1-.88.91c-.07,0-.67.34-.67.34s.14,1.5.22,1.49.23-.32.28-.35a3.62,3.62,0,0,1,1.35-.54,2.54,2.54,0,0,0,1.75-3.08,2.56,2.56,0,0,0-3.08-1.75Z" transform="translate(-968.43 -467.79)"/><path class="cls-1" d="M1072.64,637.06c13.86-13,28.13-25.65,41.5-39.14,12.67-12.78,23.35-27.3,34-41.79,1.91-2.6-2.43-5.1-4.31-2.53-10.74,14.67-21.59,29.27-34.51,42.11s-26.76,25.26-40.18,37.82c-2.35,2.2,1.19,5.73,3.54,3.53Z" transform="translate(-968.43 -467.79)"/><path class="cls-1" d="M1154,514.72c-2.61,29-20.54,53-32,78.89-1.29,2.92,3,5.47,4.32,2.53,11.85-26.81,30-51.42,32.66-81.42.29-3.2-4.71-3.18-5,0Z" transform="translate(-968.43 -467.79)"/><path class="cls-1" d="M1074,486.37a120.77,120.77,0,0,0-35.65,18.87c-1,.78,0,2.51,1,1.73a119.21,119.21,0,0,1,35.17-18.67c1.22-.4.7-2.34-.53-1.93Z" transform="translate(-968.43 -467.79)"/><path class="cls-1" d="M1051.87,496a284.78,284.78,0,0,0-34,28.13c-.92.9.49,2.31,1.42,1.41a280,280,0,0,1,33.56-27.81c1-.74,0-2.47-1-1.73Z" transform="translate(-968.43 -467.79)"/><path class="cls-1" d="M1070.56,487.83a326.78,326.78,0,0,0-37.75,22.09c-1.06.72-.06,2.45,1,1.72a326.71,326.71,0,0,1,37.75-22.08c1.15-.58.14-2.3-1-1.73Z" transform="translate(-968.43 -467.79)"/><path class="cls-3" d="M1040.29,656.81a359.87,359.87,0,0,0,78.86-50.25c1-.83-.43-2.24-1.41-1.42a358.61,358.61,0,0,1-78.46,50c-1.16.54-.15,2.27,1,1.72Z" transform="translate(-968.43 -467.79)"/><path class="cls-3" d="M1049.24,650.94a59.66,59.66,0,0,0-8.56,3.32c-1.16.55-.14,2.27,1,1.72a57.32,57.32,0,0,1,8.08-3.11,1,1,0,0,0-.53-1.93Z" transform="translate(-968.43 -467.79)"/><path class="cls-3" d="M1163.46,504a151.66,151.66,0,0,1-13.37,55.56c-.53,1.17,1.19,2.18,1.73,1A154.42,154.42,0,0,0,1165.46,504c.06-1.29-1.94-1.28-2,0Z" transform="translate(-968.43 -467.79)"/><path class="cls-3" d="M1096.67,629.5q3.24,5.06,6.73,10c.74,1,2.48,0,1.73-1q-3.5-4.89-6.74-10c-.69-1.08-2.42-.08-1.72,1Z" transform="translate(-968.43 -467.79)"/><path class="cls-3" d="M1097.82,639.13l4.52,5.41c.83,1,2.24-.44,1.42-1.42l-4.53-5.4c-.82-1-2.23.43-1.41,1.41Z" transform="translate(-968.43 -467.79)"/><path class="cls-2" d="M1015.67,529c-2.27,5.06,1.29,12.58,3.16,17.34,2.72,7,7.22,13.17,9.4,20.34a1,1,0,0,0,1.93-.53c-1.63-5.37-4.64-10-7.08-15a73.15,73.15,0,0,1-3.79-9.37c-1-3.11-3.31-8.58-1.89-11.73.52-1.17-1.2-2.19-1.73-1Z" transform="translate(-968.43 -467.79)"/><path class="cls-2" d="M1014,529.86c-.32,3.13,1,6,2,9q2,5.77,4.25,11.45c2.84,7.06,6,14,9.56,20.69.6,1.15,2.32.14,1.73-1-3.43-6.59-6.58-13.32-9.36-20.21-1.18-2.9-2.28-5.84-3.33-8.79-1.2-3.4-3.2-7.42-2.83-11.09.13-1.28-1.87-1.27-2,0Z" transform="translate(-968.43 -467.79)"/><path class="cls-2" d="M1014.85,533.07a143,143,0,0,0,12.32,35.31c.58,1.15,2.31.14,1.73-1a140.6,140.6,0,0,1-12.12-34.83c-.26-1.26-2.19-.73-1.93.53Z" transform="translate(-968.43 -467.79)"/><path class="cls-2" d="M1014.16,531.69A231.37,231.37,0,0,0,1029,570.6c.56,1.15,2.29.14,1.72-1a229.67,229.67,0,0,1-14.63-38.43,1,1,0,0,0-1.93.53Z" transform="translate(-968.43 -467.79)"/><path class="cls-2" d="M1017.83,539.25a219.16,219.16,0,0,0,9.59,31.33,1,1,0,0,0,1.83.24,1.59,1.59,0,0,0,.16-1.76c-.46-1.18-2.4-.67-1.93.53l0,.22,1.83.24a217.89,217.89,0,0,1-9.59-31.33c-.29-1.25-2.22-.72-1.93.53Z" transform="translate(-968.43 -467.79)"/><path class="cls-2" d="M1023.65,553.09l-.13-1.28-2,.26c2.22,7.16,3.9,14.85,7.33,21.55.56,1.09,2,.27,1.83-.77a12.06,12.06,0,0,0-1.52-4.31c-.62-1.13-2.35-.12-1.72,1a7.78,7.78,0,0,1,1.31,3.84l1.83-.77c-3.33-6.5-5-14.11-7.14-21.07-.31-1-2.08-.91-2,.27l.13,1.28c.13,1.26,2.13,1.28,2,0Z" transform="translate(-968.43 -467.79)"/><path class="cls-2" d="M1026.65,559.62l-2.36-5.12c-.47-1-2.2-.3-1.83.77a178.59,178.59,0,0,1,5.43,17.68c.3,1.26,2.16.72,1.93-.54a92.11,92.11,0,0,0-6.75-21.17c-.53-1.17-2.26-.15-1.73,1a90,90,0,0,1,6.55,20.7l1.93-.54a179.22,179.22,0,0,0-5.43-17.67l-1.82.77,2.36,5.12c.54,1.17,2.26.15,1.72-1Z" transform="translate(-968.43 -467.79)"/><path class="cls-2" d="M1028.38,572.33q8.94,3.46,17.74,7.25c1.17.5,2.19-1.22,1-1.73q-9-3.89-18.22-7.45c-1.2-.47-1.72,1.47-.53,1.93Z" transform="translate(-968.43 -467.79)"/><path class="cls-2" d="M1029.37,573.69a187.31,187.31,0,0,0,22.53,8.67c1.23.39,1.76-1.54.53-1.93a183.91,183.91,0,0,1-22-8.47c-1.16-.53-2.18,1.19-1,1.73Z" transform="translate(-968.43 -467.79)"/><path class="cls-2" d="M1028.7,571.4l-.54.57a1,1,0,0,0,.2,1.57c6.78,4.6,15.56,7.06,23.21,9.83,1.21.44,1.73-1.5.53-1.93-7.47-2.7-16.14-5.15-22.73-9.63l.21,1.57.53-.56c.89-.93-.52-2.35-1.41-1.42Z" transform="translate(-968.43 -467.79)"/><path class="cls-2" d="M1031.23,574.13a149.4,149.4,0,0,0,31.36,13.19,1,1,0,0,0,.54-1.92,147.83,147.83,0,0,1-30.89-13c-1.13-.63-2.14,1.1-1,1.73Z" transform="translate(-968.43 -467.79)"/><path class="cls-2" d="M1042.2,578l25.37,11.61c1.16.53,2.18-1.19,1-1.73l-25.36-11.61c-1.16-.53-2.18,1.19-1,1.73Z" transform="translate(-968.43 -467.79)"/><path class="cls-2" d="M1045,578.44q12.42,5.87,25.14,11c1.2.48,1.7-1.44.53-1.93q-9.47-4-18.66-8.52l-.77,1.82,20.67,8.39c1,.42,1.78-1.33.77-1.83q-7.79-3.87-15.69-7.5l-1,1.73,16.1,7.38c1.16.53,2.18-1.19,1-1.73l-16.1-7.38c-1.16-.53-2.18,1.19-1,1.73q7.9,3.63,15.69,7.5l.77-1.83-20.66-8.39c-1-.42-1.79,1.33-.78,1.83q9.43,4.68,19.14,8.73l.53-1.93q-12.48-5-24.66-10.78c-1.16-.55-2.17,1.17-1,1.72Z" transform="translate(-968.43 -467.79)"/><path class="cls-2" d="M1063.45,595c-3.22-1.36-7.71-4.35-11.19-4.58-2.23-.14-3.35,1.09-5,2.48-7.35,6.18-14.66,12.41-22,18.61-1,.84.44,2.25,1.42,1.42l16.12-13.65c2.73-2.31,6.4-6.55,10.27-6.5,2.73,0,7.33,3.08,9.84,4.14,1.19.5,1.71-1.43.54-1.92Z" transform="translate(-968.43 -467.79)"/><path class="cls-2" d="M1048.45,594.86a11.5,11.5,0,0,0,4.32-2.59c.87-.82-.23-2-1.21-1.58a102.2,102.2,0,0,0-20.17,12.89c-1,.81.43,2.22,1.42,1.41a100.2,100.2,0,0,1,19.76-12.57l-1.21-1.57a7.15,7.15,0,0,1-3.45,2.08c-1.21.42-.69,2.35.54,1.93Z" transform="translate(-968.43 -467.79)"/><path class="cls-2" d="M1049.74,592.61c-7.39,2.22-14.12,7.31-20.72,11.18l-23.2,13.64a1,1,0,0,0,1,1.73l21.48-12.63c6.94-4.08,14.22-9.67,22-12a1,1,0,0,0-.53-1.93Z" transform="translate(-968.43 -467.79)"/><path class="cls-2" d="M1038.58,603.91a4.92,4.92,0,0,0,1.91-1.12c.81-.68-.07-1.88-1-1.67-7.67,1.77-14.68,6.32-21.43,10.22l1,1.73a125.78,125.78,0,0,1,15.82-8.16l-1-1.73a217.85,217.85,0,0,0-19.84,11.67c-1.07.71-.07,2.44,1,1.73a215.56,215.56,0,0,1,19.84-11.67c1.17-.61.14-2.22-1-1.73a125.78,125.78,0,0,0-15.82,8.16,1,1,0,0,0,1,1.73c6.59-3.81,13.48-8.3,20.95-10l-1-1.68-1,.61c-1.19.44-.67,2.38.54,1.93Z" transform="translate(-968.43 -467.79)"/><path class="cls-2" d="M1007.11,599.3A200.06,200.06,0,0,1,1019,617.74a1,1,0,0,0,1.73-1,200.16,200.16,0,0,0-11.87-18.44c-.74-1-2.48,0-1.72,1Z" transform="translate(-968.43 -467.79)"/><path class="cls-2" d="M1007.43,597.72a124.17,124.17,0,0,0-21.18,19.14c-.84,1,.57,2.38,1.42,1.41a122.09,122.09,0,0,1,20.77-18.82c1-.75,0-2.48-1-1.73Z" transform="translate(-968.43 -467.79)"/><path class="cls-2" d="M1006.89,598.9a53.49,53.49,0,0,0-4,5c-.66.92.82,2.06,1.57,1.21l3.77-4.24-1.57-1.22-2,3.16c-.6.93.85,2.1,1.57,1.21l2.52-3.15-1.57-1.21a3.56,3.56,0,0,0-.16,3,1,1,0,0,0,1.47.6,2.68,2.68,0,0,0,1.29-3.09c-.33-1.28-2.12-.71-1.93.53l.69,4.63c.19,1.27,2.12.73,1.93-.53l-.69-4.63-1.93.53a.66.66,0,0,1-.37.83l1.47.6a1.61,1.61,0,0,1,0-1.42c.44-.95-.81-2.17-1.57-1.21l-2.52,3.14,1.57,1.21,2-3.15c.61-.94-.81-2.06-1.57-1.21l-3.76,4.25,1.57,1.21a47.89,47.89,0,0,1,3.71-4.58c.86-1-.55-2.37-1.42-1.42Z" transform="translate(-968.43 -467.79)"/><path class="cls-2" d="M996.49,607.32a292.07,292.07,0,0,1,5.31-31.25c.28-1.25-1.65-1.79-1.93-.53a296.9,296.9,0,0,0-5.38,31.78c-.14,1.27,1.86,1.26,2,0Z" transform="translate(-968.43 -467.79)"/><path class="cls-2" d="M984.73,581.78a17.08,17.08,0,0,1,5.53-7.86c1-.8-.42-2.21-1.41-1.41a19,19,0,0,0-6.05,8.74c-.42,1.22,1.51,1.74,1.93.53Z" transform="translate(-968.43 -467.79)"/><path class="cls-2" d="M991.12,572.16l0-.11a1,1,0,0,0-1-.73,1.17,1.17,0,0,0-1.1.64,1,1,0,0,0,.16,1.22c1,.88,2.65.37,3.92.35a44.64,44.64,0,0,1,7,.45c1.26.19,1.81-1.74.54-1.92a46.35,46.35,0,0,0-5.26-.51c-.89,0-1.79,0-2.69,0-.52,0-1,0-1.54.07-.81-.08-1,0-.59.15l.16,1.21.06-.13-.86.49h.17l-1-.74,0,.11a1,1,0,0,0,1.93-.53Z" transform="translate(-968.43 -467.79)"/><path class="cls-2" d="M1000.15,572.63a48.14,48.14,0,0,1-2.71,10.2c-.46,1.2,1.47,1.72,1.93.53a48.14,48.14,0,0,0,2.71-10.2c.19-1.26-1.73-1.8-1.93-.53Z" transform="translate(-968.43 -467.79)"/><path class="cls-2" d="M999.1,573.91l-2.74,9c-.39,1.25,1.48,1.72,1.92.54q1.86-5,3.47-10a1,1,0,0,0-1.47-1.13c-2.9,1.94-4.21,6.84-5.68,9.84l1.82.77a54.89,54.89,0,0,1,3.9-9.05,1,1,0,0,0-1.72-1l-5.66,8,1.73,1q2.4-4.26,5-8.35c.72-1.11-1-2-1.73-1l-5.46,7.12,1.73,1a35.56,35.56,0,0,1,5.08-7.17,1,1,0,0,0-.44-1.67c-.91-.35-1.29-.1-2.08.43-2.12,1.43-4,4.14-5.8,6l1.57,1.21a54.26,54.26,0,0,1,5.14-6c.76-.77-.28-2.27-1.22-1.57a34.67,34.67,0,0,0-5.68,5.35l1.57,1.21,3.76-4.89c.6-.79-.58-1.94-1.37-1.37a24.69,24.69,0,0,0-3.95,3.56l1.42,1.42,2.59-3a1,1,0,0,0-1.21-1.57,11.16,11.16,0,0,0-4.68,4.22c-.62,1,.77,2,1.57,1.21a11.31,11.31,0,0,0,3.06-4.8c.35-1-1-1.57-1.67-1a48.28,48.28,0,0,0-4.73,4.65l1.57,1.21,3.42-4.53c.61-.8-.57-1.89-1.37-1.36a20.58,20.58,0,0,0-4,3.4l1.41,1.42a18.44,18.44,0,0,0,2.15-3.29,1,1,0,0,0-.36-1.37c-3.83-1.9-7.74,9-8.5,11.58a1,1,0,0,0,1.93.53,27.12,27.12,0,0,1,2.28-5.55c.35-.63,3.07-4.94,3.29-4.83l-.36-1.37a11.76,11.76,0,0,1-1.84,2.88c-.79,1,.53,2.39,1.41,1.42a17.85,17.85,0,0,1,3.59-3.1l-1.37-1.36L987,577c-.69.9.82,2,1.57,1.21a50.52,50.52,0,0,1,4.72-4.65l-1.67-1a9.32,9.32,0,0,1-2.54,3.92l1.57,1.21a9.08,9.08,0,0,1,4-3.5l-1.22-1.57-2.59,3c-.83,1,.56,2.39,1.42,1.42a20.68,20.68,0,0,1,3.54-3.25l-1.37-1.37-3.76,4.89c-.69.89.84,2.08,1.57,1.21a32.66,32.66,0,0,1,5.28-5L996.3,572a57.38,57.38,0,0,0-5.45,6.4c-.68.93.8,2,1.57,1.22s5.24-6.17,5.94-5.9l-.44-1.67a37.65,37.65,0,0,0-5.4,7.57,1,1,0,0,0,1.73,1l5.46-7.12-1.73-1c-1.76,2.74-3.44,5.51-5,8.35a1,1,0,0,0,1.73,1l5.65-8-1.72-1a58.44,58.44,0,0,0-4.11,9.52c-.32,1.07,1.32,1.81,1.83.78,1.25-2.53,2.58-7.52,5-9.13l-1.47-1.13q-1.61,5.07-3.46,10l1.92.54,2.75-9c.38-1.24-1.55-1.76-1.93-.53Z" transform="translate(-968.43 -467.79)"/><path class="cls-2" d="M988.44,572.12a38.9,38.9,0,0,0-6.36,12c-.4,1.23,1.53,1.75,1.93.53a36.22,36.22,0,0,1,5.84-11.14c.78-1-.62-2.43-1.41-1.41Z" transform="translate(-968.43 -467.79)"/><path class="cls-2" d="M1023.77,524.43l.16,0a1,1,0,0,0,1.23-.7l0-.22c.12-.57-.27-1.33-1-1.26-3.39.34-7.33,4.45-9.77,6.65l1.57,1.22c2.38-3.45,6.15-5.74,9.42-8.24l9.37-7.18c1-.77,0-2.51-1-1.73l-11.71,9c-2.84,2.18-5.74,4.19-7.8,7.17-.67,1,.77,1.94,1.57,1.21,1.75-1.58,5.76-5.81,8.36-6.07l-1-1.27,0,.21,1.23-.69-.16,0c-1.26-.2-1.8,1.72-.53,1.93Z" transform="translate(-968.43 -467.79)"/><path class="cls-1" d="M1014.07,523.34l-2,1.73a1,1,0,0,0-.25,1,10.45,10.45,0,0,1,.44,2.07,1,1,0,0,0,2,0,7.54,7.54,0,0,0-.2-2.22c-.29-1.25-2.21-.72-1.93.54l.61,2.68c.28,1.25,2.21.72,1.93-.53l-.61-2.69-1.93.54a5.57,5.57,0,0,1,.13,1.68h2a12.75,12.75,0,0,0-.52-2.6l-.25,1,2-1.72c1-.85-.45-2.26-1.42-1.42Z" transform="translate(-968.43 -467.79)"/><path class="cls-1" d="M988,572.87a1,1,0,0,0,0-2,1,1,0,0,0,0,2Z" transform="translate(-968.43 -467.79)"/><path class="cls-1" d="M988.21,571a22.26,22.26,0,0,0-5-.26c-1.28.09-1.29,2.09,0,2a19.91,19.91,0,0,1,4.43.19c1.26.21,1.8-1.72.53-1.93Z" transform="translate(-968.43 -467.79)"/><path class="cls-2" d="M987.37,577.35a6,6,0,0,1,1.4-3.24l-1.57-1.21L986,575a1,1,0,0,0,1.72,1,4.24,4.24,0,0,0,.6-1.25c.14-.44.19-1.21.56-1.54s1.56.74,2.2.85c1.26.21,1.8-1.71.53-1.93-.62-.1-1-.68-1.58-.94a2.1,2.1,0,0,0-1.92.08c-1.49.81-1.26,2.49-2.11,3.72l1.72,1,1.21-2.12c.54-1-.82-2.11-1.57-1.22a8.5,8.5,0,0,0-2,4.66c-.15,1.27,1.85,1.26,2,0Z" transform="translate(-968.43 -467.79)"/><path class="cls-2" d="M1015.05,529.39l-.37.69h1.73l-.68-1.23c-.57-1-2.05-.3-1.83.78a14.69,14.69,0,0,0,1.12,3.29c.48,1,2.2.3,1.83-.77l-1-2.84a1,1,0,0,0-2,.27,8,8,0,0,0,.52,2.82,1,1,0,0,0,1.92-.53,15.66,15.66,0,0,1-.51-1.9c-.08-.63-.16-.55.39-1a32.47,32.47,0,0,1,2.74-1.89c1.06-.73.06-2.46-1-1.73L1015.6,527a6.32,6.32,0,0,0-1.57,1.24c-.87,1.19.05,3,.39,4.21l1.92-.53a6.38,6.38,0,0,1-.44-2.29l-2,.26,1,2.84,1.83-.77a12.09,12.09,0,0,1-.92-2.82l-1.83.77.68,1.23a1,1,0,0,0,1.73,0l.37-.69c.61-1.14-1.12-2.15-1.73-1Z" transform="translate(-968.43 -467.79)"/><path class="cls-3" d="M1019.78,515.05a71.81,71.81,0,0,0-5.91,4.82c-1.38,1.26-3.91,3-4,5a2.09,2.09,0,0,0,1.47,1.93,2.11,2.11,0,0,0,2.7-2.49l0-.09c-.64-2.49-4.5-1.44-3.85,1.06l0,.09.92-2.25-.12.07,1.55-.2-.12,0,1.46,1.93c0,.74,0,.38.47.06a11.28,11.28,0,0,0,.92-.91q1-1,2.13-2c1.4-1.25,2.87-2.43,4.38-3.55,2.05-1.51.06-5-2-3.45Z" transform="translate(-968.43 -467.79)"/><path class="cls-3" d="M1019.93,515.67l-9.2,7.48c-2,1.62.85,4.43,2.83,2.82l9.2-7.47c2-1.63-.85-4.44-2.83-2.83Z" transform="translate(-968.43 -467.79)"/><path class="cls-3" d="M1009.28,525.53q9.08,23.93,16.35,48.45c.73,2.46,4.59,1.42,3.85-1.06q-7.26-24.52-16.35-48.45c-.9-2.38-4.77-1.35-3.85,1.06Z" transform="translate(-968.43 -467.79)"/><path class="cls-3" d="M1026.74,575.35c13.54,7.61,29,12.58,43.3,18.54,2.38,1,3.41-2.88,1.07-3.86-14-5.82-29.13-10.7-42.35-18.14-2.24-1.26-4.26,2.2-2,3.46Z" transform="translate(-968.43 -467.79)"/><path class="cls-3" d="M1069.61,591a24.46,24.46,0,0,0-10.27.9c-2.45.75-1.4,4.61,1.07,3.85a21.69,21.69,0,0,1,9.2-.75c2.55.33,2.52-3.67,0-4Z" transform="translate(-968.43 -467.79)"/><path class="cls-3" d="M1059.44,592.9c-3-2-6.68-6-10.5-4.63-4.46,1.6-8.63,5.37-12.47,8.07a100.34,100.34,0,0,1-12.68,7.87c-4,2-7.95,4-11.29,7.08-1.89,1.76.94,4.58,2.83,2.83,5.73-5.34,13.93-8,20.39-12.39,3.25-2.23,6.42-4.58,9.72-6.74,1.26-.83,3.8-3.08,5.36-3s5.21,3.45,6.62,4.38c2.15,1.43,4.16-2,2-3.45Z" transform="translate(-968.43 -467.79)"/><path class="cls-3" d="M1016.92,610.32l-4.28-8.76c-1-2.16-2-4.84-3.47-6.72a2,2,0,0,0-1.95-.51c-2.18.68-4.18,2.91-5.94,4.32a64.26,64.26,0,0,0-7.06,6.12c-1.75,1.89,1.07,4.72,2.83,2.83a48.19,48.19,0,0,1,5.34-4.75c1.61-1.29,4-4.06,5.9-4.67l-1.95-.51c1.52,1.9,2.43,5.06,3.5,7.25l3.63,7.42c1.13,2.31,4.58.29,3.45-2Z" transform="translate(-968.43 -467.79)"/><path class="cls-3" d="M997.85,605.24l3.4-18,1.61-8.54c.41-2.17,1.48-4.89,1.24-7.13s-1.65-2.93-3.69-3.34c-6.18-1.27-13.22-.82-19.48-.64-2.57.07-2.58,4.07,0,4,4.23-.12,8.45-.11,12.67.12,2.16.11,5.37-.61,6.12,2.13.38,1.37-.82,4.36-1.07,5.69L994,604.18c-.48,2.51,3.38,3.59,3.86,1.06Z" transform="translate(-968.43 -467.79)"/><path class="cls-3" d="M982.51,569.77l0-.14a2,2,0,0,0-1.4-1.4c-1.72-.3-2.64.7-3.26,2.16l-1.75,4.13a2.06,2.06,0,0,0,.72,2.73,2,2,0,0,0,2.73-.72l1.15-2.68a13.12,13.12,0,0,1,1.11-2.51l-.72.72h-1.18l.14,0-1.4-1.4,0,.14c.78,2.44,4.65,1.4,3.85-1.06Z" transform="translate(-968.43 -467.79)"/><path class="cls-3" d="M1106.82,502.47l.48-.72c.31-.48-.4-1-.79-.61q-8.49,8.83-16.28,18.29c-.4.49.3,1.2.71.71q7.79-9.46,16.28-18.29l-.79-.6-.47.71c-.35.54.51,1,.86.51Z" transform="translate(-968.43 -467.79)"/><path class="cls-3" d="M1105,507.33a94.37,94.37,0,0,0-8.85,9.15c-.41.49.29,1.2.71.71a94.31,94.31,0,0,1,8.84-9.15c.48-.43-.23-1.14-.7-.71Z" transform="translate(-968.43 -467.79)"/><path class="cls-3" d="M1068.83,616.76a65.49,65.49,0,0,1-14.61.23c-.64-.07-.63.93,0,1a65.49,65.49,0,0,0,14.61-.23c.63-.08.63-1.08,0-1Z" transform="translate(-968.43 -467.79)"/><path class="cls-3" d="M1055,615.79a56.84,56.84,0,0,0,12.93-1.39c.62-.14.36-1.11-.27-1a56.16,56.16,0,0,1-12.66,1.35.5.5,0,0,0,0,1Z" transform="translate(-968.43 -467.79)"/><path class="cls-3" d="M1062.25,609.34a63.25,63.25,0,0,0-7.43,13.54c-.24.6.73.86,1,.27a62,62,0,0,1,7.32-13.31c.38-.52-.49-1-.86-.5Z" transform="translate(-968.43 -467.79)"/><path class="cls-3" d="M1065.2,611.75l-5.16,7.34c-.37.53.5,1,.86.51l5.17-7.35c.37-.52-.5-1-.87-.5Z" transform="translate(-968.43 -467.79)"/><path class="cls-3" d="M1136.61,498.31a33.8,33.8,0,0,1,12,12.7c.3.57,1.17.06.86-.5a35,35,0,0,0-12.36-13.07c-.55-.34-1,.53-.5.87Z" transform="translate(-968.43 -467.79)"/><path class="cls-3" d="M1138.89,503.12a25.2,25.2,0,0,1,7.72,10.19c.24.58,1.21.33,1-.27a26,26,0,0,0-8-10.63c-.5-.39-1.22.31-.71.71Z" transform="translate(-968.43 -467.79)"/><path class="cls-3" d="M1142.64,498.19A100.42,100.42,0,0,1,1144,510.3c0,.64,1,.65,1,0a100.91,100.91,0,0,0-1.43-12.38c-.11-.63-1.08-.36-1,.27Z" transform="translate(-968.43 -467.79)"/><path class="cls-3" d="M1145.58,501.82a20.75,20.75,0,0,1,.72,11.47c-.14.63.83.9,1,.27a21.7,21.7,0,0,0-.73-12c-.21-.61-1.18-.35-1,.26Z" transform="translate(-968.43 -467.79)"/><path class="cls-3" d="M979.81,607.87a51.21,51.21,0,0,0,8,24.75c.34.54,1.21,0,.86-.5a50.25,50.25,0,0,1-7.87-24.25c0-.64-1-.64-1,0Z" transform="translate(-968.43 -467.79)"/><path class="cls-3" d="M984.51,618.31a21.62,21.62,0,0,0,5.19,12.34c.42.49,1.12-.22.7-.71a20.43,20.43,0,0,1-4.89-11.63c0-.64-1.06-.64-1,0Z" transform="translate(-968.43 -467.79)"/><path class="cls-3" d="M979.65,621.82a28.4,28.4,0,0,0,10.27,4.74c.63.15.89-.81.27-1a27.53,27.53,0,0,1-10-4.64c-.52-.38-1,.48-.51.86Z" transform="translate(-968.43 -467.79)"/><path class="cls-3" d="M981.68,626.62a33,33,0,0,0,9.42,2.52c.64.07.63-.93,0-1a31.27,31.27,0,0,1-8.91-2.39c-.59-.25-1.1.61-.51.87Z" transform="translate(-968.43 -467.79)"/><path class="cls-3" d="M1151,582.77l-12.32,15.6c-.39.5.31,1.22.71.71l12.32-15.61c.39-.49-.31-1.21-.71-.7Z" transform="translate(-968.43 -467.79)"/><path class="cls-3" d="M1151.23,587.75q-6.95,7.17-13.37,14.81c-.41.49.29,1.2.71.7q6.42-7.63,13.37-14.8c.45-.46-.26-1.17-.71-.71Z" transform="translate(-968.43 -467.79)"/><path class="cls-3" d="M1144.57,583.86a24.85,24.85,0,0,1,2,11.23c0,.64,1,.64,1,0a26,26,0,0,0-2.15-11.74c-.25-.58-1.11-.08-.86.51Z" transform="translate(-968.43 -467.79)"/><path class="cls-3" d="M1143.2,589a31.38,31.38,0,0,1,.25,14.86c-.14.62.82.89,1,.26a32.51,32.51,0,0,0-.24-15.38.5.5,0,0,0-1,.26Z" transform="translate(-968.43 -467.79)"/><path class="cls-3" d="M1085.34,638.92l-3.38,7.3c-.27.58.59,1.09.86.51l3.38-7.31c.27-.58-.59-1.09-.86-.5Z" transform="translate(-968.43 -467.79)"/><path class="cls-1" d="M1110,621.91a65.72,65.72,0,0,0-16.16,11.3c-.48.45.22,1.11.7.7a190.29,190.29,0,0,1,16.1-12.17.5.5,0,0,0-.51-.87l-17.6,10.27.51.86a138,138,0,0,1,14.3-9.38l-.6-.79L1091.21,634c-.44.35.14,1.1.61.79L1102,628c2.94-2,6.24-3.72,8.73-6.24.28-.29.09-.89-.35-.85-3.26.25-6.15,2.45-8.81,4.17a98.92,98.92,0,0,0-9.09,6.7c-.43.35.14,1.11.61.78a156.78,156.78,0,0,1,19.68-11.71l-.5-.86q-9.32,6.59-18.28,13.64c-.51.4.2,1.1.7.71q8.14-6.3,16.87-11.75a.5.5,0,0,0-.5-.86c-6.37,3.42-11.84,8.12-17.25,12.85-.43.37.13,1.11.6.79,7.26-5,14.59-9.93,23-12.84.6-.21.34-1.17-.27-1-8.45,2.94-15.86,7.91-23.19,12.93l.6.79c5.36-4.68,10.76-9.31,17-12.7l-.5-.86a207.4,207.4,0,0,0-17.07,11.9l.7.71q8.88-7,18.08-13.49a.5.5,0,0,0-.5-.86,156.9,156.9,0,0,0-19.69,11.71l.61.78a98,98,0,0,1,8.14-6c2.62-1.73,5.82-4.27,9.05-4.52l-.36-.86c-2.63,2.67-6.23,4.56-9.34,6.63l-9.41,6.26.61.78,15.5-12.13c.46-.36-.12-1.06-.6-.79a135.55,135.55,0,0,0-14.31,9.39c-.5.38-.06,1.2.51.86l17.6-10.26-.51-.87a191.36,191.36,0,0,0-16.29,12.34l.7.7a65.08,65.08,0,0,1,16-11.14c.58-.28.07-1.15-.51-.86Z" transform="translate(-968.43 -467.79)"/><path class="cls-1" d="M1103.52,630.38c-2.29-.29-2.12-1.89-1-3.41a.5.5,0,0,0-.18-.68c-1.95-.86-3.07.94-2.8,2.75.45,3.08,3.72,4.94,5.36,7.33l.79-.61-8-6.31a.5.5,0,0,0-.7.71,45.54,45.54,0,0,0,6.75,6.92c.49.41,1.2-.28.71-.7a37.47,37.47,0,0,1-6.47-7.13.5.5,0,0,0-.86.51,27.31,27.31,0,0,0,6.82,8.78c.49.41,1.18-.25.71-.71a47.66,47.66,0,0,1-5.74-6.7.51.51,0,0,0-.92.39,15.75,15.75,0,0,0,2.26,5.28c.66,1,1.64,2.53,2.76,3,2.56,1,2.29-3,2.3-4.41s.56-5.09-2-4c-2.39,1-1.32,5.65-.3,7.21a.51.51,0,0,0,.69.18c2.27-1.55-1.48-4.47-2.78-5.14a.5.5,0,0,0-.68.18c-.54,1.25-.22,2.08.59,3.19.65.91,2.29,3.19,3.67,3,2.81-.32-1.26-3.92-2-4.28-.42-.21-1,.23-.68.68a4.39,4.39,0,0,0,6.33,1.34c.53-.36,0-1.23-.5-.86a3.41,3.41,0,0,1-5-1l-.68.68c.69.35,2.46,1.78,1,1.3-1-.34-2.32-2.59-1.89-3.59l-.68.17c.33.18,4,2.56,2.77,3.42l.69.18a5.31,5.31,0,0,1-.87-2.87c0-.5.44-2.4,1.37-1.9a22.1,22.1,0,0,1,0,4.21c-.94,2.54-2.69-.42-3.4-1.49a14.6,14.6,0,0,1-1.93-4.71l-.92.39a51.07,51.07,0,0,0,5.9,6.9l.71-.71a26.49,26.49,0,0,1-6.67-8.58l-.86.51a38.38,38.38,0,0,0,6.62,7.32l.71-.7a46.63,46.63,0,0,1-6.76-6.93l-.7.71,8,6.31c.41.32,1.14-.1.79-.61a23.11,23.11,0,0,0-2.61-3,16.24,16.24,0,0,1-1.56-1.75,5.44,5.44,0,0,1-.69-1.07c-.89-1.33-.58-2.29.93-2.9l-.18-.68a5.89,5.89,0,0,0-1.25,3.51.5.5,0,0,0,.25.44,7.19,7.19,0,0,0,2.85,1c.64.08.63-.92,0-1Z" transform="translate(-968.43 -467.79)"/><path class="cls-1" d="M1108.57,632.82a43.71,43.71,0,0,0-14.3,6.25c-.45.3-.18,1.09.39.91q8.19-2.51,16.17-5.62a.5.5,0,0,0-.27-1,57.93,57.93,0,0,0-16.1,6.24c-.48.27-.15,1.13.38.91l15.51-6.28-.38-.92q-7.86,3.52-15.38,7.7c-.56.31-.06,1.17.51.86a99.57,99.57,0,0,1,17.24-7.52c.61-.2.35-1.16-.26-1a93.69,93.69,0,0,0-15.5,6.53c-.58.31-.07,1.11.51.87a144.33,144.33,0,0,1,17.51-6.18l-.26-1c-5.54,1.94-11,3.93-16.09,7-.57.34-.08,1.12.5.87a113.71,113.71,0,0,1,16.61-6.31l-.27-1q-8.86,3.32-17.87,6.27c-.5.17-.45,1,.14,1a37.92,37.92,0,0,0,13.43-3.69c.43-.21.24-1-.25-.93a47.16,47.16,0,0,0-12.31,3.17.5.5,0,0,0,.27,1l9.56-2.18-.27-1-9.52,3.31c-.49.17-.46,1.05.13,1a31.43,31.43,0,0,0,9.32-2.57c.55-.25.14-1-.38-.91q-3.69.71-7.32,1.66c-.45.12-.5.88,0,1a8,8,0,0,0,6.32-1.38c.43-.3.19-1.11-.39-.91q-3.56,1.18-7,2.6a.5.5,0,0,0,.27,1,22.8,22.8,0,0,0,7.35-3,.5.5,0,0,0-.5-.87,26.4,26.4,0,0,1-6.6,2.41.5.5,0,0,0,.13,1,12.13,12.13,0,0,0,8.37-3.38.5.5,0,0,0-.6-.79,32.63,32.63,0,0,1-8,3.45.5.5,0,0,0,.27,1,43.75,43.75,0,0,0,9.15-3.26c.58-.29.07-1.15-.51-.87a42,42,0,0,1-8.91,3.17l.27,1a33.2,33.2,0,0,0,8.26-3.55l-.6-.78a11,11,0,0,1-7.67,3.09l.14,1a27.31,27.31,0,0,0,6.83-2.5l-.5-.87a21.93,21.93,0,0,1-7.12,2.91l.27,1q3.46-1.41,7-2.6l-.39-.91a7,7,0,0,1-5.54,1.27v1c2.42-.64,4.85-1.2,7.31-1.67l-.38-.91a30,30,0,0,1-8.82,2.43l.14,1,9.52-3.31a.5.5,0,0,0-.27-1l-9.56,2.19.27,1a46.45,46.45,0,0,1,12-3.13l-.25-.93a36.69,36.69,0,0,1-12.93,3.55l.13,1q9-3,17.87-6.27a.5.5,0,0,0-.27-1,116.93,116.93,0,0,0-16.84,6.41l.5.87c5-3,10.4-5,15.85-6.89.6-.21.36-1.14-.26-1a146.76,146.76,0,0,0-17.76,6.27l.51.87a92.81,92.81,0,0,1,15.25-6.44l-.26-1a101.31,101.31,0,0,0-17.49,7.62l.51.86q7.51-4.18,15.37-7.69c.51-.23.14-1.13-.38-.92l-15.51,6.29.38.91a57.31,57.31,0,0,1,15.87-6.14l-.27-1q-8,3.12-16.17,5.62l.39.91a42.9,42.9,0,0,1,14.06-6.15c.63-.15.36-1.11-.27-1Z" transform="translate(-968.43 -467.79)"/><path class="cls-3" d="M1110,612.53a26.3,26.3,0,0,0,8.5,3.37c.63.13.9-.84.27-1a25.26,25.26,0,0,1-8.27-3.26c-.55-.34-1,.53-.5.86Z" transform="translate(-968.43 -467.79)"/><path class="cls-3" d="M1109,614.81a52.38,52.38,0,0,1,6.66,4.38c.51.39,1.22-.31.71-.71a55.14,55.14,0,0,0-6.87-4.54.5.5,0,0,0-.5.87Z" transform="translate(-968.43 -467.79)"/><path class="cls-3" d="M1062.85,494.68a111.29,111.29,0,0,0-17.57,23.26.5.5,0,0,0,.87.5,110.21,110.21,0,0,1,17.41-23.06c.45-.45-.26-1.16-.71-.7Z" transform="translate(-968.43 -467.79)"/><path class="cls-3" d="M1065.82,496.09l-6.46,6.83c-.44.47.26,1.18.71.71l6.46-6.84c.44-.46-.26-1.17-.71-.7Z" transform="translate(-968.43 -467.79)"/><path class="cls-4" d="M1038.91,504.45a161.72,161.72,0,0,1,61.58-30.06.5.5,0,0,0-.27-1,163.09,163.09,0,0,0-62,30.32c-.51.4.21,1.1.71.71Z" transform="translate(-968.43 -467.79)"/><path class="cls-4" d="M1103.76,473.93l.52-.26c.58-.29.07-1.16-.5-.87l-.52.27c-.58.28-.07,1.15.5.86Z" transform="translate(-968.43 -467.79)"/><path class="cls-4" d="M1108.73,473.2l15.41.93c.64,0,.64-1,0-1l-15.41-.93c-.65,0-.64,1,0,1Z" transform="translate(-968.43 -467.79)"/><path class="cls-4" d="M1135.26,477.21c7.74,4.45,15.65,9.1,20.94,16.51.37.52,1.24,0,.86-.51-5.39-7.56-13.39-12.32-21.3-16.87a.5.5,0,0,0-.5.87Z" transform="translate(-968.43 -467.79)"/><path class="cls-4" d="M1157.27,496.62a67.51,67.51,0,0,1,4.2,14.86c.1.64,1.07.37,1-.26a67.2,67.2,0,0,0-4.2-14.86c-.24-.59-1.2-.33-1,.26Z" transform="translate(-968.43 -467.79)"/><path class="cls-4" d="M1161.2,514.48v1.82a.5.5,0,0,0,1,0v-1.82a.5.5,0,0,0-1,0Z" transform="translate(-968.43 -467.79)"/><path class="cls-4" d="M1160.3,521.41a86.56,86.56,0,0,1-4.92,19c-.23.6.74.86,1,.26a87.1,87.1,0,0,0,4.91-19c.09-.63-.87-.9-1-.26Z" transform="translate(-968.43 -467.79)"/><path class="cls-4" d="M1154.84,545.41c-1.35,6.24-4.36,11.82-7.76,17.16s-7.14,10.8-10.81,16.13c-.36.53.51,1,.87.5,3.83-5.57,7.68-11.15,11.28-16.88,3.26-5.19,6.08-10.62,7.38-16.64.14-.63-.82-.9-1-.27Z" transform="translate(-968.43 -467.79)"/><path class="cls-4" d="M1131,586.92A176,176,0,0,1,1104.09,616c-.49.42.22,1.12.71.7a176.88,176.88,0,0,0,27-29.26c.38-.52-.48-1-.86-.51Z" transform="translate(-968.43 -467.79)"/><path class="cls-4" d="M1134.13,582.05l-1,1.57c-.36.53.51,1,.86.5l1-1.56c.35-.54-.51-1-.87-.51Z" transform="translate(-968.43 -467.79)"/><path class="cls-4" d="M981.83,633.13A41,41,0,0,0,1007.92,650c.63.12.9-.84.27-1a40.09,40.09,0,0,1-25.49-16.43c-.37-.53-1.24,0-.87.5Z" transform="translate(-968.43 -467.79)"/><path class="cls-4" d="M1013,649.07h2.35a.5.5,0,0,0,0-1H1013a.5.5,0,0,0,0,1Z" transform="translate(-968.43 -467.79)"/><path class="cls-4" d="M1021.22,648.77a203.8,203.8,0,0,0,31.83-8.58c.6-.22.34-1.18-.27-1a203.53,203.53,0,0,1-31.83,8.59c-.63.11-.36,1.08.27,1Z" transform="translate(-968.43 -467.79)"/><path class="cls-4" d="M1057.87,637.79l2.1-1.54c.52-.38,0-1.25-.5-.86l-2.1,1.54c-.52.38,0,1.24.5.86Z" transform="translate(-968.43 -467.79)"/><path class="cls-4" d="M986.8,571.24c-2.74,3.17-4,7.56-5.36,11.45a125.9,125.9,0,0,0-4.16,15.13c-.13.63.83.9,1,.27a124.54,124.54,0,0,1,3.54-13.33c1.4-4.26,2.74-9.36,5.72-12.81.42-.49-.28-1.2-.71-.71Z" transform="translate(-968.43 -467.79)"/><path class="cls-4" d="M984.17,572.34a5.79,5.79,0,0,1,2.48-.22c.64.08.63-.92,0-1a6.51,6.51,0,0,0-2.74.25c-.62.19-.36,1.16.26,1Z" transform="translate(-968.43 -467.79)"/><path class="cls-4" d="M977.52,601.33a.5.5,0,0,0,0-1,.5.5,0,0,0,0,1Z" transform="translate(-968.43 -467.79)"/><path class="cls-1" d="M1050.5,540.73c1.56-1.57,3.83-.2,5.1,1,2,1.93,1,3.8-.67,5.51-.45.46.26,1.17.7.7,2-2.14,3.12-4.6.68-6.92-1.73-1.64-4.52-3.07-6.52-1.05a.5.5,0,0,0,.71.71Z" transform="translate(-968.43 -467.79)"/><path class="cls-1" d="M1055.44,546.39q13.92,13.74,28,27.27c.46.44,1.17-.26.71-.71q-14.13-13.53-28-27.27c-.46-.45-1.17.26-.71.71Z" transform="translate(-968.43 -467.79)"/><path class="cls-1" d="M1085,575.11a3.18,3.18,0,0,1,1.36,1.18c.35.54,1.21,0,.87-.5a4.11,4.11,0,0,0-1.73-1.55c-.58-.27-1.09.59-.5.87Z" transform="translate(-968.43 -467.79)"/><path class="cls-1" d="M1088.75,578.29a85.18,85.18,0,0,0,7.17,6.39c.49.4,1.21-.31.7-.71a86.52,86.52,0,0,1-7.16-6.38c-.46-.46-1.17.25-.71.7Z" transform="translate(-968.43 -467.79)"/><path class="cls-1" d="M1054.87,541.05a4.18,4.18,0,0,1-1,5.59c-.32.23-.35.83.12.92a2.4,2.4,0,0,0,2.22-.63c.48-.43-.23-1.14-.7-.7a1.24,1.24,0,0,1-1.26.36l.12.92a5.22,5.22,0,0,0,1.42-7c-.34-.54-1.21,0-.87.51Z" transform="translate(-968.43 -467.79)"/><path class="cls-1" d="M1054.85,545.54a1.91,1.91,0,0,1-1.77,1.09.51.51,0,0,0-.48.63,1.56,1.56,0,0,0,1.73,1.12,3.07,3.07,0,0,0,2-1.62c.37-.54-.5-1-.86-.51a2.71,2.71,0,0,1-1,1.06c-.34.15-.84.11-.93-.31l-.49.63a2.9,2.9,0,0,0,2.63-1.58c.29-.58-.57-1.09-.86-.51Z" transform="translate(-968.43 -467.79)"/><path class="cls-1" d="M1056.3,546.31a4.31,4.31,0,0,0,0-5.45c-.4-.51-1.1.21-.7.7a3.29,3.29,0,0,1,0,4.05c-.39.49.31,1.21.71.7Z" transform="translate(-968.43 -467.79)"/><path class="cls-1" d="M1055.15,541.56a3.72,3.72,0,0,1,.61,3.29.5.5,0,0,0,1,.26,4.67,4.67,0,0,0-.71-4.06c-.38-.51-1.24,0-.86.51Z" transform="translate(-968.43 -467.79)"/><path class="cls-3" d="M1053.67,543.89a10.52,10.52,0,0,1-2.73,4.82c-.39.39.13,1.13.6.78a6.26,6.26,0,0,0,2.65-5.9l-.93.26a3.11,3.11,0,0,1-1.58,4.08l.5.86a5.53,5.53,0,0,0,2.62-6.55l-.92.38c1.52,2.16-.79,4.16-2.36,5.39-.5.4.21,1.1.71.71,1.94-1.53,4.31-4.05,2.52-6.6-.31-.44-1.1-.19-.92.38a4.53,4.53,0,0,1-2.15,5.43c-.58.31-.07,1.13.5.86a4.1,4.1,0,0,0,1.94-5.45c-.2-.44-1-.23-.93.25a5.27,5.27,0,0,1-2.15,5l.6.79a11.47,11.47,0,0,0,3-5.26.5.5,0,0,0-1-.27Z" transform="translate(-968.43 -467.79)"/></svg>