<svg id="debr3" xmlns="http://www.w3.org/2000/svg" viewBox="0 0 108.35 192.14"><defs><style>.cls-1{fill:#a6a6cc;}.cls-2{fill:#76768e;}.cls-3{fill:#ebebff;}</style></defs><title>debr3</title><path class="cls-1" d="M510,448.24c-21.61,59.16-45.54,117.53-68.55,176.15-1.34,3.41,2.52,6.22,5.54,5.54,2.73-.62,4.52-2.17,6.34-4.21a21.57,21.57,0,0,1,9.09-6.56c7.72-2.9,16-4.74,23.88-7l12.41-3.56c3.12-.9,7.48-1.39,9.75-4a5.83,5.83,0,0,0,.38-7.25c-.68-1-1.91-1.58-2.37-2.67-.73-1.74.06-4.32.42-6,3.44-16.49,10.53-32.7,16.25-48.51,2.78-7.67,6-15,10.78-21.67,3.28-4.59,11.63-11.25,6.12-17.17-2.86-3.08-7.5-5.28-11-7.61-3.92-2.65-8.31-5.06-11.95-8.1-4.18-3.5-2.71-8.9-2.42-13.8L515.6,456c.34-5.78-8.67-5.76-9,0l-1,17.69c-.29,4.82-1,9.94,1.62,14.28,2.4,4,7,6.44,10.74,9l7.4,5c2.26,1.53,6.84,3.43,8.21,5.78l-.45-3.47c-.36,2.07-3,4.34-4.25,5.95s-2.53,3.32-3.71,5a74.86,74.86,0,0,0-6.69,12.24c-4,9.07-7,18.57-10.28,27.9s-7,18.57-9.36,28.15c-.93,3.72-1.94,7.73-1.38,11.6a12,12,0,0,0,1.57,4.65,11.73,11.73,0,0,0,1.49,1.88c.18.2,1.57,1.68,1.08.94l-.46-3.47.9-.92-2.86.82-4.77,1.38-8.6,2.46-18.14,5.21c-4.35,1.25-8.79,2.46-12.82,4.59a24.56,24.56,0,0,0-5.68,4.07c-1.41,1.38-2.55,4-4.58,4.46l5.54,5.54c23-58.63,46.94-117,68.55-176.16,2-5.44-6.7-7.79-8.68-2.39Z" transform="translate(-437.53 -442.84)"/><path class="cls-1" d="M510.15,480.62l1.44-2.45-8.23-3.47-27.68,84.66,8.67,2.39c6.94-23.29,14-46.68,26.46-67.72l-8.23-3.46-10.13,51.79c-1.1,5.63,7.11,8,8.67,2.4Q507.72,521,513,497l-8.68-2.39a133.2,133.2,0,0,0-2.36,40c.45,4.81,7.43,6.39,8.84,1.19a139.79,139.79,0,0,0,4.86-39.88c-.11-4.89-7.79-6.34-8.84-1.2A80.74,80.74,0,0,0,509,536.15c1.24,3.8,8,4.74,8.68,0a152.09,152.09,0,0,0-.09-43.92c-.76-5.18-8.7-3.67-8.84,1.2a134.88,134.88,0,0,0,3.78,35.75,4.54,4.54,0,0,0,7.52,2c4.08-4.18,3.33-9.62,2.95-15-.52-7.29-1.24-14.57-2.12-21.84-.68-5.57-9.21-5.93-9,0a164.32,164.32,0,0,0,3.82,30c1.18,5.29,8.37,3.54,8.84-1.2.84-8.48,1.85-16.81,4.78-24.87L520.51,497c.13,6.23.56,12.42,1.31,18.61.44,3.71,4.66,6.14,7.68,3.18,4.38-4.29,4.93-10.05,4.7-15.9s-8.69-5.78-9,0a13.4,13.4,0,0,0,2.45,8.71,4.6,4.6,0,0,0,6.15,1.62,10,10,0,0,0,5.4-9c.16-4.12-4.91-5.63-7.68-3.18-10.34,9.17-16.85,23.24-23,35.38-6.59,13.09-12.74,26.4-20.63,38.78l8.38,2.27a67,67,0,0,1,19.16-39.31L508,533.81c-2.89,11-7.66,21.23-12.33,31.54l-14.1,31.19,8.22,3.47a279.15,279.15,0,0,1,36.23-79c2.78-4.19-3.8-9.43-7.07-5.45-20.44,24.85-35.44,53.26-50.18,81.7l8.23,3.47a406.9,406.9,0,0,1,36.6-75.36c2.62-4.24-3.89-9.55-7.07-5.45C488,543.77,475.84,571.16,464,598.64l8.23,3.47c8.32-28.53,22.47-54.67,36.63-80.63,2.34-4.3-3.64-9.51-7.07-5.45-21.58,25.51-33.66,56.73-45.29,87.63-1.78,4.73,6.13,8.12,8.23,3.47l32.94-73c2.35-5.2-4.57-9.51-7.77-4.54-16.18,25.13-26.44,53.32-36.5,81.3l8.68,2.4a88.72,88.72,0,0,1,23.06-39L478,568.84c-5,8.27-11.51,15.25-17.71,22.57-2.84,3.37-5.61,6.81-8.1,10.44-2.26,3.29-5.4,7.46-5.87,11.55a6,6,0,0,0,5.17,6.84c4.32.59,8.72-3.47,12.13-5.6l30.43-19c4.9-3.06.39-10.84-4.54-7.77-9,5.6-17.94,11.37-25.08,19.29a4.56,4.56,0,0,0,2,7.52c5.64,2,10.49-1.12,14.84-4.47a75.8,75.8,0,0,0,13.25-12.87c8.52-10.77,5.08-22.21-.47-33.51-1.66-3.39-7.49-2.66-8.22,1.07A98,98,0,0,0,484,590c.36,5.78.3,13.14,6.81,15.25a4.56,4.56,0,0,0,5.08-2.06,45,45,0,0,0,6.71-27.39c-.39-4.88-7.42-6.32-8.84-1.19a69.6,69.6,0,0,0-2.45,23.2,4.54,4.54,0,0,0,8.39,2.27c3.94-5.57,10.73-23.77.18-26.69-5.49-1.53-9,5-11.88,8.51L474.42,598.5l7.52,2a17.67,17.67,0,0,1,2.18-14.32l-8.23-1.08,8.12,20.1c1.45,3.57,6,4.53,8.23,1.08a25.41,25.41,0,0,0,1-26.18c-1.52-2.85-6.31-3-7.77,0a18.86,18.86,0,0,0,0,17.3c.94,2,3.2,2.33,5.08,2.07a17.27,17.27,0,0,0,5.47-1.81c5.2-2.55.65-10.31-4.54-7.77a7.73,7.73,0,0,1-3.32.9l5.08,2.07a9.15,9.15,0,0,1,0-8.22h-7.77a16.33,16.33,0,0,1-1,17.1l8.22,1.07-8.12-20.1c-1.41-3.49-6.05-4.62-8.23-1.07a26.73,26.73,0,0,0-3.08,21.25c.8,3,5.33,4.66,7.52,2l14.82-18.12c.51-.63,3.85-4.34,3.71-4.53l-3.14.22a21.91,21.91,0,0,1-.17,3.71,21.62,21.62,0,0,1-4.07,9.38l8.38,2.28A62.19,62.19,0,0,1,502.43,577l-8.83-1.2a36.71,36.71,0,0,1-5.48,22.84l5.08-2.07c.78.26-.08-4.69-.14-5.61-.19-2.55-.27-5.12-.24-7.69a88.59,88.59,0,0,1,1.72-16l-8.23,1.08c3.87,7.88,7.2,15.79,1.14,23.49a63.47,63.47,0,0,1-7.75,8.06c-2.47,2.21-7.26,7.35-10.85,6.09l2,7.52c6.65-7.38,14.88-12.67,23.25-17.89l-4.54-7.77L470.1,600l-9.3,5.81c-2.85,1.79-6.51,5.08-9.87,5.67l3.47.45-1-.5,2.07,2.69c-.68-1.71,5.38-8.9,6.44-10.34,2.66-3.57,5.61-6.93,8.53-10.3,5.55-6.39,11.07-12.81,15.43-20.1,2.63-4.4-3.44-9-7.07-5.45a98,98,0,0,0-25.38,43c-1.6,5.65,6.74,7.78,8.68,2.4,9.81-27.29,19.82-54.66,35.59-79.16l-7.77-4.54-32.94,73,8.22,3.46c11.05-29.35,22.47-59.42,43-83.66l-7.07-5.45c-14.52,26.62-29,53.52-37.54,82.77-1.39,4.76,6.16,8.24,8.22,3.47,11.51-26.65,23.19-53.75,41.1-76.85l-7.07-5.45a419.09,419.09,0,0,0-37.5,77.51c-1.74,4.78,5.89,8,8.22,3.46,14.36-27.7,28.86-55.66,48.77-79.88l-7.07-5.45a287.05,287.05,0,0,0-37.12,81.1c-1.34,4.75,6.07,8.22,8.22,3.46l14.91-33c4.71-10.41,9.51-20.81,12.43-31.91,1.13-4.31-4.33-7.6-7.52-4.37a76.93,76.93,0,0,0-21.8,45.67c-.55,4.74,6.21,5.69,8.39,2.27,7.58-11.88,13.55-24.62,19.84-37.21,6-11.93,12.2-26.13,22.34-35.12l-7.68-3.19-.94,1.23,6.16,1.61a5.75,5.75,0,0,1-1.22-4.17h-9c.13,3.29.48,7.05-2.06,9.54l7.68,3.18c-.75-6.19-1.18-12.38-1.31-18.61-.1-5.26-7.13-5.88-8.84-1.2-3.19,8.78-4.18,18-5.1,27.26l8.84-1.19a150.73,150.73,0,0,1-3.5-27.58h-9c.65,5.37,1.22,10.75,1.68,16.14q.31,3.8.57,7.61c.11,1.73.94,5.32-.44,6.73l7.52,2a125.3,125.3,0,0,1-3.46-33.36l-8.84,1.19a136.88,136.88,0,0,1,.09,39.14h8.68a71.29,71.29,0,0,1-2.23-36.62l-8.84-1.2a131.08,131.08,0,0,1-4.54,37.49l8.84,1.2A125.17,125.17,0,0,1,513,497c1.19-5.64-7.44-8.06-8.68-2.39q-5.26,24-11.85,47.76l8.67,2.4L511.26,493c1-4.85-5.51-8.06-8.23-3.47-12.83,21.69-20.21,45.86-27.35,69.87-1.67,5.58,6.88,7.87,8.67,2.39L512,477.09c1.61-4.91-5.67-7.8-8.22-3.46l-1.44,2.45c-2.95,5,4.83,9.53,7.77,4.54Z" transform="translate(-437.53 -442.84)"/><path class="cls-1" d="M496.33,493.63c-3.38,7-11.17,10.07-16.08,15.84-5.27,6.19-7,14.13-7.68,22-.8,9.65-.63,19.38-1.35,29q-1.17,15.95-3.67,31.75c-.89,5.66,7.78,8.11,8.68,2.39,3-19.42,4.31-38.78,5.07-58.39.32-8.08,1.15-16.6,7.24-22.53,5.39-5.24,12.16-8.56,15.56-15.6,2.51-5.2-5.25-9.77-7.77-4.55Z" transform="translate(-437.53 -442.84)"/><path class="cls-2" d="M518.36,446.17c-7.3,9.87-7.25,23.86-5.21,35.49,1,5.41,4.64,8.61,9,11.57,6.33,4.25,13.3,7.7,19.93,11.45l-.89-3.43c-5.1,7.84-10.17,15.7-15.3,23.52-2.38,3.65-5.72,4.59-9.47,6.37a81.62,81.62,0,0,0-11.26,6.56c-2.64,1.81-.14,6.15,2.52,4.32a80.1,80.1,0,0,1,12.05-6.94c3.39-1.55,6.54-2.45,8.91-5.47,6.26-8,11.32-17.31,16.86-25.83a2.53,2.53,0,0,0-.89-3.42c-4.86-2.74-9.74-5.47-14.58-8.23-5.18-2.95-11.16-5.86-12.12-12.27-1.57-10.41-1.77-22.38,4.74-31.17,1.92-2.59-2.42-5.08-4.32-2.52Z" transform="translate(-437.53 -442.84)"/><path class="cls-2" d="M521.05,530.65c-.5,6.92-3.18,13.22-5.69,19.61A172.79,172.79,0,0,0,509.45,569c-1.77,6.58-4.27,13.35-5.27,20.09-.79,5.27,1.81,9.44,4.91,13.46l.89-3.42c-11.45,7.49-24.61,10.83-37.68,14.29-5.41,1.43-11.68,2.46-16.38,5.67-4.53,3.09-6.92,9.19-12.28,11l2.82,1.15c-1.47-2.21-3-4.32-4.69-6.39l.4,3c3.82-7,6.44-14.85,9.5-22.24q4.83-11.67,9.65-23.34c3.16-7.67,6.26-15.37,8.85-23.26,1.12-3.4,1.72-9.52,4.18-12.24s7-4.64,10.12-6.62c2.7-1.74.19-6.07-2.52-4.32-5.51,3.55-11.88,6.06-13.87,12.69-2.58,8.58-5.37,17-8.69,25.32s-6.86,16.7-10.31,25c-3.62,8.75-6.71,18.13-11.23,26.45a2.6,2.6,0,0,0,.39,3c1.4,1.75,2.66,3.51,3.9,5.37a2.54,2.54,0,0,0,2.82,1.15c5-1.67,7.55-5.49,11-9.18,4.85-5.16,12.75-6.18,19.34-7.92,12.93-3.41,25.9-7,37.21-14.35,1-.67,1.75-2.31.9-3.42-1.95-2.53-4.37-5.42-4.44-8.77-.06-3.08,1.44-6.56,2.23-9.5,1.65-6.15,3.24-12.32,5-18.44,3.13-10.94,9-21.14,9.87-32.64.24-3.21-4.76-3.19-5,0Z" transform="translate(-437.53 -442.84)"/><path class="cls-2" d="M475.24,543.18q.21-8.43.62-16.85c.15-3.2-.06-6.53,1.35-9.43s4.5-3.77,7.38-5.21c3.82-1.91,9.37-3.49,12.36-6.56,2.62-2.7,2.41-7.86,3-11.36.53-3.15-4.29-4.5-4.82-1.33-.39,2.35-.37,5.77-1.33,8-1.09,2.52-5.12,3.66-7.37,4.79-4,2-10.48,3.88-13.35,7.57-2.43,3.12-1.93,8-2.12,11.7q-.48,9.36-.71,18.72c-.09,3.22,4.91,3.22,5,0Z" transform="translate(-437.53 -442.84)"/><path class="cls-2" d="M485.47,508.81c7-9.49,11.35-20.92,16.12-31.61q3.53-7.92,6.92-15.9c1.09-2.56,2.08-5.17,3.24-7.7.6-1.33,1.28-3.64,2.51-4.48s5.27-1.13,6.48-1.26c3.17-.34,3.2-5.35,0-5-4.26.46-9.53.66-11.86,4.74-3.51,6.17-5.66,13.51-8.5,20-5.66,13-10.81,27.19-19.23,38.65-1.9,2.6,2.44,5.1,4.32,2.53Z" transform="translate(-437.53 -442.84)"/><path class="cls-2" d="M510.83,493.49l4.64,17.75a.5.5,0,0,0,1-.26l-4.63-17.76a.5.5,0,0,0-1,.27Z" transform="translate(-437.53 -442.84)"/><path class="cls-2" d="M513.31,495a97.89,97.89,0,0,1,3,12.56c.11.63,1.07.37,1-.27a98.68,98.68,0,0,0-3-12.56c-.19-.61-1.16-.35-1,.27Z" transform="translate(-437.53 -442.84)"/><path class="cls-2" d="M476.05,575.18l-15.8,20.44a.5.5,0,0,0,.6.79,2.38,2.38,0,0,0,1.27-1c.42-.48-.29-1.19-.71-.71l-1.06.84.6.79,15.8-20.45c.39-.5-.31-1.21-.7-.7Z" transform="translate(-437.53 -442.84)"/><path class="cls-2" d="M480.16,576.17l-9.34,10.22c-.43.47.28,1.18.71.71l9.34-10.23c.43-.47-.27-1.18-.71-.7Z" transform="translate(-437.53 -442.84)"/><path class="cls-2" d="M481.34,517l1.8,9.39c.12.64,1.09.37,1-.26l-1.8-9.4c-.12-.63-1.08-.36-1,.27Z" transform="translate(-437.53 -442.84)"/><path class="cls-2" d="M483.33,518.49a27.64,27.64,0,0,1,.87,4.6c.07.63,1.07.64,1,0a29.83,29.83,0,0,0-.9-4.87.5.5,0,0,0-1,.27Z" transform="translate(-437.53 -442.84)"/><path class="cls-2" d="M498.06,572.16a108.42,108.42,0,0,1,6.18,13.19c.23.59,1.19.33,1-.27a109.16,109.16,0,0,0-6.28-13.42c-.31-.56-1.17-.06-.86.5Z" transform="translate(-437.53 -442.84)"/><path class="cls-2" d="M500,567.38l1.8,3.15a.5.5,0,0,0,.86-.5l-1.79-3.15a.5.5,0,0,0-.87.5Z" transform="translate(-437.53 -442.84)"/><path class="cls-2" d="M488.51,600.07l-5,8.84c-.32.56.55,1.07.86.51l5-8.85a.5.5,0,0,0-.86-.5Z" transform="translate(-437.53 -442.84)"/><path class="cls-2" d="M521.81,520.09l1.82,7.57c.15.62,1.11.36,1-.27l-1.81-7.56c-.15-.63-1.12-.36-1,.26Z" transform="translate(-437.53 -442.84)"/><path class="cls-2" d="M508.49,457a45.66,45.66,0,0,0,3,7.65c.29.57,1.15.07.86-.51a43.6,43.6,0,0,1-2.89-7.41.5.5,0,0,0-1,.27Z" transform="translate(-437.53 -442.84)"/><path class="cls-3" d="M511,466.75c-.42,9.28.22,17.89,6.45,25.27.41.49,1.12-.22.7-.71-6-7.15-6.55-15.59-6.15-24.56,0-.64-1-.64-1,0Z" transform="translate(-437.53 -442.84)"/><path class="cls-3" d="M538.9,503.32l-14.13,21.62c-.35.54.51,1,.86.5l14.13-21.62c.36-.54-.51-1-.86-.5Z" transform="translate(-437.53 -442.84)"/><path class="cls-3" d="M523.36,526.57l-13.88,8.52c-.55.34-.05,1.2.5.86l13.88-8.51c.55-.34,0-1.21-.5-.87Z" transform="translate(-437.53 -442.84)"/><path class="cls-3" d="M519.19,536a77.89,77.89,0,0,1-5.92,15.54c-.3.57.57,1.08.86.51a79.1,79.1,0,0,0,6-15.78.5.5,0,0,0-1-.27Z" transform="translate(-437.53 -442.84)"/><path class="cls-3" d="M513.7,554.37a.5.5,0,0,0,0-1,.5.5,0,0,0,0,1Z" transform="translate(-437.53 -442.84)"/><path class="cls-3" d="M512.48,556.1l-3.93,13.3a.5.5,0,0,0,1,.26l3.93-13.3a.5.5,0,0,0-1-.26Z" transform="translate(-437.53 -442.84)"/><path class="cls-3" d="M507.71,571.47a71.23,71.23,0,0,0-2.28,8.36c-.14.63.83.9,1,.27a71.39,71.39,0,0,1,2.28-8.37c.21-.61-.76-.87-1-.26Z" transform="translate(-437.53 -442.84)"/><path class="cls-3" d="M496.63,571a118.27,118.27,0,0,0,5.5,12.28c.3.57,1.16.06.86-.51a119.17,119.17,0,0,1-5.4-12c-.23-.6-1.19-.34-1,.27Z" transform="translate(-437.53 -442.84)"/><path class="cls-3" d="M498.89,567.18l2.67,6c.26.59,1.12.08.86-.5l-2.66-6c-.27-.59-1.13-.08-.87.51Z" transform="translate(-437.53 -442.84)"/><path class="cls-3" d="M520.2,518.8a48.26,48.26,0,0,0,1.86,6.25c.22.6,1.19.34,1-.26a50.58,50.58,0,0,1-1.87-6.26c-.14-.62-1.11-.36-1,.27Z" transform="translate(-437.53 -442.84)"/><path class="cls-3" d="M509.48,492.38q2.87,9.57,4.79,19.36c.12.63,1.09.36,1-.27q-1.93-9.78-4.78-19.35a.5.5,0,0,0-1,.26Z" transform="translate(-437.53 -442.84)"/><path class="cls-3" d="M512.32,495.33q1.39,6.32,3.2,12.51a.5.5,0,0,0,1-.27q-1.82-6.19-3.2-12.51c-.14-.62-1.1-.36-1,.27Z" transform="translate(-437.53 -442.84)"/><path class="cls-3" d="M480.26,516.71l1.81,10.18c.12.63,1.08.36,1-.27l-1.81-10.17c-.11-.64-1.08-.37-1,.26Z" transform="translate(-437.53 -442.84)"/><path class="cls-3" d="M482.41,517.22l.27,1.57c.11.63,1.07.36,1-.27l-.26-1.56c-.11-.64-1.07-.37-1,.26Z" transform="translate(-437.53 -442.84)"/><path class="cls-3" d="M508.84,461a4.61,4.61,0,0,1,1,2.36c.06.63,1.06.64,1,0a5.67,5.67,0,0,0-1.1-2.87c-.38-.51-1.25,0-.86.51Z" transform="translate(-437.53 -442.84)"/><path class="cls-3" d="M475.62,574.21a266.64,266.64,0,0,0-16.35,21.93c-.36.54.51,1,.86.51a264.06,264.06,0,0,1,16.2-21.73c.4-.49-.3-1.21-.71-.71Z" transform="translate(-437.53 -442.84)"/><path class="cls-3" d="M480.51,574.43,470.1,585.14c-.45.46.26,1.17.71.71l10.41-10.72c.45-.46-.26-1.17-.71-.7Z" transform="translate(-437.53 -442.84)"/><path class="cls-3" d="M487.85,598.69l-5.56,10c-.32.56.55,1.07.86.5l5.56-10c.31-.56-.55-1.07-.86-.5Z" transform="translate(-437.53 -442.84)"/><path class="cls-3" d="M503.14,586.62a12,12,0,0,0,.44,6.56c.93,2.33,2.07,4.59,3.11,6.87.27.58,1.13.08.87-.51-1.93-4.21-4.15-7.88-3.46-12.66.09-.63-.87-.9-1-.26Z" transform="translate(-437.53 -442.84)"/><path class="cls-3" d="M506.64,599.84a53.05,53.05,0,0,1-8.05,4.76c-.58.27-.08,1.14.5.86a52.84,52.84,0,0,0,8.05-4.75c.52-.37,0-1.24-.5-.87Z" transform="translate(-437.53 -442.84)"/><path class="cls-3" d="M497,605.76a.5.5,0,0,0,0-1,.5.5,0,0,0,0,1Z" transform="translate(-437.53 -442.84)"/><path class="cls-3" d="M494.8,605.62a69.81,69.81,0,0,1-8.13,2.71.5.5,0,0,0,.26,1,68.73,68.73,0,0,0,8.14-2.71c.59-.23.33-1.2-.27-1Z" transform="translate(-437.53 -442.84)"/><path class="cls-3" d="M499.29,491.51c-.6,5.32,1.66,11.5-4.39,14.36-.58.28-.07,1.14.51.87A8.49,8.49,0,0,0,500,501.5c.93-3.13-.1-6.74.26-10,.08-.64-.93-.64-1,0Z" transform="translate(-437.53 -442.84)"/><path class="cls-3" d="M487.29,537.69l-8.51,5.79c-1.73,1.18-4.41,2.3-5,4.52a.5.5,0,0,0,1,.26c.54-2.22,5-4.28,6.82-5.49l6.19-4.22c.52-.36,0-1.23-.51-.86Z" transform="translate(-437.53 -442.84)"/><path class="cls-3" d="M449.24,627c3.09-6.9,9.95-10.17,16.86-12.17a.5.5,0,0,0-.27-1c-7.13,2.06-14.26,5.49-17.45,12.63-.26.58.6,1.09.86.5Z" transform="translate(-437.53 -442.84)"/><path class="cls-3" d="M469,613.05l-.41.29a.5.5,0,0,0,1,0,.76.76,0,0,0-1.21-.64.75.75,0,0,0,.36,1.31c.63.1.9-.86.26-1Z" transform="translate(-437.53 -442.84)"/><path class="cls-3" d="M472.85,613l6.29-1.46c.62-.15.36-1.11-.27-1L472.59,612c-.63.15-.37,1.11.26,1Z" transform="translate(-437.53 -442.84)"/></svg>