<svg id="debr2" xmlns="http://www.w3.org/2000/svg" viewBox="0 0 191.6 212.65"><defs><style>.cls-1{fill:#a6a6cc;}.cls-2{fill:#76768e;}.cls-3{fill:#ebebff;}</style></defs><title>debr2</title><path class="cls-1" d="M52.77,607.48Q53,635.89,54,664.3q.54,13.71,1.3,27.41c.44,8,0,16.7,5.27,23.28,4.77,5.93,12.49,9.69,19,13.5q10.75,6.35,22,11.82a331.48,331.48,0,0,0,48.25,19c9.25,2.82,13.2-11.65,4-14.47a307.49,307.49,0,0,1-43-16.68q-10.45-5-20.52-10.81-5-2.88-9.94-6c-2.51-1.57-6.38-3.28-8.13-5.84-1.54-2.26-1.31-5.34-1.47-7.95q-.4-6.86-.75-13.7-.65-12.72-1.1-25.46-.9-25.45-1-50.94c-.06-9.65-15.06-9.67-15,0Z" transform="translate(29.87 -583.85)"/><path class="cls-1" d="M-11.86,612.22-18.55,610l-4,14.46,42.91,9.08,20.47,4.34c6.95,1.47,14.4,4,21.48,4.47,5.71.4,12.38-5,17.14-7.84q8.36-5,16.31-10.69a268.43,268.43,0,0,0,30.11-25c7-6.7-3.64-17.3-10.6-10.61a247.65,247.65,0,0,1-55.75,40.27l5.78-.76L-18.55,610c-9.46-2-13.15,11.36-4,14.46l6.69,2.27c9.16,3.1,13.1-11.38,4-14.47Z" transform="translate(29.87 -583.85)"/><path class="cls-1" d="M-10.09,687.6l35.35,7.33c11,2.27,24.37,7.28,35.5,3.92,9.95-3,16.61-12.7,23.95-19.47a201.32,201.32,0,0,1,26.4-20.49c8-5.26.54-18.25-7.57-12.95a229.14,229.14,0,0,0-24.15,18.13q-5.7,4.9-11,10.21c-3.16,3.15-6.33,7.62-10.42,9.61-4.4,2.15-9.85.48-14.37-.45l-16.24-3.37L-6.1,673.14c-9.42-2-13.45,12.5-4,14.46Z" transform="translate(29.87 -583.85)"/><path class="cls-1" d="M27.17,763.22c22.59-6.18,45.2-12.54,67.45-19.86,4.54-1.49,8.81-3.39,12-7.09,3.46-4,5.67-9.16,8.17-13.8q8.51-15.83,17-31.65c4.57-8.51-8.38-16.09-13-7.57l-15.17,28.22C101.2,716,99,721,96.15,725.3c-2.32,3.47-7.06,4.09-10.82,5.27q-30.9,9.66-62.15,18.18c-9.3,2.55-5.35,17,4,14.47Z" transform="translate(29.87 -583.85)"/><path class="cls-1" d="M102.61,793.36l23.86-13.66c6.31-3.61,12.82-7,18.47-11.62A31.89,31.89,0,0,0,156,751.16c1.91-7.57.94-15.52,3.38-23,3-9.19-11.46-13.13-14.46-4-2.16,6.58-1.85,13.34-2.82,20.11-.87,6.06-3.76,10.27-8.7,13.79-11.94,8.5-25.68,15-38.4,22.32-8.37,4.8-.83,17.76,7.57,13Z" transform="translate(29.87 -583.85)"/><path class="cls-2" d="M69.66,624.88C83.15,615.38,96.83,606,110,596.06a31.72,31.72,0,0,0,5.42-5.13c2.19-2.64,5.13-3.9,8.13-1.42,2.24,1.86,3.84,5.23,1.67,8-1.42,1.78-4.55,3.2-6.3,4.91-2.58,2.52-5.07,5.1-7.75,7.52-11.26,10.14-24.09,18.34-37.12,26-2,1.15-4.44,2.19-5.89,4-1.89,2.36-1.56,5.55-1.62,8.41a167,167,0,0,0,1.4,24.78c.32,2.51,4.33,2.55,4,0-.65-5.06-1.12-10.13-1.32-15.23-.15-3.84-1.13-9.74,0-13.37C72,640.22,78.39,638,82,635.8c4-2.41,7.87-4.88,11.71-7.46A188.7,188.7,0,0,0,112,614.46c3.38-2.94,6.49-6.12,9.69-9.24a27.27,27.27,0,0,1,4.19-3.54c1.18-.78,2.75-1.25,3.65-2.42,3-3.9-.72-11-4-13.5-4.28-3.23-9.26-2.18-12.52,1.73-5.85,7-14.46,11.92-21.85,17.21q-11.73,8.41-23.54,16.73c-2.08,1.47-.09,4.94,2,3.45Z" transform="translate(29.87 -583.85)"/><path class="cls-2" d="M71.79,673.61q11.8-9.74,23.65-19.42l5.92-4.84c1.18-1,3.08-3.3,4.45-3.62,5.25-1.22,6.31,4.87,6.25,8.06s-1.7,4.58-4.32,5.8c-7.26,3.37-13.66,9.5-19.75,14.62a133.17,133.17,0,0,0-19.38,19.48c-1.57,2,1.24,4.85,2.83,2.82,7.67-9.75,17.09-17.76,26.75-25.47a80.67,80.67,0,0,1,8.53-6.43c2-1.2,4.5-1.77,6.35-3.22,2.94-2.3,3.18-6,2.82-9.48-.42-3.87-1.55-8.45-5.39-10.28-3.68-1.74-6.21.23-9,2.48C90.59,652.92,79.78,661.86,69,670.78c-2,1.64.85,4.46,2.82,2.83Z" transform="translate(29.87 -583.85)"/><path class="cls-2" d="M68.85,693.34c-1.44,3.66-.42,6.2.63,9.73l.52-2c-2.34,2.63-6.37,4.59-9.25,6.6-2.09,1.47-.09,4.94,2,3.46l5.57-3.9c1.4-1,3.51-1.91,4.49-3.33.75-1.09.59-1.85.12-3-.91-2.34-1.2-4.06-.24-6.51s-2.92-3.43-3.86-1.06Z" transform="translate(29.87 -583.85)"/><path class="cls-2" d="M69.46,702.83c.36.8,1.49,2.4,1.47,3.26,0,.68-1,2.13-1.31,2.79a58.88,58.88,0,0,0-2.3,6.66c-.7,2.49,3.16,3.55,3.86,1.07.89-3.15,2.29-6,3.39-9.08.87-2.41-.67-4.55-1.66-6.72-1.07-2.33-4.51-.3-3.45,2Z" transform="translate(29.87 -583.85)"/><path class="cls-2" d="M72,707.27q11.69,8.12,23.88,15.44c2.21,1.33,4.23-2.13,2-3.46Q85.7,711.93,74,703.82c-2.12-1.47-4.12,2-2,3.45Z" transform="translate(29.87 -583.85)"/><path class="cls-2" d="M99.85,721.56l15-26.75c2.19-3.92,4-8.16,6.22-12,2.84-5,9.31,1.48,10.84,4.91v-2l-20.57,42.12c-1.13,2.31,2.32,4.34,3.45,2l15.86-32.47c1.56-3.18,5.48-8.09,4.72-11.67-.71-3.32-4.6-6.32-7.5-7.57-2.44-1.06-5.87-1.8-8.32-.36a4.94,4.94,0,0,0-2,2.2c-1.25,2.49-2,5.3-3.38,7.83L96.39,719.54c-1.25,2.25,2.2,4.26,3.46,2Z" transform="translate(29.87 -583.85)"/><path class="cls-2" d="M113.18,730.92c8.52,5.61,18.42,9,27.77,13,2.34,1,4.38-2.44,2-3.45-9.34-4-19.24-7.39-27.76-13-2.16-1.42-4.17,2-2,3.45Z" transform="translate(29.87 -583.85)"/><path class="cls-2" d="M144.76,742.21c.54-5.44.43-11.58,1.84-16.87.28-1,.87-3.56,1.82-4.06,1.72-.91,4.45,0,6,.86,3.57,1.89,3,5.22,2.27,8.51-1,4.3-1.11,8.92-1.53,13.3-.47,4.92,4.37,12-2.41,14.21-2.43.8-1.38,4.67,1.07,3.85,6.92-2.3,7.45-8.22,5.65-14.27-1.3-4.38.06-11.52,1.07-16,.79-3.5,2.2-6,.06-9.34-2.56-4-9.7-8-14.06-4.74-2.69,2-3.66,5.47-4.13,8.65-.78,5.26-1.12,10.62-1.64,15.92-.26,2.56,3.74,2.54,4,0Z" transform="translate(29.87 -583.85)"/><path class="cls-2" d="M151.52,758.33A86.79,86.79,0,0,1,139.47,770c-4.54,3.4-9.67,5.85-14.67,8.5q-7.74,4.08-15.29,8.51c-2.74,1.61-5.63,3.77-8.66,4.78a10.28,10.28,0,0,1-3.76.66c-2.31-.16-5.88-3.28-3.9-5.72,1.61-2-1.21-4.83-2.83-2.83a7.39,7.39,0,0,0,1.85,11.21c6.21,3.82,13.21-1,18.48-4.15,8.07-4.76,16.46-8.89,24.6-13.51,7.44-4.21,13.37-10,19.06-16.28,1.71-1.91-1.11-4.75-2.83-2.83Z" transform="translate(29.87 -583.85)"/><path class="cls-2" d="M92.86,786.54c3-7.72,15-12.38,21.83-16.15,7.76-4.29,15.51-8.55,22.6-13.92,1.07-.81,1.5-2.74,0-3.45q-18-8.5-36.55-15.56c-2.41-.92-3.45,2.95-1.07,3.85q18.1,6.88,35.6,15.16V753c-8.51,6.44-18,11.26-27.26,16.5-7,3.93-16,8-19,16-.92,2.4,2.94,3.45,3.86,1.06Z" transform="translate(29.87 -583.85)"/><path class="cls-2" d="M100,738.32c-5.33.57-10.12,2.58-15.11,4.43Q76,746,67,749q-17.58,5.68-35.58,9.94c-3.69.87-7.57,2.19-10.55-1.25-1.91-2.2.39-5.91,2.3-7.1,1.15-.72,3-.91,4.28-1.3q9.24-2.78,18.51-5.44,18.54-5.34,37.19-10.28c2.48-.66,1.43-4.52-1.07-3.85q-23.29,6.18-46.44,13c-4,1.17-8,2.35-12,3.57-2.11.65-4.53,1.28-6.12,2.94-3.12,3.25-1.7,8.79.86,11.94C21.7,765.26,27,764,31.53,763c7.69-1.78,15.32-3.8,22.9-6S69.54,752.39,77,749.8s15.12-6.65,23-7.48c2.53-.27,2.56-4.27,0-4Z" transform="translate(29.87 -583.85)"/><path class="cls-2" d="M53,701c1.5,7.6,3.8,14.87,9.62,20.3,5.49,5.12,12.56,8,19.42,10.81,2.38,1,3.42-2.9,1.06-3.86-6.2-2.52-12.66-5.19-17.66-9.78-5.34-4.92-7.23-11.65-8.58-18.53-.49-2.53-4.35-1.46-3.86,1.06Z" transform="translate(29.87 -583.85)"/><path class="cls-2" d="M54.06,698.58A303.94,303.94,0,0,1,20.29,693Q12,691.16,3.9,688.85c-4.3-1.23-12-2.22-15.24-5.63-3.9-4.11,0-8.1,4.38-8.67,3.41-.44,6.9.75,10.19,1.57q8.34,2.08,16.74,4,16.79,3.76,33.74,6.74c2.52.45,3.6-3.41,1.06-3.85q-22.59-4-44.91-9.36c-6-1.45-13.21-4.48-19.44-2.8-4.1,1.11-7.9,4.69-7.76,9.18s3.78,7,7.49,8.65c6.29,2.73,13.32,4.31,19.94,6a307.9,307.9,0,0,0,44,7.91c2.56.27,2.54-3.73,0-4Z" transform="translate(29.87 -583.85)"/><path class="cls-2" d="M55.93,683.27,54.27,641c-.1-2.57-4.1-2.58-4,0l1.66,42.28c.1,2.56,4.1,2.57,4,0Z" transform="translate(29.87 -583.85)"/><path class="cls-2" d="M70.39,623l-.79-12.06c-.2-2.93.08-6.29-.65-9.14-1.13-4.42-7.76-3.63-11.23-3.14-1.88.27-5.14.37-6.54,1.82s-1,4.26-1,6c-.06,3.4,0,6.81.06,10.21.07,2.42-.4,6.07.81,8.25a2,2,0,0,0,3.46,0l.11-.16a2,2,0,0,0-.72-2.74l-.11-.07c-2.16-1.42-4.16,2-2,3.45l.11.08-.71-2.74-.12.16H54.5c-.73-1.31-.23-4.73-.27-6.23,0-1.7-.08-3.4-.09-5.11,0-1.92-.54-5,.07-6.8-.53-1.59-.05-2.16,1.42-1.73a28.12,28.12,0,0,1,2.89-.49c2.22-.28,5.19-1,6.62,1.46.72,1.24.3,4.56.4,6L66.39,623c.17,2.56,4.17,2.58,4,0Z" transform="translate(29.87 -583.85)"/><path class="cls-2" d="M53.25,621.9q-25.8-4.15-51.42-9.21c-7.15-1.42-14.87-4.09-22.17-4.26-4.42-.11-9,2.21-9.49,7-.49,5,3.5,8.75,7.76,10.48,7.19,2.91,15.47,3.74,23.05,5.16l23.7,4.41,13,2.43c4.3.81,9.09,1.19,12.63,4,2,1.59,4.84-1.22,2.83-2.83-4.23-3.37-9.2-4.05-14.4-5L18.3,630.27-.62,626.74c-6.54-1.22-14-1.9-20.11-4.62-1.72-.76-3.73-1.77-4.54-3.62-2-4.51,1.69-6.13,4.93-6.07s6.59,1.17,9.73,1.81q10.41,2.16,20.87,4.15,20.91,4,41.92,7.37c2.52.41,3.61-3.45,1.07-3.86Z" transform="translate(29.87 -583.85)"/><path class="cls-2" d="M74.5,711.58a36.88,36.88,0,0,0-1.19,7.68c0,.64,1,.64,1,0a35,35,0,0,1,1.16-7.41.5.5,0,0,0-1-.27Z" transform="translate(29.87 -583.85)"/><path class="cls-2" d="M66.59,711.82a.67.67,0,0,1-.26.51c-.52.37,0,1.24.5.87a1.63,1.63,0,0,0,.73-1.11c.09-.63-.87-.9-1-.27Z" transform="translate(29.87 -583.85)"/><path class="cls-2" d="M97.56,720A6.83,6.83,0,0,0,101,726a.5.5,0,0,0,.5-.86,5.85,5.85,0,0,1-3-5.06.5.5,0,0,0-1,0Z" transform="translate(29.87 -583.85)"/><path class="cls-2" d="M104.53,726.72l2.61.51c.63.13.9-.84.27-1l-2.61-.52c-.63-.12-.9.84-.27,1Z" transform="translate(29.87 -583.85)"/><path class="cls-2" d="M110.16,729.05l2.31,1.37a.5.5,0,0,0,.5-.86l-2.31-1.37a.5.5,0,0,0-.5.86Z" transform="translate(29.87 -583.85)"/><path class="cls-2" d="M83.51,731.3a11.86,11.86,0,0,1,5.22,2c.53.36,1-.5.5-.87a12.91,12.91,0,0,0-5.72-2.12c-.63-.07-.63.93,0,1Z" transform="translate(29.87 -583.85)"/><path class="cls-2" d="M92.8,734.52a5.74,5.74,0,0,1,3.3,2.14c.39.5,1.09-.21.7-.71a6.63,6.63,0,0,0-3.73-2.4c-.63-.15-.9.82-.27,1Z" transform="translate(29.87 -583.85)"/><path class="cls-2" d="M143,742.5a15.38,15.38,0,0,0,8,4.32c.63.12.9-.84.27-1a14.42,14.42,0,0,1-7.55-4.05.5.5,0,0,0-.7.7Z" transform="translate(29.87 -583.85)"/><path class="cls-2" d="M154.48,747.12a3.2,3.2,0,0,1,2,1c.45.45,1.16-.26.7-.71a4.3,4.3,0,0,0-2.68-1.24c-.64-.06-.64.94,0,1Z" transform="translate(29.87 -583.85)"/><path class="cls-2" d="M137.16,755.33a21.37,21.37,0,0,1,7.86,3.85c.51.39,1-.48.51-.87a22.14,22.14,0,0,0-8.1-3.94c-.62-.16-.89.81-.27,1Z" transform="translate(29.87 -583.85)"/><path class="cls-2" d="M147.3,759.67l1.83.52a.5.5,0,0,0,.26-1l-1.83-.52a.5.5,0,0,0-.26,1Z" transform="translate(29.87 -583.85)"/><path class="cls-2" d="M118.56,732.42a63.35,63.35,0,0,0,4.92,10.6.5.5,0,0,0,.86-.51,61.93,61.93,0,0,1-4.81-10.35c-.22-.61-1.19-.35-1,.26Z" transform="translate(29.87 -583.85)"/><path class="cls-2" d="M122.34,736.38a14.35,14.35,0,0,1,2.07,4.43.5.5,0,0,0,1-.26,15.22,15.22,0,0,0-2.18-4.67c-.36-.53-1.23,0-.86.5Z" transform="translate(29.87 -583.85)"/><path class="cls-2" d="M158.78,724.59,149,732.3c-.51.4.2,1.1.7.71l9.81-7.71c.5-.4-.21-1.1-.71-.71Z" transform="translate(29.87 -583.85)"/><path class="cls-2" d="M157.75,728.79a27.81,27.81,0,0,1-4.54,3.14c-.56.31-.06,1.17.51.86a27.64,27.64,0,0,0,4.73-3.3c.49-.42-.22-1.12-.7-.7Z" transform="translate(29.87 -583.85)"/><path class="cls-2" d="M111.44,777.11q7.31-4.1,14.3-8.68c.54-.35,0-1.22-.5-.87q-7,4.59-14.3,8.69a.5.5,0,0,0,.5.86Z" transform="translate(29.87 -583.85)"/><path class="cls-2" d="M119.51,775l4.92-3.44c.53-.36,0-1.23-.5-.86L119,774.13c-.53.36,0,1.23.5.86Z" transform="translate(29.87 -583.85)"/><path class="cls-2" d="M98.52,794.62a53.26,53.26,0,0,1,7.63-10.74c.44-.47-.27-1.18-.71-.7a54.32,54.32,0,0,0-7.78,10.94c-.31.56.55,1.07.86.5Z" transform="translate(29.87 -583.85)"/><path class="cls-2" d="M113.61,689.91a93.56,93.56,0,0,1,1.94,15c0,.64,1,.64,1,0a95.8,95.8,0,0,0-2-15.28c-.13-.63-1.1-.36-1,.27Z" transform="translate(29.87 -583.85)"/><path class="cls-2" d="M111.43,698a31.39,31.39,0,0,1,1.13,5.84c.06.64,1.06.65,1,0a33.44,33.44,0,0,0-1.16-6.11.5.5,0,0,0-1,.27Z" transform="translate(29.87 -583.85)"/><path class="cls-2" d="M132.1,681.72q-4.53,3.69-8.7,7.77c-.46.45.25,1.16.71.71q4.17-4.08,8.69-7.77c.5-.41-.21-1.11-.7-.71Z" transform="translate(29.87 -583.85)"/><path class="cls-2" d="M119.07,712,108,721.31c-.5.41.21,1.12.7.71l11.08-9.3c.49-.41-.22-1.12-.71-.71Z" transform="translate(29.87 -583.85)"/><path class="cls-2" d="M83.48,718.27l5.6,11.16c.28.58,1.15.07.86-.5l-5.6-11.16c-.28-.58-1.15-.07-.86.5Z" transform="translate(29.87 -583.85)"/><path class="cls-2" d="M88.58,723.94a12.19,12.19,0,0,1,1.77,5.23c.07.64,1.07.64,1,0a13.3,13.3,0,0,0-1.91-5.73c-.34-.55-1.2-.05-.86.5Z" transform="translate(29.87 -583.85)"/><path class="cls-2" d="M48.64,748.82a75.89,75.89,0,0,1,13-9.8c.55-.33,0-1.2-.5-.86a76.41,76.41,0,0,0-13.17,10c-.47.44.24,1.15.7.71Z" transform="translate(29.87 -583.85)"/><path class="cls-2" d="M55.88,745.09a121.85,121.85,0,0,1,12.56-10.45c.51-.38,0-1.24-.51-.86a124.3,124.3,0,0,0-12.76,10.6c-.47.45.24,1.15.71.71Z" transform="translate(29.87 -583.85)"/><path class="cls-2" d="M24.77,756.09l6,4.94c.49.4,1.2-.3.71-.71l-6-4.93c-.49-.41-1.2.3-.7.7Z" transform="translate(29.87 -583.85)"/><path class="cls-2" d="M28.73,757.28l3.71,2.25a.5.5,0,0,0,.51-.86l-3.71-2.25a.5.5,0,0,0-.51.86Z" transform="translate(29.87 -583.85)"/><path class="cls-2" d="M71.79,748.78a46.22,46.22,0,0,1,8.79-11.85c.46-.45-.25-1.16-.71-.71a47.41,47.41,0,0,0-9,12c-.29.57.57,1.08.87.51Z" transform="translate(29.87 -583.85)"/><path class="cls-2" d="M73.9,679.77,79.67,670c1.65-2.8,3.71-5.61,4.75-8.7.21-.61-.76-.87-1-.27-1.11,3.29-3.41,6.35-5.16,9.32l-5.27,9a.5.5,0,0,0,.87.5Z" transform="translate(29.87 -583.85)"/><path class="cls-2" d="M83.1,668.35A112.44,112.44,0,0,1,88.73,658c.34-.55-.52-1-.86-.51a110.26,110.26,0,0,0-5.63,10.36c-.28.57.59,1.08.86.5Z" transform="translate(29.87 -583.85)"/><path class="cls-2" d="M70.43,671.31c-1.67,3.48-3.27,7.23-1.9,11.08.21.6,1.18.34,1-.27-1.27-3.58.26-7.07,1.81-10.3.27-.58-.59-1.09-.87-.51Z" transform="translate(29.87 -583.85)"/><path class="cls-2" d="M67.72,685.6a16.36,16.36,0,0,0,2.53,7.08c.35.54,1.22,0,.87-.51a15.23,15.23,0,0,1-2.4-6.57c-.07-.63-1.07-.64-1,0Z" transform="translate(29.87 -583.85)"/><path class="cls-2" d="M54,683.94a27.14,27.14,0,0,1,1,8.46c0,.64,1,.64,1,0a27.69,27.69,0,0,0-1-8.73.5.5,0,0,0-1,.27Z" transform="translate(29.87 -583.85)"/><path class="cls-2" d="M54.82,695.9l-1,5.22c-.12.63.84.9,1,.27l1-5.22c.12-.63-.84-.9-1-.27Z" transform="translate(29.87 -583.85)"/><path class="cls-2" d="M98.14,666.81l-3-2.77-1.38-1.31c-.19-.18-1.28-1.42-1.49-1.36a.5.5,0,0,0-.27-1c-1.27.33-.36,1.68.18,2.21,1.69,1.68,3.48,3.27,5.21,4.89.47.44,1.18-.26.71-.7Z" transform="translate(29.87 -583.85)"/><path class="cls-2" d="M119.68,603.35a97.26,97.26,0,0,0-17.07,6.26c-.58.27-.07,1.13.51.86A96.09,96.09,0,0,1,120,604.31a.5.5,0,0,0-.27-1Z" transform="translate(29.87 -583.85)"/><path class="cls-2" d="M97.87,601.56A143.32,143.32,0,0,0,89.22,617c-.28.57.58,1.08.86.5a146.06,146.06,0,0,1,8.65-15.39c.35-.54-.51-1-.86-.5Z" transform="translate(29.87 -583.85)"/><path class="cls-2" d="M90.1,608.38q-1.86,4.23-3.92,8.35c-.28.57.58,1.08.87.5q2.06-4.12,3.91-8.34c.25-.59-.61-1.1-.86-.51Z" transform="translate(29.87 -583.85)"/><path class="cls-2" d="M86.68,627.68a67.23,67.23,0,0,1-13,.27v1l1,0a.5.5,0,0,0,0-1l-1,0c-.65,0-.64.95,0,1a67.23,67.23,0,0,0,13-.27c.63-.07.64-1.07,0-1Z" transform="translate(29.87 -583.85)"/><path class="cls-2" d="M69.31,622.34a7.72,7.72,0,0,0-2.09,8.43c.23.59,1.19.33,1-.27A6.72,6.72,0,0,1,70,623.05c.48-.43-.23-1.14-.7-.71Z" transform="translate(29.87 -583.85)"/><path class="cls-2" d="M66.89,636.31a5.08,5.08,0,0,0,.71,3.18.5.5,0,0,0,.86-.5,4.26,4.26,0,0,1-.57-2.68c.06-.64-.94-.64-1,0Z" transform="translate(29.87 -583.85)"/><path class="cls-2" d="M53.24,623.15a18.25,18.25,0,0,1,.29,8.84c-.13.63.83.9,1,.27a19.59,19.59,0,0,0-.28-9.38.5.5,0,0,0-1,.27Z" transform="translate(29.87 -583.85)"/><path class="cls-2" d="M53.06,635.39a26.17,26.17,0,0,0-1,4.44c-.09.63.88.9,1,.27a25.93,25.93,0,0,1,1-4.44c.2-.61-.77-.88-1-.27Z" transform="translate(29.87 -583.85)"/><path class="cls-2" d="M51.05,613.05q4.08,6.15,8.53,12.05c.38.51,1.25,0,.86-.5q-4.44-5.91-8.53-12.06c-.35-.53-1.22,0-.86.51Z" transform="translate(29.87 -583.85)"/><path class="cls-2" d="M54.84,613a21.62,21.62,0,0,0,4.11,6.7c.43.48,1.13-.23.7-.71a20.31,20.31,0,0,1-3.85-6.26c-.23-.59-1.19-.33-1,.27Z" transform="translate(29.87 -583.85)"/><path class="cls-2" d="M62.54,640.65,57.3,653.83c-1.53,3.84-3.86,8-4,12.21,0,.65,1,.65,1,0,.19-4.34,2.79-8.86,4.37-12.85l4.88-12.28c.24-.59-.73-.85-1-.26Z" transform="translate(29.87 -583.85)"/><path class="cls-2" d="M59.75,653.62,54.62,667c-.23.6.74.86,1,.27l5.13-13.34c.23-.6-.74-.86-1-.27Z" transform="translate(29.87 -583.85)"/><path class="cls-2" d="M60.35,672.31l-.33,6c0,.64,1,.64,1,0l.33-6c0-.65-1-.65-1,0Z" transform="translate(29.87 -583.85)"/><path class="cls-2" d="M4,616a137.45,137.45,0,0,0,13.4,8.87.5.5,0,0,0,.5-.87,138.57,138.57,0,0,1-13.4-8.86c-.51-.39-1,.48-.5.86Z" transform="translate(29.87 -583.85)"/><path class="cls-2" d="M11.5,617.73l7.64,5.65c.51.38,1-.49.5-.87L12,616.87c-.52-.39-1,.48-.51.86Z" transform="translate(29.87 -583.85)"/><path class="cls-2" d="M30.56,633.23a45.6,45.6,0,0,0,11.07-.49c.63-.11.37-1.07-.26-1a45,45,0,0,1-10.81.45c-.64-.05-.64.95,0,1Z" transform="translate(29.87 -583.85)"/><path class="cls-2" d="M28.6,626.55a13.08,13.08,0,0,1,5.21.35.5.5,0,0,0,.27-1,14.26,14.26,0,0,0-5.74-.35c-.64.09-.37,1,.26,1Z" transform="translate(29.87 -583.85)"/><path class="cls-2" d="M-23.55,610.07q6,5.19,11.52,10.92c.45.46,1.16-.25.71-.71q-5.5-5.73-11.52-10.92c-.48-.41-1.2.29-.71.71Z" transform="translate(29.87 -583.85)"/><path class="cls-2" d="M-6,626.4A60.1,60.1,0,0,1,2,623.61a.5.5,0,0,0-.27-1,61.44,61.44,0,0,0-8.31,2.89c-.59.25-.08,1.11.51.86Z" transform="translate(29.87 -583.85)"/><path class="cls-2" d="M-4.21,622.21a.7.7,0,0,1,.73-.28c.62.13.89-.84.26-1a1.75,1.75,0,0,0-1.86.75c-.37.53.5,1,.87.5Z" transform="translate(29.87 -583.85)"/><path class="cls-2" d="M-6.43,675.8a87.73,87.73,0,0,1,8.16,6c.5.41,1.21-.3.71-.71a93.51,93.51,0,0,0-8.36-6.19c-.54-.36-1,.51-.51.86Z" transform="translate(29.87 -583.85)"/><path class="cls-2" d="M.45,677.9l3.94,3.36c.49.41,1.2-.29.71-.71l-3.94-3.36c-.49-.42-1.2.29-.71.71Z" transform="translate(29.87 -583.85)"/><path class="cls-2" d="M14.3,691.86a61.75,61.75,0,0,0,14.18.57c.64,0,.65-1,0-1a60.63,60.63,0,0,1-13.92-.53c-.63-.1-.9.86-.26,1Z" transform="translate(29.87 -583.85)"/><path class="cls-2" d="M14.78,686.59a49.15,49.15,0,0,1,7.84,2.06c.61.21.87-.75.27-1a49.4,49.4,0,0,0-7.84-2c-.63-.11-.9.85-.27,1Z" transform="translate(29.87 -583.85)"/><path class="cls-2" d="M29.27,680.64a143,143,0,0,0,11.7,11c.49.41,1.2-.3.71-.71a143,143,0,0,1-11.7-11c-.45-.47-1.16.24-.71.71Z" transform="translate(29.87 -583.85)"/><path class="cls-2" d="M40.75,695.39l8.87.8c.64.06.63-.94,0-1l-8.87-.8c-.64-.06-.64.94,0,1Z" transform="translate(29.87 -583.85)"/><path class="cls-2" d="M53,702.18l10.43,5.21c.58.29,1.09-.58.51-.86l-10.44-5.21c-.57-.29-1.08.57-.5.86Z" transform="translate(29.87 -583.85)"/><path class="cls-3" d="M122.48,588.52c2.86,2.17,5.62,7.27,1.24,9.6-.57.31-.06,1.17.5.87a5.38,5.38,0,0,0,2.76-5.31c-.23-2.56-2-4.54-4-6-.51-.39-1,.48-.5.86Z" transform="translate(29.87 -583.85)"/><path class="cls-3" d="M121.52,599.69l-.79.78a.5.5,0,0,0,.71.71l.78-.78c.46-.46-.25-1.17-.7-.71Z" transform="translate(29.87 -583.85)"/><path class="cls-3" d="M115.6,605.05l-14.38,6.46c-.58.26-.08,1.12.51.86l14.37-6.46c.59-.26.08-1.13-.5-.86Z" transform="translate(29.87 -583.85)"/><path class="cls-3" d="M96.9,605.78l-5.25,9.11a.5.5,0,0,0,.86.51l5.25-9.11a.5.5,0,0,0-.86-.51Z" transform="translate(29.87 -583.85)"/><path class="cls-3" d="M90.35,610.09a35.08,35.08,0,0,1-2.57,5.61c-.31.56.55,1.07.87.51a38.2,38.2,0,0,0,2.67-5.86c.22-.6-.75-.86-1-.26Z" transform="translate(29.87 -583.85)"/><path class="cls-3" d="M110.46,610.39q-11.77,8.25-23.24,16.92c-.51.38,0,1.25.5.86Q99.2,619.5,111,611.26c.52-.37,0-1.24-.51-.87Z" transform="translate(29.87 -583.85)"/><path class="cls-3" d="M64,603.56a116.68,116.68,0,0,1,2.43,19.71c0,.64,1,.64,1,0a117.84,117.84,0,0,0-2.47-20c-.13-.62-1.09-.36-1,.27Z" transform="translate(29.87 -583.85)"/><path class="cls-3" d="M55.76,611.7a26.56,26.56,0,0,0,2.37,5.51.5.5,0,0,0,.86-.51,25.11,25.11,0,0,1-2.27-5.27.5.5,0,0,0-1,.27Z" transform="translate(29.87 -583.85)"/><path class="cls-3" d="M56.22,617.77a75.64,75.64,0,0,0,4.94,7.32c.38.51,1.25,0,.86-.5a76.18,76.18,0,0,1-4.93-7.32.5.5,0,0,0-.87.5Z" transform="translate(29.87 -583.85)"/><path class="cls-3" d="M68.7,625.06a3.42,3.42,0,0,0-.52,2.51c.11.63,1.07.36,1-.27a2.36,2.36,0,0,1,.41-1.73c.36-.54-.5-1-.86-.51Z" transform="translate(29.87 -583.85)"/><path class="cls-3" d="M67.65,636.18l.27,1.56c.1.63,1.07.37,1-.27l-.26-1.56c-.11-.63-1.07-.36-1,.27Z" transform="translate(29.87 -583.85)"/><path class="cls-3" d="M65.67,642.56q-.28,7.83.21,15.65c0,.64,1,.65,1,0q-.5-7.82-.21-15.65c0-.64-1-.64-1,0Z" transform="translate(29.87 -583.85)"/><path class="cls-3" d="M66.3,661.59a.5.5,0,0,0,0-1,.5.5,0,0,0,0,1Z" transform="translate(29.87 -583.85)"/><path class="cls-3" d="M66.27,663.7l1.1,9.39c.07.63,1.07.64,1,0l-1.1-9.39c-.08-.63-1.08-.64-1,0Z" transform="translate(29.87 -583.85)"/><path class="cls-3" d="M60.93,654.06a74.21,74.21,0,0,0-5.5,17.08c-.12.62.84.89,1,.26a73.69,73.69,0,0,1,5.4-16.84c.27-.58-.59-1.09-.86-.5Z" transform="translate(29.87 -583.85)"/><path class="cls-3" d="M63.24,641.66l-2.44,6.23c-.23.59.73.85,1,.26l2.44-6.22c.23-.6-.74-.86-1-.27Z" transform="translate(29.87 -583.85)"/><path class="cls-3" d="M70.47,674.42c-.89-.07-1.25.75-1.38,1.51a27,27,0,0,0-.14,5.24c0,.64,1,.65,1,0s-.24-5.81.52-5.75.64-.95,0-1Z" transform="translate(29.87 -583.85)"/><path class="cls-3" d="M82.42,664.82l-9,15a.5.5,0,0,0,.87.5l9-15a.5.5,0,0,0-.87-.5Z" transform="translate(29.87 -583.85)"/><path class="cls-3" d="M86.8,661.5a10.85,10.85,0,0,0-1.92,3.11c-.24.6.73.86,1,.27a9.54,9.54,0,0,1,1.66-2.68c.42-.48-.29-1.19-.71-.7Z" transform="translate(29.87 -583.85)"/><path class="cls-3" d="M92.44,660.58a36.86,36.86,0,0,0,3.32,5c.4.5,1.1-.21.71-.71a34.74,34.74,0,0,1-3.17-4.78c-.31-.56-1.17-.06-.86.51Z" transform="translate(29.87 -583.85)"/><path class="cls-3" d="M109.72,646.14c1,2.56,2.37,4.87,1.73,7.71A8.32,8.32,0,0,1,107,659.5c-.57.29-.07,1.15.51.87a9.23,9.23,0,0,0,4.76-5.62c1-3.28-.37-5.86-1.56-8.87-.23-.59-1.2-.34-1,.26Z" transform="translate(29.87 -583.85)"/><path class="cls-3" d="M103.27,661.27l-1.83,1.56c-.49.42.22,1.13.71.71L104,662c.49-.42-.22-1.13-.7-.71Z" transform="translate(29.87 -583.85)"/><path class="cls-3" d="M68.61,685.23l.81,5c.1.63,1.07.36,1-.27l-.8-4.95c-.11-.64-1.07-.37-1,.26Z" transform="translate(29.87 -583.85)"/><path class="cls-3" d="M62.6,672.85l.07,0a.53.53,0,0,0,.23-.57.58.58,0,0,0-.35-.45.51.51,0,0,0-.6.07c-.56.44-.5,1.56-.53,2.2a12.22,12.22,0,0,0,.26,3.07c.13.63,1.09.36,1-.27a10.91,10.91,0,0,1-.25-2.28c0-.42-.09-1.73.25-2l-.6.08-.12-.14.23-.56-.07,0a.5.5,0,0,0,.51.86Z" transform="translate(29.87 -583.85)"/><path class="cls-3" d="M55.59,685.5a17,17,0,0,1,.54,6.11c-.06.64.94.63,1,0a17.81,17.81,0,0,0-.57-6.38.5.5,0,0,0-1,.27Z" transform="translate(29.87 -583.85)"/><path class="cls-3" d="M55.64,696a6.5,6.5,0,0,0-.54,2.37c0,.64,1,.64,1,0a5.17,5.17,0,0,1,.4-1.86c.25-.59-.61-1.1-.86-.51Z" transform="translate(29.87 -583.85)"/><path class="cls-3" d="M33.79,683.44a115.65,115.65,0,0,1,8.39,8c.44.47,1.15-.24.71-.71q-4-4.21-8.39-8c-.49-.42-1.2.29-.71.71Z" transform="translate(29.87 -583.85)"/><path class="cls-3" d="M41.87,694.08a86.67,86.67,0,0,0,9.05,1.64c.63.08.63-.92,0-1a86.85,86.85,0,0,1-8.78-1.6c-.63-.15-.9.82-.27,1Z" transform="translate(29.87 -583.85)"/><path class="cls-3" d="M32,632a34.05,34.05,0,0,0,8.73.39c.64,0,.64-1.06,0-1a32.85,32.85,0,0,1-8.46-.36c-.63-.11-.9.86-.27,1Z" transform="translate(29.87 -583.85)"/><path class="cls-3" d="M30.17,625.07l2.09.51c.62.16.89-.81.26-1l-2.09-.52a.5.5,0,0,0-.26,1Z" transform="translate(29.87 -583.85)"/><path class="cls-3" d="M16.12,619.7,18,621.53a.5.5,0,0,0,.71-.71L16.83,619c-.45-.45-1.16.26-.71.71Z" transform="translate(29.87 -583.85)"/><path class="cls-3" d="M-17.26,613.09l0,.09.56-.23.13.08-.13.49c-.25.31,1.64,2.33,1.85,2.58a29.62,29.62,0,0,0,2.31,2.31c.48.43,1.19-.27.71-.7a26.64,26.64,0,0,1-2.42-2.45,23.08,23.08,0,0,0-1.94-2.44c-1-.87-2,.69-.77,1.1a.5.5,0,0,0,.56-.23l.05-.09c.32-.56-.55-1.07-.86-.51Z" transform="translate(29.87 -583.85)"/><path class="cls-3" d="M1.21,677a11.3,11.3,0,0,0,3,3.32c.52.38,1-.49.5-.87a10,10,0,0,1-2.67-2.95c-.33-.55-1.2-.05-.86.5Z" transform="translate(29.87 -583.85)"/><path class="cls-3" d="M-4.39,676.14l4.69,3.4c.52.38,1-.49.5-.86l-4.69-3.4c-.52-.38-1,.48-.5.86Z" transform="translate(29.87 -583.85)"/><path class="cls-3" d="M70.93,706.33l.11-.81a.51.51,0,0,0-.84-.49l-7.08,5.58c-.5.4.21,1.1.71.71l7.08-5.58-.84-.48-.11.81c-.08.62.88.9,1,.26Z" transform="translate(29.87 -583.85)"/><path class="cls-3" d="M57.66,703.11a18.9,18.9,0,0,0,3.43,2.24c.57.29,1.08-.57.51-.86a17.49,17.49,0,0,1-3.23-2.09c-.49-.4-1.21.3-.71.71Z" transform="translate(29.87 -583.85)"/><path class="cls-3" d="M67.45,694.37a8.12,8.12,0,0,0,.5,6.89c.31.56,1.17.06.86-.51a7.19,7.19,0,0,1-.4-6.11c.23-.61-.73-.87-1-.27Z" transform="translate(29.87 -583.85)"/><path class="cls-3" d="M74.17,708.54a28.65,28.65,0,0,0-3.63,7.2c-.21.61.76.88,1,.27A27.88,27.88,0,0,1,75,709c.37-.53-.5-1-.86-.5Z" transform="translate(29.87 -583.85)"/><path class="cls-3" d="M66.9,712.1l-.25.78c-.2.61.77.88,1,.27l.26-.79c.2-.61-.77-.87-1-.26Z" transform="translate(29.87 -583.85)"/><path class="cls-3" d="M75.71,711.55a11.53,11.53,0,0,0-.76,3.8c0,.64,1,.64,1,0a10.45,10.45,0,0,1,.73-3.53c.23-.6-.74-.86-1-.27Z" transform="translate(29.87 -583.85)"/><path class="cls-3" d="M74.56,709.42q5,3.12,10,6a.5.5,0,0,0,.5-.86q-5.08-2.93-10-6c-.54-.35-1,.52-.5.86Z" transform="translate(29.87 -583.85)"/><path class="cls-3" d="M86.3,716.74l.52.53a.5.5,0,0,0,.71-.71L87,716c-.46-.46-1.17.25-.71.7Z" transform="translate(29.87 -583.85)"/><path class="cls-3" d="M89,718.74q4,2.44,8.19,4.52c.57.28,1.08-.58.5-.86q-4.2-2.07-8.18-4.53c-.55-.34-1,.53-.51.87Z" transform="translate(29.87 -583.85)"/><path class="cls-3" d="M84.93,718.33,86.75,723c.23.6,1.19.34,1-.26l-1.82-4.7c-.23-.59-1.19-.34-1,.27Z" transform="translate(29.87 -583.85)"/><path class="cls-3" d="M90.33,725.14l.79,2.86a.5.5,0,0,0,1-.26l-.78-2.87a.5.5,0,0,0-1,.27Z" transform="translate(29.87 -583.85)"/><path class="cls-3" d="M85.37,730.36l3.66,1.8c.58.29,1.09-.57.51-.86l-3.67-1.8c-.57-.29-1.08.58-.5.86Z" transform="translate(29.87 -583.85)"/><path class="cls-3" d="M91.21,732.27a20.55,20.55,0,0,1,4.85,2.8c.51.39,1-.48.51-.86a21.4,21.4,0,0,0-5.09-2.9c-.6-.24-.86.72-.27,1Z" transform="translate(29.87 -583.85)"/><path class="cls-3" d="M74.15,746.45A46.08,46.08,0,0,1,81,737.89c.46-.45-.25-1.16-.71-.71a47.09,47.09,0,0,0-7,8.77c-.34.54.52,1,.86.5Z" transform="translate(29.87 -583.85)"/><path class="cls-3" d="M30.17,755.36c-.73.13-.58,1-.18,1.41a4.29,4.29,0,0,0,1.23.66l1.52.72c.57.27,1.08-.59.5-.87l-1.52-.71-.75-.36a.89.89,0,0,1-.27-.15c-.1-.19-.18-.1-.26.26.63-.12.36-1.08-.27-1Z" transform="translate(29.87 -583.85)"/><path class="cls-3" d="M57.25,745.13a28,28,0,0,0,6.24-5.46c.41-.49-.29-1.2-.71-.71a26.79,26.79,0,0,1-6,5.3c-.54.35,0,1.22.51.87Z" transform="translate(29.87 -583.85)"/><path class="cls-3" d="M131.11,686.05l.09-.2a.52.52,0,0,0-.08-.61c-.92-1-2.24.78-2.89,1.34l-5.41,4.67c-.49.42.22,1.12.7.71s6.91-6,6.9-6l-.08-.61-.09.21c-.26.58.6,1.09.86.5Z" transform="translate(29.87 -583.85)"/><path class="cls-3" d="M115.63,692.91v9.66a.5.5,0,0,0,1,0v-9.66a.5.5,0,0,0-1,0Z" transform="translate(29.87 -583.85)"/><path class="cls-3" d="M124,681.54l4.07,2.53c.55.34,1.05-.53.5-.87l-4.06-2.52c-.55-.34-1.05.53-.51.86Z" transform="translate(29.87 -583.85)"/><path class="cls-3" d="M130.83,685.35l-5,10.18c-.28.57.58,1.08.86.5l5-10.17c.28-.58-.58-1.08-.86-.51Z" transform="translate(29.87 -583.85)"/><path class="cls-3" d="M125.27,697.32l-1,2.11c-.27.58.59,1.09.87.5l1-2.11c.27-.58-.59-1.09-.86-.5Z" transform="translate(29.87 -583.85)"/><path class="cls-3" d="M123.55,701q-2.51,4.9-4.53,10c-.24.6.73.86,1,.27q2-5,4.44-9.77c.29-.57-.57-1.08-.87-.51Z" transform="translate(29.87 -583.85)"/><path class="cls-3" d="M118.12,713.69,114,717.86a.5.5,0,0,0,.71.71l4.17-4.17a.5.5,0,0,0-.71-.71Z" transform="translate(29.87 -583.85)"/><path class="cls-3" d="M105,725.27l2.34.54c.63.15.9-.82.27-1l-2.34-.55c-.63-.14-.9.82-.27,1Z" transform="translate(29.87 -583.85)"/><path class="cls-3" d="M98.94,722.27a6.8,6.8,0,0,0,3.09,4,.5.5,0,0,0,.51-.87A5.67,5.67,0,0,1,99.91,722a.5.5,0,0,0-1,.27Z" transform="translate(29.87 -583.85)"/><path class="cls-3" d="M125,680.46c-.63-.06-1.8-.43-2.38-.14a5.16,5.16,0,0,0-1.33,1.49,12.08,12.08,0,0,0-2,4.2.5.5,0,0,0,1,.26,11.74,11.74,0,0,1,1.47-3.39,5.24,5.24,0,0,1,1.11-1.4c.52-.37,1.53-.08,2.14,0s.63-.93,0-1Z" transform="translate(29.87 -583.85)"/><path class="cls-3" d="M110.91,730.4,116.4,734c.54.36,1-.51.5-.86l-5.48-3.64c-.54-.36-1,.51-.51.86Z" transform="translate(29.87 -583.85)"/><path class="cls-3" d="M120.86,736l3.16,5.2a.5.5,0,0,0,.87-.51l-3.16-5.19c-.34-.55-1.2-.05-.87.5Z" transform="translate(29.87 -583.85)"/><path class="cls-3" d="M124.08,737.75l1.77,2.39c.38.51,1.25,0,.87-.51L125,737.24c-.38-.51-1.25,0-.87.51Z" transform="translate(29.87 -583.85)"/><path class="cls-3" d="M124.72,738l13.56,5.74c.59.25,1.1-.61.51-.86l-13.57-5.74c-.58-.25-1.09.61-.5.86Z" transform="translate(29.87 -583.85)"/><path class="cls-3" d="M150,721.91l2.43.13c.91.05,2.1-.1,2.72.68s.68,2.12,1.22,3a.5.5,0,0,0,.86-.5c-.68-1.16-.62-2.84-1.79-3.69a3.1,3.1,0,0,0-1.66-.46c-1.25-.1-2.52-.13-3.78-.2-.64,0-.64,1,0,1Z" transform="translate(29.87 -583.85)"/><path class="cls-3" d="M156.86,727.21l-.26,1.57c-.11.63.86.9,1,.26l.27-1.56c.1-.63-.86-.9-1-.27Z" transform="translate(29.87 -583.85)"/><path class="cls-3" d="M155.72,732.4a30.74,30.74,0,0,0-.93,5.38c-.06.65.94.64,1,0a27.77,27.77,0,0,1,.9-5.11.5.5,0,0,0-1-.27Z" transform="translate(29.87 -583.85)"/><path class="cls-3" d="M156.26,725l-7.1,5.68c-.5.4.21,1.11.71.71l7.09-5.68c.51-.4-.21-1.1-.7-.71Z" transform="translate(29.87 -583.85)"/><path class="cls-3" d="M156.86,728l-3.92,2.86c-.52.37,0,1.24.5.86l3.92-2.86c.52-.37,0-1.24-.5-.86Z" transform="translate(29.87 -583.85)"/><path class="cls-3" d="M154.88,744.92a8.25,8.25,0,0,1-4.43-.34c-.61-.21-.87.75-.27,1a9.2,9.2,0,0,0,5,.33c.64-.12.37-1.09-.26-1Z" transform="translate(29.87 -583.85)"/><path class="cls-3" d="M144.05,742.65l2.07,1.34c.54.35,1-.52.5-.87l-2.06-1.34c-.54-.35-1,.52-.51.87Z" transform="translate(29.87 -583.85)"/><path class="cls-3" d="M151.21,720.69a3.28,3.28,0,0,0-3.71,1.17c-1.05,1.33-1.1,3.13-1.13,4.75a.5.5,0,0,0,1,0c0-1.92.6-6.16,3.58-5,.59.24.85-.73.26-1Z" transform="translate(29.87 -583.85)"/><path class="cls-3" d="M145.93,729l-.27,1.57c-.11.63.86.9,1,.26l.26-1.56c.11-.63-.85-.9-1-.27Z" transform="translate(29.87 -583.85)"/><path class="cls-3" d="M154.91,748.41a10.19,10.19,0,0,1-.26,8.73c-.29.57.57,1.08.86.51a11.16,11.16,0,0,0,.37-9.51c-.25-.58-1.22-.32-1,.27Z" transform="translate(29.87 -583.85)"/><path class="cls-3" d="M149.94,758.61,146,757.3c-.61-.21-.87.76-.26,1l3.91,1.32c.61.2.87-.76.26-1Z" transform="translate(29.87 -583.85)"/><path class="cls-3" d="M139.49,754.91a9.39,9.39,0,0,1,4.44,3.07c.41.49,1.12-.22.71-.71a10.35,10.35,0,0,0-4.88-3.32c-.62-.2-.88.77-.27,1Z" transform="translate(29.87 -583.85)"/><path class="cls-3" d="M125.14,771.05a38.1,38.1,0,0,1-5.59,3.91.5.5,0,0,0,.51.86,40.13,40.13,0,0,0,5.79-4.06c.49-.42-.22-1.13-.71-.71Z" transform="translate(29.87 -583.85)"/><path class="cls-3" d="M106.3,783.5a15.64,15.64,0,0,0-4.17,5.68c-.26.58.61,1.09.86.5a15,15,0,0,1,4-5.47c.48-.42-.23-1.13-.71-.71Z" transform="translate(29.87 -583.85)"/><path class="cls-1" d="M11.38,684.94c1.21,1.21,3,1.37,4.61,1.77l7.88,1.95.26-1-9.94-1.55c-.62-.1-.91.81-.27,1a47.78,47.78,0,0,0,11.75,1.7.5.5,0,0,0,.14-1l-13-3.33-.13,1A42.11,42.11,0,0,1,26.05,689l.38-.91a11.05,11.05,0,0,0-5.33-.83.5.5,0,0,0-.25.93A6.22,6.22,0,0,0,24,689.25c.64,0,.64-1,0-1a4.36,4.36,0,0,1-2.68-.94l-.26.93a10.73,10.73,0,0,1,5.07.79c.52.21.9-.69.38-.91a43.6,43.6,0,0,0-13.9-3.63c-.57,0-.67.84-.14,1l13,3.33.13-1a47.51,47.51,0,0,1-11.48-1.66l-.27,1,10,1.55c.62.1.9-.8.26-1l-6-1.49c-1.75-.44-4.7-.66-6-2a.5.5,0,0,0-.7.7Z" transform="translate(29.87 -583.85)"/><path class="cls-1" d="M20.91,689.54l-9.47,0c-.54,0-.7.88-.13,1A128.79,128.79,0,0,0,30.8,692.6c.65,0,.64-1,0-1a109.52,109.52,0,0,1-19.1-2.31l-.26,1q7.82,1.15,15.69,1.81v-1a140.29,140.29,0,0,1-15.31-1.43c-.63-.09-.91.86-.27,1l15.07,2.61.27-1L12.69,690c-.62-.09-.91.84-.27,1a74.07,74.07,0,0,0,14.89,2c.66,0,.62-.92,0-1l-14.45-1.82c-.56-.07-.68.86-.13,1,3.41.76,6.82,1.46,10.26,2.09,2.5.47,5.19,1.26,7.73.73.63-.13.36-1.1-.27-1-2.85.6-6.24-.53-9.07-1.07s-5.6-1.12-8.39-1.74l-.13,1L27.31,693v-1a72.13,72.13,0,0,1-14.62-2l-.27,1,14.2,2.23c.63.1.91-.85.27-1l-15.07-2.62-.27,1a142.76,142.76,0,0,0,15.58,1.46c.64,0,.63-1,0-1-5.17-.43-10.3-1-15.43-1.78-.62-.09-.9.81-.26,1A112.52,112.52,0,0,0,30.8,692.6v-1a127.78,127.78,0,0,1-19.22-2.07l-.14,1,9.47,0a.5.5,0,0,0,0-1Z" transform="translate(29.87 -583.85)"/><path class="cls-1" d="M37,695.08l13.52,2.51c.63.12.9-.84.27-1-4-.75-8.65-1-12.38-2.74l-.38.91q6.45,1.29,13,2c.6.07.62-.8.14-1-3.92-1.49-8.22-1.94-12.33-2.67l-.26,1a89.72,89.72,0,0,1,13.05,3l.27-1-13-3.46-.27,1a124.56,124.56,0,0,1,14.88,3.62l.27-1a40.68,40.68,0,0,1-9.35-2.7l-.38.91,7.69,1.57c.62.13.89-.82.26-1l-9.75-2.21c-.63-.15-.9.81-.27,1a90.75,90.75,0,0,0,9.84,1.71c.55.06.68-.89.13-1l-9.44-1.73-.27,1q4.89.76,9.8,1.46c.38.06.83-.33.56-.73l-.75-1.12c-.36-.53-1.22,0-.86.5l.75,1.12.56-.73c-3.27-.47-6.53-1-9.79-1.46-.63-.1-.91.85-.27,1l9.44,1.74.14-1a88.23,88.23,0,0,1-9.57-1.67l-.27,1,9.76,2.21.26-1-7.69-1.57c-.51-.11-.93.68-.38.91a41,41,0,0,0,9.58,2.8.5.5,0,0,0,.27-1,122.67,122.67,0,0,0-14.88-3.62c-.62-.1-.9.79-.27,1l13,3.47a.5.5,0,0,0,.27-1,89.82,89.82,0,0,0-13.06-3c-.62-.1-.9.85-.26,1,4.1.73,8.4,1.19,12.32,2.67l.13-1q-6.41-.72-12.73-2c-.52-.11-.93.66-.38.91,3.82,1.76,8.51,2.07,12.61,2.84l.27-1-13.52-2.52c-.63-.11-.9.85-.27,1Z" transform="translate(29.87 -583.85)"/><path class="cls-1" d="M56.38,695.35l-1-.7c-.46-.32-1,.41-.61.79l3.5,3.1.61-.78L54,694.42c-.42-.28-.94.28-.69.69a6.12,6.12,0,0,0,3.16,2.57c.57.22.8-.6.38-.91a7.45,7.45,0,0,0-3-1.35.5.5,0,0,0-.39.91l3.39,2.16.5-.87a10,10,0,0,0-3.69-1.26.5.5,0,0,0-.27,1l3.22,1.35.13-1a4.75,4.75,0,0,1-2.71-.63l-.5.86a24.62,24.62,0,0,0,2.73,1.21l.26-1a13.14,13.14,0,0,1-3.25-1.27l-.38.91a8.59,8.59,0,0,1,5.23,2.68l.6-.79a8.52,8.52,0,0,1-2.71-2.32c-.34-.45-1.11.14-.78.6l3,4.33c.36.52,1.23,0,.86-.51l-3-4.32-.79.6a9.32,9.32,0,0,0,2.92,2.49.51.51,0,0,0,.61-.79,9.42,9.42,0,0,0-5.68-2.93c-.51-.07-.92.61-.38.91a13.63,13.63,0,0,0,3.49,1.37.5.5,0,0,0,.26-1q-1.27-.49-2.49-1.11c-.57-.29-1.07.54-.5.86a5.65,5.65,0,0,0,3.21.77.5.5,0,0,0,.13-1l-3.21-1.35-.27,1a9.46,9.46,0,0,1,3.46,1.17.5.5,0,0,0,.5-.87L54,695.47l-.39.91a7.08,7.08,0,0,1,2.73,1.25l.38-.91a5,5,0,0,1-2.55-2.12l-.69.69,4.88,3.33c.47.32,1-.41.61-.79l-3.5-3.1-.6.79,1,.69c.53.37,1-.49.5-.86Z" transform="translate(29.87 -583.85)"/><path class="cls-1" d="M61.51,668a7.06,7.06,0,0,0-1.44,4.29c-.27,2.93-.45,5.87-.67,8.81,0,.56.89.69,1,.14a64.17,64.17,0,0,0,.88-12.53c0-.54-.89-.72-1-.14a55,55,0,0,0-.62,12.75c0,.52.89.72,1,.13a85.09,85.09,0,0,0,1.14-13.53c0-.64-1-.63-1,0a98.67,98.67,0,0,0-.06,12.4.5.5,0,0,0,1,0,60,60,0,0,0,.06-10.89c-.06-.63-1-.65-1,0L61,682.16a.51.51,0,0,0,.93.26c1-1.38.9-3,.94-4.65.06-2.78.06-5.57,0-8.35a.5.5,0,0,0-1,0l0,11.62a.5.5,0,0,0,1,0,45.5,45.5,0,0,0-.5-11.48c-.09-.56-1-.42-1,.13l.35,15.2a.5.5,0,0,0,1,0,66,66,0,0,0-.89-14.11c-.09-.56-1-.42-1,.14a97.32,97.32,0,0,0,1.38,15.89c.11.63,1.07.36,1-.27a94,94,0,0,1-1.35-15.62l-1,.13a65.46,65.46,0,0,1,.85,13.84h1l-.35-15.2-1,.13A44.4,44.4,0,0,1,61.93,681h1l0-11.62h-1c0,2.13,0,4.26,0,6.39,0,1.86.33,4.51-.83,6.1l.93.25-.21-12.71h-1a60,60,0,0,1-.06,10.89h1a98.67,98.67,0,0,1,.06-12.4h-1a82.87,82.87,0,0,1-1.11,13.26l1,.14a53.78,53.78,0,0,1,.59-12.48l-1-.13A63,63,0,0,1,59.42,681l1,.13.44-5.87c.16-2.09,0-4.82,1.38-6.52.41-.49-.3-1.2-.71-.71Z" transform="translate(29.87 -583.85)"/><path class="cls-1" d="M58,684.52c-1.75,3.34-1,7.31-2.79,10.63l.91.38a20,20,0,0,1,3.34-7.23l-.86-.5-5,7.18.91.38a24.08,24.08,0,0,1,4.81-7.61l-.79-.61-5.67,7.72c-.34.46.41,1,.78.61l.8-.9c.42-.48-.28-1.19-.71-.71l-.8.9.79.61,5.67-7.72c.34-.46-.4-1-.78-.61a25.47,25.47,0,0,0-5.06,8.06c-.22.56.61.82.91.38l5-7.18c.37-.53-.49-1-.86-.5a20.45,20.45,0,0,0-3.44,7.47c-.13.53.64.9.91.38,1.76-3.33,1-7.3,2.8-10.62.3-.57-.57-1.08-.87-.51Z" transform="translate(29.87 -583.85)"/><path class="cls-1" d="M65.22,677.14a10.33,10.33,0,0,0,3.29,6.05.5.5,0,0,0,.71-.7,20.19,20.19,0,0,1-2.9-3.81l-.78.6a17.78,17.78,0,0,1,3,3.85l.86-.5c-1.36-1.89-2.69-3.83-2.87-6.22l-.93.25q1.56,3.66,3.31,7.24l.86-.51A20.62,20.62,0,0,1,67,676.48l-.92.39,3.13,6.56c.28.58,1.13.07.87-.51a32.16,32.16,0,0,1-2.65-8.9c-.09-.63-1.06-.37-1,.27a33.25,33.25,0,0,0,2.74,9.14l.87-.51-3.13-6.56c-.26-.53-1-.14-.92.39A21.65,21.65,0,0,0,69,683.9a.5.5,0,0,0,.86-.51c-1.16-2.38-2.27-4.79-3.31-7.23-.19-.46-1-.22-.93.25.2,2.6,1.52,4.65,3,6.72.36.52,1.19.07.86-.5a18.3,18.3,0,0,0-3.21-4.06.5.5,0,0,0-.78.61,20.91,20.91,0,0,0,3.05,4l.71-.7a9.45,9.45,0,0,1-3-5.61c-.11-.64-1.07-.37-1,.26Z" transform="translate(29.87 -583.85)"/><path class="cls-1" d="M67.12,682.61l-1.64,9.56c-.1.62.83.9,1,.26a52.12,52.12,0,0,1,2.86-9l-1-.26-2,7.51c-.35,1.29-.82,2.44,0,3.57.29.37.84,0,.86-.35.13-3-.57-8,1.78-10.29l-.84-.49-1.72,10.47c-.11.63.86.9,1,.26l1.73-10.46a.51.51,0,0,0-.84-.49c-2.67,2.58-1.93,7.64-2.07,11l.85-.36c-.81-1,.65-4.23,1-5.36l1.29-4.75c.17-.64-.73-.84-1-.26a52.44,52.44,0,0,0-2.86,9l1,.26,1.64-9.56c.1-.63-.86-.9-1-.26Z" transform="translate(29.87 -583.85)"/><path class="cls-1" d="M58.46,699.7l0-1.24h-1c.2,2.45.47,4.88.81,7.31.08.56,1,.43,1-.13l-.75-6.09c-.07-.62-1-.66-1,0a31.33,31.33,0,0,0,.79,6c.12.54,1,.44,1-.13a37,37,0,0,0-1.18-6.18.5.5,0,0,0-1,.27l1.46,5.39,1-.27a16.22,16.22,0,0,1-1.06-4c-.08-.62-1-.66-1,0a14.56,14.56,0,0,0,.84,4.71.5.5,0,0,0,1-.26,19.52,19.52,0,0,0-1.52-5.18c-.24-.53-1-.14-.91.39a44.22,44.22,0,0,0,1.53,5.28.5.5,0,0,0,1-.13,32.62,32.62,0,0,0,.13-4.94.5.5,0,0,0-1,0l.08,4.6a.5.5,0,0,0,1,.13L60.59,701l-1-.26a28.18,28.18,0,0,0-.35,5,.5.5,0,0,0,1,.13A26.11,26.11,0,0,1,62,701.56l-.91-.38-1.57,4.4c-.17.48.5.83.84.49l3.46-3.51L63,702a20.47,20.47,0,0,1-2.72,3.81.5.5,0,0,0,.7.71l3.47-3-.71-.71-3.17,3.39c-.37.39.12,1.12.6.78l4.12-2.87c.52-.36,0-1.23-.51-.86l-4.11,2.87.6.79,3.18-3.39a.5.5,0,0,0-.71-.71l-3.46,3,.7.71a21.5,21.5,0,0,0,2.89-4,.51.51,0,0,0-.79-.61l-3.46,3.51.84.49,1.56-4.4a.5.5,0,0,0-.91-.39,27.18,27.18,0,0,0-1.79,4.58l1,.14a27.19,27.19,0,0,1,.31-4.77c.1-.62-.8-.9-1-.26L58.57,705l1,.13-.08-4.6h-1a32.62,32.62,0,0,1-.13,4.94l1-.14a47.65,47.65,0,0,1-1.53-5.28l-.91.39a18.42,18.42,0,0,1,1.41,4.93l1-.26a13.52,13.52,0,0,1-.81-4.45h-1a16.91,16.91,0,0,0,1.1,4.26c.23.58,1.14.37,1-.27l-1.46-5.39-1,.27a34.86,34.86,0,0,1,1.14,5.91l1-.13a31.12,31.12,0,0,1-.75-5.76h-1l.75,6.09,1-.13c-.33-2.34-.58-4.69-.77-7,0-.63-1-.65-1,0l0,1.24a.5.5,0,0,0,1,0Z" transform="translate(29.87 -583.85)"/><path class="cls-1" d="M66.74,701.77l.43-.73c.33-.55-.52-1-.87-.5A72.09,72.09,0,0,0,60.63,711l.91.12a17.1,17.1,0,0,1-1.25-6.07,6.24,6.24,0,0,1,.09-1.5c1.3-1,1.7-1,1.17.14a12.19,12.19,0,0,1-.86,3.12c-.12.45.52.9.84.49l3.16-4.08-.79-.6-3.7,5.71.86.51a8.81,8.81,0,0,0,1-2.3.5.5,0,0,0-1-.26l-.69,1.93c-.18.53.69.91.92.39l1.76-4c.26-.59-.6-1.1-.86-.51l-1.76,4,.91.39.68-1.94-1-.26a7.94,7.94,0,0,1-.88,2.05.5.5,0,0,0,.86.51l3.7-5.72c.31-.47-.43-1.06-.78-.6l-3.16,4.07.84.48c.26-1,2.6-7.1-.95-5.47-3,1.39-1,7.65-.13,9.79.13.35.72.55.91.12A72.7,72.7,0,0,1,67.17,701l-.87-.5-.43.73a.5.5,0,0,0,.87.5Z" transform="translate(29.87 -583.85)"/><path class="cls-1" d="M61.48,706.33a14.4,14.4,0,0,0-1.22,3c-.17.63.73.84,1,.26a16.18,16.18,0,0,1,2-3.56c.36-.49-.38-1-.79-.61a4.72,4.72,0,0,0-1.64,3.35c0,.65,1,.65,1,0a3.68,3.68,0,0,1,1.35-2.64l-.78-.61a16.85,16.85,0,0,0-2.1,3.81l1,.26a13.32,13.32,0,0,1,1.12-2.8c.31-.57-.56-1.07-.86-.51Z" transform="translate(29.87 -583.85)"/><path class="cls-1" d="M68.37,708.57l.36,11.21c0,.64,1,.65,1,0l-.36-11.21a.5.5,0,0,0-1,0Z" transform="translate(29.87 -583.85)"/><path class="cls-1" d="M68.14,713.12a23.7,23.7,0,0,1-1,4.08l1,.27.83-4a.5.5,0,0,0-1-.27l-1,3.26,1,.26.78-2.6c.16-.53-.67-.91-.91-.38a8.78,8.78,0,0,0-.84,3.7.51.51,0,0,0,.63.49,2.15,2.15,0,0,0,1.76-2.13.5.5,0,0,0-.93-.25,4.15,4.15,0,0,0,.5,4.58c.4.5,1.1-.21.7-.71a3.1,3.1,0,0,1-.34-3.36l-.93-.26a1.09,1.09,0,0,1-1,1.16l.63.48a7.53,7.53,0,0,1,.7-3.2l-.91-.38-.78,2.6a.5.5,0,0,0,1,.26l1-3.25-1-.27-.82,4a.5.5,0,0,0,1,.27,24.21,24.21,0,0,0,1-4.08c.1-.63-.86-.9-1-.27Z" transform="translate(29.87 -583.85)"/><path class="cls-1" d="M86.23,719.14c-.55-.59-.46-.55-1.26-.7a.51.51,0,0,0-.61.62,17.81,17.81,0,0,0,2.92,5.76c.37.49,1.22,0,.86-.51l-4-6.27-.86.5,3.56,5.52c.29.45,1.14.17.92-.39a28,28,0,0,0-3.54-6.41l-.87.5a13.55,13.55,0,0,0,3.16,3.07c.44.31.89-.28.68-.69A5.65,5.65,0,0,0,84,717.27c-.53-.21-.88.65-.39.92a19.77,19.77,0,0,1,4.16,2.93c.47.44,1.17-.26.7-.7L84.89,717c-.47-.44-1.16.26-.71.71a45.62,45.62,0,0,1,8,10.6l.79-.61q-3.45-4.1-7-8.13l-.71.71,8,8.87.71-.71q-4.28-4.07-8.12-8.54c-.36-.43-1.13.15-.78.6L91.6,729l.78-.6-7.86-8.31c-.45-.47-1.11.22-.7.71q3.87,4.63,8,9.06l.61-.79a46.24,46.24,0,0,1-7.27-6.71c-.43-.49-1.12.22-.71.71q3,3.69,6.42,7.08l.61-.79a49.9,49.9,0,0,1-5.24-4.14c-.4-.36-1.13.12-.79.61A18.37,18.37,0,0,0,90.9,731a.5.5,0,0,0,.6-.78c-1.44-1.38-2.9-2.72-4.41-4a.5.5,0,0,0-.7.7c1.15,1.24,5.61,6.11,7.36,4a.53.53,0,0,0,.08-.61,4.42,4.42,0,0,0-4.74-1.91.51.51,0,0,0-.22.84c1.29,1.22,4.91,3.91,6.5,1.91.4-.5-.3-1.21-.7-.71-.58.72-2.7-.2-3.18-.47a10,10,0,0,1-1.91-1.44l-.23.83c1.05-.45,1.78-.27,2.18.55-.48-.29-1-.59-1.41-.92a21.8,21.8,0,0,1-3-2.73l-.7.7c1.5,1.31,3,2.66,4.41,4l.6-.78a16.78,16.78,0,0,1-5.1-4.86l-.79.61A50.15,50.15,0,0,0,91,730.2c.47.33,1-.39.6-.78-2.26-2.26-4.39-4.62-6.42-7.08l-.71.71a47.7,47.7,0,0,0,7.47,6.87c.48.35,1-.39.61-.79-2.75-3-5.41-6-8-9.06l-.7.71,7.85,8.3c.38.41,1.14-.14.79-.6L86,720l-.78.6a116.91,116.91,0,0,0,8.11,8.55.5.5,0,0,0,.71-.71l-8-8.87c-.43-.48-1.12.22-.71.71q3.51,4,7,8.13c.38.44,1-.13.78-.61A46.77,46.77,0,0,0,84.89,717l-.71.71,3.62,3.39.7-.7a20.49,20.49,0,0,0-4.35-3.1l-.39.92a4.53,4.53,0,0,1,2.54,2.41L87,720a11.41,11.41,0,0,1-2.79-2.71c-.38-.51-1.25,0-.87.5a26.17,26.17,0,0,1,3.44,6.18l.92-.39L84.11,718c-.35-.54-1.21,0-.86.5l4,6.28.86-.51a17.09,17.09,0,0,1-2.82-5.52l-.61.62.81.44c.44.48,1.15-.23.71-.71Z" transform="translate(29.87 -583.85)"/><path class="cls-1" d="M60.17,745.79a17.54,17.54,0,0,0,5.29-1.94.5.5,0,0,0-.39-.91c-8.42,1.73-15.94,6.15-24.24,8.32l.57.73c2.25-3.11,7.45-4.11,11-5s7.37-1.57,11.08-2.2l-.26-1q-9.72,3-19.12,6.88l.38.91A79.36,79.36,0,0,1,64,743l-.38-.91-11.22,5.41c-3.63,1.75-7.27,3.9-11.19,4.91l.62.61c.69-2,4.19-3.38,6-4.23a52.83,52.83,0,0,1,6.73-2.6c4-1.27,8.14-2.17,12.26-3.07l-.27-1a69.13,69.13,0,0,0-9.93,3.18c-1.48.58-9.21,4.72-10.17,3.65l-.1.79a218.71,218.71,0,0,1,21.79-8.83l-.38-.92c-6.55,3-13.06,6.52-20,8.47l.38.91a65.4,65.4,0,0,1,21.37-9.77l-.38-.91a79.44,79.44,0,0,1-23.43,7.89l.26,1c7-2.41,14-4.94,21-7.48l-.27-1-18.23,7.33.38.92a46.17,46.17,0,0,1,10.53-4.93c2.91-.93,6.33-1.09,8.81-3a.5.5,0,0,0-.5-.86q-9.88,4.26-20.16,7.53l.49.83c5-5.75,13.68-4.33,19.9-8,.47-.27.16-1.12-.38-.91q-12,4.54-23.61,10.07l.5.86a57.08,57.08,0,0,1,23.16-9.2c.63-.1.36-1.06-.27-1a57.59,57.59,0,0,0-23.39,9.3.5.5,0,0,0,.5.86q11.48-5.46,23.37-10l-.38-.91c-6.33,3.69-15,2.23-20.11,8.12-.3.35,0,1,.49.83q10.38-3.3,20.39-7.63l-.5-.86c-2.76,2.1-7,2.27-10.23,3.43a48.11,48.11,0,0,0-9.11,4.47c-.46.29-.16,1.14.38.92l18.24-7.34c.58-.23.34-1.19-.27-1-7,2.54-13.94,5.07-21,7.47a.5.5,0,0,0,.26,1,80.35,80.35,0,0,0,23.67-8,.5.5,0,0,0-.38-.91,65.62,65.62,0,0,0-21.61,9.87.5.5,0,0,0,.38.91c7.06-2,13.65-5.49,20.27-8.56.51-.24.15-1.11-.38-.92a220.42,220.42,0,0,0-22,8.94.5.5,0,0,0-.1.78c1.61,1.79,5.94-1.22,7.49-1.88a80.55,80.55,0,0,1,13.59-4.69c.63-.15.36-1.1-.27-1A109.6,109.6,0,0,0,51,746.32a45.44,45.44,0,0,0-6.37,3c-1.55.88-3.18,1.67-3.78,3.44a.51.51,0,0,0,.62.61c3.69-1,7.11-2.92,10.52-4.57l12.12-5.85c.52-.25.15-1.07-.38-.91A80.37,80.37,0,0,0,44,750.75c-.46.28-.16,1.13.38.91q9.41-3.87,19.12-6.87a.5.5,0,0,0-.26-1,116.29,116.29,0,0,0-13.7,2.92c-3.14,1-6.93,2-9,4.74-.27.37.17.84.56.74,8.3-2.17,15.81-6.59,24.24-8.32L65,743a16.83,16.83,0,0,1-5.05,1.84c-.63.12-.36,1.08.27,1Z" transform="translate(29.87 -583.85)"/><path class="cls-1" d="M50.76,745.06,46,746.22l.39.91c7.44-4.28,15.33-6.47,23.59-8.57a.5.5,0,0,0-.27-1c-8.34,2.12-16.31,4.34-23.83,8.67a.5.5,0,0,0,.39.91L51,746c.62-.15.36-1.12-.27-1Z" transform="translate(29.87 -583.85)"/><path class="cls-1" d="M51,745.08c5.78-2.49,11.6-4.92,17.89-5.68l-.13-1c-3.32,1-6.84.36-10.2,1.22A31.78,31.78,0,0,0,50,743.76l.5.86c5.24-3.82,12.77-4.34,18.95-5.64l-.27-1c-3.7,1.07-9.4-1-11.31,3.6-.25.59.72.85,1,.27,1.6-3.86,7.43-2,10.62-2.9a.5.5,0,0,0-.27-1c-6.29,1.33-13.84,1.85-19.18,5.75-.51.37-.06,1.2.5.86,2.84-1.74,5.77-3.54,9.08-4.21,3.12-.63,6.3-.07,9.38-1,.51-.15.45-1-.14-1-6.48.78-12.45,3.25-18.39,5.81-.59.26-.08,1.12.5.87Z" transform="translate(29.87 -583.85)"/><path class="cls-1" d="M113.12,712.87l-6.44,8.29.78.61a54.82,54.82,0,0,1,8.23-10.53l-.79-.6c-2.94,3.94-6.12,7.79-8.39,12.17a.5.5,0,0,0,.78.61,141.56,141.56,0,0,0,11.46-13.13c.35-.45-.39-1-.78-.61a83.83,83.83,0,0,0-10.3,12.71.51.51,0,0,0,.56.74c2-.66,3.31-3.53,4.51-5.11l6.16-8.08c.34-.45-.44-1.06-.79-.61a89.49,89.49,0,0,0-7.92,12.09c-.26.47.41,1.06.78.6a100,100,0,0,0,9.47-13.79c.27-.47-.42-1.06-.78-.61a80.23,80.23,0,0,0-7.84,12.64.5.5,0,0,0,.86.51q4.08-6.51,8-13.11l-.86-.5q-3.52,6.92-7.62,13.51l.87.51q4.11-7,7.9-14.27a.5.5,0,0,0-.86-.5l-9.86,17.05a.5.5,0,0,0,.87.51L121,706.91l-.86-.5q-3.8,7.23-7.91,14.26a.5.5,0,0,0,.87.51q4.09-6.6,7.61-13.52a.5.5,0,0,0-.86-.5q-3.93,6.6-8,13.1l.86.51a79,79,0,0,1,7.68-12.44l-.78-.6a99.07,99.07,0,0,1-9.32,13.59l.79.6A88.86,88.86,0,0,1,118.82,710l-.78-.61-4.7,6.16L111,718.67c-.71.93-1.91,3.12-3,3.49l.56.74a82.32,82.32,0,0,1,10.14-12.51l-.78-.6a140.18,140.18,0,0,1-11.31,12.92l.79.6c2.27-4.38,5.45-8.23,8.4-12.17.34-.46-.4-1-.79-.6a55.85,55.85,0,0,0-8.38,10.73c-.28.47.43,1.06.79.6l6.44-8.29c.39-.51-.32-1.22-.71-.71Z" transform="translate(29.87 -583.85)"/><path class="cls-1" d="M132.88,765.79a93.87,93.87,0,0,0-21.33,11.56l.61.78a139.47,139.47,0,0,1,17.57-11.92c.57-.32.07-1.14-.5-.86-7.91,3.79-15.82,7.63-22.94,12.81-.51.37-.05,1.21.5.86a197.54,197.54,0,0,1,22.13-11.74l-.51-.86c-7,3.55-14.09,7.15-20.38,12-.5.38-.08,1.19.5.87L130.66,767c.56-.31.06-1.17-.51-.86-6.26,3.42-12.41,7.07-17.52,12.12-.4.38.12,1.1.6.78l17-11.47a.5.5,0,0,0-.5-.86,85.21,85.21,0,0,0-15.88,10.87c-.43.37.13,1.09.61.79l18.56-12a.5.5,0,0,0-.5-.86c-6.07,3.51-11.87,7.44-16.66,12.6-.37.4.13,1.15.61.79l15.31-11.65c.5-.37.07-1.19-.51-.86a77,77,0,0,0-15.48,12.46c-.47.47.21,1.1.7.71l15.28-12.06c.45-.36-.13-1.09-.61-.79a91.82,91.82,0,0,0-13.59,10.38c-.48.44.22,1.1.71.7q5.28-4.32,10.66-8.51l-.71-.7q-3.32,2.59-6.45,5.43c-.47.44.24,1.14.71.71,2.09-1.89,4.23-3.7,6.45-5.44.51-.39-.2-1.09-.71-.7q-5.39,4.18-10.66,8.51l.71.7a90.44,90.44,0,0,1,13.39-10.22l-.61-.78-15.27,12.06.7.71a75.84,75.84,0,0,1,15.29-12.31l-.51-.86L116,778l.61.78c4.73-5.11,10.46-9,16.45-12.45l-.5-.86-18.57,12,.61.79a83.74,83.74,0,0,1,15.67-10.72l-.5-.86-17,11.47.6.78c5.06-5,11.14-8.58,17.33-12l-.51-.86L108,778.39l.5.87c6.29-4.83,13.33-8.43,20.39-12,.58-.29.07-1.12-.51-.86a196.54,196.54,0,0,0-22.12,11.74l.5.86c7.13-5.17,15-9,22.94-12.81l-.5-.86a140.08,140.08,0,0,0-17.78,12.08c-.44.35.15,1.12.61.78a93,93,0,0,1,21.08-11.46c.6-.23.34-1.19-.26-1Z" transform="translate(29.87 -583.85)"/><path class="cls-1" d="M24.57,623.61l-1.25.64c-.42.21-.25.77.12.91,5.82,2.2,12,2.94,18.09,3.63v-1a144.15,144.15,0,0,1-15.22-1.64l.12.92c2.06-1,4.85-.24,7,0,2.37.26,4.75.56,7.12.87a.5.5,0,0,0,.26-1c-4.41-1.71-9.44-1.81-14.1-2.36v1a53.65,53.65,0,0,1,12.85,1.72.5.5,0,0,0,.26-1c-4.48-1.83-9.43-1.24-14-2.77l-.13,1a58.42,58.42,0,0,1,11.77,1.62l.27-1A42,42,0,0,1,27.4,622.6l-.26.93a64.17,64.17,0,0,1,10.58,1.84.5.5,0,0,0,.26-1,64.19,64.19,0,0,0-10.84-1.88c-.48,0-.7.74-.25.93a43.09,43.09,0,0,0,10.6,2.75c.62.1.91-.81.27-1a59.66,59.66,0,0,0-12-1.65.5.5,0,0,0-.13,1c4.55,1.54,9.51.95,14,2.77l.26-1a54.25,54.25,0,0,0-13.11-1.76.5.5,0,0,0,0,1c4.57.54,9.52.65,13.84,2.32l.26-1q-4.14-.56-8.29-1c-2.23-.24-4.51-.75-6.61.23a.51.51,0,0,0,.12.92,148.83,148.83,0,0,0,15.48,1.67c.65,0,.63-.94,0-1-6.05-.68-12.09-1.43-17.82-3.59l.12.91,1.25-.63c.57-.3.07-1.16-.51-.87Z" transform="translate(29.87 -583.85)"/><path class="cls-1" d="M33.43,627.5a28.28,28.28,0,0,1-7.72,2.07.5.5,0,0,0,0,1L46.23,632v-1l-23-1.59c-.55,0-.69.88-.13,1q11.16,2,22.47,2.93v-1a133.64,133.64,0,0,1-21.82-2.9l-.14,1c6.81.74,13.57,1.78,20.34,2.84l.13-1q-11.12-.84-22.17-2.35c-.62-.09-.9.87-.26,1l22.31,3.32c.63.09.91-.86.27-1l-22.95-3.91-.13,1a193.52,193.52,0,0,1,30.19,3.12c.63.12.9-.85.27-1a195.92,195.92,0,0,0-30.46-3.16c-.55,0-.7.88-.14,1l22.95,3.91.27-1-22.32-3.31-.26,1q11.17,1.54,22.43,2.39c.55.05.69-.89.13-1-6.85-1.07-13.7-2.12-20.6-2.87-.56-.06-.68.87-.13,1a135.84,135.84,0,0,0,22.09,2.93c.65,0,.63-1,0-1q-11.16-.95-22.21-2.89l-.13,1,23,1.59c.65,0,.64-1,0-1l-20.52-1.45v1a30.12,30.12,0,0,0,8.23-2.21c.59-.25.08-1.11-.51-.86Z" transform="translate(29.87 -583.85)"/><path class="cls-1" d="M-4.64,619.41l-1.6-1.17-.38.92a50.89,50.89,0,0,1,9.81,4.21l.39-.92a51.54,51.54,0,0,0-9.76-2.07c-.5-.06-.65.7-.25.93a14.59,14.59,0,0,0,6.1,1.85c.51,0,.66-.69.26-.93a13.24,13.24,0,0,0-6.77-1.86.5.5,0,0,0-.14,1,61.27,61.27,0,0,0,11.39,2.11c.55,0,.69-.89.13-1a69.06,69.06,0,0,0-11.41-.61c-.54,0-.7.9-.13,1l9.11,1.28.14-1a72.25,72.25,0,0,0-10.19-.41.5.5,0,0,0,0,1q5.85.42,11.65,1.15v-1a91.06,91.06,0,0,0-12.58,0c-.64,0-.65,1,0,1A106.51,106.51,0,0,1,2.57,625v-1q-6.34.12-12.68-.09v1c4.73-.43,9.29,1.37,14,1a.5.5,0,0,0,0-1q-6.76-.24-13.5-.94c-.55-.06-.69.91-.13,1l11.33,1.55.13-1L-11,624.08l.25.93c2-1,4.6-.13,6.66.21L1,626c.62.11.9-.86.26-1-2.58-.42-5.16-.86-7.75-1.27a7.11,7.11,0,0,0-4.69.34c-.49.25-.19.88.25.93l12.71,1.47c.55.06.69-.91.13-1L-9.46,624l-.13,1q6.74.71,13.5.94v-1c-4.73.38-9.29-1.42-14-1a.5.5,0,0,0,0,1q6.33.21,12.68.09a.5.5,0,0,0,0-1,106.51,106.51,0,0,0-11.44-.17v1a91.06,91.06,0,0,1,12.58,0c.65.05.62-.92,0-1q-5.8-.74-11.65-1.15v1a72.25,72.25,0,0,1,10.19.41c.55.06.69-.91.13-1l-9.11-1.28-.14,1a66.82,66.82,0,0,1,11.14.57l.14-1a59.88,59.88,0,0,1-11.12-2.07l-.13,1a12.11,12.11,0,0,1,6.26,1.72l.25-.93a13.16,13.16,0,0,1-5.59-1.71l-.26.93a50.3,50.3,0,0,1,9.49,2,.51.51,0,0,0,.39-.92,52.57,52.57,0,0,0-10.06-4.31c-.57-.18-.81.6-.38.92l1.59,1.17c.52.38,1-.49.51-.87Z" transform="translate(29.87 -583.85)"/><path class="cls-1" d="M77.09,628.57a20.14,20.14,0,0,1,4.26-3c.58-.3.07-1.14-.5-.86L67,631.44l.5.86q7.73-4.72,15.76-8.88c.58-.3.07-1.15-.5-.87a84.92,84.92,0,0,0-12.4,7.57.5.5,0,0,0,.51.86c5.3-2.43,10.49-5.06,15.69-7.7l-.51-.87-11.63,7.36c-.54.35,0,1.2.51.87a111.5,111.5,0,0,1,15-8l-.38-.92a80.17,80.17,0,0,0-13.83,8.54c-.45.37.13,1.06.61.78l14.42-8.18c.56-.32.07-1.15-.51-.87a57.15,57.15,0,0,0-12.43,8.39.5.5,0,0,0,.6.79Q85.1,626.8,92.11,623l-.5-.86a111.72,111.72,0,0,0-10.74,7.71c-.44.36.13,1.08.61.79,3.73-2.32,7.21-5,10.69-7.64l-.61-.78a103,103,0,0,1-11.7,8.65c-.55.34,0,1.21.5.86a102.3,102.3,0,0,0,11.91-8.81c.42-.36-.16-1.13-.61-.78A129.68,129.68,0,0,1,81,629.79l.61.78A110.35,110.35,0,0,1,92.11,623a.5.5,0,0,0-.5-.86q-7,3.78-13.73,8.11l.6.78a56.11,56.11,0,0,1,12.24-8.23l-.51-.87-14.42,8.19.61.79A78,78,0,0,1,90,622.54c.49-.26.15-1.14-.38-.92a114.41,114.41,0,0,0-15.25,8.15l.51.87,11.63-7.36a.5.5,0,0,0-.51-.87c-5.19,2.65-10.39,5.28-15.69,7.71l.51.86a83.38,83.38,0,0,1,12.39-7.56l-.5-.87q-8,4.16-15.76,8.89a.5.5,0,0,0,.5.86l13.88-6.74-.5-.86a20.83,20.83,0,0,0-4.46,3.16c-.48.44.23,1.15.7.71Z" transform="translate(29.87 -583.85)"/><path class="cls-1" d="M92.4,621l-10.68,8.11c-.51.38,0,1.25.5.86l10.68-8.1c.51-.39,0-1.26-.5-.87Z" transform="translate(29.87 -583.85)"/><path class="cls-1" d="M92.2,621.64c-3.57,3.29-7.2,6.55-11.73,8.43-.59.25-.33,1.22.26,1,4.72-2,8.47-5.27,12.18-8.7.47-.43-.24-1.14-.71-.7Z" transform="translate(29.87 -583.85)"/><path class="cls-1" d="M98,655q-4.11,3.13-7.93,6.61c-.49.44.22,1.11.7.71L101,653.92l-.7-.71-9.27,8.21c-.49.43.21,1.1.7.7l7.81-6.36-.71-.71L90,663.82c-.46.46.23,1.13.71.71l9.26-8.24c.49-.43-.22-1.1-.71-.71a78.19,78.19,0,0,0-9.8,9.37c-.42.48.26,1.18.71.71,3.53-3.73,7.11-7.4,11.63-9.92l-.61-.79a148.5,148.5,0,0,0-11.62,11,.5.5,0,0,0,.71.71,83.81,83.81,0,0,1,13.56-10.92l-.61-.79c-4.57,3.6-9.6,7-13.25,11.55-.32.4.12,1.17.61.79l14.08-10.79c.5-.38,0-1.23-.5-.86a75.85,75.85,0,0,0-13.41,11.63.5.5,0,0,0,.7.7l12.73-10.21-.7-.71c-3.47,2.82-7.78,5.46-10.39,9.12-.35.5.38,1,.79.61q4.78-4,9.7-7.8l-.71-.7q-3.89,3.48-7.63,7.13l.71.71a43.06,43.06,0,0,1,6.41-5.25l-.61-.78a55.32,55.32,0,0,1-7.44,6l.5.86a48.87,48.87,0,0,0,5.88-4.68l-.71-.7-3.82,3.77.71.7A14,14,0,0,1,99,664.17l-.6-.78c-1.12.94-2.25,1.84-3.42,2.71l.6.78,3.69-3-.71-.71-2.47,2.3.71.7,1.58-1.66a.5.5,0,0,0-.7-.71L95.24,666c-.49.43.22,1.12.71.7l3-2.53-.7-.71c-1.29,1.23-2.63,2.38-4,3.48l.71.7a58.9,58.9,0,0,0,6.57-6.06c.44-.47-.26-1.18-.7-.7a60.89,60.89,0,0,1-6.58,6.06c-.5.4.21,1.09.71.7,1.41-1.09,2.74-2.25,4-3.47.47-.45-.22-1.12-.7-.71l-3,2.54.71.7,2.4-2.11-.7-.71-1.59,1.67a.5.5,0,0,0,.71.7l2.47-2.29c.48-.45-.22-1.1-.71-.71l-3.69,3c-.43.36.15,1.13.61.79,1.24-.92,2.44-1.87,3.63-2.86.43-.37-.15-1.12-.61-.79a14.94,14.94,0,0,0-2.32,2,.5.5,0,0,0,.71.7l3.82-3.77c.46-.45-.24-1.14-.71-.7a48.44,48.44,0,0,1-5.67,4.52c-.53.36,0,1.22.5.86a54.86,54.86,0,0,0,7.65-6.2c.4-.38-.12-1.1-.6-.78a44,44,0,0,0-6.62,5.4.5.5,0,0,0,.71.71q3.74-3.65,7.63-7.14c.49-.44-.21-1.09-.71-.7q-4.9,3.81-9.7,7.79l.79.61c2.51-3.54,6.88-6.2,10.22-8.92.5-.4-.21-1.1-.7-.71L90.74,667.23l.7.7a75.62,75.62,0,0,1,13.21-11.47l-.5-.86L90.06,666.39l.61.78c3.64-4.58,8.68-8,13.25-11.55.45-.35-.13-1.09-.6-.78a85.21,85.21,0,0,0-13.77,11.07l.71.71a143.26,143.26,0,0,1,11.62-11c.44-.37-.13-1-.61-.78C96.68,657.44,93,661.16,89.44,665l.71.71a77.48,77.48,0,0,1,9.8-9.37l-.71-.71L90,663.82l.71.71,8.87-8.77c.47-.46-.22-1.1-.71-.71l-7.8,6.37.7.7,9.27-8.2c.49-.43-.21-1.11-.7-.71l-10.24,8.41.7.71c2.49-2.27,5.06-4.42,7.74-6.46.5-.38,0-1.25-.51-.86Z" transform="translate(29.87 -583.85)"/><path class="cls-1" d="M99.54,662.22l-5.36,4.67c-.49.42.22,1.1.71.7a66,66,0,0,1,5.93-4.27l-.61-.79L95,666.58l.71.7L98,665.09a.5.5,0,0,0-.7-.7L95,666.58c-.47.46.21,1.09.71.7l5.18-4c.45-.35-.13-1.09-.61-.78a66.72,66.72,0,0,0-6.13,4.43l.71.7,5.35-4.66c.49-.42-.22-1.13-.7-.71Z" transform="translate(29.87 -583.85)"/><path class="cls-1" d="M110,603.34l3.86-3.16c.48-.39-.13-1-.61-.78-3.37,1.43-6,4.46-8.56,7-3,3-5.9,6.06-8.68,9.24a.5.5,0,0,0,.71.71l16.73-15c.48-.43-.22-1.11-.71-.7-5,4.17-10,8.37-14.66,12.91-.47.46.22,1.1.71.71l16.58-13.48-.7-.71L99.5,612.88c-.43.36.15,1.12.61.78l17.73-12.95c.51-.37,0-1.21-.51-.87a109.71,109.71,0,0,0-17,13,.51.51,0,0,0,.61.79c6.36-4,12.06-8.92,17.73-13.84.43-.37-.14-1.12-.6-.78-4.75,3.42-9.46,6.9-13.24,11.42-.33.41.11,1.15.61.79a112.46,112.46,0,0,0,13.35-11.2c.39-.39-.13-1.11-.61-.79a60.75,60.75,0,0,0-13.68,12.36.5.5,0,0,0,.7.7L118,600.94c.42-.37-.13-1.08-.61-.78-4.09,2.58-7.29,6.12-10.37,9.81-.34.41.1,1.12.61.79a43,43,0,0,0,10.06-9,.5.5,0,0,0-.71-.7,30.61,30.61,0,0,0-6.92,7.57c-.31.48.39,1,.79.6q4.14-4.05,8-8.39c.42-.48-.26-1.18-.71-.71l-6.52,6.9a.5.5,0,0,0,.71.71,50.61,50.61,0,0,0,7.21-8.12c.33-.46-.4-1-.78-.61l-7.41,8.15c-.36.39.14,1.15.61.78a33.37,33.37,0,0,0,7.58-8.1c.3-.47-.42-1-.79-.61l-7.16,8.47a.5.5,0,0,0,.71.7,39.53,39.53,0,0,0,7.93-8.55c.32-.46-.41-1-.79-.6L112.55,607a.5.5,0,0,0,.7.71,64.4,64.4,0,0,0,7.13-8c.37-.49-.38-.94-.78-.61-2.71,2.25-3.9,6-7.09,7.65l.61.79a31,31,0,0,0,7.67-9.59c.3-.57-.56-1.08-.86-.51a30.46,30.46,0,0,1-7.52,9.39c-.45.38.12,1,.61.79,3.3-1.74,4.5-5.49,7.28-7.81l-.78-.61a62.94,62.94,0,0,1-7,7.8l.7.71,6.89-7.75-.78-.61a38.81,38.81,0,0,1-7.78,8.35l.71.7,7.16-8.46-.79-.61a31.68,31.68,0,0,1-7.22,7.75l.61.79,7.4-8.15-.78-.61a48.78,48.78,0,0,1-7.06,7.92l.71.71,6.52-6.9-.71-.71c-2.55,2.9-5.21,5.69-8,8.4l.78.6a30.07,30.07,0,0,1,6.77-7.37l-.71-.7a41.77,41.77,0,0,1-9.86,8.8l.61.79c3-3.62,6.14-7.12,10.17-9.66l-.61-.78L104.5,611.63l.7.7a60,60,0,0,1,13.49-12.19l-.61-.79a111.71,111.71,0,0,1-13.14,11l.6.78c3.72-4.46,8.35-7.89,13-11.27l-.6-.78c-5.61,4.86-11.25,9.7-17.54,13.68l.61.78a107.72,107.72,0,0,1,16.8-12.88l-.51-.87-17.73,13,.61.78,15.19-12.84c.5-.42-.21-1.11-.7-.71L98.11,613.51l.71.71c4.68-4.54,9.66-8.74,14.66-12.92l-.71-.7L96,615.62l.71.71c2.58-3,5.25-5.83,8-8.6s5.49-6,9-7.47l-.61-.78-3.86,3.16c-.5.4.21,1.11.71.7Z" transform="translate(29.87 -583.85)"/><path class="cls-2" d="M121,603.1a19.25,19.25,0,0,0-5.67,4.12l.71.71a26.28,26.28,0,0,1,3.91-4c.44-.36-.13-1.08-.6-.79a23,23,0,0,0-4.8,4c-.43.47.25,1.17.71.71l4.52-4.54c.38-.38-.14-1.12-.61-.78a23,23,0,0,0-4.66,4.43l.78.6a12.63,12.63,0,0,1,3.33-3.23c.54-.35,0-1.22-.5-.86a16.35,16.35,0,0,0-3.44,3c-.41.49.25,1.17.71.71a24.11,24.11,0,0,1,2.34-2.06l-.71-.71a34.48,34.48,0,0,0-3.86,3.59c-.43.47.27,1.18.71.71a33.63,33.63,0,0,1,3.86-3.59c.5-.41-.21-1.1-.71-.71a26.93,26.93,0,0,0-2.34,2.06l.71.71a15.59,15.59,0,0,1,3.23-2.89l-.5-.86a13.85,13.85,0,0,0-3.69,3.59c-.32.45.43,1,.79.6a22,22,0,0,1,4.46-4.27l-.61-.78-4.52,4.53.71.71a21.89,21.89,0,0,1,4.59-3.83l-.61-.79a27.75,27.75,0,0,0-3.91,4c-.39.49.25,1.19.71.71a18.46,18.46,0,0,1,5.46-4c.58-.28.08-1.14-.5-.86Z" transform="translate(29.87 -583.85)"/><path class="cls-1" d="M-17,617.56l-1,.26a.51.51,0,0,0-.12.92,122.49,122.49,0,0,0,11.56,4.6.5.5,0,0,0,.38-.92,85.53,85.53,0,0,0-12-5.14c-.62-.21-.85.74-.26,1,3.43,1.36,6.88,2.69,10.43,3.71.63.18.86-.74.27-1l-11.94-4.51-.27,1L-9.62,621c.53.18.91-.69.38-.91l-10.89-4.65-.39.91,10.43,3.52c.61.2.86-.74.26-1l-10-3.75-.27,1,9.49,3.42c.61.22.85-.73.27-1l-10.2-4-.27,1,10.31,2.79a.5.5,0,0,0,.26-1l-10.92-3.45-.13,1A52.33,52.33,0,0,1-11,617.07l.26-1a43.84,43.84,0,0,1-9.57-2.89l-.38.91,8.31,1.65.26-1a41.43,41.43,0,0,1-7.75-2l-.14,1a49.52,49.52,0,0,1,8.19,1.65c.53.15.91-.68.38-.92a21.74,21.74,0,0,0-9.16-2,.5.5,0,0,0,0,1,24.63,24.63,0,0,1,8.85,1.81c.52.21.88-.66.38-.92a19.39,19.39,0,0,0-6.89-2.2c-1.35-.15-3.12-.56-4,.68-.24.34.09.72.43.75a88.09,88.09,0,0,1,23.55,5.4c.61.22.87-.74.27-1a89.38,89.38,0,0,0-23.82-5.43l.43.75c.67-.94,4.35,0,5.11.18a18.93,18.93,0,0,1,4.41,1.71l.38-.92a25.4,25.4,0,0,0-9.11-1.84v1a20.51,20.51,0,0,1,8.66,1.83l.38-.92A51.58,51.58,0,0,0-20,612.81c-.59-.07-.62.8-.13,1a42.29,42.29,0,0,0,7.76,2c.62.1.9-.83.26-1l-8.31-1.65c-.51-.11-.94.67-.38.91a44.84,44.84,0,0,0,9.81,3,.5.5,0,0,0,.26-1,53.49,53.49,0,0,0-10.52-2.27c-.58-.05-.65.82-.14,1l10.93,3.44.26-1-10.3-2.79a.5.5,0,0,0-.27,1l10.2,4,.27-1-9.49-3.43c-.61-.22-.86.74-.27,1l10,3.75.26-1-10.42-3.51c-.53-.18-.91.69-.39.91l10.9,4.65.38-.91-10.4-3.53c-.62-.2-.86.74-.27,1L-8.09,622l.27-1a110.67,110.67,0,0,1-10.44-3.71l-.26,1a81.52,81.52,0,0,1,11.78,5l.38-.92a114.72,114.72,0,0,1-11.31-4.5l-.12.92,1-.26a.5.5,0,0,0-.27-1Z" transform="translate(29.87 -583.85)"/><path class="cls-1" d="M-18.93,612.67a6.66,6.66,0,0,0-3.47-.32,2,2,0,0,0-1.45,1.95c0,.64,1,.65,1,0-.06-1.76,2.7-.88,3.65-.67.63.14.9-.82.27-1Z" transform="translate(29.87 -583.85)"/><path class="cls-1" d="M120.17,738.09a7.79,7.79,0,0,0-2.07-.43c-.5,0-.67.7-.25.93l9.35,5.2.5-.86-8.5-3.9-.39.92a66.39,66.39,0,0,1,11.4,5.16.5.5,0,0,0,.5-.87c-3.92-2.93-8.83-3.69-13.12-5.92l-.5.86q6.43,3.3,12.53,7.22c.54.35,1-.51.5-.87-3.3-2.22-7.22-3.55-10.86-5.1l-.38.91c4.13,1.12,7.44,3.94,11.33,5.62.48.21,1-.36.6-.79-3.73-3.7-8.55-5.83-12.8-8.82l-.51.87,13,7c.48.26,1.05-.39.61-.79-3.61-3.2-8.48-4.24-12.21-7.25l-.61.78a113.84,113.84,0,0,0,11.1,5.83.5.5,0,0,0,.51-.86c-3.56-2.62-8.1-3.5-11.44-6.46l-.6.79q6.15,3.42,12.62,6.23a.5.5,0,0,0,.51-.87c-3.56-2.37-7.94-3.15-11.32-5.82l-.6.79,11.31,5.68.51-.86A90.4,90.4,0,0,1,119,736.17l-.5.86,10.88,5.32c.58.28,1.08-.56.51-.86l-11-5.85-.51.87,11.8,5.7.51-.86c-2-.86-4-1.73-5.94-2.64-1.73-.8-4-1.47-5.22-3l-.61.78,12.65,5.78.39-.91a81.26,81.26,0,0,1-11.9-5.33l-.5.86,10.81,5,.38-.91q-5.58-2.26-11-4.93l-.51.87c2.36,1,4.68,2.06,7,3.2l.5-.86q-4.4-2-8.58-4.44l-.51.86,8.61,4.4.51-.87a63.33,63.33,0,0,1-7.8-4.25l-.5.87,7.76,4.24c.57.31,1.07-.55.51-.86l-8.31-4.59a.5.5,0,0,0-.5.87q3.8,2.31,7.77,4.31c.58.29,1.08-.57.51-.86l-7.82-4c-.58-.29-1.08.57-.51.86l7.82,4,.51-.86c-2.65-1.34-5.24-2.77-7.78-4.32l-.5.87,8.3,4.58.51-.86L118.91,735a.5.5,0,0,0-.5.87,63.82,63.82,0,0,0,7.79,4.25c.58.26,1.09-.57.51-.87l-8.61-4.39c-.57-.3-1.07.54-.51.86q4.2,2.41,8.59,4.44c.57.27,1.08-.57.5-.86q-3.44-1.71-7-3.21c-.58-.24-1.09.58-.51.87q5.52,2.71,11.22,5c.52.21.89-.68.38-.92l-10.81-5c-.57-.27-1.08.54-.5.86a81.8,81.8,0,0,0,12.13,5.43c.53.19.91-.68.39-.91l-12.65-5.78a.51.51,0,0,0-.61.79c1.15,1.39,3,2,4.59,2.73q3.36,1.56,6.77,3c.58.25,1.09-.58.51-.86l-11.8-5.71c-.58-.27-1.08.56-.51.87l11,5.84.51-.86L119,736.17a.5.5,0,0,0-.5.86,88,88,0,0,0,11.92,6.28c.58.25,1.09-.57.51-.86l-11.32-5.69c-.47-.23-1.07.42-.6.79,3.46,2.73,7.88,3.55,11.51,6l.51-.87q-6.48-2.8-12.63-6.22c-.48-.27-1,.39-.6.78,3.4,3,8,3.94,11.63,6.61l.51-.86a114.89,114.89,0,0,1-11.1-5.83c-.48-.28-1.06.41-.61.78,3.73,3,8.62,4.07,12.21,7.26l.61-.78-13-7a.5.5,0,0,0-.51.87c4.18,2.94,8.94,5,12.6,8.66l.61-.79c-4-1.71-7.35-4.57-11.57-5.71-.53-.14-.92.68-.38.91,3.64,1.56,7.56,2.88,10.86,5.11l.5-.87q-6.09-3.91-12.53-7.21c-.57-.29-1.07.57-.5.86,4.28,2.23,9.21,3,13.12,5.93l.5-.87A69.08,69.08,0,0,0,119.08,739c-.53-.16-.91.68-.39.92l8.51,3.89c.57.26,1.08-.54.5-.86l-9.35-5.2-.25.93a4.91,4.91,0,0,1,1.81.4c.61.21.87-.76.26-1Z" transform="translate(29.87 -583.85)"/><path class="cls-2" d="M119,732.93a10,10,0,0,0,4,2.88c.52.21.9-.69.38-.91l-3.87-1.65c-.46-.2-1.08.39-.6.79a23.37,23.37,0,0,0,4.57,3c.57.28,1.07-.54.5-.86L120.11,734a.5.5,0,0,0-.5.86l4.08,2.53.51-.87c-.85-.46-1.7-.89-2.58-1.28-.57-.26-1.07.53-.5.86l2,1.18.39-.91a4.61,4.61,0,0,1-1.42-.83l-.61.78.79.48.5-.86-3.28-1.71-.5.86,2.37,1.06.51-.87a26.45,26.45,0,0,1-4-2.06l-.25.93a3.5,3.5,0,0,0,3.39-2.45c.21-.61-.75-.87-1-.26a2.51,2.51,0,0,1-2.43,1.71.5.5,0,0,0-.26.93,27.52,27.52,0,0,0,4,2.07c.58.25,1.1-.6.51-.87l-2.38-1.05c-.57-.26-1.08.56-.5.86l3.28,1.71a.5.5,0,0,0,.5-.86l-.78-.48c-.48-.29-1,.41-.61.78a6,6,0,0,0,1.86,1.09c.54.2.87-.63.39-.91l-2-1.18-.5.86c.87.4,1.73.82,2.57,1.29a.5.5,0,0,0,.51-.87L120.11,734l-.5.86L123.5,737l.5-.86a22.22,22.22,0,0,1-4.36-2.81l-.61.79,3.87,1.64.38-.91a9.29,9.29,0,0,1-3.57-2.63c-.41-.49-1.12.22-.7.71Z" transform="translate(29.87 -583.85)"/><path class="cls-1" d="M94,724.74c-.49-.53-4.09-4.1-4.62-2.12-.22.81.88,1.71,1.34,2.17a12.8,12.8,0,0,0,4,2.64c.39.17,1-.23.68-.68a15.48,15.48,0,0,0-5.3-4.58c-.48-.25-1,.39-.6.79,2.47,2.27,5,4.51,8.37,5.35a.5.5,0,0,0,.26-1c-3.16-.79-5.58-2.93-7.92-5.09l-.61.79a14.43,14.43,0,0,1,4.94,4.21l.68-.68a12.21,12.21,0,0,1-4-2.67c-.58-.6-.83-.77,0-.21a10.66,10.66,0,0,1,2,1.76c.44.47,1.14-.23.71-.71Z" transform="translate(29.87 -583.85)"/><path class="cls-1" d="M77.9,714.42l.07-.07a.47.47,0,0,0,.13-.49c-.18-.71-.91-.63-1.27-.12a10.46,10.46,0,0,0-1.27,3.6l1,.14a17.19,17.19,0,0,1,.92-4c.22-.61-.74-.86-1-.27l-1.22,3.2,1,.26a13.88,13.88,0,0,1,1.29-3.46l-.86-.5a34.64,34.64,0,0,0-1.71,3.9l1,.27a7.89,7.89,0,0,1,1.39-3.51l-.86-.5-1.36,2.71.93.25a4.12,4.12,0,0,1,1.58-2.74c.5-.39,0-1.26-.51-.87A5.3,5.3,0,0,0,75,715.88c-.06.5.72.68.94.25l1.35-2.71a.5.5,0,0,0-.86-.5,8.5,8.5,0,0,0-1.5,3.74.5.5,0,0,0,1,.27,32.32,32.32,0,0,1,1.6-3.67c.3-.57-.56-1.07-.86-.5a14.78,14.78,0,0,0-1.4,3.7.5.5,0,0,0,1,.26l1.21-3.19-1-.27a18.45,18.45,0,0,0-1,4.22c-.06.56.86.67,1,.13a17.84,17.84,0,0,1,.49-1.73c.14-.4.35-1.43.72-1.64h-.5l-.09-.11.13-.49-.08.07c-.47.43.23,1.14.71.71Z" transform="translate(29.87 -583.85)"/><path class="cls-1" d="M147.24,732.82l.63-4.45c.09-.62-.85-.91-1-.26l-.58,3.17,1,.27a29.32,29.32,0,0,0,.45-4.48h-1a11.47,11.47,0,0,1-.63,4.46l1,.14a35.72,35.72,0,0,1,1.59-7.24l-1-.14a16,16,0,0,1-.94,4.11l1,.13a10.27,10.27,0,0,1,.24-2.46l.17-.63a2.29,2.29,0,0,1,1.85-1.81c.22.6,1.19.34,1-.27a1.51,1.51,0,0,0-2.53-.6c-1.47,1.22-1.7,4-1.7,5.77a.5.5,0,0,0,1,.14,16.94,16.94,0,0,0,1-4.38c.05-.58-.81-.64-1-.13a37,37,0,0,0-1.63,7.51c-.06.59.81.63,1,.13a12.07,12.07,0,0,0,.67-4.73.5.5,0,0,0-1,0,27.05,27.05,0,0,1-.42,4.21c-.11.63.85.9,1,.27l.58-3.18-1-.26-.62,4.44c-.09.63.87.9,1,.27Z" transform="translate(29.87 -583.85)"/><path class="cls-1" d="M54.71,634.82l-1.14-2.69c-.22-.52-1.13-.14-.91.38q1.05,2.57,1.85,5.21l.92-.38a17.55,17.55,0,0,0-2.48-4c-.38-.46-1,.13-.79.61L54,637.66c.24.51,1.12.15.91-.38a11.71,11.71,0,0,0-2.42-3.81c-.33-.35-1,0-.84.48a15.12,15.12,0,0,0,2.49,4.25c.42.5,1.12-.21.71-.71a40.79,40.79,0,0,0-2.95-3.21l-.71.71a43.79,43.79,0,0,1,4,4l.6-.78c-1.16-.87-2.32-1.75-3.5-2.6-.66-.47-1.15-.9-2-.65a.51.51,0,0,0-.22.84,21.78,21.78,0,0,0,4.32,3.57l.5-.86a15.69,15.69,0,0,1-3.72-3l-.71.7a35.86,35.86,0,0,1,4.41,4.39l.71-.71-3.22-3.22c-.47-.47-1.1.22-.71.71a14,14,0,0,0,2.88,2.66c.48.35,1-.38.6-.78a6.81,6.81,0,0,0-2-1.55c-.56-.31-1.07.55-.5.86a6.2,6.2,0,0,1,1.74,1.4l.61-.79a13.24,13.24,0,0,1-2.67-2.51l-.71.71,3.22,3.22c.47.46,1.12-.22.71-.71a36.49,36.49,0,0,0-4.41-4.38.5.5,0,0,0-.71.7,16.28,16.28,0,0,0,3.93,3.13.5.5,0,0,0,.5-.86,21.05,21.05,0,0,1-4.11-3.42l-.22.84c.67-.2,2,1.14,2.46,1.47l2.25,1.67c.48.36,1-.38.61-.78a46.56,46.56,0,0,0-4-4c-.48-.42-1.17.25-.71.71a35.84,35.84,0,0,1,3,3.21l.71-.71a13.33,13.33,0,0,1-2.23-3.8l-.84.48a10.64,10.64,0,0,1,2.17,3.37l.91-.38L53,633.41l-.79.61a16.06,16.06,0,0,1,2.32,3.82c.23.53,1.08.15.92-.38-.54-1.77-1.16-3.5-1.86-5.21l-.91.38,1.14,2.7c.25.59,1.11.08.86-.51Z" transform="translate(29.87 -583.85)"/><path class="cls-1" d="M25.54,628.7H24.42a.5.5,0,0,0,0,1c4.89.11,9.34,2.26,14.07,3.24.63.13.89-.81.27-1A61.89,61.89,0,0,0,25,630.16v1a30.85,30.85,0,0,1,7.17.73c1.87.43,3.57,1.18,5.52.94.5-.06.74-.89.13-1a95.26,95.26,0,0,0-10.4-1c-.55,0-.69.88-.13,1,3.71.62,7.57,1.66,11.35,1.48.64,0,.64-1,0-1-3.67.17-7.48-.84-11.08-1.45l-.14,1a92.77,92.77,0,0,1,10.13.93l.14-1c-2.33.28-4.75-.88-7.06-1.26a33.12,33.12,0,0,0-5.63-.41.5.5,0,0,0,0,1A60.63,60.63,0,0,1,38.49,633l.27-1c-4.82-1-9.35-3.17-14.34-3.28v1h1.12a.5.5,0,0,0,0-1Z" transform="translate(29.87 -583.85)"/><path class="cls-1" d="M34.87,631.86l-4.3-1c-.63-.15-.9.82-.27,1l4.3,1c.63.14.9-.82.27-1Z" transform="translate(29.87 -583.85)"/><path class="cls-1" d="M28,630.84l-.53.08a.5.5,0,0,0,0,1q7.26,1,14.41,2.55c.63.13.9-.83.27-1q-7.16-1.53-14.41-2.54v1l.53-.07c.63-.09.36-1-.27-1Z" transform="translate(29.87 -583.85)"/><path class="cls-1" d="M57,630.57c-2.8-1.62-3.76,3.12-4.4,4.85-.17.46.53.88.83.49,1.73-2.17,2-5.92,2.78-8.54a.5.5,0,0,0-.91-.38,21.69,21.69,0,0,0-2.22,5.78.51.51,0,0,0,.62.62c.84-.2.93-.85,1.19-1.64.64-1.94,1.17-3.92,1.65-5.91a.51.51,0,0,0-.74-.57c-.82.36-1,1.16-1.37,2l-2.15,4.57.91.38a24,24,0,0,1,3-7l-.86-.5-3.38,5.51.87.51,2.38-4.79a4.87,4.87,0,0,0,.89-2.72c0-.45-.68-.72-.93-.25a14.55,14.55,0,0,0-1.43,3.89.5.5,0,0,0,1,.27,14.05,14.05,0,0,0,.89-5.71h-1c.12,2.21.17,4.43-1.6,6.06l.84.49c.24-1.49,1.8-2.22,2.15-3.71a.5.5,0,0,0-.83-.49,26.22,26.22,0,0,0-2.64,2.63.5.5,0,0,0,.6.79c1.34-.58,2.5-2.13,4-2.3.63-.07.64-1.07,0-1-1.86.22-2.81,1.72-4.46,2.44l.6.78a27.41,27.41,0,0,1,2.65-2.63L55,624c-.36,1.51-1.91,2.16-2.16,3.72a.51.51,0,0,0,.84.48c2-1.81,2-4.24,1.89-6.77,0-.64-1-.64-1,0a13.42,13.42,0,0,1-.85,5.44l1,.27A13.89,13.89,0,0,1,56,623.48l-.93-.26c.17,1.86-2.31,5.34-3.14,7a.5.5,0,0,0,.87.51l3.37-5.52c.34-.55-.52-1.05-.86-.5a24.54,24.54,0,0,0-3.05,7.21c-.13.53.66.92.91.38L54.74,629c.35-.75.78-2.49,1.6-2.84l-.74-.57c-.23,1-1.12,6.62-2.14,6.85l.62.62a21,21,0,0,1,2.11-5.55l-.91-.39-1.07,3.82c-.36,1.31-.6,3.2-1.45,4.28l.83.49c.26-.7,1.5-5.09,2.93-4.26a.5.5,0,0,0,.51-.86Z" transform="translate(29.87 -583.85)"/><path class="cls-1" d="M105.76,721.22a8.53,8.53,0,0,0-1.74.28.52.52,0,0,0-.35.62,3.92,3.92,0,0,0,4.71,3.08.5.5,0,0,0,.12-.91,11.29,11.29,0,0,0-5.08-1.19c-.55,0-.6.66-.25.93a7.23,7.23,0,0,0,2.61,1.28,4,4,0,0,0,2.2.15.78.78,0,0,0,.49-1c-.23-.73-1.22-.92-1.84-1.08s-3.69-.92-3,.78c.23.6,1.12,1.08,1.65,1.37a7.24,7.24,0,0,0,2.84.8.5.5,0,0,0,.36-.85,5.18,5.18,0,0,0-4-1.43.51.51,0,0,0-.43.76,2.9,2.9,0,0,0,3.26,1.24.5.5,0,0,0,0-1,7.24,7.24,0,0,0-3.19-.48c-.38,0-.72.56-.35.85a4.43,4.43,0,0,0,3.22,1c.45,0,.73-.69.25-.93a6.39,6.39,0,0,0-2.81-.68c-.47,0-.72.72-.26.93a6.66,6.66,0,0,0,3.35.59c.44,0,.75-.7.25-.93a6.5,6.5,0,0,0-4-.49.5.5,0,0,0-.22.83,4.44,4.44,0,0,0,4.23,1.14A.5.5,0,0,0,108,726a7.38,7.38,0,0,0-4.32-.8.5.5,0,0,0-.25.93,5.69,5.69,0,0,0,3.65.94.5.5,0,0,0,.14-1c-.83-.25-2.12-.7-3-.24a.89.89,0,0,0-.23,1.46c1,1.11,4.06,1,3.39-1-.2-.61-1.17-.35-1,.26.27.82-2.58,0-1,.15a6.86,6.86,0,0,1,1.49.34l.13-1a4.82,4.82,0,0,1-3.15-.8l-.25.93a6.61,6.61,0,0,1,3.81.66l.12-.91a3.4,3.4,0,0,1-3.25-.88l-.22.83a5.24,5.24,0,0,1,3.19.4l.25-.94a5.54,5.54,0,0,1-2.84-.45l-.25.93a5,5,0,0,1,2.31.55l.25-.94a3.44,3.44,0,0,1-2.52-.73l-.35.86a6.67,6.67,0,0,1,2.93.44v-1a1.9,1.9,0,0,1-2.14-.79l-.43.75a4.18,4.18,0,0,1,3.26,1.14l.35-.86a6,6,0,0,1-2.68-.86,5.52,5.52,0,0,1-.82-.62l.1.17a6.86,6.86,0,0,1,1.66.32c.17,0,1.58.22,1,.19a6.83,6.83,0,0,1-1.35-.17,6.46,6.46,0,0,1-2.37-1.19l-.25.94a10.15,10.15,0,0,1,4.57,1l.12-.91a2.91,2.91,0,0,1-3.47-2.39l-.35.62a6.65,6.65,0,0,1,1.47-.25c.64,0,.64-1,0-1Z" transform="translate(29.87 -583.85)"/><path class="cls-1" d="M70.19,625.46a6.14,6.14,0,0,0-2.92,6.18c.08.6.94.39,1-.13a8.33,8.33,0,0,1,2.32-5.11l-.7-.71A10,10,0,0,0,68,628.91c-.21.6.75.87,1,.26a8.75,8.75,0,0,1,1.57-2.77c.41-.49-.25-1.18-.7-.71a9.39,9.39,0,0,0-2.62,5.82l1-.13a5.1,5.1,0,0,1,2.46-5.06.5.5,0,0,0-.51-.86Z" transform="translate(29.87 -583.85)"/><path class="cls-1" d="M66.7,634.81c.67.73,1.33,1.49,2,2.21.37.38,1.3.78,1.46,0s-.79-1-1.33-1c-.76,0-1.38-.42-1.28-1.28l-.25.43.33-.22c.54-.35,0-1.21-.5-.86s-.65.49-.59,1.06a2.19,2.19,0,0,0,.52,1.17,2.1,2.1,0,0,0,1,.64c.25.06,1,0,1.16.19l0-.39,0,.08.23-.29c.17-.1.12,0,0-.19a3.83,3.83,0,0,0-.28-.29l-.61-.67L67.4,634.1c-.43-.47-1.14.23-.7.71Z" transform="translate(29.87 -583.85)"/><path class="cls-1" d="M102.17,721c-1.24.74-.92,2.71-.75,3.91a4.53,4.53,0,0,0,2.47,3.75c.5.22,1-.36.61-.79a6.7,6.7,0,0,1-1.9-5.8l-1-.13c-.14,1.52-.09,7.2,2.48,6.7.34-.06.41-.46.3-.73-.78-1.75-3.09-5.17-1.17-6.75l-.83-.48A9.58,9.58,0,0,0,102,726a4.7,4.7,0,0,0,.83,1.62c.19.24,1.28.95,1.31,1.2.07.63,1.07.64,1,0-.15-1.25-1.15-1.12-1.8-2.23-1-1.71-.44-3.79,0-5.57a.5.5,0,0,0-.84-.48c-2.47,2,0,5.78,1,8l.3-.73c-1.19.23-1.27-5.09-1.21-5.74s-.89-.69-1-.13a7.76,7.76,0,0,0,2.15,6.77l.61-.79a3.54,3.54,0,0,1-2-3c-.1-.67-.45-2.57.24-3s0-1.2-.5-.86Z" transform="translate(29.87 -583.85)"/><path class="cls-1" d="M89.79,730.66a24.36,24.36,0,0,1,3.53,7.22l1-.26c-1-2.63-1.68-5.83-3.55-8-.38-.44-1.07.12-.79.6L91,732a.5.5,0,0,0,.86-.51l-1-1.76-.79.6c1.73,2,2.38,5.12,3.29,7.55.23.59,1.16.36,1-.26a25.22,25.22,0,0,0-3.64-7.46c-.37-.52-1.24,0-.86.5Z" transform="translate(29.87 -583.85)"/><path class="cls-1" d="M95.52,736.52l-.5-.32v.71l3.4-3.19a.5.5,0,0,0-.1-.78c-1.68-1-2.65,3.07-3,4a.5.5,0,0,0,.91.38,12.57,12.57,0,0,0,1.57-5.07.51.51,0,0,0-.5-.5c-1,0-1.13,1.05-1.35,1.81a18.73,18.73,0,0,0-.66,3.62c0,.52.69.65.93.25a34.94,34.94,0,0,0,2.48-4.88c.24-.59-.72-.85-1-.26A32.75,32.75,0,0,1,95.39,737l.94.25a16.69,16.69,0,0,1,.36-2.32c0-.2.44-2.1.65-2.11l-.5-.5a11.32,11.32,0,0,1-1.43,4.57l.91.38c.11-.33,1.3-3.57,1.49-3.45l-.1-.79-3.4,3.19a.51.51,0,0,0,0,.71,1.86,1.86,0,0,0,1,.57.5.5,0,0,0,.26-1Z" transform="translate(29.87 -583.85)"/><path class="cls-1" d="M89,734.4c.45-.13.28.19.66-.42a3.34,3.34,0,0,0,.32-1,4.85,4.85,0,0,0,.05-1.86c-.31-1.84-1.74-3.21-2.26-5l-.92.38a79.14,79.14,0,0,1,3.31,8.24l1-.27a26.37,26.37,0,0,0-5.16-8.25.5.5,0,0,0-.78.6,109.93,109.93,0,0,1,5.11,9.81c.27.58,1.13.08.87-.51a109.85,109.85,0,0,0-5.12-9.8l-.79.6a25.13,25.13,0,0,1,4.91,7.82c.23.58,1.17.35,1-.27A83.6,83.6,0,0,0,87.7,726c-.24-.52-1.07-.15-.92.39.6,2,2.55,3.88,2.23,6.07-.14.91-1.23,2-.46,2.87a.55.55,0,0,0,.49.13l.21-.06a.5.5,0,0,0-.27-1Z" transform="translate(29.87 -583.85)"/><path class="cls-1" d="M141.08,758.93a3.74,3.74,0,0,1,3.76.7l.35-.86a3,3,0,0,1-2.49-1.16l-.49.84a38.48,38.48,0,0,1,4.11,1.15c.61.21.87-.76.27-1a39.19,39.19,0,0,0-4.11-1.16.51.51,0,0,0-.49.84,3.92,3.92,0,0,0,3.2,1.45c.41,0,.7-.56.36-.85a4.78,4.78,0,0,0-4.73-1c-.61.21-.35,1.17.26,1Z" transform="translate(29.87 -583.85)"/><path class="cls-1" d="M147.75,759.73a20.66,20.66,0,0,1-2.89-5.09c-.23-.59-1.2-.33-1,.27a21.45,21.45,0,0,0,3,5.32c.39.51,1.25,0,.86-.5Z" transform="translate(29.87 -583.85)"/><path class="cls-1" d="M142.25,758.55a18.56,18.56,0,0,1,3.17-.27c.64,0,.65-1,0-1a7.59,7.59,0,0,1-2.87-.43l-.14,1,.52,0a.5.5,0,0,0,0-1l-.52,0c-.59,0-.64.8-.13,1a8.41,8.41,0,0,0,3.14.47v-1a28.22,28.22,0,0,0-3,.2c-.6.11-1.09.42-1.12,1.07s1,.64,1,0Z" transform="translate(29.87 -583.85)"/><path class="cls-1" d="M146.65,741.41a.5.5,0,0,0,0-1,.5.5,0,0,0,0,1Z" transform="translate(29.87 -583.85)"/><path class="cls-1" d="M146.84,740.67a.79.79,0,0,0-1.48.42,4,4,0,0,0,.56,1.71c.49,1.14,1,2.26,1.64,3.35.26.48,1.11.15.91-.39a30,30,0,0,0-1.92-4.25.51.51,0,0,0-.92.39,43.72,43.72,0,0,0,2.71,6.52c.29.57,1.16.07.86-.5a43.14,43.14,0,0,1-2.6-6.29l-.92.39a27.89,27.89,0,0,1,1.83,4l.91-.39c-.38-.7-.75-1.41-1.09-2.13-.19-.38-.36-.77-.52-1.16-.1-.22-.2-.45-.28-.68a.61.61,0,0,0-.56-.5c.38.51,1.25,0,.87-.5Z" transform="translate(29.87 -583.85)"/><path class="cls-1" d="M151.48,743.21l-4.63,2.42c-.58.3-.07,1.12.51.86a17.91,17.91,0,0,0,4.28-2.68c.44-.37-.12-1.07-.6-.78a41.9,41.9,0,0,0-4.46,3.12c-.5.41.21,1.11.71.71a40.41,40.41,0,0,1,4.25-3l-.6-.79a17.44,17.44,0,0,1-4.09,2.53l.51.86,4.62-2.42c.57-.3.07-1.16-.5-.86Z" transform="translate(29.87 -583.85)"/><path class="cls-1" d="M151.53,747.87c-1.2-.55-2.4-1.12-3.59-1.7-.48-.23-1.08.41-.61.78a21.26,21.26,0,0,0,2.54,1.76.5.5,0,0,0,.6-.79,13.06,13.06,0,0,1-1.71-2.14l-.78.6a37,37,0,0,0,3.12,2.75c.49.39,1.19-.25.71-.7l-2.44-2.31-.61.79a14.71,14.71,0,0,1,4.25,2.9c.46.45,1.17-.25.71-.7a15.66,15.66,0,0,0-4.45-3.07c-.49-.22-1.05.37-.61.79l2.44,2.3.71-.7a40.88,40.88,0,0,1-3.12-2.75c-.4-.39-1.1.11-.79.6a13.64,13.64,0,0,0,1.86,2.35l.61-.79a19.53,19.53,0,0,1-2.33-1.59l-.61.78c1.19.59,2.39,1.15,3.6,1.7.58.27,1.09-.59.5-.86Z" transform="translate(29.87 -583.85)"/><path class="cls-1" d="M110.74,725.79l.26-.94-1-.27L109,729.39l1,.26a32.87,32.87,0,0,1,1.52-5.34l-1-.27c-.9,3-1.73,5.93-2.48,8.92a.5.5,0,0,0,1,.26q1.13-4.49,2.47-8.91c.19-.63-.74-.86-1-.27a33.31,33.31,0,0,0-1.53,5.35c-.12.62.83.9,1,.26l1-4.8a.5.5,0,0,0-1-.27l-.26.94a.5.5,0,0,0,1,.27Z" transform="translate(29.87 -583.85)"/><path class="cls-1" d="M111,724.64a27.41,27.41,0,0,0-1.45,4.32.5.5,0,0,0,1,.27,22.91,22.91,0,0,0,1.38-4.82.5.5,0,0,0-1-.26,76,76,0,0,0-3.23,11.37c-.13.63.84.89,1,.26a77.52,77.52,0,0,1,3.23-11.37l-1-.26a22.44,22.44,0,0,1-1.39,4.81l1,.27a24.8,24.8,0,0,1,1.35-4.09c.25-.58-.61-1.09-.87-.5Z" transform="translate(29.87 -583.85)"/></svg>