<svg id="Laag_46" data-name="Laag 46" xmlns="http://www.w3.org/2000/svg" viewBox="0 0 47.66 57.97"><defs><style>.cls-1{fill:#9db0bf;}.cls-2{fill:#5a656d;}.cls-3{fill:#bad2e2;}</style></defs><title>destroyedcan</title><path class="cls-1" d="M40.05,230.39a67.87,67.87,0,0,0,11.1,4.28l-.89-2.2-1.69,3.7a1.52,1.52,0,0,0,1.3,2.26,16,16,0,0,0,4.44-.6l-1.46-2.51a14.63,14.63,0,0,0-3.06,5.2c-.34,1,.8,2.28,1.85,1.84a30,30,0,0,0,5.54-3l-2.2-.89c.76,2.26,1.73,9.37,5.42,8.94,1.68-.2,2.86-2.35,3.76-3.45l7.17-8.77c1.77-2.17,8.29-7.48,6.48-11a3,3,0,0,0-2.28-1.58c-.57-.1-1.49.38-2,.26-2-.54-1.63-2.09-1.62-4a1.52,1.52,0,0,0-2.8-.76,34.61,34.61,0,0,1-3.21,4.23l2.56,1.06a9.64,9.64,0,0,0-1.22-5.88,1.51,1.51,0,0,0-2.59,0c-.49,1-6.24-7.8-6.94-8.3-1.7-1.24-3.12-.73-4.78.38-6,4.09-10.9,11.33-14.51,17.51-.91,1.58,1.09,2.81,2.36,1.82l.94-.74c1.52-1.18-.61-3.29-2.12-2.12l-.94.74,2.35,1.82a65.15,65.15,0,0,1,8.82-12,22.33,22.33,0,0,1,3.64-3.57c3.64-2.13,4.11,1,5.72,3.52s5.62,7.25,8.05,2.43H64.69a5.84,5.84,0,0,1,.81,4.37,1.51,1.51,0,0,0,2.56,1.06,38.33,38.33,0,0,0,3.68-4.84L69,219c0,2.14-.77,5.48,1.32,6.87,1.79,1.19,4.58-1.14,3.12,2.18-1.55,3.51-5.89,7.21-8.37,10.23-.49.61-4.24,6-4.78,5.85-.85-.17-2.09-5.53-2.37-6.36a1.51,1.51,0,0,0-2.2-.9,26,26,0,0,1-4.83,2.65l1.85,1.85A8.57,8.57,0,0,1,55,237.45a1.51,1.51,0,0,0-1.46-2.51,8.81,8.81,0,0,1-3.64.49l1.29,2.26L52.85,234a1.53,1.53,0,0,0-.9-2.2,63.77,63.77,0,0,1-10.39-4c-1.73-.84-3.25,1.75-1.51,2.59Z" transform="translate(-32.37 -192.22)"/><path class="cls-1" d="M42.77,221.13c-3.13,1.86-3,4.78-2.14,8a1.51,1.51,0,0,0,2.89,0,22.07,22.07,0,0,0,1.54-8.58,1.5,1.5,0,0,0-3,0,23.43,23.43,0,0,0,.71,8.17,1.51,1.51,0,0,0,2.95-.4,66.82,66.82,0,0,0,0-9.06c-.13-1.92-3.11-1.94-3,0a62.23,62.23,0,0,0,2.06,13,1.52,1.52,0,0,0,2.51.66c1.2-1,1.32-2,1.51-3.44.48-3.66.13-7.65.2-11.35,0-1.94-2.88-1.91-3,0a41,41,0,0,0,1.28,13.24c.46,1.77,2.73,1.16,2.94-.4a113.21,113.21,0,0,0,1-14.95h-3c.05,5.62.27,11.1,2,16.49a1.5,1.5,0,0,0,2.94-.4q.74-7.71.86-15.46c0-1.93-2.94-1.92-3,0-.17,5.8-.16,11.46,1.67,17,.52,1.55,3,1.36,2.95-.4l-.25-13.89a1.5,1.5,0,0,0-3,0,77.45,77.45,0,0,0,.69,13.18c.42,2.9.39,6.08,2.84,7.93a1.5,1.5,0,0,0,2.25-1.29q-.27-10.86-1.19-21.69c-.14-1.61-2.48-2.12-3-.4a41,41,0,0,0-.88,17.42c.26,1.67,3,1.28,2.94-.4a31.19,31.19,0,0,0-1.6-8.21,1.52,1.52,0,0,0-2.9,0,14.51,14.51,0,0,0,1.84,13,1.51,1.51,0,0,0,2.79-.76L58,223.5H55a126.85,126.85,0,0,0,3.63,20c.46,1.57,3.07,1.35,2.95-.39l-1.47-20.6a1.5,1.5,0,0,0-3,0,59,59,0,0,0,2,20.77,1.5,1.5,0,0,0,2.94-.4,123.67,123.67,0,0,0-.95-21.33c-.24-1.86-2.94-2-3,0a55.57,55.57,0,0,0,2.76,19.24,1.51,1.51,0,0,0,2.89,0c1.31-5.43-.89-12.84-1.53-18.35-.22-1.89-3.22-1.91-3,0a121.65,121.65,0,0,0,3.35,17.64c.43,1.59,3.06,1.32,3-.4-.38-6.1-1.06-12.14-2-18.17-.27-1.65-3.13-1.29-3,.4a113.51,113.51,0,0,0,2.73,16.68,1.51,1.51,0,0,0,3-.4,83,83,0,0,0-.89-17.53c-.26-1.7-2.94-1.25-2.94.4a36.18,36.18,0,0,0,3.08,14.72c.63,1.45,2.77.61,2.8-.75a58.32,58.32,0,0,0-1.9-16.16c-.42-1.6-3.07-1.32-2.95.4a45.6,45.6,0,0,0,4.09,16c.77,1.7,3,.37,2.74-1.15l-2-14.52-2.89.79a72.09,72.09,0,0,0,3.88,13.17c.58,1.46,3,1.43,2.94-.4a60.13,60.13,0,0,0-1.62-11.86c-.46-1.91-3.19-1.06-2.89.8a62.08,62.08,0,0,0,1.93,8.41,1.51,1.51,0,0,0,3-.4,59.28,59.28,0,0,0-.14-6.11l-2.8.76c1,1.83.7,4.81,3.42,5.07a2.49,2.49,0,0,0,2.74-2l-2.9-.8c.12-.63-6.49-2.94-7.08-3.31-3-1.88-5.08-4.43-5.25-8.08L58,216.65a21.17,21.17,0,0,1,3.47,5c.77,1.52,3.21.46,2.74-1.16a13.36,13.36,0,0,0-6.62-8.35,1.52,1.52,0,0,0-2.25,1.3A15.84,15.84,0,0,0,57.76,223c.94,1.56,3,.45,2.74-1.15-.34-2.49-2-11.4-6.35-10.18-3.51,1-1.78,6.94-.55,8.93a1.51,1.51,0,0,0,1.7.69c3.36-1.34,2.86-7.21,0-9-4.13-2.5-6.16,2.09-4.92,5.42.66,1.79,3.56,1,2.89-.8-1.22-3.26,2,1.16,1.27,1.45l1.69.69c-.14-.23-2.47-6.54-.33-2.66a17.73,17.73,0,0,1,1.74,6.21l2.75-1.15a13.24,13.24,0,0,1-2-8.13l-2.26,1.29a10.34,10.34,0,0,1,5.24,6.56L64,220.09a23.62,23.62,0,0,0-3.94-5.57,1.52,1.52,0,0,0-2.56,1.06c.26,5.68,4,9.49,9,11.8,1.89.87,8.5,4.39,9.27.39a1.51,1.51,0,0,0-2.9-.8c.47-1.51,0-2.47-.67-3.76a1.51,1.51,0,0,0-2.79.76,59.28,59.28,0,0,1,.14,6.11l3-.4a60.31,60.31,0,0,1-1.94-8.41l-2.89.8a56.51,56.51,0,0,1,1.51,11.06l2.95-.4a73.36,73.36,0,0,1-3.88-13.16c-.37-1.93-3.15-1.07-2.89.79l2,14.53,2.74-1.16a41.08,41.08,0,0,1-3.68-14.45l-2.94.4A55.62,55.62,0,0,1,65.28,235l2.8-.76a32.62,32.62,0,0,1-2.68-13.21l-3,.4a79.36,79.36,0,0,1,.78,16.73l2.94-.4a109.12,109.12,0,0,1-2.62-15.88l-2.95.4Q62,231,62.51,239.69l2.95-.4a114.57,114.57,0,0,1-3.25-16.84h-3l1,8.72c.31,2.71,1.28,6.16.63,8.84h2.89a53.24,53.24,0,0,1-2.65-18.45h-3A123.67,123.67,0,0,1,59,242.89l3-.4a56.84,56.84,0,0,1-1.92-20h-3l1.47,20.6,2.94-.4A121.71,121.71,0,0,1,58,223.5a1.5,1.5,0,0,0-3,0l-1.72,14.69,2.8-.75a11.8,11.8,0,0,1-1.53-10.69h-2.9a28,28,0,0,1,1.5,7.42l3-.4A37.08,37.08,0,0,1,57,218l-3-.4q.91,10.83,1.19,21.69l2.26-1.3c-1.65-1.25-1.66-7.59-1.82-9.38a77.43,77.43,0,0,1-.22-9.14h-3l.25,13.89,3-.4c-1.75-5.3-1.74-10.7-1.57-16.22H51q-.13,7.76-.86,15.46l3-.4c-1.63-5.14-1.82-10.34-1.87-15.69a1.5,1.5,0,0,0-3,0,113.21,113.21,0,0,1-1,14.95l2.95-.4A38.91,38.91,0,0,1,49,218.17H46c0,2.19,1,11.19-.83,12.67l2.51.66a57.92,57.92,0,0,1-2-12.2h-3a66.81,66.81,0,0,1,0,9.06l3-.4a21.07,21.07,0,0,1-.61-7.37h-3a20.31,20.31,0,0,1-1.43,7.79h2.89l.76-4.66a1.5,1.5,0,0,0-1.51-2.59Z" transform="translate(-32.37 -192.22)"/><path class="cls-1" d="M39.31,226.76c-2.91-3.62-2-10.75-1.57-15.07.42-4,1.35-14,5.62-15.8L41.1,194.6a128.76,128.76,0,0,1-3,32.69c-.42,1.88,2.47,2.69,2.89.8A131.84,131.84,0,0,0,44.1,194.6a1.52,1.52,0,0,0-2.25-1.3c-5.25,2.23-6.27,11.8-6.91,16.66-.77,5.85-1.7,14,2.25,18.92,1.21,1.51,3.32-.62,2.12-2.12Z" transform="translate(-32.37 -192.22)"/><path class="cls-1" d="M40.9,197.6c-3.6,7.66-4.09,15.81-4.32,24.15h3c-.21-6.92,2.29-13.53,2.21-20.46a1.5,1.5,0,0,0-2.94-.4A51.21,51.21,0,0,0,36,224c.16,1.54,2.6,2.2,2.95.4a57.38,57.38,0,0,0,.89-15.53,1.5,1.5,0,0,0-3,0,151.56,151.56,0,0,0-.27,16.23,1.5,1.5,0,0,0,3,0,41.08,41.08,0,0,0-.35-10.68c-.28-1.8-2.77-1.13-2.94.4a32.17,32.17,0,0,0,1,12.65,1.51,1.51,0,0,0,3-.4,46.86,46.86,0,0,0,0-6.27c-.09-1.58-2.7-2.17-3-.4-.27,2-.81,4.31-.06,6.22a1.52,1.52,0,0,0,1.44,1.1l.32,0a1.54,1.54,0,0,0,1.44-1.1l.06-.26c.41-1.88-2.48-2.69-2.89-.8l-.06.26,1.45-1.1-.32,0,1.45,1.1a11.42,11.42,0,0,1,.07-4.62l-2.95-.4a46.86,46.86,0,0,1,0,6.27l2.95-.4a30,30,0,0,1-.95-11.85l-3,.4a38.47,38.47,0,0,1,.24,9.88h3a151.56,151.56,0,0,1,.27-16.23h-3a53.93,53.93,0,0,1-.78,14.73L39,224a49.42,49.42,0,0,1,2.71-22.35l-3-.4c.08,6.92-2.42,13.53-2.21,20.46a1.5,1.5,0,0,0,3,0c.21-7.75.55-15.5,3.91-22.64.82-1.73-1.77-3.26-2.59-1.51Z" transform="translate(-32.37 -192.22)"/><path class="cls-1" d="M39.1,208.59q-.21,7.82-1.2,15.58c-.25,1.91,2.76,1.89,3,0q1-7.77,1.2-15.58c0-1.93-3-1.93-3,0Z" transform="translate(-32.37 -192.22)"/><path class="cls-1" d="M65.41,233.93a25.3,25.3,0,0,1-2.11,4.35,1.5,1.5,0,0,0,2.59,1.51,28.26,28.26,0,0,0,2.41-5.06c.67-1.82-2.23-2.6-2.89-.8Z" transform="translate(-32.37 -192.22)"/><path class="cls-2" d="M39.22,227.87c-7-2.51-3.23-14.07-2.11-19.14.52-2.37,1.11-4.73,1.8-7.06.47-1.62,2.23-6.25,3.86-2.82.63,1.33,0,4.51,0,6,0,2.28-.11,4.56-.32,6.83A40.87,40.87,0,0,1,38.21,227c-.89,1.71,1.7,3.23,2.59,1.52,3.84-7.39,4.87-15.43,5-23.66.05-2.9,1.05-15.27-5.32-12.09C38,194,37,197.61,36.27,200A109.35,109.35,0,0,0,33,214.2c-1,6.29-1.81,14,5.4,16.56,1.82.66,2.6-2.24.8-2.89Z" transform="translate(-32.37 -192.22)"/><path class="cls-2" d="M44.49,220.65a28.13,28.13,0,0,1,4.17-6.3c.86-1,4.46-5,5.8-4.84s3.16,3.52,4,4.35c2.48,2.52,5.25,3.52,2,7.34-1.25,1.45.86,3.59,2.12,2.12,1.67-1.95,3.94-4.74,2.43-7.4-.86-1.5-2.69-2.49-3.9-3.67-1.57-1.52-2.68-4-4.45-5.22-2.29-1.54-4.23.14-6.16,1.61a30,30,0,0,0-8.55,10.49c-.87,1.72,1.72,3.24,2.59,1.52Z" transform="translate(-32.37 -192.22)"/><path class="cls-2" d="M38.21,230.4c2.66,1.45,5.52,3.59,8.45,4.41,2.73.78,3.52-1.31,5.56-2.46a1.5,1.5,0,0,0-1.52-2.59,17,17,0,0,0-1.79,1.46c-1.16.86-1.58.68-2.85,0-2.13-1.1-4.22-2.28-6.33-3.43-1.7-.92-3.22,1.67-1.52,2.59Z" transform="translate(-32.37 -192.22)"/><path class="cls-2" d="M47.22,233.43c-.77,2.07-3,5.75-.32,7.3a3.61,3.61,0,0,0,3.49-.13c1.47-.74,2.88-1.68,4.3-2.51a1.5,1.5,0,0,0-1.51-2.59l-2.31,1.36a8.94,8.94,0,0,1-2.28,1.26s-.13.38.13-.15c.17-.37.29-.79.43-1.17l1-2.57c.68-1.81-2.22-2.6-2.89-.8Z" transform="translate(-32.37 -192.22)"/><path class="cls-2" d="M48.17,239.87c.17,2.71,1.44,4.93,4.4,4.63,3.26-.34,5.92-2.38,8.24-4.54,1.42-1.32-.71-3.43-2.12-2.12a16.65,16.65,0,0,1-4,2.95,7.75,7.75,0,0,1-2.1.7c-1.24.2-1.37-.46-1.44-1.62-.13-1.92-3.13-1.93-3,0Z" transform="translate(-32.37 -192.22)"/><path class="cls-2" d="M54.78,242.74c1.08,3.72,2.65,9.45,7.28,6.75,2.09-1.21,3.53-3.37,4.83-5.34a80.06,80.06,0,0,1,7.35-9.68c2.15-2.41,8.57-8.06,4.43-11.36a5.53,5.53,0,0,0-2.08-.86c-2.29-.69-2.32-.77-3.11-3.07-.63-1.82-.46-2.75-2.19-3.91a1.44,1.44,0,0,0-1.51,0c-3.87,2.55-4,9-5,13.15-.47,1.87,2.42,2.67,2.89.79.65-2.61,1.1-5.4,2-8,1-2.93.37-1.18,1,.49,1.09,2.68,4.82,2.62,5.38,4.51.88,3-7.22,9.64-9.12,12.3-1.2,1.68-2.16,3.52-3.36,5.19-.49.69-2.07,3.09-3,3.15-1.78.12-2.54-3.81-2.87-5a1.51,1.51,0,0,0-2.9.8Z" transform="translate(-32.37 -192.22)"/><path class="cls-2" d="M71.39,222a9.76,9.76,0,0,1-.81,4.36,1.54,1.54,0,0,0,.54,2.05,1.51,1.51,0,0,0,2-.54A13.09,13.09,0,0,0,74.39,222c0-1.93-3-1.94-3,0Z" transform="translate(-32.37 -192.22)"/><path class="cls-2" d="M65.14,219.3a5.88,5.88,0,0,1,2.91-.22l-1-1a6.76,6.76,0,0,1,.27,2.57,1.5,1.5,0,0,0,3,0,9.14,9.14,0,0,0-.38-3.37,1.52,1.52,0,0,0-1.05-1.05,9.08,9.08,0,0,0-4.51.22c-1.83.58-1.05,3.48.8,2.89Z" transform="translate(-32.37 -192.22)"/><path class="cls-2" d="M56.1,230.22a16.43,16.43,0,0,0,3-3.12,1.51,1.51,0,0,0-.54-2,1.53,1.53,0,0,0-2.05.54A14,14,0,0,1,54,228.1a1.51,1.51,0,0,0,0,2.12,1.53,1.53,0,0,0,2.12,0Z" transform="translate(-32.37 -192.22)"/><path class="cls-2" d="M57.42,234.8a1.5,1.5,0,0,0,0-3,1.5,1.5,0,0,0,0,3Z" transform="translate(-32.37 -192.22)"/><path class="cls-2" d="M61.53,231.79l.13-.15a1.56,1.56,0,0,0,0-2.12,1.51,1.51,0,0,0-2.13,0l-.12.15a1.55,1.55,0,0,0,0,2.12,1.51,1.51,0,0,0,2.12,0Z" transform="translate(-32.37 -192.22)"/><path class="cls-2" d="M64.35,235.79a11.07,11.07,0,0,0,2.57-4.67,1.5,1.5,0,0,0-2.89-.8,7.73,7.73,0,0,1-1.81,3.35c-1.3,1.42.82,3.54,2.13,2.12Z" transform="translate(-32.37 -192.22)"/><path class="cls-2" d="M53.69,215.42a25.37,25.37,0,0,0,1,7,.5.5,0,0,0,1-.27,24.18,24.18,0,0,1-1-6.71.5.5,0,0,0-1,0Z" transform="translate(-32.37 -192.22)"/><path class="cls-2" d="M55,217.22a9.67,9.67,0,0,0,.82,4.35c.26.59,1.12.08.87-.5a8.61,8.61,0,0,1-.69-3.85c0-.64-1-.64-1,0Z" transform="translate(-32.37 -192.22)"/><path class="cls-2" d="M33.55,217.12l4.36,1.76c.6.24.86-.73.27-1l-4.37-1.75c-.59-.24-.85.72-.26,1Z" transform="translate(-32.37 -192.22)"/><path class="cls-2" d="M35.59,216.6a9.57,9.57,0,0,1,2.62.74c.58.26,1.09-.61.5-.87a11.23,11.23,0,0,0-3.12-.87c-.63-.08-.63.92,0,1Z" transform="translate(-32.37 -192.22)"/><path class="cls-2" d="M46,227.41l.74,1.87c.24.59,1.21.34,1-.26l-.75-1.87c-.23-.6-1.2-.34-1,.26Z" transform="translate(-32.37 -192.22)"/><path class="cls-2" d="M61.27,243.36a16.78,16.78,0,0,0,4.49-1c.6-.22.34-1.19-.27-1a15.59,15.59,0,0,1-4.22,1c-.63.06-.64,1.06,0,1Z" transform="translate(-32.37 -192.22)"/><path class="cls-2" d="M63.74,241.76l3.12-.6c.63-.12.37-1.09-.26-1l-3.13.61c-.63.12-.36,1.08.27,1Z" transform="translate(-32.37 -192.22)"/><path class="cls-1" d="M57.33,231c-2.56.32-2.57,3-1,4.54,1.92,1.86,4.44-.08,4.08-2.44a3,3,0,0,0-1.73-2.47,2.19,2.19,0,0,0-2.61,1.13,3,3,0,0,0-.26,2.75,2.12,2.12,0,0,0,3,.69c1.59-.94,2.93-3.88,1.82-5.59-1.46-2.27-4.57.1-3.29,2.32a2.93,2.93,0,0,0,5-.08c1-1.83-.49-4.8-2.79-3.74-2.61,1.22-.94,5,1.48,5.25a1.91,1.91,0,0,0,2-2A4.68,4.68,0,0,0,61.62,228c-1.35-1.38-3.47.74-2.12,2.12a1.65,1.65,0,0,1,.46.7c.22.66-.29.77.86.09.82-.16,1-.34.67-.55a1.44,1.44,0,0,0-1.76.06c.6-.37,0,1.32-.59,1.29l-1.06-.44c-.08-.34-.12-.35-.11,0a3,3,0,0,1-.17.65,2.34,2.34,0,0,1-.34.54c-.29.24-.22.28.23.1l.89.69c0,.45,0,.47.08.06-1-.4-1.4-.35-1.23.15s.36.35.91-.13c-.32-.48-.65-.24-1,.71a1.55,1.55,0,0,0,1.5-1.5,1.5,1.5,0,0,0-1.5-1.5Z" transform="translate(-32.37 -192.22)"/><path class="cls-2" d="M57.27,234.76a32.5,32.5,0,0,1,3.53-3.7c.48-.43-.23-1.14-.7-.71a31.65,31.65,0,0,0-3.53,3.7c-.41.49.3,1.2.7.71Z" transform="translate(-32.37 -192.22)"/><path class="cls-2" d="M63.34,228.92l2.53-4.49a.5.5,0,0,0-.87-.5l-2.52,4.48c-.32.56.55,1.07.86.51Z" transform="translate(-32.37 -192.22)"/><path class="cls-3" d="M41.28,199.06c.33-.07,0,5.4-.05,6l-.39,5.81c-.08,1.28,1.92,1.28,2,0,.24-3.61.89-7.45.72-11.06-.08-1.72-.94-3-2.81-2.64-1.26.27-.72,2.2.53,1.93Z" transform="translate(-32.37 -192.22)"/><path class="cls-3" d="M56.31,209.87,55,208.66c-.8-.71-2.27.24-1.57,1.21a54.88,54.88,0,0,0,7.33,8.34L60.56,217a16.79,16.79,0,0,0-1.35,3.77c-.29,1.25,1.64,1.78,1.93.53A15.26,15.26,0,0,1,62.28,218a1,1,0,0,0-.15-1.21,52.44,52.44,0,0,1-7-7.94l-1.57,1.22,1.35,1.2c1,.86,2.38-.55,1.42-1.41Z" transform="translate(-32.37 -192.22)"/><path class="cls-3" d="M65.27,219.17,65,221.26a1,1,0,0,0,1,1,1,1,0,0,0,1-1l.25-2.09a1,1,0,0,0-1-1,1,1,0,0,0-1,1Z" transform="translate(-32.37 -192.22)"/><path class="cls-3" d="M69.7,222c-.56,2.9-1.2,5.79-1.92,8.65a1,1,0,0,0,1.93.53q1.08-4.29,1.92-8.64c.24-1.26-1.68-1.8-1.93-.54Z" transform="translate(-32.37 -192.22)"/><path class="cls-3" d="M64.76,220.21a76.3,76.3,0,0,1-2.29,12,1,1,0,0,0,1.93.53,80.47,80.47,0,0,0,2.36-12.53c.13-1.27-1.87-1.26-2,0Z" transform="translate(-32.37 -192.22)"/><path class="cls-3" d="M74.63,226.77c.6.22-.95,2.12-1.12,2.37l-1.57,2.3c-.72,1.07,1,2.07,1.73,1,1.27-1.86,5.39-6.18,1.49-7.61-1.21-.44-1.73,1.49-.53,1.93Z" transform="translate(-32.37 -192.22)"/></svg>