<svg id="ducc" xmlns="http://www.w3.org/2000/svg" viewBox="0 0 56.43 65.22"><defs><style>.cls-1{fill:#fcc881;}.cls-2{fill:#e86e49;}.cls-3{fill:#bc8b50;}.cls-4{fill:#934016;}.cls-5{fill:#754c24;}.cls-6{fill:#ffe4c0;}</style></defs><title>duckie</title><path class="cls-1" d="M723.57,429c10,8.66,23,5.39,33-1.58l-5.27-3c-.06,10.15-3.17,22-14.27,24.94s-22.4-4.82-26.45-15.13a13.35,13.35,0,0,1-1.09-6.41c.47-3.69,3.31-4.58,6.43-5.67,3.88-1.34,7.37-3.18,9.94-6.49,5.06-6.54,3.91-16-3.41-20.29v6c5.19-3.26,6.3,8.06,5.69,10.85-.89,4.1-3.8,6.66-6.45,9.71-3.94,4.55-6,9.66-3.4,15.41,1.84,4.1,7.87.54,6-3.54-2.24-5,6.39-10.63,8.57-14.53a20.42,20.42,0,0,0,2.28-12.78c-1.09-7.54-8.13-16.28-16.27-11.16a3.54,3.54,0,0,0,0,6,6.35,6.35,0,0,1,2.44,8.42c-1.58,3.31-4.84,4.65-8.06,5.82-4.69,1.72-8.78,3.79-10.29,8.91-2.93,9.92,4.72,21.12,12.31,26.75,8.76,6.5,21.28,7.86,30.62,1.68s12.31-17.92,12.37-28.57c0-2.49-3-4.58-5.27-3-7,4.93-17,9.18-24.48,2.67-3.39-2.94-8.36,2-4.95,4.95Z" transform="translate(-701.95 -392.11)"/><path class="cls-1" d="M731.65,401.81l-2.89-4.71c-2.37-3.85-8.14-.45-6,3.54a17.52,17.52,0,0,1-2.05,19.54l5.85,3.4,5.27-14.73c1.34-3.73-4.58-6.2-6.39-2.7Q720,416.64,715.19,427.4a3.5,3.5,0,0,0,6,3.53,84.78,84.78,0,0,0,8.17-14.66c1.46-3.37-2.56-7.41-5.5-4.25a151.23,151.23,0,0,1-14,13.28c-3.16,2.64.87,7.28,4.24,5.49a21.39,21.39,0,0,0,9.43-9.68,3.54,3.54,0,0,0-4-5.14,24.62,24.62,0,0,0-13.49,8.4,3.52,3.52,0,0,0,4.24,5.5,24.62,24.62,0,0,0,10.7-9.32c1.87-2.86-1.21-5.52-4-5.14-5.69.78-12.5,5-13.34,11.24-1,7.05,6.11,8.15,11.22,6.12,3.71-1.46,10.58-6.61,5.37-10.71-4.79-3.76-11.71,2.37-13.66,6.53-6.62,14.16,22,7.59,15.88-2.8-5.82-9.92-23,7.16-10.49,14.63,4.43,2.64,11.15,1.53,13.4-3.47s-2.12-10.62-7.41-10.69c-12.58-.18-11.53,22.4,3,18.59,5.55-1.46,9.81-6.91,8.34-12.75-1.32-5.24-7-9-12.14-6.34a8,8,0,0,0-1.47,13.61c4.37,3.38,12.2,4.12,14.86-1.65,2.43-5.28-2.09-14.37-8.17-15.05-6.77-.76-8.11,8.42-5.69,13,3.2,6,12.61,7.64,16.9,1.89,5.13-6.86-4.38-12-10-12.92a3.57,3.57,0,0,0-4.43,3.38c-.24,4.46,4.56,5.85,8,7a50.11,50.11,0,0,0,17.12,2.25,3.51,3.51,0,0,0,.93-6.87c-4-1.24-25-6.88-23.23,2.81.76,4.11,5.92,4.65,9.27,5A36.39,36.39,0,0,0,747.93,436c3.84-1.4,3-6.42-.93-6.88a39.14,39.14,0,0,0-20.8,3.28c-3.54,1.62-12.06,5.51-9.47,10.82,2.69,5.51,12.72,2.61,17.17,1.6,3.86-.88,15.26-2.78,13.46-9-1.69-5.88-11.49-3.82-15.64-2.94-4.43.94-15.55,3.91-16,9.58-.47,6.19,9.79,6.49,13.81,6.57,4.6.09,15.05,0,15.85-6.24.88-6.87-8.62-8.88-13.59-8.55a21.29,21.29,0,0,0-16.75,10.18,3.54,3.54,0,0,0,2.09,5.14,26.26,26.26,0,0,0,19.45-.34c4.44-1.9,9-7,3.13-10.72-5.47-3.48-15.7-4.3-21.9-3.05-5.79,1.17-8.32,6.38-3.93,11,4.75,5,13,5.72,19.49,5.48,5.2-.19,12.65-.93,13.92-7.21,1.2-5.92-4.47-8.6-9.47-7.76-6.64,1.11-12.16,5.84-15.32,11.61a3.53,3.53,0,0,0,2.09,5.14c12.27,2.8,29-7.62,26.93-21.29-.58-3.82-5.65-2.79-6.75,0-1.86,4.72-4.19,10.46-9.44,12.13l3.4,5.85c5.72-5.41,16.28-13.89,15.6-22.62a3.51,3.51,0,0,0-6.87-.93,30.54,30.54,0,0,1-8,12.39c-3.32,3.18,1.52,7.72,4.94,4.95,5.58-4.52,10.67-9.74,10.16-17.44a3.52,3.52,0,0,0-6.88-.93c-1.11,3.27-.94,17.16-6.33,16.35l.84,6.4a56.74,56.74,0,0,0,13-13.1c2.2-3.08-1.95-6.22-4.79-4.79-2.61,1.31-3.91,3.38-5.26,5.87a18.59,18.59,0,0,1-8.26,8.33c-4,2.05-.47,8.09,3.54,6a23.83,23.83,0,0,0,8-6.35c1.87-2.35,2.83-6.47,5.56-7.85l-4.79-4.78a46.06,46.06,0,0,1-10.54,10.59c-2.11,1.52-2.46,5.9.84,6.39a10.37,10.37,0,0,0,10.7-4.65c3.41-5,2.38-11.11,4.24-16.59l-6.87-.93c.37,5.69-4.08,9.22-8.1,12.49l4.94,4.95a38,38,0,0,0,9.77-15.48l-6.88-.93c.32,4.08-3.75,7.45-6.24,10.23-2.33,2.59-4.78,5.05-7.31,7.44s.08,6.91,3.41,5.85c7.93-2.53,11.47-9.76,14.33-17h-6.75c1.22,8.1-11.82,14.16-18.32,12.68l2.1,5.14c2.55-4.68,5.77-6.37,10.51-8.29.51.3.41.46-.29.46a12.33,12.33,0,0,1-2.7.48,36.87,36.87,0,0,1-7.2.11,30.2,30.2,0,0,1-7.71-1.7c-1.48-.51-4.89-.59-.58-1a34.09,34.09,0,0,1,8.26.34c.76.12,6.63,1,6.8,1.69l.35-2.69c-1,1.91-5.69,2.49-7.69,2.69A20.56,20.56,0,0,1,719,442.8l2.09,5.14a13.82,13.82,0,0,1,7.7-6.07c1.85-.6,9.19-1.87,9.79,1.37l.35-2.69c-1.14,2.54-15.17,2-17.12.22l1,2.47-.1-.79-1,2.47c2.33-2.49,6.3-3.8,9.49-4.72,1.56-.45,8.9-2.62,10.31-1l-1-2.48-.06.77,1.74-3c-2.8,2.06-6.79,2.85-10.13,3.61a52.33,52.33,0,0,1-6,1l-1.74.15q-2.73-.62-1.19.92l-.36,2.7c1.55-3.06,8.28-5.07,11.24-5.89a33.82,33.82,0,0,1,13-.82l-.93-6.87a31.46,31.46,0,0,1-8.77,2c-2.26.15-7.52.68-9.17-1.11l1,2.47.11-.85-1.74,3c1.46-.87,6.38.15,7.85.34a49.13,49.13,0,0,1,8.21,1.9l.93-6.88a44.47,44.47,0,0,1-10.24-.7c-2.48-.48-7.31-1.13-9-3.18l1,2.47,0-.82-4.43,3.37c1.28.22,5.53.76,5.86,2.34h-3.47l-1.53-1.91-.12-1.86-.12.67c2.25,1.47,2.82,5-.72,4.08-.4-.1,1.71-3,.86.59a4.49,4.49,0,0,1-3.6,2.87c-1.33,0-3.11-1.12-2.77-2.71.16-.75,2.55-2.54,2.41-1.51-.25,1.91-4.47.63-3.74-2,.43-1.56,2.55-1.27.86-2.47-.89-.62-2.86-.22-3.81.44-1.34-.1-1.39.31-.14,1.23.6,1.44,1.09,1.46,1.47.05.54-.4,2.76-3,2.31-3.77l-.35-2.7c0-.09-2.88,1.61-3.64,1.9-2.16.86-1.15.53-.08-.53a11.61,11.61,0,0,1,7.38-3.87l-4-5.15a18.11,18.11,0,0,1-8.19,6.81l4.24,5.5a18.56,18.56,0,0,1,10.4-6.6l-4-5.14a15.14,15.14,0,0,1-6.92,7.17l4.24,5.5a151.23,151.23,0,0,0,14-13.28l-5.49-4.24a85.16,85.16,0,0,1-8.17,14.67l6,3.53q4.78-10.77,10.21-21.24L725,407l-5.27,14.73c-1.15,3.24,3.62,6,5.85,3.41a24.8,24.8,0,0,0,3.14-28l-6,3.54,2.88,4.7c2.36,3.83,8.41.32,6-3.53Z" transform="translate(-701.95 -392.11)"/><path class="cls-1" d="M724,396c-3.91-1.64-9.25-.3-9.59,4.65a5.38,5.38,0,0,0,2.26,4.85c1.37.94,6.33.85,6.78,2.06l6.39-2.69c-2.89-5.26-9.61-10.07-14.68-4.25-1.64,1.87-1.19,5.23,1.54,5.85,1.46.33,6.09.11,6.31,2.15l6.88-.93-1.21-6.74c-.7-3.92-6.94-3-6.87.93a28,28,0,0,1-9,21.37c-3.27,3.11,1.68,8.05,4.95,4.95a35,35,0,0,0,11-26.32l-6.88.93,1.21,6.74c.69,3.84,7.3,3,6.87-.93-.3-2.82-1.15-5.16-3.44-7-2.58-2-5.05-1.27-8-1.94l1.55,5.85a4.16,4.16,0,0,1,3.69,2.83c1.87,3.4,7.77,1.09,6.4-2.7a7.77,7.77,0,0,0-3.68-4.68,9.62,9.62,0,0,0-2.82-1l-.93-.12q-3.12-1.06-.63,2.87c4.15,1.74,6-5,1.86-6.75Z" transform="translate(-701.95 -392.11)"/><path class="cls-2" d="M717.93,398.45c.76.06-.7-.32-.08,0l-.56-.32c.41.25,0,0-.15-.18-.39-.34.22.39-.07,0a4.48,4.48,0,0,1-.32-.56c-.24-.44.1.44,0-.05,0-.17-.09-.84,0-.18a3.6,3.6,0,0,0-2.57-3.37,3.53,3.53,0,0,0-4,1.6,7.45,7.45,0,0,0,7,11.19,3.6,3.6,0,0,0,3.5-3.5,3.53,3.53,0,0,0-3.5-3.5,5.15,5.15,0,0,1-.68,0c.42,0,.12.09-.06-.05.3.23.05.06-.09-.07.42.38-.24-.29,0,0s-.21-.47-.09-.15-.06-.55,0-.17.12-.53,0-.17.32-.59.05-.07l-6.52-1.77a8.79,8.79,0,0,0,8.23,8.33,3.52,3.52,0,0,0,3.5-3.5,3.57,3.57,0,0,0-3.5-3.5Z" transform="translate(-701.95 -392.11)"/><path class="cls-1" d="M706.46,436.16l2.21,3.81,5.49-4.24a5.66,5.66,0,0,1-.43-.42c.33.35.11.07-.05-.17s0,.37,0,0-.11-.51-.14-.75l-6.75,1.86a9.53,9.53,0,0,0,5,6.08,3.59,3.59,0,0,0,4.79-1.26c.81-1.54.51-4-1.26-4.79a7.35,7.35,0,0,1-1-.55c.67.44-.22-.25-.35-.4s-.25-.28,0,0c-.1-.16-.2-.32-.29-.49-.18-.36-.17-.34,0,.06a5,5,0,0,1-.16-.55,3.56,3.56,0,0,0-4.31-2.44,3.61,3.61,0,0,0-2.44,4.3,7.61,7.61,0,0,0,2.41,4.44,3.5,3.5,0,0,0,5.5-4.24l-2.21-3.82a3.5,3.5,0,0,0-6,3.54Z" transform="translate(-701.95 -392.11)"/><path class="cls-1" d="M721.46,400.38c.11-.1.89-.66.92-.67-.2,0,.16.33.13.25a16.67,16.67,0,0,1,.48,1.67c1.06,4.38,7.82,2.52,6.75-1.86-.67-2.72-1.89-5.35-4.64-6.46-3.13-1.27-6.19,0-8.59,2.12a3.53,3.53,0,0,0,0,4.95,3.57,3.57,0,0,0,5,0Z" transform="translate(-701.95 -392.11)"/><path class="cls-1" d="M717.86,395.81l-1.75,1.8a1,1,0,0,0,1.41,1.41,8.48,8.48,0,0,0,1.66-2.23,1,1,0,0,0-1.73-1l-1.76,2.42,1.73,1c1.15-2.72,4.69-4.72,7.33-2.58,2.34,1.89,3.22,5.47,3.31,8.33.05,1.29,2.05,1.29,2,0-.12-3.79-1.58-9.2-5.51-10.78-3.48-1.39-7.45.7-8.86,4a1,1,0,0,0,1.73,1l1.76-2.42-1.73-1a6.91,6.91,0,0,1-1.34,1.83l1.41,1.41,1.75-1.79c.9-.92-.51-2.34-1.41-1.42Z" transform="translate(-701.95 -392.11)"/><path class="cls-1" d="M723.51,404.34A25,25,0,0,1,721.83,415c-.46,1.2,1.47,1.72,1.93.53a26.32,26.32,0,0,0,1.75-11.14c-.08-1.27-2.08-1.28-2,0Z" transform="translate(-701.95 -392.11)"/><path class="cls-1" d="M723.56,405.73a60.85,60.85,0,0,1-5.95,11.85c-.7,1.08,1,2.09,1.72,1a63.6,63.6,0,0,0,6.16-12.32c.45-1.21-1.48-1.73-1.93-.54Z" transform="translate(-701.95 -392.11)"/><path class="cls-2" d="M716.79,401.81a10.13,10.13,0,0,0,4.92.27l-1.23-.7c.06.19-1.3,1.24-1.49,1.36a5.69,5.69,0,0,1-1.94.76l.53,1.93a9,9,0,0,0,3.95-2.84,1,1,0,0,0-1.41-1.41,5,5,0,0,1-2.37,1.21l1,1.67a21,21,0,0,1,3-2.07,1,1,0,0,0,0-1.73c-.85-.37-2-.17-2.7-.63l-.51,1.86a2.46,2.46,0,0,1,1.51.45l.51-1.86a11,11,0,0,1-5.14-1.33c-1.14-.61-2.15,1.12-1,1.73a13.31,13.31,0,0,0,6.15,1.6,1,1,0,0,0,.5-1.87,4.17,4.17,0,0,0-2.52-.72,1,1,0,0,0-.5,1.87c.88.53,1.82.24,2.7.63v-1.73a24.25,24.25,0,0,0-3.38,2.39c-.85.71.1,1.82,1,1.67a7.09,7.09,0,0,0,3.25-1.73l-1.41-1.41a7.24,7.24,0,0,1-3.07,2.32,1,1,0,0,0,.53,1.93c1.76-.37,5.48-2.28,4.83-4.58a1,1,0,0,0-1.23-.7,8,8,0,0,1-3.86-.26c-1.23-.38-1.76,1.55-.53,1.92Z" transform="translate(-701.95 -392.11)"/><path class="cls-2" d="M713.85,400.56c2.37.34,4.72.74,7.08,1.11,1.26.2,1.8-1.73.53-1.93-2.35-.37-4.71-.77-7.08-1.1-1.25-.18-1.8,1.74-.53,1.92Z" transform="translate(-701.95 -392.11)"/><path class="cls-2" d="M720.86,400.1l-1,1a1,1,0,0,0,1.42,1.42l1-1a1,1,0,0,0-1.42-1.41Z" transform="translate(-701.95 -392.11)"/><path class="cls-1" d="M742.17,449.39c-1.39-.81-3.44.51-4.75,1l.77,1.82c1.33-.78,2.67-1.55,4-2.29,1.16-.64.14-2.22-1-1.73a28.31,28.31,0,0,0-3.06,1.55,1,1,0,0,0,1,1.73,18.12,18.12,0,0,0,2.14-1.43,1,1,0,0,0-1-1.72q-2.13,1.13-4.25,2.29c-1.12.62-.11,2.35,1,1.73q2.12-1.17,4.25-2.3l-1-1.72a19.36,19.36,0,0,1-2.14,1.42l1,1.73a27.3,27.3,0,0,1,3.05-1.55l-1-1.73c-1.36.75-2.7,1.51-4,2.3-.94.55-.32,2.24.77,1.82l1.83-.7c.24-.09,1.19-.61,1.38-.51a1,1,0,0,0,1-1.73Z" transform="translate(-701.95 -392.11)"/><path class="cls-1" d="M720.11,397.29c4.32-3.34,8.12.33,9,4.55a17.12,17.12,0,0,1-.8,9.05c-.42,1.22,1.51,1.74,1.93.53,1.53-4.41,2-10.56-1-14.55-2.64-3.55-7.25-3.53-10.53-1-1,.78.41,2.19,1.42,1.41Z" transform="translate(-701.95 -392.11)"/><path class="cls-3" d="M727.13,425.2c3.76,3.66,8,4.5,13.13,3.77a31.2,31.2,0,0,0,8.09-2.31c3-1.31,6.15-5.7,8-.58,1.06,3-.48,7.29-1.19,10.16a30.75,30.75,0,0,1-3.84,9.2c-3.78,5.93-11,10.61-18.16,10-6.46-.52-12.52-2.26-17.69-6.24S704.58,437.47,704,430.79a14.45,14.45,0,0,1,2.1-8.55c2.55-4.14,7.25-4.1,11.18-6.15,4.21-2.19,5.42-6,5.72-10.44.08-1.28-1.92-1.28-2,0-.41,6.16-3.43,8.19-8.74,10.14-2.11.77-4.25,1.46-5.93,3-3,2.77-4.47,7.44-4.34,11.44.3,9.1,9.09,20.39,17.3,23.92,9,3.85,18.23,4.77,26.76-.51,8.3-5.14,12.57-16.68,12.35-26.08-.07-2.91-.74-8.34-4.83-6.48-1.65.74-3.09,2.34-4.78,3.18a28.44,28.44,0,0,1-6.39,2.27c-5.12,1.14-9.86,1.1-13.83-2.76-.92-.89-2.34.52-1.41,1.42Z" transform="translate(-701.95 -392.11)"/><path class="cls-3" d="M718.25,412.64c-3.58,1.64-7.48,3-10.86,5.07a8.61,8.61,0,0,0-4.07,5.57c-.27,1.25,1.65,1.79,1.92.53.67-3.12,3.16-4.46,5.83-5.69l8.19-3.76c1.17-.53.15-2.25-1-1.72Z" transform="translate(-701.95 -392.11)"/><path class="cls-3" d="M729.13,424.66c7.07-7.92,9.35-17.88,2.89-26.92-2.17-3-5.82-6-9.78-5.59-3.4.36-6.6,2.72-7.09,6.19-.17,1.25,1.75,1.8,1.93.53.62-4.4,6-5.67,9.39-3.66,3.13,1.83,5.27,5.3,6.56,8.61,2.74,7-.61,14.15-5.31,19.43-.86,1,.55,2.38,1.41,1.41Z" transform="translate(-701.95 -392.11)"/><path class="cls-3" d="M721.69,405.42l-1.28-.16-.27,0h.09l-1.12-.13a1,1,0,0,0-1,1,1,1,0,0,0,1,1l.66.07c.33,0-.23,0,0,0l2,.25a1,1,0,0,0,0-2Z" transform="translate(-701.95 -392.11)"/><path class="cls-4" d="M717.08,398.87a4.62,4.62,0,0,0-.67-3.25c-.43-.79-1.06-2.3-1.83-2.83-1.67-1.16-4.19,1-4.89,2.4-1.07,2.16-1.55,5.07-.5,7.33,1.6,3.46,5.24,4.62,8.74,4.48,1.28-.05,1.29-2.05,0-2-2.64.1-5.26-.52-6.74-3a6,6,0,0,1-.16-4.8,5.31,5.31,0,0,1,.69-1.65s1.57-1.33,1.53-1.34c.72.27,2,3.48,1.9,4.09-.25,1.25,1.68,1.79,1.93.53Z" transform="translate(-701.95 -392.11)"/><path class="cls-3" d="M725.16,429.94a59.27,59.27,0,0,0,15.71,5.39l-.6-1.47c-1.91,4.4-5.57,7.48-10.65,6.56-.78-.14-1.66.68-1.13,1.47,2.25,3.35-6.75,2.56-7.32,2.4-1.56-.44-5.23-1.9-5.64-3.79l-1,1.27-.88-.9c-.07,1.29,1.93,1.29,2,0v-.09a1,1,0,0,0-1-1h-.13a1,1,0,0,0-1,1.26c1.73,8,21.11,6.52,16.62-.15l-1.13,1.47c6,1.08,10.56-2,12.9-7.48a1,1,0,0,0-.59-1.47,57.35,57.35,0,0,1-15.23-5.18c-1.15-.58-2.16,1.14-1,1.72Z" transform="translate(-701.95 -392.11)"/><path class="cls-5" d="M721.91,398.3c.39-.19.81-.37,1.2-.08a.85.85,0,0,1,.26,1c-.39,1.23,1.54,1.76,1.93.53a2.86,2.86,0,0,0-1-3.18,3.16,3.16,0,0,0-3.37,0c-1.15.57-.14,2.3,1,1.73Z" transform="translate(-701.95 -392.11)"/><path class="cls-6" d="M754,425.63a69.12,69.12,0,0,1-3.84,15c-.45,1.21,1.48,1.73,1.93.53a69.55,69.55,0,0,0,3.84-15c.18-1.26-1.75-1.8-1.93-.53Z" transform="translate(-701.95 -392.11)"/><path class="cls-6" d="M749,442.77l-.19.29a1,1,0,0,0,.36,1.36,1,1,0,0,0,1.36-.36l.2-.28a1,1,0,1,0-1.73-1Z" transform="translate(-701.95 -392.11)"/><path class="cls-6" d="M747.35,445.37a12.26,12.26,0,0,1-4.76,4.19c-1.15.58-.13,2.31,1,1.73a14.24,14.24,0,0,0,5.48-4.91c.71-1.08-1-2.09-1.73-1Z" transform="translate(-701.95 -392.11)"/><path class="cls-6" d="M737.88,435a5.6,5.6,0,0,1-3.37,2.66,1,1,0,0,0,.53,1.92A7.58,7.58,0,0,0,739.6,436a1,1,0,0,0-1.72-1Z" transform="translate(-701.95 -392.11)"/><path class="cls-6" d="M732.61,440.37a1,1,0,0,0,0-2,1,1,0,0,0,0,2Z" transform="translate(-701.95 -392.11)"/><path class="cls-6" d="M730.17,438.65a2.53,2.53,0,0,1-1-.08,1,1,0,0,0-.53,1.93,4.89,4.89,0,0,0,2.05.08,1,1,0,0,0,.7-1.23,1,1,0,0,0-1.23-.7Z" transform="translate(-701.95 -392.11)"/><path class="cls-6" d="M727,442.11a5,5,0,0,1-2.91.59c-1.28-.11-1.28,1.89,0,2a7,7,0,0,0,3.92-.86c1.12-.62.12-2.35-1-1.73Z" transform="translate(-701.95 -392.11)"/><path class="cls-6" d="M721.56,444.19a1,1,0,0,0,0-2,1,1,0,0,0,0,2Z" transform="translate(-701.95 -392.11)"/><path class="cls-6" d="M719.61,441.48c-1.13-.51-2.65-1.12-3.11-2.38s-2.38-.68-1.93.53c.68,1.85,2.32,2.8,4,3.57,1.17.53,2.19-1.2,1-1.72Z" transform="translate(-701.95 -392.11)"/><path class="cls-6" d="M729,400.72a18.68,18.68,0,0,1,2.6,7.55c.15,1.26,2.15,1.27,2,0a21,21,0,0,0-2.87-8.56,1,1,0,0,0-1.73,1Z" transform="translate(-701.95 -392.11)"/><path class="cls-6" d="M732.43,411a1,1,0,0,0,0-2,1,1,0,0,0,0,2Z" transform="translate(-701.95 -392.11)"/><path class="cls-6" d="M731.31,411.43a19.41,19.41,0,0,1-2.72,7.13c-.69,1.1,1,2.1,1.73,1a21,21,0,0,0,2.92-7.6c.22-1.26-1.71-1.8-1.93-.54Z" transform="translate(-701.95 -392.11)"/></svg>