<svg id="flower" xmlns="http://www.w3.org/2000/svg" viewBox="0 0 89.63 165.18"><defs><style>.cls-1{fill:#ad4323;stroke:#492e18;stroke-miterlimit:10;stroke-width:6px;}.cls-2{fill:#f4917a;}.cls-3{fill:#459b5f;}.cls-4{fill:#79c68d;}.cls-5{fill:#ffbdfc;}.cls-6{fill:#ff81fc;}.cls-7{fill:#ffc772;}</style></defs><title>flower</title><path class="cls-1" d="M263.63,801.59l-30.72-1.35a8.74,8.74,0,0,1-8.75-8.74l-11.71-55.11a8.75,8.75,0,0,1,8.75-8.75h55.1a8.75,8.75,0,0,1,8.75,8.75l-12.68,56.45A8.74,8.74,0,0,1,263.63,801.59Z" transform="translate(-209.45 -639.41)"/><path class="cls-2" d="M274,741.48l-4.24,16c-.83,3.11,4,4.44,4.82,1.32l4.24-16c.83-3.11-4-4.44-4.82-1.33Z" transform="translate(-209.45 -639.41)"/><path class="cls-2" d="M267.41,766.35v.39a2.5,2.5,0,0,0,5,0v-.39a2.5,2.5,0,0,0-5,0Z" transform="translate(-209.45 -639.41)"/><path class="cls-2" d="M265.55,775.47q-1,6.88-2.18,13.72c-.56,3.15,4.26,4.5,4.82,1.33q1.21-6.84,2.18-13.72c.44-3.15-4.38-4.51-4.82-1.33Z" transform="translate(-209.45 -639.41)"/><path class="cls-3" d="M251.75,722.19c-.63-15.11,1.07-31.1,12.62-42.06,2.33-2.22-1.21-5.75-3.54-3.54-12.51,11.88-14.77,29.17-14.08,45.6.14,3.2,5.14,3.22,5,0Z" transform="translate(-209.45 -639.41)"/><path class="cls-3" d="M253.33,692.28c-5.17-7.58-13.43-10.26-22-12.43a2.53,2.53,0,0,0-3.07,3.08c1.26,7.22,2.69,14.64,7.19,20.63,2.62,3.48,6.78,7.91,11.42,5.91,3-1.27.41-5.58-2.52-4.32-2.43,1.05-7.26-8.4-8-10.13-1.74-4.29-2.51-8.88-3.31-13.42l-3.07,3.08c7.08,1.8,14.61,3.74,19,10.12,1.8,2.65,6.14.15,4.32-2.52Z" transform="translate(-209.45 -639.41)"/><path class="cls-4" d="M241.1,691.55v-.16a2.52,2.52,0,0,0-1.83-2.41l-.2,0c-1.19-.2-2.87.31-3.07,1.75-.65,4.61,3.25,9.91,6.19,13.11,1.9,2.09,5.46-.63,3.92-3l-4-6.31c-1.27-2-4.76-1.33-4.66,1.26a11.76,11.76,0,0,0,6.4,10.27c2.09,1.08,4.87-1.21,3.42-3.42a21,21,0,0,0-2.49-3.14c-1.93-2-5.56.64-3.93,3a16,16,0,0,0,2.7,3.1,2.53,2.53,0,0,0,4.26-1.77c.2-2.21,1.59-4.09,1.86-6.3a7.74,7.74,0,0,0-1.78-5.9,19.78,19.78,0,0,0-12.11-6.88,2.54,2.54,0,0,0-2.83,3.67,131.38,131.38,0,0,0,7.53,12.6,2.5,2.5,0,0,0,4.31-2.52,49.27,49.27,0,0,0-6.27-9.28c-1.66-2-4.82.14-4.17,2.43a27.83,27.83,0,0,0,6.08,11.11c2,2.21,5.18-.61,3.92-3L238.79,689c-1.28-2.47-5.59-.75-4.57,1.93a28,28,0,0,0,8.1,11.66,2.54,2.54,0,0,0,4.18-1.1c1.44-3.89-1.37-6.2-2.66-9.57-1.14-3-6-1.69-4.82,1.33a20.15,20.15,0,0,0,4.16,6.77c2.19,2.36,5.72-1.18,3.54-3.54a13.63,13.63,0,0,1-2.88-4.56L239,693.25c.74,1.94,3.42,4.85,2.66,6.91l4.17-1.11A23.07,23.07,0,0,1,239,689.6l-4.57,1.93L240,702.21l3.92-3a22.28,22.28,0,0,1-4.79-8.9L235,692.72a43.93,43.93,0,0,1,5.49,8.26l4.31-2.52a130.23,130.23,0,0,1-7.52-12.61l-2.82,3.68c3.4.61,7.43,2.13,9.47,5.12,1.82,2.67-.84,6.16-1.11,9.14L247,702a10.78,10.78,0,0,1-1.91-2.08l-3.93,3a8.57,8.57,0,0,1,1.71,2.12l3.42-3.42a6.73,6.73,0,0,1-3.92-5.95L237.76,697l4,6.32,3.92-3a21.43,21.43,0,0,1-3.08-4.25c-.46-.83-1.93-3.2-1.82-4l-3.08,1.75.2,0-1.84-2.41v.16c0,3.21,5,3.22,5,0Z" transform="translate(-209.45 -639.41)"/><path class="cls-4" d="M234.49,686.82c-3.57,6.35,4.77,14.44,9.15,18.2,2.43,2.08,6-1.44,3.53-3.54a37.24,37.24,0,0,1-5.24-5.41c-1-1.35-4.17-4.87-3.13-6.73,1.58-2.81-2.74-5.33-4.31-2.52Z" transform="translate(-209.45 -639.41)"/><path class="cls-4" d="M234.58,685.05c-5.21,2.67,1.26,11.76,3.5,14.47,1.83,2.23,5.33-.63,3.92-3a56.75,56.75,0,0,1-3.82-7.74,2.5,2.5,0,0,0-4.82,1.33,21.06,21.06,0,0,0,11.79,15.48c2.9,1.36,5.44-2.95,2.52-4.32a16.52,16.52,0,0,1-9.49-12.49l-4.82,1.33a64.6,64.6,0,0,0,4.33,8.94l3.92-3c-1.26-1.54-4.5-5.7-3.83-7.87l-1.15,1.49.48-.24c2.86-1.47.33-5.79-2.53-4.32Z" transform="translate(-209.45 -639.41)"/><path class="cls-4" d="M245.53,697.09a19.68,19.68,0,0,1-.7,5.11l4.91.66a22.33,22.33,0,0,1,.17-5.23,2.5,2.5,0,0,0-4.82-1.33l-.15.55c-.87,3.1,3.95,4.42,4.82,1.33l.15-.55-4.82-1.33a28.28,28.28,0,0,0-.35,6.56c.19,2.72,4.13,3.51,4.91.67a25.06,25.06,0,0,0,.88-6.44c0-3.22-5-3.22-5,0Z" transform="translate(-209.45 -639.41)"/><path class="cls-3" d="M252.57,686.3a67.16,67.16,0,0,0-5.45,28c.07,3.21,5.07,3.23,5,0a61.18,61.18,0,0,1,4.77-25.48c1.24-2.93-3.07-5.48-4.32-2.52Z" transform="translate(-209.45 -639.41)"/><path class="cls-5" d="M269.39,663c-6.83-2.09-17.33-1.62-20.43,6.26-3.69,9.39,10.75,8.87,15.87,9.26l-2.5-2.5c.47,5.91,2,13.8,9,15s11.77-5.74,9.56-12.07l-3.67,2.83c5.59,4,13.9,3.19,18.27-2.3,6-7.48-1.13-13.38-8.06-15.67v4.83c8.32-1.36,12.42-11.34,6.35-17.72-7.38-7.75-15.46.1-18.29,7.57h4.82c-2.57-6.54-10.06-20.93-18.61-12.2-8.07,8.24,2.6,18.68,9.09,23.45,2.6,1.91,5.09-2.43,2.52-4.32-3.64-2.68-9.62-7.27-9.39-12.32q.45-5.6,6.07-3a19.71,19.71,0,0,1,2.23,3.07,39.25,39.25,0,0,1,3.27,6.63,2.52,2.52,0,0,0,4.82,0c1.33-3.5,4.39-8.93,8.74-6.13,4.91,3.16,2.22,9.29-2.95,10.13-2.61.43-2.12,4.12,0,4.83,1.73.56,4.34,1.24,5.53,2.73,2.45,3.08-.22,5.77-2.51,7a8.86,8.86,0,0,1-9.38-.9c-1.75-1.24-4.37.83-3.67,2.82,1.9,5.43-4.67,7.55-7.21,2.92-1.16-2.11-1.35-4.87-1.54-7.21a2.57,2.57,0,0,0-2.5-2.5c-2.79-.21-13.83.45-9.2-4.7,2.83-3.15,9-2.05,12.43-1,3.09.95,4.4-3.87,1.33-4.82Z" transform="translate(-209.45 -639.41)"/><path class="cls-5" d="M272.89,649.21c-1.3-2-1.89-3.86-4.65-3.65a2.64,2.64,0,0,0-2.42,1.83c-1,2.68-2.56,20.17,4.74,16.64,2.64-1.28,2.36-5.31,2-7.65a15.82,15.82,0,0,0-5.68-9.91,2.54,2.54,0,0,0-4.27,1.77,37.14,37.14,0,0,0,6.09,21.64,2.54,2.54,0,0,0,3.92.51c2.77-2.31,1-6.57.08-9.4a52.37,52.37,0,0,0-6.82-13.62c-1.1-1.6-4.14-1.69-4.57.6a24.92,24.92,0,0,0,1.49,14.84c1.73,3.94,5.22,9.44,9.85,10.33,13.75,2.63,1.6-19.6-1.18-23.32-1.33-1.77-4.85-1.48-4.66,1.26a72.78,72.78,0,0,0,3.59,18.49c.94,2.71,2.59,8.27,6.69,6.89,3.34-1.13,3.5-6.6,3.36-9.4a20.39,20.39,0,0,0-5.11-12.34,2.52,2.52,0,0,0-3.93.51A41.71,41.71,0,0,0,267.1,669c-.39,3.13-1.51,9.29,1.64,11.48,5.82,4,10-9.46,8.64-13.33a4.72,4.72,0,0,0-5.88-2.88c-3.38,1-4.59,5.12-5.21,8.17-1,4.8,1.84,17.38,8.6,10.6,3.17-3.17,8-13.67.52-15.15-7.08-1.39-9.58,11.53-7.49,16.11,3.46,7.54,11.81.5,12.86-4.84,1.48-7.5-7-9.07-10.37-3.11-1.83,3.26-3,8.79-.24,11.89,2,2.23,4.18,1.55,6-.41,4.85-5.18,12.16-20.54,4.92-26.29-1.16-.92-3.15-1.09-3.93.5-2,4.17-5.91,16,.63,18.5,6.34,2.38,10.45-9.94,8.34-14.29a4.1,4.1,0,0,0-5.39-2.17c-2.88,1.24-4.18,5.81-4.4,8.58-.51,6.45,5.78,10.73,11,6.08,2-1.8,4.25-5,3.44-7.94-.84-3-4.14-3.86-6.78-2.76-5.72,2.39-5.66,10.88,0,13.2,5.43,2.21,11.41-3.78,8.32-9.13-3.43-5.94-11-.81-10.45,4.81.78,7.74,11.77,4.28,12.55-1.86.46-3.52-4.16-6.7-6.36-8.78-3.11-2.93-6.19-4.24-10.22-2.42l3,3.93,10.35-9.21c2-1.79-.18-4.59-2.43-4.17-5.63,1-13,6.8-10.52,13.4,2.25,6,9.41,4.13,12.67.31,3.81-4.45,5.77-12.23.15-16.18-6.1-4.29-11.82,2.17-12.8,7.91-.45,2.7-1,6.53,1.57,8.39,2.22,1.61,4.62.42,6.52-1.1,4.11-3.28,8.09-10.41,2-13.86-4.73-2.68-11.5.09-12.12,5.69a7.22,7.22,0,0,0,10.18,7.45c3.66-1.54,11.17-10.75,2.91-11.37-7.1-.52-11,7.8-9.82,13.7l3.08-3.07a34.27,34.27,0,0,0-18.91.82,2.53,2.53,0,0,0-1.75,3.08c1.6,4,4.69,6.4,9.11,6.44a2.47,2.47,0,0,0,2.16-1.24c4.26-8.16-13.75-7.15-17.43-7.28-2.07-.07-3.44,2.86-1.77,4.27a16.53,16.53,0,0,0,17,3.17c1.62-.62,2.64-2.83,1.1-4.18-4.81-4.23-14.56-9-20.75-4.68-5.91,4.11.06,9.66,5,10.22a26.71,26.71,0,0,0,12.26-1.72c2.53-1,6.69-2.36,7.5-5.28,2.22-8-15.74-2.6-18.31-2-2.32.5-2.45,4.41,0,4.82a32.19,32.19,0,0,0,7.4.43c3.2-.19,3.22-5.19,0-5a25.76,25.76,0,0,1-6.07-.25v4.82c1.17-.26,12.62-2.15,12.62-2.18.08-2.49-3.22-.69-4.05-.34a22.94,22.94,0,0,1-5.41,1.54,22,22,0,0,1-4.37.3c-3-.13-2.45-1.42-.29-1.71,3.77-.52,8.32,2.27,11,4.6l1.1-4.17a11.59,11.59,0,0,1-12.16-1.89l-1.76,4.27c2.26.08,4.51.19,6.77.38,1,.08,1.93.17,2.89.28q3.53,2.06,3.45-.9l2.16-1.24a4,4,0,0,1-4.28-2.77L265,671a29.19,29.19,0,0,1,16.25-.83,2.54,2.54,0,0,0,3.08-3.08c-.51-2.41.44-3.77,1.54-5.69,1.24-.37,1.75-1.12,1.5-2.25l-1,1.07q-7.11,3.21-4-2.83l2.9-.34c2.58,1.89-1.85,6.13-2.14,5.89-.7.36-.73-.2-.1-1.67-.41-3.43.83-4.67,3.72-3.74,2.83-.86,3.7.14,2.63,3a10.15,10.15,0,0,1-1.4,2.86,8.84,8.84,0,0,1-1.66,2q-4.35-1.47-2.07-3.38c.9-2,3.91-2.79,5.84-3.14l-2.43-4.18-10.35,9.2c-2.28,2,.62,5,3,3.93s6,3.45,7.46,5l1.65,1.69-5.11-.14-2.91-2.43a12.4,12.4,0,0,1,.76-2.3c.12-2.15-.39.33-.74,1s-.65,4.3-2.06,2.75,1.38-7.75,2.08-9.19l-3.93.5c4.87,3.87-2.57,17.59-6.16,20.4l2.43-.65c-1.07-.32.49-5.82.89-6,.17,0,1.25,2.22-1.25,2s-1-2.93-.53-4.55c.91-3.22,1.72-2.09.66.16-.6,1.25-1.44,3.69-2.38,2.75s-.33-3.92-.12-5.11a7,7,0,0,1,1.14-3.12c-.83,1.06-.92,5.45-2.41,5.65l2.44.65c-1.65-1.67-.21-8.1.19-10a36.16,36.16,0,0,1,3.28-9.12l-3.93.51a14.88,14.88,0,0,1,3.5,7.68,22,22,0,0,1-.09,4.8c-.23,3,.44-.32.32-1.64-.22-2.52-1.73-5.37-2.29-7.87a68,68,0,0,1-1.43-10.15l-4.66,1.27a42.63,42.63,0,0,1,4.53,7.31c.94,2,5,10.35-.52,6.78-5-3.2-6-12-5-17.14l-4.57.59a50.52,50.52,0,0,1,4.67,8.18c.44,1,3.62,8.13,2.85,8.78l3.92.51a32.51,32.51,0,0,1-5.4-19.12L263.36,650c1.5,1.25,6.85,7.74,4.17,10.09l2.43-.64c-.5-.12.41-10,.69-10.74l-2.41,1.84c-.65,0-.33.16.34,1.17,1.74,2.69,6.08.19,4.31-2.52Z" transform="translate(-209.45 -639.41)"/><path class="cls-6" d="M280.53,653.32c-2.49-7.44-8.17-17.21-17.56-12.82-8.57,4-9.22,15.46-3.13,21.87l1.76-4.27c-6.62.59-16,4.34-15.76,12.44.28,8.5,10.08,9.48,16.49,8.79l-2.5-2.5c.52,8,5,16.87,14.23,16.64a9.78,9.78,0,0,0,8.57-14l-2.82,3.68c6.78,1.84,15.11.74,18.35-6.38a9.77,9.77,0,0,0-6.45-13.62l.6,4.57c6.73-3.64,5.78-11.94,1.57-17.24-5.37-6.75-12.7-2.43-16,3.86-1.5,2.84,2.81,5.37,4.32,2.52,1.76-3.33,5.88-6.63,8.65-2.07,1.76,2.89,2.5,6.7-1,8.61a2.53,2.53,0,0,0,.59,4.57c4.39,1.13,4.55,6.14,1.65,8.89s-7.29,2.44-10.89,1.47a2.53,2.53,0,0,0-2.83,3.67c2.51,5.35-4.78,7.61-8.54,5.3-3.57-2.2-4.69-6.55-4.94-10.45-.08-1.23-1.09-2.65-2.5-2.5a33.52,33.52,0,0,1-5,.34c-3.1-.15-4.39-.64-5.3-3.74s-.26-4,2.49-5.7a16,16,0,0,1,7.08-2.13,2.53,2.53,0,0,0,1.77-4.26c-3.78-4-3.78-12.84,2.87-14.22,5.61-1.17,8.12,6,9.47,10,1,3,5.84,1.73,4.82-1.33Z" transform="translate(-209.45 -639.41)"/><path class="cls-6" d="M276.45,651.26a5.44,5.44,0,0,0-.46,3.37,5,5,0,0,0,1.37,2.54,2.51,2.51,0,0,0,3.53,0,2.54,2.54,0,0,0,0-3.53c-.18-.2-.15-.16.08.12a2.61,2.61,0,0,1-.17-.28l.13.3a1.92,1.92,0,0,1-.09-.32c0,.37.05.45,0,.26a2.18,2.18,0,0,1,0-.25c-.06.39-.07.45,0,.18s0-.22-.09.13a2.55,2.55,0,0,0-.89-3.42c-1.08-.57-2.87-.38-3.42.9Z" transform="translate(-209.45 -639.41)"/><path class="cls-7" d="M278.55,665.4c-.34-4.35-5.12-6-8.5-3.54-3.14,2.29-4.55,7-1.94,10.25,5.21,6.39,17-3.7,11.69-9.75-2.42-2.79-7-2.92-9.92-1a6.73,6.73,0,0,0-2.17,9.06,6.26,6.26,0,0,0,9.09,2c2.91-1.94,5.08-6.42,1.93-9.19s-8.18.46-8.72,4.17a4.24,4.24,0,0,0,2.79,4.88c2.17.66,4.25-.76,5.63-2.3,2.14-2.39-1.39-5.94-3.54-3.54-.19.21-.57.48-.69.73-.47.19-.4.41.2.65.32.53.49.63.53.28-.05,0,.72-.85.72-.85a.58.58,0,0,1,.22-.08l-.57-.45c-.07,0-.09.32-.14.37-.57.44-.79,1.12-1.58,1.4s-1.61-.25-1.79-1.19a1.88,1.88,0,0,1,1.45-2.07c.66-.25,2.54-.44,2.82.45s-1.23,2.26-1.89,2.73c-.92.66-2.54,1.32-2.45-.44a3,3,0,0,1,.8-1.68,2.09,2.09,0,0,1,.9-.66c.33-.11.16.18.13-.26.25,3.19,5.25,3.21,5,0Z" transform="translate(-209.45 -639.41)"/><path class="cls-7" d="M277.41,666.84l.27-1.78a2.61,2.61,0,0,0-1.74-3.08,6.09,6.09,0,0,0-7.31,2.71,7.44,7.44,0,0,0,1.16,8.44c4.9,5.57,12.56.14,12.8-6.16.26-6.9-10.17-7.77-14.28-4.33-4.66,3.9-3.27,12.22,3.32,12.77,6.82.57,12.34-7.86,7.45-13.32-2.15-2.4-5.67,1.14-3.53,3.54,1.88,2.09-1.61,5.3-3.79,4.78a1.8,1.8,0,0,1-1.21-2.4,3.22,3.22,0,0,1,2.7-2.32c.93-.18,3.41-.18,4.09.7s-.56,2.83-1.33,3.52c-3,2.65-4.47-4.33-1.4-3.1l-1.75-3.08-.27,1.78c-.48,3.15,4.33,4.5,4.82,1.33Z" transform="translate(-209.45 -639.41)"/></svg>