<svg id="Laag_8" data-name="Laag 8" xmlns="http://www.w3.org/2000/svg" viewBox="0 0 216.32 166.52"><defs><style>.cls-1{fill:#3e3f4c;}.cls-2{fill:#23242d;}</style></defs><title>meteo1</title><path class="cls-1" d="M1109.17,694Q1086,680,1062.1,667.54q-6-3.12-12-6.13c-4.37-2.19-8.89-4.89-13.78-5.57-8.67-1.2-15.63,4-19.71,11.34s-7.23,15.64-10.75,23.4c-3.75,8.28-7.55,16.54-11.26,24.85-2,4.42-3.75,8.53-3,13.5.65,4.62,3.3,8.23,6.64,11.34,4.38,4.09,5.74,7.83,5.46,13.87-.35,7.84-3.66,15.25-6.15,22.58-3.48,10.22-5.4,20.48-3,31.18,1.2,5.44,7.25,8.13,12.3,7l90.78-20.7c13.72-3.13,27.17-6.18,41.21-3.22s27,9.32,39.77,15.7c5.36,2.68,13.34.75,14.69-6,3.57-17.88,7-35.89,8.18-54.12,1.07-17.14.23-35.81-5.89-52-6-15.89-19.37-28-37.25-22-8.62,2.86-16.93,7-25.29,10.55l-27,11.41c-5,2.11-6.06,9.45-3.59,13.68,3,5.16,8.69,5.71,13.68,3.59,14.57-6.16,29.08-12.46,43.7-18.48,4.72-2,9-4,12.72.24,3.33,3.84,4.81,9,6,13.88,7.32,29,1.14,59.35-4.59,88l14.69-6c-13.72-6.84-27.77-13.86-42.79-17.33-16.27-3.77-31.87-2.07-48,1.56-32.15,7.23-64.26,14.65-96.39,22l12.3,7c-2-9,2.27-18.34,5.2-26.72,2.76-7.86,5-16.15,4.73-24.57-.28-8.67-3.08-17-9.23-23.23a37.06,37.06,0,0,0-3.43-3c0,2.23.16,2.68.44,1.35l1.61-3.55,6-13.31c4.16-9.18,8.29-18.36,12.47-27.52.53-1.16,2.65-6.37,3.11-6.61-1.42.72,2.62,1.91,3.59,2.4q3.45,1.71,6.89,3.46,27.49,14,53.92,29.94c11.06,6.66,21.12-10.63,10.1-17.27Z" transform="translate(-987.56 -649.84)"/><path class="cls-1" d="M1044.25,691.93l6.31-11.58c6.26-11.46-9.94-20.5-17.27-10.09A492.54,492.54,0,0,0,1006,713.61c-5.36,9.59,8,20.9,15.71,12.12q16.45-18.63,31.1-38.74l-17.27-10.1q-17,24-32.17,49.32c-6.69,11.14,10.17,20.71,17.26,10.09a213.22,213.22,0,0,1,36.88-41.82l-15.71-12.12a362.67,362.67,0,0,0-30.43,52.56c-4.77,10.09,7,20.09,15.7,12.12a250.56,250.56,0,0,0,35.66-40.88l-17.27-10.1-36.88,62.52c-5.67,9.62,7.88,20.61,15.71,12.12l42.2-45.79-14.14-14.14a464.48,464.48,0,0,0-47.2,71.33c-6.15,11.53,9.88,20.46,17.27,10.1a424.75,424.75,0,0,1,51.8-59.77l-14.14-14.14c-17.52,22.14-35.2,44.45-47.46,70.05-2.15,4.48-1.62,9.77,2.57,12.9a10,10,0,0,0,13.13-.78l62-64.76-14.14-14.15L1026.55,781c-8.18,9.79,4.49,22.92,14.14,14.14l59.21-53.86-15.71-12.12a375.21,375.21,0,0,1-43,49.91c-6.82,6.66.11,20.23,9.73,16.72a652.07,652.07,0,0,0,91.64-41.63c4.73-2.61,6.27-9.1,3.59-13.68-2.93-5-8.77-5.89-13.68-3.59a224.09,224.09,0,0,1-70.13,19.75l5,18.64a215.12,215.12,0,0,1,55.35-26L1115,731a97.81,97.81,0,0,1-27,8c-6.62.94-15.92,2.3-22-1.43a7.27,7.27,0,0,1-3.36-4.2c-.52-2.42-.45-2.23,1.72-2.92,7.37-2.34,18.09,1.06,24.72,4.21,10.29,4.89,19.72-6.91,12.12-15.71a245.81,245.81,0,0,0-38.34-35.52c-9-6.77-21,8.59-12.12,15.71a251.14,251.14,0,0,0,64.81,37.82l5.32-19.29c-21.78-7.94-39.81-23.32-57.24-38.12-9.71-8.25-23.1,4.66-14.14,14.14,19.9,21.09,50.66,38,80.38,37.38,8.12-.18,16.85-2.2,23-7.83,6.7-6.15,8-16.47,1.66-23.37-10.35-11.23-30.81-10.93-44.17-6.78-17,5.28-30.51,17.58-41.87,30.88-6.29,7.37-.43,19.35,9.73,16.71a366.33,366.33,0,0,0,83.26-32.93c10.07-5.47,3.16-21.13-7.71-18.27A137.4,137.4,0,0,0,1074.18,747c-4.42,6.71,1.51,14.63,8.63,15,20.61,1.2,40.44-6.75,57.07-18.47a189.19,189.19,0,0,0,23.35-19.6c7.54-7.39,15.51-16.22,12.16-27.64-3.49-11.91-16.81-14.85-26.46-8.28-8.65,5.89-16.58,13.43-23.87,20.89a223.93,223.93,0,0,0-20.51,24.37q-4.46,6.09-8.45,12.49c-2.55,4.09-6,8.71-7.16,13.44-3.27,13.36,11.46,20.1,22.41,20.43,10.59.31,20.93-4.25,30-9.26a124,124,0,0,0,24.32-17.72c7.34-6.84,16.62-15.78,19.17-25.8,3.08-12.15-6.82-21.52-18.53-21.15-10.28.33-21,4.43-29.75,9.69-15.87,9.57-34.36,30.94-22.19,50.21,6.57,10.4,20.55,13.66,31.75,9.74,10.49-3.66,18.8-12.29,24.31-21.72a65.79,65.79,0,0,0,.82-63.86c-3.47-6.4-13.86-6.62-17.27,0a131.93,131.93,0,0,0-13.22,79.16c1,7.49,12.08,9.52,16.71,4.41a98.71,98.71,0,0,0,22.16-39.45c3.63-12.88,7.13-35-11.88-36.57a9.76,9.76,0,0,0-8.64,5,103.37,103.37,0,0,0-8.21,74.5,10.24,10.24,0,0,0,9.64,7.34c13.48.62,19.79-12.75,21.71-24a205.37,205.37,0,0,0,2.79-44.43c-.23-4.94-3.62-9.22-8.67-9.82-4.45-.53-10.2,2.19-11,7.16a331.62,331.62,0,0,0-3.93,61.43c.29,9.09,14.35,14.69,18.63,5.05a126,126,0,0,0,11.17-57.19c-.54-11.56-15.8-13.21-19.65-2.66-7.21,19.77-8.6,40.8-5,61.47.83,4.84,6.49,7.84,11,7.16a10.07,10.07,0,0,0,8.67-9.82,199.22,199.22,0,0,0-3.12-45c-1-5.31-7.43-8.32-12.3-7-5.6,1.54-8,7-7,12.3a175.89,175.89,0,0,1,2.4,39.69l19.64-2.65c-3-17.16-.9-34.56,5-50.85l-19.64-2.65a104,104,0,0,1-8.44,47.1l18.64,5a303.63,303.63,0,0,1,3.22-56.11l-19.65-2.66a193.63,193.63,0,0,1-1,32.12,76.25,76.25,0,0,1-2.31,13c-.31,1-1.51,2.66-1.65,3.62-.26,1.93-.48.15-.23.29-.23-.12,4.27-.41.73-.57l9.64,7.34a82.17,82.17,0,0,1,6.2-59.09l-8.63,4.95-5.25-3.62.32,1.14c.15-.6,0,1.23,0,1.51a45.77,45.77,0,0,1-.91,5.92,84.83,84.83,0,0,1-4.09,14,76,76,0,0,1-14.45,23l16.72,4.41a108.47,108.47,0,0,1,11.2-63.74H1154a45,45,0,0,1,3.37,33.86c-2.57,8.9-9.76,22.42-20.29,23.27-3.78.31-6.85-1.63-6.41-5.55.61-5.47,5-10.08,8.86-13.57a48.88,48.88,0,0,1,16.55-9.72,47,47,0,0,1,8.79-2.31,21.92,21.92,0,0,0,2.76-.15c-.29.4-6.52-13.54-1.09-2.12-1.79-3.77-.39-1.84-1.39-.8-1.88,2-3.32,4.85-5.16,7-2.3,2.66-4.72,5.22-7.26,7.65a99.71,99.71,0,0,1-15.87,12.41c-5.61,3.54-11.58,6.92-18,8.75a21.19,21.19,0,0,1-8.47,1c-.58-.07-3-1.13-3.36-1,.61-.27.32,6,1.24,5.89.29,0,1.46-2.58,1.65-2.91a192.32,192.32,0,0,1,25.24-34.31,202.64,202.64,0,0,1,15-14.63c2.71-2.38,5.45-4.83,8.36-7,.48-.35,2.1-1,2.24-1.52-.18.64-4.13-1.79-4.23-1.84-.92-.48-.08-1.07-.21-1.15,1.1.67-11.74,13-13.16,14.25a137.23,137.23,0,0,1-18.1,14c-12.82,8.21-26.83,13.45-42.22,12.55l8.64,15a116.5,116.5,0,0,1,67.64-48.34l-7.7-18.28a345.07,345.07,0,0,1-78.49,30.92l9.73,16.71c8.62-10.08,18.59-20.78,31.47-25.22,6-2.08,12.58-3.18,18.9-1.85.43.09,7.69,2.7,7.52,2.87a4.17,4.17,0,0,1-1.21-5.33l-.43.37c-1.06,0-3.2,1.33-4.35,1.59-11.87,2.64-26.74-2.41-37.49-7.2a104.18,104.18,0,0,1-33.4-23.79l-14.14,14.14c20.24,17.19,40.81,34.06,66.06,43.27,5.07,1.85,11-2.08,12.3-7,1.56-5.69-1.95-10.29-7-12.3a219.2,219.2,0,0,1-56-32.68l-12.12,15.71a221.94,221.94,0,0,1,34.3,32.4l12.12-15.71c-12.51-6-29.45-10.53-43-5.24-13.68,5.35-17,21.56-9.75,33.55s22.25,14.76,35.17,13.93a121.69,121.69,0,0,0,43.48-11.34c10.34-4.77,3-21.54-7.7-18.27a234.23,234.23,0,0,0-60.13,28,10.27,10.27,0,0,0-4.6,11.29c1.07,3.91,5.34,7.82,9.64,7.34a253.37,253.37,0,0,0,80.22-22.48l-10.09-17.27a618.17,618.17,0,0,1-86.87,39.61l9.73,16.71a403,403,0,0,0,46.15-54c6.88-9.61-7.68-19.42-15.7-12.12L1026.55,781l14.14,14.14,49.64-59.42c3.46-4.15,4.06-10.09,0-14.15a10.13,10.13,0,0,0-14.14,0l-62,64.76,15.71,12.12c11.53-24.06,27.85-45.17,44.33-66,3.35-4.23,4.13-10,0-14.14a10.16,10.16,0,0,0-14.14,0,452.5,452.5,0,0,0-54.93,63.81l17.27,10.1a437.53,437.53,0,0,1,44.07-67.29c3.37-4.21,4.12-10,0-14.14-3.71-3.71-10.47-4-14.14,0l-42.21,45.79,15.71,12.12,36.88-62.52c6.64-11.26-10-20.48-17.27-10.1A226.54,226.54,0,0,1,1013,732.89L1028.68,745a362.67,362.67,0,0,1,30.43-52.56c2.82-4,1.13-10.13-2.57-12.9-4.14-3.09-9.29-2.59-13.13.78a232.74,232.74,0,0,0-40,45.88l17.26,10.09Q1035.84,711,1052.85,687c3.13-4.41.79-11.12-3.58-13.68-5.07-3-10.49-.79-13.69,3.58q-13.17,18-28,34.7l15.71,12.11a494,494,0,0,1,27.25-43.35l-17.27-10.09L1027,681.84c-6.17,11.3,11.09,21.41,17.27,10.09Z" transform="translate(-987.56 -649.84)"/><path class="cls-2" d="M1110.06,696.08c15.61-6.82,31.16-14.71,47.26-20.33,7.2-2.5,16.91-5.16,23.35.45,5.19,4.52,7.62,12,9.42,18.42,4.45,15.87,4.15,32.8,3,49.11a266.57,266.57,0,0,1-8.35,50.43c-1,3.64-1.62,6.34-6,5.78-3.82-.5-7.61-2.31-11.09-3.87-6.77-3-12.93-7.18-19.63-10.33-14.89-7-30.7-3.71-46.17-.63-16.55,3.29-32.91,7.39-49.32,11.3-8.36,2-16.73,3.92-25.14,5.67-7.74,1.62-15.76,3.69-23.66,4.24-3.22.22-6.62.44-6-3.43.74-4.69,2.26-9.37,3.37-14,2.23-9.19,4.12-18.54,6.73-27.63,3.87-13.47,21.64-14.39,31.17-22.71,4.86-4.24-2.24-11.28-7.07-7.07-10.28,9-26.21,8.82-32.22,22.82-3.62,8.45-4.94,18.28-7.1,27.19l-3.45,14.22c-.93,3.85-2.4,8.1-1.28,12.07,1.86,6.64,9,8.77,15.2,8.54,9-.33,18.21-2.79,27-4.61,19.32-4,38.41-9,57.66-13.39,9.59-2.17,19.23-4.24,28.93-5.83,9.91-1.62,19.44-1.76,28.55,3,7.84,4.07,15.28,8.55,23.53,11.83,6.39,2.54,14.81,4.79,20.6-.35,2.73-2.42,3.85-5.79,4.78-9.2,1.33-4.92,2.5-9.89,3.55-14.87a289.48,289.48,0,0,0,4.49-28.69c2-18.75,2.82-38.38-1.18-56.93-1.93-8.93-5-18.38-10.88-25.53-6.05-7.33-14.82-9.61-24-8.4-10.27,1.34-19.67,6-29.06,10.11l-32.08,14c-5.88,2.57-.8,11.18,5,8.63Z" transform="translate(-987.56 -649.84)"/><path class="cls-2" d="M1012.87,747.71c-1.7-5.9-5.94-9.78-10.11-14-1.61-1.65-3.6-3.49-4.14-5.82-1-4,2.58-9.15,4.15-12.69,7.21-16.28,13.27-34.42,23.55-49.06,2.47-3.52,5.54-7,10.27-6.15,4.48.77,8.17,4.16,11.57,6.91a76.11,76.11,0,0,0,18.74,11.07c13.5,5.67,28.28,9.33,37.23,21.89,4.81,6.74,7.94,15.15,13.65,21.2a13,13,0,0,0,9.44,4.1c3.27.09,7.91-1.88,10.94-.32,5.71,2.94,10.78-5.68,5-8.63a16.63,16.63,0,0,0-10-1.62c-4.6.5-7,1.49-9.88-2.73-4.78-7-8.31-14.69-13.73-21.23-10.89-13.14-27.56-16.42-42.29-23.34-13.57-6.39-28.62-26.49-44.22-12.67-6.79,6-11,15.41-14.71,23.49-4.36,9.41-8.44,18.94-12.63,28.42-3.62,8.18-10,17.73-5.7,26.78,3.1,6.54,11.18,10.13,13.19,17.09,1.78,6.17,11.43,3.55,9.64-2.66Z" transform="translate(-987.56 -649.84)"/><path class="cls-2" d="M1168.17,744.46c-16.77-2.31-18.05,24.61-4.17,29.26,6.12,2,8.74-7.61,2.66-9.65-2.52-.84-2.61-10.17-1.15-10,2.7.37,5.34-.65,6.15-3.49.67-2.33-.82-5.78-3.49-6.15Z" transform="translate(-987.56 -649.84)"/><path class="cls-2" d="M1032.77,684c1.34,2.12,4.79,10-.53,10.16-6.42.17-6.45,10.17,0,10a13.09,13.09,0,0,0,12-8.8c2-5.6.18-11.57-2.86-16.41-3.42-5.43-12.08-.42-8.64,5Z" transform="translate(-987.56 -649.84)"/><path class="cls-2" d="M1065.17,698.7h.53a5,5,0,0,0,5-5,5.07,5.07,0,0,0-1.47-3.54,5.18,5.18,0,0,0-3.53-1.46h-.53a5,5,0,0,0-5,5,5.07,5.07,0,0,0,1.47,3.53,5.19,5.19,0,0,0,3.53,1.47Z" transform="translate(-987.56 -649.84)"/><path class="cls-2" d="M1043.55,764.39a45.34,45.34,0,0,1,10.21,6.67c.92.84,3.44,2.69,3.33,4.11-.13,1.63-2.22,2.53-3.4,3.27-5.44,3.4-.43,12.06,5,8.63,5.86-3.67,10.49-9.25,7.26-16.44-3.07-6.84-11-11.67-17.4-14.87-5.75-2.86-10.82,5.76-5,8.63Z" transform="translate(-987.56 -649.84)"/><path class="cls-2" d="M1021.33,774.88c.26-1.76.61-3.85,2-5.09.49-.44,1.74-1.18,2.39-.63a5.13,5.13,0,0,0,7.07,0c1.79-1.78,2.07-5.32,0-7.07a12,12,0,0,0-13.72-1.48c-4.24,2.31-6.72,7-7.41,11.62-.39,2.66.67,5.37,3.49,6.15,2.36.64,5.76-.81,6.16-3.5Z" transform="translate(-987.56 -649.84)"/><path class="cls-2" d="M1053.17,748.35c3.86,0,3.87-6,0-6s-3.86,6,0,6Z" transform="translate(-987.56 -649.84)"/><path class="cls-2" d="M1064.65,752.57c2.58,0,2.58-4,0-4s-2.58,4,0,4Z" transform="translate(-987.56 -649.84)"/><path class="cls-2" d="M1070.91,702.48c2.58,0,2.58-4,0-4s-2.58,4,0,4Z" transform="translate(-987.56 -649.84)"/><path class="cls-2" d="M1054.22,707.65c3.86,0,3.86-6,0-6s-3.87,6,0,6Z" transform="translate(-987.56 -649.84)"/><path class="cls-2" d="M1169.52,710.7c6.44,0,6.45-10,0-10s-6.44,10,0,10Z" transform="translate(-987.56 -649.84)"/><path class="cls-2" d="M1159.61,695.65c3.86,0,3.87-6,0-6s-3.87,6,0,6Z" transform="translate(-987.56 -649.84)"/><path class="cls-2" d="M1158.57,705.11a1.5,1.5,0,0,0,0-3,1.5,1.5,0,0,0,0,3Z" transform="translate(-987.56 -649.84)"/></svg>