<svg id="Laag_14" data-name="Laag 14" xmlns="http://www.w3.org/2000/svg" viewBox="0 0 201.36 170.9"><defs><style>.cls-1{fill:#3e3f4c;}.cls-2{fill:#23242d;}</style></defs><title>meteor7</title><path class="cls-1" d="M980.11,246.51a218.13,218.13,0,0,0-34.78,14.69q-8.16,4.32-15.89,9.41c-5,3.3-10.37,6.71-13.57,11.95-7,11.47,1.61,26.39,5.58,37.49l14.19,39.71c2.43,6.78,11.21,10.22,16.72,4.41,19.51-20.57,51.61-7.65,73.53.92,13.54,5.29,32.95,15.75,44.8,2.12,9.69-11.14,17-25.42,23.22-38.73a232.31,232.31,0,0,0,16.7-50.11c1.45-7-4.61-14.88-12.3-12.3a15.86,15.86,0,0,1-13.87-1.35c-5.19-3.16-6.7-8.29-8-14-1.82-8.18-3.85-15.9-7.48-23.51-3.35-7-8-15.55-16-18-8.17-2.46-15,1.58-20.87,7a35.59,35.59,0,0,1-13.15,8.16c-11.84,4.1-24.58,6.18-34.27,14.77a40.78,40.78,0,0,0-7.1,8.86,27,27,0,0,1-1.74,2.8c-1.1,1.31-.14.61-1.37.42-9.21-1.46-18.81-5.35-27.33-9-6.62-2.87-15.16.34-15,8.63q.42,30.27,2,60.5c.67,12.8,20.67,12.88,20,0q-1.58-30.22-2-60.5l-15.05,8.64a205,205,0,0,0,25.86,9.43c9,2.55,18.81,4.27,26.21-3C993,262,995.24,256,999.19,253c4.58-3.44,10.17-4.82,15.68-6.44,6.44-1.89,12.9-3.79,18.92-6.82a43.17,43.17,0,0,0,8.4-5.64c.71-.59,6.49-5.12,6.39-5.69-.07-.38-2.3.1-2.18-.36-.16.61,2.71,4.3,3,4.78a58.05,58.05,0,0,1,4.76,10.72c2.56,8,3.24,16.32,6.81,24,7.22,15.48,26.64,23.23,42.66,17.84l-12.3-12.3a211.35,211.35,0,0,1-12.9,41.37c-6,13.72-13.93,25.82-21.77,38.46-1.19,1.92-.24,1.52-2.68,1a97.13,97.13,0,0,1-11-3.57c-7.33-2.64-14.53-5.64-21.84-8.36-13.37-5-27.39-9-41.8-8.58-15.26.43-30.43,5.42-41.12,16.69l16.71,4.41L943,321.2l-5.94-16.63c-1-2.72-2-5.43-2.91-8.17a11.75,11.75,0,0,1-1-3.19c0-2.3-.45.17-.08-.55,1.47-2.89,6.72-5,9.35-6.69q6.69-4.23,13.71-7.91a187.93,187.93,0,0,1,29.22-12.27c12.18-4,7-23.29-5.31-19.28Z" transform="translate(-910.86 -204.94)"/><path class="cls-1" d="M975.33,251.38a266.26,266.26,0,0,0-40.87,36.93c-3.3,3.7-4,9.11-.78,13.13,2.87,3.6,8.77,5.5,12.9,2.57a572.5,572.5,0,0,1,58-36.12l-12.12-15.7c-17.8,16.73-35.57,33.55-50.91,52.62-8.1,10.07,4.07,22.29,14.14,14.14L995.21,287c8.9-7.2-2.58-21.52-12.12-15.7a160.94,160.94,0,0,0-26.54,20.15,146.82,146.82,0,0,0-11.74,12.44c-3.93,4.71-8,9.74-7.06,16.29a13.21,13.21,0,0,0,13,11.3c5.66,0,10.24-3.2,14.68-6.27l31.87-22-10.09-17.27a210.15,210.15,0,0,0-49.71,50.61c-2.51,3.6-1.4,9.16,1.56,12.12,3.38,3.38,8,3.37,12.12,1.56,33.82-14.84,59.88-43.16,94.15-57L1037.62,275l-73.75,50.19c-7.68,5.22-5.53,19.09,5,18.63,9.74-.42,17.8-4.78,26-9.72L1020,318.74l50.32-30.63c11-6.68,1.11-23.69-10.09-17.26a745.78,745.78,0,0,0-81.33,54c-6.34,4.83-6.38,12.44,0,17.27,7.63,5.77,17.26,2.78,25-1,8.37-4.05,16.54-8.62,24.63-13.19q24.35-13.72,47.39-29.6c10.48-7.2,1-24-10.1-17.27a453,453,0,0,0-67.31,50.16c-4.35,3.91-3.19,10.08,0,14.14,12.24,15.54,33.1-5.53,43-13.1l44.94-34.54c4.28-3.28,6.56-8.6,3.59-13.68-2.67-4.57-9.08-6.45-13.68-3.59a215.51,215.51,0,0,0-58.88,54.4c-2.08,2.79-1.64,7.27,0,10.1,9.16,15.81,28,1.38,37.39-6.12a111.54,111.54,0,0,0,27-32c4.67-8.24-5.11-19.59-13.68-13.68a89.42,89.42,0,0,0-36.73,53,10.36,10.36,0,0,0,4.6,11.3c12.67,8.39,26.58-9.91,33.65-18.44a146.52,146.52,0,0,0,21.49-34.5c1.82-4.13,1.83-8.72-1.56-12.12-2.88-2.88-8.63-4.19-12.12-1.56a78.71,78.71,0,0,0-31.67,57.4c-.92,11.61,16.4,13,19.64,2.65,9.35-29.91,17.82-63.48.58-92.34-5.13-8.6-18.42-4.84-18.63,5.05l-1.19,56.33a10.13,10.13,0,0,0,10,10c6,0,9.33-4.62,10-10,3.34-26.79,5.52-54.53-7.28-79.33-4.37-8.47-15.31-4.88-18.27,2.39a232.23,232.23,0,0,1-24,43.86L1033.93,297l17-36.23c2.6-5.54,5.9-11.13,6-17.4a14.92,14.92,0,0,0-11.22-14.55c-12.72-3.13-22.19,10.06-29.59,18l-28.43,30.61,14.14,14.14,44.89-50.06c7.81-8.71-1.89-20.46-12.12-15.7a198,198,0,0,0-51.71,35.09c-8.15,7.63,2.63,22.22,12.12,15.71a515,515,0,0,0,52.76-41.49c8.53-7.66-2.44-21.44-12.11-15.71a124.39,124.39,0,0,0-29.32,23.86c-7.76,8.67-17.62,20.29-20,32-1.35,6.76.62,14,6.92,17.58s14.78,1.31,21.35-.69a80,80,0,0,0,33.57-20.41c6.62-6.73,0-20.26-9.73-16.72a140,140,0,0,0-48.46,29.7c-8.1,7.61,2.72,22.4,12.12,15.71q19.13-13.63,37.44-28.32L1023.91,260c-10.35,18-20.52,38.83-13.73,59.91,3.93,12.21,23.24,7,19.28-5.31-5-15.67,4.11-31.29,11.72-44.5a10,10,0,0,0-2.58-12.9c-4.27-3.2-9.12-2.42-13.13.78q-16.34,13.06-33.4,25.19l12.12,15.7a115.68,115.68,0,0,1,39.63-24.55l-9.73-16.72a59.38,59.38,0,0,1-20.18,13.7,61.88,61.88,0,0,1-6.87,2.24c-.85.22-4.94.56-5.35,1.21-.51.8,5.35,4.55,4.09,5.23.26-.14.55-2.06.69-2.41.43-1,1.95-3.39,2.76-4.74a104.12,104.12,0,0,1,36.55-36.17L1033.66,221a474.15,474.15,0,0,1-48.72,38.37L997.06,275a181.44,181.44,0,0,1,47.66-32l-12.12-15.71-44.88,50.06c-8.56,9.53,5.33,23.62,14.14,14.14l20.31-21.86L1033,258c2.54-2.74,5-6.17,7.88-8.49a18.08,18.08,0,0,1,2.42-1.46q2.78,3.36-6.19-5.34c.47-.35-1.75,4.36-1.33,3.46-2.19,4.73-4.43,9.43-6.65,14.14l-12.47,26.52c-5.47,11.64,9.92,20.77,17.27,10.09a254.75,254.75,0,0,0,26-48.63l-18.28,2.38c10.92,21.15,7.38,46.57,4.55,69.24h20l1.19-56.33-18.63,5c14.24,23.85,5,52.53-2.6,76.94l19.64,2.66a56.89,56.89,0,0,1,21.77-40.13l-13.69-13.68A136.42,136.42,0,0,1,1058.56,321a119.23,119.23,0,0,1-9.11,10.71q-2.58,2.72-5.29,5.28c-.81.76-1.67,1.48-2.45,2.26-2.49,2.47,1.13.26-1.29.7h5.32l.36.23,4.6,11.29a68.62,68.62,0,0,1,27.53-41.06l-13.68-13.69a95,95,0,0,1-17.15,22.12,85.94,85.94,0,0,1-9.82,8.15c-2,1.38-4,2.73-6.09,3.95a16.22,16.22,0,0,0-1.81,1c-.91.2-.79.27.36.22,1.26.17,1.27.05,0-.34l4.42,2.57.27.46V345a189.67,189.67,0,0,1,51.7-47.23l-10.09-17.27-37.2,28.59-18.6,14.29c-2.55,2-5,4.05-7.74,5.83-.53.36-2,.79-2.28,1.24-.71.16-.81.22-.29.19,3.17,2.11,4,2.31,2.44.63v14.14a424,424,0,0,1,63.27-47l-10.1-17.27q-20,13.71-40.91,25.9-10.49,6.07-21.18,11.75c-3.28,1.73-6.55,3.59-9.93,5.14-1,.45-2.26.75-3.2,1.25a1.39,1.39,0,0,1-1.65.26c1.55.55,1.56.37,0-.55v17.27a747.2,747.2,0,0,1,81.32-54l-10.09-17.26-47,28.57L989.8,313.71c-6.2,3.78-13.34,9.74-20.88,10.06l5,18.64,73.76-50.19c4.1-2.79,6.17-7.74,4.09-12.49-1.81-4.13-7.11-7.68-11.8-5.79-36,14.56-63.48,43.46-98.93,59l13.69,13.68a182,182,0,0,1,42.53-43.43c4.37-3.16,6.5-8.7,3.59-13.68-2.57-4.4-9.22-6.67-13.68-3.59l-20.43,14.12L957,306.83c-1.63,1.13-3.25,2.28-4.9,3.39-3.88,2.6-.14-.52,3.06,2.85l2.57,4.41q-1,3.69.16,1.89c.73-.88,1.46-1.76,2.2-2.62,1.49-1.74,3-3.43,4.58-5.09q4.11-4.37,8.58-8.37a134.16,134.16,0,0,1,20-14.7l-12.12-15.71-39.49,31.93L955.71,319c15.34-19.07,33.12-35.89,50.91-52.62,8.46-7.95-2.31-21-12.11-15.71a571.39,571.39,0,0,0-58,36.12l12.11,15.71a243.19,243.19,0,0,1,36.82-33.8c4.34-3.2,6.52-8.67,3.59-13.68-2.51-4.28-9.31-6.81-13.68-3.59Z" transform="translate(-910.86 -204.94)"/><path class="cls-1" d="M1058.07,319.09a71.06,71.06,0,0,0-11.29,26.52c-1.61,8,6.87,16.34,14.69,11.29a42.41,42.41,0,0,0,19.58-33.31c.6-8.28-11.64-13.69-17.07-7.07A101.23,101.23,0,0,0,1046.26,348c-3.67,10.58,13.48,18,18.28,7.7,8.4-18.07,11.41-37.73,10.62-57.57a263.24,263.24,0,0,0-3.48-31.31c-.82-5.07-1.74-10.13-2.69-15.18-.84-4.51-1.36-9.15-4-13.08-7.06-10.69-24.39-.68-17.27,10.1,1.57,2.37,1.72,7.09,2.29,10.19.82,4.42,1.61,8.85,2.33,13.28a218.11,218.11,0,0,1,2.77,26c.64,16.12-1,32.7-7.89,47.48l18.27,7.7a74.2,74.2,0,0,1,12.58-22.65l-17.07-7.08a21.16,21.16,0,0,1-9.67,16l14.69,11.29a56.47,56.47,0,0,1,9.27-21.74c3.08-4.43.81-11.1-3.59-13.68-5-2.91-10.59-.86-13.68,3.59Z" transform="translate(-910.86 -204.94)"/><path class="cls-2" d="M1062.55,219.94l14.55,39.27c2,5.27,7,13.55,4.48,19-2.75,6-7.1,11.66-10.52,17.29-2,3.3,3.18,6.32,5.19,3,3.7-6.09,7.89-12.1,11.18-18.42,2.94-5.68-.45-11.37-2.47-16.83l-16.62-44.87c-1.33-3.59-7.13-2-5.79,1.59Z" transform="translate(-910.86 -204.94)"/><path class="cls-2" d="M1085.39,269.91c4.41,1,8-.07,12.31-.81,2.47-.42,6-1.13,7.74,1.42,1.42,2.07.53,5.38.1,7.56a194,194,0,0,1-7.65,26.7,235.32,235.32,0,0,1-24.5,49.83c-2.35,3.63-4.76,7.27-7.38,10.73-3.8,5-9.33,4.33-15,3.87-9.9-.81-22.43-3.06-30.13-9.8-7.13-6.25-13.54-13.25-20.81-19.38-7.11-6-14.53-11.61-22.19-16.87-3.19-2.2-6.19,3-3,5.18a264.67,264.67,0,0,1,22.35,17.1c6.77,5.79,12.8,12.31,19.44,18.21,6.22,5.53,14.61,8.09,22.61,9.83,7.21,1.56,17.11,3.63,24.29,1.34,6.55-2.09,10.57-10.38,14.09-15.73a235.84,235.84,0,0,0,13.1-22.5,241.43,241.43,0,0,0,18.1-46.8c1.83-6.73,6.07-17.17,1-23.41-6.12-7.48-15.32-.53-22.79-2.26-3.75-.87-5.36,4.92-1.59,5.79Z" transform="translate(-910.86 -204.94)"/><path class="cls-2" d="M1015.37,355.88c-13.23-1.65-26.45-3.42-39.69-4.95-5.31-.61-10.62-.81-15.51,1.63-5.16,2.58-9.67,7-14.18,10.58-3,2.39,1.24,6.6,4.24,4.24,4.18-3.29,8.52-7.7,13.45-9.78,5.43-2.3,12.1-.66,17.74,0l34,4.24c3.82.48,3.79-5.52,0-6Z" transform="translate(-910.86 -204.94)"/><path class="cls-2" d="M948.85,361.77l-7,1.38,2.92.77c-12.84-12.74-15.86-30.89-21.08-47.46-2.54-8.06-7.76-16.29-6.79-25a23.62,23.62,0,0,1,12-17.95c2.34-1.3,4.87-2.32,5.85-5.07,1.26-3.56-.09-8.1-.15-11.76,0-2.08-.58-5.77.23-7.7,1.13-2.69,3.52-2.89,6-3.09,4-.33,10.16-1.42,13.84.42,2.79,1.4,4.89,4.21,7.63,5.86a53.13,53.13,0,0,0,7.8,3.63c6.29,2.49,13.6,4.31,17.89,10,2.3,3,7.51.05,5.18-3-8-10.51-21.93-10.06-31.35-18.33-2.09-1.84-3.81-3.74-6.61-4.44-4-1-8.58-.47-12.61-.21-6.8.44-12.91.37-13.68,8.26a80.78,80.78,0,0,0-.1,13.47c.2,2.77.18,4.77-2.33,6.52-1.34.94-2.83,1.61-4.15,2.61a29.72,29.72,0,0,0-10.4,15.3c-2,6.8-1.1,13.37,1.45,19.87,3.43,8.75,6.06,17.6,8.68,26.62,2.47,8.51,5.29,17.06,9.83,24.72,2.15,3.63,4.81,7.69,8,10.46,3,2.6,6.88.69,10.5,0,3.79-.75,2.18-6.53-1.59-5.79Z" transform="translate(-910.86 -204.94)"/><path class="cls-2" d="M971.51,253.57a47.51,47.51,0,0,0,10.08-6.43c3.32-2.79,5.79-6.56,9.67-8.61,8.92-4.73,19-8,28.29-11.94,7.2-3,14.26-5.79,20-11.24,3.63-3.45,7.47-5.54,12.59-3.79,4.44,1.52,7.29,5.29,9.23,9.37,1.65,3.48,6.83.44,5.18-3-3.45-7.27-10.17-13.16-18.6-13a16.17,16.17,0,0,0-10,3.72c-4.16,3.41-7.59,6.66-12.56,9-10.79,5-21.95,9.3-32.91,13.91a30,30,0,0,0-11.12,7.54,42.42,42.42,0,0,1-12.85,9.31c-3.48,1.66-.44,6.83,3,5.18Z" transform="translate(-910.86 -204.94)"/><path class="cls-2" d="M938.63,316.54c4.33-.33,7.62,4.55,8.8,8.12A14.73,14.73,0,0,1,945.78,337c-1.94,3.35,3.24,6.37,5.18,3,3.46-6,4.25-12.94,1.33-19.3-2.4-5.22-7.48-10.61-13.66-10.14-3.83.29-3.86,6.29,0,6Z" transform="translate(-910.86 -204.94)"/><path class="cls-2" d="M1026.17,232.11c3.55,7,7.86,15.88,16.29,17.75,8.65,1.91,15.24-5.1,21.43-9.83,3-2.32,0-7.53-3-5.18-4.51,3.45-9.82,9.74-16,9.29-7-.5-10.73-9.7-13.46-15-1.76-3.44-6.94-.41-5.18,3Z" transform="translate(-910.86 -204.94)"/><path class="cls-2" d="M1044.3,272.32c2.94.19,4.42,3.67,5,6.11.28,1.13,1.31,6.7-.27,7.34-3.53,1.44-2,7.25,1.59,5.79,5.54-2.26,5.77-8.92,4.63-14.09-1.24-5.61-4.88-10.77-11-11.15-3.86-.24-3.84,5.76,0,6Z" transform="translate(-910.86 -204.94)"/><path class="cls-2" d="M1042.09,350.53a11,11,0,0,1,13.59-1.81c3.34,1.95,6.36-3.23,3-5.18a17.15,17.15,0,0,0-20.85,2.74c-2.72,2.75,1.52,7,4.24,4.25Z" transform="translate(-910.86 -204.94)"/><path class="cls-2" d="M997.74,291.57c3.86,0,3.87-6,0-6s-3.87,6,0,6Z" transform="translate(-910.86 -204.94)"/><path class="cls-2" d="M990.3,312.46c7.08,0,7.09-11,0-11s-7.09,11,0,11Z" transform="translate(-910.86 -204.94)"/><path class="cls-2" d="M999.3,301c3.87,0,3.87-6,0-6s-3.86,6,0,6Z" transform="translate(-910.86 -204.94)"/><path class="cls-2" d="M1006.74,291.24a1.5,1.5,0,0,0,0-3,1.5,1.5,0,0,0,0,3Z" transform="translate(-910.86 -204.94)"/><path class="cls-2" d="M972.7,298.67a1.5,1.5,0,0,0,0-3,1.5,1.5,0,0,0,0,3Z" transform="translate(-910.86 -204.94)"/><path class="cls-2" d="M955.87,346a1.5,1.5,0,0,0,0-3,1.5,1.5,0,0,0,0,3Z" transform="translate(-910.86 -204.94)"/><path class="cls-2" d="M960.17,330a1.5,1.5,0,0,0,0-3,1.5,1.5,0,0,0,0,3Z" transform="translate(-910.86 -204.94)"/><path class="cls-2" d="M971.52,340.15a1.5,1.5,0,0,0,0-3,1.5,1.5,0,0,0,0,3Z" transform="translate(-910.86 -204.94)"/><path class="cls-2" d="M948.83,260.33a1.5,1.5,0,0,0,0-3,1.5,1.5,0,0,0,0,3Z" transform="translate(-910.86 -204.94)"/><path class="cls-2" d="M940.78,280.36l1.56-2.36a1.5,1.5,0,0,0-2.59-1.51l-1.56,2.35a1.5,1.5,0,1,0,2.59,1.52Z" transform="translate(-910.86 -204.94)"/><path class="cls-2" d="M968,270.5a1.5,1.5,0,0,0,0-3,1.5,1.5,0,0,0,0,3Z" transform="translate(-910.86 -204.94)"/><path class="cls-2" d="M1016.13,232.15a1.5,1.5,0,0,0,0-3,1.5,1.5,0,0,0,0,3Z" transform="translate(-910.86 -204.94)"/><path class="cls-2" d="M1023.57,262.28a1.5,1.5,0,0,0,0-3,1.5,1.5,0,0,0,0,3Z" transform="translate(-910.86 -204.94)"/><path class="cls-2" d="M1056.83,261.5a1.5,1.5,0,0,0,0-3,1.5,1.5,0,0,0,0,3Z" transform="translate(-910.86 -204.94)"/><path class="cls-2" d="M1070.91,266.2a1.5,1.5,0,0,0,0-3,1.5,1.5,0,0,0,0,3Z" transform="translate(-910.86 -204.94)"/><path class="cls-2" d="M1027.48,348a1.5,1.5,0,0,0,0-3,1.5,1.5,0,0,0,0,3Z" transform="translate(-910.86 -204.94)"/><path class="cls-2" d="M1029,362.85a1.5,1.5,0,0,0,0-3,1.5,1.5,0,0,0,0,3Z" transform="translate(-910.86 -204.94)"/><path class="cls-2" d="M1056,367.54a1.5,1.5,0,0,0,0-3,1.5,1.5,0,0,0,0,3Z" transform="translate(-910.86 -204.94)"/><path class="cls-2" d="M1092.83,298.28a1.5,1.5,0,0,0,0-3,1.5,1.5,0,0,0,0,3Z" transform="translate(-910.86 -204.94)"/><path class="cls-2" d="M1053.3,313.15h.4a1.5,1.5,0,0,0,0-3h-.4a1.5,1.5,0,0,0,0,3Z" transform="translate(-910.86 -204.94)"/><path class="cls-2" d="M1057.61,310.7a1,1,0,0,0,0-2,1,1,0,0,0,0,2Z" transform="translate(-910.86 -204.94)"/><path class="cls-2" d="M1059.57,319.7a1,1,0,0,0,0-2,1,1,0,0,0,0,2Z" transform="translate(-910.86 -204.94)"/><path class="cls-2" d="M1028.26,265.3a1,1,0,0,0,0-2,1,1,0,0,0,0,2Z" transform="translate(-910.86 -204.94)"/><path class="cls-2" d="M1020.83,239.09a1,1,0,0,0,0-2,1,1,0,0,0,0,2Z" transform="translate(-910.86 -204.94)"/><path class="cls-2" d="M1008.7,241.83a1,1,0,0,0,0-2,1,1,0,0,0,0,2Z" transform="translate(-910.86 -204.94)"/><path class="cls-2" d="M964.48,334.57a1,1,0,0,0,0-2,1,1,0,0,0,0,2Z" transform="translate(-910.86 -204.94)"/><path class="cls-2" d="M1041.57,362.74a1,1,0,0,0,0-2,1,1,0,0,0,0,2Z" transform="translate(-910.86 -204.94)"/><path class="cls-2" d="M1062.3,360.78a1,1,0,0,0,0-2,1,1,0,0,0,0,2Z" transform="translate(-910.86 -204.94)"/><path class="cls-2" d="M1032.57,356.87a1,1,0,0,0,0-2,1,1,0,0,0,0,2Z" transform="translate(-910.86 -204.94)"/><path class="cls-2" d="M1094,285.26a1,1,0,0,0,0-2,1,1,0,0,0,0,2Z" transform="translate(-910.86 -204.94)"/><path class="cls-2" d="M1090.87,293.87a1,1,0,0,0,0-2,1,1,0,0,0,0,2Z" transform="translate(-910.86 -204.94)"/><path class="cls-2" d="M955.87,263a1,1,0,0,0,0-2,1,1,0,0,0,0,2Z" transform="translate(-910.86 -204.94)"/><path class="cls-2" d="M944.52,269.22a1,1,0,0,0,0-2,1,1,0,0,0,0,2Z" transform="translate(-910.86 -204.94)"/><path class="cls-2" d="M952,270.83c3.86,0,3.86-6,0-6s-3.87,6,0,6Z" transform="translate(-910.86 -204.94)"/><path class="cls-2" d="M940.22,282.17c3.86,0,3.86-6,0-6s-3.87,6,0,6Z" transform="translate(-910.86 -204.94)"/><path class="cls-2" d="M957.43,322.87c3.87,0,3.87-6,0-6s-3.86,6,0,6Z" transform="translate(-910.86 -204.94)"/><path class="cls-2" d="M949.22,352.61c3.86,0,3.86-6,0-6s-3.87,6,0,6Z" transform="translate(-910.86 -204.94)"/><path class="cls-2" d="M1049,359.65c3.86,0,3.87-6,0-6s-3.87,6,0,6Z" transform="translate(-910.86 -204.94)"/><path class="cls-2" d="M1063.48,313.48c3.86,0,3.87-6,0-6s-3.87,6,0,6Z" transform="translate(-910.86 -204.94)"/><path class="cls-2" d="M1064.26,252.43c3.86,0,3.87-6,0-6s-3.87,6,0,6Z" transform="translate(-910.86 -204.94)"/><path class="cls-2" d="M1019.65,251.26c3.86,0,3.87-6,0-6s-3.86,6,0,6Z" transform="translate(-910.86 -204.94)"/><path class="cls-2" d="M1095.3,278v.39a3,3,0,1,0,6,0V278a3,3,0,0,0-6,0Z" transform="translate(-910.86 -204.94)"/></svg>