<svg id="Laag_7" data-name="Laag 7" xmlns="http://www.w3.org/2000/svg" viewBox="0 0 187.31 146.28"><defs><style>.cls-1{fill:#3e3f4c;}.cls-2{fill:#23242d;}</style></defs><title>meteor8</title><path class="cls-1" d="M297.85,566.12A62.38,62.38,0,0,0,262,571c-10.42,4.77-21.74,13.66-26.29,24.5-3.19,7.58-.08,14.08,5,19.79,4.28,4.79,8.5,9.57,12.28,14.76a186.07,186.07,0,0,1,20.22,35.48c2.27,5.24,9.29,5.67,13.68,3.59,8.74-4.15,15.13-11.41,22.09-17.88,6.48-6,13.82-9,22.38-10.94,9.12-2.06,18.49-3,27.45-5.81,4.5-1.38,9.4-3,12.83-6.36,4.71-4.64,5.15-10.68,4.11-16.85-1.82-10.8-4.11-21.57-6.23-32.32-1.66-8.37-3.83-17-8.27-24.36-10.81-18-33.2-20.86-49.67-8.55a62.27,62.27,0,0,0-12.63,13.1c-1.65,2.22-3.19,4.51-4.67,6.84-1.06,1.65-2,4.21-3.78,5.31s-4.77,1.46-6.74,2l-8.28,2.42-19.35,5.65c-5,1.48-8.63,7.07-7,12.3q8,25.37,18.27,49.91c1.92,4.6,5.63,8,11,7.16,4.41-.66,9.3-4.82,8.67-9.82-2.26-18-7.34-35.11-12.88-52.32l-19.29,5.32c7.82,18.75,15.87,37.51,30.26,52.29,5.77,5.93,17.66,1.72,17.07-7.07a129.92,129.92,0,0,0-15-52.77c-2.31-4.35-8.12-6-12.48-4.09-4.87,2.14-6.62,6.72-5.79,11.79a110.06,110.06,0,0,0,15.85,41.4c5,7.91,19.21,5.35,18.63-5.05a312.24,312.24,0,0,0-6.95-50.28l-19.28,5.31L290,617.37c3.66,9.12,8.61,19,20,18.85a10.17,10.17,0,0,0,10-10,149.54,149.54,0,0,0-7.07-48.93,10,10,0,0,0-11-7.16c-4.39.66-9.31,4.83-8.67,9.82a141.62,141.62,0,0,0,13.16,44.52c3.78,7.78,16.32,5.64,18.28-2.39a123,123,0,0,0,.22-57.41c-2.66-11.37-19.08-8.26-19.64,2.66a107.82,107.82,0,0,0,9.39,49c1.89,4.32,7.25,5.23,11.29,4.59,13.77-2.18,15.34-18.86,16.56-29.82,1.44-12.93.68-26.43-6.46-37.7-5.59-8.84-17.69-4.61-18.63,5a131.9,131.9,0,0,0,4.1,47.78c2.15,7.74,5.25,18,15,18.38s12.79-8.19,15.32-15.84c4.67-14.09,8.66-32.29.33-45.89-4.27-7-12.55-11.79-20.6-8.21-7.87,3.49-9.7,11.87-9.53,19.7a89.53,89.53,0,0,0,15.95,49c4.84,6.93,15.72,6.28,18.28-2.39a86.31,86.31,0,0,0-2.53-56.63c-1.87-4.61-5.68-8-11-7.16-4.73.71-8.86,4.76-8.67,9.82a127.31,127.31,0,0,0,7.55,39.39c1.71,4.66,5.81,7.94,11,7.16,4.48-.67,9.18-4.8,8.67-9.82A173.77,173.77,0,0,0,355,571.09l-18.28,7.71,4.83,10.25c2.3,4.88,9.31,6.14,13.68,3.58,5-2.92,5.89-8.77,3.59-13.68l-4.83-10.25c-4.85-10.3-21.54-3-18.28,7.71a145.06,145.06,0,0,1,5.7,27.34L361,601.09A109.23,109.23,0,0,1,354.16,567l-19.65,2.66a68.52,68.52,0,0,1,2.53,46l18.28-2.39a72.06,72.06,0,0,1-12.68-31.24c-.5-3.54.15-7.46-.53-10.9s-7.88,4-7.52,1.23c.08-.68,1.69,4.17,1.47,3.4a29.32,29.32,0,0,1,.7,11.12,66.27,66.27,0,0,1-2.51,11.38c-.51,1.74-1.06,3.46-1.63,5.18-.38,1.14-.77,2.27-1.16,3.41-1.1,2.59-.66,2.3,1.29-.86l5.05-1.36-1.22,0,5,1.37q2.29,3.74.81.16-.57-1.74-1.08-3.48c-.51-1.75-1-3.51-1.42-5.28a107.42,107.42,0,0,1-2.36-12.57,122.26,122.26,0,0,1-.11-26.36l-18.64,5c4.4,6.93,4.73,14.67,4.19,22.68a96.12,96.12,0,0,1-1.39,11.6,30.16,30.16,0,0,0-.88,3.71c-.67,1.12-.82,1.41-.46.88,2-.89,2.1-1.14.4-.72L332,606.25a85.81,85.81,0,0,1-6.66-38.92L305.67,570a100.23,100.23,0,0,1-.23,46.78l18.28-2.39A111.9,111.9,0,0,1,313.29,580l-19.64,2.66A132.24,132.24,0,0,1,300,626.22l10-10c-7.15.13,2.51.41,1.75.84a27.05,27.05,0,0,1-1.89-3.49c-1.55-3.47-2.83-7.11-4.24-10.64l-9.15-22.78c-4.7-11.73-22.14-7.54-19.28,5.31a278.38,278.38,0,0,1,6.23,45l18.63-5a95.94,95.94,0,0,1-13.83-36.62l-18.28,7.7a105.8,105.8,0,0,1,12.26,42.68l17.07-7.07c-11.84-12.16-18.67-28-25.11-43.47-2.08-5-6.63-8.55-12.31-7-5,1.39-8.64,7.14-7,12.31,4.94,15.35,10.15,30.93,12.17,47l19.64-2.66q-10.24-24.54-18.26-49.9l-7,12.3L290,592.32c4.79-1.39,9.57-2.75,13.48-6,3.43-2.84,5.7-6.58,8.07-10.29,5.64-8.84,20.46-26.46,31-13.55,3.85,4.71,5.42,11.25,6.74,17.08,2,8.91,3.54,17.94,5.27,26.9l1.26,6.49c1.42,7.33.71-1,2.2.6-.18-.19-10.45,3.19-11.46,3.42-8.08,1.8-16.33,2.8-24.34,4.94A62.41,62.41,0,0,0,297.1,635c-6.73,5.8-12.15,12.94-20.33,16.82l13.69,3.59a186.68,186.68,0,0,0-15.26-28.33c-3.18-4.84-6.61-9.5-10.19-14.05-1.62-2-3.27-4.08-5-6.06s-3.67-5.1-5.72-6.4c-.68-.43-1.24-2.65-.46.82.68,3,.69.81,1.78-.64a36.74,36.74,0,0,1,3.6-4,40.64,40.64,0,0,1,10.21-7.27,39.16,39.16,0,0,1,23.07-4.09c5.34.8,10.75-1.34,12.31-7,1.29-4.73-1.62-11.5-7-12.31Z" transform="translate(-228.94 -534.08)"/><path class="cls-1" d="M259.65,598.38l-16.16,26.36c-3.7,6,.22,12.35,6,14.69a60.27,60.27,0,0,0,30.29,3.91c5.35-.69,10-4.1,10-10,0-4.86-4.61-10.7-10-10a47.61,47.61,0,0,1-25-3.2l6,14.69,16.16-26.35c6.75-11-10.54-21.06-17.27-10.1Z" transform="translate(-228.94 -534.08)"/><path class="cls-1" d="M299.84,642.29q17.39,12,35.23,23.26c5.49,3.48,11.62,8.66,18,10.38,7.61,2.06,13.21-2.87,18.88-7.06,10.37-7.65,23.54-14.73,29-27,5.74-12.94,9.29-27.18,13.71-40.62,1.39-4.24-.95-9.06-4.6-11.29q-23.85-14.57-46.22-31.34c-6.48-4.85-14.74,1.84-15,8.64a388.55,388.55,0,0,1-5.13,48.24c-.91,5.31,1.41,10.77,7,12.3,4.8,1.32,11.38-1.63,12.3-7a433.59,433.59,0,0,0,5.84-53.55l-15.05,8.63Q376,592.68,399.9,607.25L395.3,596c-3.73,11.36-7.39,22.75-11.21,34.09-3.29,9.76-12.84,14.59-20.76,20.44-2.27,1.67-4.53,3.37-6.81,5-1,.7-3.66,1.91-.12,1.13s.13-1.26-1.47-2.25q-7.35-4.54-14.63-9.2Q325,635.37,309.93,625c-4.45-3.06-11.1-.84-13.68,3.58-2.9,5-.88,10.62,3.59,13.68Z" transform="translate(-228.94 -534.08)"/><path class="cls-1" d="M323,634.18a53,53,0,0,0,34,24.29c5,1.06,11.2-1.42,12.3-7l11.53-58c2-9.93-9-16.46-16.72-9.73C353.49,593,350.64,608.06,346.8,621s-12.24,29.68,1.22,39.58c3.17,2.34,9.63,1.64,12.12-1.56A139.2,139.2,0,0,0,381,622c4-10.78,11.79-29.95-1-37.61-6-3.61-12.36.14-14.69,6a131.18,131.18,0,0,0-9,54.83c.47,9.53,13.6,14.1,18.64,5q13-23.31,23.7-47.76c2.17-4.94,1.45-10.73-3.58-13.68-4.87-2.84-10.73-1-13.69,3.59a108.8,108.8,0,0,0-14.65,34.25c-1.87,7.89,4.79,13.62,12.3,12.3,7.74-1.35,12.67-7.65,16.61-13.92,4.44-7.08,8.62-14.33,12.62-21.67,5.23-9.59-8-21-15.7-12.12l-14.16,16.24c-3.54,4.07-4,10.14,0,14.14,3.63,3.62,10.58,4.09,14.15,0l14.15-16.24-15.7-12.12c-3.12,5.71-6.34,11.36-9.71,16.93-1.75,2.88-3.88,8.83-7.58,9.48L386,632a92.38,92.38,0,0,1,12.64-29.48l-17.27-10.09q-10.71,24.44-23.7,47.76l18.63,5a116.88,116.88,0,0,1,8.33-49.52l-14.69,6c-.15-.09-3.32-4.39-2.68-4.63-.26.1-.6,3-.68,3.33-.55,2.5-1.18,5-1.88,7.43a109.19,109.19,0,0,1-4.49,12.81A110.9,110.9,0,0,1,346,644.82l12.12-1.56,2.32,3.75v-1.26c.06-.15.29-1.34.4-1.79.6-2.32,1.36-4.61,2.05-6.9l4.82-16.19c2.39-8,4-17.26,10.54-23l-16.72-9.73-11.53,58,12.31-7c-9.26-2-17-7-22-15.1-6.75-10.94-24.05-.9-17.27,10.09Z" transform="translate(-228.94 -534.08)"/><path class="cls-2" d="M367.74,557c-7.75-6.29-14.33-14.4-23.23-19.19a30.71,30.71,0,0,0-28.31-.47c-9.66,4.58-16.54,13.48-20.92,23-2.3,5-3.36,10.78-8,14.23-4.15,3.1-8.81,5-12.21,9.08s2.35,9.61,5.66,5.65c5.54-6.62,14.27-8.24,18.09-16.66,4.18-9.2,7.33-18.45,15.66-24.91,8.05-6.24,18.33-7.59,27.21-2.33,7.67,4.55,13.51,11.67,20.39,17.25,4,3.22,9.65-2.41,5.65-5.66Z" transform="translate(-228.94 -534.08)"/><path class="cls-2" d="M293.48,563.1c-8.5,1-17,2.29-25.4,3.87-7.08,1.33-14.59,2.66-20.72,6.68-5.81,3.81-8.48,9.51-12.09,15.18-3.34,5.24-7.57,9.91-6,16.59,1.29,5.49,5.63,9.28,8.1,14.16,3,5.9-1.3,12.67,3.19,18.3,4,5,12.26,7.59,18.07,9.91a12.17,12.17,0,0,0,8.62.6c2.91-.94,5.4-3.7,8.54-3.6,5.15.17,5.14-7.83,0-8-5.32-.17-9.59,5.34-14.56,3.47-2.67-1-5.26-2.38-7.86-3.57s-5.66-2.06-6.81-4.66c-1.23-2.78.18-6.33,0-9.32a16.71,16.71,0,0,0-1.45-5.51c-1.86-4.23-5.33-7.46-7.27-11.61-2.47-5.27,2.19-9.19,4.78-13.42,3.21-5.24,5.67-10.27,11.45-13.12,5.53-2.73,12-3.61,18-4.71q10.65-2,21.41-3.24c5-.62,5.11-8.63,0-8Z" transform="translate(-228.94 -534.08)"/><path class="cls-2" d="M259.24,647a188.23,188.23,0,0,0,19.21,29c1.31,1.63,4.34,1.47,5.66,0,6.77-7.55,14.26-15.41,22.67-21.15,2.88-2,4.08-1.74,7-.2,2,1,3.93,2.19,5.84,3.4,4.06,2.57,7.93,5.44,11.8,8.29,6.81,5,15.28,12.79,24,13.95,8.18,1.09,15.89-7.48,21.68-12.17q5.78-4.67,11.36-9.58c3.56-3.14,7.86-6.28,10.27-10.46,2.07-3.57,2.37-7.85,3.17-11.81a132.38,132.38,0,0,1,3.81-14.55,125.36,125.36,0,0,1,5.37-13.87c1.7-3.71,5.12-8.06,5.18-12.27.12-7.52-9.26-14.08-14.7-17.77-9.61-6.52-19.75-13.14-30-18.67-3.78-2-7.07-2.12-11.08-.69-6,2.15-11.94,4.68-17.9,7-4.74,1.86-2.68,9.6,2.12,7.72l12.54-4.91a58.85,58.85,0,0,1,6.75-2.62c2.57-.64,4.24.83,6.36,2.13,7.92,4.9,15.86,9.76,23.73,14.73a56.2,56.2,0,0,1,10.13,7.62c1.47,1.5,3.35,3.19,3.42,5.35s-1.78,4.7-2.75,6.72a140.74,140.74,0,0,0-8.7,23.33c-1.15,4.24-2,8.53-2.82,12.85-.9,4.86-2.83,7.5-6.44,10.79q-10.6,9.66-22,18.42c-3.85,3-6.74,6-11.77,3.54a87.09,87.09,0,0,1-10.8-6.7c-6.95-4.86-13.54-10.26-20.84-14.62-3.14-1.87-7-4.42-10.7-4.89-4.17-.52-7.24,2.33-10.31,4.73a173.48,173.48,0,0,0-22.07,20.69h5.66a178,178,0,0,1-18-27.39c-2.42-4.55-9.33-.51-6.9,4Z" transform="translate(-228.94 -534.08)"/><path class="cls-2" d="M407.57,601a326.43,326.43,0,0,1-14.29,39.92c-2,4.68,4.85,8.75,6.9,4a340.94,340.94,0,0,0,15.11-41.83c1.42-5-6.29-7.08-7.72-2.13Z" transform="translate(-228.94 -534.08)"/><path class="cls-2" d="M382.22,588c-7.5,9.74-4.26,23.32,6.09,29.46,5,3,9.53-4.81,4.54-7.77-6.55-3.88-7.35-11.31-2.86-17.15,3.54-4.58-4.28-9.07-7.77-4.54Z" transform="translate(-228.94 -534.08)"/><path class="cls-2" d="M337.34,645.88c2.75-2.27,5.87-.11,6.52,2.82,1.24,5.65,9.92,3.26,8.68-2.39-2.23-10.14-14-13.06-21.56-6.79-4.47,3.69,1.93,10,6.36,6.36Z" transform="translate(-228.94 -534.08)"/><path class="cls-2" d="M258.3,627c6.5,1.43,11.18-3.71,11.37-10,.18-5.88-3.17-11.12-7.94-14.29s-9.35,4.58-4.54,7.77a7.78,7.78,0,0,1,3.13,4.07,6,6,0,0,1,.35,2.45c-.07.72-.46,1.17,0,1.28-5.64-1.24-8.05,7.43-2.39,8.67Z" transform="translate(-228.94 -534.08)"/><path class="cls-2" d="M269.55,599.29c5.79,0,5.8-9,0-9s-5.81,9,0,9Z" transform="translate(-228.94 -534.08)"/><path class="cls-2" d="M333.72,554.94c5.79,0,5.8-9,0-9s-5.8,9,0,9Z" transform="translate(-228.94 -534.08)"/><path class="cls-2" d="M280.5,600.42c3.22,0,3.22-5,0-5s-3.22,5,0,5Z" transform="translate(-228.94 -534.08)"/><path class="cls-2" d="M273.72,604.63a1.5,1.5,0,0,0,0-3,1.5,1.5,0,0,0,0,3Z" transform="translate(-228.94 -534.08)"/><path class="cls-2" d="M324.33,549.33a1.5,1.5,0,0,0,0-3,1.5,1.5,0,0,0,0,3Z" transform="translate(-228.94 -534.08)"/><path class="cls-2" d="M321.2,558.2a1.5,1.5,0,0,0,0-3,1.5,1.5,0,0,0,0,3Z" transform="translate(-228.94 -534.08)"/><path class="cls-2" d="M330.07,562.83c3.86,0,3.86-6,0-6s-3.87,6,0,6Z" transform="translate(-228.94 -534.08)"/><path class="cls-2" d="M353,632.74c3.86,0,3.87-6,0-6s-3.86,6,0,6Z" transform="translate(-228.94 -534.08)"/><path class="cls-2" d="M359.28,635.92c2.58,0,2.58-4,0-4s-2.57,4,0,4Z" transform="translate(-228.94 -534.08)"/><path class="cls-2" d="M379.63,577c2.58,0,2.58-4,0-4s-2.58,4,0,4Z" transform="translate(-228.94 -534.08)"/><path class="cls-2" d="M376,585.31c2.57,0,2.58-4,0-4s-2.58,4,0,4Z" transform="translate(-228.94 -534.08)"/><path class="cls-2" d="M368.15,572.79c2.58,0,2.58-4,0-4s-2.57,4,0,4Z" transform="translate(-228.94 -534.08)"/><path class="cls-2" d="M322.24,597.31c2.57,0,2.58-4,0-4s-2.58,4,0,4Z" transform="translate(-228.94 -534.08)"/><path class="cls-2" d="M317,617.65c2.58,0,2.58-4,0-4s-2.57,4,0,4Z" transform="translate(-228.94 -534.08)"/><path class="cls-2" d="M330.59,603.05c2.57,0,2.58-4,0-4s-2.58,4,0,4Z" transform="translate(-228.94 -534.08)"/></svg>