<svg id="Laag_9" data-name="Laag 9" xmlns="http://www.w3.org/2000/svg" viewBox="0 0 62.87 76.23"><defs><style>.cls-1{fill:#3e3f4c;}.cls-2{fill:#23242d;}</style></defs><title>meteor2</title><path class="cls-1" d="M494.65,353.18c-13,1.6-27.68,9-24.58,24.65,1.41,7.07,5.23,14.08,7.89,20.77,1.36,3.41,2.39,6.94,5.13,9.52a11.65,11.65,0,0,0,13.45,1.4c3.36-2,5.93-5.56,8.51-8.4l8-8.78c4.65-5.1,9.92-10.37,11.89-17.19a24,24,0,0,0-3.3-19.74c-3.84-5.9-9.42-12.75-16.56-14.4-5.15-1.19-11,1.56-12.3,7a108.06,108.06,0,0,1-13.63,32.08c-6.88,10.93,10.42,21,17.27,10.1a126,126,0,0,0,15.65-36.87l-12.3,7q-1.17-1.32.67.62c.72.75,1.43,1.51,2.12,2.28a14.11,14.11,0,0,1,3,4.28c.73,2.22-.39,3.51-1.8,5.35-2.64,3.45-5.9,6.55-8.83,9.76-3.4,3.73-6.63,8-10.47,11.23l7.07-2.93-1.34.16,7.08,2.93q1.51,2.55,0-.7l-.73-1.81L494.36,386c-1.38-3.46-2.5-7.2-4.18-10.52l-.49-1.49c-.1-1-.28-.54-.53,1.26-.08-.07.49-.48.62-.5,1.53-.2,3.58-1.44,4.87-1.6,5.36-.66,10-4.12,10-10,0-4.89-4.6-10.66-10-10Z" transform="translate(-466.41 -337.77)"/><path class="cls-2" d="M529.27,370.63c-.43-6.53-1-13.48-4.38-19.25-3.22-5.46-8.58-8.69-14.43-10.76-4.65-1.65-12.19-4.68-16.7-1.34-2.74,2-3,5.61-3.65,8.73l-2.82,13.41c-.92,4.4,5.82,6.28,6.75,1.86,1.1-5.2,1.5-11.35,3.43-16.28,1.11-2.85,2.59-2,5.24-1.37a60.57,60.57,0,0,1,6.61,2c10.41,4,12.28,12.89,12.95,23,.3,4.47,7.3,4.5,7,0Z" transform="translate(-466.41 -337.77)"/><path class="cls-2" d="M488.4,351.3c-9.11,4.6-24.71,10.79-21.58,23.4,1.67,6.76,4.38,13.4,6.58,20,2.05,6.16,4.05,12.32,8,17.58a3.6,3.6,0,0,0,4.79,1.25c8.93-5.1,18.38-7.4,25.07-15.78,6-7.52,9.46-16.81,16.38-23.63,3.21-3.16-1.74-8.11-5-4.95-6.49,6.4-10.06,14.69-15.23,22.05-6.33,9-15.74,11.09-24.81,16.27l4.79,1.25c-6.22-8.3-8.5-19.56-11.73-29.27a43.72,43.72,0,0,1-2.13-6.63c-.65-4,1.67-5.59,4.67-7.61a128.3,128.3,0,0,1,13.7-7.89c4-2,.48-8.07-3.54-6Z" transform="translate(-466.41 -337.77)"/><path class="cls-2" d="M489.92,392.27c1.51-1.87,3.43-1.63,4.42.57.78,1.72,3.28,2.14,4.79,1.25a3.58,3.58,0,0,0,1.25-4.79,9.25,9.25,0,0,0-15.41-2,3.62,3.62,0,0,0,0,4.95c1.23,1.23,3.76,1.47,4.95,0Z" transform="translate(-466.41 -337.77)"/><path class="cls-2" d="M506.44,357.45c4.51,0,4.51-7,0-7s-4.51,7,0,7Z" transform="translate(-466.41 -337.77)"/><path class="cls-2" d="M514.27,360.12c2.57,0,2.58-4,0-4s-2.58,4,0,4Z" transform="translate(-466.41 -337.77)"/><path class="cls-2" d="M503.83,361.73a1,1,0,0,0,0-2,1,1,0,0,0,0,2Z" transform="translate(-466.41 -337.77)"/><path class="cls-2" d="M509.57,363.29a1,1,0,0,0,0-2,1,1,0,0,0,0,2Z" transform="translate(-466.41 -337.77)"/><path class="cls-2" d="M483.49,381.49c3.21,0,3.22-5,0-5s-3.23,5,0,5Z" transform="translate(-466.41 -337.77)"/><path class="cls-2" d="M490.27,382.05a1.5,1.5,0,0,0,0-3,1.5,1.5,0,0,0,0,3Z" transform="translate(-466.41 -337.77)"/><path class="cls-2" d="M488.7,373.16c2.58,0,2.58-4,0-4s-2.58,4,0,4Z" transform="translate(-466.41 -337.77)"/></svg>