<svg id="Laag_13" data-name="Laag 13" xmlns="http://www.w3.org/2000/svg" viewBox="0 0 358.68 169.32"><defs><style>.cls-1{fill:#3e3f4c;}.cls-2{fill:#23242d;}</style></defs><title>meteor6</title><path class="cls-1" d="M482,827.53q4.1-12.79,8.64-25.45,2.11-5.87,4.34-11.7c.42-1.11.87-3.26,1.75-4.18-.05,0-.54-.11,1-.18a63.52,63.52,0,0,1,40.71,12.5c6.31,4.73,11.07,11,19.75,10.49,8-.43,16.2-6.75,22.95-10.66,13.27-7.71,26.5-16.05,41.11-21C638,772,655.62,771.78,668,759.3l-15.71-2a58.67,58.67,0,0,0,38.62,25.29,102.46,102.46,0,0,1,24.55,7.66l25.37,11.63,26.28,12c5.1,2.34,13.26,4.41,15.57,10.11s1,12.54,0,18.23c-1.31,7.14-3.06,14.48-7.24,20.54-7.73,11.21-23.09,13.57-35.71,13.94-17.94.53-35.89-2.18-53.67-4.17-37-4.14-74.11-8.17-111.14-12.44-17.91-2.07-36.75-4.69-52.82-13.4-11.81-6.39-26.26-20.42-18.41-35.08,6.07-11.34-11.19-21.46-17.27-10.09-9.06,16.92-3.95,36.81,9,50.16,12.72,13.08,31.11,19.92,48.58,23.72,19,4.14,38.66,5.56,58,7.73l62.3,7c20.34,2.27,40.76,5.26,61.2,6.38,17.44,1,36.63.14,52-9.09,16-9.62,22.59-26.82,25.21-44.53,1.21-8.2,1.87-16.88-1-24.84-3.12-8.7-9.46-14.38-17.68-18.27-21.08-10-42.34-19.77-63.68-29.18a89.52,89.52,0,0,0-15.7-5.69c-5.45-1.27-11-1.82-16.4-3.51a36.12,36.12,0,0,1-18.7-14.21c-3.54-5.27-10.94-6.85-15.71-2-4.44,4.49-10.28,6.21-16.28,7.67-7.45,1.82-14.94,3.21-22.18,5.79-15.69,5.59-29.94,14.14-44.28,22.46-3.23,1.87-6.46,3.72-9.73,5.52-1.14.62-3,2.14-4.28,2.36,1.31-.22.71.11-.42-1.18-5-5.67-12.91-10.2-19.65-13.4A82.94,82.94,0,0,0,513.5,767c-8-1.17-17.53-2.36-25.17,1-9.5,4.21-12,15.32-15.3,24.23q-5.47,14.85-10.28,30c-3.94,12.29,15.37,17.55,19.28,5.32Z" transform="translate(-457.12 -731.02)"/><path class="cls-1" d="M510,778.14c-6-1-11.7-.51-16.93,3-4.4,2.93-6.59,8.88-3.59,13.69,12.26,19.64,37,26.42,57.92,17.35,8.15-3.54,5.31-16.26-2.39-18.28l-38.43-10.08-5.32,19.28,50.83,9.5V793.28a93.52,93.52,0,0,1-56.54-10.34c-4.7-2.51-10.94-1.27-13.68,3.59-7.72,13.72-12.47,29.56-6,44.75,5.55,13.14,17.36,22.21,30.5,27,15.72,5.74,33.24,3.67,49.31.76,7.68-1.39,15.85-2.54,21.77-8.17s7.2-14.86,1.34-21.11-17-7.81-24.79-10.34l-28.47-9.27-2.66,19.64q49.08-6,97.7-15.06l-5.31-19.29a420.89,420.89,0,0,1-80.83,10.42L537,825.52a310.57,310.57,0,0,0,114.12-41c8.17-4.91,5.17-19.17-5-18.64A150.73,150.73,0,0,0,559,799c-3.4,2.73-3.62,8.59-1.56,12.11,2.39,4.09,6.87,5.34,11.29,4.6a303.19,303.19,0,0,0,96.94-34.15A10,10,0,0,0,669.73,769c-2.14-4.86-6.73-6.61-11.8-5.79-30.42,5-58.65,18.44-82.24,38.15-3.07,2.57-4,8.83-1.57,12.12,12.67,17.12,35.55,9.29,52.83,5.17a566.75,566.75,0,0,0,61.73-18.54c5.08-1.84,8.5-6.8,7-12.3-1.41-5.12-7.12-8.56-12.3-7a97.08,97.08,0,0,1-49.72,2c-12.51-2.8-17.81,15.9-5.32,19.28A688.66,688.66,0,0,0,732,821.81c10.17,1.15,13.16-14,5-18.63-12.59-7.12-26.71-7.89-40.79-9.09-9.56-.82-22.46-2.4-28.57-10.87l-8.63,15a190.47,190.47,0,0,1,91,30.52l2.39-18.28c-25.72,4.27-44.5-20.23-55.38-39.85L683.4,784.35c30.69,18.67,62,37.32,96.9,46.86,11,3,17.42-12.4,7.7-18.28l-60.75-36.74c-9.66-5.84-20.36,7.79-12.12,15.71a183.13,183.13,0,0,0,63.4,39.59c11,4.08,17-12.47,7.71-18.28-27.31-17.13-55.73-34.76-87.69-41.52-26.47-5.6-55.13-3-78.74,11-12.6,7.43-23.29,18.14-29.89,31.25-3.14,6.26.57,15.63,8.64,15.05a759.31,759.31,0,0,0,130.62-21c9-2.28,10-17.68,0-19.29-20.59-3.31-40.55,1.44-60.64,5.65l-59.07,12.38c-4.81,1-7.85,6.36-7.16,11,.79,5.25,4.73,8.13,9.82,8.68q75,8.08,150.41,11c12.88.5,12.83-19.41,0-20q-60.84-2.77-121.43-9.29c-9.64-1-14,14.72-5.05,18.63a258.08,258.08,0,0,0,96.73,22,240.24,240.24,0,0,0,24.3-.54c7.75-.57,16.35-.87,21.4-7.73,5.21-7.08,3.21-16.41-2.73-22.41-5.3-5.35-12.85-5.54-18.64-9.77L747,825.61c9.56,4.72,20.53,5.92,30.56,1.79,7.16-2.95,9.66-10.57,4.41-16.72a54.53,54.53,0,0,0-28.31-17.36C744.29,791,736.47,803,744,810a193.07,193.07,0,0,0,38,28l5-18.63C723,810.9,658.45,808.38,594,805.92v20l73.38,1.5v-20l-138.1,18c-5.36.7-10,4.1-10,10,0,5.71,4.59,9.65,10,10a114.43,114.43,0,0,0,62.55-14.2c7-3.86,6.3-16.87-2.39-18.27a271,271,0,0,0-55.3-3.5c-9,.4-18.38.87-27.18,2.67-7.59,1.56-15.92,7.62-14.83,16.35.72,5.7,4,9.54,10,10a66.63,66.63,0,0,0,41.78-10.94c7.1-4.72,6.14-15.75-2.39-18.28a116.63,116.63,0,0,0-39.78-4.75c-10.94.66-30,3.62-26.21,19.42,2.46,10.34,17.06,15,26.29,16.59,10.65,1.87,22.54.62,29.68-8.46,3.35-4.27,4.18-9.94,0-14.15-5.93-6-12.58-12-21.07-13.86-8.31-1.81-17.5.35-23.12,7A19.21,19.21,0,0,0,486,833.41c5.23,8.23,15.73,10.47,22.87,3.37,11-10.91,11.37-30.39.23-41.34-7.49-7.37-19.26-6.63-24.62,2.84-4.53,8-7.31,17.48-10.78,26L493,829.58a318.2,318.2,0,0,0,8-37.9c.66-4.47-.44-8.86-4.59-11.29A10.19,10.19,0,0,0,484.27,782c-9.8,9.8-15.19,22.1-16.6,35.79-1.15,11.1,17.95,13.81,19.64,2.66a38.24,38.24,0,0,1,23.22-30.16c5-2.15,6.08-9.42,3.59-13.68-3-5.12-8.71-5.75-13.69-3.59A56.2,56.2,0,0,0,468,815.08l19.64,2.66a36.17,36.17,0,0,1,10.74-21.65l-16.71-9.73a315.86,315.86,0,0,1-8,37.9,10.16,10.16,0,0,0,7,12.3c5.73,1.58,10.25-2,12.3-7l5.81-14.23c.7-1.72,2.19-4,2.38-5.86l.57-1.12L495,809.58c0,.14,1.07,1.11,1.14,1.41.75,3.66,2.63,8.68-1.27,11.69l5-1.36c2.11.2,1.63.56,2.84,1.08.71.31,0,1.34.24-.27-.51,2.94-1.3,1.38,1.35,1.23,5.16-.31,9.77,5.35,13,8.64V817.85c-2.64,3.37-5.2,3.91-9.55,3.44a38.81,38.81,0,0,1-8.69-2.3,32.76,32.76,0,0,1-3.3-1.37l-1.19-.58q-5.17-3.48-1.75,8.53c1.33.16,5-.83,7-1a104.75,104.75,0,0,1,13.14-.2,97.31,97.31,0,0,1,23.19,4.11l-2.39-18.28a48.8,48.8,0,0,1-31.68,8.21l10,10a7.63,7.63,0,0,0-1.71,3.25.11.11,0,0,0,0,.13c.34.21,2.62-.56,3-.63,3.35-.52,6.76-.79,10.13-1.08,6.7-.58,13.43-.89,20.15-.93a243.84,243.84,0,0,1,40.39,3l-2.39-18.28a95,95,0,0,1-52.46,11.47v20l138.1-18c5.36-.69,10-4.1,10-10a10.14,10.14,0,0,0-10-10L594,805.92c-12.9-.27-12.84,19.51,0,20,64.47,2.46,129,5,193.06,13.52,10.18,1.35,13.1-14.12,5.05-18.64a171,171,0,0,1-34-24.91l-9.73,16.72a36.35,36.35,0,0,1,19.49,12.22l4.41-16.72c-5,2.07-10.13,2.7-15.14.23-11.71-5.79-20.41,9.73-10.1,17.27a32.44,32.44,0,0,0,8.14,4c1,.35,5.45,2.67,6.35,2.45,0,0,.15.35.24.33s2-4.9,2-4.89c-.38-.4-6,.7-6.66.75A241.46,241.46,0,0,1,718.4,828a231,231,0,0,1-72.25-18.48l-5,18.63q60.55,6.52,121.43,9.29v-20q-75.37-2.92-150.41-11L614.79,826,670,814.45c17.34-3.64,36-9.32,53.82-6.45V788.71A726.6,726.6,0,0,1,598.56,809l8.63,15c10-19.78,29.86-30.41,51.08-34.06,25.61-4.4,51.62,3.93,74.35,15.24,15,7.49,29.31,16.39,43.53,25.31l7.7-18.27a159,159,0,0,1-54.57-34.45l-12.12,15.7,60.75,36.74,7.71-18.27c-33.29-9.09-62.89-27.06-92.13-44.85-8.75-5.33-18.42,5.12-13.68,13.68,16,28.76,42.37,54.94,78,49,9.08-1.5,8.94-14,2.39-18.27A211.3,211.3,0,0,0,659,778.27c-7.19-.47-13,9-8.64,15.05,8.55,11.84,21.43,17.49,35.6,19.58,13.52,2,28.68.62,40.94,7.55l5-18.64a654.73,654.73,0,0,1-98.34-18.9l-5.32,19.28a118.09,118.09,0,0,0,60.35-2.05l-5.31-19.28c-17.24,6.24-34.76,11.7-52.53,16.25q-12.86,3.3-25.86,6c-3,.61-11.91,2.6-13.59.33l-1.56,12.12c21-17.54,46.5-28.63,73.42-33l-7.71-18.28a286.94,286.94,0,0,1-92.15,32.13l9.72,16.72c20.61-16.53,46.68-25.9,73-27.26L641,767.21a296.21,296.21,0,0,1-109.35,39c-11.2,1.66-8.45,20,2.66,19.64a449.58,449.58,0,0,0,86.14-11.13c5.27-1.21,8.37-7.26,7-12.3-1.53-5.57-7-8-12.3-7q-46,8.65-92.39,14.35c-4.94.6-9.19,3.34-9.82,8.67a10.09,10.09,0,0,0,7.16,11l23,7.47L555,840.82l5.51,1.8c1.29.42,3.62,1.79,4.85,1.6-1.88.29-7.62-8.16-1.73-7.83.91.05-3.43,1.49-2.69,1.25a86.18,86.18,0,0,1-10.7,2.13,110.24,110.24,0,0,1-23,2.11c-11.29-.33-23.13-4.11-30.29-13.37-7.76-10-3.5-21.93,2.1-31.89l-13.68,3.59c22.3,11.9,47,15.88,71.95,12.35,9.74-1.38,9.35-17.54,0-19.28l-50.83-9.5c-5.31-1-10.79,1.47-12.3,7a10.12,10.12,0,0,0,7,12.3l38.43,10.08-2.38-18.27c-10.62,4.6-24.52-.5-30.56-10.18l-3.59,13.68a10.33,10.33,0,0,1,1.52-1c5.32.9,10.77-1.4,12.3-7,1.32-4.8-1.63-11.4-7-12.3Z" transform="translate(-457.12 -731.02)"/><path class="cls-1" d="M758.53,809.73A60,60,0,0,1,780,799.66c6.34-1.5,7.32-.16,8.95,5.9,4.55,16.92,4.51,35.88,3.48,53.24h20A86.42,86.42,0,0,0,787.12,794c-4.83-4.83-15.56-3.3-16.71,4.41a163,163,0,0,0-1.63,36c.91,12.71,20.52,13,20,0-.83-20.32-10.5-41.34-33.19-43l10,10a91.7,91.7,0,0,0-6.24-32c-4-9.86-9.39-22.34-20.41-25.9a16.6,16.6,0,0,0-16.32,3.42c-3.74,3.45-5.39,8.17-7.66,12.58a103.15,103.15,0,0,1-18.23,25.19l15.71,12.12a135.57,135.57,0,0,1,10-14.16c2.19-2.67,6.54-9.64,9.73-10.08h-5.31l-.33-.18-3.59-3.58c-.19-1.53-.23-1.43-.12.31l.05,1.4c0,1.42.09,2.84.18,4.26a72.84,72.84,0,0,0,1.2,9.66A28.89,28.89,0,0,0,733,800.27c5.92,5.22,14,2.81,16.71-4.42,3.64-9.85,3.15-21.85-3.21-30.48-7.49-10.17-21.18-12.21-33-13.27a93.08,93.08,0,0,0-36.5,4.13c-6.23,2-14.42,4.08-16.79,10.86-2.3,6.58-.39,13.36,4.37,18.28,9,9.28,23.1-4.87,14.15-14.14.84.87-.25,3.94.76,1.18l-4.59,6a74.93,74.93,0,0,1,41.64-5.95c4.32.64,11.67,1.25,14.12,5.12s1.19,9-.27,13l16.71-4.42c-4-3.58-4.08-9.14-4.29-14.26-.17-4.07,0-8.38-2-12.07a13.17,13.17,0,0,0-11.44-6.95c-8.54,0-14.55,7.67-19.56,13.59a171.9,171.9,0,0,0-14.76,20.21c-6,9.66,7.77,20.22,15.7,12.12a128,128,0,0,0,15.39-19,108.4,108.4,0,0,0,6-10.21c.89-1.72,1.69-3.47,2.52-5.22.3-.66.62-1.32,1-2q2.21-3-2.13.19c-1.17-.33-1.38-.29-.63.1l1.12,1.13a23.38,23.38,0,0,1,3,4.73,66.67,66.67,0,0,1,4.52,10.19,75.12,75.12,0,0,1,4,22.66c.13,5.71,4.49,9.59,10,10,10.52.79,12.86,14.92,13.19,23h20a139.22,139.22,0,0,1,.92-30.67L773,808.1a66.56,66.56,0,0,1,19.43,50.7c-.61,12.9,19.25,12.79,20,0a221.61,221.61,0,0,0-.64-35.32c-1-10.5-1.81-22.28-6.84-31.8-11.66-22.07-41-10.35-56.5.78-4.37,3.15-6.49,8.71-3.58,13.68,2.52,4.33,9.27,6.76,13.68,3.59Z" transform="translate(-457.12 -731.02)"/><path class="cls-1" d="M701.3,762.83c-8.88-6.29-14-14.26-19.68-23.27-8.34-13.29-22.48-5.82-33.19-.31a179.58,179.58,0,0,0-52.28,40.94c-3.56,4.06-4,10.15,0,14.14,3.64,3.64,10.57,4.08,14.15,0a162.23,162.23,0,0,1,27.84-25.42,170.26,170.26,0,0,1,16-10.06q4.32-2.39,8.78-4.52c1.24-.59,2.47-1.21,3.74-1.73.42-.2.84-.38,1.27-.55,1.83-.57,1.94-.59.35,0l-4.41-2.57c1.92,1.66,3.06,5,4.48,7.23a91.59,91.59,0,0,0,6.93,9.24,83.85,83.85,0,0,0,15.9,14.19c4.41,3.13,11.12.79,13.68-3.59,2.93-5,.83-10.54-3.59-13.68Z" transform="translate(-457.12 -731.02)"/><path class="cls-2" d="M748.05,802.68c10.38-6,19.76-15.17,31.74-17.84,11.44-2.56,20.28,3.07,23.6,14,3.1,10.2,2.58,21.32,2.91,31.85.18,5.82,4.18,36.3-8.95,31.18-2.4-.94-4.76,1.06-5.54,3.14-6.17,16.6-25.12,22.25-41,24.05-19.08,2.16-38.74,3.25-57.89,1.58-19.64-1.71-39.2-4.91-58.74-7.53l-59.86-8c-18.87-2.52-38.33-4.25-56.27-11A72.12,72.12,0,0,1,497,852c-6-5.08-9.64-11-13.7-17.52-1.49-2.41-3.32-4.62-6-5.67-3.53-1.38-8.56,1.17-10.51-2.83s.78-10.48,1.95-14.54q2-6.87,4.3-13.62c2.68-7.79,5.21-18,11.67-23.67,6.05-5.29,14.84-5.09,22.38-4.51,8.71.68,18.57,1.36,26.31,5.78,7.4,4.22,11.22,12.25,17.18,18,6.54,6.35,14.67,8.33,23.54,9,8.16.61,19.17.16,24.24,7.94,3.15,4.83,10.95.33,7.77-4.54-4.48-6.88-11.76-10.13-19.68-11.34-9-1.38-19.57.28-27.27-5.47-6.79-5.08-10.48-13.26-17.11-18.56-6.81-5.46-15.32-7.45-23.79-8.6-16.55-2.25-35.55-3.69-45.34,12.71-4.91,8.24-7.78,18.08-10.67,27.17-2.68,8.42-7.89,20.19-3.26,28.76a13.06,13.06,0,0,0,7.62,6.48c1.88.53,3.57.12,5.45.19,2.9.11,3.38,1.69,4.7,4.1a62.42,62.42,0,0,0,16.22,19c15.36,12.07,34.47,17.09,53.45,20.06,44.4,6.94,89.19,12.37,133.78,18a292.3,292.3,0,0,0,73.23-.5c19.56-2.49,39.7-10.52,47.07-30.35L795,870.56c5.9,2.31,12.28-.27,16.2-5,5.13-6.14,4.76-14.61,4.53-22.11-.45-14.94.69-31.16-3.25-45.73-3.4-12.55-12.46-22.16-26-22.6-16.78-.53-29.33,11.93-42.9,19.75-5,2.9-.49,10.68,4.55,7.77Z" transform="translate(-457.12 -731.02)"/><path class="cls-2" d="M560,795.24l35.94-22.88c5.73-3.65,11.51-7.63,18.36-8.72,7.11-1.13,14.44.35,21.41,1.7,5.66,1.08,8.08-7.59,2.39-8.68-7.3-1.41-14.82-2.89-22.29-2.2-7.27.67-13.58,3.4-19.75,7.18-13.67,8.38-27.08,17.22-40.6,25.83-4.87,3.1-.36,10.89,4.54,7.77Z" transform="translate(-457.12 -731.02)"/><path class="cls-2" d="M626.25,761.58a168.1,168.1,0,0,1,20-13.68c6.66-3.88,15-9.17,23.11-7.78,13.69,2.36,18,25.11,33.31,21.43a90,90,0,0,0,20.13-7.9c3.57-1.85,6.82-4.09,10.24-6.16,1.38-.83,2.68-2.39,4.28-1.45.75.44,1.52,2.26,1.9,3a38.59,38.59,0,0,0,11.39,13.58c2.95,2.21,6.34,4.27,8.62,7.23,1.79,2.33,3.76,6.95.75,9.24-4.55,3.46-.07,11.28,4.54,7.77,11-8.39,4.58-21.39-4.36-28.31-2.56-2-5.33-3.74-7.7-5.94-2.54-2.36-3.85-5.13-5.47-8.11-2.48-4.59-6.21-8.52-11.86-7.72-6.22.89-12.07,6.69-17.63,9.52a88.5,88.5,0,0,1-10.7,4.58c-2.79,1-6.76,3.1-9.3,1.49-3-1.88-5.51-5.69-8-8.24a90.11,90.11,0,0,0-7.79-7.6,23.4,23.4,0,0,0-18.42-5.25c-8.07,1.09-15.46,5.24-22.38,9.32a186.23,186.23,0,0,0-21.06,14.64c-4.53,3.61,1.88,9.94,6.37,6.37Z" transform="translate(-457.12 -731.02)"/><path class="cls-2" d="M781.43,798.2c-9.26,1.65-12.43,11.61-12.3,19.93s6,14.73,14.5,14.87c5.79.09,5.8-8.91,0-9-8.51-.14-6.78-15.88.19-17.12,5.69-1,3.28-9.69-2.39-8.68Z" transform="translate(-457.12 -731.02)"/><path class="cls-2" d="M622.56,787.78c15.37,10,34.24-2.48,31.67-20.35-.83-5.71-9.5-3.28-8.68,2.4,1.56,10.81-10.5,15.34-18.45,10.17-4.87-3.16-9.38,4.63-4.54,7.78Z" transform="translate(-457.12 -731.02)"/><path class="cls-2" d="M698.09,769.09a15.08,15.08,0,0,0-5.6,16.52c2,7.56,8.76,12.21,15,16.17,4.9,3.12,9.42-4.67,4.54-7.77-3.55-2.25-7.54-4.59-9.77-8.29-1.49-2.48-2.39-6.81.37-8.86,4.59-3.42.11-11.23-4.54-7.77Z" transform="translate(-457.12 -731.02)"/><path class="cls-2" d="M508.47,778.44c-3.65,7.9-.45,15.94,6.15,21.12,2.81,2.21,6,4.26,9.74,3.91,4.3-.41,7.1-3.73,9.42-7,3.34-4.74-4.46-9.25-7.77-4.54-.72,1-1.61,2.57-2.83,2.54s-3.17-2-3.95-2.69c-2.33-2.13-4.47-5.54-3-8.76,2.42-5.22-5.34-9.8-7.77-4.54Z" transform="translate(-457.12 -731.02)"/><path class="cls-2" d="M482.13,825.57a9.88,9.88,0,0,0,10.07-.24c2.88-1.73,4.66-4.6,6.17-7.5,2.67-5.14-5.1-9.69-7.78-4.55a13.11,13.11,0,0,1-2.47,3.9,2.45,2.45,0,0,1-.94.61c-.53.17.1.08-.45.07-.81,0,0,0-.05-.06-5-2.87-9.58,4.9-4.55,7.77Z" transform="translate(-457.12 -731.02)"/><path class="cls-2" d="M539.49,812.34c5.79,0,5.8-9,0-9s-5.8,9,0,9Z" transform="translate(-457.12 -731.02)"/><path class="cls-2" d="M525.93,815c3.86,0,3.86-6,0-6s-3.87,6,0,6Z" transform="translate(-457.12 -731.02)"/><path class="cls-2" d="M532.71,820.77c3.22,0,3.22-5,0-5s-3.22,5,0,5Z" transform="translate(-457.12 -731.02)"/><path class="cls-2" d="M609.41,779c3.21,0,3.22-5,0-5s-3.23,5,0,5Z" transform="translate(-457.12 -731.02)"/><path class="cls-2" d="M600,791.45c6.44,0,6.45-10,0-10s-6.44,10,0,10Z" transform="translate(-457.12 -731.02)"/><path class="cls-2" d="M612,789.93c5.15,0,5.16-8,0-8s-5.15,8,0,8Z" transform="translate(-457.12 -731.02)"/><path class="cls-2" d="M722.1,807.66c5.15,0,5.16-8,0-8s-5.15,8,0,8Z" transform="translate(-457.12 -731.02)"/><path class="cls-2" d="M709.58,809.84c2.57,0,2.58-4,0-4s-2.58,4,0,4Z" transform="translate(-457.12 -731.02)"/><path class="cls-2" d="M786.8,847.34c4.5,0,4.51-7,0-7s-4.51,7,0,7Z" transform="translate(-457.12 -731.02)"/><path class="cls-2" d="M789.93,796.21c4.5,0,4.51-7,0-7s-4.51,7,0,7Z" transform="translate(-457.12 -731.02)"/><path class="cls-2" d="M797.75,799.93c2.58,0,2.58-4,0-4s-2.57,4,0,4Z" transform="translate(-457.12 -731.02)"/><path class="cls-2" d="M735.67,755.58c2.57,0,2.57-4,0-4s-2.58,4,0,4Z" transform="translate(-457.12 -731.02)"/><path class="cls-2" d="M736.19,769.66c2.57,0,2.58-4,0-4s-2.58,4,0,4Z" transform="translate(-457.12 -731.02)"/><path class="cls-2" d="M742.45,765.93c5.15,0,5.16-8,0-8s-5.16,8,0,8Z" transform="translate(-457.12 -731.02)"/><path class="cls-1" d="M519.56,835.5a129.65,129.65,0,0,0-18.89-2.91c-1.83-.14-1.84,2.37-.4,2.95a197.15,197.15,0,0,0,36,10.66l.8-2.9q-18.18-3.4-36-8.27a1.5,1.5,0,0,0-.8,2.89c7.13,2.51,14.31,4.87,21.55,7,6.55,2,13.43,4.57,20.34,4.54a1.51,1.51,0,0,0,.4-3l-29.9-10.12-.8,2.89,38.68,11.31c12.79,3.74,26.27,6.7,38.39,12.34l.76-2.8a117.81,117.81,0,0,1-40.83-9L548,854c18.42,4.11,36.88,8.94,55.76,10.32v-3A285.78,285.78,0,0,1,551,853.67l-.79,2.89c18.93,4.16,38,8.19,57.51,7a1.5,1.5,0,0,0,0-3c-18.07-.58-36.54-1.32-53.3-8.85l-1.15,2.75c21.43,3.26,42.94,7.32,64.61,8.6,2,.12,1.88-2.79,0-3-17.29-1.88-34.62-3.94-51-10.19l-.8,2.9A366.31,366.31,0,0,0,623.89,863v-3c-19.63-1.69-39.63-3.6-57.47-12.63l-1.16,2.74a511.17,511.17,0,0,0,56.87,13.6l.8-2.89c-18.19-3.14-36.43-6.64-53.35-14.29l-1.16,2.74a302.82,302.82,0,0,0,60.39,14.49c1.66.22,2.06-2.67.4-3-21.79-3.6-43.85-7.52-63.44-18.26l-1.15,2.75a348.4,348.4,0,0,0,58.63,17l.8-2.9c-20.75-3.95-41.27-9.39-59.92-19.57L563,842.59a508.77,508.77,0,0,0,60.43,18.87c1.88.46,2.68-2.43.8-2.89a508.92,508.92,0,0,1-60.44-18.87c-1.59-.61-2.62,1.94-1.15,2.74,18.87,10.31,39.62,15.87,60.63,19.88,1.88.35,2.69-2.52.8-2.9a347.85,347.85,0,0,1-58.64-17c-1.59-.62-2.62,1.94-1.15,2.74,19.82,10.87,42.09,14.92,64.15,18.56l.4-2.94a299.3,299.3,0,0,1-59.59-14.38c-1.58-.56-2.71,2-1.15,2.74,17.17,7.77,35.59,11.41,54.06,14.59,1.89.33,2.7-2.55.8-2.89a511.17,511.17,0,0,1-56.87-13.6c-1.6-.48-2.69,2-1.16,2.74,18.34,9.28,38.81,11.3,59,13,1.93.17,1.91-2.82,0-3a359.72,359.72,0,0,1-57-10.11c-1.9-.49-2.57,2.22-.8,2.9,16.6,6.34,34.23,8.38,51.77,10.29v-3c-21.41-1.26-42.64-5.27-63.81-8.5-1.52-.23-2.86,2-1.16,2.74,17.28,7.77,36.15,8.66,54.81,9.26v-3c-19.23,1.15-38-2.81-56.72-6.91-1.87-.41-2.68,2.44-.79,2.89a289.1,289.1,0,0,0,53.57,7.76c1.93.1,1.91-2.86,0-3-18.61-1.36-36.81-6.17-55-10.21A1.5,1.5,0,0,0,548,854a120.11,120.11,0,0,0,41.62,9.16c1.43.06,2.12-2.16.76-2.79-11.8-5.49-24.77-8.45-37.22-12.09l-40.57-11.86c-1.87-.55-2.61,2.27-.8,2.89l29.9,10.12.4-2.94c-7.15,0-14.56-2.92-21.35-5-6.63-2-13.21-4.19-19.74-6.49l-.8,2.89q17.85,4.88,36,8.28c1.89.35,2.7-2.53.8-2.9a197.22,197.22,0,0,1-36-10.65l-.39,2.94a125.87,125.87,0,0,1,18.1,2.8c1.88.44,2.68-2.46.79-2.89Z" transform="translate(-457.12 -731.02)"/><path class="cls-1" d="M569.79,832.51l-7.27-.43c-5.29-.31-5.8,7.27-1.2,8.84q33.55,11.4,67.48,21.62L630,853.7a156.1,156.1,0,0,1-49.07-13.58l-3.47,8.23q35.17,10.23,71.19,17.1l1.2-8.84A227,227,0,0,1,584.07,849c-5.77-1.54-7.57,6.52-2.39,8.68a174.6,174.6,0,0,0,71.57,13.4c4.85-.12,6.4-8,1.2-8.84-21-3.57-42.74,1.3-63.45-4.23-5.6-1.5-8,7.11-2.39,8.67a170.83,170.83,0,0,0,63.79,5.45v-9a99.5,99.5,0,0,1-43.93-5l-2.39,8.68q33.18,4.59,65.84,12l1.2-8.84a77.43,77.43,0,0,1-33.21-7.9l-3.47,8.22,59.36,11.64c5.63,1.11,8-7,2.4-8.68-15.94-4.64-31.88-9.43-45.87-18.64l-3.47,8.23,58.5,22.09c4.72,1.79,8.11-6.12,3.46-8.22-16.49-7.44-33.26-15.08-46.35-27.91L659,855.86A505.28,505.28,0,0,0,720.92,887c4.76,2,7.79-5.75,3.46-8.22-19.51-11.17-39.85-22.79-53.33-41.34L664,842.88a474.11,474.11,0,0,0,60.19,42.55c5.07,3,9.18-4.46,4.55-7.77-18-12.89-36.46-26.29-48-45.64l-7.07,5.46a397.82,397.82,0,0,0,54.87,46c4.19,2.91,9.23-3.66,5.46-7.07-15-13.53-30.1-27.31-40-45.18l-7.07,5.45a297.05,297.05,0,0,0,53.35,50.54c4.14,3.06,9.12-3.61,5.45-7.07-16-15-32-30.29-43.11-49.43l-7.07,5.45a307.42,307.42,0,0,0,49.27,48.55c4.43,3.47,10.64-2.21,6.37-6.37-14.59-14.21-29.22-28.66-38.5-47l-7.77,4.54a338.76,338.76,0,0,0,41.63,45.11c4.35,3.91,10.09-2,6.36-6.37-11.27-13.32-22.41-26.77-30.09-42.55L715,836.55a256.41,256.41,0,0,0,36.45,43c3.56,3.36,10.12-1.1,7.07-5.45-9.39-13.38-20.48-26.72-26.25-42.18l-8.23,3.47L759,881.33c3.4,4.47,10.94.51,7.78-4.54l-23.93-38.21L735.78,844,763,878.57c3.26,4.14,9.42-1.13,7.07-5.45l-21.24-39L741,838.72l26.38,38.55c3.31,4.83,10.16.7,7.78-4.55L757,832.84l-7.77,4.54,22,36.56c2.54,4.22,9.94,1.5,8.22-3.47l-12.08-34.8-8.23,3.46q7.91,15.5,16.64,30.52c1.77,3.06,7.63,2.92,8.22-1.07.89-6-1.21-10.87-3.25-16.41l-6.49-17.6-8.67,2.4a209,209,0,0,0,10.76,24.37c2.31,4.44,10.08,1.34,8.22-3.47l-6.28-16.32L770.11,845l2.59,4.82c1.71,3.18,7.62,2.82,8.23-1.07a27.59,27.59,0,0,0,0-8.93l-8.67,2.4a118.77,118.77,0,0,0,5.89,16.3c2.09,4.74,9.53,1.33,8.22-3.47l-4.7-17.31-8.68,2.4,4.44,14.61c1.68,5.53,10.37,3.17,8.68-2.39l-4.44-14.62c-1.68-5.52-10.21-3.22-8.68,2.4l4.7,17.3,8.23-3.47a102.39,102.39,0,0,1-5-14.15c-1.58-5.71-9.55-3.2-8.67,2.4a12.51,12.51,0,0,1,0,4.14l8.22-1.08-2.59-4.82c-2.36-4.39-10.09-1.36-8.23,3.47l6.28,16.32,8.23-3.46a193.38,193.38,0,0,1-9.86-22.23c-2-5.38-10.68-3.06-8.67,2.4L770.81,851c1.57,4.27,5.24,10.5,4.55,15.15l8.23-1.08q-8.73-15-16.64-30.52c-2.29-4.49-9.91-1.38-8.22,3.47l12.08,34.8,8.23-3.47-22-36.55c-3-5.06-10.13-.64-7.77,4.54l18.15,39.89,7.78-4.55-26.39-38.55c-3.25-4.74-10.58-.6-7.77,4.55l21.24,38.94,7.07-5.45-27.17-34.54c-3.18-4-9.75,1.17-7.07,5.45L759,881.33l7.78-4.54-34.92-45.94c-2.78-3.66-10.19-1.78-8.23,3.46,6.1,16.33,17.24,30.19,27.16,44.33l7.07-5.45A246.08,246.08,0,0,1,722.81,832a4.5,4.5,0,0,0-7.77,4.54c8,16.45,19.76,30.5,31.5,44.38l6.36-6.37a327.59,327.59,0,0,1-40.22-43.28c-3.46-4.49-10.46-.78-7.77,4.54,9.61,19,24.8,34.15,39.9,48.87l6.37-6.37a306.12,306.12,0,0,1-49.27-48.54c-3.27-4-9.57,1.14-7.07,5.45,11.48,19.8,28,35.7,44.52,51.26l5.45-7.07a288.92,288.92,0,0,1-51.53-49.13c-3.33-4.06-9.46,1.12-7.06,5.45,10.25,18.54,25.83,33,41.38,47l5.45-7.06a383.5,383.5,0,0,1-53-44.57c-3.58-3.6-9.72,1-7.07,5.45,12.38,20.73,31.94,35.07,51.24,48.87l4.55-7.77a460.05,460.05,0,0,1-58.38-41.14c-3.61-3-10.31,1-7.07,5.45,14.47,19.92,35.55,32.55,56.56,44.57l3.47-8.23a488.4,488.4,0,0,1-59.75-30.22c-4.38-2.6-9.13,3.47-5.45,7.07,13.67,13.39,30.93,21.53,48.17,29.31l3.47-8.22-58.5-22.1c-5-1.88-7.52,5.56-3.47,8.22,14.61,9.61,31.38,14.7,48,19.55l2.4-8.68-59.37-11.63c-4.68-.92-8.33,5.83-3.46,8.22A87.9,87.9,0,0,0,673.12,879c5,.07,6.21-7.69,1.2-8.84q-32.66-7.46-65.85-12c-5.62-.77-8,6.72-2.39,8.68a105.8,105.8,0,0,0,46.32,5.34c5.69-.62,5.77-9.61,0-9A164,164,0,0,1,591,858l-2.39,8.67c20.85,5.58,42.4.66,63.45,4.24l1.19-8.84A168.09,168.09,0,0,1,584.07,849l-2.39,8.68a235.74,235.74,0,0,0,68.16,8c4.86-.14,6.38-7.85,1.2-8.84q-36-6.85-71.2-17.1c-4.77-1.39-8.18,6-3.46,8.22A169.34,169.34,0,0,0,630,862.7c5.2.55,5.88-7.43,1.2-8.84q-33.93-10.22-67.48-21.62l-1.19,8.84,7.27.43c5.79.34,5.77-8.66,0-9Z" transform="translate(-457.12 -731.02)"/><path class="cls-1" d="M673.56,848.39l-19.13-29.3c-2.62-4-10.31-1.47-8.23,3.47,3.26,7.72,7.84,14.35,13,20.92,5.56,7.14,11.16,14.26,17.57,20.66,4.13,4.11,10.27-2.11,6.37-6.37l-37.65-41.11c-4-4.35-9.94,2-6.36,6.36,10.37,12.79,22,24.38,33.76,35.92l5.45-7.07q-24.28-18.42-46.85-39c-4.28-3.89-10.35,2.12-6.36,6.36a264.91,264.91,0,0,0,44.86,38c4.89,3.3,9-4.37,4.54-7.77-14.69-11.1-32.47-17.93-45.32-31.41l-5.45,7.07c11.32,6.22,22.66,12.41,34.25,18.11,10.71,5.27,21.66,11,33.68,12.32,4.58.49,5.92-6.32,2.27-8.39-13.49-7.65-27.68-14.74-40-24.29L648.51,830q22.44,13.6,45.86,25.48c5.14,2.6,9.59-4.83,4.55-7.78-12.38-7.24-26.53-11.24-39.49-17.33q-10.08-4.74-19.8-10.18c-5.65-3.16-11.77-8.51-18.53-8.27-3.3.12-5.75,3.77-3.89,6.77,6,9.66,15.78,15.78,25.29,21.57,10.56,6.44,21.73,11.9,33.74,15l2.39-8.68a296.39,296.39,0,0,1-69.06-22.36c-5.16-2.41-9.67,4.89-4.54,7.77a227.85,227.85,0,0,0,61.28,23.58l2.39-8.68c-22.72-3.6-45.35-9-65.21-21L599,833.62c20.44,9.21,43,18.52,65.42,20.94,5.21.56,5.86-7.41,1.19-8.84-9.72-3-19.45-6-29-9.5-8.59-3.17-20.43-6.46-26.61-13.58l-4.38,7.52,47.59,13.57,2.39-8.67-45.49-12.34c-5.67-1.53-7.76,6.72-2.39,8.68a301.84,301.84,0,0,0,49.22,13.42l1.2-8.84c-27.79,1.26-54.39-2.89-81.26-9.66-4.73-1.19-8.3,6.09-3.47,8.22a173.46,173.46,0,0,0,60.23,14.61c5.85.34,5.67-8.44,0-9-25.34-2.51-50.8-5.25-74.82-14.19l-2.4,8.68a222.06,222.06,0,0,0,77,12.78v-9c-24.36,1.37-49,.61-72-8.3L559,838.8c27.79,8.56,56.92,11.13,85.69,14.33l-1.19-8.84c-18.11,4.82-36.94,1.18-53.9-6.06l-3.47,8.23a574.1,574.1,0,0,0,79,15v-9c-19.46,1-38-4.9-55.47-13.12-5.2-2.46-9.78,5.3-4.54,7.77,18.83,8.89,39,15.39,60,14.35,5.91-.3,5.64-8.33,0-9a556.51,556.51,0,0,1-76.58-14.66c-4.74-1.25-8.3,6.16-3.47,8.22,19.25,8.21,40.23,12.45,60.84,7,5.23-1.39,3.59-8.31-1.2-8.84-28-3.11-56.25-5.68-83.3-14-5.63-1.74-7.68,6.63-2.39,8.68,23.68,9.17,49.33,10,74.4,8.62,5.73-.32,5.83-9.07,0-9A214.37,214.37,0,0,1,558.78,826c-5.49-2-7.77,6.68-2.4,8.68,24.75,9.21,51.12,11.92,77.22,14.51v-9a161,161,0,0,1-55.68-13.38L574.45,835c27.61,7,55.08,11.28,83.65,10,4.8-.22,6.43-7.88,1.19-8.84a301.84,301.84,0,0,1-49.22-13.42l-2.39,8.68,45.49,12.33c5.6,1.52,8-7.09,2.39-8.67L608,821.49c-4.55-1.3-7.2,4.26-4.37,7.52,6.57,7.57,18,11.08,27.12,14.59,10.64,4.1,21.55,7.45,32.45,10.8l1.2-8.84c-10.39-1.12-20.69-4.6-30.57-7.88a313.27,313.27,0,0,1-30.31-11.83c-5.18-2.34-9.6,4.7-4.54,7.77,20.51,12.44,43.88,18.24,67.36,22,5.58.88,8.15-7.38,2.39-8.68a219.07,219.07,0,0,1-59.13-22.67L605,832a305.78,305.78,0,0,0,71.21,23.27c5.62,1.09,8.06-7.21,2.39-8.68-10.71-2.78-20.57-7.52-30-13.18-8.62-5.14-18.19-10.54-23.6-19.27l-3.89,6.77c3.46-.12,7.1,3.09,9.95,4.74s5.92,3.37,8.92,5q9,4.83,18.28,9.07c11.91,5.43,24.81,9.16,36.12,15.78l4.55-7.78q-23.42-11.85-45.87-25.47c-4.24-2.58-9.56,3.87-5.45,7.06,12.94,10.06,27.57,17.64,41.79,25.7l2.27-8.38c-11.46-1.24-22.47-7.72-32.61-12.82-10.39-5.21-20.59-10.79-30.78-16.38-4.48-2.46-9,3.33-5.45,7.07,13.41,14.07,31.82,21.24,47.14,32.81l4.54-7.77a255.05,255.05,0,0,1-43-36.6l-6.36,6.36q23.43,21.27,48.67,40.37c4.12,3.13,9-3.56,5.45-7.07-11.72-11.53-23.39-23.12-33.76-35.91L639.1,823l37.64,41.12,6.37-6.37a198,198,0,0,1-15.44-17.93c-4.83-6.13-9.73-12.43-12.79-19.67l-8.23,3.47,19.13,29.3c3.16,4.83,11,.32,7.78-4.55Z" transform="translate(-457.12 -731.02)"/><path class="cls-1" d="M631.49,854.47l20.64,7.23,2.39-8.68a82.94,82.94,0,0,1-35.09-13.82L616,847.42l68.82,17.64c5.61,1.44,8-7.23,2.39-8.67l-68.82-17.65c-5.1-1.31-7.59,5.39-3.46,8.23a88.91,88.91,0,0,0,37.24,14.73c5.64.84,8-6.73,2.39-8.68l-20.64-7.23c-5.48-1.91-7.84,6.78-2.39,8.68Z" transform="translate(-457.12 -731.02)"/></svg>