<svg id="Laag_12" data-name="Laag 12" xmlns="http://www.w3.org/2000/svg" viewBox="0 0 192.66 176.41"><defs><style>.cls-1{fill:#3e3f4c;}.cls-2{fill:#23242d;}</style></defs><title>meteor5</title><path class="cls-1" d="M36.74,484.53c-8.86-8.22-21.7-23.72-35.36-16-6,3.41-7.16,9.89-10.16,15.49-2.64,4.94-5.92,9.51-8.76,14.34-6.68,11.35-9.35,23.4-3.5,35.73C-14.82,547.23-6,559.54,1.47,572c3.15,5.23,11.34,6.94,15.7,2s7-10.41,10-16.09c2.26-4.2,4.6-7.59,9.51-8.63,11.4-2.4,21.83,6.59,30,13.28,4.44,3.65,12.82,4.38,15.7-2A139.53,139.53,0,0,1,96.49,536c5.16-7.12,12.85-13.06,16.68-21,4.06-8.44,2.17-17-3.59-24.06a88.66,88.66,0,0,0-6.83-6.88c-2.23-2.18-3.34-3.38-3.82-5.19-2-7.46-11.32-9.48-16.71-4.41-2.69,2.53-5.63,5.77-9.29,6.82-2.54.73-3,.31-4.19-1.76-4.43-7.79-10.27-13.37-19.73-13.7-19.78-.7-28.26,17.93-31.72,34.37l19.65,2.66c1.86-17.36,2.65-34.8-5.43-50.83C25,439.17,13,429.25,8.46,415.41,5.6,406.67-4.71,406.18-9.81,413A64,64,0,0,0-22.13,449c-.2,4.92,3.95,9.26,8.67,9.82,5.31.63,9-2.42,11-7.16l5.9-14.42-19.64-2.66c3.42,31,6.87,63.2-4.91,92.88l19.64,2.66,4.93-54.55C4.89,459.4,7.05,442.42.71,427c-1.71-4.15-4.85-7.35-9.64-7.35A10.24,10.24,0,0,0-18.58,427Q-31,470.12-42,513.6c-3.19,12.48,15.8,17.72,19.28,5.32a690,690,0,0,0,19-91c.63-4.48-.42-8.85-4.59-11.29-3.52-2.06-9.41-1.87-12.12,1.56-11.95,15.14-16.94,33.06-19.61,51.9-3.07,21.64-5.21,43.44-7,65.23-.92,11.45,16.66,13.27,19.64,2.65l4.06-14.46-18.28,2.39a71.6,71.6,0,0,0,31.08,30.93c6.49,3.26,14.32,6.73,21.74,6.08,10-.88,15.3-10.35,13.06-19.69-1.82-7.58-6-14.87-8.51-22.28a194.78,194.78,0,0,1-6.7-24.31c-3.19-15.69-3.85-32-.67-47.78l-19.64-2.65,8.37,90.86c1,10.64,16.67,14.29,19.65,2.66a251.77,251.77,0,0,0,5.87-95.23c-.65-4.93-3.3-9.18-8.67-9.82a10.07,10.07,0,0,0-11,7.17C-6.38,470.63,0,501,7,529.57c2.41,9.83,16.55,9.2,19.28,0A171.5,171.5,0,0,0,32,458c-.72-5.35-4.08-10-10-10-5.76,0-9.58,4.6-10,10a204.66,204.66,0,0,0,.88,41c.83,6.75,1.9,13.47,3.35,20.12,1.37,6.32,2.55,13.62,6,19.2,3.59,5.83,10.19,9.49,17,7.19,7.5-2.55,9.44-10.7,11.12-17.57a112.62,112.62,0,0,0,2.28-41.54c-.66-4.94-3.3-9.18-8.67-9.82-4.39-.53-10.29,2.18-11,7.16-2.39,17.4.2,34.17,8.45,49.77,3.35,6.33,14,6.71,17.27,0,9.31-19.27,8.7-42.05-2.75-60.33-4.12-6.58-16.88-6.64-18.28,2.39-3.38,21.7.66,43.68,12.77,62.18,3.94,6,13.55,6.94,17.27,0a61.45,61.45,0,0,0,5-46.85c-3.4-11.36-18.51-8.21-19.65,2.66a60.14,60.14,0,0,0,10.91,41c3.93,5.47,13.8,7.45,17.27,0a100.37,100.37,0,0,0,9.71-45.28c-.31-11.57-16-13.21-19.64-2.66a41.71,41.71,0,0,0-.68,25c1.66,6.08,9.19,9.42,14.69,6a47.24,47.24,0,0,0,12.82-12c3.27-4.3.68-11.19-3.58-13.68-5.14-3-10.41-.73-13.68,3.59a20.89,20.89,0,0,1-5.66,4.85l14.69,6a22.85,22.85,0,0,1,.68-14.36l-19.64-2.66a78.13,78.13,0,0,1-7,35.19H81.15A43.42,43.42,0,0,1,73,493.52l-19.64,2.66a40.8,40.8,0,0,1-3,31.44H67.63c-9-13.74-13.3-30.4-10.76-46.78L38.6,483.23c7.5,12,9,27.25,2.75,40.14H58.62A57.63,57.63,0,0,1,52.18,489l-19.64-2.66a107,107,0,0,1,.63,23.25,80.4,80.4,0,0,1-1.58,10.24q-.59,2.74-1.32,5.44c-.24.9-.5,1.8-.77,2.69q-1.11,3.15-.09.77l4.41-2.57.38,0,5,1.36c-1.65-.73-3-10.31-3.59-12.89a172.45,172.45,0,0,1-3.16-18.49A202.92,202.92,0,0,1,32,458H12a157.66,157.66,0,0,1-5,66.25H26.24c-6.16-25.14-12.23-51.69-3.93-77.07L2.66,444.52A236.69,236.69,0,0,1-2.5,534.44l19.64,2.65L8.77,446.23c-.46-5-3.46-9.21-8.68-9.83-4.61-.55-10,2.22-11,7.17-3.8,18.85-3.3,37.81.33,56.65A191.53,191.53,0,0,0-3.5,526.29c1.56,4.55,3.27,9,5.09,13.49.85,2.06,1.83,4.09,2.61,6.18a18.56,18.56,0,0,1,.8,2.6q.39-2.84-.39-.43l2.57-4.41c.22-.28,2.73-.43,2.66-.52-.25-.35-2.34-.59-2.79-.72a45.25,45.25,0,0,1-5.42-1.91A53.31,53.31,0,0,1-9.46,534a53.43,53.43,0,0,1-14.86-18.21c-4-7.82-16-5.57-18.28,2.39l-4,14.47L-27,535.35c1.57-19.64,3.44-39.29,6.09-58.81,2.05-15.09,4.92-31.88,14.62-44.18L-23,422.63a693.27,693.27,0,0,1-19,91l19.28,5.32q11.1-43.47,23.47-86.6H-18.58c5.91,14.36,3.19,30.19,1.83,45.19l-4.75,52.56c-.44,4.89,4.14,9.28,8.67,9.82,5.28.63,9.09-2.4,11-7.16,12.41-31.27,9.23-65.56,5.62-98.2-1.27-11.46-15.3-13.28-19.65-2.66l-5.89,14.42L-2.13,449c.39-9.61,3.87-18.17,9.59-25.84l-18.28-2.39c4.71,14.4,15.2,24.68,22.84,37.39,8.25,13.74,6.56,29.47,4.92,44.75-1.2,11.18,17.33,13.63,19.64,2.66,1.19-5.69,2.22-14.45,7.28-18.22a9.47,9.47,0,0,1,4.31-1.62c1.11.18,1.16.1,1.1.05,1.16.92,1.83,3.27,2.57,4.55a22,22,0,0,0,21,11.2c9.53-.73,16.83-6.55,23.55-12.87L79.65,484.2c1.75,6.63,6.23,11.44,11.07,16,2.27,2.14,3.76,3.45,4.89,5.5-.45-.83-.57.7-.12,0-.45.71-.8,1.5-1.3,2.2-2.22,3-5.18,5.66-7.61,8.56-3.11,3.71-6.08,7.58-8.85,11.56a139.68,139.68,0,0,0-12.61,22.4l15.71-2c-13.26-10.89-27.83-21.57-46-19a30.86,30.86,0,0,0-20.25,11.31C9.93,546.57,8,554.3,3,559.85l15.71,2L1.17,532.74c-4.44-7.37-7.57-12.43-3.5-20.53,3.69-7.36,9-13.79,12.42-21.28.66-1.43,1.27-2.89,1.83-4.36.68-1.75,1.61-2.06-.43-1.14-2.83,1.28-2.92.71-.68,2.35,4.23,3.11,7.94,7.33,11.79,10.9,9.42,8.74,23.6-5.37,14.14-14.15Z" transform="translate(75.4 -406.82)"/><path class="cls-1" d="M-27.37,438.55c-9.45,6-19.36,11.59-28.36,18.25s-17,16-16.23,28.05,7.74,23.47,12.69,34.26c4.78,10.41,8.44,23.54,21.8,24.52,4.11.31,8.8-3.3,9.65-7.34A336.38,336.38,0,0,1-16.8,496c2.32-6.74,4.82-13.42,7.59-20,2.25-5.31,5-10.37,4.65-16.33-.36-7.08-5.43-13.33-12.77-13.75-6.93-.39-13,4-18.24,8.15-9.76,7.75-16.72,18.4-23.37,28.79l18.64,5.05c-.18-7,2.85-13.15,5.92-19.29l-18.28-7.7c-5.1,14.87-7.91,33-4.26,48.6a20.71,20.71,0,0,0,14.68,15.32c7.16,2.08,14-.55,21,.63,5.32.89,10.76-1.4,12.3-7,1.32-4.8-1.63-11.41-7-12.3-6.31-1.06-12.14.24-18.39-.2A7,7,0,0,1-38,504.94c1.31.88.38,1.11.59,0-.08.44-.64-4.93-.42-2.75a84.05,84.05,0,0,1,4.51-35.92c3.64-10.63-13.2-17.86-18.28-7.7-4.64,9.28-8.92,18.78-8.65,29.38C-60,498-47,501.3-41.67,493c3.52-5.5,7-11.11,11.28-16.08a63.75,63.75,0,0,1,6.57-6.68A29.64,29.64,0,0,1-20.93,468c.87-.58,1.75-1.13,2.65-1.64,1.49-.93,1.8-1.06,1-.4l-5.05-1.36c4.66,2-3.27-3.15-2.07-4.07a12.08,12.08,0,0,0-.76,2.49c-1.19,3.19-2.7,6.27-4,9.42q-3.89,9.47-7.18,19.14A334.33,334.33,0,0,0-47.11,531l9.64-7.34c3.51.26,3,1.6,1.39-1.72-.83-1.69-1.58-3.44-2.37-5.16l-5.52-12c-2.74-6-9.48-15.92-7.89-22.8,1.23-5.32,7.64-9,11.85-11.68,7.55-4.85,15.16-9.62,22.74-14.42,10.84-6.88.81-24.19-10.1-17.27Z" transform="translate(75.4 -406.82)"/><path class="cls-1" d="M64.76,538.76l4.6,4.46c2.66,2.57,6.51.53,6.83-2.83a8.47,8.47,0,0,0-4.47-8.09,4.05,4.05,0,0,0-5.88,4.52,28.81,28.81,0,0,0,4.39,10,4.13,4.13,0,0,0,4.52,1.83,4,4,0,0,0,2.94-3.85c-.32-4.14-2.36-9.83-6.87-11a4.87,4.87,0,0,0-6,3.56c-.6,2.63.88,5.3,2.55,7.2A4,4,0,0,0,73,538.89c-.57-.65-.14-.86-.39.16l-1,1.76.26-.28-1.76,1c-3.22,1-2.06-1.21-1.56.08.16.42.5.79.69,1.2a6.55,6.55,0,0,1,.5,2l7.45-2a22.46,22.46,0,0,1-3.58-8.11l-5.88,4.52c.67.35.58.44.51,1.18L75,537.56l-4.6-4.46c-3.7-3.58-9.36,2.07-5.66,5.66Z" transform="translate(75.4 -406.82)"/><path class="cls-2" d="M97.38,474.5c-7.06-13.7-25.93.92-33,7.17l6.28.81c-2-3.58-4.07-7.1-6.3-10.54-1.7-2.62-3.49-6.2-6.31-7.86-5-3-14.61-1.12-19.71.89-6.79,2.69-11.17,9-16.86,13.34A66.19,66.19,0,0,1,.34,488.85l3.08,7.31,2.13-.94c4.7-2.08.63-9-4-6.91l-2.12.95c-4.18,1.85-1.2,8.59,3.08,7.31a76.45,76.45,0,0,0,31.76-18.92c4.88-4.75,10.94-7.67,18-6.74,3.13.42,4.51,4,6.14,6.55,1.89,3,3.65,6,5.35,9.06a4.05,4.05,0,0,0,6.28.81c2.78-2.45,17.47-14.62,20.48-8.79,2.36,4.57,9.26.53,6.9-4Z" transform="translate(75.4 -406.82)"/><path class="cls-2" d="M40.55,467.61c-2.81-10.24-5.9-20.84-12.76-29.19-3.3-4-7.76-6.66-11.28-10.42-3.93-4.19-4.12-10-7.07-14.72-2.08-3.35-5.4-6.1-9.44-6.43-5.89-.47-11.46,3.79-16.37,6.47-4.26,2.34-10.21,4.31-13.1,8.44s-3.74,10.86-5.11,15.76c-.69,2.47-1.08,5.52-3,7.39s-5.13,2.95-7.54,4.29A107.25,107.25,0,0,0-60.3,459.48c-8.81,7.1-15.33,15.35-15.09,27.18.22,11,4.22,22.17,8.71,32.12a109.35,109.35,0,0,0,8.08,14.75c2.68,4.09,5.6,9,9.65,11.9a11.9,11.9,0,0,0,6,2.39c3.09.23,5.83-1.52,8.8-1.44,6,.15,9,7.79,12.7,11.41,4.44,4.3,9.12,3.92,14.61,2.21a186.63,186.63,0,0,0,20.52-7.88c4.69-2.08.63-9-4-6.9-4.91,2.18-9.9,4.16-15,5.88-2.09.71-4.69,2-6.88,2.16-3.66.25-5.24-3-7.18-5.57-4.86-6.32-10.52-10.56-18.76-8.67-2.56.59-4.29,1.21-6.59-.42-1.65-1.17-2.93-3.34-4.1-5a106.87,106.87,0,0,1-7.58-12.12,101.29,101.29,0,0,1-10.06-27.42c-1-4.79-1.52-10,0-14.72,1.58-5,5.33-8.68,9.19-12a92.53,92.53,0,0,1,12.47-9.07c3.79-2.32,8.21-4,11.7-6.75,7.44-5.91,5.68-16.51,9.73-24.22,1.94-3.71,9.17-6.05,12.74-8,4.65-2.54,10.44-7.26,13.85-.86,2.26,4.25,2.68,9,5.71,12.91s7.16,6.41,10.61,9.81c7.67,7.56,10.56,18.48,13.33,28.56,1.36,5,9.08,2.85,7.71-2.13Z" transform="translate(75.4 -406.82)"/><path class="cls-2" d="M-11.19,560.5C-7,570-.07,588.4,13.65,581.85c11.65-5.57,10.56-22.69,22.59-28.09,14.34-6.42,21.6,14.35,34,15.6,6.45.65,9.42-5.15,12.5-9.74l13.42-20c2.68-4,5.4-8,8-12,1.79-2.7,3.25-5.38,2.57-8.72C105.36,512,98.58,505,93.86,500c-3.53-3.75-9.18,1.91-5.65,5.66a74.84,74.84,0,0,1,8,9.89c1.12,1.69,3,3.91,2.43,6.1-.33,1.27-2.2,3.32-2.91,4.37l-14,20.77-7,10.38c-1.45,2.17-2.11,4.76-5.47,3.53-1.51-.55-3-2.32-4.18-3.34-4.75-4.11-9.59-8.4-15.45-10.83-12.33-5.1-23.13,1.87-29.46,12.45-2.53,4.22-6.08,17.55-12.82,16.15-3.1-.65-4.82-4.86-6.17-7.36-2-3.69-3.8-7.48-5.49-11.31-2.07-4.71-9-.64-6.9,4Z" transform="translate(75.4 -406.82)"/><path class="cls-2" d="M89.07,476.39c1.85,10,11.39,12.42,17.19,19.38,7.57,9.07-.08,21.34-6,28.88-3.15,4,2.48,9.7,5.66,5.65,6.82-8.67,13.08-18.7,10.91-30.22-1-5.5-4.2-9.81-8.49-13.26-4.51-3.61-10.4-6.37-11.55-12.56-.93-5.05-8.64-2.91-7.71,2.13Z" transform="translate(75.4 -406.82)"/><path class="cls-2" d="M-4.79,434.45a13.88,13.88,0,0,0-3.56,19.18c3.88,5.93,11.72,9.09,17.61,4.1,3.94-3.33-1.75-9-5.66-5.66C1.75,453.64-1.29,450-2,448.74c-1.24-2.43-1.21-5.66,1.21-7.38,4.15-3,.16-9.91-4-6.91Z" transform="translate(75.4 -406.82)"/><path class="cls-2" d="M-52.5,491.12a11.38,11.38,0,0,0,10.9-7.3c2-5,.43-10.5-2.52-14.78s-9.85-.21-6.91,4c1.86,2.7,4.48,10.31-1.47,10-5.15-.24-5.14,7.76,0,8Z" transform="translate(75.4 -406.82)"/><path class="cls-2" d="M-52.39,505c5.15,0,5.16-8,0-8s-5.16,8,0,8Z" transform="translate(75.4 -406.82)"/><path class="cls-2" d="M37.57,513.12c-5.24,6.1-7,14.87-1.61,21.51a13.06,13.06,0,0,0,18.92,1.48c3.9-3.38-1.78-9-5.66-5.66-2.46,2.15-6,1-7.58-1.56-2-3.31-.79-7.35,1.58-10.11,3.34-3.89-2.29-9.57-5.65-5.66Z" transform="translate(75.4 -406.82)"/><path class="cls-2" d="M50.49,494.15C54.31,502,63.93,503.2,70.44,498c1.7-1.36,1.38-4.24,0-5.66-1.66-1.69-4-1.33-5.66,0-2.76,2.19-6,.5-7.38-2.27-2.25-4.63-9.15-.58-6.91,4Z" transform="translate(75.4 -406.82)"/><path class="cls-2" d="M-41.95,496.15c3.21,0,3.22-5,0-5s-3.23,5,0,5Z" transform="translate(75.4 -406.82)"/><path class="cls-2" d="M-43.52,503a1.5,1.5,0,0,0,0-3,1.5,1.5,0,0,0,0,3Z" transform="translate(75.4 -406.82)"/><path class="cls-2" d="M-13.78,446.11a1.5,1.5,0,0,0,0-3,1.5,1.5,0,0,0,0,3Z" transform="translate(75.4 -406.82)"/><path class="cls-2" d="M-16.39,463.32a1.5,1.5,0,0,0,0-3,1.5,1.5,0,0,0,0,3Z" transform="translate(75.4 -406.82)"/><path class="cls-2" d="M-20.56,454.91c3.86,0,3.86-6,0-6s-3.87,6,0,6Z" transform="translate(75.4 -406.82)"/><path class="cls-2" d="M-7,466.87c5.15,0,5.16-8,0-8s-5.15,8,0,8Z" transform="translate(75.4 -406.82)"/><path class="cls-2" d="M29,512.78c5.15,0,5.16-8,0-8s-5.15,8,0,8Z" transform="translate(75.4 -406.82)"/><path class="cls-2" d="M19.09,514.41c3.22,0,3.22-5,0-5s-3.22,5,0,5Z" transform="translate(75.4 -406.82)"/><path class="cls-2" d="M26.39,518.63a1.5,1.5,0,0,0,0-3,1.5,1.5,0,0,0,0,3Z" transform="translate(75.4 -406.82)"/><path class="cls-2" d="M18.57,523.32a1.5,1.5,0,0,0,0-3,1.5,1.5,0,0,0,0,3Z" transform="translate(75.4 -406.82)"/><path class="cls-2" d="M29,535.32a1.5,1.5,0,0,0,0-3,1.5,1.5,0,0,0,0,3Z" transform="translate(75.4 -406.82)"/><path class="cls-2" d="M77,499.32a1.5,1.5,0,0,0,0-3,1.5,1.5,0,0,0,0,3Z" transform="translate(75.4 -406.82)"/><path class="cls-2" d="M79.61,510.21c3.86,0,3.87-6,0-6s-3.87,6,0,6Z" transform="translate(75.4 -406.82)"/><path class="cls-2" d="M66.57,511.74c5.15,0,5.15-8,0-8s-5.16,8,0,8Z" transform="translate(75.4 -406.82)"/></svg>