<svg id="Laag_10" data-name="Laag 10" xmlns="http://www.w3.org/2000/svg" viewBox="0 0 134.2 127.44"><defs><style>.cls-1{fill:#3e3f4c;}.cls-2{fill:#23242d;}</style></defs><title>meteor3</title><path class="cls-1" d="M572.26,186.93c-.87,10.66.9,22.61,11.27,28.24,9.48,5.15,20.36-.25,29.54-3.64,16.67-6.16,33.27-13.59,46.46-25.79,6.62-6.13,12.67-13.83,16-22.3,4.73-12.2-2.74-20.92-10.38-29.65a193.44,193.44,0,0,0-21.43-20.93c-3.93-3.29-8-6.45-12.14-9.47s-8.7-6.78-14.17-7.1c-6.38-.37-10.84,3.3-15.69,6.91l-15.73,11.7-31.45,23.39c-5.53,4.11-6.42,10.31-2,15.7,5.51,6.76,11.25,13.34,18.75,18,3.17,1.95,6.65,3.34,9.76,5.4.46.3,1.17.84.76,1-.62.2,2.42-3.26,1.55-2.74L597,189.27c11.63-17.89,21.69-38.63,26.13-59.63,1-4.84,1.07-9.9-2.15-14-4.2-5.29-11.2-6-17-3-4.77,2.46-9.1,6.44-13.43,9.62L575.9,133.06,588,148.76a371.5,371.5,0,0,1,37.23-29.54l-12.11-15.7a426.35,426.35,0,0,0-40.68,48.21c-5.77,8,5.73,19.47,13.68,13.68a451.44,451.44,0,0,0,47.77-40L619.77,111.3l-38.5,43c-3.31,3.7-4,9.11-.78,13.13,2.79,3.51,8.88,5.63,12.9,2.57l44.67-34L626,120.3c-17.7,16.28-35.22,32.89-48.24,53.29-5.14,8.06,5.49,19.73,13.68,13.68l57.37-42.37-12.12-15.71a381.44,381.44,0,0,0-50.13,48.05c-3.49,4-4.12,10.18,0,14.14,11.74,11.3,26.1-4.37,35.33-11.51q16.86-13.05,33.43-26.48l-14.14-14.14a415.82,415.82,0,0,0-34.54,31.55q-8.18,8.37-15.86,17.19c-6,6.84-10.62,12.68-6.57,21.91,2.83,6.45,11.3,5.62,15.7,2l58.64-48c8.7-7.12-2.94-22.43-12.12-15.71a431.65,431.65,0,0,0-47.82,40.49c-2.88,2.84-4.14,8.63-1.57,12.12,9.52,12.91,21.83,1.54,31.07-5.19l30.49-22.23-13.68-13.68A49.34,49.34,0,0,1,632,172l13.68,13.68c4.79-6.5,12.12-10.21,15.71-17.79,4.13-8.68,3.66-17.83-2.68-25.23-3.52-4.11-10.53-3.61-14.14,0-4.07,4.07-3.53,10,0,14.14.55.64-3.34,5.32-4.07,6-4.23,4.23-8.51,7.89-12.09,12.75-6,8.11,5.65,19,13.69,13.68a75.6,75.6,0,0,0,20-19.46c5.7-8-5.71-19.49-13.68-13.68l-22.68,16.53-10.95,8-5.47,4-3.13,2.28q-3.09,1.67,2.63,0l6,4.6-.58-.78-1.56,12.12a395.64,395.64,0,0,1,43.78-37.37l-12.12-15.7-58.64,48,15.71,2-.48-1.08,1.37,5c-.08,2.12-.17,1.5,1.37-.26,1-1.13,2-2.27,3-3.39q3.27-3.72,6.64-7.35,6.42-6.93,13.16-13.56,13.8-13.57,28.82-25.81c4.18-3.42,3.55-10.59,0-14.14-4.15-4.15-9.93-3.41-14.14,0q-12.43,10.06-25,19.93-5.86,4.59-11.77,9.13L598.18,173c-.59.44-2.56,1.45-2.83,2.1-.5,1.26-2.05-1.06,1.67.3l4.42,2.57-.79-.75v14.14a382.64,382.64,0,0,1,50.13-48c8.79-7-3-22.47-12.12-15.71L581.3,170,595,183.69c12.07-18.92,28.71-34.16,45.11-49.25,8.18-7.52-3-22.67-12.12-15.7l-44.67,34,12.11,15.71,38.5-43c8.54-9.55-4.81-23.15-14.14-14.14a415.39,415.39,0,0,1-43.72,36.84l13.68,13.69a390.45,390.45,0,0,1,37.55-44.17c7.7-7.83-2.51-22.36-12.12-15.7a409.67,409.67,0,0,0-41.28,32.66c-8.28,7.47,2.87,22.5,12.12,15.71l14.62-10.75,6.92-5.09c1.79-1.31,4.1-3.71,6.12-4.09h-5.31l1.3.33-4.42-2.58c-.24-.2-1.4-3.82-1.43-3.82s-1,3.88-1.14,4.33q-1.08,3.9-2.32,7.74c-1.58,4.86-3.32,9.68-5.33,14.39a188.1,188.1,0,0,1-15.32,28.39c-5.55,8.53,5.31,18.61,13.68,13.68,12-7.08,9.77-23.38-.12-31.13-4.41-3.46-9.8-5.19-14.23-8.58-4.8-3.66-8.63-8.65-12.41-13.3l-2,15.71,43.25-32.17,5.5-4.09c.55-.41,4.2-2.51,4.22-3.11,0,.51-4.92-1.62-1,1,1.66,1.12,3.29,2.28,4.9,3.45a174.79,174.79,0,0,1,17.68,14.92,193.87,193.87,0,0,1,15.73,16.94c.47.57,2.58,2.61,2.6,3.62,0-1.31-.87,1-1,1.24a61.52,61.52,0,0,1-5.17,8.08c-8.14,10.09-19.72,16.67-31.37,21.92-6.44,2.91-13.12,5.3-19.79,7.62-2,.68-4,1.43-6,2-2.54.74-1.33.11-.89.87-1.94-3.33-1.24-7.24-.94-10.95.44-5.39-4.91-10-10-10-5.78,0-9.56,4.59-10,10Z" transform="translate(-545.84 -90.88)"/><path class="cls-2" d="M610.51,93.33c-11.57,7.47-23.14,15-34.15,23.22-5.14,3.86-10.18,7.86-15,12.1s-10.46,8.67-14,13.92c-3.07,4.5-.86,8.37,2.36,12,4.79,5.33,9.67,10.59,14.5,15.89,4.4,4.82,7.2,7.24,13.92,5.76,7.79-1.7,13.73,2.42,19.7,7,3.58,2.73,7.07-3.35,3.53-6-4.18-3.19-8.62-6.29-13.73-7.76a20.36,20.36,0,0,0-7.2-.75c-3.22.28-6,1.66-8.75-.37-2.14-1.56-3.89-4.26-5.67-6.22l-6.31-6.91c-1.54-1.69-5.48-4.76-6.23-6.92-.85-2.48,2.75-5,4.56-6.82,16.63-16.54,36.44-29.32,56-42,3.77-2.43.27-8.49-3.53-6Z" transform="translate(-545.84 -90.88)"/><path class="cls-2" d="M574.87,174.15c-1.64,4.33-3.73,8.7-4.91,13.18-1,3.82-.14,7.07,1.2,10.69,2.32,6.25,4.07,15.88,10.73,19,6.5,3.07,15.13-.17,21.59-1.9a175.85,175.85,0,0,0,22.57-7.67c14.5-6.08,28.23-14.42,39.26-25.74,10.66-10.94,19.37-24.28,12-39.56-4.08-8.45-11.53-14.37-19-19.73-4-2.89-8.14-5.65-11.87-8.91a52.1,52.1,0,0,1-4.58-4.46c-.53-.58-4.6-5.19-4.44-5.69L635,105.83l.45-.07c4.44-.7,2.56-7.44-1.86-6.75l-.45.07a3.45,3.45,0,0,0-2.44,2.45c-1.48,4.83,4.3,10.53,7.33,13.67,4.57,4.73,10,8.49,15.38,12.29,12.63,9,26.36,22.16,15.94,38.32-15,23.19-42.72,36-68.5,42.79-3.83,1-8,2.39-12,2.62-5.8.32-7-4.47-8.71-9-1.47-3.91-4.29-8.81-3.47-13,.86-4.42,3.32-9,4.91-13.18s-5.16-6-6.75-1.86Z" transform="translate(-545.84 -90.88)"/><path class="cls-2" d="M637,102.26A15.75,15.75,0,0,0,632,97c-2.31-1.44-5.1-1.77-7.27-3.4C620,90,616.41,90,611.36,93.44c-3.7,2.53-.2,8.6,3.53,6s5.32.06,8.65,1.52c3,1.31,5.6,1.82,7.45,4.79,2.38,3.82,8.44.31,6-3.53Z" transform="translate(-545.84 -90.88)"/><path class="cls-2" d="M569.9,142.54a10.2,10.2,0,0,1,8.1,7.81c.21.92-.19,4.15.67,4.19-4.5-.19-4.49,6.81,0,7,6.86.29,7.25-8.89,5.91-13.63a17.51,17.51,0,0,0-12.82-12.12c-4.37-1.1-6.23,5.65-1.86,6.75Z" transform="translate(-545.84 -90.88)"/><path class="cls-2" d="M650.39,142.37c-4.4,4.65-6.46,10.95-4.72,17.24,1.57,5.68,6,11.12,12.33,10.06,4.43-.75,2.55-7.49-1.86-6.75-2.51.42-4-6.19-4.09-7.62a11,11,0,0,1,3.29-8c3.09-3.27-1.85-8.23-5-4.95Z" transform="translate(-545.84 -90.88)"/><path class="cls-2" d="M612.05,108.71A11,11,0,0,0,622.87,116a3.58,3.58,0,0,0,3.5-3.5,3.53,3.53,0,0,0-3.5-3.5,4,4,0,0,1-4.07-2.15,3.59,3.59,0,0,0-4.3-2.44c-1.68.46-3.14,2.53-2.45,4.3Z" transform="translate(-545.84 -90.88)"/><path class="cls-2" d="M602.67,201.46q.45-.36-.12.09l.4-.3.82-.57q.83-.54,1.71-1a3.54,3.54,0,0,0,1.25-4.79,3.58,3.58,0,0,0-4.79-1.26,30.36,30.36,0,0,0-4.22,2.9,3.51,3.51,0,0,0-1,2.47,3.58,3.58,0,0,0,1,2.48,3.5,3.5,0,0,0,2.48,1,4,4,0,0,0,2.47-1Z" transform="translate(-545.84 -90.88)"/><path class="cls-2" d="M584.52,134h.78a3.5,3.5,0,1,0,0-7h-.78a3.5,3.5,0,0,0,0,7Z" transform="translate(-545.84 -90.88)"/><path class="cls-2" d="M586.87,141.48c2.57,0,2.58-4,0-4s-2.58,4,0,4Z" transform="translate(-545.84 -90.88)"/><path class="cls-2" d="M590.78,136.07a.5.5,0,0,0,0-1,.5.5,0,0,0,0,1Z" transform="translate(-545.84 -90.88)"/><path class="cls-2" d="M591.57,146.24a.5.5,0,0,0,0-1,.5.5,0,0,0,0,1Z" transform="translate(-545.84 -90.88)"/><path class="cls-2" d="M590.78,135.5a1.5,1.5,0,0,0,0-3,1.5,1.5,0,0,0,0,3Z" transform="translate(-545.84 -90.88)"/><path class="cls-2" d="M593.52,192.24a1.5,1.5,0,0,0,0-3,1.5,1.5,0,0,0,0,3Z" transform="translate(-545.84 -90.88)"/><path class="cls-2" d="M588.83,194.76h.39a.5.5,0,0,0,0-1h-.39a.5.5,0,0,0,0,1Z" transform="translate(-545.84 -90.88)"/><path class="cls-2" d="M590,202.63c3.22,0,3.22-5,0-5s-3.22,5,0,5Z" transform="translate(-545.84 -90.88)"/><path class="cls-2" d="M601,189.72c3.21,0,3.22-5,0-5s-3.23,5,0,5Z" transform="translate(-545.84 -90.88)"/><path class="cls-2" d="M643.22,140c3.21,0,3.22-5,0-5s-3.23,5,0,5Z" transform="translate(-545.84 -90.88)"/><path class="cls-2" d="M629.91,121.24c3.22,0,3.23-5,0-5s-3.22,5,0,5Z" transform="translate(-545.84 -90.88)"/><path class="cls-2" d="M622.87,120.74c2.57,0,2.58-4,0-4s-2.58,4,0,4Z" transform="translate(-545.84 -90.88)"/><path class="cls-2" d="M624.83,124.15h.78a1.5,1.5,0,0,0,0-3h-.78a1.5,1.5,0,0,0,0,3Z" transform="translate(-545.84 -90.88)"/><path class="cls-2" d="M615.83,120.13a1,1,0,0,0,0-2,1,1,0,0,0,0,2Z" transform="translate(-545.84 -90.88)"/><path class="cls-2" d="M619.35,126a1,1,0,0,0,0-2,1,1,0,0,0,0,2Z" transform="translate(-545.84 -90.88)"/><path class="cls-2" d="M635.5,135.06a1.16,1.16,0,0,0,.28,2.28,1,1,0,0,0,1-1,1,1,0,0,0-1-1h-.07l.71.29,0,0,.26.44v.32l-.26.44,0,0L636,137H636a1,1,0,0,0,.69-1.23,1,1,0,0,0-1.23-.7Z" transform="translate(-545.84 -90.88)"/><path class="cls-2" d="M638.52,148.7a1,1,0,0,0,0-2,1,1,0,0,0,0,2Z" transform="translate(-545.84 -90.88)"/><path class="cls-2" d="M644.78,142.43a1,1,0,0,0,0-2,1,1,0,0,0,0,2Z" transform="translate(-545.84 -90.88)"/><path class="cls-2" d="M636.17,143c2.58,0,2.58-4,0-4s-2.57,4,0,4Z" transform="translate(-545.84 -90.88)"/><path class="cls-2" d="M611.13,160.26c2.57,0,2.58-4,0-4s-2.58,4,0,4Z" transform="translate(-545.84 -90.88)"/><path class="cls-2" d="M616.22,160.83a1,1,0,0,0,0-2,1,1,0,0,0,0,2Z" transform="translate(-545.84 -90.88)"/><path class="cls-2" d="M613.87,167.09a1,1,0,0,0,0-2,1,1,0,0,0,0,2Z" transform="translate(-545.84 -90.88)"/></svg>