<svg id="rottenfish" xmlns="http://www.w3.org/2000/svg" viewBox="0 0 94 99.99"><defs><style>.cls-1{fill:#54826b;}.cls-2{fill:#d8edbc;}.cls-3{fill:#a1b286;}.cls-4{fill:#354f41;}.cls-5{fill:#87b29c;}</style></defs><title>rottenfish</title><path class="cls-1" d="M847.19,670.34c8.82-3.82,14.91-14.25,14-23.81-1-10.11-9.72-16.65-19.64-15.45a25.26,25.26,0,0,0-12.77,5.76c-3.07,2.46-7.55,6.08-8.6,10-1.26,4.8,3.69,9.3,6.48,12.65a120.3,120.3,0,0,0,12.48,12.86c2.59,2.32,5.87,1.65,7.85-1,2.88-3.88,6.16-5.57,6.06-11-.09-4.73-2.75-9.44-5.37-13.23-2.36-3.39-5.94-8.42-10.8-7.14s-4.94,6.07-3.58,9.88,3.94,8.44,8.07,10a9.61,9.61,0,0,0,10.81-3.37c5.46-7.26-.58-21.06-10.07-19.68-1.75.25-3,2-3.5,3.49-2.27,6.52,5.49,15,12.25,13.6a6.43,6.43,0,0,0,4.83-7.84c-.76-3.72-4.34-6.7-7.37-8.6-5.72-3.58-15.69-4-17.54,4.27-1.81,8.16,6.06,16.33,12.21,20.35,3.08,2,7.73-.6,7.52-4.32-.43-7.49-10-18.15-18-16.33a5.08,5.08,0,0,0-3.5,6.15A32.56,32.56,0,0,0,838.82,664a5,5,0,0,0,7.85-6.06c-2.25-4.59-6.25-10.6-11.5-12s-8.93,3.08-7.95,8c1.25,6.31,10.89,3.64,9.64-2.66l-.16-.81-.5,3.85-.5.64-3.85.51c2.9.61,5,5.2,6.18,7.53l7.86-6.06a23.22,23.22,0,0,1-7.23-12l-3.49,6.15c-.09,0,5.3,6.13,5.33,6.69l7.52-4.31a18.1,18.1,0,0,1-7-8.19c-.05-.89-.37-1-1-.42a3.73,3.73,0,0,1,1.85.51c.84.51,4,1.79,3.9,3l1.47-3.54-.6.66,3.53-1.46a4.82,4.82,0,0,1-1.93-1l-3.49,3.49,1.07-.15-3.86-.51c.91.63,2.3,2.39,2.12,3.6.15-1-1.64-2.76-1.66-4L840,649.66l.76-.55-3.85.5c2.11.54,5.18,7.22,5.7,9,1,3.51-2.26,5.09-4.23,7.75l7.86-1c-5.91-5.29-13.51-11.9-17-19.14l.51,3.85c.68-2.82,6.54-6.67,8.95-7.83,2.92-1.4,6.85-2.13,9.7-.16,7.78,5.36-.15,17-6.2,19.65-5.9,2.55-.81,11.16,5,8.64Z" transform="translate(-769.59 -629.51)"/><path class="cls-1" d="M784.4,705.37c.49,5.25,1,10.59-.07,15.79H794c-.93-5.82,2.34-12.26-1.44-17.45-3.89-5.35-11.76-3.23-17.37-2.82-6.38.47-6.43,10.47,0,10l6.33-.47c.78,0,2.89-.5,3.65-.24-1-.35-.42-.44-.72.69-1.09,4.2-.77,8.73-.1,13,.78,4.9,8.67,4.65,9.65,0,1.29-6.17,1-12.22.42-18.45s-10.6-6.42-10,0Z" transform="translate(-769.59 -629.51)"/><path class="cls-2" d="M795,705.57a101,101,0,0,0,36.66-39.41c1.47-2.85-2.84-5.38-4.32-2.52a95.88,95.88,0,0,1-34.86,37.61c-2.74,1.68-.23,6,2.52,4.32Z" transform="translate(-769.59 -629.51)"/><path class="cls-2" d="M836.82,681.07a66.15,66.15,0,0,1-22.67-17.15c-1.82-2.12-5.66.77-3.92,3a5.34,5.34,0,0,1,.85,1.34c1.2,2.94,6,1.65,4.82-1.33a10.13,10.13,0,0,0-1.36-2.53l-3.92,3a69.42,69.42,0,0,0,23.68,17.92c2.9,1.34,5.45-3,2.52-4.31Z" transform="translate(-769.59 -629.51)"/><path class="cls-2" d="M827.38,692.18a51.53,51.53,0,0,1-21.54-19.07,2.53,2.53,0,0,0-4.57.6l-.16.64c-.82,3.11,4,4.44,4.82,1.33l.17-.64-4.57.6a56.36,56.36,0,0,0,23.32,20.86c2.89,1.38,5.43-2.93,2.53-4.32Z" transform="translate(-769.59 -629.51)"/><path class="cls-2" d="M818.78,701.57A50,50,0,0,1,797.23,685c-1.89-2.56-6.23-.07-4.32,2.52a56.08,56.08,0,0,0,24.54,18.91c3,1.19,4.29-3.64,1.33-4.82Z" transform="translate(-769.59 -629.51)"/><path class="cls-2" d="M805.37,709.29a45.44,45.44,0,0,1-13.66-14.58c-1.63-2.76-6-.25-4.31,2.53a51.11,51.11,0,0,0,15.45,16.37c2.67,1.81,5.17-2.52,2.52-4.32Z" transform="translate(-769.59 -629.51)"/><path class="cls-3" d="M826.21,676c1.81.94,3.62,1.88,5.38,2.9,1.13.65,4.82,2.34,5.31,3.58-.71,1.48-1.73,1.89-3.06,1.25l-.83-.28a21.42,21.42,0,0,1-3.55-1.7,43,43,0,0,1-4.86-3.32c-1-.78-2,1-1,1.73,2.8,2.14,12,9.26,15.22,4.23,1.19-1.89-.39-3.31-1.82-4.37a71.47,71.47,0,0,0-9.77-5.75c-1.14-.59-2.15,1.14-1,1.73Z" transform="translate(-769.59 -629.51)"/><path class="cls-3" d="M823.31,671.2c-2.8-2.38-5.59-4.78-8.4-7.16-1.36-1.15-3.23-2.44-4.58-.49-3.14,4.55,5.21,10.67,8,12.9,1,.79,2.43-.61,1.42-1.41-1.41-1.13-2.83-2.25-4.13-3.51-.9-.86-3.89-3.53-3.7-5,.33-2.62,2.5-.23,3,.17l2.1,1.79,4.9,4.18c1,.83,2.39-.58,1.41-1.42Z" transform="translate(-769.59 -629.51)"/><path class="cls-3" d="M814.64,682.11c-2.49-3.05-4.95-6.22-7.67-9.06-1.53-1.59-3.78-2.73-5.36-.53s-.39,4.77,1,6.59c2.2,2.92,4.83,5.59,7.23,8.34.85,1,2.26-.45,1.41-1.42l-4.28-4.91c-.77-.88-1.57-1.75-2.32-2.66a9.75,9.75,0,0,1-1.14-1.56c-.78-.9-.6-1.57.56-2,.54-1.1,1.05-1.24,1.51-.4l1.21,1.38c.7.8,1.39,1.61,2.08,2.42q2.22,2.61,4.39,5.26c.81,1,2.22-.42,1.41-1.41Z" transform="translate(-769.59 -629.51)"/><path class="cls-3" d="M817.82,687.24l5.64,3.62c1.11.71,5.95,3.21,3.21,4.38-1.64.69-4.54-1.44-5.86-2.33-1.76-1.21-3.47-2.52-5.2-3.78-1-.75-2,1-1,1.73,2.84,2.07,10.89,9.54,14.67,5.37,1.46-1.61.24-3.54-1.15-4.69-2.79-2.3-6.24-4.07-9.29-6-1.09-.7-2.09,1-1,1.73Z" transform="translate(-769.59 -629.51)"/><path class="cls-3" d="M808.26,696.65c2.22,1.17,4.41,2.41,6.54,3.75,1.06.66,2.12,1.34,3.15,2.06a1.56,1.56,0,0,1,1.16,2.15,5,5,0,0,1-3-.55c-2.2-1-4.28-2.29-6.44-3.36-1.41-.69-3.39-2.13-5-2.13a1,1,0,0,0-1,1.26l0,.09a1,1,0,0,0,1.23.7H805c1.25-.29.72-2.22-.53-1.93h-.07l1.23.7,0-.09-1,1.27c1.37,0,4,1.87,5.25,2.49,1.73.88,3.41,1.9,5.17,2.73s4.54,1.61,6-.11,0-3.37-1.38-4.41a76.41,76.41,0,0,0-10.47-6.35c-1.13-.6-2.15,1.12-1,1.73Z" transform="translate(-769.59 -629.51)"/><path class="cls-3" d="M798.06,703.81l3.39,3.11c1.08,1,2.91,2.16,3.49,3.54.94,1,.39,1.68-1.65,2l-.79-.41a11.83,11.83,0,0,1-1.9-1.12,28.79,28.79,0,0,1-4.24-3.37,47,47,0,0,1-5.82-7,19,19,0,0,1-1.28-1.93l-.49-1.07c-.56-1.35-.11-1.87,1.34-1.57,1.73-.22,1.72-.13,2.68,1.29a11.22,11.22,0,0,1,1.2,2.4c.45,1.19,2.39.67,1.93-.53-1-2.7-5.44-9.2-8.57-4.83-1.36,1.89-.55,4.17.57,5.95a50.77,50.77,0,0,0,5.54,7.19,31.51,31.51,0,0,0,7.26,5.9c1.69,1,4.08,2.39,5.78.69,1.38-1.38,1-3.46,0-4.94-1.75-2.56-4.79-4.64-7.06-6.73-1-.87-2.37.54-1.42,1.42Z" transform="translate(-769.59 -629.51)"/><path class="cls-3" d="M800.91,694.92c-1.47-1.27-3-2.51-4.4-3.84a11.16,11.16,0,0,1-2.12-2.43c-.48-.8-1.95-4,.34-4.18,1.59-.11,3.86,2.55,4.77,3.59,1.32,1.51,2.5,3.15,3.72,4.74.78,1,2.52,0,1.73-1-1.9-2.47-3.7-5.22-6.13-7.22-1.44-1.19-4.15-3.09-6-1.74s-1.35,4.4-.49,6.15c1.49,3.06,4.7,5.18,7.21,7.36,1,.84,2.39-.57,1.41-1.42Z" transform="translate(-769.59 -629.51)"/><path class="cls-3" d="M814,689.42a13.54,13.54,0,0,1-2.71,2.9,37.4,37.4,0,0,1-3.07,2.84c-1,.77,0,2.51,1,1.72a39.76,39.76,0,0,0,3.48-3.14,15.55,15.55,0,0,0,3-3.31c.63-1.13-1.1-2.14-1.73-1Z" transform="translate(-769.59 -629.51)"/><path class="cls-3" d="M803.82,698.72a18.12,18.12,0,0,1-5.17,3.49c-1.17.54-.16,2.26,1,1.73a19.69,19.69,0,0,0,5.57-3.81c.93-.89-.48-2.31-1.41-1.41Z" transform="translate(-769.59 -629.51)"/><path class="cls-3" d="M799.65,695.33a29.86,29.86,0,0,0-5.11,3.29c-1,.8.41,2.21,1.41,1.42a27.56,27.56,0,0,1,4.71-3c1.15-.58.14-2.3-1-1.72Z" transform="translate(-769.59 -629.51)"/><path class="cls-3" d="M810,686.47a32.07,32.07,0,0,1-6.43,4.86,1,1,0,0,0,1,1.73,34.22,34.22,0,0,0,6.84-5.18c.92-.9-.49-2.31-1.42-1.41Z" transform="translate(-769.59 -629.51)"/><path class="cls-3" d="M814.41,684a5,5,0,0,0,2.59-2.62,26.12,26.12,0,0,1,3.19-4.54c.81-1-.59-2.41-1.41-1.42s-1.83,2.2-2.63,3.37c-.69,1-1.06,2.79-2.27,3.28s-.66,2.41.53,1.93Z" transform="translate(-769.59 -629.51)"/><path class="cls-3" d="M819.76,686.39c.16-.57.85-1,1.24-1.41s.78-.89,1.14-1.36a18.28,18.28,0,0,0,2-3.34c.54-1.16-1.18-2.18-1.73-1a16.43,16.43,0,0,1-2.4,3.81c-.77.89-1.87,1.6-2.18,2.77a1,1,0,0,0,1.92.54Z" transform="translate(-769.59 -629.51)"/><path class="cls-3" d="M827.83,675.34q2.14-4.64,4.75-9a1,1,0,0,0-1.72-1q-2.61,4.4-4.76,9c-.54,1.16,1.18,2.18,1.73,1Z" transform="translate(-769.59 -629.51)"/><path class="cls-3" d="M823.82,672.17c1.66-3.06,3.26-6.15,5.22-9,.72-1.07-1-2.07-1.73-1-1.95,2.89-3.55,6-5.22,9-.61,1.13,1.11,2.15,1.73,1Z" transform="translate(-769.59 -629.51)"/><path class="cls-4" d="M832.61,667.86c2.59,2.83,6.25,7,10.44,7.15,3.73.09,7.43-3.91,10.05-6.19,6.66-5.8,11.54-13.48,10.29-22.64-1-7.71-6.85-14.54-14.55-16.22-9-2-17.62,2.8-24.06,8.69-2.32,2.13-7.36,6.55-6.5,10.15.52,2.14,2.16,4.42,3.3,6.28a65.17,65.17,0,0,0,4.82,6.75c1.22,1.5,3.33-.64,2.13-2.13a55.82,55.82,0,0,1-4.36-6.13c-.86-1.4-3-4.19-2.93-5.82,0-.65,1-1.7,1.32-2.19a24.52,24.52,0,0,1,2.49-3,41,41,0,0,1,5.44-4.76c7.23-5.3,17.43-7.88,24.7-1.23,6.86,6.26,6.79,16.62,1.64,23.91a44.41,44.41,0,0,1-9,8.82c-2.46,1.94-4.33,3.62-7.42,1.62a31.25,31.25,0,0,1-5.65-5.19c-1.31-1.42-3.43.7-2.12,2.12Z" transform="translate(-769.59 -629.51)"/><path class="cls-4" d="M792.74,710.56a41.35,41.35,0,0,1,.37,9.1c-.2,3-.43,7.86-4.7,6.49a5,5,0,0,1-3.31-2.9c-.41-1.34,0-3.21,0-4.58l.49-8.78a1.53,1.53,0,0,0-1.5-1.5l-7.58,0c-1.11,0-2.7.4-3.53-.48-.6-.63-.46-3.24-.39-4.13.14-1.85.43-2.1,2.2-2.44a21.67,21.67,0,0,1,4.1-.41,24.4,24.4,0,0,1,7.62,1.22c1.84.58,2.63-2.31.8-2.9a26.66,26.66,0,0,0-11.53-1.09c-3.44.45-5.94.93-6.16,4.7-.15,2.48-.41,7.36,2.54,8.37,1.59.55,3.66.17,5.3.16l6.63,0-1.5-1.5-.42,7.4c-.12,2.16-.6,4.64,0,6.76.86,3.11,4.51,5.39,7.64,5.45,8.38.14,6.52-14.82,5.79-19.74-.29-1.9-3.18-1.09-2.9.8Z" transform="translate(-769.59 -629.51)"/><path class="cls-4" d="M857.28,647.89a74,74,0,0,0-9.4-.85c-1.93,0-1.93,3,0,3a69,69,0,0,1,8.61.74c1.88.29,2.7-2.6.79-2.89Z" transform="translate(-769.59 -629.51)"/><path class="cls-4" d="M851.32,642.73A52.71,52.71,0,0,1,850,655.92a1.5,1.5,0,0,0,2.89.79,55.67,55.67,0,0,0,1.48-14c0-1.93-3-1.93-3,0Z" transform="translate(-769.59 -629.51)"/><path class="cls-4" d="M842.21,650.45a12.32,12.32,0,0,1-5.24-1.67.5.5,0,0,0-.51.86,13.61,13.61,0,0,0,5.75,1.81c.64,0,.63-1,0-1Z" transform="translate(-769.59 -629.51)"/><path class="cls-4" d="M841.63,652.78a9,9,0,0,1-4.22-1.18.5.5,0,0,0-.5.86,10,10,0,0,0,4.72,1.32c.64,0,.64-1,0-1Z" transform="translate(-769.59 -629.51)"/><path class="cls-4" d="M789.75,727.34,791.89,717c.11-.52-.64-.91-.91-.38l-.4.77c-.29.57.57,1.08.87.51l.39-.78-.91-.38-2.14,10.35c-.13.63.83.9,1,.27Z" transform="translate(-769.59 -629.51)"/><path class="cls-4" d="M788.11,727.39q.71-4.68,1.58-9.36h-1l.1.53c.13.63,1.1.37,1-.26l-.11-.53a.5.5,0,0,0-1,0q-.87,4.66-1.59,9.36c-.09.63.87.9,1,.26Z" transform="translate(-769.59 -629.51)"/><path class="cls-4" d="M782,703.44l-9.78,0a.5.5,0,0,0,0,1l9.78,0a.5.5,0,0,0,0-1Z" transform="translate(-769.59 -629.51)"/><path class="cls-4" d="M780.41,705.67a84.51,84.51,0,0,0-8.86.28c-.64.06-.64,1.06,0,1a84.51,84.51,0,0,1,8.86-.28c.64,0,.64-1,0-1Z" transform="translate(-769.59 -629.51)"/><path class="cls-5" d="M833.69,641.15a20.45,20.45,0,0,1,15.11-3c1.89.36,2.7-2.53.8-2.89a23.57,23.57,0,0,0-17.43,3.31c-1.62,1-.11,3.64,1.52,2.59Z" transform="translate(-769.59 -629.51)"/><path class="cls-5" d="M852.37,638.39v.52a1.5,1.5,0,0,0,3,0v-.52a1.5,1.5,0,0,0-3,0Z" transform="translate(-769.59 -629.51)"/><path class="cls-5" d="M789.76,708.3V712a1.5,1.5,0,0,0,3,0V708.3a1.5,1.5,0,0,0-3,0Z" transform="translate(-769.59 -629.51)"/></svg>