<svg id="tv" xmlns="http://www.w3.org/2000/svg" viewBox="0 0 106.46 77.72"><defs><style>.cls-1{fill:#555472;}.cls-2{fill:#363649;}.cls-3{fill:#484860;}.cls-4{fill:#646484;}.cls-5{fill:#8e8ebf;}</style></defs><title>tv</title><path class="cls-1" d="M198.75,321.91q-6.21,6.94-12.3,14c-3.47,4-8.85,8.58-10.75,13.6-1.74,4.57.76,8.87,4.81,11.14,5.44,3,11.93,4.91,17.7,7.25l17.93,7.26c5.64,2.28,9.48,2.3,14-2.14,9.28-9.21,18.25-18.74,27.36-28.11,2.5-2.57,2.37-7.72-1.21-9.42q-23.19-11-47.25-20c-7.25-2.7-10.37,8.89-3.19,11.57q22.6,8.42,44.38,18.77L249,336.42Q239,346.69,229,357l-5.34,5.48-1.33,1.37q-2.61,2.24-.26.83c-2.06-.06-5.24-2.12-7.17-2.91l-6.28-2.54-13.44-5.44-5.38-2.18c-1.07-.42-2.13-.86-3.19-1.32q.57,4.56,2.33,1.19c1.74-1,3.51-4.13,4.83-5.67l3.65-4.23q4.89-5.62,9.87-11.18c5.13-5.74-3.33-14.25-8.49-8.48Z" transform="translate(-170.59 -312.34)"/><path class="cls-1" d="M207.44,320.54a114.37,114.37,0,0,0-25,27.78c-4,6.2,4.46,11.17,9.42,7.27q14.88-11.68,29.1-24.18l-8.49-8.49c-8.08,7.43-16,15.09-21.33,24.82-2.62,4.82,3.11,12.07,8.21,8.21l29.93-22.64-7.27-9.43c-9,7.4-17.53,14.94-24.21,24.53-3.38,4.85,3.35,11.58,8.21,8.2L234,337.22l-7.27-9.42a221.78,221.78,0,0,0-17.83,17.26c-4.06,4.58-10.7,11.43-4.68,17.29,2.47,2.4,6,2.12,8.49,0a275.73,275.73,0,0,1,26.38-19.75l-7.27-9.43c-9.1,7.6-18.12,15.56-23.45,26.36-2.36,4.78,3,12.19,8.21,8.21l24.31-18.49-7.27-9.43c-6.56,6.19-15.3,12.33-19.05,20.77-2.1,4.73,2.83,12.28,8.21,8.21,7.92-6,15.63-12.22,23.1-18.76l-8.49-8.48-6.47,8.3c-4.69,6,3.74,14.57,8.49,8.49l6.47-8.31c4.67-6-2.53-13.69-8.49-8.48q-10,8.79-20.67,16.87l8.21,8.21c3.25-7.31,11.47-12.95,17.18-18.33,4.83-4.56-1.76-13.61-7.27-9.42l-24.32,18.49,8.21,8.21c4.89-9.91,13.23-17,21.58-23.93,5.21-4.35-1.61-13.17-7.27-9.42a301.57,301.57,0,0,0-28.82,21.62h8.49l-.6-.58,1.76,4.25c-.06-.71,3.32-3.76,4.11-4.64,1.78-2,3.63-3.88,5.52-5.75,3.79-3.74,7.76-7.3,11.72-10.86,5-4.49-1.63-13.33-7.27-9.42l-28,19.39,8.21,8.21c6-8.66,14.27-15.42,22.33-22.09,5.19-4.3-1.82-13.55-7.27-9.43l-29.93,22.65,8.21,8.21c4.83-8.86,12.11-15.64,19.46-22.39,5.72-5.26-2.73-13.55-8.49-8.49q-14.2,12.49-29.1,24.19l9.43,7.27A104.77,104.77,0,0,1,215.92,329c6-4.81-2.5-13.25-8.48-8.48Z" transform="translate(-170.59 -312.34)"/><path class="cls-1" d="M239.27,345.13A40.8,40.8,0,0,1,258.54,349l-1.21-9.43-17.5,18.72c-2.63,2.81-5.1,6.22-8.08,8.64-2,1.66.18,1.06-2.08.5a14.35,14.35,0,0,1-5.29-3.3l-7.27,9.43A105.54,105.54,0,0,0,238,381.75L239.63,370l-1.3-.35c-6-4.75-13.62,2.53-8.49,8.49a17.78,17.78,0,0,0,6.15,4.66c6.92,3.2,12.7-6.16,6.06-10.36a20.42,20.42,0,0,0-8.3-3.1l-1.6,11.78c.55,0,1.62.86,2.22,1.15a10.23,10.23,0,0,0,4.63,1.15c3,0,5.06-1.57,7.29-3.36a130.82,130.82,0,0,0,15.81-15c3.75-4.19,10.15-10,10.67-15.86.68-7.59-7.41-9.48-13-11.26-7.38-2.33-10.54,9.25-3.19,11.58l3.45,1.09q3.75,2,1.09-3.31c-.49,0-3.55,4.69-4.07,5.31q-4.17,5-8.82,9.64c-1.45,1.43-2.92,2.83-4.43,4.2s-4.27,2.89-5.29,4.54q-2.4,1.53.89.31a19,19,0,0,0-2.07-1.17,10,10,0,0,0-5.16-1.05c-6.24.45-8.72,10.82-1.59,11.79a12.35,12.35,0,0,1,5.43,1.89l6.06-10.36a9.32,9.32,0,0,1-3.72-2.79l-8.49,8.49a15.58,15.58,0,0,0,9.79,3.86c6.83.35,8.05-10,1.6-11.79a89.71,89.71,0,0,1-18.06-7c-5.78-3-12.56,4.65-7.27,9.43a32.32,32.32,0,0,0,12,7.06c5.31,1.55,9.48-1.29,13-5,8.38-8.81,16.6-17.76,24.9-26.64,2.45-2.61,2.41-7.69-1.21-9.42a53.8,53.8,0,0,0-25.33-5.53c-7.7.24-7.73,12.24,0,12Z" transform="translate(-170.59 -312.34)"/><path class="cls-1" d="M206.59,362.85l-5.43,7.63c-1.25,1.74-2.95,5.31-5.11,6.07-2.42.84-1.38,4.71,1.06,3.85s4.09-3.13,5.58-5.21c2.46-3.44,4.9-6.88,7.35-10.32,1.5-2.1-2-4.1-3.45-2Z" transform="translate(-170.59 -312.34)"/><path class="cls-1" d="M182.78,376.51q12.33,5.89,25.17,10.61c2.1.77,3.63-2.76,1.54-3.66L184.28,372.6c-2.31-1-4.38,2.3-2,3.45l21.46,10.51c2.29,1.12,4.29-2.18,2-3.46a159.08,159.08,0,0,0-15.09-7.48c-2.3-1-4.32,2.15-2,3.46,7.27,4.12,15.24-.15,16.08-8.36.26-2.56-3.74-2.54-4,0-.53,5.17-5.72,7.37-10.06,4.9l-2,3.46a159.08,159.08,0,0,1,15.09,7.48l2-3.46-21.46-10.5-2,3.45,25.21,10.86,1.54-3.65q-12.34-4.53-24.21-10.2c-2.32-1.11-4.35,2.34-2,3.45Z" transform="translate(-170.59 -312.34)"/><path class="cls-1" d="M202.23,366.78c-2,5-3.35,9.89-1.06,15,1.06,2.35,4.47.31,3.46-2l-1.81-4.16c-.89-2.05-4.51-.56-3.65,1.55l1.59,3.94,1.93-2.53-4.39-.14c-2.06-.06-2.62,2.71-1,3.73a67.9,67.9,0,0,0,10.06,5.29l1.54-3.65-9.08-3.65c-2.24-.9-3.27,2.44-1.55,3.65a32.56,32.56,0,0,0,9.94,4.67c2.33.64,3.27-2.37,1.54-3.66l-7.69-5.72c-2.07-1.53-4.07,1.94-2,3.46l7.7,5.71,1.54-3.65a28.8,28.8,0,0,1-9-4.26L198.74,384l9.08,3.65c2.09.84,3.63-2.77,1.54-3.65a67.8,67.8,0,0,1-10.05-5.29l-1,3.72,4.39.14a2,2,0,0,0,1.93-2.53l-1.6-3.95-3.65,1.54,1.8,4.16,3.46-2c-1.77-4,0-8.21,1.46-12,.95-2.39-2.92-3.43-3.86-1.06Z" transform="translate(-170.59 -312.34)"/><path class="cls-1" d="M202.05,366.5c-.21,6.67-8.49,7.34-13.47,7.59-2.57.12-2.58,4.12,0,4,7.42-.36,17.18-2.35,17.47-11.59.08-2.58-3.92-2.57-4,0Z" transform="translate(-170.59 -312.34)"/><path class="cls-1" d="M201.94,368.15A20.19,20.19,0,0,0,206,386.77c1.64,2,4.46-.87,2.82-2.83a16,16,0,0,1-3-14.73c.69-2.48-3.17-3.54-3.86-1.06Z" transform="translate(-170.59 -312.34)"/><path class="cls-1" d="M200.35,380.17a17.63,17.63,0,0,0,7.73,7.76c2.29,1.17,4.32-2.28,2-3.45a14.09,14.09,0,0,1-6.3-6.33c-1.16-2.3-4.61-.28-3.45,2Z" transform="translate(-170.59 -312.34)"/><path class="cls-1" d="M199.2,382.1a20,20,0,0,0,10.67,7c1.81.49,3.55-2,1.95-3.34a74.79,74.79,0,0,0-11.9-8.07c-2.26-1.23-4.28,2.22-2,3.45A69.58,69.58,0,0,1,209,388.59l1.95-3.35a16.47,16.47,0,0,1-8.91-6c-1.59-2-4.4.83-2.83,2.83Z" transform="translate(-170.59 -312.34)"/><path class="cls-1" d="M187.61,372.94l-2-.53-1.54,3.66a23.94,23.94,0,0,0,17.33-.31c2.35-.95,1.32-4.82-1.07-3.85a20.58,20.58,0,0,1-15.2.3c-2.11-.77-3.57,2.66-1.54,3.66a10.06,10.06,0,0,0,4,1.07c2.57.19,2.56-3.81,0-4Z" transform="translate(-170.59 -312.34)"/><path class="cls-1" d="M194.38,377.3a26.58,26.58,0,0,0,16-16c.89-2.42-3-3.46-3.85-1.06a22.22,22.22,0,0,1-13.19,13.16c-2.39.88-1.36,4.75,1.07,3.86Z" transform="translate(-170.59 -312.34)"/><path class="cls-1" d="M190.13,376.94c9-.81,13.64-8.39,17.3-15.75,1.14-2.3-2.31-4.33-3.45-2-2.9,5.81-6.54,13.11-13.85,13.77-2.55.23-2.57,4.23,0,4Z" transform="translate(-170.59 -312.34)"/><path class="cls-1" d="M204.05,316a94.77,94.77,0,0,0-15.67,20.66c-1.26,2.24,2.19,4.26,3.46,2a90.63,90.63,0,0,1,15-19.85c1.82-1.82-1-4.65-2.83-2.83Z" transform="translate(-170.59 -312.34)"/><path class="cls-1" d="M206.63,317.72c10.36,4,20.73,8.06,31,12.29,5.42,2.24,10.81,4.53,16.17,6.91,2.32,1,4.64,2.08,6.94,3.14,1.43.66,7.32,2.42,8.09,3.7l.31-2.43-.13.13c-1.88,1.76,1,4.59,2.83,2.82l.13-.12a2,2,0,0,0,.31-2.42c-.91-1.53-2.81-2-4.34-2.7q-4.31-2.06-8.64-4c-5.37-2.43-10.78-4.76-16.21-7-11.72-4.91-23.57-9.51-35.41-14.12-2.4-.93-3.44,2.93-1.06,3.86Z" transform="translate(-170.59 -312.34)"/><path class="cls-1" d="M266.57,342.51a25.47,25.47,0,0,1,4.21,2.27c1,.8.84.2.58,1.21s-1.75,2.25-2.39,3l-7.53,9.15c-1.62,2,1.2,4.82,2.83,2.83l6.2-7.53c1.66-2,4-4.19,5-6.68,1.7-4.45-3.76-6.14-6.85-7.73-2.29-1.18-4.31,2.28-2,3.46Z" transform="translate(-170.59 -312.34)"/><path class="cls-1" d="M271.66,346.1a129.2,129.2,0,0,1-8.13,10.66c-1.62,2,1.19,4.82,2.83,2.83a139,139,0,0,0,8.76-11.47c1.42-2.15-2-4.16-3.46-2Z" transform="translate(-170.59 -312.34)"/><path class="cls-1" d="M179.29,344.35a15.53,15.53,0,0,1-3.33,4.74l2.83,2.83a30.4,30.4,0,0,0,4-6.09c.87-1.92-1.49-4.25-3.14-2.42a111.38,111.38,0,0,0-7.5,9.28,2,2,0,0,0,.72,2.74l6.78,2.94c2.3,1,4.31-2.14,2-3.45a47.18,47.18,0,0,0-6.39-3c-2.3-.9-3.18,2.41-1.54,3.65a26.75,26.75,0,0,0,6.36,3.53c2.14.86,3.45-2.54,1.54-3.66a47.83,47.83,0,0,0-6.41-3.09c-2.16-.86-3.41,2.51-1.54,3.65l6.15,3.75c2.26,1.37,4-2,2-3.46a28.76,28.76,0,0,0-7.41-4c-2.17-.81-3.43,2.52-1.54,3.65,2.4,1.44,5.06,3.73,7.86,4.18,2.13.34,3.61-2.41,1.54-3.66l-6.83-4.12-2,3.46c5.18,3.1,10.93,4.71,16.74,6.2,2.49.64,3.56-3.22,1.06-3.86-5.48-1.41-10.89-2.87-15.78-5.8-2.22-1.32-4.23,2.13-2,3.46l6.83,4.12,1.54-3.66c-2.35-.38-4.89-2.57-6.9-3.77l-1.54,3.65a25.3,25.3,0,0,1,6.45,3.58l2-3.46-6.15-3.74-1.54,3.65a41.33,41.33,0,0,1,5.46,2.7l1.54-3.66a23.29,23.29,0,0,1-5.41-3.12l-1.54,3.65a41.74,41.74,0,0,1,5.43,2.62l2-3.45L174.84,352l.72,2.74a103.42,103.42,0,0,1,6.87-8.48l-3.14-2.42a26,26,0,0,1-3.33,5.28c-1.53,2,.94,4.69,2.83,2.83a18.64,18.64,0,0,0,4-5.55c1.08-2.32-2.37-4.35-3.46-2Z" transform="translate(-170.59 -312.34)"/><path class="cls-2" d="M206.27,312.75A294.8,294.8,0,0,0,181,340.15q-2.9,3.51-5.76,7.05c-1.37,1.7-3.71,3.63-4.44,5.7-1,2.9,1.37,2.93,3.08,4.85.86,1,2.27-.45,1.42-1.41-1.37-1.53-2.6-1.16-1.5-4.18.68-1.88,3.31-4.1,4.58-5.66,3.06-3.77,6.15-7.52,9.3-11.21a264,264,0,0,1,20-21.12c.94-.89-.48-2.3-1.42-1.42Z" transform="translate(-170.59 -312.34)"/><path class="cls-2" d="M172.79,356.67c8.93,6.66,19.34,10.32,29.78,13.85,12.54,4.24,24.67,9.33,36.76,14.69,1.17.52,2.19-1.21,1-1.73-11.2-5-22.43-9.84-34-13.8-11.34-3.87-22.8-7.49-32.51-14.74-1-.77-2,1-1,1.73Z" transform="translate(-170.59 -312.34)"/><path class="cls-2" d="M197.85,367.79a18.58,18.58,0,0,1-5,3.58c-2.75,1.26-5.1.46-7.89,0-2.52-.44-3.56.93-4.84,3-.67,1.1,1.06,2.1,1.73,1,2.09-3.42,6.82-.65,10.13-1.54a17.94,17.94,0,0,0,7.32-4.65c.93-.89-.48-2.3-1.41-1.41Z" transform="translate(-170.59 -312.34)"/><path class="cls-2" d="M204.76,371.26a15.56,15.56,0,0,0,.3,8.58c1.2,3.3,6.37,5,4.67,9-.5,1.18,1.43,1.7,1.93.53.86-2,1.09-3.7-.42-5.44-1.21-1.4-3.11-2.46-4-4.1-1.2-2.17-1.11-5.76-.54-8.07a1,1,0,0,0-1.93-.53Z" transform="translate(-170.59 -312.34)"/><path class="cls-2" d="M180.6,375.51c8.4,6.31,19.21,10.28,29,14.06,1.2.46,1.72-1.47.54-1.93-9.56-3.71-20.22-7.65-28.48-13.86-1-.77-2,1-1,1.73Z" transform="translate(-170.59 -312.34)"/><path class="cls-2" d="M241.07,384.91c8.46-7.2,16.95-14.44,24.32-22.78a95.75,95.75,0,0,0,8.91-11.65c1.66-2.58,3.7-5.13,2.25-8.17-.56-1.16-2.28-.14-1.73,1,1.65,3.44-6.27,11.94-8.09,14.17-2.51,3.07-5.2,6-8,8.82-6,6.08-12.56,11.64-19.08,17.18-1,.84.44,2.25,1.42,1.42Z" transform="translate(-170.59 -312.34)"/><path class="cls-2" d="M207.24,314.35l33.25,13.75,16.18,6.69,8.09,3.34c2.79,1.15,7.91,2.14,9.32,4.92.58,1.15,2.31.14,1.73-1-1.87-3.69-7.92-4.77-11.41-6.22L245.52,328l-37.75-15.61c-1.19-.49-1.71,1.44-.53,1.93Z" transform="translate(-170.59 -312.34)"/><path class="cls-3" d="M206.64,316.87q-15.82,17.11-30.5,35.21c-.81,1,.6,2.42,1.41,1.42q14.69-18.11,30.51-35.22c.87-.94-.54-2.36-1.42-1.41Z" transform="translate(-170.59 -312.34)"/><path class="cls-3" d="M177.33,353.47a463.81,463.81,0,0,0,62.09,26.37c1.22.42,1.74-1.52.53-1.93a459.82,459.82,0,0,1-61.61-26.17c-1.15-.59-2.16,1.14-1,1.73Z" transform="translate(-170.59 -312.34)"/><path class="cls-3" d="M240.63,379.53c10.46-11.38,22.53-21.19,32-33.49.78-1-.95-2-1.73-1-9.33,12.16-21.33,21.84-31.67,33.08-.87.95.54,2.37,1.42,1.42Z" transform="translate(-170.59 -312.34)"/><path class="cls-3" d="M207.39,318.32c20.55,10.88,42.25,19.24,63.94,27.52,1.21.46,1.73-1.47.53-1.92-21.53-8.23-43.06-16.53-63.46-27.33-1.14-.6-2.15,1.13-1,1.73Z" transform="translate(-170.59 -312.34)"/><path class="cls-3" d="M207.78,319.15q25,11.58,49.81,23.66c1.15.56,2.17-1.17,1-1.73Q233.82,329,208.79,317.43c-1.16-.54-2.17,1.18-1,1.72Z" transform="translate(-170.59 -312.34)"/><path class="cls-3" d="M217,340.48a94.76,94.76,0,0,0,8-7.15c3.7-3.74-1.74-8.84-5.66-5.66a116.67,116.67,0,0,0-22.75,24.82c-2.64,3.86,3.08,7.87,6.28,4.85,7.35-6.92,14.73-13.76,23.33-19.1L221.29,332q-9.1,10.82-18.09,21.71l5.66,5.66a96.26,96.26,0,0,1,24.24-21.14l-5.48-5.47c-5.67,8.33-13.47,15-18.27,23.94-2.22,4.15,2.85,7.71,6.28,4.85a271,271,0,0,1,22.52-16.81l-4-6.9a64.6,64.6,0,0,0-17.68,18.7c-2.17,3.49,2.08,7.36,5.48,5.47,7.74-4.3,13.75-11.9,22.48-14.29l-3.9-6.68c-6.6,6.77-13.66,13.31-18.58,21.47-1.93,3.21,2.17,8,5.48,5.48,8.28-6.3,16.39-13,25.79-17.62L248.33,344c-6.85,6.53-14.18,12.76-19.83,20.39-2.82,3.81,3.07,7.74,6.28,4.85,6.77-6.1,13.55-12.06,21.53-16.54l-4.84-6.28L232,363.38l5.66,5.66L256,351c3.33-3.26-.89-8.33-4.85-6.28a82.86,82.86,0,0,1-7.53,3.49c-1,.42-2.12.81-3.19,1.18s-3.28.3-1.4.78l2.8,2.79-.23-.8-.4,3.08c1.94-3.79,7-5.53,11-5.76,3.59-.21,5.91-5.67,2-7.45L238.79,335l-2,7.45a23.56,23.56,0,0,1,11.87,4.42l4-6.91c-4.71-2.4-10.53-4.42-14.33-8.18L233.5,338a70.77,70.77,0,0,0,8.89,4l1.06-7.85c-3.5-.47-5.37-2.07-8.2-3.81a30.19,30.19,0,0,0-7-2.75q-9.59-2.94-19.18-5.83l2.94,3.86.29-2.86-6.83,2.83A28.39,28.39,0,0,0,215.65,333c3.75,1.6,8.7-3.11,4.85-6.28a14.74,14.74,0,0,1-3.24-3.49l-4.52,5.88a9.53,9.53,0,0,1,4.41,2.48L222.8,326a21.9,21.9,0,0,0-12.08-6c-5-.73-7.21,7-2.13,7.71a14.87,14.87,0,0,1,8.56,4c3.74,3.54,9.4-2.1,5.65-5.65a18,18,0,0,0-7.93-4.54c-3.23-.92-6.48,2.91-4.52,5.87a22.3,22.3,0,0,0,4.49,5.1l4.85-6.28a22.9,22.9,0,0,1-8.54-6.14c-2.52-2.86-6.51-.32-6.83,2.83l-.29,2.86c-.18,1.75,1.37,3.38,2.94,3.85,6.91,2.1,13.88,4.06,20.75,6.32,2.83.92,4.64,2.64,7.14,4.09s5.64,1.87,8.59,2.27c4.77.63,5-6.41,1.07-7.86a55.62,55.62,0,0,1-7-3.19c-3.93-2.11-8.16,3-4.85,6.28,4.38,4.34,10.54,6.68,16,9.44,4.62,2.36,8.25-4,4-6.91a31.5,31.5,0,0,0-15.9-5.51c-3.86-.31-5.59,5.81-2,7.45L250.15,349l2-7.45c-5.72.34-19.85,4.72-18.28,12.81,1.75,8.92,17.25-.56,21.31-2.66l-4.85-6.29-18.38,18c-3.72,3.64,1.81,9,5.66,5.66l19.49-16.93c3.51-3-1-8.45-4.84-6.28-8.56,4.8-15.91,11.25-23.16,17.79l6.28,4.85c5.2-7,12.29-12.78,18.59-18.77,3.44-3.28-.92-8.2-4.85-6.28-9.39,4.59-17.51,11.31-25.79,17.61l5.47,5.47c4.55-7.55,11.22-13.59,17.33-19.85a4,4,0,0,0-3.89-6.69c-9.6,2.63-15.92,10.39-24.39,15.09l5.47,5.48a54.71,54.71,0,0,1,14.81-15.84c4.14-2.93.29-9.8-4-6.9a288.47,288.47,0,0,0-24.13,18l6.28,4.85c4.78-8.93,12.61-15.62,18.27-23.95,2.29-3.36-2.17-7.49-5.47-5.47a102.78,102.78,0,0,0-25.86,22.39c-3.24,3.94,2.38,9.63,5.66,5.66q9-10.9,18.08-21.71c2.77-3.29-.74-8.83-4.85-6.28-9.18,5.7-17.11,13-24.94,20.35l6.28,4.85a109.15,109.15,0,0,1,21.5-23.2l-5.66-5.66a89.84,89.84,0,0,1-8,7.15c-4,3.21,1.67,8.84,5.65,5.66Z" transform="translate(-170.59 -312.34)"/><path class="cls-3" d="M215.31,336.86l1.69-2.09c3.17-3.93-1.84-9.29-5.66-5.66a160.37,160.37,0,0,0-18.19,20.69l6.91,4c3.84-8.6,9.91-15.48,16.43-22.15,3.61-3.69-1.93-9.22-5.65-5.66a195.62,195.62,0,0,0-19.12,21.16L198,352c4.19-8.08,9.93-15,15.84-21.84a4,4,0,0,0-5.66-5.66,104.32,104.32,0,0,0-18.1,19.5l6.91,4c3.38-7.45,9.54-13.72,14.62-20.07,3.14-3.93-1.87-9.33-5.66-5.65a117.35,117.35,0,0,0-17,20.83c-2.79,4.36,4.07,8.29,6.91,4A182,182,0,0,1,211,327.6c3.39-3.83-2-9.36-5.66-5.66-5.38,5.46-10.61,11-14.56,17.62-2.67,4.47,4,8.25,6.91,4l11.4-16.78c2.6-3.83-3.11-8-6.28-4.85a66.24,66.24,0,0,0-11,14.16c-2.63,4.55,3.95,8.13,6.91,4,1.92-2.66,3.95-5.19,6.09-7.67,3.34-3.86-2.1-9.45-5.65-5.66A111.9,111.9,0,0,0,186,344l6.91,4a68.13,68.13,0,0,1,6.62-9.23L193.19,334q-5.19,6.84-10.1,13.89l6.91,4a36.06,36.06,0,0,1,3.65-5.12c3.34-3.87-2.22-9.53-5.65-5.66a43.63,43.63,0,0,0-5.55,7.75c-1.33,2.39.29,6.41,3.45,6,1.85-.22,3.69,1.87,5.12,2.73a36.6,36.6,0,0,0,5,2.31l2.13-7.72a24.13,24.13,0,0,1-6.61-2.44c-4.51-2.49-8.54,4.4-4,6.91a26.82,26.82,0,0,0,11.85,3.4c4.51.27,5.43-6.8,1.07-7.85l-5.51-1.34c-5-1.21-7.06,6.22-2.13,7.72a53.56,53.56,0,0,0,12.75,2.2v-8a11.64,11.64,0,0,1-4.93-1l-2.13,7.71a38.82,38.82,0,0,0,12.25,1.76c4.6-.07,5.32-6.45,1.07-7.86a38.85,38.85,0,0,0-8.38-1.71v8c4.42-.18,8.33,2.37,12.85,1.88,3.81-.41,5.61-5.21,2-7.45a21.41,21.41,0,0,0-7-2.87c-5.07-1.1-7,6-2.13,7.71a28.45,28.45,0,0,0,9.32,1.66c3.34.06,5.44-4.5,2.82-6.83a5.88,5.88,0,0,0-4.13-1.7c-5.14-.24-5.13,7.76,0,8l.75,0L215,359l.56.49,2.83-6.83a21.48,21.48,0,0,1-7.19-1.37L209.09,359a15.13,15.13,0,0,1,5.12,2.07l2-7.46c-4.38.48-8.4-2.07-12.85-1.88-5.23.22-5,7.48,0,8a28.22,28.22,0,0,1,6.25,1.43l1.06-7.86a31.85,31.85,0,0,1-10.12-1.47c-5.06-1.57-6.73,5.8-2.13,7.71a17.45,17.45,0,0,0,7.06,1.33c5.18,0,5.12-7.73,0-8a44.05,44.05,0,0,1-10.62-1.92l-2.13,7.72,5.51,1.33,1.06-7.86a17.41,17.41,0,0,1-7.82-2.31l-4,6.91A31.59,31.59,0,0,0,196,360c5.14,1.14,6.82-5.82,2.13-7.72-4.14-1.67-7.45-5.9-12.21-5.32l3.46,6a33.75,33.75,0,0,1,4.29-6.13L188,341.14a47.1,47.1,0,0,0-4.91,6.75c-2.67,4.49,4,8.2,6.91,4q4.91-7,10.1-13.88c2.73-3.6-3.34-8.3-6.28-4.85A82.17,82.17,0,0,0,186,344c-2.68,4.43,4.18,8.4,6.91,4a100.45,100.45,0,0,1,12-15.58l-5.65-5.66c-2.59,3-5,6.09-7.35,9.29l6.91,4a57.82,57.82,0,0,1,9.74-12.54l-6.29-4.85-11.4,16.78,6.91,4c3.61-6,8.4-11,13.31-16l-5.66-5.66A199.47,199.47,0,0,0,189,343.18l6.91,4A108,108,0,0,1,211.62,328L206,322.35c-5.48,6.84-12.22,13.63-15.87,21.69a4,4,0,0,0,6.91,4,96.1,96.1,0,0,1,16.85-17.87l-5.66-5.66c-6.33,7.36-12.6,14.8-17.09,23.46-2,3.8,3.35,8.62,6.28,4.85a195.53,195.53,0,0,1,19.11-21.16L210.84,326c-7,7.11-13.6,14.6-17.69,23.77a4,4,0,0,0,6.91,4A147.49,147.49,0,0,1,217,334.77l-5.66-5.66-1.69,2.09c-3.2,4,2.42,9.67,5.66,5.66Z" transform="translate(-170.59 -312.34)"/><path class="cls-3" d="M235,368.43c3.37-1.09,5.74-3.55,8.39-5.82l10.46-9L248.17,348l-13.52,17.48c-3.05,4,2.17,9.61,5.66,5.66,5.18-5.86,10.52-11.31,17.64-14.78l-4.85-6.28c-7.63,6-15.17,12.05-21.14,19.76-2.75,3.56.55,8.31,4.85,6.28,4-1.87,6.69-5.52,9.79-8.5a114.94,114.94,0,0,1,12.59-10.51c4.12-3,.22-9.89-4-6.91-6.17,4.32-11.84,9-15.63,15.63-2.31,4,2.94,7.84,6.28,4.85l13.28-11.91c3.33-3-1.15-9-4.84-6.28A64.8,64.8,0,0,0,240.16,367c-2.63,3.64,3.46,8.4,6.29,4.85,4.89-6.15,12.22-10.06,15.5-17.46,2.06-4.67-4.83-8.74-6.91-4-3,6.69-9.81,10.26-14.25,15.84l6.28,4.85a52.39,52.39,0,0,1,11.21-11.62l-4.84-6.28L240.16,365l6.28,4.85c3.09-5.41,7.71-9.23,12.75-12.76l-4-6.91a134.88,134.88,0,0,0-11.67,9.38c-3.42,3.09-6.52,7.66-10.72,9.64l4.85,6.28c6-7.71,13.51-13.79,21.14-19.77,3.77-2.95-1-8.14-4.85-6.28-7.67,3.75-13.66,9.7-19.26,16l5.66,5.66,13.52-17.48c3.1-4-1.66-9.09-5.66-5.66l-7.67,6.59c-2.16,1.85-4.93,5.28-7.64,6.16-4.88,1.58-2.8,9.31,2.12,7.71Z" transform="translate(-170.59 -312.34)"/><path class="cls-3" d="M259.89,357.19l8.62-9c.89-.93-.51-2.33-1.42-1.41a91.21,91.21,0,0,0-9.6,11.43c-.66.93.8,2,1.57,1.21l9.81-10.58c.75-.81-.21-2.18-1.21-1.57a50.53,50.53,0,0,0-8.4,6.45c-.95.89.44,2.24,1.41,1.41q5-4.32,9.85-8.85a1,1,0,0,0-.21-1.57c-2.72-1.91-6.45-1.85-9.66-2.27v2a6.89,6.89,0,0,1,4.82,1.25l1-1.73-8.37-3.61-.77,1.83c1.68.4,5.86.72,7,2.21l.87-1.5c-2.43,0-8.52.61-9.85-1.83L254,342.45a21.64,21.64,0,0,0,5.09,1.94,1,1,0,0,0,.53-1.92l-7.56-2.62a1,1,0,0,0-.77,1.83,97,97,0,0,0,13.28,6.17c1.1.4,1.7-1.24.77-1.82-1.53-1-10.95-6.9-11.74-2.92a1,1,0,0,0,.26,1c3.13,2.48,8.22,2.43,12,1.92,1-.13.94-1.78,0-1.93-3.93-.63-11.48-1.23-13.74,2.95a1,1,0,0,0,.86,1.51A29.77,29.77,0,0,0,264.66,346c1.1-.47.27-2-.77-1.83a55.89,55.89,0,0,0-11.06,3.47c-1.09.46-.27,2,.77,1.82,3.08-.62,6.15-1.3,9.19-2.06,1.71-.43,3.39-.62,4.52-2a1,1,0,0,0-1-1.67c-3.54.61-6.9,1.35-10,3.26-.77.49-.54,2,.51,1.87a31.21,31.21,0,0,0,10.88-3.21c1.17-.59.14-2.23-1-1.73a68.2,68.2,0,0,0-8.09,4.1c-1.29.78-2.54,1.28-2.93,2.78a1,1,0,0,0,1.46,1.13L268,346.52l-1-1.72c-3.38,2.15-6.69,4.37-10,6.69a1,1,0,0,0,1,1.72l9.51-5.41-1-1.73q-5.91,4-11.51,8.44c-.89.7.27,2.19,1.21,1.57a66,66,0,0,1,10.63-5.73l-1-1.73-15.17,11.29c-1,.76,0,2.5,1,1.73l15.17-11.29a1,1,0,0,0-1-1.73,66,66,0,0,0-10.63,5.73l1.21,1.57q5.42-4.26,11.11-8.12a1,1,0,0,0-1-1.73L257,351.49l1,1.72q4.89-3.46,10-6.69a1,1,0,0,0-1-1.72l-10.75,5.37,1.46,1.13c.34-1.27,4-2.73,5.06-3.3,1.65-.87,3.34-1.64,5.05-2.38l-1-1.73a28,28,0,0,1-9.87,2.94l.5,1.86c3-1.85,6.11-2.48,9.49-3.06l-1-1.67c-1.21,1.51-4.74,1.8-6.46,2.2-2.11.5-4.24.95-6.37,1.38l.77,1.83a53.73,53.73,0,0,1,10.58-3.26l-.77-1.83a27.38,27.38,0,0,1-10.71,2.25l.86,1.5c1.7-3.15,8.72-2.48,11.49-2v-1.93a17.86,17.86,0,0,1-6.23-.11c-.31-.06-3.68-1.49-2.46.16.44.6,4,1.55,4.44,1.76,1.13.56,2.21,1.2,3.28,1.87l.77-1.82a95.48,95.48,0,0,1-12.8-6l-.77,1.83,7.56,2.61.53-1.92a20.56,20.56,0,0,1-4.61-1.75,1,1,0,0,0-1.37,1.37c2,3.61,8.23,2.8,11.58,2.82a1,1,0,0,0,.86-1.51c-1.82-2.39-5.46-2.47-8.2-3.13-1.05-.26-1.86,1.36-.77,1.82l8.37,3.62a1,1,0,0,0,1-1.73,7.71,7.71,0,0,0-5.83-1.52,1,1,0,0,0,0,2c2.87.37,6.23.29,8.65,2l-.2-1.57q-4.83,4.51-9.84,8.85l1.41,1.41a48.09,48.09,0,0,1,8-6.13l-1.21-1.57L257.64,358l1.57,1.21a89.12,89.12,0,0,1,9.3-11l-1.42-1.41-8.62,9c-.89.92.52,2.34,1.42,1.41Z" transform="translate(-170.59 -312.34)"/><path class="cls-3" d="M188.42,340.62a32.37,32.37,0,0,0-8,9.15l1.83.77c1.47-3.69,4.56-6.15,7.64-8.48l-1.21-1.57q-4.14,4.22-8.51,8.19l1.67,1,.25-.36-1.67-1c-.58,1.6-3.17,1.32-1.9,3.87s6.7.41,7.4,2.24l1.23-1.23c-2.76-.68-5.48-1.46-8.18-2.33a1,1,0,0,0-.77,1.83l10.76,6.17,1-1.73a41.08,41.08,0,0,1-7.14-4.36l-.77,1.83,11.49,4.59c1.2.47,1.72-1.46.53-1.93l-11.49-4.59c-1.14-.45-1.59,1.21-.77,1.83a41.46,41.46,0,0,0,7.14,4.36c1.15.55,2.14-1.08,1-1.73L179.19,351l-.78,1.83c2.71.87,5.43,1.65,8.19,2.33.67.16,1.51-.49,1.23-1.23-.73-1.89-2-2.46-4-2.36-.56,0-1.66.47-2.16.28l-1.12-1.14.63-.33c.41-.69.86-.64,1.17-1.5.37-1-1-1.57-1.67-1a2,2,0,0,0-.77,1.24,1,1,0,0,0,1.67,1q4.38-4,8.51-8.19c.77-.78-.27-2.28-1.21-1.57-3.57,2.71-6.86,5.42-8.56,9.68-.43,1.07,1.26,1.72,1.82.77a31,31,0,0,1,7.71-8.75c1-.79-.41-2.2-1.41-1.41Z" transform="translate(-170.59 -312.34)"/><path class="cls-3" d="M182.32,351.66l-.32-.44-.59,1.47a5,5,0,0,1,3.64.17c1.26.41,1.68-1.45.53-1.93a18,18,0,0,0-5.77-1.34,1,1,0,0,0-.51,1.86,45.1,45.1,0,0,0,17.06,5.74c1.27.17,1.26-1.84,0-2a42.4,42.4,0,0,1-16.05-5.47l-.5,1.87a16.23,16.23,0,0,1,5.24,1.27l.53-1.93a8.3,8.3,0,0,0-4.71-.17,1,1,0,0,0-.59,1.47l.31.44c.74,1,2.47,0,1.73-1Z" transform="translate(-170.59 -312.34)"/><path class="cls-3" d="M198.7,357a28.8,28.8,0,0,1-8-1,1,1,0,0,0-.54,1.93l24.11,9.19.53-1.93c-7.12-2.3-14.75-4.11-21.37-7.66l-.77,1.82,26.94,10.71c1,.42,1.78-1.32.77-1.83-7.68-3.86-16.56-4.72-23.77-9.57l-1,1.72a134.87,134.87,0,0,0,26.83,11.76,1,1,0,0,0,.77-1.83c-7.28-4.44-15.57-7-23.51-10-1-.4-1.8,1.37-.77,1.83q16.39,7.22,33.15,13.5l.53-1.93c-9-3.31-18.62-6.06-26.66-11.48l-.77,1.82,32,12.77c1,.42,1.77-1.31.77-1.83-11.8-6.06-25.66-7.94-36.16-16.42l-1.21,1.57q15.66,7.37,31.75,13.72c1.21.47,1.7-1.45.53-1.93-6-2.46-12-4.92-17.89-7.52-5.39-2.37-11-4.6-15.42-8.55l-1.21,1.58a290.4,290.4,0,0,0,35.12,16.18c1.21.46,1.72-1.47.53-1.93-11.92-4.58-23.8-9.31-34.25-16.8l-1,1.72L234,372.74l.77-1.83c-10.77-4.14-21.48-8.38-31.31-14.5l-1,1.72c10.62,5.08,21.25,10.09,32.26,14.26l.53-1.93c-9.81-3.64-19.55-7.42-28-13.72l-1,1.73,28.58,12.83.77-1.82c-9.73-4.08-19.43-8.21-28.76-13.17l-.77,1.83L235,369.88l.53-1.93c-10.25-3.93-20.45-7.94-30-13.33l-.77,1.82,25.85,10c1.06.41,1.77-1.31.77-1.83l-23.16-12-.77,1.83c9.2,3.6,18.41,7.13,28,9.56a1,1,0,0,0,.53-1.93c-9.59-2.43-18.8-6-28-9.56-1.06-.41-1.77,1.31-.77,1.83l23.16,12,.77-1.83-25.84-10c-1.07-.41-1.75,1.29-.78,1.83,9.74,5.48,20.1,9.55,30.51,13.54,1.21.46,1.7-1.45.53-1.93l-28.89-11.74c-1.05-.42-1.76,1.31-.77,1.83,9.48,5,19.35,9.22,29.24,13.36,1,.44,1.8-1.36.77-1.82l-28.58-12.84a1,1,0,0,0-1,1.73c8.59,6.4,18.51,10.22,28.48,13.92,1.21.44,1.72-1.48.53-1.93-10.85-4.1-21.32-9.06-31.78-14a1,1,0,0,0-1,1.72c10,6.21,20.86,10.51,31.79,14.71,1.05.41,1.8-1.36.77-1.83L199.67,354.9a1,1,0,0,0-1,1.72c10.59,7.59,22.65,12.37,34.73,17l.53-1.93a286.38,286.38,0,0,1-34.64-16c-1-.52-2.1.79-1.21,1.57,4.59,4.08,10.25,6.4,15.82,8.85,6.08,2.68,12.23,5.2,18.37,7.73l.53-1.93q-15.85-6.26-31.27-13.52c-1-.44-2.16.8-1.21,1.57,10.69,8.64,24.57,10.58,36.56,16.74l.77-1.83-32-12.77c-1.11-.44-1.66,1.24-.77,1.83,8.18,5.52,17.95,8.32,27.14,11.69,1.21.44,1.72-1.48.53-1.93q-16.51-6.2-32.67-13.3l-.77,1.83c7.78,2.94,15.91,5.48,23,9.82l.77-1.82a132.71,132.71,0,0,1-26.36-11.55,1,1,0,0,0-1,1.72c7.23,4.88,16.07,5.71,23.77,9.58l.77-1.83-26.93-10.7c-1.06-.42-1.76,1.29-.77,1.82,6.78,3.65,14.54,5.52,21.84,7.87,1.24.4,1.71-1.47.53-1.93L190.65,356l-.54,1.93A31.08,31.08,0,0,0,198.7,359a1,1,0,0,0,0-2Z" transform="translate(-170.59 -312.34)"/><path class="cls-3" d="M242.52,369a19.29,19.29,0,0,0-6.64,6.94,1,1,0,0,0,.86,1.5c1.74.23,3.35-1.41,4.65-2.38,1.65-1.23,3.22-2.54,4.74-3.92a1,1,0,0,0-1-1.67c-1.88.47-3.11,1.85-4.47,3.16-1.12,1.08-2.89,2.21-2.68,3.95a1,1,0,0,0,1.5.87,14.1,14.1,0,0,0,6-5,1,1,0,0,0-.86-1.51c-2.91.35-5,3.39-6.45,5.68a1,1,0,0,0,1.37,1.37,15.18,15.18,0,0,0,3.28-2.7c.87-.95-.53-2.36-1.41-1.41-1.39,1.48-3.55,1.63-4.65,3.49a1,1,0,0,0,1.37,1.37l1.72-.85c.95-.47.41-1.81-.51-1.87a5.72,5.72,0,0,1-3.91-1.81c-.9-.91-2.32.5-1.41,1.42a7.82,7.82,0,0,0,5.32,2.39l-.5-1.86-1.72.85,1.37,1.37c.89-1.52,3.12-1.8,4.33-3.09l-1.41-1.41a13.19,13.19,0,0,1-2.88,2.38l1.37,1.37c.91-1.44,2.79-4.46,4.72-4.69l-.87-1.5a12.2,12.2,0,0,1-5.24,4.32l1.51.86c-.11-.94,1.84-2.29,2.4-2.82a7.52,7.52,0,0,1,3.28-2.36l-1-1.67c-1.3,1.17-2.62,2.31-4,3.37-.91.68-2.74,2.5-4,2.34l.86,1.51a17,17,0,0,1,5.93-6.22c1.09-.68.08-2.42-1-1.73Z" transform="translate(-170.59 -312.34)"/><path class="cls-1" d="M174.81,353.62q31.69,15.25,64.71,27.46c1.21.44,1.73-1.49.54-1.93q-32.76-12.09-64.24-27.26c-1.16-.56-2.17,1.17-1,1.73Z" transform="translate(-170.59 -312.34)"/><path class="cls-4" d="M273.85,346.23a220.32,220.32,0,0,1-33.69,35.44c-.5.41.21,1.12.7.7a220.07,220.07,0,0,0,33.85-35.64c.39-.51-.48-1-.86-.5Z" transform="translate(-170.59 -312.34)"/><path class="cls-4" d="M241,378.85a22.73,22.73,0,0,0-1.47,3.71.5.5,0,0,0,1,.26,20.59,20.59,0,0,1,1.37-3.46c.28-.57-.58-1.08-.87-.51Z" transform="translate(-170.59 -312.34)"/><path class="cls-4" d="M204.35,371.08a12,12,0,0,0-.51,8.22.5.5,0,0,0,1-.27,10.83,10.83,0,0,1,.4-7.44c.25-.59-.61-1.1-.86-.51Z" transform="translate(-170.59 -312.34)"/><path class="cls-4" d="M205.11,381.34a.83.83,0,0,0,0,1.45.82.82,0,0,0,1.11-1c-.2-.61-1.17-.35-1,.27l.4.16c.58-.27.08-1.13-.51-.87Z" transform="translate(-170.59 -312.34)"/><path class="cls-4" d="M207.17,383.51l0,0,.61.08.06.11-.05.39,0-.05-.43.24h.14l-.35-.14a9,9,0,0,1,1.91,2.65c.31.56,1.17.06.86-.51a13.75,13.75,0,0,0-1.19-1.84c-.36-.47-.73-1.13-1.37-1.17a.5.5,0,0,0-.43.25.57.57,0,0,0,.11.76.52.52,0,0,0,.61.08l0,0c.52-.37,0-1.24-.51-.86Z" transform="translate(-170.59 -312.34)"/><path class="cls-4" d="M238.25,328.28a257.5,257.5,0,0,1,33.95,14.14c.57.29,1.08-.57.5-.86a257.32,257.32,0,0,0-34.19-14.24c-.61-.21-.87.76-.26,1Z" transform="translate(-170.59 -312.34)"/><path class="cls-4" d="M273.91,344.08a.93.93,0,0,1,.47,1.11.5.5,0,0,0,1,.27,1.94,1.94,0,0,0-.93-2.24c-.57-.31-1.07.55-.51.86Z" transform="translate(-170.59 -312.34)"/><path class="cls-5" d="M246.23,331l-4.73,5.32c-1.27,1.42-3.06,4.43-4.73,5.31-4,2.1-11.9-1.5-15.76-2.86a1,1,0,0,0-1,.26l-6.32,6.44c-1.48,1.51-4.14,5.49-6.48,5.43-1.41,0-3.94-1.88-5.42-2.33a28.77,28.77,0,0,0-7.43-1.15c-1.29-.05-1.28,1.95,0,2a26.19,26.19,0,0,1,13.22,4.05,1,1,0,0,0,1.21-.15c3.25-3.31,6.42-7.5,10.11-10.3,2.7-2,3.58-1.54,6.76-.64A69.69,69.69,0,0,0,232.8,344c2.44.43,3.55.6,5.39-1,3.48-3,6.4-7.2,9.45-10.63.86-1-.55-2.38-1.41-1.42Z" transform="translate(-170.59 -312.34)"/><path class="cls-5" d="M232.56,343.09c-.52,2.83-1.83,6.48-1.48,9.37a1,1,0,0,0,.73,1c1.05.34,3.34-.15,4,.43,1.2,1,.68,3.41.71,4.74l.35,13.18c0,1.29,2,1.29,2,0L238.4,353a1,1,0,0,0-1-1c-2.37-.14-3.79.22-4-2.5-.13-1.76.76-4.09,1.08-5.83.23-1.26-1.69-1.8-1.93-.53Z" transform="translate(-170.59 -312.34)"/><path class="cls-5" d="M200.71,348.83a19,19,0,0,1,.69-4.62,1,1,0,0,0-.69-1.23,3.07,3.07,0,0,1-2.32-3,1,1,0,0,0-2,0,5.13,5.13,0,0,0,3.78,5l-.69-1.23a20.44,20.44,0,0,0-.77,5.15,1,1,0,0,0,2,0Z" transform="translate(-170.59 -312.34)"/><path class="cls-5" d="M236,360.81c-1,.92-3.8-1.6-5.41-.91s-2.34,2.82-3.33,4a5.44,5.44,0,0,1-1.7,1.71,7.87,7.87,0,0,0-1.38.09,13.13,13.13,0,0,0-2.31,1,13.68,13.68,0,0,0-4,4.65c-.68,1.1,1.05,2.1,1.73,1a13.92,13.92,0,0,1,2.54-3.4c3.92-3.21,2.64-.23,4.5-1.38a8.62,8.62,0,0,0,2.31-2.63,4.83,4.83,0,0,1,4.34-2.46c.42,0,1.35.59,1.84.63a2.55,2.55,0,0,0,2.25-.89c.93-.89-.48-2.3-1.42-1.41Z" transform="translate(-170.59 -312.34)"/></svg>