<svg id="arm_backL" xmlns="http://www.w3.org/2000/svg" viewBox="0 0 180.5 203.34"><defs><style>.cls-1{fill:#c6947d;}.cls-2{fill:#2d2721;}</style></defs><title>arm_backLL</title><path class="cls-1" d="M842.43,635.43a233.52,233.52,0,0,1-38.14,90,184.88,184.88,0,0,1-13.95,18c-2.7,3.12-5.46,6.19-8.34,9.14a39.07,39.07,0,0,1-7.16,6.2c-.65.41-1.32.79-2,1.13,1.28-.47,1.07-.41-.63.16-1.79.4-2,.47-.51.23a21.93,21.93,0,0,1-2.81-.06c3.28.36-2-.84-2.69-1.12,2.73,1.1-1.61-1-2.14-1.26-7.36-4.13-14-8.68-22.11-11.49-10.84-3.77-21.59,8-18.45,18.46a54.86,54.86,0,0,0,35.78,36.66c17.6,5.6,37,.48,50.83-11.24,7-5.93,12-14.2,16.26-22.2s8.69-16.35,13-24.55c8.5-16.26,16.79-32.63,24.4-49.32a520.35,520.35,0,0,0,23.69-60.82c2.34-7.49-2.76-16.69-10.47-18.45a15.33,15.33,0,0,0-18.45,10.48C849,655.83,836.09,684,821.58,712.53c-7.13,14-14.39,28-21.94,41.83A78.62,78.62,0,0,1,793.8,764c.47-.63-1.58,1.85-2,2.28q-.85.9-1.77,1.74c-.21.19-2.29,1.86-1.41,1.22.45-.33-2.21,1.31-2.92,1.7s-1.33.72-2,1c2-.91-.28.09-.63.19-1.46.44-2.9.85-4.38,1.21-.06,0-2.51.43-1,.22,1.36-.19-1.5.08-1.78.09a34.65,34.65,0,0,1-5.29-.16c.36,0,2,.36.26,0-1.22-.28-2.41-.62-3.61-.93-.07,0-2.33-.82-.94-.27s-1.27-.64-1.52-.76a39.48,39.48,0,0,1-4.34-2.67c1.76,1.26-1.44-1.36-2-1.89s-3.18-3.72-1.91-2a45.69,45.69,0,0,1-3-5c0-.07-1-2.24-.44-.87s-.72-2.41-.69-2.33L734,775.23c2.52.88-.66-.58,1.72.7,1.28.7,2.57,1.37,3.83,2.11,3,1.72,5.8,3.6,8.76,5.3,6.74,3.85,14.13,6.75,22,6.91,16.76.34,29.33-12.14,39.63-23.79a270.36,270.36,0,0,0,47.24-76.17,250.7,250.7,0,0,0,14.21-46.88c1.53-7.67-2.19-16.57-10.48-18.45-7.46-1.7-16.81,2.24-18.45,10.47Z" transform="translate(-714.51 -604)"/><path class="cls-1" d="M784.14,750.78c-3.67,3.72-7.89,7.42-13.07,8.1-12.81,1.67-21.67-15.33-34.59-15.35-10.21,0-17.47,11.69-15.87,21.78s9.44,18.09,18,23.66a78.35,78.35,0,0,0,28.63,11.36c7.69,1.4,15.73,1.61,23.21-.65,17.17-5.18,27.88-21.86,36.47-37.61,19.56-35.83,41.57-71.43,55.65-109.9,3.49-9.54,10.55-27.72,3-37-9-11.09-28.85-1.47-36,7.42-8,10-10.06,27.08-14.39,39C823.43,693.81,808.6,726,784.14,750.78Z" transform="translate(-714.51 -604)"/><path class="cls-2" d="M779.9,746.54c-3.11,3.09-6.91,7-11.73,6.4-3.65-.45-7-3.1-9.84-5.19-6.3-4.56-12.57-9.7-20.69-10.17-9-.53-16.86,5.45-20.59,13.37-4,8.46-3.1,17.78,1.35,25.89,10.09,18.41,34.32,28.32,54.21,30.25,22.22,2.16,38.92-10,50.9-27.65,6.22-9.15,11.19-19.13,16.58-28.78,5.7-10.19,11.46-20.35,17.06-30.59,11.44-20.91,22.22-42.23,30.57-64.59,5.26-14.09,14.18-37.21-1.69-48-13.61-9.21-34,1.19-42.44,13-6.23,8.75-8.55,19.8-11.33,30-3.1,11.35-7.56,22.4-12.26,33.18-10,22.92-22.54,44.81-40.1,62.8-5.4,5.53,3.08,14,8.49,8.48,13.63-14,24.66-30.22,33.6-47.54,8.55-16.56,16.44-34.34,21.46-52.33,4.09-14.66,6.74-30.55,22.29-37.08,5-2.08,12.83-3.79,16,2.06,3.38,6.33.12,15.7-1.9,21.94-12.5,38.6-34.07,73.67-53.63,108.95-8.19,14.77-16.25,32.47-31.95,40.69-17.22,9-41.27.91-55.74-10.14-7-5.32-14.43-14.19-11.36-23.58,2.57-7.85,9.23-10.23,16.17-6.2,6.66,3.88,12.08,9.7,19.55,12.15,10,3.27,18.64-2,25.56-8.92C793.87,749.57,785.38,741.08,779.9,746.54Z" transform="translate(-714.51 -604)"/></svg>