<svg id="arm_backR" xmlns="http://www.w3.org/2000/svg" viewBox="0 0 140.14 142.69"><defs><style>.cls-1{fill:#c6947d;}.cls-2{fill:#2d2721;}</style></defs><title>arm_backR</title><path class="cls-1" d="M1038.86,621.9c12.66,24.29,25.71,48.31,43,69.68a167.45,167.45,0,0,0,29.27,28.28c12.22,9.27,29.08,17,44.36,10.61,7.48-3.1,12.82-9.94,10.48-18.45-1.94-7.06-10.92-13.6-18.45-10.48A17.21,17.21,0,0,1,1143,703c2.39-.27-1.8-.48-.27-.2a29.23,29.23,0,0,1-5.31-1.65,60.63,60.63,0,0,1-13.13-8.87,151.53,151.53,0,0,1-12.78-12.18q-3-3.23-5.86-6.61c-.87-1-1.72-2.06-2.57-3.1.08.09-2.76-3.53-1.63-2-14.51-19-25.65-40.4-36.67-61.56-3.74-7.18-13.78-9.33-20.52-5.38-7.29,4.26-9.14,13.31-5.39,20.52Z" transform="translate(-1033.02 -593.85)"/><path class="cls-1" d="M1062.56,604.77c8.06,21.57,16.32,43.51,30.4,61.73s35.15,32.48,58.18,32.71a20.29,20.29,0,0,1,5.93.54c5.68,1.77,7.92,8.44,9.36,14.21.67,2.71,1.3,5.74-.1,8.16a8.82,8.82,0,0,1-2.16,2.36c-8.15,6.69-20,7.51-30,4.42s-18.74-9.59-26.75-16.45A265.57,265.57,0,0,1,1045,633.54c-3.9-7.49-7.54-16.07-5.09-24.15s14.13-13.17,19.64-6.76" transform="translate(-1033.02 -593.85)"/><path class="cls-2" d="M1056.78,606.37c8.75,23.42,17.78,47.25,33.86,66.77,14.23,17.28,34.72,30.48,57.44,32,5.68.37,8.76-.4,11.07,5.42a31.2,31.2,0,0,1,1.81,6.41c.5,3.14-2.24,4.36-4.83,5.57-10.75,5-23,.76-32.41-5.14-10.38-6.54-19.53-15.4-28.1-24.11A259.06,259.06,0,0,1,1049.41,629c-2.61-5.22-6.29-12.9-3.44-18.71,1.47-3,6.46-6.35,9.33-3.42,5.42,5.52,13.9-3,8.49-8.49-8.3-8.45-22.34-4.16-27.88,5.36-7.48,12.83,1.2,28.18,7.51,39.52a270.72,270.72,0,0,0,55.3,69.54c10.46,9.4,22,19.05,36,22.48,11.53,2.82,30,1.54,36.79-10.13,3.11-5.37,1.19-12.37-.8-17.82s-5.2-10.71-10.89-12.92c-6.13-2.37-13.46-1-19.9-2.56a63.93,63.93,0,0,1-18.2-7.44c-29.33-17.37-42-50.88-53.38-81.23-2.68-7.17-14.28-4.07-11.57,3.19Z" transform="translate(-1033.02 -593.85)"/></svg>