<svg id="Laag_42" data-name="Laag 42" xmlns="http://www.w3.org/2000/svg" viewBox="0 0 323.22 283.2"><defs><style>.cls-1{fill:#fff6d0;}.cls-2{fill:#a20032;}.cls-3{fill:#780032;}.cls-4{fill:#4f4a33;}.cls-5{fill:#3d0016;}</style></defs><title>book_floating</title><path class="cls-1" d="M595.93,523.7c-19.49-4.22-40.74,5.61-56.92,15.86a133.67,133.67,0,0,0-21.79,17.22,123.79,123.79,0,0,0-9.09,9.93c-2.74,3.34-7.22,7.57-6.68,12.22.32,2.76,1.78,5.61,4.77,6.27a7.54,7.54,0,0,0,7.36-2c2.31-2,2.19-5.35,1-7.87l-.18-.4c-3.52-7.59-14.73-1-11.23,6.56l.19.4,1-7.88-.47.41,6.33-1.67-.57-.12,4.77,6.26c-.77,1.74-.61,1.74.47,0,.61-.82,1.25-1.64,1.9-2.43,1.16-1.45,2.36-2.85,3.59-4.23q3.95-4.45,8.3-8.5a116.53,116.53,0,0,1,17.53-13.43c12.75-8,30.79-17.47,46.23-14.13,8.16,1.76,11.65-10.77,3.46-12.53Z" transform="translate(-494.68 -440.4)"/><path class="cls-1" d="M603.4,529.62c6-15.91,12.13-32.66,23.18-45.88a64.65,64.65,0,0,1,16.81-14.64c7.4-4.33,15.17-5.9,23.65-6.61,8.27-.7,8.35-13.7,0-13-9.72.82-18.77,2.41-27.52,6.9a72.12,72.12,0,0,0-21.12,17c-13.23,15.23-20.5,34.18-27.53,52.8-3,7.84,9.6,11.23,12.53,3.46Z" transform="translate(-494.68 -440.4)"/><path class="cls-2" d="M613.31,542c2.76-27.24,21.3-51.54,45.55-63.55a66.92,66.92,0,0,1,8.31-3.43c2.9-1,7.3-3,10.39-2.76,2.73.21,5.16,3.68,7.16,5.49l11.76,10.67,44.12,40,50,45.33L797,558.41c-44.34-3-77.16,33.71-88.23,73.34L722,626.37c-18.06-11.67-40.58-2.46-53,12.91-13.54,16.72-21.73,38.29-25.72,59.26l15-4c-9.07-10.59-20.47-18.73-31.79-26.75Q608.4,655,591.09,641.24c-23.53-18.83-46.12-38.8-68.69-58.76l1.4,10.91c19.79-27.06,56-33.78,86.85-39.41,4.78-.87,7.49-6.68,6.28-11.07-1.38-5-6.27-7.16-11.07-6.29-36.5,6.67-74.53,16.13-97.6,47.69-2.21,3-1.35,8.47,1.41,10.9,22.57,20,45.16,39.93,68.7,58.76,11.82,9.46,23.86,18.64,36.21,27.41,11,7.85,22.07,15.56,30.95,25.92,4.24,5,13.81,2.48,15-4,3.22-16.94,9.14-33.61,18.75-48,7-10.54,20.74-21.67,33.55-13.4,4.93,3.19,11.71,0,13.22-5.38,9-32.32,34.49-62.62,70.87-60.12,7.71.53,12-10.27,6.37-15.37L704.8,471.72c-7.19-6.51-15.21-16.91-25.65-17.43-8.27-.42-17.42,3.36-24.87,6.58a100.17,100.17,0,0,0-59,81.16c-.49,4.85,4.49,9,9,9,5.27,0,8.51-4.14,9-9Z" transform="translate(-494.68 -440.4)"/><path class="cls-2" d="M562.49,574.14c.6-4.61-2.42-9.17-6.36-11.36-4.72-2.63-10.51-1.47-14.75,1.49a36.47,36.47,0,0,0-14.51,23.38c-1.2,6.91,4,12.55,11.07,11.07,13.83-2.87,23.33-15.17,24.16-29,.33-5.42-6.08-10.76-11.39-8.68-12.4,4.87-27,15.4-30,29.34-1.89,8.86,4.79,16.27,13.73,15.7,6.91-.44,14.34-4.6,20.15-8.13,11.91-7.24,22.51-17.78,29.08-30.13,4.53-8.51-1.66-17.45-11.25-16.26-6.81.85-12.17,6.35-16.62,11.17-11.59,12.59-18.28,28.12-20.39,45-.73,5.87,6.33,10.17,11.39,8.68,13.46-4,23.19-13.77,32.23-24,10.24-11.59,19.93-23.63,29.21-36,2.7-3.59.87-10.51-3.23-12.31-15.52-6.82-27.33,12.28-35.12,23.09a165.5,165.5,0,0,0-20.64,39.32c-1.87,5,3.11,12.1,8.68,11.39,9.09-1.15,14.56-6.34,20.44-12.94q9.63-10.83,18.87-22,18.32-22.17,35.06-45.55c5.34-7.44-5-16.92-12.31-12.32-13.05,8.22-21.49,20.91-29.4,33.82q-13.4,21.86-25.23,44.59c-3.9,7.46,4.39,17.65,12.31,12.32,8.13-5.47,14.44-12.58,20.8-19.94L620,571l43.09-49.83c7.52-8.69-4.26-20.83-12.72-12.73a574,574,0,0,0-77.51,91.69C567.08,608.6,580,618.35,587,611l75.85-79.64c8-8.39-4.71-21.13-12.73-12.73-27.3,28.6-54.67,57.73-74.51,92.19-4.45,7.74,4.51,17,12.31,12.32,15.34-9.15,26.86-23.52,38.87-36.46l39.41-42.45c8.07-8.69-3.84-19.82-12.72-12.73a330.07,330.07,0,0,0-76.07,86.63c-5.41,8.91,6.78,17.79,14.14,10.91l69.19-64.82c7.31-6.85-2.43-20.11-10.91-14.14a209.69,209.69,0,0,0-58.47,62.24c-3.22,5.28.84,14.46,7.78,13.54,8.43-1.11,14.2-5.2,20.09-11.11,6.3-6.32,12.51-12.73,18.77-19.1l38.22-38.89c7.09-7.21-2-19.47-10.9-14.13a216.85,216.85,0,0,0-70.38,68c-4.3,6.61,2.81,15.41,10.16,13.22s13.2-6.87,19.15-11.72l19.8-16.17,39.61-32.32-12.72-12.73a419.34,419.34,0,0,0-67.43,71.24c-2.66,3.54-.92,9.19,2.32,11.61a9.1,9.1,0,0,0,11.81-.7A801.56,801.56,0,0,1,704.79,566l-10.9-14.14-79,80a9.15,9.15,0,0,0,0,12.73c3.78,3.78,8.89,3,12.73,0l88.48-69.41-12.73-12.73L661,606.18l-20.49,21.2c-7.17,7.41-13.42,14.71-11.36,25.66,1.35,7.15,10.38,8,15,4l83.07-72.24L714.52,572c-25.29,24.23-50.57,48.53-73.59,75-4.47,5.13-2.09,16.46,6.36,15.37,10.86-1.41,18.27-9.78,25.94-17,7.39-6.89,14.56-14,21.79-21.07,14.26-13.92,28.79-27.63,45.58-38.48l-10.9-14.14Q706.2,596,681.45,619c-7.64,7.11,2.11,19,10.91,14.14,18.53-10.16,33.92-24.82,49-39.45L728.6,581l-27.44,34.2c-2.8,3.5-3.69,8.06-.7,11.82,2.55,3.21,7.94,5,11.61,2.32a93.49,93.49,0,0,0,23-24c4.83-7.27-5-17.58-12.32-12.31a179,179,0,0,0-18.38,15.06L718.53,619a394.94,394.94,0,0,1,39.82-51.63c7.83-8.57-4.13-20.53-12.73-12.73l-19.8,18c-7,6.31.43,17,8.75,15a86.62,86.62,0,0,0,36.66-19c5.46-4.71,2-13-4-15a38.31,38.31,0,0,0-32.34,3.79c-8.34,5.15-3,20,6.93,16.45l24-8.5c9.22-3.26,8.24-17.74-2.39-17.67a99.13,99.13,0,0,0-52.8,15.49c-6.91,4.42-4.92,17.7,4.54,16.77,13-1.27,26.3-7.6,36.32-16,5.46-4.59,7.53-11.92,3.85-18.35-3.77-6.61-11.12-9.08-18.41-8.42-11.74,1.05-28.29,6.32-32.3,18.88-1.9,5.94-.56,13,4.13,17.32,5.25,4.85,12.83,4.44,19.4,3.41,11.37-1.77,26.77-9.57,30.88-21.21C764.6,540,745.3,534.1,733.89,532c-13.39-2.46-29.34-.29-34.53,14.38-4.55,12.84,5.31,23.4,17.28,26,11.47,2.52,26.68,2.75,36.7-4.19,10.38-7.18,15.43-22.24,6.89-32.8-7.94-9.81-24.16-12.89-36.13-12.48-11.8.42-25.16,4.32-31.18,15.47-6.6,12.25,2.19,25.41,14.68,28.52,11.72,2.93,24.68-1.53,32.86-10.23,8.37-8.9,13.48-24.84,3-34.32-9.72-8.8-26.32-5.45-37.39-1.32-11.43,4.25-25.13,11.61-27.33,24.83-1,6.17.62,12.83,5.38,17.15,5.44,4.93,12.84,5.38,19.69,3.72,11.12-2.7,22.86-9.76,29.38-19.26,8-11.65,6.55-27.62-7.81-33-12.78-4.77-27.46-.63-38.92,5.67-10.75,5.9-21.74,15.48-21.81,28.75-.07,13.59,10.87,23.77,24.48,21.56,11.48-1.87,23.68-9.6,32-17.47s16.94-22.08,11.41-33.66c-6-12.55-24.08-11.28-35.65-9.56-12.2,1.81-26.56,7.11-34.72,16.79-8.93,10.61-7.47,26.14,6.59,31.22,11.58,4.18,25.93-.2,36.6-5.05,10.9-4.95,22.08-13.37,24.23-25.9,2.09-12.11-3.94-24.23-13.88-31.12-10.75-7.44-25.41-7.38-37.22-2.67-12.19,4.87-21.77,13.89-29.89,24-4.25,5.29-8.7,10.88-7.16,18.11,1.43,6.73,7.1,11.51,13.41,13.64,13.3,4.49,27.51-1,38.85-7.91,10.37-6.34,23.23-14.5,25.59-27.41,2.6-14.22-7.51-25.6-21.92-25.16-13.28.41-26.95,6.71-37.09,15-10,8.17-15.63,24.61-2.93,33.3,10.23,7,25.17,3.44,35.61-1.17a56.45,56.45,0,0,0,26.1-23.79c3-5.34.09-11.28-5.38-13.22-20.92-7.4-44.88,5.66-51.33,26.5-1.3,4.23,1.57,10.39,6.29,11.08,20.37,3,40.79-6,51.14-24.15,4.14-7.26-2.66-14.57-10.16-13.22a157.07,157.07,0,0,0-44.49,15.36l10.91,14.14,19.47-21.11c5.47-5.93,12.89-13.95,8.27-22.65-5.09-9.58-15.61-4.93-23.39-1.82a116.41,116.41,0,0,0-21,10.75,118.57,118.57,0,0,0-18.9,15.35c-5.26,5.29-12.21,11.95-14,19.41-2.4,10.25,7.34,17,16.65,14.49,8-2.18,16.08-6.71,23.16-11,15.52-9.33,35.33-23.32,36.33-43.1.27-5.32-4.38-8.39-9-9-29.9-4-59.25,15.56-69.36,43.43-2.59,7.15,5,12,11.07,11.07a83.66,83.66,0,0,0,42.13-20,75.92,75.92,0,0,0,14.37-16.69c5.07-8.18,3.4-17.79-5.1-22.77-14.76-8.63-33.38,2.08-45.18,11.11a98.3,98.3,0,0,0-30,37.61c-2.16,4.8-1.06,9.18,3.23,12.31,7.9,5.78,17.09.17,23.93-4.46A146.26,146.26,0,0,0,659,514.79c11.25-11,27.3-27.37,19-44.23-1.82-3.69-6.45-4.93-10.16-4.13-28,6-51.28,28.48-59.25,55.88-2.06,7.08-4.12,16-1.5,23.14,3,8,12.27,11.54,20.24,9.38,6.69-1.8,13.31-7.85,16.33-14,3.65-7.43.54-18.45-9.31-18-2.9.13-6.51,1.55-7.77,4.45a289.2,289.2,0,0,0-22.89,90.16c-.71,8.09,10.14,11.45,15.36,6.36,10.17-9.9,5.46-26.93-6.34-33.23-13.8-7.36-31.79-1.21-44.93,4.77-8.22,3.74-11.09,11.41-7.5,19.75a72.8,72.8,0,0,0,11,17.44c8.83,10.72,20.64,18.43,33.63,23.16,8.31,3,15.52-9.32,8.76-15l-39-32.91c-7.43-6.29-19.71,1.64-14.13,10.9,18.36,30.48,50.37,50.24,85.63,53.86,8.09.82,11.44-10.22,6.37-15.37-8.95-9.09-20.1-15.35-30.87-22-9.71-6-19-12.41-24-23l-14.14,10.91,34.66,35.46c9.91,10.15,19.73,22.2,34.06,25.87,7.73,2,13.92-6.32,10.17-13.22a231.46,231.46,0,0,0-46-59.18c-6.32-5.85-17.83-.19-15,8.76a124.13,124.13,0,0,0,39.82,59.42c7,5.68,16.9.44,15-8.75-2.32-11.52,5.49-23.79,16.58-27.13L662.6,631.07l-20.84,34.15,15.54,9.09,7.19-14.26c5.21-10.31-10.32-19.44-15.54-9.08l-7.19,14.25c-5.2,10.3,9.45,19,15.54,9.09l20.85-34.15c4-6.63-2.67-15.48-10.17-13.22-20.9,6.3-33.44,28-29.15,49.27l15-8.76A107.4,107.4,0,0,1,618.69,616l-15.05,8.76a215.53,215.53,0,0,1,43.23,55.53L657,667c-5.57-1.42-9.79-4.85-13.86-8.78-5.14-5-10-10.18-15-15.29l-31.89-32.63c-7.51-7.69-18.3,2-14.13,10.91,11.48,24.46,39.86,30.55,57.67,48.64l6.36-15.36c-28.76-2.95-55.23-20.29-70.09-44.94l-14.13,10.9,38.95,32.91,8.75-15a58,58,0,0,1-20.08-12.5c-5.4-5.14-11.93-12.47-13.43-20v4.78c-.17,1.07-2.35,1.31-.13.6.94-.31,1.87-.82,2.8-1.19,2.22-.88,4.49-1.65,6.78-2.34a45.12,45.12,0,0,1,12.89-2.41c2.87,0,10.77,2.87,7.8,5.77l15.37,6.36a262.3,262.3,0,0,1,20.43-81.07l-7.77,4.46.78,0-4.54-1.23.57.3-3.22-3.23c-1.74-2.6,1.29-5.51-1.76-2.18-.68.74-3.28,2.36-3.63,3a.86.86,0,0,1-.46-.07l1.75,1.73,0-.91c.57-1,.47-4.3.73-5.62a62.69,62.69,0,0,1,48-48.82l-10.16-4.14c1.29,2.63-3.51,8.09-4.87,9.86a130.14,130.14,0,0,1-23,22.66c-2.26,1.69-4.58,3.29-6.94,4.82-1.17.76-2.34,1.6-3.58,2.25l-1.28.71c-1.24.29-.84.32,1.22.11l3.22,12.31a84.73,84.73,0,0,1,19.4-27.45A77.44,77.44,0,0,1,659.81,495c4.54-2.71,10.3-6,15.81-5.41.51.06,1.85.5,2,.44a1.92,1.92,0,0,1,.35.23l-.69-3.43c-.3,0-4.25,6.09-4.94,6.91a66.6,66.6,0,0,1-11.64,10.87,69.18,69.18,0,0,1-30,12.08l11.07,11.07c7.6-21,30.4-33.08,52-30.21l-9-9c-.47,9.22-12.17,17.14-18.94,22A127.49,127.49,0,0,1,652.17,519q-3.72,2-7.57,3.76c-1.09.49-2.18,1-3.29,1.41l-1.58.62q-2.94.67.78.68l3.23,3.23h.12v4.78c.61-4.19,6-8.6,8.87-11.52a94.27,94.27,0,0,1,13.19-11.32A100.07,100.07,0,0,1,697.19,496l-8.76-2.32c.16-4.85-.27-6.28-1.26-4.27a3.35,3.35,0,0,1-.45.72,20.36,20.36,0,0,0-2.59,2.81L677,500.68l-13.63,14.78c-7,7.58,1.76,18.89,10.9,14.14a141.15,141.15,0,0,1,40.19-13.55l-10.16-13.22c-6,10.53-18.5,17.66-30.81,15.87l6.28,11.07c3.72-12,17.67-18,29.19-13.93l-5.38-13.22c-6.06,10.68-17.08,18.57-29.5,19.72a33.75,33.75,0,0,1-6.32-.23c.27,0-.32.92.25,0a23.37,23.37,0,0,1,2.3-3.52c4.58-5.05,11.91-8.43,18.31-10.4,3-.94,6.36-1.94,9.58-1.86a5.85,5.85,0,0,1,3.09.53c-.09-.05.53.1.55,1.4.09,5.66-5.74,9.39-9.87,12.28-6.2,4.33-12.74,8.76-20.08,10.85a21.34,21.34,0,0,1-9.22.86c-.79-.12-2.72-1.18-3.35-1.1-.08,0-.48-.39-.49-.38-.34-.45-.34-.08,0,1.1q-.12,2.54,1-.09c2.16-1.91,3.83-4.82,5.76-7a84.85,84.85,0,0,1,8.06-8c5.07-4.35,11.27-7.75,17.94-8.75,9.27-1.38,24,5.12,20.09,16.9-1.88,5.68-8.81,9.23-13.8,11.6-6,2.82-13.16,4.93-19.79,4.8-1.13,0-3.9,0-4.43-1.16.6,1.33,2.47-2.22,3.38-3,5.1-4.58,12.29-7.26,18.87-8.85a49.19,49.19,0,0,1,10.18-1.37c3.43-.11,7.13,1,10.43.74.73,0-.18-.41-.26-1a9.07,9.07,0,0,1-.87,4,23.3,23.3,0,0,1-4.37,7.07c-4.3,4.89-9.85,8.38-15.57,11.36-2.73,1.42-10.22,6.4-12.35,2.56-2.36-4.26,2.66-9.23,5.64-11.56a47.45,47.45,0,0,1,18.9-8.94,24.32,24.32,0,0,1,9.31-.27c3,.53,3.72.36,3,3-1.38,5.33-6.44,8.88-11,11.43a43.26,43.26,0,0,1-7.82,3.53,14.22,14.22,0,0,1-4.15,1c-.89,0-.66.1-.55.31-2.06-3.83,8.14-8.68,10.29-9.77A47.2,47.2,0,0,1,727.18,535c1,0,3-.17,3.94.49.62.46-.07-.46.21.32.72,2.06-1.2,5.1-2.37,6.71a17.92,17.92,0,0,1-12.76,7.3c-2.31.18-8.56-.35-7.14-3.37,2.05-4.33,10.25-5.26,14.18-5.45,6.91-.35,14.44.67,20.62,4,1.42.76,2.68,1.44,2.8,3,.15,2-1.9,4.34-3.35,5.34-5.07,3.54-13.31,2.75-19.11,2.15-2-.2-7.73-.65-7.94-3-.17-1.89,3.3-3.12,4.56-3.37,3.54-.71,7.35,0,10.82.77q3,.66,5.85,1.54c1.26.39,3.62,1.8,4.89,1.69.17,0,.62.63.76.5l-.31-2.3c.27-2.36,0-2.94-.81-1.71-1.22.45-2.74,2.9-3.83,3.77a27.91,27.91,0,0,1-7.3,4.19c-3.23,1.26-6.51,1-9.66,1.89a4.63,4.63,0,0,0-1.27,0l1.93,2.14-.08-.08c.07,0,.39-.64.58-.68.91-.18,2.54-1.74,3.41-2.18a29.07,29.07,0,0,1,4.63-1.9,40.73,40.73,0,0,1,5.63-1.43c1-.17,3.26.11,4.05-.27,1.64-.81-.24.47.1-.12l-.1-2.35c.58-2.25.33-2.9-.72-2-1.26.06-3.83,2.5-4.94,3.19-5.84,3.67-12.2,7.44-19.22,8.12l4.54,16.77a81.45,81.45,0,0,1,43.72-13L761.1,548l-24,8.5L744,573a20.76,20.76,0,0,1,18.48-2l-4-15a67.41,67.41,0,0,1-28.72,14.4l8.75,15,19.81-18-12.73-12.73A424.15,424.15,0,0,0,703,610c-5.7,8.8,6.87,17.74,14.13,10.91a143.86,143.86,0,0,1,14.75-12.25l-12.32-12.31A69,69,0,0,1,703,613.8l10.9,14.13,27.44-34.21c7.09-8.83-4.21-21-12.73-12.72-14,13.6-28.08,27.17-45.33,36.62l10.91,14.14q24.74-23,48.25-47.3c6.92-7.14-2.09-19.84-10.91-14.14C715.4,580.74,701,593.5,687.25,606.8c-6.64,6.41-13.19,12.93-19.84,19.34-3.53,3.4-7.09,6.77-10.72,10.07q-2.55,2.32-5.15,4.61c-.84.74-3.18,3.41-4.25,3.55l6.37,15.36c23-26.43,48.3-50.73,73.58-75,8.45-8.1-4.06-20.26-12.72-12.73l-83.08,72.24,15,4c-.27-1.41,4.18-5.5,5.36-6.73,3.18-3.3,6.38-6.59,9.56-9.89l17.77-18.37,36.89-38.16a9.16,9.16,0,0,0,0-12.73c-3.78-3.78-8.89-3-12.73,0l-88.48,69.41,12.73,12.73,79-80c7-7.07-2.18-19.95-10.9-14.14a834.91,834.91,0,0,0-90.79,69.91l14.13,10.9a401.4,401.4,0,0,1,64.61-67.59c3.74-3.11,3.22-9.52,0-12.73-3.72-3.73-8.95-3.09-12.72,0l-36.57,29.84-18.28,14.92c-4.78,3.9-9.72,9-15.78,10.83l10.17,13.22a196.75,196.75,0,0,1,63.92-61.52l-10.9-14.13-34.06,34.64-16.68,17c-2.62,2.67-5.19,5.38-7.87,8-1.33,1.29-3.7,4-5.75,4.23l7.77,13.55a187.83,187.83,0,0,1,52-55.78L648,551.5l-69.19,64.82L593,627.22a316.39,316.39,0,0,1,73.25-83l-12.72-12.73-38.06,41c-11.29,12.16-22.16,26.51-36.58,35.1l12.31,12.32c19.1-33.17,45.42-61,71.7-88.55l-12.73-12.73-75.85,79.65,14.14,10.9a551.74,551.74,0,0,1,74.68-88l-12.72-12.73-41.79,48.32L587.69,580.9c-5.88,6.8-11.58,14.32-19.12,19.38l12.32,12.32q11-21,23.22-41.29c6.78-11.2,13.58-23.5,24.95-30.66l-12.31-12.32q-14.32,20-29.87,39-7.71,9.4-15.69,18.58c-2.66,3.06-5.32,6.12-8.05,9.11-1,1.12-3.55,4.67-5.22,4.88l8.68,11.39a146.85,146.85,0,0,1,14.53-28.74,133.63,133.63,0,0,1,9.08-12.47c1.79-2.16,3.65-4.28,5.56-6.35.75-.82,1.5-1.7,2.32-2.45a3.75,3.75,0,0,1,1.39-1.21c.53-.32.44-.23-.26.26l-4.55-1.23,1.25.54-3.23-12.31q-12,15.95-25.16,30.95c-7.15,8.16-14.71,17.61-25.52,20.79l11.39,8.67A59.05,59.05,0,0,1,561.48,585a57.41,57.41,0,0,1,7-9.5q2.13-2.31,4.47-4.42c3.48-3.13,1.45-.13-1.37-2.16l-3.23-3.23.46.81v-9.08a66,66,0,0,1-16.41,20.17,63.16,63.16,0,0,1-10.28,6.77c-1.92,1-7.4,4.19-8.8,3.67l4,2.31-.11-.07,1.23,4.54c-.38-2.9,4.15-7.27,6.27-9.32a32.86,32.86,0,0,1,10.77-7.05l-11.39-8.68c-.37,6.14-5.18,10.42-10.94,11.62l11.07,11.07a22.76,22.76,0,0,1,2.78-8.22,19.18,19.18,0,0,1,2.4-3.21l1.12-1.12c1.57-1.3.37-1.79-3.62-1.48l-2.31-4-.11-.3c-.64,4.83,4.59,9,9,9,5.39,0,8.36-4.16,9-9Z" transform="translate(-494.68 -440.4)"/><path class="cls-2" d="M779.79,550.77l-.38-.14,2.15.9a9.19,9.19,0,0,1-1.77-1l1.82,1.4a11,11,0,0,1-1.46-1.44l1.41,1.82a10.26,10.26,0,0,1-1.23-2.13l.91,2.15a9.6,9.6,0,0,1-.51-2l.32,2.39,0-.41a9.67,9.67,0,0,0-2.64-6.36A9.15,9.15,0,0,0,772,543.3c-4.52.2-9.45,4-9,9a17.57,17.57,0,0,0,3,9.07,18.87,18.87,0,0,0,9,6.76c2,.8,5.12.16,6.94-.91a9,9,0,0,0,3.23-12.31,10.39,10.39,0,0,0-5.38-4.14Z" transform="translate(-494.68 -440.4)"/><path class="cls-3" d="M593.09,547.37c29.16,32.93,58.56,66,93.27,93.24v-8.49a95.32,95.32,0,0,0-31.44,53.32c-.52,2.56-.9,5.15-1.22,7.74-.2,1.63-1.32,5.46-.6,7l-.09.75q5.58-1.75,1.67-3.42c-.47-.69-2.51-1.78-3-2.17q-4.59-3.27-9.14-6.56-15.18-11-30.09-22.35-29.92-22.83-58.62-47.25Q539.5,607,525.54,594.53c-2.33-2.08-4.66-4.16-7-6.27a20,20,0,0,1-2.66-2.54l-.33-.39q-.24,2.35.81.45c2-1,4-4.2,5.55-5.74,1.91-1.86,3.87-3.67,5.88-5.41a136,136,0,0,1,65.79-30.92c7.6-1.33,4.38-12.9-3.19-11.57a147.6,147.6,0,0,0-65.54,29.43,140.85,140.85,0,0,0-12.56,11.11c-4.05,4-9.35,8.61-8.37,14.92.89,5.69,6.32,9.33,10.31,12.91q8.36,7.53,16.84,14.91,31.77,27.72,65.12,53.56,16.15,12.53,32.64,24.63,8.31,6.09,16.71,12.07c4.8,3.41,10.92,8.23,16.44,3,4.42-4.19,3.12-12.31,4-17.75A85.58,85.58,0,0,1,671.15,673a84.69,84.69,0,0,1,23.69-32.37c2.27-1.93,2.42-6.59,0-8.49-34.71-27.26-64.11-60.3-93.27-93.24-5.13-5.79-13.59,2.72-8.48,8.49Z" transform="translate(-494.68 -440.4)"/><path class="cls-3" d="M528.07,573.21c-4.35-5.59-12.48-2.46-14.8,3.22-2.64,6.44-.68,15.24,1.72,21.43,1.91,4.95,7.87,5.83,11,1.44a42.65,42.65,0,0,0,7.48-30c-.65-5-8.47-9.22-11.18-3a40.37,40.37,0,0,0-3.17,23.24c1.08,6.53,4.38,17.63,12.24,18.59,9.12,1.11,10.77-9.87,11.51-16.43a69.33,69.33,0,0,0-2.56-27.39c-1.73-5.9-9.67-5.5-11.57,0a46.2,46.2,0,0,0,13.51,49.54c3.07,2.59,9.24,2.21,10-2.65A72.34,72.34,0,0,0,543,561.68c-2.43-4-10.14-3.92-11,1.43a97.57,97.57,0,0,0,1.17,37.57c1.78,7.58,6.1,28.25,17.79,24.54,10.78-3.43,8.84-21.23,8.12-29.73a105.27,105.27,0,0,0-10.16-36.9c-1.49-3.12-5.47-3.42-8.21-2.16-12.49,5.76-8,24.59-6.07,34.93a148.09,148.09,0,0,0,6.15,22.77c2.19,6.1,4.59,15.58,9.91,19.73,5,3.89,11.38,1.88,14.56-3.2,3.57-5.71,2.89-13.27,2.7-19.67a167.18,167.18,0,0,0-8.83-48.64,6.19,6.19,0,0,0-7.38-4.19c-7.53,1.37-9.19,9.43-9.25,15.89A136.79,136.79,0,0,0,545,600.44a134.29,134.29,0,0,0,6.85,23.93c2.46,6.32,5.32,17.13,12.68,19.47,7.68,2.45,13.89-4.84,14.26-11.91.42-8.1-1.91-16.95-3.28-24.92q-2.41-14-5.75-27.9c-1.73-7.21-3.71-14-11.28-16.82-3.39-1.26-8,2.09-7.59,5.79a204.08,204.08,0,0,0,10.25,45.33c4.07,11.44,8.81,27.47,22.2,30.78a6.09,6.09,0,0,0,7.6-5.79A139.86,139.86,0,0,0,572.63,563a6.13,6.13,0,0,0-8.21-2.16c-7.86,4-6.44,13.47-5.26,20.7a179.37,179.37,0,0,0,19.2,56.09c4.07,7.35,9.35,13.65,17.49,16.46a6,6,0,0,0,6.77-2.76c6.31-11.72,1.52-26.07-1.75-38.06a257,257,0,0,0-14.68-39.95c-1.64-3.57-6.92-3.74-9.43-1.22-6.64,6.69-3.76,16.14-1.58,24.16a209.67,209.67,0,0,0,9.81,28,206,206,0,0,0,13.73,26.52c4,6.51,10.36,16,19.36,11.22,7.47-4,6.41-13.92,4.84-20.78a61.18,61.18,0,0,0-12.11-24.54c-4.36-5.41-13-11.06-19.12-4.66s.26,19.54,2.81,26.43a143.77,143.77,0,0,0,14.79,29.42c5.34,8.1,11.57,16.13,22,16.66,3.86.2,6.88-4,5.79-7.59a73.93,73.93,0,0,0-43.23-47.05c-4.3-1.76-8.62,3.36-7.38,7.38a99.45,99.45,0,0,0,50.78,59.77c3.23,1.59,8,.47,8.81-3.58,2.4-11.83-9-21.48-16.46-29.15a218.61,218.61,0,0,0-28.26-24.28c-6-4.37-11.08,4.56-7.27,9.42a279.47,279.47,0,0,0,47.26,47.31c4.9,3.86,13.46-1,9.42-7.27l-37.82-58.27-10.36,6.06q21.38,28.79,40.53,59.13c3.59,5.68,12.74,2.09,11-4.62A197,197,0,0,0,625.56,630c-4.36-6.3-14-.85-10.36,6l31.57,59.56c3.12,5.87,13.56,1.76,11-4.62C651.47,675.51,645,659.7,643.8,642.9L632,644.49a396.49,396.49,0,0,0,14.7,51c1.76,4.88,10.69,6.47,11.57,0,1.82-13.32-1.84-26-4.86-38.91l-9.48-40.41c-1.52-6.49-12.24-5.23-11.79,1.59a206.42,206.42,0,0,0,16.65,68.52c2.46,5.7,11.17,2.49,11.18-3,0-25.62-8.65-49.77-17.57-73.43-2.69-7.13-13.32-4.46-11.58,3.19q4,17.49,9,34.73c2.6,8.89,4.69,19.66,13.54,24.46,5,2.73,9.5-1.75,8.82-6.77a280.63,280.63,0,0,0-15.55-61.3c-2.76-7.29-12.77-4.43-11.57,3.19a199.16,199.16,0,0,0,20,60.75c2.66,5.14,11.66,2.91,11.18-3-1.72-21.53-8.56-41.84-15.74-62.06-2.55-7.19-13.78-4.32-11.57,3.19a354.94,354.94,0,0,0,21.52,55.41c3.22,6.61,11.92,1.55,11-4.62a172.59,172.59,0,0,0-14.15-46.35c-2.82-6.09-13.44-1.73-11,4.63a317.7,317.7,0,0,0,19.5,41.2c2.74,4.82,12,3.1,11.19-3a106.68,106.68,0,0,0-8.81-31.16l-10.36,6.05,9.2,15.84c3.37,5.8,13,2,11-4.63l-4.45-14.73-10,5.84L673.29,643c3.27,4.16,10.4.61,10.24-4.24-.23-6.85-4.28-11.37-8.93-16q-8.82-8.73-17.69-17.42l-34.67-34.16c-4.76-4.7-13.12,1.38-9.42,7.27l32.84,52.27,9.42-7.28a522,522,0,0,1-51-69.84l-10.36,6.06L638,632c4.13,6.73,13.45.86,10.36-6a302.54,302.54,0,0,0-51.94-79.57c-4.86-5.38-12.1,1.46-9.42,7.28a222.16,222.16,0,0,0,36.18,54.89c4.56,5.1,12.94-1.49,9.42-7.28a445.2,445.2,0,0,0-38.26-53.44c-4.4-5.28-12.92,1.53-9.43,7.27,6,9.92,20.05-2.7,11.61-10.35-4.54-4.11-10.46-1.95-15.53-.26l-20.75,6.94c-5.16,1.73-6.24,10.42,0,11.58,9.18,1.69,18.2-2,22.79-10.35,2.49-4.53-1.63-10.24-6.78-8.81a124,124,0,0,0-29.44,12.43c-6.25,3.65-1.78,12,4.62,11a89.22,89.22,0,0,0,37.81-15.44c4.36-3.1,3.46-11.71-3-11.18-10.2.83-19.93,5.21-26.64,13.09-6.47,7.59-11.7,20.91.22,26.32,18.85,8.57,37.27-15.37,30.87-32.64-.89-2.41-3-4.54-5.79-4.41-16.3.76-8.9,25.4-6.55,34.64a149.78,149.78,0,0,0,19.54,44.39,6.12,6.12,0,0,0,8.21,2.15c12.66-7.26,5.18-23.43.47-33.2a207.53,207.53,0,0,0-25.32-39.68c-3.94-4.91-11.41.46-10,5.84A218.69,218.69,0,0,0,611.56,639c5.31,6.78,13.79,13.65,22.52,8.36a6.13,6.13,0,0,0,2.76-6.78,212.49,212.49,0,0,0-60.32-95,6,6,0,0,0-10,5.84c3.68,15.31,10.24,29.73,18,43.39,7.29,12.85,15.06,26.12,24.48,37.54,6.34,7.69,23.64,23.62,31,9.15,6-11.86-5.61-26.79-11.84-36a217.85,217.85,0,0,0-35.24-40.29c-5.25-4.69-12.26,1.12-9.43,7.27a273.15,273.15,0,0,0,52.23,76c4,4.17,12-.07,10-5.83a111.63,111.63,0,0,0-38.29-53.26c-5.06-3.88-10.85,3.41-8.21,8.21l29,52.5c3.73,6.76,14.1.71,10.36-6.06l-29-52.5-8.21,8.21a97.39,97.39,0,0,1,32.77,46.09l10-5.84a263.66,263.66,0,0,1-50.35-73.56l-9.42,7.27a204.18,204.18,0,0,1,29.37,32.18,206.5,206.5,0,0,1,11.4,17.45c1.22,2.08,6.89,11,3.72,13.24l4.63-.6c-15.56-5-24.45-23.68-32.4-36.59-9.88-16-18.65-32.73-23.08-51.15L568,554a200.55,200.55,0,0,1,57.23,89.71L628,637c-3.6,2.19-13.14-13.43-14.68-15.68a214.49,214.49,0,0,1-12.53-20.62,210.76,210.76,0,0,1-18-46.69l-10,5.84a192.7,192.7,0,0,1,19.46,29.43c1.75,3.25,13.12,21.56,7.82,24.6l8.21,2.16a139.16,139.16,0,0,1-15.64-32.31,142.07,142.07,0,0,1-4.41-16.89c-.57-2.89-1.13-5.82-1.42-8.75a24.38,24.38,0,0,0-.16-3.1c-.53-2.14,3-.15-1.72.07l-5.78-4.4c2.91,7.84-2.9,20-12.54,19-3.1-.33-2.09-1.62-.84-3.9a25,25,0,0,1,5.33-6.55,26.22,26.22,0,0,1,15.17-6.5l-3-11.18a81.55,81.55,0,0,1-34.94,14.23l4.62,11a111.39,111.39,0,0,1,26.58-11.22l-6.77-8.82c-1.85,3.37-5.3,5.56-9.24,4.83V563l14.15-4.74,6.6-2.21,3.78-1.26q5-.86,4.09-7.91l3.59,2.75-.37-.6-9.42,7.27a423.3,423.3,0,0,1,36.39,51l9.42-7.27a211.47,211.47,0,0,1-34.3-52.46L588,554.9A293,293,0,0,1,638,632l10.36-6-44.33-72.32c-4-6.57-14.4-.55-10.36,6.06A540.25,540.25,0,0,0,646.6,632c4.47,5.16,13-1.54,9.42-7.27l-32.84-52.27-9.42,7.27,30.42,30L659,624.34l7.08,7c2,2,5.31,4.42,5.41,7.49l10.24-4.25L672,622.17c-3.81-4.84-11.66.43-10,5.83l4.44,14.73,11-4.62-9.2-15.83c-4-6.81-13.5-.85-10.36,6.05A87.63,87.63,0,0,1,665,653.44l11.18-3a293.87,293.87,0,0,1-18.29-38.33l-11,4.62a161.88,161.88,0,0,1,12.94,43.48l11-4.63A336,336,0,0,1,650.54,603L639,606.2c6.78,19.11,13.68,38.51,15.31,58.87l11.18-3a189.33,189.33,0,0,1-18.83-57.88l-11.57,3.19a281.19,281.19,0,0,1,15.55,61.3l8.81-6.78c-3.37-1.83-4.41-5.48-5.52-8.93-1.47-4.62-2.8-9.29-4.11-14q-4.06-14.47-7.38-29.14L630.83,613c8.53,22.62,17.19,45.74,17.15,70.24l11.18-3a189.22,189.22,0,0,1-15-62.46l-11.78,1.6L640.94,656c2.71,11.55,7.4,24.38,5.77,36.38h11.57a396.49,396.49,0,0,1-14.7-51c-1.41-6.53-12.28-5.2-11.78,1.6,1.32,18,7.64,34.66,14.37,51.26l11-4.63L625.56,630l-10.36,6a187.48,187.48,0,0,1,27.29,59l11-4.63q-19.15-30.32-40.53-59.13c-4.49-6-14.66-.56-10.36,6.06l37.82,58.26,9.42-7.27A280.52,280.52,0,0,1,602.55,641l-7.27,9.42a199.73,199.73,0,0,1,22,18.61q5.13,5,9.9,10.33c2.11,2.37,8,7.33,7.27,10.94l8.82-3.59A87.62,87.62,0,0,1,598,634.11l-7.38,7.38a61.14,61.14,0,0,1,34.85,38.67l5.78-7.6c-6.5-.33-11-9.59-14-14.39A130.26,130.26,0,0,1,607,637.74c-1.5-3.79-2.81-7.66-4-11.57-.44-1.5-.64-4.7-1.58-5.9q-.26-2.74-3,1.07a4.43,4.43,0,0,1,1.73,1.36c5.21,4.81,8.68,12.69,10.54,19.36.81,2.91.73,6,1.38,8.79q-1.07,2.28,1.47.38a6.55,6.55,0,0,1-1.32-1.51,55,55,0,0,1-3.19-5,201.88,201.88,0,0,1-11.22-20.91,187.94,187.94,0,0,1-8.63-22.31q-1.87-5.87-3.37-11.84c-.59-2.33-2.55-7.13-.61-9.08l-9.43-1.22a237.72,237.72,0,0,1,12.47,33.5q2.34,8.07,4.11,16.28c1.12,5.24,2.54,11.15-.14,16.12l6.78-2.76c-5.43-1.87-8.45-7.44-11-12.2a157,157,0,0,1-9.19-20.72A172.85,172.85,0,0,1,572.79,589c-.63-2.75-4.39-16.65-2.31-17.72l-8.21-2.15A128.09,128.09,0,0,1,579,638.4l7.59-5.78c-4.65-1.15-6.87-5.69-8.77-9.73A156.27,156.27,0,0,1,571,605a189.71,189.71,0,0,1-8.05-36.93l-7.6,5.78c2.5.94,3.49,10.89,4,13.06q1.92,8.33,3.49,16.73,1.66,8.88,3,17.8c.39,2.72.87,5.47,1,8.21,0,.72-.37,2.29-.13,2.82l1.91-.16c-.36-.65-.71-1.31-1-2A127.63,127.63,0,0,1,554.78,583c-.19-3-.3-5.93-.28-8.9a27.32,27.32,0,0,1,.08-3c.15-1.21.64-1.37.36-1.32l-7.38-4.19a154.87,154.87,0,0,1,7.56,33.24,156.77,156.77,0,0,1,.91,16.91c0,2.31-.42,4.77-.35,7,0,.31-.61,1.25-.45,1.51.09.51.54.51,1.36,0,1.53.28,1.77-.15.74-1.29-.2-2.07-2.25-4.93-3-6.89q-1.53-3.79-2.83-7.66a148,148,0,0,1-4.35-15.75,126.75,126.75,0,0,1-2.55-16.34c-.26-3-1.07-8,2.2-9.48l-8.21-2.16a91.05,91.05,0,0,1,7.89,25.43,88.43,88.43,0,0,1,1,12.48c0,1.77,0,3.53-.09,5.3-.06,1.17-1.12,5.09-.73,6q5.83,2.82,3.69-.27-.6-1.25-1.14-2.52c-.83-1.94-1.56-3.92-2.23-5.92a87.69,87.69,0,0,1-3.08-12,81.47,81.47,0,0,1-.26-26.85l-11,1.44A59.42,59.42,0,0,1,540.67,608l10-2.64a34.5,34.5,0,0,1-10.43-37.87H528.7a59.13,59.13,0,0,1,2.54,15.22,61.61,61.61,0,0,1-.22,7.19c-.07.78-1.57,7.16-1.31,7.41l4.63-.54-.79-1.37a25.27,25.27,0,0,0-1.34-2.91,26.73,26.73,0,0,1,.41-20.15l-11.19-3a32.78,32.78,0,0,1-5.84,24l11,1.43a32.8,32.8,0,0,1-2.21-8.12,29,29,0,0,1-.15-3.35,7.6,7.6,0,0,1,.13-2.08q.69-2.86-4.75.58c4.74,6.09,13.18-2.46,8.49-8.49Z" transform="translate(-494.68 -440.4)"/><path class="cls-3" d="M602.61,528.32q28.54,27,55.78,55.37c1.79,1.86,4.61-1,2.83-2.83Q634,552.51,605.44,525.49c-1.87-1.76-4.7,1.06-2.83,2.83Z" transform="translate(-494.68 -440.4)"/><path class="cls-3" d="M667.57,593.25l4.9,3.64a2,2,0,0,0,2.74-.71,2.06,2.06,0,0,0-.72-2.74l-4.9-3.64a2,2,0,0,0-2.73.72,2,2,0,0,0,.71,2.73Z" transform="translate(-494.68 -440.4)"/><path class="cls-3" d="M679.18,605.19l24.25,26.61c1.74,1.91,4.56-.93,2.83-2.83L682,602.36c-1.73-1.9-4.56.93-2.82,2.83Z" transform="translate(-494.68 -440.4)"/><path class="cls-4" d="M508,578.92c-7.42-15,15.2-28.39,25-35.17,12.78-8.85,27.18-17.07,43.12-17.47,7.73-.19,14.75-.48,19.75-7.19,4.11-5.52,5.68-12.72,8.7-18.85a102.83,102.83,0,0,1,27.81-34.73c12-9.62,30-17.78,44.76-9.43,6.73,3.82,12.78-6.55,6.06-10.36-31.24-17.72-66.41,12.47-82.65,37.36a118.88,118.88,0,0,0-11.33,22.71c-1.08,2.83-2.2,6.66-5.18,8-3.72,1.68-9.74.43-13.83.93-18.28,2.23-34.33,12-48.91,22.69-15,11-33.89,26.9-23.66,47.56,3.43,6.92,13.78.84,10.36-6.06Z" transform="translate(-494.68 -440.4)"/><path class="cls-5" d="M680.9,458.86A1281.05,1281.05,0,0,1,807.78,574.1L812,563.86c-46.29-2-74.9,39.8-93.33,76.39l6.78-2.76c-17.94-4.2-38.28-1.38-49.24,14.92-5.9,8.77-9.09,19.69-13,29.43L649.5,715.93l10-2.64c-34.62-39.62-81.74-64.63-120.74-99.27a227.27,227.27,0,0,1-30.23-31.95c-4.62-6.06-15.05-.09-10.37,6.06,32.5,42.66,79.74,68.79,120.42,102.48A279.24,279.24,0,0,1,651,721.77c3.28,3.75,8.5,1.17,10-2.65l11.55-28.71c3.5-8.68,6.6-17.66,10.68-26.08,3.48-7.19,8.29-12.69,16.07-15.11,7.45-2.31,15.38-1.92,22.91-.16,2.46.57,5.56-.35,6.77-2.76,16.45-32.64,41.19-72.23,83-70.44,5.35.22,7.72-6.64,4.25-10.25A1282.4,1282.4,0,0,0,689.38,450.37c-6-4.75-14.53,3.69-8.48,8.49Z" transform="translate(-494.68 -440.4)"/><path class="cls-5" d="M508.12,588.5c20.34-24,49.23-40.21,80.53-44.16,7.56-1,14.21-2.11,17.42-9.89,2.67-6.47,4.72-13,8.12-19.13A104.1,104.1,0,0,1,642,483a102.6,102.6,0,0,1,44.1-19.53c7.58-1.38,4.37-12.95-3.2-11.57-29.21,5.34-55.28,22.79-72.45,46.87a105.66,105.66,0,0,0-10.76,19c-1.48,3.38-2.77,6.81-4,10.29-.48,1.38-.7,2.59-2,3.38-1.55,1-4.06.79-5.84,1a139.14,139.14,0,0,0-46.13,14.21A137.53,137.53,0,0,0,499.64,580c-5,5.85,3.48,14.38,8.48,8.48Z" transform="translate(-494.68 -440.4)"/></svg>