<svg id="head_sideways" xmlns="http://www.w3.org/2000/svg" viewBox="0 0 380.35 339.13"><defs><style>.cls-1{fill:#c6947d;stroke:#2d2721;stroke-width:10px;}.cls-1,.cls-3{stroke-miterlimit:10;}.cls-2{fill:#915c47;}.cls-3,.cls-4{fill:#704636;}.cls-3{stroke:#2d1c0c;stroke-width:11px;}.cls-5{fill:#2d1c0c;}</style></defs><title>head_sideways</title><ellipse class="cls-1" cx="160.42" cy="183.26" rx="155.42" ry="131.83"/><path class="cls-2" d="M845.07,392.26v-.39a1.5,1.5,0,0,0-3,0v.39a1.51,1.51,0,0,0,1.5,1.5,1.53,1.53,0,0,0,1.5-1.5Z" transform="translate(-818.61 -224.8)"/><path class="cls-2" d="M838.09,427.8a1.5,1.5,0,0,0,0-3,1.5,1.5,0,0,0,0,3Z" transform="translate(-818.61 -224.8)"/><path class="cls-2" d="M883.87,426.24a1.5,1.5,0,0,0,0-3,1.5,1.5,0,0,0,0,3Z" transform="translate(-818.61 -224.8)"/><path class="cls-2" d="M880.74,391.41a1.5,1.5,0,0,0,0-3,1.5,1.5,0,0,0,0,3Z" transform="translate(-818.61 -224.8)"/><path class="cls-2" d="M843.57,403.54a1.5,1.5,0,0,0,0-3,1.5,1.5,0,0,0,0,3Z" transform="translate(-818.61 -224.8)"/><path class="cls-2" d="M843.45,375.44l.39-1.17a1.52,1.52,0,0,0-1.05-1.85,1.54,1.54,0,0,0-1.85,1.05l-.39,1.17a1.52,1.52,0,0,0,1.05,1.85,1.54,1.54,0,0,0,1.85-1.05Z" transform="translate(-818.61 -224.8)"/><path class="cls-2" d="M848.93,352.07l-.39-.39a1.53,1.53,0,0,0-2.12,0,1.51,1.51,0,0,0,0,2.12l.39.39a1.5,1.5,0,0,0,2.12-2.12Z" transform="translate(-818.61 -224.8)"/><path class="cls-2" d="M835,404.33a1.5,1.5,0,0,0,0-3,1.5,1.5,0,0,0,0,3Z" transform="translate(-818.61 -224.8)"/><path class="cls-2" d="M864.7,412.54a1.5,1.5,0,0,0,0-3,1.5,1.5,0,0,0,0,3Z" transform="translate(-818.61 -224.8)"/><path class="cls-2" d="M869.39,447.76a1.5,1.5,0,0,0,0-3,1.5,1.5,0,0,0,0,3Z" transform="translate(-818.61 -224.8)"/><path class="cls-2" d="M910.09,458.72a1.5,1.5,0,0,0,0-3,1.5,1.5,0,0,0,0,3Z" transform="translate(-818.61 -224.8)"/><path class="cls-2" d="M862.74,429.76a1.5,1.5,0,0,0,0-3,1.5,1.5,0,0,0,0,3Z" transform="translate(-818.61 -224.8)"/><path class="cls-2" d="M894.43,403.54a1.5,1.5,0,0,0,0-3,1.5,1.5,0,0,0,0,3Z" transform="translate(-818.61 -224.8)"/><path class="cls-2" d="M858.83,393.76a1.5,1.5,0,0,0,0-3,1.5,1.5,0,0,0,0,3Z" transform="translate(-818.61 -224.8)"/><path class="cls-2" d="M841.61,412.15a1.5,1.5,0,0,0,0-3,1.5,1.5,0,0,0,0,3Z" transform="translate(-818.61 -224.8)"/><path class="cls-2" d="M852.17,459.11a1.5,1.5,0,0,0,0-3,1.5,1.5,0,0,0,0,3Z" transform="translate(-818.61 -224.8)"/><path class="cls-2" d="M924.17,422.33a1.5,1.5,0,0,0,0-3,1.5,1.5,0,0,0,0,3Z" transform="translate(-818.61 -224.8)"/><path class="cls-3" d="M1167.17,368.25c0-33.15-23.45-60-52.37-60l-.46,0a67.69,67.69,0,0,0-59.8-23.69c-8.7-23-29.7-39.27-54.23-39.27-19.52,0-36.79,10.28-47.43,26.08a63,63,0,0,0-27.52-6.23c-31.91,0-57.78,23.12-57.78,51.64s25.87,51.64,57.78,51.64a61.67,61.67,0,0,0,37.17-12.13q1.71,1.56,3.53,3c-11.58,10.6-19,26.74-19,44.81,0,17.63,7,33.41,18.13,44A70.83,70.83,0,0,0,960,474.92c0,30.48,18.89,56,44.22,62.58,9.55,8.36,24.21,13.71,40.65,13.71,28.78,0,52.11-16.38,52.11-36.59a28.09,28.09,0,0,0-5.8-16.76,64.7,64.7,0,0,0,59.73-86.17C1160.93,400.76,1167.17,385.34,1167.17,368.25Z" transform="translate(-818.61 -224.8)"/><path class="cls-4" d="M1005.23,262.94c1.39-1.79,4.33-2.48,6.39-3A100.6,100.6,0,0,1,1022,258a62.89,62.89,0,0,1,22.8.83c15.57,3.53,31,7.63,46.55,11.45l-3-7.34a326.88,326.88,0,0,1-25.38,30.23c-4.42,4.68,2.44,11.57,7.07,7.07a9.09,9.09,0,0,0,2.77-6.46c.12-3.34-3.29-5.58-6.33-4.82-6.55,1.62-13.1,3.56-19.73,4.82-2.08.4-4.74.67-6.59-.61s-2.24-3.73-2.8-5.6a118.71,118.71,0,0,0-6.22-17.19,19.22,19.22,0,0,0-4.43-6.13,13.53,13.53,0,0,0-3.91-2.42,6.82,6.82,0,0,0-1.84-.64c-.94-.06-.54-.61.1.56l.68,2.52c.08.54-.94,1.25-.59,1.47a6.73,6.73,0,0,0,1.42-.41c1.31-.33,2.65-.57,4-.83,2.64-.52,5.28-1,7.94-1.36,5.19-.76,10.42-1.2,15.65-1.44l-1.33-9.82-11,3.22c-3.42,1-7.52,1.67-10.43,3.83-3.84,2.85-2.77,9.17,2.52,9.31a82.93,82.93,0,0,0,26.47-3.58c6.14-1.87,3.6-11.26-2.66-9.64A131,131,0,0,0,1027,265.24c-5.22,2.67-1.49,10.36,3.85,9.14,14-3.2,28-6.56,42-9.93l-2.66-9.64c-7,2.36-13.9,5.05-20.69,8q-4.79,2.08-9.48,4.38c-3.1,1.52-6.35,3.05-7.2,6.73a5.05,5.05,0,0,0,6.15,6.15c13.08-3.63,25.35-9.93,38.83-12.09l-2.66-9.64c-13.25,5.28-26.56,10.75-37.23,20.52-3.73,3.41.17,9.7,4.86,8.35,14.28-4.09,27.06-12.06,41.31-16.2l-3.85-9.14a201.2,201.2,0,0,0-19.13,9.05,80.25,80.25,0,0,0-8.65,5.59c-3.09,2.3-6.45,4.58-7.51,8.49a5,5,0,0,0,6.15,6.15c6.45-1.8,12.6-5.21,18.7-7.95l19.23-8.64c5.1-2.29,1.4-11.3-3.86-9.14-13.88,5.72-27.35,12.93-37.55,24.19-2,2.22-2,6.35,1,7.85,3.32,1.64,5.86.53,8.83-1.24l8.38-5,16.77-10c5.53-3.29.56-11.84-5-8.63-9,5.17-17.86,10.66-24,19.29-2.78,3.92,1.8,8,5.65,7.35,3.56-.63,6.5-3.13,9.41-5.11l9.39-6.42c5.27-3.6.66-11.79-5-8.64-11.58,6.42-18,18.09-26.17,28-1.73,2.07-2,5,0,7.07,1.78,1.77,5.34,2.08,7.07,0,7.54-9.06,13.53-20.5,24.14-26.38l-5-8.64-8.58,5.86c-2.35,1.61-5,4.16-7.84,4.66l5.65,7.35c5-7.1,13-11.48,20.4-15.71l-5-8.63-13.83,8.23-6.71,4-3.35,2-1.68,1c-.79.47-2,.6-.36.55l2.52.68-.47-.23,1,7.85c9-9.94,20.86-16.55,33.14-21.62l-3.85-9.13-18.34,8.24c-5.61,2.52-11.26,5.68-17.2,7.34l6.15,6.15q-.51.42,0-.09a9.48,9.48,0,0,1,.87-.8c.48-.43,1-.83,1.5-1.23,1.18-.93,2.42-1.79,3.67-2.62,2.51-1.67,5.11-3.19,7.77-4.6,5.47-2.91,11.17-5.37,16.86-7.82,5.25-2.26,1.49-10.69-3.85-9.14-14.26,4.14-27,12.12-41.31,16.21l4.86,8.36c9.31-8.53,21.25-13.34,32.82-17.95,6-2.39,3.74-10.66-2.66-9.64-13.48,2.15-25.75,8.46-38.83,12.08l6.15,6.16c-.15.66-.82.59-.21.66a9.24,9.24,0,0,0,2-1c1.28-.64,2.57-1.25,3.85-1.86,2.72-1.28,5.46-2.52,8.23-3.7,5.44-2.3,11-4.35,16.56-6.24,6.06-2.05,3.64-11.16-2.66-9.64-14,3.37-28,6.73-42,9.93l3.86,9.14a119,119,0,0,1,24.3-9.18l-2.66-9.64a74.08,74.08,0,0,1-23.81,3.22l2.53,9.32c2.41-1.79,6.09-2.24,9-3.08l10.09-3c5.27-1.54,4.47-10.09-1.33-9.82a179.83,179.83,0,0,0-26.25,3.16c-3.89.76-8.43,1.46-10.85,5-2.94,4.31-.46,8.92,4.06,10.59a9.35,9.35,0,0,1,2.8,1.1,10.13,10.13,0,0,1,2.45,3.56,81.15,81.15,0,0,1,4,10.81c1.17,3.6,2,7.49,3.86,10.8a14.38,14.38,0,0,0,9.75,7c4.69.91,9.28-.16,13.82-1.29l15.33-3.79-6.33-4.82c.38-.42.43-.63.16-.61l7.07,7.07A347,347,0,0,0,1097,268c1.92-2.6-.1-6.64-3-7.35l-25.69-6.33c-8.48-2.09-17-4.62-25.58-6.07-8.9-1.5-17.69-.9-26.54.61-7.45,1.27-14.71,2.72-19.56,9-1.65,2.14-.33,5.6,1.79,6.84,2.58,1.51,5.19.36,6.84-1.79Z" transform="translate(-818.61 -224.8)"/><path class="cls-4" d="M1139,426.19q24.23-9.94,47.81-21.33c2.43-1.18,3.08-4.64,1.79-6.84-1.5-2.56-4.35-2.87-6.84-1.79a133,133,0,0,0-23.27,12.93Q1153,413,1148,417.27c-3.22,2.72-7.8,5.86-8.63,10.26-.63,3.32,2.27,7.69,6.15,6.15,7.15-2.83,13.19-7.77,19.42-12.18l20.19-14.31-5-8.64a243.58,243.58,0,0,0-42.81,39.53,5.18,5.18,0,0,0-.78,6.06,5,5,0,0,0,5.64,2.3c3.3-1.11,5.72-3.25,8.31-5.49l8.45-7.33,16.52-14.35-7.85-6.06c-3.21,5.43-8.29,9.68-12.7,14.1l-15.16,15.16a5,5,0,0,0-.39,6.56c1.39,1.75,4.44,2.82,6.45,1.29,4.33-3.31,8.21-7.05,12.22-10.73,3.52-3.24,7.31-6.56,11.78-8.43l-3.86-9.14q-12.27,9-24.82,17.57a5.13,5.13,0,0,0-1.79,6.84c1.29,2.2,4.6,3.33,6.84,1.79q12.54-8.6,24.82-17.56c2-1.47,3.12-3.82,2-6.25-.9-2-3.57-3.87-5.9-2.89a51.94,51.94,0,0,0-14.44,9.41c-4,3.55-7.69,7.5-11.95,10.75l6.06,7.86,15.86-15.87c4.82-4.82,10.06-9.49,13.57-15.41,3-5.07-3.69-9.68-7.86-6.06l-15.06,13.07-7.34,6.38c-1.88,1.63-4,4.33-6.46,5.15l4.86,8.35a233.37,233.37,0,0,1,40.79-38c2.18-1.58,3.25-4.35,1.79-6.84-1.27-2.18-4.62-3.37-6.84-1.8l-19.38,13.74c-3.19,2.26-6.38,4.53-9.58,6.78a41.57,41.57,0,0,1-8.26,5l6.15,6.15c.22-.81.19-.9-.09-.25a13.9,13.9,0,0,1,1-1c.61-.6,1.26-1.17,1.9-1.75q2.23-2,4.56-3.92c3-2.46,6.13-4.75,9.35-6.91a133.73,133.73,0,0,1,21.14-11.48l-5-8.63q-22.4,10.83-45.42,20.32c-2.49,1-4.27,3.32-3.49,6.15.65,2.36,3.64,4.53,6.15,3.49Z" transform="translate(-818.61 -224.8)"/><path class="cls-4" d="M981.85,264.4a49,49,0,0,0-23.56-27.27c-12.32-6.59-26.78-8.44-40.57-7.18-24,2.2-47.48,13.38-63.25,31.86-9,10.56-14.93,23-19.49,36.07-1.09,3.11-2.1,6.24-3.08,9.39-1.15,3.72-1.37,7.77,2.62,9.83,2.94,1.52,7.11,1.06,10.33,1.08q6.07,0,12.14-.4a156.76,156.76,0,0,0,42.32-9c13.13-4.81,25.48-11.41,38.16-17.24a155.23,155.23,0,0,1,20.81-8c6.54-1.91,14.13-2.43,19.79-6.53,3.28-2.37,6-5.75,5.84-10-.17-3.59-2.7-6.52-5.77-8.14s-6.84-2.39-10.31-3.3l-12.93-3.43,1.19,9.13q6-3.5,12.15-6.55c4.74-2.33,2.07-9.07-2.53-9.31-15.38-.83-29.5,6.1-44.36,8.77l5.65,7.34c1.86-2.68,5.4-4,8.31-5.25,4-1.71,7.71-3.36,11.13-6.09,1.71-1.36,1.81-4.3.79-6.06a5.16,5.16,0,0,0-5.65-2.3q-18.8,4.26-37.17,10.09l6.15,6.15c.45-1.12,2.17-1.94,3.14-2.48,1.89-1.05,3.88-1.94,5.82-2.88q6.65-3.19,13.36-6.29c2.23-1,3-4.16,2-6.24-1.07-2.44-3.36-3.31-5.89-2.9-17.38,2.8-33.4,10.48-49.12,18l5.05,8.64a95,95,0,0,1,17.2-10.61c6.14-2.93,12.61-4.73,18-9.06,3.29-2.65.82-7.08-2.21-8.36-6.28-2.65-13.64.6-19.56,2.9a125.53,125.53,0,0,0-17.77,8.43,97,97,0,0,0-29.1,25.7c-1.47,2-.51,5.1,1.29,6.45a5.07,5.07,0,0,0,6.56-.39,208.92,208.92,0,0,1,34.81-24.11c5.66-3.14.66-11.56-5-8.64a119.29,119.29,0,0,0-50.46,49.63c-2.63,4.92,3.75,10.19,7.86,6.06,13.37-13.45,27.19-26.84,44.65-34.84l-5-8.63a149.7,149.7,0,0,0-27.19,20.93,136.38,136.38,0,0,0-11.29,12.38c-3.79,4.73-7.14,10.08-6.8,16.39.24,4.64,5.15,6.18,8.53,3.53l36.06-28.17c4.5-3.52-1.3-10.79-6.06-7.85a161.55,161.55,0,0,0-34.07,28.09c-4.35,4.72,2.43,11.58,7.07,7.07a50.24,50.24,0,0,1,24.91-13.18l-4.87-8.36a153.51,153.51,0,0,1-19.37,17.38c-5.08,3.81-.84,11.55,5.05,8.64q21.63-10.74,43.65-20.69l-5-8.63a112.77,112.77,0,0,0-26.1,17.19c-3.91,3.43.28,9.51,4.87,8.36,7.35-1.85,14.28-5.58,21.18-8.66l21.11-9.44-5-8.64-21.48,14.6a5.12,5.12,0,0,0-1.8,6.84c1.5,2.57,4.35,2.86,6.84,1.8q29.15-12.45,57.11-27.4c4.45-2.38,2.32-9.32-2.52-9.32-9.61,0-18.61,3.18-27.48,6.57-5.91,2.26-3.72,11.18,2.66,9.64q24-5.77,47.5-13.5c5.11-1.68,4.57-10.14-1.33-9.82-17.29.94-33.16,7.67-48.82,14.5l5,8.63L969,267.4c4.33-2.14,2.38-9.77-2.53-9.32-16.09,1.46-29.69,10-42.79,18.76-5.38,3.61-.76,11.41,5,8.63a215.79,215.79,0,0,0,33.81-20.17c2.63-1.91,3.39-5.33,1-7.85-6.3-6.69-16.1.81-22,4.42a202.35,202.35,0,0,0-20.84,14.9l7.07,7.07c5.22-5.46,11.53-9.44,18-13.25,3.26-1.91,6.54-3.77,9.75-5.75,3.57-2.2,7.36-4.71,7.2-9.42-.11-3.06-3.14-5.91-6.33-4.82-16.67,5.7-30.33,17.19-44.2,27.65l6.06,7.85c10.57-13.67,28.49-18.46,40.81-30.22,3.43-3.27-.09-10.22-4.86-8.36-19.47,7.57-35.53,20.84-51.3,34.2l7.85,6.06c2.88-6.65,10.55-10.58,16.16-14.62l22-15.86c2-1.46,3.11-3.82,2-6.24a5,5,0,0,0-5.9-2.9c-13.71,4.65-25.4,13-36.91,21.55l6.06,7.85a151.15,151.15,0,0,1,19.55-13.95c6.56-3.94,14.33-6.72,18.77-13.31,2.32-3.44-1.59-8.92-5.65-7.34a158.45,158.45,0,0,0-43.66,25.55c-2.08,1.72-1.78,5.29,0,7.07,2.08,2.08,5,1.7,7.07,0,14.1-11.33,31-18.5,45.18-29.78,3.92-3.13-.32-9.91-4.87-8.36a199.54,199.54,0,0,0-20,8.07c-2.23,1.05-3,4.16-2.05,6.25a5.07,5.07,0,0,0,5.9,2.89,164.39,164.39,0,0,0,19.74-5.23c4.31-1.43,4.66-6.6,1.19-9.13a49.11,49.11,0,0,0-8.15-4.88c-3.07-1.44-6.34-3-9.81-2.69s-6.64,2.47-9.45,4.43a63.14,63.14,0,0,0-7.8,6.43c-3.64,3.53.11,9.59,4.87,8.36a231.63,231.63,0,0,0,22.7-7.17c6-2.22,3.71-11.14-2.66-9.64a81.8,81.8,0,0,0-32,15.86,88.75,88.75,0,0,0-12.6,12.22c-4.39,5.2-8.43,10.92-5.3,17.85,1.14,2.53,4.66,3,6.84,1.8a176.93,176.93,0,0,0,17.18-10.47c5-3.45,11.33-7.17,12.72-13.55a5.07,5.07,0,0,0-7.35-5.65c-17.43,8.87-29,25.48-38.51,42A5.09,5.09,0,0,0,887.9,302c2.56,1.49,5.21.36,6.84-1.8a122.9,122.9,0,0,1,18.32-19.35c6.23-5.32,15-9.76,15.37-19,.16-3.83-4.36-6.19-7.53-4.32l-6.1,3.6c-5.53,3.27-.51,11.92,5.05,8.64l6.1-3.61-7.52-4.31c-.11,2.6-3.4,4.74-5.29,6.2-3.35,2.57-6.65,5.18-9.78,8a135.57,135.57,0,0,0-17.25,19.06l8.63,5.05c8.74-15.08,19-30.25,34.93-38.37l-7.35-5.65c-.39,1.82-1.75,2.9-3.18,4-2.33,1.82-4.8,3.49-7.26,5.13q-7.2,4.82-14.86,8.89l6.84,1.8c.22.47-.09.34.13-.18.15-.34.21-.68.37-1a13.85,13.85,0,0,1,1.73-2.69,74.82,74.82,0,0,1,5-5.71,80.08,80.08,0,0,1,10.66-9.5,72.05,72.05,0,0,1,26-12.14l-2.66-9.64a228.07,228.07,0,0,1-22.7,7.16l4.86,8.36a47.65,47.65,0,0,1,5.42-4.61c1.4-1,3.86-3.25,5.62-3.41,1.59-.15,4.09,1.48,5.45,2.18a49.84,49.84,0,0,1,6.6,4.11l1.2-9.14A163.89,163.89,0,0,1,931.8,245l3.85,9.14a172.34,172.34,0,0,1,17.6-7.07l-4.86-8.36c-14.15,11.28-31.06,18.43-45.18,29.79l7.07,7.07a143.63,143.63,0,0,1,39.25-23l-5.65-7.35c-1.71,2.55-4.77,3.95-7.4,5.35-3.43,1.83-6.8,3.74-10.09,5.79a168.28,168.28,0,0,0-19.26,14.1c-4.29,3.62,1.48,11.25,6.06,7.86,10.73-8,21.73-16.21,34.52-20.55l-3.85-9.14-23.59,17c-6.54,4.71-14.8,9.32-18.14,17.05-2.23,5.16,3.33,9.89,7.85,6.06,14.35-12.15,29.15-24.73,46.89-31.63L952,248.81c-12.35,11.78-30.13,16.41-40.81,30.22-1.52,2-2.07,4.45-.39,6.56,1.4,1.77,4.43,2.81,6.45,1.29,13-9.83,26.13-21.27,41.8-26.64l-6.32-4.82c-.07-1.78,1.22-1.08-.12-.55a14.8,14.8,0,0,0-2.12,1.34c-1.43.88-2.87,1.73-4.32,2.58-3,1.77-6,3.5-9,5.32a80.26,80.26,0,0,0-16.43,12.66c-4.54,4.75,2.16,11.05,7.07,7.07a183.65,183.65,0,0,1,15.77-11.41q4.17-2.69,8.48-5.15a33.43,33.43,0,0,1,3.75-2.08c.43-.18,1.07-.24,1.46-.45-.17.09-.82-.25-.81-.23l1-7.86a215,215,0,0,1-33.8,20.18l5,8.63c11.4-7.66,23.67-16.11,37.75-17.39l-2.52-9.32L923.4,278.71c-2.43,1.19-3.09,4.62-1.8,6.84,1.5,2.55,4.36,2.87,6.84,1.79,13.95-6.07,28.39-12.29,43.78-13.13l-1.33-9.82q-23.46,7.71-47.5,13.5l2.66,9.64c8-3.06,16.15-6.21,24.82-6.21L948.35,272q-27.95,14.94-57.11,27.4l5,8.64,21.49-14.6c5.4-3.67.78-11.24-5-8.64l-20.21,9c-6.42,2.87-12.84,6.33-19.69,8.06l4.86,8.35a104,104,0,0,1,24.07-15.63c2.44-1.15,3.07-4.65,1.8-6.84-1.48-2.53-4.37-2.91-6.84-1.79q-22,9.94-43.66,20.68l5.05,8.64a169.62,169.62,0,0,0,21.4-18.94c3.53-3.74,0-9.38-4.87-8.36a59.84,59.84,0,0,0-29.32,15.75l7.07,7.07a151.69,151.69,0,0,1,32-26.53l-6.06-7.85-36.06,28.17,8.54,3.54c-.25-4.6,3-8.31,5.78-11.63a143,143,0,0,1,10.62-11.26,137.87,137.87,0,0,1,23.93-18.18,5.1,5.1,0,0,0,1.8-6.84c-1.48-2.52-4.38-2.92-6.85-1.79-18.16,8.31-32.76,22.4-46.67,36.4l7.85,6.06a110,110,0,0,1,46.86-46l-5-8.64a222.28,222.28,0,0,0-36.84,25.68l7.85,6.06A84.7,84.7,0,0,1,885,256.27,107.5,107.5,0,0,1,899.55,249c2.72-1.1,5.47-2.11,8.26-3,2.57-.83,4.89-1.57,7.47-.49l-2.2-8.35c-4.72,3.79-11.38,5.25-16.76,7.88a95.56,95.56,0,0,0-16.41,10.22c-5,3.87-.89,11.5,5.05,8.64,15-7.23,30.15-14.38,46.72-17.05l-3.85-9.14q-8,3.7-15.93,7.54c-4.83,2.35-8.92,4.9-11,10.09-1.42,3.56,2.77,7.22,6.15,6.15q18.36-5.82,37.17-10.08l-4.87-8.36c-3.06,2.44-7.17,3.62-10.69,5.21a24,24,0,0,0-10.32,8.16c-2.73,3.93,1.76,8,5.65,7.34,13.94-2.51,27.29-9.19,41.7-8.41l-2.52-9.32q-6.2,3-12.14,6.55c-3.68,2.16-3,8,1.19,9.14,6,1.59,12,3.16,18,4.78a19.18,19.18,0,0,1,2.26.66c.31.13,1.77,1.13,1.49.76-.4-.55.23-.36-.34-.28-.39.05-2.36,1.8-2.83,2-4.38,2.18-9.7,2.61-14.37,3.94a137.77,137.77,0,0,0-15.63,5.59c-10.41,4.36-20.43,9.55-30.69,14.27a162.12,162.12,0,0,1-32.77,11.27,142.16,142.16,0,0,1-19.46,2.94c-3.41.27-6.84.42-10.26.46-1.56,0-3.12,0-4.68,0-.78,0-1.55,0-2.33-.06-.47,0-.94,0-1.4-.06-1.4-.16-1.26,0,.41.48l1.28,2.21c.44,1.83.34.06.61-.79s.53-1.72.8-2.57c.46-1.43.92-2.85,1.4-4.27,1.14-3.41,2.36-6.78,3.71-10.11a98.12,98.12,0,0,1,8.85-17.09,77.7,77.7,0,0,1,23.13-22.62c19.3-12.35,45.16-18,67.27-10.35,11.37,3.92,21.61,12.51,25.5,24.14,2,6.07,11.69,3.46,9.64-2.66Z" transform="translate(-818.61 -224.8)"/><path class="cls-4" d="M983.61,259.42c-5.25-12.16-16.61-21-29.1-25.38s-26-4.88-39.24-3.9c-9.25.68-18.5,2.07-27.24,5.15-16.8,5.94-31,18.07-41.06,32.8s-16,32-19,49.51a224.51,224.51,0,0,0,65.76-9.28" transform="translate(-818.61 -224.8)"/><path class="cls-5" d="M987.93,256.9c-12.87-28.29-46.72-34-74.51-31.61-15.08,1.28-29.75,4.76-42.69,12.85a96,96,0,0,0-29.5,29.58c-9.43,14.65-15.05,31.48-18.08,48.55-.56,3.16,1.33,6.32,4.82,6.33a235.73,235.73,0,0,0,67.09-9.46c6.17-1.8,3.54-11.45-2.66-9.64A225.49,225.49,0,0,1,828,312.6l4.82,6.33c5.75-32.37,22.63-65.87,55.1-78.28,16.63-6.35,37.39-7.87,54.87-4.57,15.47,2.92,29.82,11.11,36.54,25.86,2.66,5.85,11.28.78,8.63-5Z" transform="translate(-818.61 -224.8)"/><path class="cls-4" d="M1134.12,415.53c5,1.07,9.91.34,14.87-.57a97.46,97.46,0,0,0,13.56-3.51A103.64,103.64,0,0,0,1188,398.83l-7.52-4.31c0,1.84-1,3.88-1.61,5.63s-1.23,3.67-1.88,5.49a104.83,104.83,0,0,1-4.34,10.66,52.67,52.67,0,0,1-13.56,18.07c-12.15,10.12-28.31,16.06-44,17.44-2.69.24-5,2.13-5,5,0,2.52,2.3,5.24,5,5,18.49-1.64,36.68-8.42,51-20.37a60,60,0,0,0,15.48-20.83c1.94-4.14,3.61-8.4,5.14-12.7s3.69-8.89,3.7-13.39c0-3.59-4.33-6.5-7.53-4.32a94.52,94.52,0,0,1-22.2,11.33,98.37,98.37,0,0,1-11.81,3.28c-3.82.81-8.24,1.91-12.13,1.08-6.28-1.33-9,8.3-2.66,9.64Z" transform="translate(-818.61 -224.8)"/><path class="cls-4" d="M1019.16,245.75c11.64-3.84,24.34-1.64,36.25,1.27A319.72,319.72,0,0,1,1099,261.08c.92.38,2,.93,2.09,1.92a2.84,2.84,0,0,1-.8,1.91,374.09,374.09,0,0,1-24.9,29.48" transform="translate(-818.61 -224.8)"/><path class="cls-5" d="M1020.49,250.57c13-3.94,26.38-.68,39.14,2.68q9.24,2.43,18.32,5.43,5,1.63,9.93,3.45c1.49.54,8.33,2.11,8.92,3.39l-.51-3.85c-.5,2.43-3.6,5-5.16,6.95q-3.17,3.94-6.42,7.81c-4.15,4.92-8.44,9.71-12.83,14.42s2.67,11.79,7.07,7.07q12.36-13.25,23.44-27.57c2.74-3.54,5.54-7.67,1.87-11.74-3.23-3.59-10.24-4.86-14.62-6.45a304.37,304.37,0,0,0-35.6-10.6c-12-2.75-24.27-4.25-36.2-.63-6.15,1.86-3.53,11.51,2.65,9.64Z" transform="translate(-818.61 -224.8)"/><path class="cls-4" d="M1161.92,397.45l27.22-11.11c1.38-.56,3.15-1,4.19,0s.66,2.43.34,3.69c-3.17,12.41-6.51,24.95-12.78,36.12A76.93,76.93,0,0,1,1138,461.32" transform="translate(-818.61 -224.8)"/><path class="cls-5" d="M1163.25,402.27l16.33-6.67,8.17-3.33c.71-.29,2.8-.72,3.27-1.3,1.59-.39.86-1.14-2.17-2.26l-.44,1.69c-1.09,2.11-1.39,5.34-2,7.62-.7,2.53-1.43,5.05-2.23,7.55a101.88,101.88,0,0,1-6,15,72.46,72.46,0,0,1-41.56,35.94c-6.07,2-3.46,11.7,2.66,9.64A83.33,83.33,0,0,0,1190,418.67a155.28,155.28,0,0,0,6.28-18.84c1.3-4.73,4.73-12.1,1-16.51-4.1-4.84-10.22-1.49-14.89.42l-21.78,8.88c-5.88,2.4-3.31,12.08,2.66,9.65Z" transform="translate(-818.61 -224.8)"/><path class="cls-4" d="M1123.65,472.87a55.8,55.8,0,0,0,18.23,6.63,58.65,58.65,0,0,0,9.72.88c3.52,0,7-.48,10.53-.25l-2.52-9.32q-9.72,5.26-19.76,9.91c-6.37,2.94-12.79,5.89-19.7,7.31-13.56,2.81-27.71.22-41.13-2.17-2.45-.43-4.92.46-5.9,2.9a5,5,0,0,0,2.05,6.24c7.69,4.49,16.48,6.15,25.29,6.54a97.7,97.7,0,0,0,27.44-2.37c7.8-1.91,16.31-5.14,21.8-11.27,2.63-2.93,6.09-7.75,4.38-11.85-2.25-5.37-8.9-3.68-13.31-2.78-10,2.05-19.4,6.23-29.48,7.91l2.66,9.64a192.48,192.48,0,0,0,21.18-9.41l-5.05-8.64c-5.58,4.26-11.26,8.5-16,13.72-2.56,2.81-5.23,6.43-2.88,10.3,1.92,3.18,5.76,3.56,9.06,2.8,7.09-1.64,14-4.87,20.79-7.42s13.75-5,20-8.9l-5-8.63A208.12,208.12,0,0,1,1129.68,490c-5.18,2.53-1.51,10.56,3.85,9.14,6.51-1.73,12.19-6.38,17.58-10.22s11.28-7.47,13.81-13.9c1-2.52-1.09-5.49-3.5-6.15-2.83-.78-5.16,1-6.15,3.49-.65,1.65-2.52,3-3.86,4-2.25,1.74-4.57,3.38-6.89,5-4.15,2.92-8.67,6.79-13.65,8.11l3.86,9.14A205.73,205.73,0,0,0,1161,483.27c5.24-3.59.46-12.09-5-8.63-6,3.77-12.71,6.06-19.31,8.54-3.57,1.35-7.12,2.71-10.7,4-1.68.61-3.37,1.21-5.07,1.76-.93.3-1.86.6-2.8.86-2.29.64.67-.6,1.57,1.49l.68,2.52,0-.76-.69,2.52c1.36-2.9,4.79-5.46,7.16-7.53,2.68-2.33,5.48-4.49,8.3-6.64,2.14-1.64,3.27-4.31,1.79-6.84a5.09,5.09,0,0,0-6.84-1.8,169.83,169.83,0,0,1-18.79,8.41,5,5,0,0,0,2.66,9.64,135.11,135.11,0,0,0,17.79-4.72c2.86-.9,5.73-1.77,8.64-2.49,2.56-.64,5.61-1.65,8.27-1.31l-2.52-.69.52.24-1.79-1.79.33.44-.68-2.52s-1,1.76-1.31,2.17a15.77,15.77,0,0,1-2.37,2.46,27.05,27.05,0,0,1-6.5,3.92,59.1,59.1,0,0,1-17.92,4.56c-11.85,1.26-25.59,1.47-36.2-4.72l-3.85,9.14c15,2.66,30.36,5.24,45.54,2.35,7.61-1.45,14.68-4.71,21.68-7.9q10.73-4.89,21.08-10.51c4.62-2.5,2.16-9-2.53-9.32-5.89-.38-11.7.69-17.59-.28a47.32,47.32,0,0,1-15.84-5.61c-5.6-3.19-10.65,5.45-5,8.63Z" transform="translate(-818.61 -224.8)"/><path class="cls-4" d="M1067.6,503.75c8.43,5.35,15.16,12.82,22.74,19.24a72,72,0,0,0,12.31,8.72c4.9,2.64,10.28,4.26,14.93,7.37l-1-7.85c-17,20-51.37,15.42-69-1.3l-6.06,7.86c6.65,4.76,13.68,9.88,21.51,12.5s17,3.06,25.27,3.66c5.54.4,6.92-8.93,1.32-9.82l-30.27-4.85c-2.46-.4-4.9.42-5.9,2.89a5,5,0,0,0,2,6.25,168.7,168.7,0,0,0,17.63,8.32c6.78,2.65,13.23,1.81,20.14.12a116.49,116.49,0,0,0,18.89-5.9c5.74-2.49,10.84-6,11.51-12.66.35-3.55-3.46-5.29-6.33-4.82-9.59,1.57-19.43,3.29-29.17,2.42-9.36-.84-17-6.7-24.66-11.57-5-3.16-9.72,3.76-6.06,7.85a80.63,80.63,0,0,0,26.75,19.63c5.16,2.32,9.88-3.39,6.06-7.86-6.23-7.28-15.28-11.22-21.81-18.16l-6,7.85c8.9,6.54,17.89,13.05,28,17.62,2.91,1.32,6.41.38,7.35-3,1.13-4.06-1.55-7.15-4.07-10a67.2,67.2,0,0,0-6.61-6.35c-4.45-3.86-9.29-7.55-12.55-12.53l-7.85,6.06c10.65,8.39,21.35,16.83,33.19,23.52,5.21,2.94,9.51-3.6,6.06-7.85-7.53-9.26-19.58-14.51-25.44-25.14l-6.84,6.84c10.43,7.27,19,17,30.46,22.83,5.28,2.69,9.56-3.48,6.06-7.85-7-8.76-16.78-14.93-23.42-24l-7.86,6.06a192.1,192.1,0,0,0,26,21.59c4.67,3.23,10.23-4,6.06-7.85L1096.12,520l-6.06,7.85,17.31,10.77c5.48,3.41,10.51-5.24,5.05-8.63l-17.31-10.78c-4.78-3-10.28,4-6.06,7.86l14.83,13.59,6.06-7.85a176.86,176.86,0,0,1-24-20,5,5,0,0,0-6.56-.39c-1.78,1.41-2.78,4.41-1.29,6.45,7.19,9.78,17.45,16.54,25,26l6.06-7.85c-11.4-5.82-20.05-15.57-30.47-22.83-4.3-3-9.1,2.73-6.84,6.84,6.39,11.56,18.87,17.16,27,27.16l6.06-7.85c-11.11-6.28-21.18-14.09-31.17-22-2-1.54-4.46-2.06-6.57-.39a5,5,0,0,0-1.28,6.45c3.12,4.78,7.18,8.62,11.48,12.31,2,1.75,4.1,3.47,6.05,5.32,1.43,1.35,4.35,3.54,4.88,5.52v-2.66l-.19.7,7.34-3c-10.11-4.58-19.09-11.09-28-17.62-4.72-3.47-9.8,3.87-6.06,7.85,6.53,6.95,15.6,10.9,21.81,18.17l6.06-7.86a73.46,73.46,0,0,1-24.72-18.06l-6.06,7.85c4.32,2.74,8.58,5.67,13.1,8.07a42.75,42.75,0,0,0,15.7,4.78c10.87,1.19,22-.94,32.73-2.68l-6.33-4.83c-.08.77-2.08,1.82-2.68,2.16a41.43,41.43,0,0,1-6.55,2.87,152.13,152.13,0,0,1-15.67,4.34,23.68,23.68,0,0,1-7.62.92,21.55,21.55,0,0,1-6.15-1.82c-4.92-2.07-9.73-4.48-14.45-7l-3.86,9.14,30.28,4.85,1.33-9.82c-7.44-.54-15.49-.91-22.61-3.31-6.9-2.32-13.27-7.29-19.12-11.49-4.65-3.33-10.13,4-6.06,7.86,21.31,20.21,62.58,25.56,83.14,1.29a5.09,5.09,0,0,0-1-7.85c-4.54-3-9.77-4.65-14.58-7.18a62.91,62.91,0,0,1-11.85-8.39c-7.75-6.73-14.83-14.23-23.55-19.77-5.45-3.45-10.48,5.2-5.05,8.64Z" transform="translate(-818.61 -224.8)"/><path class="cls-4" d="M1140,463.07c8.65,6.28,21.09,3.56,30.72,8.21a3,3,0,0,1,1.55,1.3c.56,1.27-.67,2.58-1.78,3.43-9.73,7.48-19.52,15-30.4,20.64s-23,9.39-35.3,8.77c-7.76-.4-15.31-2.51-22.78-4.62" transform="translate(-818.61 -224.8)"/><path class="cls-5" d="M1137.44,467.39c4.68,3.11,9.92,4.36,15.43,5.12,3.93.55,13.07.29,15.83,3.6l-1.46-3.53c0,.47-8.06,5.77-8.84,6.35-3.21,2.37-6.46,4.68-9.8,6.87a100.14,100.14,0,0,1-20.32,10.65,60.06,60.06,0,0,1-21.77,4c-7.94-.16-15.62-2.37-23.21-4.5-6.2-1.75-8.85,7.9-2.65,9.64,13.1,3.68,25.76,6.2,39.33,3.57,13-2.52,25.08-8.9,36-16.29,5.59-3.8,11-7.9,16.31-12,3.93-3,7.52-8.3,2.88-12.62-3.71-3.45-10.21-4.17-15-4.82-6.14-.84-12.37-1.17-17.67-4.7s-10.39,5.09-5,8.64Z" transform="translate(-818.61 -224.8)"/><path class="cls-4" d="M1091.86,503.72a135.35,135.35,0,0,0,38.69,32.18c-11.59,9.49-23.83,19.3-38.53,22.16-19.78,3.85-39.74-5.73-56-17.58" transform="translate(-818.61 -224.8)"/><path class="cls-5" d="M1088.33,507.25a143,143,0,0,0,39.69,33l-1-7.85c-12.33,10.09-25.93,21-42.62,21.53-16.93.5-32.54-8.16-45.89-17.73-5.23-3.76-10.23,4.91-5,8.63,15.14,10.87,33.44,20.26,52.63,19,18.9-1.22,33.89-12.84,48-24.38,2.51-2.05,1.58-6.4-1-7.85a135.57,135.57,0,0,1-37.67-31.41c-4.13-4.94-11.17,2.16-7.07,7.07Z" transform="translate(-818.61 -224.8)"/><path class="cls-4" d="M907.78,245.21c-8.28,1.87-15.34,8.59-21.15,14.44A107.61,107.61,0,0,0,870.88,280c-2.92,4.85,3.87,10.15,7.86,6.06a290.18,290.18,0,0,1,31.85-28.32l-6.06-7.86c-10.89,9.32-20.06,20.38-28.34,32-3.34,4.7,3.93,10,7.85,6.06a257.08,257.08,0,0,1,30.83-26.44c2.18-1.58,3.26-4.35,1.8-6.84-1.29-2.2-4.61-3.33-6.84-1.79C902.4,258,896.05,264.29,890.09,271c-6.35,7.15-12.47,14.5-18.45,22l7.07,7.07c9.35-12,22.85-19.38,34.74-28.54,2.13-1.65,3.28-4.3,1.79-6.85a5.07,5.07,0,0,0-6.84-1.79,121,121,0,0,0-32.47,29.75c-3.08,4.07,2.84,9.4,6.84,6.84A130.22,130.22,0,0,1,897.42,291a41.82,41.82,0,0,1,7.1-2.57,5.43,5.43,0,0,1,3.33-.16c.07,0,.08.19.14.23-.1-.06-.12-1.1-.28.21-.35,2.68,2.54,5,5,5,3,0,4.65-2.31,5-5,.55-4.33-2.66-8.34-6.55-9.82s-8-.61-11.83.66c-7.78,2.6-14.74,6.91-21.6,11.3l6.84,6.84a107.59,107.59,0,0,1,28.88-26.16l-5.05-8.64c-12.52,9.65-26.91,17.43-36.76,30.11-1.66,2.13-2.08,5,0,7.07,1.75,1.75,5.37,2.12,7.07,0,5.8-7.23,11.73-14.35,17.86-21.3,5.55-6.29,11.36-12.48,18.3-17.26l-5-8.63a273.22,273.22,0,0,0-32.86,28l7.86,6.06a164.33,164.33,0,0,1,26.77-30c4.26-3.64-1.52-11.31-6.06-7.85a307.18,307.18,0,0,0-33.87,29.89l7.85,6.06a96.62,96.62,0,0,1,13.57-17.67c4.72-4.82,10.54-10.94,17.35-12.48,6.27-1.42,3.62-11.06-2.66-9.64Z" transform="translate(-818.61 -224.8)"/></svg>