<svg id="torso_back" xmlns="http://www.w3.org/2000/svg" viewBox="0 0 250.22 238.97"><defs><style>.cls-1,.cls-3{fill:#7194ff;}.cls-1{stroke:#111433;}.cls-1,.cls-2{stroke-miterlimit:10;stroke-width:10px;}.cls-2{fill:#c6947d;stroke:#2d2721;}.cls-4{fill:#111433;}</style></defs><title>torso_back</title><path class="cls-1" d="M1054.5,616.85h-20.94a12,12,0,0,1-12-12V568.42a12,12,0,0,1,12-12l10.47,2.51c6.6,0,19.06,16.05,19.06,22.65l3.41,23.27A12,12,0,0,1,1054.5,616.85Z" transform="translate(-838.57 -503.46)"/><rect class="cls-2" x="83.29" y="5" width="39.61" height="67.34" rx="12"/><path class="cls-1" d="M1044,633.19l-8-71.34c0-6.6-32-19.72-38.63-19.72l-57.13,5.15c-5,0-31.24,5-43.94,10.26L862.74,575.8c-6.6,0-19.17,45.39-19.17,45.39a12,12,0,0,0,12,12h35.81l1.13,39.63c-.4,28.85,18.12,64.61,24.72,64.61l165.9-52.62C1089.73,684.81,1044,639.79,1044,633.19Z" transform="translate(-838.57 -503.46)"/><path class="cls-3" d="M892.48,631.34c2.27,0,4.55,0,6.82,0a2.67,2.67,0,0,0,1.8-.46,2.72,2.72,0,0,0,.5-2.41q-1.64-15-3.28-29.92" transform="translate(-838.57 -503.46)"/><path class="cls-4" d="M892.48,635.34c7.45,0,13.73.41,12.92-8.76-.83-9.36-2-18.71-3.08-28.05-.55-5.07-8.56-5.12-8,0l2.16,19.64c.23,2.15-.2,7.67,1,9.35-.12,1.47.48,1.41,1.8-.2l-1.7,0c-1.49-.38-3.61,0-5.12,0-5.15,0-5.15,8,0,8Z" transform="translate(-838.57 -503.46)"/></svg>