<svg id="Layer_21" data-name="Layer 21" xmlns="http://www.w3.org/2000/svg" viewBox="0 0 471.99 525.98"><defs><style>.cls-1,.cls-2,.cls-3{fill:#d3d3d3;}.cls-1{stroke:#8e8e8e;}.cls-1,.cls-2,.cls-3,.cls-4{stroke-miterlimit:10;stroke-width:10px;}.cls-2{stroke:#474747;}.cls-3,.cls-4{stroke:#56564e;}.cls-4{fill:none;}</style></defs><title>armpanel4</title><path class="cls-1" d="M990.28,1261.17c-18.36,6.13-36.63,12.5-54.42,20q-2.37-5.9-4.69-11.82c-6.12-15.69-12.25-31.44-19.26-46.76q-4-13.26-8.6-26.32a65.37,65.37,0,0,1,6.63-7.71A1016.43,1016.43,0,0,1,1157.41,873c25-30.37,67.8-36.4,95.7-13.47l6.39,5.25a60.46,60.46,0,0,1,13,14.81c2.14,3.44,9.69,15.57,9.5,30.64-.34,26.22-23.91,44.8-26.65,46.9-41.28,40.2-90.33,89.85-132.8,148.81-37,51.41-70.61,98.15-96.69,141.85Z" transform="translate(-897.03 -761.76)"/><path class="cls-2" d="M989.3,1261.16c-18.37,6.14-36.64,12.51-54.44,20q-2.37-5.9-4.69-11.82c-6.12-15.69-12.25-31.44-19.27-46.77q-3.93-13-8.44-25.88a1136.56,1136.56,0,0,1,189.41-263.76,161.62,161.62,0,0,0,99.59,90.25c-29,30.55-57.28,68-88.46,111.82-27.8,39.09-53.57,76.16-71.86,110.45Z" transform="translate(-897.03 -761.76)"/><path class="cls-2" d="M1062.46,965.72a174.89,174.89,0,0,0,99.3,90.89" transform="translate(-897.03 -761.76)"/><path class="cls-3" d="M1145.53,976.12c17.06,21.15,27.12,30.43,33.71,33.56,15.71,7.49,36.36,4.05,77-3.13,19.7-3.48,38.14-7.76,58.79-15.32,26.33-9.64,35.4-17.06,41.29-26.1s10.93-23.66,5.12-30.25c-3.2-3.63-9-4-30.41,0-36.76,6.85-51.91,14-55.25,9.16-3.07-4.44,5.92-15.9,10.7-21,10.62-11.38,20.48-13,31.26-19.37,17.75-10.53,26.22-27.07,31.08-36.55,10.45-20.42,21.26-61.36.3-84.59-16-17.74-42.52-16.3-66.11-15-43.32,2.35-76.41,24.88-89.63,34.12-2,1.41-3.85,2.74-5.49,4,0,0-4.12,3.1-8,6.36-10.64,9-43.62,62.64-58.36,85.19-8.54,13.06-10.5,15-11.28,20.62C1109.08,926.41,1113.72,936.69,1145.53,976.12Z" transform="translate(-897.03 -761.76)"/><path class="cls-3" d="M1090.27,924.29c-2,5-1.56,10.89,7.35,27.46,5.73,10.66,10.45,19.45,20.57,31.5,13.58,16.18,26.4,25.74,35.34,32.32,18.21,13.4,27.56,20.07,39.53,18.9,10.19-1,23.13-7,24.56-14.71,1.59-8.56-12.26-12.56-31.89-28.2-17.5-13.95-39.59-37.15-56.51-60.8-7.08-9.9-13.46-20.17-23-19.41C1099.49,911.89,1092.78,917.88,1090.27,924.29Z" transform="translate(-897.03 -761.76)"/><line class="cls-4" x1="309.91" y1="246.88" x2="279.48" y2="271.18"/><line class="cls-4" x1="282.97" y1="231.07" x2="257.3" y2="253.57"/><line class="cls-4" x1="256.52" y1="206.06" x2="231.51" y2="226.42"/><path class="cls-4" d="M1133.52,938.7l-27.65,28.91" transform="translate(-897.03 -761.76)"/><path class="cls-4" d="M1120.05,918.63l-28.62,23" transform="translate(-897.03 -761.76)"/></svg>