<svg id="Layer_14" data-name="Layer 14" xmlns="http://www.w3.org/2000/svg" viewBox="0 0 691.18 329.91"><defs><style>.cls-1,.cls-2,.cls-3{fill:#d3d3d3;}.cls-1{stroke:#474747;stroke-width:10px;}.cls-1,.cls-2{stroke-miterlimit:10;}.cls-2{stroke:#56564e;stroke-width:7px;}.cls-4{fill:#474747;}</style></defs><title>arms</title><path class="cls-1" d="M231.18,824c-40,6.89-74.86,53-81.56,86.85-5.06,25.56,12,53.36,19.3,63.43,55.44,76.8,136.58,75.71,218.41,86.48.7-8.6,2.24-15.63,2.71-23.61.27-4.73,1.46-9.18.42-14-17.58-2.25-53.54-6.24-67.8-9-42.6-8.37-73.25-13.24-103.52-42.86-13.29-13-25-25.89-24.85-49.55.16-30.47,30.76-60,60.64-67.63a46.87,46.87,0,0,0-6.52-13.52C243.48,833.65,238.44,827,231.18,824Z" transform="translate(-143.7 -737.46)"/><path class="cls-2" d="M231.92,838.72c2.24,3.87,8.3,12.53,10.53,13.65,9.49,4.74,16,2,24.79,5.35,2.64,1,8.74,3.57,10.34,5.67,3,4,17.25,7.15,18.7,7.09,7.23-.31,4.78-10.59,4.68-11.68-1-10.77-10.53-13-10.79-22.89-.31-11.92,12.72-17.58,16.76-29.28,3.59-10.43,4.1-21.47.88-33.83-3-11.68-8.91-28.15-22.57-31.56-9.26-2.32-18.15,10.35-21.14,15.26-9.31,15.3-11.43,32.67-21.52,44.89-5.74,7-7.82,6.56-14.88,10.1-1.48.74-4.17,0-5.3,2.51-.13.29-.37-.19-.54,1.34C221,823.43,228,832,231.92,838.72Z" transform="translate(-143.7 -737.46)"/><path class="cls-2" d="M215.45,818.89c-1.5,2.85-.54,6.67,1.14,10.74a109,109,0,0,0,5.86,12.24c2.56,4.09,9,11.07,11.54,13.57,5.14,5.07,9.67,9.17,15.24,10,4.75.71,10.37,1.63,11.26-3.74,1-6-6.4-7.8-11.5-13.47-4.55-5.06-13.73-17-17.65-24.81-1.64-3.27-3.69-8.25-8.16-8.43C220,814.87,217.36,815.27,215.45,818.89Z" transform="translate(-143.7 -737.46)"/><path class="cls-2" d="M257.77,857.39,243,864.14" transform="translate(-143.7 -737.46)"/><path class="cls-2" d="M247.71,849.69l-12.59,6.44" transform="translate(-143.7 -737.46)"/><path class="cls-2" d="M238.61,838.67l-12.16,5.72" transform="translate(-143.7 -737.46)"/><path class="cls-2" d="M232.53,826.6q-7,4.33-14,8.69" transform="translate(-143.7 -737.46)"/><path class="cls-2" d="M228.48,818.31l-13.91,6.46" transform="translate(-143.7 -737.46)"/><path class="cls-3" d="M207.94,834.48l7.14,18.86c1.61,4.23,3.62,8.9,7.81,10.61" transform="translate(-143.7 -737.46)"/><path class="cls-4" d="M203.11,835.81c2.55,6.71,5,13.48,7.65,20.14,2,5.06,4.55,9.78,9.6,12.32,5.74,2.88,10.81-5.75,5-8.64-4.08-2-5.3-7.07-6.81-11l-5.84-15.43c-2.26-6-11.93-3.37-9.65,2.66Z" transform="translate(-143.7 -737.46)"/><path class="cls-1" d="M747.39,825c40,6.89,74.87,53,81.57,86.85,5,25.56-12,53.36-19.31,63.43-55.44,76.8-136.57,75.71-218.4,86.48-.71-8.6-2.24-15.63-2.71-23.61-.28-4.73-1.46-9.18-.42-14,17.57-2.25,53.54-6.24,67.79-9,42.6-8.37,73.26-13.24,103.52-42.86,13.3-13,25-25.89,24.85-49.55-.15-30.47-30.75-60-60.64-67.63a47.13,47.13,0,0,1,6.52-13.52C735.09,834.65,740.13,828,747.39,825Z" transform="translate(-143.7 -737.46)"/><path class="cls-2" d="M746.66,839.72c-2.25,3.87-8.3,12.53-10.54,13.65-9.49,4.74-16,2-24.78,5.35-2.64,1-8.75,3.57-10.34,5.67-3,4-17.26,7.15-18.7,7.09-7.23-.31-4.79-10.59-4.68-11.68,1-10.77,10.52-13,10.78-22.89.31-11.92-12.71-17.58-16.75-29.28-3.6-10.43-4.1-21.47-.88-33.83,3-11.68,8.91-28.15,22.56-31.56,9.26-2.32,18.15,10.35,21.14,15.26,9.32,15.3,11.43,32.67,21.53,44.89,5.74,7,7.82,6.56,14.88,10.1,1.48.74,4.16,0,5.29,2.51.13.29.37-.19.55,1.34C757.63,824.43,750.57,833,746.66,839.72Z" transform="translate(-143.7 -737.46)"/><path class="cls-2" d="M763.13,819.89c1.49,2.85.53,6.67-1.15,10.74a108.8,108.8,0,0,1-5.85,12.24c-2.57,4.09-9,11.07-11.55,13.57-5.14,5.07-9.66,9.17-15.24,10-4.74.71-10.37,1.63-11.25-3.74-1-6,6.4-7.8,11.5-13.47,4.55-5.06,13.73-17,17.65-24.81,1.64-3.27,3.69-8.25,8.16-8.43C758.58,815.87,761.22,816.27,763.13,819.89Z" transform="translate(-143.7 -737.46)"/><path class="cls-2" d="M720.8,858.39l14.75,6.75" transform="translate(-143.7 -737.46)"/><path class="cls-2" d="M730.86,850.69l12.6,6.44" transform="translate(-143.7 -737.46)"/><path class="cls-2" d="M740,839.67l12.15,5.72" transform="translate(-143.7 -737.46)"/><path class="cls-2" d="M746.05,827.6l14,8.69" transform="translate(-143.7 -737.46)"/><path class="cls-2" d="M750.1,819.31l13.9,6.46" transform="translate(-143.7 -737.46)"/><path class="cls-3" d="M773.38,837.77a145.87,145.87,0,0,1-18.53,26.77" transform="translate(-143.7 -737.46)"/><path class="cls-4" d="M769.07,835.25A148.63,148.63,0,0,1,751.32,861c-4.18,4.86,2.86,12,7.07,7.07A161.24,161.24,0,0,0,777.7,840.3c3.09-5.65-5.54-10.7-8.63-5Z" transform="translate(-143.7 -737.46)"/></svg>