<svg xmlns="http://www.w3.org/2000/svg" xmlns:xlink="http://www.w3.org/1999/xlink" viewBox="0 0 1920 1106.55"><defs><style>.cls-1{fill:url(#linear-gradient);}.cls-2{fill:url(#linear-gradient-2);}.cls-3{fill:url(#linear-gradient-3);}.cls-4{fill:url(#linear-gradient-4);}.cls-11,.cls-12,.cls-5,.cls-6,.cls-7{fill:none;}.cls-5{stroke:#42585e;}.cls-10,.cls-11,.cls-12,.cls-5,.cls-6,.cls-7,.cls-8{stroke-miterlimit:10;}.cls-5,.cls-6{stroke-width:4px;}.cls-6,.cls-7{stroke:#4087a0;}.cls-7{stroke-width:6px;}.cls-8,.cls-9{fill:#b3c1c6;}.cls-8{stroke:#6b7d82;}.cls-10,.cls-11,.cls-12,.cls-8{stroke-width:10px;}.cls-10{fill:#c1272d;}.cls-10,.cls-11{stroke:#7a2323;}.cls-12{stroke:#000;}</style><linearGradient id="linear-gradient" x1="961" y1="276.5" x2="1920" y2="276.5" gradientUnits="userSpaceOnUse"><stop offset="0" stop-color="#b0d3e2"/><stop offset="0.08" stop-color="#b0d3e2"/><stop offset="1" stop-color="#b0d3e2"/></linearGradient><linearGradient id="linear-gradient-2" y1="278.5" x2="968" y2="278.5" gradientUnits="userSpaceOnUse"><stop offset="0.17" stop-color="#72797c"/><stop offset="0.41" stop-color="#86969d"/><stop offset="0.81" stop-color="#a4c2cf"/><stop offset="1" stop-color="#b0d3e2"/></linearGradient><linearGradient id="linear-gradient-3" y1="819.5" x2="968" y2="819.5" gradientUnits="userSpaceOnUse"><stop offset="0.2" stop-color="#72797c"/><stop offset="0.28" stop-color="#798488"/><stop offset="0.77" stop-color="#a1bdc9"/><stop offset="1" stop-color="#b0d3e2"/></linearGradient><linearGradient id="linear-gradient-4" y1="819.5" y2="819.5" xlink:href="#linear-gradient"/></defs><title>background</title><g id="Rbg"><rect class="cls-1" x="961" y="6" width="959" height="541"/></g><g id="Lbg"><rect class="cls-2" y="8" width="968" height="541"/></g><g id="Layer_11" data-name="Layer 11"><rect class="cls-3" y="549" width="968" height="541"/></g><g id="Layer_15" data-name="Layer 15"><rect class="cls-4" x="961" y="549" width="959" height="541"/></g><g id="Layer_23" data-name="Layer 23"><circle class="cls-5" cx="54.2" cy="898.36" r="5.99"/><circle class="cls-5" cx="54.19" cy="938.16" r="5.99"/><circle class="cls-5" cx="54.2" cy="976.8" r="5.99"/><circle class="cls-5" cx="54.2" cy="1015.06" r="5.99"/><circle class="cls-5" cx="54.2" cy="1053.32" r="5.99"/><circle class="cls-5" cx="54.19" cy="1091.56" r="5.99"/><line class="cls-5" x1="41" y1="885.22" x2="41" y2="1091.93"/><line class="cls-5" x1="67.27" y1="1091.93" x2="67.27" y2="884.45"/><line class="cls-5" x1="75" y1="885.22" x2="75" y2="1091.93"/><circle class="cls-5" cx="54.2" cy="705.36" r="5.99"/><circle class="cls-5" cx="54.19" cy="745.16" r="5.99"/><circle class="cls-5" cx="54.2" cy="783.8" r="5.99"/><circle class="cls-5" cx="54.2" cy="822.06" r="5.99"/><circle class="cls-5" cx="54.2" cy="860.32" r="5.99"/><circle class="cls-5" cx="54.19" cy="898.56" r="5.99"/><line class="cls-5" x1="41" y1="692.22" x2="41" y2="898.93"/><line class="cls-5" x1="67.27" y1="898.93" x2="67.27" y2="691.45"/><line class="cls-5" x1="75" y1="692.22" x2="75" y2="898.93"/><circle class="cls-5" cx="54.19" cy="552.16" r="5.99"/><circle class="cls-5" cx="54.2" cy="590.8" r="5.99"/><circle class="cls-5" cx="54.2" cy="629.06" r="5.99"/><circle class="cls-5" cx="54.2" cy="667.32" r="5.99"/><circle class="cls-5" cx="54.19" cy="705.56" r="5.99"/><path class="cls-5" d="M41,539V698.93" transform="translate(0 7)"/><path class="cls-5" d="M67.27,698.93C67,648,67,596,67.27,545" transform="translate(0 7)"/><path class="cls-5" d="M75,544.78V698.93" transform="translate(0 7)"/><circle class="cls-6" cx="908.8" cy="896.36" r="5.99"/><circle class="cls-6" cx="908.81" cy="936.16" r="5.99"/><circle class="cls-6" cx="908.8" cy="974.8" r="5.99"/><circle class="cls-6" cx="908.8" cy="1013.06" r="5.99"/><circle class="cls-6" cx="908.8" cy="1051.32" r="5.99"/><circle class="cls-6" cx="908.81" cy="1089.56" r="5.99"/><line class="cls-6" x1="922" y1="883.22" x2="922" y2="1089.93"/><line class="cls-6" x1="895.73" y1="1089.93" x2="895.73" y2="882.45"/><line class="cls-6" x1="888" y1="883.22" x2="888" y2="1089.93"/><circle class="cls-6" cx="908.8" cy="703.36" r="5.99"/><circle class="cls-6" cx="908.81" cy="743.16" r="5.99"/><circle class="cls-6" cx="908.8" cy="781.8" r="5.99"/><circle class="cls-6" cx="908.8" cy="820.06" r="5.99"/><circle class="cls-6" cx="908.8" cy="858.32" r="5.99"/><circle class="cls-6" cx="908.81" cy="896.56" r="5.99"/><line class="cls-6" x1="922" y1="690.22" x2="922" y2="896.93"/><line class="cls-6" x1="895.73" y1="896.93" x2="895.73" y2="689.45"/><line class="cls-6" x1="888" y1="690.22" x2="888" y2="896.93"/><circle class="cls-6" cx="908.81" cy="550.16" r="5.99"/><circle class="cls-6" cx="908.8" cy="588.8" r="5.99"/><circle class="cls-6" cx="908.8" cy="627.06" r="5.99"/><circle class="cls-6" cx="908.8" cy="665.32" r="5.99"/><circle class="cls-6" cx="908.81" cy="703.56" r="5.99"/><path class="cls-6" d="M922,537V696.93" transform="translate(0 7)"/><path class="cls-6" d="M895.73,696.93C896,646,896,594,895.73,543" transform="translate(0 7)"/><path class="cls-6" d="M888,542.78V696.93" transform="translate(0 7)"/></g><g id="Layer_18" data-name="Layer 18"><path class="cls-7" d="M1269.93,541.59c-1.56.32-3.1.65-4.65,1a4.63,4.63,0,0,1-3.37.82l-1.91.48v456.55L1694,1070V609.55Z" transform="translate(0 7)"/><circle class="cls-7" cx="1660.5" cy="696.5" r="15.5"/><circle class="cls-7" cx="1660.5" cy="804.5" r="15.5"/><circle class="cls-7" cx="1660.5" cy="909.5" r="15.5"/><circle class="cls-7" cx="1660.5" cy="1018.5" r="15.5"/><circle class="cls-7" cx="1596.76" cy="637.6" r="15.5"/><circle class="cls-7" cx="1475.74" cy="616.6" r="15.5"/><circle class="cls-7" cx="1344.72" cy="596.6" r="15.5"/><path class="cls-7" d="M1290.23,649.86c5.58-5.63,10.8-11.61,16.22-17.39A15.49,15.49,0,1,0,1289,651.78,5.14,5.14,0,0,1,1290.23,649.86Z" transform="translate(0 7)"/><circle class="cls-7" cx="1291.5" cy="751.5" r="15.5"/><circle class="cls-7" cx="1291.5" cy="856.5" r="15.5"/><circle class="cls-7" cx="1291.5" cy="965.5" r="15.5"/><circle class="cls-7" cx="1600.76" cy="1036.6" r="15.5"/><circle class="cls-7" cx="1479.74" cy="1015.6" r="15.5"/><circle class="cls-7" cx="1348.72" cy="995.6" r="15.5"/></g><g id="Layer_16" data-name="Layer 16"><polygon class="cls-8" points="1625 1007 1326 957 1326 626 1625 676 1625 1007"/><line class="cls-8" x1="1625" y1="676" x2="1590" y2="708"/><path class="cls-9" d="M1326,634.74c-3.34.13-7.33-.3-10.42,1.17-2.91,1.39-4.71,4.35-3.76,7.6s4.59,4.56,7.4,5.73a42.53,42.53,0,0,0,10.09,2.83c2.66.41,5.37-.67,6.15-3.49a5.08,5.08,0,0,0-3.49-6.15l-5.91-1.74c-6.18-1.83-8.82,7.82-2.66,9.64l5.91,1.74,2.66-9.64a41.71,41.71,0,0,1-6.72-1.55c-1.48-.49-4.18-1.2-5.07-2.24l1.28,2.21-.11-.51V643l.14-.46-1.29,2.2c-.28.1-.56.18-.84.25l2.21-.08,4.43-.17c6.42-.24,6.45-10.24,0-10Z" transform="translate(0 7)"/><path class="cls-9" d="M1309.64,650.79h39.17c6.43,0,6.44-10,0-10h-39.17c-6.43,0-6.44,10,0,10Z" transform="translate(0 7)"/><path class="cls-9" d="M1326,626.44a31.12,31.12,0,0,0-5.43,8.06c-1.09,2.37-.76,5.49,1.79,6.84,2.19,1.16,5.68.75,6.84-1.79a26,26,0,0,1,1.91-3.52l.52-.78c.05-.07.6-.81.31-.44s.29-.35.35-.41c.25-.3.51-.6.78-.89,1.76-1.93,2-5.18,0-7.07s-5.19-2.06-7.07,0Z" transform="translate(0 7)"/><path class="cls-9" d="M1320.17,642.61c6.43,0,6.44-10,0-10s-6.45,10,0,10Z" transform="translate(0 7)"/><path class="cls-9" d="M1326.6,627.93H1326a5,5,0,0,0-5,5,5,5,0,0,0,1.47,3.54,5.16,5.16,0,0,0,3.53,1.46h.59a5,5,0,0,0,5-5,5.07,5.07,0,0,0-1.47-3.53,5.19,5.19,0,0,0-3.53-1.47Z" transform="translate(0 7)"/><path class="cls-9" d="M1319.43,629.28l-2.35,4.09a5,5,0,1,0,8.63,5l2.35-4.08a5,5,0,0,0-8.63-5.05Z" transform="translate(0 7)"/><path class="cls-9" d="M1326.51,634a6.89,6.89,0,0,0-1.48,2.53,4.77,4.77,0,0,0-.12,2.36,6.18,6.18,0,0,0,1.79,3.63,6.62,6.62,0,0,0,3,1.69,6.17,6.17,0,0,0,3,0,6,6,0,0,0,2.54-1.48,5,5,0,0,0-3.54-8.54l-1.33.18a5,5,0,0,0-2.2,1.29l-.08.06,1-.78-.16.1,1.19-.51a.58.58,0,0,1-.17.06l1.32-.18H1331l1.33.18a1.34,1.34,0,0,1-.27-.07l1.2.5a1.86,1.86,0,0,1-.34-.19l1,.78a2.57,2.57,0,0,1-.29-.28l.79,1a1.68,1.68,0,0,1-.2-.34l.5,1.19a1.19,1.19,0,0,1-.07-.27l.17,1.33a2.53,2.53,0,0,1,0-.27l-.18,1.33a.84.84,0,0,1,0-.17l-.5,1.19a.7.7,0,0,1,.09-.17l-.78,1,.07-.08a5.37,5.37,0,0,0,1.46-3.54,5,5,0,0,0-5-5,4.89,4.89,0,0,0-3.53,1.47Z" transform="translate(0 7)"/><path class="cls-9" d="M1333,642.61c6.43,0,6.44-10,0-10s-6.45,10,0,10Z" transform="translate(0 7)"/><path class="cls-9" d="M1317.64,631.54l-2.34,1.17a5.06,5.06,0,0,0-2.29,3,5.12,5.12,0,0,0,.5,3.85,5,5,0,0,0,3,2.3,5.49,5.49,0,0,0,3.85-.51l2.34-1.17a5.05,5.05,0,0,0,2.3-3,5,5,0,0,0-3.49-6.15,5.51,5.51,0,0,0-3.86.5Z" transform="translate(0 7)"/><path class="cls-9" d="M1310.08,648.21a245.49,245.49,0,0,0,32.28,5.65c6.39.69,6.34-9.32,0-10a225.48,225.48,0,0,1-29.62-5.29c-6.24-1.54-8.91,8.1-2.66,9.64Z" transform="translate(0 7)"/><path class="cls-9" d="M1304.39,649.41c5.74-1.44,12.3-2.27,17.73-4.6a8.88,8.88,0,0,0,4.53-4,12.08,12.08,0,0,0,1.07-3l.2-1.33c.66-1.49.11-1.93-1.67-1.3,6.27,1.35,9-8.29,2.65-9.64-5.43-1.16-9.45,2.37-10.52,7.63-.17.83,0,1.91-.61,2.59s-4.6,1.16-5.35,1.35l-10.69,2.69c-6.23,1.57-3.59,11.22,2.66,9.64Z" transform="translate(0 7)"/><path class="cls-9" d="M1607.06,978.83a106.46,106.46,0,0,1-6.93,20.38l9.32,2.52a28.33,28.33,0,0,1,4.16-11.77l-9.14-3.86a98.87,98.87,0,0,1-6.57,22.09L1607,1012a21,21,0,0,1,5.86-11.82l-8.35-4.86a64.84,64.84,0,0,1-6.34,11.88c-3.1,4.65,4.28,10.52,7.85,6,3.39-4.23,7.15-11.11,12.08-13.61l-7.35-5.64a16.15,16.15,0,0,1-3.06,7.15l7.85,1c-1.37-1.9,2.25-7.5,2.15-10.15a9.39,9.39,0,0,0-4-7.33,7.68,7.68,0,0,0-7.94-.61c-2.69,1.38-3.43,4.24-5,6.53l9.31,2.52a42.63,42.63,0,0,1,1.15-12.93l-9.82-1.33a92.58,92.58,0,0,1-4.31,22.06h9.64a61.53,61.53,0,0,1-1-16.48c.44-6.55-9.2-6.2-10,0l-3.56,27.78,9.82-1.33a129.19,129.19,0,0,1-2.09-21.41c-.11-6.43-10-6.45-10,0l-.1,28c0,6.44,10,6.45,10,0l.1-28h-10a145.08,145.08,0,0,0,2.45,24.07c1.12,6,9.17,3.74,9.82-1.33l3.56-27.78h-10a71.07,71.07,0,0,0,1.36,19.14c1,5.11,8.23,4.39,9.64,0a103.92,103.92,0,0,0,4.67-24.72c.39-5.65-8.48-6.75-9.82-1.33a52.15,52.15,0,0,0-1.51,15.59c.3,5.14,6.45,6.56,9.32,2.52a7.52,7.52,0,0,0,1.22-2q2-3.31-3.56.69a11.65,11.65,0,0,0-1.58,4.06,10.53,10.53,0,0,0,1.45,8.85c1.66,2.32,5.66,3.77,7.85,1a26.63,26.63,0,0,0,5.63-11.58,5.06,5.06,0,0,0-7.34-5.64c-6,3-10,10.05-14.1,15.17l7.85,6.06a76.33,76.33,0,0,0,7.35-14.26c1.91-4.81-5.07-8.21-8.36-4.87a30.06,30.06,0,0,0-8.44,16.23c-.85,5.08,6.69,9.48,9.14,3.86a109.39,109.39,0,0,0,7.59-24.48c1-5.38-6.06-9-9.14-3.85a40,40,0,0,0-5.53,16.82c-.54,4.86,7.29,6.91,9.31,2.52a118.31,118.31,0,0,0,7.94-22.76c1.47-6.26-8.17-8.93-9.64-2.66Z" transform="translate(0 7)"/></g><g id="Layer_17" data-name="Layer 17"><polygon class="cls-8" points="1590 1038 1291 988 1291 657 1590 707 1590 1038"/><line class="cls-8" x1="1627" y1="1008" x2="1592" y2="1040"/><line class="cls-8" x1="1324" y1="624" x2="1289" y2="656"/></g><g id="Layer_19" data-name="Layer 19"><path class="cls-10" d="M1451,890a63.22,63.22,0,0,0-1.74-122.12c-9.15-.08-18.32-.45-27.48-.66a63,63,0,0,0-10.42,120.57Z" transform="translate(0 7)"/><path class="cls-11" d="M1415,769h39" transform="translate(0 7)"/><path class="cls-11" d="M1418,890h33" transform="translate(0 7)"/></g><g id="Layer_22" data-name="Layer 22"><circle class="cls-7" cx="1042.17" cy="588.01" r="15.5"/><circle class="cls-7" cx="1042.14" cy="691.02" r="15.5"/><circle class="cls-7" cx="1042.17" cy="791.04" r="15.5"/><circle class="cls-7" cx="1042.17" cy="890.05" r="15.5"/><circle class="cls-7" cx="1042.17" cy="989.07" r="15.5"/><circle class="cls-7" cx="1042.14" cy="1088.04" r="15.5"/><line class="cls-7" x1="1008" y1="554" x2="1008" y2="1089"/><line class="cls-7" x1="1076" y1="1089" x2="1076" y2="552"/><line class="cls-7" x1="1096" y1="554" x2="1096" y2="1089"/></g><g id="Layer_1" data-name="Layer 1"><line class="cls-12" y1="548" x2="1920" y2="548"/><line class="cls-12" x1="968" x2="968" y2="1087"/></g></svg>