<svg xmlns="http://www.w3.org/2000/svg" viewBox="0 0 400.52 427.76"><defs><style>.cls-1,.cls-2{fill:#c6947d;}.cls-1,.cls-6{stroke:#000;}.cls-1,.cls-10,.cls-11,.cls-2,.cls-5,.cls-6,.cls-8{stroke-miterlimit:10;}.cls-1,.cls-10,.cls-5,.cls-6{stroke-width:7.42px;}.cls-2{stroke:#2d2721;}.cls-11,.cls-2,.cls-8{stroke-width:10px;}.cls-3{fill:#915c47;}.cls-4{fill:#281708;}.cls-10,.cls-5,.cls-6{fill:none;}.cls-5{stroke:#332111;}.cls-5,.cls-6{stroke-linecap:round;}.cls-7,.cls-8{fill:#704636;}.cls-10,.cls-8{stroke:#2d1c0c;}.cls-9{fill:#2d1c0c;}.cls-11{fill:#d3d3d3;stroke:#474747;}</style></defs><title>character</title><g id="Layer_9" data-name="Layer 9"><path class="cls-1" d="M499.36,989.41c-6.52.34-16,.3-22.47-.07-5.58-.33-8.72-3.17-8.88-9-.26-9.57-.19-22.18.18-31.75.23-5.8,3.4-8.62,9-8.93,6.51-.36,15.94-.37,22.46,0,5.58.32,8.71,3.17,8.89,9,.28,9.58.19,22.25-.18,31.83C508.12,986.3,505,989.12,499.36,989.41Z" transform="translate(-279.6 -657.3)"/><path class="cls-2" d="M624.07,842.18c-.23,71.72-73.77,110.28-137.77,110.3s-135.48-39-135.62-110.25,72.46-110,136-110.31S624.31,770.45,624.07,842.18Z" transform="translate(-279.6 -657.3)"/><path class="cls-3" d="M468.52,844.12a1.12,1.12,0,0,0,0-2.23,1.12,1.12,0,0,0,0,2.23Z" transform="translate(-279.6 -657.3)"/><path class="cls-3" d="M462.61,876.61a1.12,1.12,0,0,0,0-2.23,1.12,1.12,0,0,0,0,2.23Z" transform="translate(-279.6 -657.3)"/><path class="cls-3" d="M410.35,882.21a1.11,1.11,0,0,0,0-2.22,1.11,1.11,0,0,0,0,2.22Z" transform="translate(-279.6 -657.3)"/><path class="cls-3" d="M449.24,857.59a1.11,1.11,0,0,0,0-2.22,1.11,1.11,0,0,0,0,2.22Z" transform="translate(-279.6 -657.3)"/><path class="cls-3" d="M483.1,861.16a1.12,1.12,0,0,0,0-2.23,1.12,1.12,0,0,0,0,2.23Z" transform="translate(-279.6 -657.3)"/><path class="cls-3" d="M485.06,844.92a1.11,1.11,0,0,0,0-2.22,1.11,1.11,0,0,0,0,2.22Z" transform="translate(-279.6 -657.3)"/><path class="cls-3" d="M470.4,856.49h.39a1.11,1.11,0,0,0,0-2.22h-.39a1.11,1.11,0,0,0,0,2.22Z" transform="translate(-279.6 -657.3)"/><path class="cls-3" d="M490.77,872.4h.39a1.12,1.12,0,0,0,0-2.23h-.39a1.12,1.12,0,0,0,0,2.23Z" transform="translate(-279.6 -657.3)"/><path class="cls-3" d="M504,849.2a1.12,1.12,0,0,0,0-2.23,1.12,1.12,0,0,0,0,2.23Z" transform="translate(-279.6 -657.3)"/><path class="cls-3" d="M532.1,872.45a1.11,1.11,0,0,0,0-2.22,1.11,1.11,0,0,0,0,2.22Z" transform="translate(-279.6 -657.3)"/><path class="cls-3" d="M567.27,871.71a1.11,1.11,0,0,0,0-2.22,1.11,1.11,0,0,0,0,2.22Z" transform="translate(-279.6 -657.3)"/><path class="cls-3" d="M572,839.57a1.11,1.11,0,0,0,0-2.22,1.11,1.11,0,0,0,0,2.22Z" transform="translate(-279.6 -657.3)"/><path class="cls-3" d="M515.89,863.53a1.12,1.12,0,0,0,0-2.23,1.12,1.12,0,0,0,0,2.23Z" transform="translate(-279.6 -657.3)"/><path class="cls-3" d="M413.84,865.52a1.11,1.11,0,0,0,0-2.22,1.11,1.11,0,0,0,0,2.22Z" transform="translate(-279.6 -657.3)"/><path class="cls-3" d="M382.12,894.22a1.11,1.11,0,0,0,0-2.22,1.11,1.11,0,0,0,0,2.22Z" transform="translate(-279.6 -657.3)"/><path class="cls-3" d="M455.74,865.36a1.12,1.12,0,0,0,0-2.23,1.12,1.12,0,0,0,0,2.23Z" transform="translate(-279.6 -657.3)"/><path class="cls-3" d="M446.77,882a1.12,1.12,0,0,0,0-2.23,1.12,1.12,0,0,0,0,2.23Z" transform="translate(-279.6 -657.3)"/><path class="cls-3" d="M471.51,868.49a1.11,1.11,0,0,0,0-2.22,1.11,1.11,0,0,0,0,2.22Z" transform="translate(-279.6 -657.3)"/><path class="cls-3" d="M457.76,842.93a1.11,1.11,0,0,0,0-2.22,1.11,1.11,0,0,0,0,2.22Z" transform="translate(-279.6 -657.3)"/><path class="cls-3" d="M466.22,825.2a1.12,1.12,0,0,0,0-2.23,1.12,1.12,0,0,0,0,2.23Z" transform="translate(-279.6 -657.3)"/><path class="cls-3" d="M497.36,815.17a1.12,1.12,0,0,0,0-2.23,1.12,1.12,0,0,0,0,2.23Z" transform="translate(-279.6 -657.3)"/><path class="cls-3" d="M484.94,801.25a1.12,1.12,0,0,0,0-2.23,1.12,1.12,0,0,0,0,2.23Z" transform="translate(-279.6 -657.3)"/><path class="cls-3" d="M495.86,838.36a1.11,1.11,0,0,0,0-2.22,1.11,1.11,0,0,0,0,2.22Z" transform="translate(-279.6 -657.3)"/><path class="cls-3" d="M481.22,836a1.12,1.12,0,0,0,0-2.23,1.12,1.12,0,0,0,0,2.23Z" transform="translate(-279.6 -657.3)"/><path class="cls-3" d="M478.5,852.26a1.12,1.12,0,0,0,0-2.23,1.12,1.12,0,0,0,0,2.23Z" transform="translate(-279.6 -657.3)"/><path class="cls-3" d="M496.22,858.47a1.11,1.11,0,0,0,0-2.22,1.11,1.11,0,0,0,0,2.22Z" transform="translate(-279.6 -657.3)"/><path class="cls-3" d="M508.87,888.69a1.12,1.12,0,0,0,0-2.23,1.12,1.12,0,0,0,0,2.23Z" transform="translate(-279.6 -657.3)"/><path class="cls-3" d="M538.23,892.6a1.12,1.12,0,0,0,0-2.23,1.12,1.12,0,0,0,0,2.23Z" transform="translate(-279.6 -657.3)"/><path class="cls-3" d="M537.16,845.75a1.12,1.12,0,0,0,0-2.23,1.12,1.12,0,0,0,0,2.23Z" transform="translate(-279.6 -657.3)"/><path class="cls-3" d="M574.18,894.56a1.11,1.11,0,0,0,0-2.22,1.11,1.11,0,0,0,0,2.22Z" transform="translate(-279.6 -657.3)"/><path class="cls-3" d="M535.08,913.51a1.12,1.12,0,0,0,0-2.23,1.12,1.12,0,0,0,0,2.23Z" transform="translate(-279.6 -657.3)"/><path class="cls-3" d="M505.44,872.42a1.12,1.12,0,0,0,0-2.23,1.12,1.12,0,0,0,0,2.23Z" transform="translate(-279.6 -657.3)"/><path class="cls-3" d="M520.16,837.22a1.11,1.11,0,0,0,0-2.22,1.11,1.11,0,0,0,0,2.22Z" transform="translate(-279.6 -657.3)"/><path class="cls-3" d="M430,853.31l.38.39a1.11,1.11,0,0,0,1.57-1.57l-.38-.39a1.11,1.11,0,0,0-1.57,1.57Z" transform="translate(-279.6 -657.3)"/><path class="cls-3" d="M430.66,876.87a1.12,1.12,0,0,0,0-2.23,1.12,1.12,0,0,0,0,2.23Z" transform="translate(-279.6 -657.3)"/><path class="cls-3" d="M443,871.49a1.11,1.11,0,0,0,0-2.22,1.11,1.11,0,0,0,0,2.22Z" transform="translate(-279.6 -657.3)"/><path class="cls-3" d="M597.42,874.82a1.12,1.12,0,0,0,0-2.23,1.12,1.12,0,0,0,0,2.23Z" transform="translate(-279.6 -657.3)"/><path class="cls-3" d="M390.94,862a1.11,1.11,0,0,0,0-2.22,1.11,1.11,0,0,0,0,2.22Z" transform="translate(-279.6 -657.3)"/><path class="cls-4" d="M423.77,855.2c0,4.93-.3,19.95-7.43,19.92s-7.35-15-7.35-20,.34-19.79,7.5-19.79S423.8,850.27,423.77,855.2Z" transform="translate(-279.6 -657.3)"/><path class="cls-4" d="M548.64,856.65c0,5-.25,20-7.45,20s-7.37-15-7.36-20,.23-20,7.43-20S548.65,851.67,548.64,856.65Z" transform="translate(-279.6 -657.3)"/><path class="cls-5" d="M452.65,916.61c14.56,4.16,28.87,5.74,43.9,2.71,15.29-3.07,28.08-10,40.07-19.74" transform="translate(-279.6 -657.3)"/><path class="cls-6" d="M515.76,845.47l62.94-15" transform="translate(-279.6 -657.3)"/><path class="cls-6" d="M448.09,844.35c-20.9-5.05-41.81-10.05-62.76-14.86" transform="translate(-279.6 -657.3)"/><path class="cls-7" d="M310.54,842.62c-11.31,5.58-7.17,20.76-3.91,30.06,1.26,3.6,7.27,3.32,7-.95-.44-7.93-5.39-14.08-6.88-21.7-.9-4.61-7.52-2.54-6.91,1.9a130.85,130.85,0,0,0,3,14.81c.87,3.38,2,6.14,5.1,7.94,2.49,1.42,6.47-1,5.27-4a29.7,29.7,0,0,0-4.56-8c-2.19-2.74-7.26.22-6,3.49a23.32,23.32,0,0,0,5,8.38l2.53-6.12c-4.32.11-8.17.66-12,2.71-3.4,1.82-1.46,6.36,1.81,6.68a69,69,0,0,0,7.47.27c4.72-.07,4.48-6.67,0-7.17a15.89,15.89,0,0,0-10.66,2.45c-3.94,2.42-.47,8.32,3.61,6.19l3.11-.24c4,1.2,6.12-4.42,2.76-6.55-3.79-2.41-7.31-2.28-10.89.46a3.68,3.68,0,0,0-.72,5.63c2.48,3.19,5.9,3.67,8.71.65a3.63,3.63,0,0,0-2.53-6.12c-2.3-.15-4.58,0-6.88,0-4.37,0-4.44,5.57-1,7l2.74,1.18.86-6.55-3.15-.52c-3.4-1.55-7.69,2.77-4.34,5.63,4.63,3.94,9,8.15,13.72,12a3.58,3.58,0,0,0,5.06-5.06c-2.21-2.75-4.21-5.17-7.25-7-3.4-2.07-7.49,2.93-4.34,5.63s5.77,6,8.79,8.94c2.83,2.73,8-.86,5.63-4.34-3.12-4.63-5.74-9.2-10.39-12.47-3.29-2.32-7.51,3.06-4.34,5.63,4.4,3.56,8,8,12.22,11.69,3,2.6,7.76-.67,5.62-4.34-3.18-5.46-6.33-10.6-11.42-14.48-3.39-2.58-6.88,2.76-4.34,5.63,4.65,5.26,9.11,10.67,14.26,15.46a3.6,3.6,0,0,0,5.62-4.35c-4.06-7.86-8.64-15.78-16.24-20.7-2.91-1.88-7,2-4.9,4.9,5.5,7.73,11.37,14.69,18.95,20.47,3.06,2.33,6.43-2,4.9-4.9a86.67,86.67,0,0,0-16.61-22.34c-2.83-2.71-8,.85-5.63,4.34,6.31,9.31,13.27,17.71,22.36,24.43,2.95,2.18,6.72-2,4.91-4.9-5.14-8.16-11.59-15.33-17.5-22.91-2.47-3.18-8,1-5.62,4.34a171.58,171.58,0,0,0,22.43,25.36c2.93,2.75,7.69-.74,5.63-4.35A86.36,86.36,0,0,0,310.47,873c-3.51-2.89-8.29,1.64-5.07,5.07,4.49,4.78,9.05,9.5,13.82,14,3.79,3.59,7.28,8.07,12.92,6.86,2.91-.62,3.12-4,1.59-6a100.43,100.43,0,0,0-20.9-19.75c-3.29-2.34-7.45,3-4.34,5.63q7.65,6.5,15.15,13.15c3.77,3.35,7.42,7.83,12.65,8.63,3.65.57,5.76-3.09,3.48-6-6-7.64-12.36-15-19-22-3.16-3.38-8.18,1.68-5.06,5.06a324.67,324.67,0,0,0,23.36,22.68c3,2.67,7.64-.68,5.63-4.34-4.76-8.66-11-16.19-17.85-23.27-3.22-3.33-8.17,1.68-5.06,5.07q10.39,11.36,21.88,21.6c2.91,2.6,7.89-.73,5.63-4.34a170.86,170.86,0,0,0-17-22.74c-3.1-3.5-7.93,1.55-5.06,5.06a248.44,248.44,0,0,0,19.65,21.13c3,2.88,7.5-.75,5.63-4.34-4.7-9-10-17.69-15.44-26.24l-6.18,3.62c5.17,7.75,10.43,15.46,15.57,23.23,2.58,3.92,8.06.55,6.19-3.61a145,145,0,0,0-13.13-23.34c-2.6-3.75-8.75-.27-6.19,3.62a276.69,276.69,0,0,1,14.89,25.39c1.85,3.58,7.83,1.11,6.55-2.76a255.15,255.15,0,0,0-13.12-31.79l-6.19,3.62c5.37,10.77,11,21.43,16.3,32.23,1.8,3.65,7.72,1.09,6.55-2.77C355,884.59,351,874.12,346.9,863.67L340,865.58c4.71,11.47,9.63,22.84,15.46,33.79,1.93,3.62,7.6,1.12,6.55-2.76-3.42-12.68-8.42-24.79-13.93-36.68-1.69-3.67-7.87-1.08-6.55,2.76a260.65,260.65,0,0,0,17.81,39.22c1.94,3.59,7.64,1.14,6.55-2.76-4-14.41-10-28.11-16.16-41.71-1.67-3.69-7.82-1.08-6.55,2.76,4.6,13.82,11,26.87,17.9,39.67,1.88,3.5,8,1.1,6.54-2.76a207.72,207.72,0,0,0-12.49-27c-2.21-4.1-8.18-.49-6.19,3.62A341.8,341.8,0,0,0,369,910.38c2.49,3.86,8.49.42,6.19-3.62-5.51-9.68-11.1-19.31-17-28.75L352,881.62A379.6,379.6,0,0,0,388,928c3.21,3.48,7.82-1.53,5.06-5.06-4.66-6-11.74-10.4-17.73-14.91-6.15-4.63-13.95-9.19-18.71-15.37-2.73-3.55-8.86-.26-6.18,3.62,8.12,11.77,20,20.35,30.56,29.72,3.43,3,8.3-1.72,5.06-5.06-5.43-5.63-9.61-12.33-15-18-2.73-2.88-8.11,1-5.62,4.34,5.86,7.79,10,17.29,17.56,23.72L388,926c-2.26-1.77-4.75-3.22-7-5-2.92-2.33-8,.64-5.62,4.34,3,4.56,9,5.42,14,4.65L385,925.55c-.29,1.46-1,2.3.42,1a19.41,19.41,0,0,1-2.27,1.39l5.26,2.14a196.27,196.27,0,0,0-6.57-19c-1.69-4.16-8.06-2.7-6.91,1.9,1.62,6.5,3.3,13,5.15,19.4,1.27,4.43,8.15,2.56,6.91-1.9a175.7,175.7,0,0,0-8.59-24.3c-1.64-3.72-7.78-1.08-6.55,2.76a55.55,55.55,0,0,0,8.47,16.77c2.73,3.61,8.37.58,6.19-3.61A102.84,102.84,0,0,0,376.24,906c-2.49-3.2-7.84,1-5.62,4.34,1.27,1.94,2.56,3.88,3.8,5.84l3.09-5.39c-6.16-.13-12.06,1.79-18.06,2.92a143.72,143.72,0,0,1-21.82,2.13l2.54,6.12a40,40,0,0,0,13-20.76c.52-2-1.06-4.85-3.46-4.54-9,1.18-20.24,3-29.14.45-4.14-1.17-9-4.15-11.54-7.72-3.2-4.51-.38-9.42,4.37-11,6.94-2.37,15.65.51,21.8,3.83,8.42,4.53,15.24,11.57,21.71,18.48l3.49-6c-9.74-3-12.29,13.17-14.74,19.35l6.91,1.9c1.46-6.69,2.83-13.41,4.06-20.15.83-4.51-5.44-6.33-6.91-1.91a218.53,218.53,0,0,0-6.2,22.93c-1,4.6,5.21,6.11,6.91,1.9,2.95-7.28,5.55-14.67,8.13-22.09l-6.91-1.9c-1.51,6.93-3.06,13.85-4.76,20.74-1,4.11,4.23,6,6.55,2.76A68.05,68.05,0,0,0,363.17,897c1.27-4.45-5.59-6.32-6.91-1.91-1.85,6.14-3.46,12.33-4.75,18.61-.77,3.79,4.55,6.54,6.55,2.76q4.44-8.36,8.89-16.71L360.4,897c-1.69,5.73-3.45,11.44-5,17.2-1.1,4,4.41,6.17,6.55,2.76a115.56,115.56,0,0,0,6.4-11.72l-6.55-2.76a84.15,84.15,0,0,0-3,11.69c-.57,3.18,3.43,6.47,6,3.49a53.93,53.93,0,0,0,6.92-10.38l-6.55-2.76a45.25,45.25,0,0,0-1.58,10.07,3.61,3.61,0,0,0,5.39,3.1l3.91-2.47-4.91-1.28c.68.93,1.34,1.86,2,2.8,2.65,3.72,8.87.15,6.19-3.62l-2-2.8a3.64,3.64,0,0,0-4.9-1.28l-3.9,2.46,5.39,3.09A36.29,36.29,0,0,1,372,906.4c1.07-3.84-4.63-6.43-6.55-2.76a46.27,46.27,0,0,1-5.8,8.92l6,3.49a84.29,84.29,0,0,1,3-11.7c1.25-3.8-4.79-6.45-6.55-2.76a112.6,112.6,0,0,1-6.4,11.72l6.55,2.76c1.6-5.75,3.36-11.46,5.05-17.19,1.13-3.86-4.62-6.39-6.55-2.77q-4.45,8.35-8.89,16.72l6.55,2.76c1.29-6.29,2.9-12.47,4.75-18.61l-6.91-1.91a62.51,62.51,0,0,1-9.05,19.52l6.55,2.76c1.7-6.89,3.25-13.82,4.76-20.75a3.59,3.59,0,0,0-6.91-1.9c-2.58,7.41-5.18,14.81-8.13,22.09l6.91,1.9a221.51,221.51,0,0,1,6.2-22.92l-6.91-1.91Q347.82,904,345.62,914c-1,4.59,5.23,6.13,6.91,1.9.59-1.48,5-14.61,5.92-14.34,3.54,1.09,5.85-3.47,3.49-6-8.42-9-17.52-17.89-29.23-22.34-8.88-3.37-20.57-4.84-28.19,2.1-3.88,3.53-4.92,8.84-3.52,13.84s6,8.64,10.2,11.44c10.78,7.13,26.4,4.78,38.47,3.2l-3.45-4.54a33.32,33.32,0,0,1-11.12,17.6c-2.34,2-.47,6.22,2.53,6.11a166.54,166.54,0,0,0,20.08-1.75c6.56-1,13.13-3.43,19.8-3.3a3.61,3.61,0,0,0,3.1-5.39c-1.25-2-2.53-3.89-3.81-5.83l-5.62,4.34a93.63,93.63,0,0,1,9.18,14.64l6.19-3.61A50,50,0,0,1,378.8,907l-6.55,2.77a162.22,162.22,0,0,1,7.87,22.58l6.91-1.9c-1.85-6.43-3.53-12.91-5.15-19.4L375,913a199,199,0,0,1,6.57,19c.62,2.1,3.3,3.47,5.27,2.14,3.08-2.07,4.37-2.83,5.15-6.66.58-2.87-1.65-4.83-4.41-4.41-1.44.23-5,.12-6-1.35L376,926c2.25,1.8,4.74,3.23,7,5,3.54,2.78,8.63-2,5.06-5.06-7-6-10.93-15-16.44-22.28L366,908c5.38,5.67,9.56,12.38,15,18L386,921c-10.07-8.91-21.72-17.1-29.44-28.28l-6.18,3.62c10,13.05,27.45,18.8,37.56,31.72L393,923a369.11,369.11,0,0,1-34.88-45c-2.55-3.8-8.66-.33-6.19,3.61,5.92,9.44,11.51,19.08,17,28.76l6.19-3.62a341.8,341.8,0,0,1-20.05-36.61l-6.19,3.62A194.15,194.15,0,0,1,360.7,899l6.55-2.76c-6.61-12.26-12.76-24.71-17.17-38l-6.55,2.76c5.92,13.05,11.56,26.19,15.44,40l6.55-2.76c-6.58-12.11-12.59-24.47-17.09-37.52l-6.55,2.76a218.83,218.83,0,0,1,13.21,35l6.55-2.76a352,352,0,0,1-14.74-32.08c-1.72-4.18-8.61-2.43-6.91,1.91,4.08,10.45,8.09,20.92,11.37,31.66l6.55-2.76c-5.33-10.8-10.94-21.45-16.3-32.23-2.06-4.14-8.2-.51-6.19,3.62A241.7,241.7,0,0,1,347.82,896l6.55-2.77a278,278,0,0,0-14.89-25.39l-6.19,3.62a144.9,144.9,0,0,1,13.13,23.33l6.19-3.61c-5.15-7.78-10.4-15.49-15.58-23.24-2.54-3.81-8.69-.29-6.18,3.62,5.48,8.54,10.73,17.23,15.43,26.23l5.62-4.34a253.17,253.17,0,0,1-19.65-21.12l-5.06,5.06a160.33,160.33,0,0,1,15.91,21.3l5.63-4.35q-11.48-10.26-21.89-21.6l-5.06,5.07c6.44,6.65,12.25,13.67,16.72,21.81l5.63-4.34c-8.12-7.22-16-14.68-23.37-22.67l-5.06,5.06c6.64,7.08,13,14.4,19,22l3.49-6c-4.62-.71-8.95-6.33-12.34-9.32q-6.09-5.37-12.29-10.62l-4.35,5.63A94.35,94.35,0,0,1,328.66,898l1.58-6c-1.22.26-5.07-4.19-6-5q-2.26-2.16-4.48-4.36c-3.18-3.16-6.27-6.4-9.33-9.66L305.4,878a80.93,80.93,0,0,1,19.15,22.42l5.63-4.34a163,163,0,0,1-21.32-23.91l-5.62,4.34c5.53,7.11,11.55,13.82,16.37,21.47l4.9-4.91c-8.05-6-14.21-13.63-19.79-21.86l-5.63,4.34a80.9,80.9,0,0,1,15.5,20.9l4.9-4.91c-6.55-5-11.64-11.23-16.38-17.9l-4.91,4.91c6.48,4.19,10.23,11.46,13.68,18.13l5.62-4.34c-5.14-4.79-9.61-10.19-14.25-15.46l-4.35,5.63c4,3,6.38,7.67,8.86,11.91l5.62-4.34c-4.25-3.73-7.81-8.14-12.21-11.7L296.82,884c3.52,2.47,5.48,6.41,7.82,9.9l5.63-4.35c-3-2.91-5.6-6.21-8.79-8.94l-4.35,5.63c2.44,1.47,4.05,3.7,5.81,5.88l5.06-5.06c-4.69-3.88-9.08-8.09-13.72-12l-4.34,5.63c3.05,1.39,5.36,2,8.67,1.24,2.79-.66,3.74-5.3.86-6.55l-4.45-1.9-.95,7c2.3,0,4.58-.11,6.88,0l-2.54-6.12-.94,1L300,874.4l-.18-.61-.72,5.63c1-1.22,2.18-1.38,3.65-.46l2.76-6.55a10.15,10.15,0,0,0-8.62,1l3.61,6.19a9.78,9.78,0,0,1,7.05-1.47v-7.17a69,69,0,0,1-7.47-.27l1.81,6.68c2.7-1.44,5.39-1.66,8.39-1.73a3.63,3.63,0,0,0,2.53-6.12,13.8,13.8,0,0,1-3.19-5.21l-6,3.48a17.84,17.84,0,0,1,2.7,4.79l5.27-4c-2.25-1.29-2.46-6.23-3-8.49-.75-3.31-1.38-6.62-1.85-10l-6.91,1.9c1.35,6.89,6.23,12.74,6.62,19.8l7-1c-2.06-5.88-7-18.23.62-22,4.14-2,.51-8.23-3.62-6.19Z" transform="translate(-279.6 -657.3)"/><path class="cls-7" d="M637.41,861.51a15.2,15.2,0,0,1-4,3.07l4.9,1.28c-1.61-2.19-.41-9.05-.38-11.68,0-4.11-5.86-4.77-7-.95q-1.21,3.94-2.42,7.9l-1.08,3.5-.54,1.75c-.49,1.14-.35,1.17.42.1l4.53,3.46a46.85,46.85,0,0,1,3.64-16.54l-6.91-1.9A97.54,97.54,0,0,1,623,871.26l7,1a115.21,115.21,0,0,1,3.58-20.1l-7-1c-.91,7-1.76,13.93-5.2,20.21l6.55.86c-.74-3.31.34-6.61.79-9.9s-3.14-6.09-6-3.48c-3.44,3.13-5.15,7.24-7.34,11.25-2.84,5.18-6.17,10.08-9.19,15.15-2.38,4,3.8,7.56,6.19,3.62q9.68-16,20.8-31L627,854.23a320.49,320.49,0,0,0-16.74,27.71c-1.83,3.4,3,7.66,5.63,4.34,7.74-9.71,15.72-19.19,24.92-27.56l-5.06-5.07-26.37,28,5.07,5.07c11-11.93,22.4-23.26,36.73-31.11l-3.61-6.18c-12.64,9.48-25.06,19.24-36.26,30.41-3.34,3.33,1.56,7.93,5.07,5.07a220,220,0,0,1,29-19.92l-3.62-6.19a270.52,270.52,0,0,0-29.43,23.38c-2.95,2.7,1,8,4.34,5.63q15.79-11.19,31.57-22.4l-4.34-5.63a105,105,0,0,1-26.81,18.59l3.61,6.19a162.26,162.26,0,0,0,35.92-25.41c2.91-2.72-1-8-4.34-5.63q-8.67,6.21-16.78,13.11c-3.06,2.61,1,8,4.35,5.63a217,217,0,0,0,24.47-20c2.89-2.73-1-8-4.34-5.63l-16.53,11.89,4.34,5.63a109.77,109.77,0,0,1,15.72-14c3.65-2.65.44-8.57-3.62-6.19a209,209,0,0,1-22.46,11.47l5.26,2.14-.22-1.26-.37,2.76c.93-2,6.89-3,8.82-3.64,2.5-.83,5-1.72,7.4-2.75a45,45,0,0,0,13.78-8.93L667,838.73c-6.11,7.48-14.72,12.93-22.31,18.8l-25.27,19.53,5.07,5.07,9.41-7.55-5.06-5.07q-11.67,9.87-22.4,20.74c-3.33,3.38,1.54,7.84,5.07,5.07l15.55-12.2c3.35-2.63-.91-7.37-4.34-5.63a33.16,33.16,0,0,0-13,11.76,3.61,3.61,0,0,0,2.14,5.26,53,53,0,0,0,18.3,1.35c4.66-.48,4.54-6.56,0-7.17l-14.11-1.89c-4.29-.57-4.42,5.72-1,7,4,1.51,7.83,3.17,11.65,5a3.6,3.6,0,0,0,4.34-5.63A56.57,56.57,0,0,0,619,882.06c-3.43-2.38-7.07,2.77-4.34,5.63a33.79,33.79,0,0,0,20.19,10.49c3.7.52,6.64-4.41,2.76-6.55A20.56,20.56,0,0,0,625.48,889c-4.16.36-4.71,5.51-1,7a32.1,32.1,0,0,0,18,1.8l-1.91-6.91c-13.88,3.32-27.69,6.86-41.23,11.39l2.76,6.55a69,69,0,0,1,16.28-6.62l-1.9-6.91-25.3,8.6,2.76,6.55a35.5,35.5,0,0,1,7.68-2.21l-1.9-6.92L586,904.24l1.9,6.91,4.74-1.62L589.88,903a37.47,37.47,0,0,1-9.11,2.58l3.49,6a136.43,136.43,0,0,0,26.1-34.21c2.19-4.06-3.8-7.57-6.19-3.62L591.87,894c-2,3.39,3,7.56,5.63,4.35l13.08-16L605,878q-7.73,11.55-16.48,22.34a3.64,3.64,0,0,0,2.53,6.12c4.18.35,7.23-3.5,10.19-6L613.59,890l-5.07-5.06q-6.32,6.63-12.65,13.25c-2.7,2.82.9,8.07,4.34,5.63l15.55-11-4.34-5.63a127.6,127.6,0,0,0-11.53,10.26c-3,3,.78,7.34,4.34,5.63a118,118,0,0,0,14.45-8.26l-4.34-5.63-8.62,8a3.61,3.61,0,0,0,2.53,6.11c6.42-.17,12.09-4,18.48-3.63,4.61.28,4.59-6.89,0-7.17-6.56-.4-12.06,3.47-18.48,3.64l2.54,6.11,8.62-8c2.93-2.73-.93-7.91-4.34-5.63a117.51,117.51,0,0,1-14.46,8.26l4.34,5.63a127.56,127.56,0,0,1,11.54-10.26c3.17-2.49-1-8-4.34-5.63l-15.56,11,4.35,5.63L613.59,890c3.23-3.38-1.58-8-5.07-5.06l-8.75,7.38c-1.49,1.25-6.71,7.13-8.77,7l2.54,6.12q9.35-11.49,17.6-23.8c2.23-3.33-3-7.51-5.63-4.34l-13.08,16,5.63,4.34,12.3-20.31-6.19-3.62a130,130,0,0,1-25,32.76c-2.81,2.68.21,6.52,3.49,6a44.53,44.53,0,0,0,10.82-3.3c3.7-1.62,1.07-7.86-2.76-6.55L586,904.24a3.59,3.59,0,0,0,1.9,6.91l13.71-2.91c4.54-1,2.59-7.74-1.9-6.92a43.49,43.49,0,0,0-9.4,2.95c-3.71,1.59-1.06,7.85,2.77,6.55l25.29-8.61c4.33-1.47,2.6-8.11-1.9-6.91a76.36,76.36,0,0,0-18,7.34c-3.48,2-1.16,7.86,2.76,6.55,13.53-4.53,27.35-8.07,41.23-11.39,4.56-1.09,2.55-7.64-1.91-6.91a25.27,25.27,0,0,1-14.13-1.8l-.95,7a13.84,13.84,0,0,1,8.55,1.69l2.76-6.55a27.64,27.64,0,0,1-17-8.65l-4.34,5.63a50.49,50.49,0,0,1,10.62,10l4.35-5.63q-6.57-3.12-13.36-5.71l-.95,7,14.11,1.89v-7.17a47.1,47.1,0,0,1-16.39-1.09l2.14,5.27a26,26,0,0,1,10.4-9.19L622,878.05l-15.56,12.2,5.07,5.07q10.72-10.87,22.39-20.74c3.56-3-1.52-7.91-5.06-5.07l-9.42,7.55c-3.62,2.91,1.49,7.84,5.07,5.07l25.27-19.53c7.59-5.87,16.2-11.32,22.31-18.81,2.86-3.51-1.67-8.32-5.07-5.06-5.74,5.49-12.82,8.13-20.24,10.56-5.38,1.77-12.3,3.1-11,10.22.46,2.52,3.35,3,5.27,2.14a208,208,0,0,0,22.46-11.46L659.87,844a119.57,119.57,0,0,0-17.16,15.09c-2.65,2.83.89,8.11,4.34,5.63l16.52-11.89-4.34-5.63a202.87,202.87,0,0,1-23,18.86l4.34,5.63q7.41-6.33,15.32-12l-4.34-5.63a154.7,154.7,0,0,1-34.46,24.29c-4.12,2.14-.5,8.19,3.61,6.19A111.3,111.3,0,0,0,649,864.84c2.87-2.74-1-8-4.35-5.63q-15.78,11.2-31.57,22.4l4.34,5.63a256.39,256.39,0,0,1,28-22.26c3.76-2.58.43-8.52-3.62-6.19a231.81,231.81,0,0,0-30.41,21l5.07,5.07c10.77-10.74,22.65-20.18,34.8-29.3,3.61-2.7.54-8.46-3.61-6.18-14.86,8.12-26.81,19.86-38.19,32.22-3.11,3.39,1.9,8.44,5.07,5.07l26.36-28c3.18-3.37-1.65-8.17-5.06-5.07-9.21,8.37-17.19,17.85-24.93,27.56l5.63,4.34a323.45,323.45,0,0,1,16.73-27.71c2.62-3.88-3.5-7.25-6.18-3.61q-11.13,15-20.81,31l6.19,3.62c2.71-4.55,5.63-9,8.28-13.57,2.23-3.87,3.76-8.32,7.13-11.39l-6-3.48c-.64,4.72-1.86,9-.79,13.71.67,3,5.1,3.5,6.55.85,4.08-7.46,5.1-15.52,6.18-23.83.53-4-6.08-4.8-7-.95a126.45,126.45,0,0,0-3.84,22c-.3,4.35,5.66,4.41,7,.95a97.45,97.45,0,0,0,5.55-19.77c.79-4.6-5.16-6.15-6.91-1.9a52.15,52.15,0,0,0-3.89,18.44,3.61,3.61,0,0,0,4.53,3.45c2.8-.6,3.73-2.6,4.59-5.1,1.49-4.33,2.69-8.78,4-13.16l-7-1c0,4.56-1.51,11.38,1.37,15.3a3.68,3.68,0,0,0,4.9,1.28,21,21,0,0,0,5.42-4.18c3.16-3.35-1.9-8.43-5.07-5.07Z" transform="translate(-279.6 -657.3)"/><path class="cls-8" d="M665.24,767.29c-1.74-20.86-19.64-30-39.35-31.49-2.76-.21-6.11.44-8.94.68-.86-17.92-6.42-42.59-27.05-44.77-12-1.26-16.35,9.22-21.86,16.87-12.5-31.87-46.29-46.26-79.32-46.28-28.59,0-58,11.41-73.82,36.4-9.08-4.53-19.9-7.65-29.78-7.22C360.87,692.56,337,706.16,337,732.29c0,4.47,1.3,7,2.38,11-2.33-.14-3.77-.66-6.31-.14-23,4.64-29.32,20.32-31,41.5-.74,9.1,1,14,4.75,21.71-9.31,8.82-15.16,25.78-13.48,37.25,3.1,21.21,16.12,46.52,39.11,46S360,859.82,361,840.37c.42-8.44-3-23.63-7.48-32a70.32,70.32,0,0,0,8.95-10.75c11.47,13.14,26,20.86,43.83,20.62,24.7-.34,44.11-14.47,52.13-37.73,9.53,2.46,20.61,4.48,30.23,4.27,29.57-.66,57.84-11.07,74.6-36.23,3.39,15.21,9.29,30.72,26.34,33.43a6.45,6.45,0,0,0,.89,0c5.47,7.62,12.33,11.9,21,15.27-2.26,6.07-4.09,16.63-3.79,22.46.83,16.31,5,42,24.83,41.91s24.18-25.3,25-42c.36-7.65-2.29-20.21-6-27.68C658.8,784.75,666.2,778.89,665.24,767.29Z" transform="translate(-279.6 -657.3)"/><path class="cls-7" d="M605.22,769.45c-11.6,5.82-22.5,11.73-35.34,5.47-10-4.86-20.2-13.61-24.41-24-1.71-4.22-8.65-2.37-6.92,1.91,5.12,12.64,16.7,23.34,29.07,28.94a33.87,33.87,0,0,0,19.86,2.78c7.67-1.33,14.49-5.45,21.36-8.89,4.12-2.07.5-8.25-3.62-6.19Z" transform="translate(-279.6 -657.3)"/><path class="cls-9" d="M541.84,767c8.25,13.58,21.28,22.86,37.5,23.36,18.07.57,32.68-9.33,45.57-20.92,3-2.66-.3-6.45-3.48-6-8.22,1.19-15.79-3.5-22.39-7.85a100.47,100.47,0,0,1-16.56-14c-3.22-3.31-8.29,1.76-5.07,5.07,11.48,11.82,28.3,26.29,45.92,23.73l-3.48-6c-11.1,10-23.5,18.83-39.05,18.85-14.25,0-25.54-7.94-32.77-19.84-2.39-3.94-8.59-.34-6.19,3.62Z" transform="translate(-279.6 -657.3)"/><path class="cls-9" d="M358.78,779.65c-8.13,10.14-17,21.64-31,22.61-2.4.17-4.88,3-3.1,5.39,3.55,4.69,6.71,9,12.21,11.47a31.74,31.74,0,0,0,17.33,2.49c13.83-1.81,25.35-10.52,36.3-18.49,3.69-2.69.12-8.91-3.62-6.19-8.66,6.31-17.53,13.21-27.94,16.35a27.79,27.79,0,0,1-15.28.69c-6.06-1.62-9.16-5.12-12.81-9.93l-3.09,5.39c16.26-1.12,26.45-12.75,36-24.72,2.85-3.56-2.19-8.66-5.07-5.06Z" transform="translate(-279.6 -657.3)"/><path class="cls-9" d="M305.89,862.23c-7.62,2.12-14.56,5.49-22.66,4.91-2.56-.19-4.66,3.24-3.09,5.39,7.75,10.59,15.51,22.08,26.8,29.23,5.53,3.51,12,4.92,18.41,6.12,7.71,1.47,15.47,1.84,23.06-.39l-4-5.26c-4.49,6.15-10,11.36-15.38,16.75-1.49,1.5-1.19,3.52,0,5.06,2.15,2.78,5.27,3.23,8.59,3.49a103.83,103.83,0,0,0,14.11.24,70.92,70.92,0,0,0,25.19-6.55l-5.26-2.14c.86,6.2,2.63,17,8.74,20.37a6.91,6.91,0,0,0,7.62-.4c3.91-2.53,7.39-5.86,11.32-8.44s.26-8.73-3.62-6.19c-2.15,1.41-4.31,2.84-6.38,4.37-.93.7-1.86,1.4-2.77,2.13-1.21,1-1.89,2.32-3.14,1.63-1.73-.95-2.72-5.64-3.22-7.34a54.83,54.83,0,0,1-1.64-8c-.35-2.52-3.44-3-5.27-2.14a61.19,61.19,0,0,1-20,5.46,82.93,82.93,0,0,1-9.59.19c-2.65-.08-7.84.56-9.59-1.7V924c5.8-5.84,11.63-11.52,16.49-18.2,1.89-2.59-1.23-6.09-4-5.26-6.95,2-14,1.51-21,0-5.76-1.2-11.3-2.5-16.21-5.88-9.53-6.55-16.27-16.64-23-25.84l-3.1,5.39c8.77.63,16.31-2.86,24.56-5.16,4.44-1.24,2.56-8.15-1.9-6.91Z" transform="translate(-279.6 -657.3)"/><path class="cls-9" d="M655.83,849.5c4-2,8-4,12-6,.54-.27,5-2,5.15-2.52q-2.64-5.06-3.92-1.37l-.84,1.36A94.21,94.21,0,0,1,655,857.55c-9.8,9.79-21.48,17.23-33.84,23.35-3.18,1.58-3.36,7.13,0,8.64a92.46,92.46,0,0,0,30.23,7.92l-2.52-9.31c-10.23,6.54-23,9.32-34.59,12.69q-8.77,2.56-17.64,4.85c-6,1.54-12.25,3.75-18,.41-5.58-3.23-10.62,5.41-5,8.64,12.11,7,27.4.3,39.67-3.19,13.54-3.85,28.69-7.1,40.67-14.77,4.36-2.79,2.34-8.88-2.53-9.32a77.45,77.45,0,0,1-25.18-6.56v8.64c17-8.44,32.75-19.63,44.5-34.73,3.88-5,13.59-15.35,7.35-21.76-3.19-3.28-7.4-1.92-11-.24-5.49,2.6-10.9,5.38-16.35,8.05-5.78,2.83-.71,11.46,5.05,8.64Z" transform="translate(-279.6 -657.3)"/><path class="cls-7" d="M619.84,872.25l2.31-7.11c1.24-3.79-4.84-6.49-6.55-2.76a139.06,139.06,0,0,0-8.31,23.45c-1,3.77,4.81,6.58,6.55,2.76a307.17,307.17,0,0,0,15-40c1.21-4.07-4.33-6-6.55-2.76a76,76,0,0,0-12.68,31.82c-.57,3.63,4.71,6.79,6.55,2.76A256,256,0,0,0,630.42,841c.57-2.09-1.09-4.72-3.45-4.53-6.89.55-9.1,8.72-11.56,14.15a188,188,0,0,0-8.58,23c-1.37,4.54,5.2,6,6.91,1.9q4-9.57,7.68-19.28c1.84-4.87,5.72-11.29,3.91-16.55-.9-2.61-5.19-3.9-6.55-.86a117.82,117.82,0,0,0-9.13,30.89c-.67,4.43,5.69,6.48,6.91,1.9q2.63-9.9,5.14-19.85c1.4-5.58,3.91-11.71,2.16-17.43-1-3.17-6.21-3.65-6.91,0l-6.39,33,6.91,1.9q2.78-15.56,5.54-31.13l-7-1A163.94,163.94,0,0,1,610.84,863l6.91,1.91c1.62-6.5,2.94-13,4-19.66.7-4.45-5.92-6.49-6.92-1.9q-2.34,10.83-4.69,21.67l7,.95c.78-7.56,3.08-14.72,4.2-22.21a55.64,55.64,0,0,0-1.2-21.11c-1-4.49-8-2.58-6.92,1.91a48,48,0,0,1,.25,22.2A157,157,0,0,0,610,865.93c-.42,4,6.18,4.88,7,1q2.36-10.85,4.7-21.68l-6.92-1.9q-1.54,9.91-4,19.65c-1.11,4.48,5.59,6.33,6.91,1.91,2.72-9.06,4.16-18.34,5.39-27.7.52-4-6.34-4.92-7-.95q-2.77,15.57-5.54,31.13c-.8,4.49,6,6.45,6.91,1.9q3.21-16.5,6.39-33H617c1.5,4.89-1.83,12.34-3.07,17.24q-2.07,8.13-4.23,16.24l6.91,1.9A111.46,111.46,0,0,1,625,842.44l-6.55-.86c.82,2.4-1.46,6.13-2.27,8.33q-1.46,4-3,7.94-3,7.92-6.33,15.76l6.91,1.9c1.67-5.51,3.53-11,5.72-16.28,1.14-2.79,2.37-5.54,3.67-8.25.56-1.17,2.74-7.23,3.84-7.31l-3.46-4.54A243.81,243.81,0,0,1,610,876.79l6.55,2.77a71.5,71.5,0,0,1,12-30.12L622,846.68A291.72,291.72,0,0,1,607.65,885l6.55,2.76A128.33,128.33,0,0,1,621.79,866l-6.55-2.76-2.31,7.1c-1.44,4.4,5.48,6.28,6.91,1.91Z" transform="translate(-279.6 -657.3)"/><path class="cls-7" d="M629.66,858.63l1-.91-6-3.48Q623,862,621.31,869.7a3.6,3.6,0,0,0,6.55,2.76q4.89-7.25,9.13-14.89c2.27-4.11-3.54-7.31-6.19-3.62a83.64,83.64,0,0,0-8.47,14.75c-1,2.29.12,5.54,3.1,5.39,4.54-.24,8.07-5.46,11.11-8.42,3.25-3.17,7.44-5.85,6.61-10.83-.47-2.82-4.18-3.22-6-1.58a70.39,70.39,0,0,0-10.77,12.53c-1.18,1.74-.09,5,2.14,5.26,3.59.5,5.28-1,7.87-3.4l10.21-9.4c3-2.79-.86-7.65-4.34-5.63-4.2,2.43-15.18,10.63-10.57,16.4s14.15-3.33,16.43-7.53c1.48-2.71.54-6.37-2.62-7.32-3-.89-6.14,2.08-8.13,3.85-2.28,2-4.28,4.92-2.08,7.86a5,5,0,0,0,3.8,2c2.66.13,3.55-1.73,5.87-2.51,4.36-1.46,2.49-8.38-1.9-6.91a8.22,8.22,0,0,0-2.58,1.15c-.3.22-.6.44-.88.66-1.44.93-1,2.32,1.43,4.19.52-.13,1.44-1.42,1.89-1.78a13.79,13.79,0,0,1,1.9-1.33q1.24-.66-.27-.12L642,860.16q-.57-2.48-1.64-.45c-.57.59-1.16,1.15-1.77,1.69a18.75,18.75,0,0,1-2.21,1.66c-1.5.61-1.38.91.36.89l1,2.53c0,1.14.44-.63.81-1.18a20.33,20.33,0,0,1,2.11-2.62,22.64,22.64,0,0,1,5.15-3.87l-4.34-5.63q-3.3,3-6.61,6.08l-3,2.77-1.2,1.1q-2.36,1.5-.29,1l2.14,5.27a62.16,62.16,0,0,1,9.65-11.08l-6-1.58.17,1,.36-2.76c-1,2.41-4,4.35-5.83,6.16l-3.21,3.12c-.4.4-2.35,2.68-2.3,2.68l3.09,5.39A83.29,83.29,0,0,1,637,857.57L630.8,854q-4.23,7.65-9.13,14.89l6.55,2.76q1.66-7.73,3.34-15.46a3.61,3.61,0,0,0-6-3.48l-1,.9c-3.39,3.14,1.69,8.2,5.07,5.07Z" transform="translate(-279.6 -657.3)"/><path class="cls-7" d="M640,845.67a4.78,4.78,0,0,0-.5,9c4,2.1,9.67,2.38,14.1,2.79,4.59.42,4.56-6.75,0-7.17a58.11,58.11,0,0,1-5.88-.81q-1.46-.28-2.88-.63l-1-.25q-2.48-1.12-.31,2.56l-2.14,1.65.47-.18c4.28-1.61,2.43-8.54-1.9-6.91Z" transform="translate(-279.6 -657.3)"/><path class="cls-7" d="M640.37,854.24c1.8,0,2.72,1.31,4,2.38a10.11,10.11,0,0,0,7.08,2.46c4.59-.21,4.62-7.38,0-7.16-1.93.09-2.61-.94-4-2.11a11.09,11.09,0,0,0-7.1-2.74c-4.61-.1-4.61,7.07,0,7.17Z" transform="translate(-279.6 -657.3)"/><path class="cls-7" d="M655.68,856.55l.1,0-3.49-6c-.42.53-1,.93-1.42,1.46-2.17,2.72-.22,6.85,3.49,6l.09,0-2.76-6.55c-4.94,3.13-10.06,6-15,9.1l4.34,5.63c5-4.4,11.49-6.68,16.49-11.18,3.25-2.93-.89-7.16-4.35-5.63A176.35,176.35,0,0,0,637,857.85c-4,2.3-.39,8.49,3.61,6.19a177.84,177.84,0,0,1,16.16-8.52l-4.34-5.63c-5,4.47-11.44,6.76-16.49,11.18-3.06,2.68.92,7.81,4.35,5.63,4.94-3.13,10.06-6,15-9.11a3.6,3.6,0,0,0-2.76-6.55l-.1,0,3.49,6c.42-.53,1-.93,1.42-1.46,2.17-2.71.22-6.85-3.49-6l-.09,0c-4.49,1-2.59,8,1.9,6.92Z" transform="translate(-279.6 -657.3)"/><path class="cls-7" d="M614.41,861.26q-3.74,6.68-7.1,13.53l6.55,2.76,4-10.93c1.46-4-4.41-6-6.55-2.76a52.76,52.76,0,0,0-5.23,10.23c-1.69,4.33,5.18,6.08,6.91,1.9q2-4.8,3.6-9.73l-6.91-1.91q-2.61,9.84-5.23,19.69c-1.19,4.46,5.72,6.36,6.91,1.9q2.63-9.84,5.23-19.68c1.2-4.49-5.48-6.28-6.91-1.91-1.07,3.3-2.27,6.53-3.6,9.74L613,876a44.71,44.71,0,0,1,4.51-8.51L611,864.71q-2,5.47-4,10.93c-1.39,3.79,4.76,6.41,6.55,2.77q3.36-6.87,7.1-13.53c2.25-4-3.94-7.65-6.19-3.62Z" transform="translate(-279.6 -657.3)"/><path class="cls-7" d="M562.57,727.09l-1.69.07c-2.44.1-4.82,3.07-3.09,5.39l12.15,16.28,5.62-4.34A221.69,221.69,0,0,0,558.16,725c-2.78-2.77-8.11,1-5.63,4.34l18.68,25.41,5.63-4.34-21.63-19.53a3.59,3.59,0,0,0-5.07,5.07l23.76,26.94,4.34-5.63A236.26,236.26,0,0,1,554,737.34l-5.07,5.07q13.46,11.19,26.47,22.91l4.34-5.63-29.54-22c-3.28-2.43-7.3,2.9-4.35,5.63a357.18,357.18,0,0,0,29.66,24.57l3.62-6.19A173.93,173.93,0,0,1,553.88,743c-3.48-3.1-8,1.55-5.07,5.07a248.51,248.51,0,0,0,18.49,19.76l5.07-5.07-22.3-18.41c-3.51-2.89-8.28,1.64-5.07,5.07q8.21,8.75,16.39,17.51l5.07-5.06q-8.85-7-17-14.74c-3.36-3.18-8.23,1.7-5.07,5.07l11.73,12.5,5.07-5.07c-5-4.59-10-9.22-15-13.78-2.83-2.58-8.22.93-5.63,4.34,6.59,8.64,13.23,17.54,23,22.86,10.48,5.74,21.76,5.66,32.44.58,4.16-2,.53-8.16-3.62-6.18-19.81,9.41-34.54-6.37-45.59-20.88l-5.62,4.34c5,4.57,10,9.2,15,13.79,3.4,3.12,8.24-1.69,5.07-5.07l-11.73-12.5-5.07,5.07q8.18,7.75,17,14.73c3.54,2.8,8.3-1.61,5.07-5.06l-16.39-17.52L545,749.42q11.16,9.2,22.3,18.41c3.5,2.88,8.46-1.82,5.07-5.07A246.68,246.68,0,0,1,553.88,743l-5.07,5.07a185,185,0,0,0,26.68,19.82c4,2.46,7.23-3.51,3.62-6.19a339.73,339.73,0,0,1-28.21-23.45l-4.34,5.63q14.78,11,29.54,22c3.26,2.43,7.35-2.93,4.35-5.63q-13-11.71-26.47-22.91c-3.49-2.9-8.49,1.86-5.07,5.07a251.66,251.66,0,0,0,25.71,21c3.48,2.49,6.89-2.74,4.34-5.63l-23.75-26.94L550.14,736l21.63,19.53c2.84,2.57,8.17-.89,5.63-4.34l-18.68-25.42-5.63,4.34a223.43,223.43,0,0,1,17.41,19.49c2.5,3.16,8.06-1.07,5.62-4.34L564,728.93l-3.1,5.39,1.69-.07c4.6-.19,4.62-7.35,0-7.16Z" transform="translate(-279.6 -657.3)"/><path class="cls-7" d="M575.07,765.64c-2.89-1-6.2-1.28-8.38,1.29a5.43,5.43,0,0,0,.19,7.27c2.34,2.25,6.38,1.39,9.27,1.3,5-.14,9.91-.31,14.87-.45,4.71-.14,4.49-6.67,0-7.17a61.9,61.9,0,0,0-21.65,1.43c-3.59.86-3.22,5.87,0,6.91,4.85,1.56,9.9,1.24,14.85,2.21,4.49.88,6.44-5.93,1.91-6.91a48.11,48.11,0,0,1-8.61-2.64c-4.19-1.78-7.85,4.39-3.61,6.19a56.72,56.72,0,0,0,10.31,3.36l1.91-6.91c-4.94-1-10-.66-14.85-2.21v6.91A56.28,56.28,0,0,1,591,775.05v-7.17c-3.86.11-7.71.24-11.57.36l-5,.15-3.3.09q-.87,3.64,2,4.07c4.35,1.56,6.22-5.37,1.9-6.91Z" transform="translate(-279.6 -657.3)"/><path class="cls-7" d="M551.07,765.19C560.14,785,583,784.65,600,776c4.12-2.07.5-8.26-3.61-6.19-13.87,7-31.79,7.83-39.16-8.28-1.92-4.18-8.1-.55-6.19,3.62Z" transform="translate(-279.6 -657.3)"/><path class="cls-7" d="M620.67,787.34c-9.57-7.77-10.54,15.73-10,20.53,1,10.36,5,21.23,14.74,26.19,4.1,2.09,7.73-4.1,3.61-6.19-6.12-3.12-8.58-8.6-10.22-15-1.55-6.12-2.57-16,1.32-21.45L617.93,793l.65-.12-3.49-.92.51.41c3.55,2.88,8.65-2.16,5.07-5.07Z" transform="translate(-279.6 -657.3)"/><path class="cls-7" d="M369.5,781.37a242.28,242.28,0,0,0-18.2,18.06c-2.54,2.84.89,8.19,4.34,5.63,8.14-6,16.45-11.88,24.79-17.64,3.77-2.6.23-8.79-3.61-6.19-8.84,6-17.47,12.2-25.19,19.59-3,2.88.82,7.52,4.35,5.63,6.18-3.3,12.36-6.59,19.22-8.22l-2.76-6.54q-13.28,6.57-26.15,13.89l3.61,6.18q12.19-7,24.78-13.35c4.2-2.1.52-8-3.61-6.19a111.14,111.14,0,0,0-20.64,11.63c-3.16,2.26-1.39,7.67,2.76,6.55,6.84-1.86,12.51-6,19-8.7l-2.76-6.55c-6.25,3.49-12.89,8.77-19.92,10.37-4.54,1-2.58,7.74,1.9,6.91a61,61,0,0,0,14.53-4.15c4.65-2.15,7.81-5.28,11.25-9,3.15-3.37-1.91-8.45-5.07-5.07-3,3.2-5.7,6-9.79,7.84a57.94,57.94,0,0,1-12.82,3.43l1.9,6.91c7.7-1.76,14.82-7.28,21.64-11.09,3.44-1.92,1.06-8.14-2.77-6.55-6.43,2.68-12.22,6.86-19,8.7l2.77,6.55a111.06,111.06,0,0,1,20.63-11.63l-3.61-6.19q-12.6,6.31-24.78,13.36c-4,2.3-.4,8.48,3.61,6.18q12.87-7.34,26.16-13.89c3.74-1.86,1.06-7.45-2.77-6.55-7.44,1.77-14.23,5.36-20.93,8.94l4.34,5.63c7.28-7,15.39-12.84,23.73-18.47l-3.61-6.19c-8.35,5.76-16.65,11.59-24.8,17.64l4.35,5.63a240.4,240.4,0,0,1,18.2-18.06c3.42-3.11-1.66-8.16-5.07-5.07Z" transform="translate(-279.6 -657.3)"/><path class="cls-7" d="M347.49,814.75A35.82,35.82,0,0,0,369.24,810c7.48-4.3,13.23-11.28,19.34-17.24,3.3-3.23-1.77-8.3-5.07-5.07-10.57,10.32-19.85,21.47-36,19.89-4.58-.44-4.55,6.73,0,7.17Z" transform="translate(-279.6 -657.3)"/><path class="cls-7" d="M374,793.37a6.32,6.32,0,0,0-4.34,1.09c-2.89,1.7-1.87,5.44.86,6.55,5.93,2.4,11.87,4.76,17.85,7l1.91-6.91q-7.17-2.39-14.51-4.17c-4.56-1.11-6.15,5.28-1.91,6.91l12.68,4.86,1.91-6.91-10.88-3.16c-4.44-1.29-6.32,5.58-1.91,6.91a71.4,71.4,0,0,1,12.54,5.07l2.77-6.55a158.16,158.16,0,0,1-15.48-5.78l-2.76,6.55q6.51,1.88,13,3.79l1.9-6.91a23.85,23.85,0,0,1-11-5.61l-3.48,6c7.15,2.26,14.29,4.57,21.44,6.86,3.27,1,5.21-2.63,4-5.27-1.38-3.12-5.11-3.86-8-5.08q-6.75-2.82-13.5-5.6l-1.91,6.91q10.83,3.63,21.63,7.32c4.15,1.41,5.77-4.3,2.76-6.55-5.6-4.17-12.56-5.66-18.31-9.58l-2.76,6.55q7.59,1.55,15.16,3.14a3.6,3.6,0,0,0,2.76-6.55,39.49,39.49,0,0,0-10.7-5.12c-4.42-1.38-6.31,5.54-1.91,6.91a33,33,0,0,1,9,4.4l2.76-6.55q-7.57-1.59-15.16-3.14a3.6,3.6,0,0,0-2.76,6.55c5.75,3.92,12.7,5.41,18.3,9.58l2.77-6.55q-10.81-3.68-21.63-7.32c-4.48-1.51-6.05,5.2-1.91,6.91l9,3.73c1.74.72,7.52,2,8.25,3.66l4-5.26c-7.14-2.29-14.28-4.6-21.44-6.86-3.33-1.05-6.19,3.62-3.49,6a31.19,31.19,0,0,0,14.2,7.45c4.49,1,6.36-5.61,1.9-6.91s-8.68-2.54-13-3.79c-3.78-1.1-6.55,4.89-2.76,6.55A172.82,172.82,0,0,0,389,811c3.84,1.21,6.39-4.67,2.76-6.55a82.32,82.32,0,0,0-14.25-5.79l-1.91,6.91,10.88,3.16c4.52,1.32,6.13-5.29,1.91-6.91L375.74,797l-1.91,6.91q7.35,1.78,14.51,4.17c4.44,1.48,6.15-5.3,1.91-6.91-6-2.27-11.93-4.63-17.86-7l.86,6.55.72-.11c4.6.3,4.59-6.87,0-7.17Z" transform="translate(-279.6 -657.3)"/><path class="cls-7" d="M372,794.85l-1.56-.31a3.64,3.64,0,0,0-4,5.27c2.22,4.57,6.83,5.87,11.45,7.06A72.45,72.45,0,0,0,396.05,809c4.61,0,4.62-7.18,0-7.17a65.36,65.36,0,0,1-12.72-1.06c-3.29-.65-9.14-1.3-10.73-4.58l-4.05,5.27,1.57.3c4.5.87,6.43-6,1.9-6.91Z" transform="translate(-279.6 -657.3)"/><path class="cls-7" d="M352.09,808.45c5-6.36,10-12.19,13-19.81s4.21-16,5.21-24.16c.55-4.56-6.62-4.52-7.17,0-.85,7-1.93,14-4.35,20.67-2.58,7.06-7.17,12.42-11.75,18.23-2.83,3.59,2.21,8.69,5.07,5.07Z" transform="translate(-279.6 -657.3)"/><path class="cls-7" d="M591.82,767.4c-4.27-6.4-8.57-12.86-11.75-19.89-3.51-7.76-4.26-15.75-5.87-24-.88-4.53-7.79-2.61-6.91,1.9,1.63,8.35,2.48,16.26,5.9,24.16,3.3,7.62,7.85,14.56,12.44,21.45,2.55,3.82,8.76.24,6.19-3.62Z" transform="translate(-279.6 -657.3)"/><path class="cls-7" d="M591.21,764.58a126.17,126.17,0,0,1-13.93-36.44c-1-4.51-7.89-2.6-6.91,1.9A132.49,132.49,0,0,0,585,768.2c2.3,4,8.49.39,6.19-3.62Z" transform="translate(-279.6 -657.3)"/><path class="cls-7" d="M524.41,765.18c9.24-4.3,18.56-8.18,28.54-10.42l-2.76-6.55q-16.37,9.22-33.08,17.81l3.62,6.19c9.86-6.26,21.22-8.91,32-13.18l-2.76-6.55-33.2,15.79c-3.66,1.74-1.09,7.82,2.76,6.55,13-4.31,25-10.76,36.77-17.69,4-2.35.46-8.35-3.61-6.19A402,402,0,0,1,515,768.51c-4.22,1.71-2.37,8.64,1.91,6.91a421.41,421.41,0,0,0,39.34-18.29l-3.61-6.19c-11.24,6.62-22.65,12.86-35.07,17l2.76,6.55,33.2-15.79c3.62-1.72,1-8.06-2.76-6.55-11.32,4.5-23.3,7.31-33.68,13.9-3.9,2.49-.48,8.3,3.62,6.19q16.71-8.58,33.08-17.81c3.63-2,1.12-7.43-2.77-6.55-10.57,2.37-20.46,6.58-30.25,11.15-4.18,1.94-.54,8.12,3.62,6.18Z" transform="translate(-279.6 -657.3)"/><path class="cls-3" d="M423.61,895.12v.38a1.08,1.08,0,0,0,2.15,0v-.38a1.08,1.08,0,0,0-2.15,0Z" transform="translate(-279.6 -657.3)"/><path class="cls-7" d="M298.33,849.3c-.22,5.42,2.44,9.9,5,14.47a44.28,44.28,0,0,0,3.46,6c1.51,1.91,3.51,3.18,5.41,4.66a3.71,3.71,0,0,0,5.07,0c1.25-1.22,1.53-3.88,0-5.07a36.13,36.13,0,0,1-4.46-3.52c-1.28-1.36-2-3.27-2.86-4.89-2-3.68-4.63-7.25-4.45-11.63.19-4.62-7-4.61-7.17,0Z" transform="translate(-279.6 -657.3)"/><path class="cls-7" d="M298.5,849.64a71.43,71.43,0,0,0,12.35,25.07l3.49-6c-.74-.3-1.1-1.37-1.43-2-.73-1.46-1.43-2.94-2.17-4.4-1.49-2.89-3.05-5.75-4.6-8.61-1.89-3.5-8-1.1-6.55,2.76A90.43,90.43,0,0,0,306.76,871c2,3.36,7.92,1.19,6.55-2.77A66.89,66.89,0,0,0,307.2,856c-2-3.35-8.11-1.12-6.55,2.76a119.39,119.39,0,0,0,6,12.51c2.26,4.13,8,.51,6.19-3.61-2.25-5.05-5-9.87-7.41-14.82-1.77-3.59-8-1.06-6.55,2.76,2.51,6.64,6.16,12.15,12,16.26,3.79,2.65,7.37-3.56,3.61-6.19-4.22-3-6.93-7.21-8.74-12l-6.55,2.76c2.45,5,5.16,9.78,7.41,14.82l6.19-3.61a104.24,104.24,0,0,1-5.23-10.8L301,859.66a58.68,58.68,0,0,1,5.38,10.49l6.55-2.76a80.2,80.2,0,0,1-6.45-12.87L300,857.28c2,3.69,4,7.36,5.86,11.13,1.63,3.33,3,5.77,6.62,7.22a3.6,3.6,0,0,0,4.05-1.65,3.76,3.76,0,0,0-.56-4.34c-5.07-6.42-8.3-14.09-10.51-21.9-1.25-4.44-8.16-2.55-6.91,1.9Z" transform="translate(-279.6 -657.3)"/><path class="cls-7" d="M302.91,880.85c2.67-2,4.13-4.94,7.31-6.26s6.8-1.78,10.2-2.34l-1.91-6.91A46.42,46.42,0,0,0,308.23,869a23.56,23.56,0,0,0-4.48,3.07,17.48,17.48,0,0,0-1.62,1.6c-.32.37-.63.75-.92,1.14-.7.66-.47.66.71,0l2.5,4.41c.57-1.51,1.29-3.43,3.12-3.67l-1-7a39.47,39.47,0,0,0-7.22,3.87l5.26,4-1.46,1.5.81-.16a7.23,7.23,0,0,0,1.87-.47l1.47-.47.77-.27q1.85-.49-2-1.25l2.15-5.26c-2.07.66-4.09,1.42-6.1,2.23l2.76,6.55c3.68-2.72,7.11-4.95,11.7-5.69l-2.76-6.55c-5.29,2.48-9.42,5.63-11.94,11-1.38,2.95,1.65,7.09,4.9,4.9,2.28-1.53,3.39-3.93,5.49-5.58a27.81,27.81,0,0,1,6.58-3.42l-3.48-6c-4.13,3.48-9.95,7.33-11,13-.62,3.34,3.31,6.22,6,3.49a47,47,0,0,1,9.34-7l-4.34-5.63a84.17,84.17,0,0,0-8.56,10.18,3.59,3.59,0,0,0,1.28,4.9c2.6,1.25,4.54.9,7.18-.06,2.39-.86,4.83-1.56,7.28-2.23,4.44-1.23,2.56-8.14-1.9-6.91-1.73.47-3.46,1-5.17,1.51-.85.27-1.69.58-2.54.88l-.84.32c-1,.21-1.1.31-.39.3l1.28,4.9a72.82,72.82,0,0,1,7.45-8.72c2.86-2.83-.83-7.79-4.34-5.63A55,55,0,0,0,305.27,879l6,3.49c.77-4.23,6.09-7.31,9.14-9.89,2.65-2.23-.18-7.35-3.48-6a44.88,44.88,0,0,0-7.85,3.83,16.07,16.07,0,0,0-3.21,2.72c-.91,1-1.56,2.39-2.73,3.18l4.9,4.9c2.06-4.41,5.06-6.44,9.37-8.46a3.58,3.58,0,0,0,1.47-4.48,3.65,3.65,0,0,0-4.23-2.07c-5.14.83-9.29,3.36-13.4,6.41a3.66,3.66,0,0,0-1.47,4.48c.63,1.49,2.57,2.74,4.23,2.07,2-.81,4-1.57,6.09-2.23s3.47-3.25,2.14-5.26c-2-3-4.6-2.48-7.57-1.54s-5.69,1-7,4.36c-1.08,2.89,2.76,5.75,5.26,4a31.1,31.1,0,0,1,5.52-3.15,3.66,3.66,0,0,0,2.57-3.93c-.22-1.58-1.76-3.35-3.52-3.11-5.49.73-8.15,4-10,8.93-.69,1.85.79,3.89,2.51,4.41,4.8,1.45,6.28-2.8,9.57-5.15s7.07-3.33,10.83-4.28c4.55-1.16,2.55-7.65-1.91-6.91A50,50,0,0,0,307.63,868a17.28,17.28,0,0,0-4.6,2.65c-1.43,1.19-2.27,3-3.74,4.07a3.7,3.7,0,0,0-1.29,4.9c.88,1.54,3.36,2.44,4.91,1.28Z" transform="translate(-279.6 -657.3)"/><path class="cls-7" d="M312.5,876.93c-2.44-1.07-4.42-1.38-6.89-.25-2.66,1.21-2,4.81,0,6.19A172.54,172.54,0,0,0,320.45,892c4.14,2.28,7.23-3.49,3.61-6.19a26.61,26.61,0,0,0-14.35-5.43c-3.85-.29-4.46,4.82-1.81,6.67a85.57,85.57,0,0,0,10.72,6.45c3.47,1.74,7.73,4.42,11.47,1.91,2.16-1.45,2.47-4.81,0-6.19a70.92,70.92,0,0,0-16.39-6.71c-4.55-1.21-6.13,5.28-1.9,6.91a200.64,200.64,0,0,0,22.14,7.46c4.11,1.06,6-4.25,2.76-6.55a107.51,107.51,0,0,0-18.47-10.63c-4.12-1.86-7.66,3.78-3.61,6.19s7.9,4.82,11.75,7.39c3.42,2.27,7,5.82,11.37,5.54,3-.19,4.85-3.83,2.54-6.12a91.6,91.6,0,0,0-21.35-15.62c-4.06-2.16-7.64,3.89-3.62,6.19,3.78,2.16,7.52,4.37,11.19,6.7,3.32,2.11,6.52,4.74,10.5,5.41,3.16.53,6.49-3.42,3.49-6a26.48,26.48,0,0,0-13.61-6.51c-2.67-.39-6.14,2.43-4.05,5.27a16.39,16.39,0,0,0,9.26,6.36c4,1.05,8.22.86,12.2,2.2,4.4,1.48,6.2-5.37,1.9-6.91-4.06-1.45-8.13-2.86-12.29-4-4.5-1.23-6.2,5.38-1.91,6.92,7.1,2.53,14.47,3.93,22,3.11l-1-7c-2.44.94-5.39-.09-7.91-.44q-4.23-.58-8.49-1c-4.08-.35-4.79,6-.95,7,8,2.12,16,1.36,23.95-.47,4.5-1,2.6-8-1.9-6.91-6.74,1.54-13.37,2.26-20.15.47l-1,7c3.15.27,6.28.63,9.4,1.12s5.95,1.16,8.91,0a3.64,3.64,0,0,0,2.57-3.93c-.22-1.61-1.75-3.3-3.52-3.11-7,.77-13.53-.51-20.11-2.86L332,892.75c4.17,1.14,8.24,2.55,12.3,4l1.9-6.91c-3.28-1.1-6.65-1.27-10-1.78-2.68-.39-5.45-1.21-7.13-3.49l-4,5.26a19.84,19.84,0,0,1,10.45,4.66l3.49-6c-3.6-.6-6.6-3.3-9.61-5.19-3.41-2.14-6.88-4.19-10.37-6.19l-3.62,6.19a84.3,84.3,0,0,1,19.9,14.5l2.53-6.12c-1.61.11-2.92-1.26-4.2-2.15-1.7-1.18-3.42-2.33-5.15-3.47q-5-3.27-10.16-6.33l-3.61,6.19a107.8,107.8,0,0,1,18.46,10.63l2.76-6.55a200.64,200.64,0,0,1-22.14-7.46l-1.9,6.91a63.46,63.46,0,0,1,14.67,6v-6.19c-.38.26-2.57-1.09-3.07-1.34-1.43-.69-2.83-1.41-4.21-2.18a87.45,87.45,0,0,1-7.67-4.84l-1.81,6.68A20.2,20.2,0,0,1,320.45,892l3.61-6.19a172.54,172.54,0,0,1-14.84-9.17v6.19c-.91,0-1,.11-.33.25a3.7,3.7,0,0,0,4.9-1.28c.91-1.52.48-4.13-1.29-4.91Z" transform="translate(-279.6 -657.3)"/><path class="cls-7" d="M328.18,889.1a24.63,24.63,0,0,0,13,3.79c4.86.08,9.62-.95,14.49-.44,1.95.2,3.57-1.79,3.59-3.59a3.66,3.66,0,0,0-3.59-3.58c-8.17-.85-16.45,2.41-23.89-2.37-3.89-2.5-7.49,3.71-3.61,6.19Z" transform="translate(-279.6 -657.3)"/><path class="cls-7" d="M329.93,892.8c4.36.05,8.5-1.2,12.68-2.3s8.65-2.19,13-3.29,2.57-8.05-1.9-6.91c-4,1-8.07,2-12.08,3.05-3.85,1-7.67,2.33-11.68,2.29-4.62,0-4.62,7.11,0,7.16Z" transform="translate(-279.6 -657.3)"/><path class="cls-7" d="M614.4,802.62c-5.4,8.47-5.26,19.73-2.64,29.16S620,849.27,625.9,857c1.19,1.55,3.07,2.33,4.9,1.29,1.53-.87,2.46-3.37,1.29-4.9-5.12-6.7-10.26-13.6-12.88-21.72s-3.34-18,1.37-25.43c2.49-3.9-3.71-7.5-6.18-3.61Z" transform="translate(-279.6 -657.3)"/><path class="cls-10" d="M610.72,841.53c.58,13.73-1.21,26.4-7.28,39-5.54,11.46-13.86,20.38-23.85,28.08" transform="translate(-279.6 -657.3)"/></g><g id="Layer_13" data-name="Layer 13"><path class="cls-11" d="M590,1080l-202-2.2q2.53-30.1,5.08-60.19a37.19,37.19,0,0,1,37.65-34.05l115.07,1.86a37.18,37.18,0,0,1,36.28,32.47Z" transform="translate(-279.6 -657.3)"/></g></svg>