<svg id="Layer_12" data-name="Layer 12" xmlns="http://www.w3.org/2000/svg" viewBox="0 0 485.38 406.55"><defs><style>.cls-1{fill:#fff;stroke:#000;opacity:0.31;}.cls-1,.cls-2,.cls-3{stroke-miterlimit:10;}.cls-1,.cls-3{stroke-width:10px;}.cls-2{fill:none;stroke:#457793;stroke-width:9.76px;}.cls-3{fill:#d3d3d3;stroke:#474747;}</style></defs><title>helmet</title><ellipse class="cls-1" cx="242.88" cy="184" rx="237.5" ry="179"/><ellipse class="cls-2" cx="242.38" cy="184.5" rx="237.5" ry="179"/><path class="cls-3" d="M645,935.76a74.74,74.74,0,0,1-71.66,74.64c-29.25,1.23-59.72,1.82-91.34,1.6-32-.22-62.86-1.26-92.43-2.94a74.65,74.65,0,0,1-70.3-71.51L319,931c25.16,13.88,87.85,44,172,39a317.85,317.85,0,0,0,154-51Z" transform="translate(-231.12 -610.5)"/><line class="cls-3" x1="130.88" y1="342.5" x2="147.88" y2="393.5"/><line class="cls-3" x1="205.88" y1="358.5" x2="218.88" y2="399.5"/><line class="cls-3" x1="298.88" y1="358.5" x2="290.88" y2="396.5"/><line class="cls-3" x1="371.88" y1="332.5" x2="355.88" y2="394.5"/></svg>