<svg id="lARM" xmlns="http://www.w3.org/2000/svg" viewBox="0 0 469.58 324.86"><defs><style>.cls-1{fill:#c6947d;stroke:#2d2721;}.cls-1,.cls-2{stroke-miterlimit:10;stroke-width:10px;}.cls-2{fill:#d3d3d3;stroke:#474747;}</style></defs><title>LeftArm</title><path class="cls-1" d="M58.14,540c-19.34-.71-38.68-1.18-58-.42Q0,533.22-.07,526.87C-.28,510-.48,493.13-1.66,476.32c.61-9.21,1-18.44,1.21-27.66a65.28,65.28,0,0,1,8.92-4.89A1016.52,1016.52,0,0,1,351.08,235.4c34-19.65,76.27-10.23,94.32,21l4.14,7.16A60.62,60.62,0,0,1,456.49,282c.79,4,3.59,18-1.89,32-9.54,24.42-38.13,33.52-41.43,34.52A1424.81,1424.81,0,0,0,96.13,540Z" transform="translate(6.67 -220.14)"/><path class="cls-2" d="M58.16,540c-19.35-.71-38.69-1.18-58-.42Q0,533.22-.07,526.87C-.28,510-.48,493.12-1.66,476.31c.6-9.06,1-18.13,1.2-27.2A1137.32,1137.32,0,0,1,269.6,268.8a161.58,161.58,0,0,0,61.5,119.5A1019.31,1019.31,0,0,0,102.86,540Z" transform="translate(6.67 -220.14)"/><path class="cls-2" d="M229.6,288.8a174.91,174.91,0,0,0,61,120" transform="translate(6.67 -220.14)"/></svg>