<svg id="lHAND" xmlns="http://www.w3.org/2000/svg" viewBox="0 0 309.12 237.4"><defs><style>.cls-1{fill:#d3d3d3;stroke:#56564e;stroke-miterlimit:10;stroke-width:10px;}</style></defs><title>LeftHand</title><path class="cls-1" d="M373.61,291.6c8.53,25.8,14.7,38,19.76,43.27C405.44,347.4,426,351.44,466.57,359c19.67,3.67,38.43,6.15,60.42,6.33,28,.23,39.14-3.52,47.83-9.92s18.56-18.3,15.43-26.51c-1.72-4.52-7-6.93-28.46-10.72-36.81-6.52-53.51-5.15-54.94-10.85-1.31-5.24,11.13-12.81,17.42-15.93,13.94-6.92,23.73-5,36.07-7.15,20.32-3.6,34.06-16.11,41.95-23.28,17-15.44,41.47-50,30-79.09-8.74-22.22-34.08-30.2-56.61-37.3-41.38-13-80.28-3.57-95.9.42-2.4.62-4.57,1.22-6.54,1.8,0,0-4.95,1.46-9.72,3.14-13.11,4.64-62.86,43.31-84.59,59.23-12.59,9.23-15.1,10.32-17.81,15.34C357,232.25,357.7,243.5,373.61,291.6Z" transform="translate(-331.13 -132.96)"/><path class="cls-1" d="M340.1,223.65c-3.61,4-5.28,9.64-2.77,28.29,1.61,12,2.95,21.88,8.18,36.72,7,19.93,15.66,33.38,21.72,42.68,12.33,19,18.74,28.48,30.36,31.6,9.89,2.65,24.12,1.58,28.17-5.14,4.5-7.45-7.07-16.07-19.94-37.61-11.48-19.21-24-48.7-31.53-76.79-3.15-11.76-5.51-23.62-14.67-26.25C353.1,215.28,344.7,218.53,340.1,223.65Z" transform="translate(-331.13 -132.96)"/><line class="cls-1" x1="88.54" y1="210.68" x2="51.5" y2="222.73"/><line class="cls-1" x1="68.87" y1="186.41" x2="36.93" y2="198.44"/><line class="cls-1" x1="52.91" y1="153.69" x2="22.34" y2="163.96"/><path class="cls-1" d="M375.52,252.35l-36,17.34" transform="translate(-331.13 -132.96)"/><path class="cls-1" d="M370,228.83l-34.89,11.45" transform="translate(-331.13 -132.96)"/></svg>