<svg id="rHAND" xmlns="http://www.w3.org/2000/svg" viewBox="0 0 309.12 237.4"><defs><style>.cls-1{fill:#d3d3d3;stroke:#56564e;stroke-miterlimit:10;stroke-width:10px;}</style></defs><title>RightHand</title><path class="cls-1" d="M1541.39,284.8c-8.53,25.8-14.7,38-19.76,43.27-12.07,12.54-32.61,16.58-73.2,24.15-19.67,3.67-38.43,6.15-60.42,6.33-28,.23-39.14-3.52-47.83-9.91s-18.56-18.31-15.43-26.52c1.72-4.52,7-6.92,28.46-10.72,36.81-6.51,53.51-5.14,54.94-10.85,1.31-5.23-11.13-12.8-17.42-15.93-13.94-6.92-23.73-4.95-36.07-7.14-20.32-3.61-34.06-16.12-42-23.29-17-15.43-41.47-50-30-79.08,8.74-22.23,34.08-30.21,56.61-37.3,41.38-13,80.28-3.57,95.9.42,2.4.61,4.57,1.22,6.54,1.8,0,0,5,1.45,9.72,3.14,13.11,4.63,62.86,43.31,84.59,59.23,12.59,9.22,15.1,10.32,17.81,15.34C1558,225.45,1557.3,236.7,1541.39,284.8Z" transform="translate(-1274.75 -126.16)"/><path class="cls-1" d="M1574.9,216.86c3.61,4,5.28,9.64,2.77,28.29-1.61,12-3,21.88-8.18,36.71-7,19.93-15.66,33.38-21.72,42.69-12.33,18.94-18.74,28.48-30.36,31.59-9.89,2.65-24.12,1.58-28.17-5.13-4.5-7.46,7.07-16.08,19.94-37.62,11.48-19.2,24-48.69,31.53-76.78,3.15-11.77,5.51-23.62,14.67-26.25C1561.9,208.49,1570.3,211.74,1574.9,216.86Z" transform="translate(-1274.75 -126.16)"/><line class="cls-1" x1="220.59" y1="210.68" x2="257.63" y2="222.73"/><line class="cls-1" x1="240.26" y1="186.41" x2="272.2" y2="198.44"/><line class="cls-1" x1="256.22" y1="153.69" x2="286.79" y2="163.96"/><path class="cls-1" d="M1539.48,245.55l36,17.34" transform="translate(-1274.75 -126.16)"/><path class="cls-1" d="M1545,222l34.89,11.46" transform="translate(-1274.75 -126.16)"/></svg>