<svg id="rARM" xmlns="http://www.w3.org/2000/svg" viewBox="0 0 469.58 324.86"><defs><style>.cls-1{fill:#c6947d;stroke:#2d2721;}.cls-1,.cls-2{stroke-miterlimit:10;stroke-width:10px;}.cls-2{fill:#d3d3d3;stroke:#474747;}</style></defs><title>RightArm</title><path class="cls-1" d="M1862.86,540c19.34-.71,38.68-1.18,58-.42q.15-6.36.24-12.71c.21-16.84.41-33.74,1.59-50.55-.61-9.21-1-18.44-1.21-27.66a65.28,65.28,0,0,0-8.92-4.89A1016.52,1016.52,0,0,0,1569.92,235.4c-34-19.65-76.27-10.23-94.32,21l-4.14,7.16a60.62,60.62,0,0,0-7,18.43c-.79,4-3.59,18,1.89,32,9.54,24.42,38.13,33.52,41.43,34.52a1424.81,1424.81,0,0,1,317,191.42Z" transform="translate(-1458.09 -220.14)"/><path class="cls-2" d="M1862.84,540c19.35-.71,38.69-1.18,58-.42q.15-6.36.24-12.71c.21-16.85.41-33.75,1.59-50.56-.6-9.06-1-18.13-1.2-27.2A1137.32,1137.32,0,0,0,1651.4,268.8a161.58,161.58,0,0,1-61.5,119.5A1019.31,1019.31,0,0,1,1818.14,540Z" transform="translate(-1458.09 -220.14)"/><path class="cls-2" d="M1691.4,288.8a174.91,174.91,0,0,1-61,120" transform="translate(-1458.09 -220.14)"/></svg>