<svg id="meteor" xmlns="http://www.w3.org/2000/svg" xmlns:xlink="http://www.w3.org/1999/xlink" viewBox="0 0 308.58 157.02"><defs><style>.cls-1,.cls-6{fill:#1a1a1a;}.cls-1,.cls-10,.cls-14,.cls-2,.cls-3,.cls-6,.cls-7,.cls-8{stroke:#000;}.cls-1,.cls-10,.cls-12,.cls-13,.cls-14,.cls-16,.cls-2,.cls-3,.cls-6,.cls-7,.cls-8,.cls-9{stroke-miterlimit:10;}.cls-1{stroke-width:1.03px;}.cls-14,.cls-2,.cls-4,.cls-7{fill:#4d4d4d;}.cls-2{stroke-width:0.83px;}.cls-3{stroke-width:2.08px;fill:url(#radial-gradient);}.cls-5{fill:#666;}.cls-6{stroke-width:1.33px;}.cls-7{stroke-width:1.1px;}.cls-8{stroke-width:2.74px;fill:url(#radial-gradient-2);}.cls-12,.cls-13,.cls-9{stroke:#560303;}.cls-9{stroke-width:2.22px;fill:url(#radial-gradient-3);}.cls-10{fill:#333;}.cls-10,.cls-14{stroke-width:2.77px;}.cls-11{fill:#560303;}.cls-12{stroke-width:2.64px;opacity:0.8;fill:url(#Sky);}.cls-13{stroke-width:2.65px;opacity:0.82;fill:url(#Sky-2);}.cls-15{fill:#ffc0c6;}.cls-16{fill:none;stroke:#ffc0c6;stroke-width:0.22px;}.cls-17{fill:#b8c9ff;}.cls-18{fill:#fcfcfc;}</style><radialGradient id="radial-gradient" cx="1537.69" cy="23.59" fx="1552.4038305186314" fy="30.73527540005506" r="16.35" gradientTransform="translate(1584.28 -1453.55) rotate(90)" gradientUnits="userSpaceOnUse"><stop offset="0" stop-color="#fff"/><stop offset="0.1" stop-color="#e6e4e3"/><stop offset="0.25" stop-color="#c7c4c1"/><stop offset="0.4" stop-color="#afaba6"/><stop offset="0.55" stop-color="#9e9993"/><stop offset="0.7" stop-color="#948f88"/><stop offset="0.87" stop-color="#918b84"/></radialGradient><radialGradient id="radial-gradient-2" cx="1711.78" cy="63.12" r="28.73" gradientTransform="translate(1762.26 -1549.1) rotate(90)" gradientUnits="userSpaceOnUse"><stop offset="0" stop-color="#fff"/><stop offset="0.12" stop-color="#e6e4e3"/><stop offset="0.28" stop-color="#c7c4c1"/><stop offset="0.46" stop-color="#afaba6"/><stop offset="0.63" stop-color="#9e9993"/><stop offset="0.81" stop-color="#948f88"/><stop offset="1" stop-color="#918b84"/></radialGradient><radialGradient id="radial-gradient-3" cx="1685" cy="-34.37" r="225.53" gradientTransform="translate(66.43 -279.5) rotate(12.8)" gradientUnits="userSpaceOnUse"><stop offset="0.02" stop-color="#1a1a1a"/><stop offset="0.03" stop-color="#291a1a"/><stop offset="0.07" stop-color="#4d1919"/><stop offset="0.12" stop-color="#6d1818"/><stop offset="0.18" stop-color="#891717"/><stop offset="0.24" stop-color="#9f1717"/><stop offset="0.31" stop-color="#b01616"/><stop offset="0.39" stop-color="#bb1616"/><stop offset="0.51" stop-color="#c21616"/><stop offset="0.85" stop-color="#c41616"/></radialGradient><linearGradient id="Sky" x1="1685.05" y1="-50.46" x2="1717.91" y2="19.18" gradientTransform="translate(66.43 -279.5) rotate(12.8)" gradientUnits="userSpaceOnUse"><stop offset="0" stop-color="#cce0f4"/><stop offset="0.06" stop-color="#c3dcf2"/><stop offset="0.17" stop-color="#a9d2ee"/><stop offset="0.31" stop-color="#80c2e7"/><stop offset="0.46" stop-color="#47acde"/><stop offset="0.57" stop-color="#1e9cd7"/><stop offset="0.87" stop-color="#0075be"/><stop offset="0.99" stop-color="#005b97"/></linearGradient><linearGradient id="Sky-2" x1="1622.62" y1="-40.52" x2="1619.05" y2="0.9" xlink:href="#Sky"/></defs><title>Car</title><ellipse class="cls-1" cx="1566.61" cy="85.2" rx="22.59" ry="27.97" transform="translate(-1545.79 54.92) rotate(-3.35)"/><path class="cls-2" d="M1576.31,86.32c1.89-13.66-3.48-25.68-12-26.86s-17,8.93-18.84,22.59,3.48,25.69,12,26.87S1574.42,100,1576.31,86.32Zm-4.91,4.55a19.62,19.62,0,0,1-3.1,7c0,.08-.11.14-.16.21a9.47,9.47,0,0,1-3.43,4.94,6.41,6.41,0,0,1-1.72.81c-1.51,1.17-4.27.72-6,.15a9.84,9.84,0,0,1-5.72-5.31,7.91,7.91,0,0,1-2-6.14,16.34,16.34,0,0,1-.73-3.09,12.48,12.48,0,0,1,.12-4,8.63,8.63,0,0,1-.07-2.21,13.59,13.59,0,0,1,.26-2.84,1.34,1.34,0,0,1,.16-.44,17.88,17.88,0,0,1,.29-2c.44-2.22,1.47-5.6,3.35-7.6a1.17,1.17,0,0,1,.42-1.08,9.69,9.69,0,0,1,1-.8,7.12,7.12,0,0,1,3.91-2.72,6.62,6.62,0,0,1,.83-.51,1.22,1.22,0,0,1,1.06-.51,2.48,2.48,0,0,1,.87-.11,6.43,6.43,0,0,1,2.47.13c2.15,0,4.54,1.57,5.87,3a8.69,8.69,0,0,1,1.65,2.44,10.91,10.91,0,0,1,1.69,2.77,1.19,1.19,0,0,1,.11.62l.06.18a2,2,0,0,0,.1.21c1.17,1.61,1.2,3.94,1,5.94a11.39,11.39,0,0,1-1.13,6.24A15.25,15.25,0,0,1,1571.4,90.87Z" transform="translate(-1543.49 -36.81)"/><ellipse class="cls-3" cx="1560.69" cy="84.14" rx="19.48" ry="12.48" transform="translate(-410.58 1550.61) rotate(-77.2)"/><path class="cls-4" d="M1565.67,102.07a38.81,38.81,0,0,1-9.44,4.67c-.47.15-.27.89.2.73a39.75,39.75,0,0,0,9.63-4.74c.4-.27,0-.93-.39-.66Z" transform="translate(-1543.49 -36.81)"/><path class="cls-5" d="M1561.48,106.09a6.13,6.13,0,0,0,5.89-3l-8,3.15" transform="translate(-1543.49 -36.81)"/><path class="cls-4" d="M1561.48,106.51a6.67,6.67,0,0,0,6.25-3.2c.18-.28-.12-.74-.47-.61l-8,3.14c-.49.2-.28,1,.22.81l8-3.14-.47-.62a5.86,5.86,0,0,1-5.53,2.79c-.54,0-.54.79,0,.83Z" transform="translate(-1543.49 -36.81)"/><path class="cls-4" d="M1568.89,99.57c-1.12,2.62-3.52,4.16-5.86,5.59a.41.41,0,0,0,.42.71c2.45-1.49,5-3.14,6.16-5.88.2-.49-.51-.91-.72-.42Z" transform="translate(-1543.49 -36.81)"/><path class="cls-4" d="M1567.68,101.35a12.94,12.94,0,0,1-7.6,5.21.42.42,0,0,0,.22.8,13.77,13.77,0,0,0,8.1-5.59c.3-.44-.42-.85-.72-.42Z" transform="translate(-1543.49 -36.81)"/><path class="cls-4" d="M1568.45,100.27a10.21,10.21,0,0,1-4.7,4.3c-.48.22-.06.94.42.72a10.86,10.86,0,0,0,5-4.6.41.41,0,0,0-.71-.42Z" transform="translate(-1543.49 -36.81)"/><path class="cls-4" d="M1568,100.12a33,33,0,0,0-3,3.58c-.31.44.41.85.72.42a30.92,30.92,0,0,1,2.86-3.41c.37-.39-.22-1-.59-.59Z" transform="translate(-1543.49 -36.81)"/><ellipse class="cls-6" cx="1717.79" cy="149.12" rx="29.6" ry="35.64" transform="translate(-1549.26 63.86) rotate(-3.35)"/><path class="cls-7" d="M1730.1,150.71c2.49-18-4.58-33.84-15.8-35.39s-22.33,11.77-24.82,29.76,4.58,33.84,15.8,35.39S1727.61,168.7,1730.1,150.71Zm-6.46,6a26.3,26.3,0,0,1-4.08,9.28l-.22.27a12.45,12.45,0,0,1-4.51,6.5,7.88,7.88,0,0,1-2.28,1.07c-2,1.53-5.61.94-7.86.2-3.77-1.25-5.9-3.85-7.54-7a10.43,10.43,0,0,1-2.61-8.08,21.89,21.89,0,0,1-1-4.07,16.63,16.63,0,0,1,.16-5.27,10.93,10.93,0,0,1-.09-2.91,17.61,17.61,0,0,1,.33-3.75,2,2,0,0,1,.22-.58,22.41,22.41,0,0,1,.37-2.68c.59-2.92,1.94-7.37,4.43-10a1.51,1.51,0,0,1,.54-1.42,17,17,0,0,1,1.35-1.06,9.39,9.39,0,0,1,5.15-3.58,8.42,8.42,0,0,1,1.09-.67,1.62,1.62,0,0,1,1.4-.67,3.56,3.56,0,0,1,1.15-.15,8.5,8.5,0,0,1,3.25.18c2.83,0,6,2.07,7.73,3.91a11.77,11.77,0,0,1,2.18,3.21,15.32,15.32,0,0,1,2.22,3.64,1.73,1.73,0,0,1,.15.83,2.25,2.25,0,0,0,.08.24l.12.27c1.55,2.12,1.59,5.19,1.36,7.82.45,2.53-.29,5.45-1.48,8.22A20.21,20.21,0,0,1,1723.64,156.7Z" transform="translate(-1543.49 -36.81)"/><ellipse class="cls-8" cx="1709.53" cy="147.84" rx="25.65" ry="16.43" transform="translate(-356.82 1745.34) rotate(-77.2)"/><path class="cls-4" d="M1716.09,171.45a51.5,51.5,0,0,1-12.44,6.15c-.61.2-.35,1.17.27,1a52.29,52.29,0,0,0,12.68-6.24c.53-.36,0-1.23-.51-.87Z" transform="translate(-1543.49 -36.81)"/><path class="cls-5" d="M1710.56,176.75a8.1,8.1,0,0,0,7.77-3.94L1707.81,177" transform="translate(-1543.49 -36.81)"/><path class="cls-4" d="M1710.56,177.29a8.81,8.81,0,0,0,8.24-4.2c.24-.38-.16-1-.61-.81l-10.53,4.14c-.65.26-.36,1.32.29,1.06l10.53-4.14-.62-.81a7.73,7.73,0,0,1-7.3,3.67c-.7,0-.7,1,0,1.09Z" transform="translate(-1543.49 -36.81)"/><path class="cls-4" d="M1720.33,168.16c-1.47,3.44-4.63,5.47-7.72,7.35a.55.55,0,0,0,.56,1c3.22-2,6.56-4.14,8.1-7.75.28-.64-.67-1.2-.94-.55Z" transform="translate(-1543.49 -36.81)"/><path class="cls-4" d="M1718.74,170.5a17,17,0,0,1-10,6.86.55.55,0,0,0,.29,1.06,18.15,18.15,0,0,0,10.67-7.36c.41-.58-.54-1.13-.94-.56Z" transform="translate(-1543.49 -36.81)"/><path class="cls-4" d="M1719.75,169.07a13.35,13.35,0,0,1-6.19,5.67c-.64.3-.08,1.24.56.95a14.39,14.39,0,0,0,6.57-6.06c.35-.62-.6-1.17-.94-.56Z" transform="translate(-1543.49 -36.81)"/><path class="cls-4" d="M1719.17,168.88a42.29,42.29,0,0,0-3.94,4.72c-.41.57.54,1.12,1,.55a42.48,42.48,0,0,1,3.76-4.5c.49-.5-.28-1.28-.77-.77Z" transform="translate(-1543.49 -36.81)"/><path class="cls-9" d="M1843.84,188.05a126.9,126.9,0,0,1-17.88,3.62c-18.49,2.37-33.66.06-43.48-1.35-4.93-.71-3.22-.72-12.55-2.28-9.71-1.63-19.17-4.75-29-5.87-2.44-.28-6.36-.65-7.53-3.13-1-2.15.52-4.82,1-5.74,4.43-8.12,8-25.41,6.45-34.64-1.92-11.15-13-22.62-24.64-22.94-10.24-.28-17.83,8-19.07,9.46-11.21,12.73-6.38,30.33-14.12,32.75-2.21.7-4.13-.23-7.78-2.05-9.4-4.67-19.68-7.67-28.53-13.3-8.39-5.33-27.57-14.65-76-32.05a37.15,37.15,0,0,0,10.55-18.93c.75-3.59,2.31-11.61-1.71-20-3.22-6.73-10.7-15.09-18.6-14.47s-12.79,10-13.52,9.44c-.53-.38,2-5.34,13.82-23.3,6.85-.18,17.46-.55,30.44-1.33,34.58-2.07,39-4.23,54.93-4,18.55.27,31.31,3.56,56.84,10.07,34.74,8.87,45.91,16.65,49.27,19a117.54,117.54,0,0,1,18.66,16.75,102.67,102.67,0,0,1,8.1,10.65,63.77,63.77,0,0,0,5.92,6.47,55.88,55.88,0,0,0,7.19,5.89,49.12,49.12,0,0,0,12.68,6.15c1.3.12,29.64,3,40.5,25.69,1.78,3.71,7.83,16.32,3.63,27.84-.86,2.36-3.7,6.43-5,13.08A38.72,38.72,0,0,0,1843.84,188.05Z" transform="translate(-1543.49 -36.81)"/><path class="cls-10" d="M1843.57,181.74l-45.68-.43-12.48,7.4a116.16,116.16,0,0,0,33.57,3.65,115.23,115.23,0,0,0,24.4-3.56C1843.45,186.45,1843.51,184.09,1843.57,181.74Z" transform="translate(-1543.49 -36.81)"/><path class="cls-11" d="M1631,63.1a70,70,0,0,1-12.9,4.85c-2,.61-3.87,1.28-4.93,3.23-2.71,4.94,1.6,12.44,2.58,17.3.89,4.4,2.94,12.28-.08,16.44-1.29,1.78-3.57,2.81-4.12,5.14a4.32,4.32,0,0,0,.93,3.71c.69,1,1.87,1.59,2.57,2.56,2.29,3.19,1,7.27.48,10.68-.08.52.72.75.8.22.64-4,2.19-8.12-.69-11.48-.58-.58-1.17-1.14-1.77-1.7l.52-6.75c.55-1,2-1.71,2.66-2.79,1-1.7,1-3.34.89-5.3a81,81,0,0,0-3.71-19.74c-.29-.85-.53-1.7-.74-2.56-1.12-3-.33-5,2.39-6.17,2.44-2,3.63-2.19,6.47-3.06a50.67,50.67,0,0,0,9.07-3.86c.47-.26,0-1-.42-.72Z" transform="translate(-1543.49 -36.81)"/><path class="cls-11" d="M1698.35,85.81a36.39,36.39,0,0,1-13.28,3c-.53,0-.53.86,0,.83a37.42,37.42,0,0,0,13.7-3.14c.49-.22.07-.93-.42-.72Z" transform="translate(-1543.49 -36.81)"/><path class="cls-11" d="M1684.68,89.5c.62,1.29,2,3.36,1.94,4.84,0,1.69-2.42,4.6-3.15,5.79a12.33,12.33,0,0,0-1.6,2.5c-1.86,4.89-2.43,10.86-3.08,16.05-1.51,12-4.27,23.68-5.14,35.8,0,.53.79.53.83,0,1-13.68,3.49-27.38,5.86-40.87a64.62,64.62,0,0,1,1.92-9.19c.86-2.57,2.39-3.42,4-5.29,2.66-3,.62-6.95-.88-10-.24-.48-1-.06-.72.42Z" transform="translate(-1543.49 -36.81)"/><path class="cls-11" d="M1754.33,144.83a38.37,38.37,0,0,1,1.67,13.44c-.06,2.79-.2,4.59,1.71,6.86,1.7,2,4.27,3.11,6.58,4.26l12.71,6.23c.48.23.9-.49.42-.72l-10.16-5c-2.87-1.4-6.15-2.58-8.32-5-3-3.35-1.9-7.64-2.24-11.83a33.41,33.41,0,0,0-1.57-8.49c-.18-.51-1-.29-.8.22Z" transform="translate(-1543.49 -36.81)"/><path class="cls-11" d="M1741.78,177.28A174.12,174.12,0,0,0,1784,191.21c.52.1.75-.7.22-.81a173,173,0,0,1-42-13.84c-.48-.23-.9.49-.42.72Z" transform="translate(-1543.49 -36.81)"/><path class="cls-11" d="M1799.14,181c-6.67.66-13.45,1.73-20.17,1.62-8.71-.15-17.6-2.16-26-4.17-.52-.12-.74.68-.22.8,8.31,2,17,3.91,25.61,4.18,6.93.22,14-.92,20.83-1.6.53-.05.53-.88,0-.83Z" transform="translate(-1543.49 -36.81)"/><path class="cls-11" d="M1755.72,152.48c16,6.11,32.75,12.09,49.7,14.87a111.2,111.2,0,0,0,45.39-2.21.42.42,0,0,0-.22-.8,110.66,110.66,0,0,1-48.41,1.59c-15.75-3.06-31.27-8.54-46.24-14.25-.5-.19-.71.62-.22.8Z" transform="translate(-1543.49 -36.81)"/><path d="M1808.4,113.64a54.2,54.2,0,0,1,30.6,35.85.42.42,0,0,0,.81-.22,55,55,0,0,0-31-36.35c-.48-.22-.91.5-.42.72Z" transform="translate(-1543.49 -36.81)"/><path class="cls-11" d="M1792.76,108.44l46.37,41.36c.4.36,1-.23.59-.59l-46.38-41.36c-.39-.36-1,.23-.58.59Z" transform="translate(-1543.49 -36.81)"/><path class="cls-11" d="M1587.66,95.3q40.52,23.11,81.91,44.66c.48.25.9-.47.42-.71q-41.38-21.56-81.92-44.67a.41.41,0,0,0-.41.72Z" transform="translate(-1543.49 -36.81)"/><path class="cls-11" d="M1597,96.45a108,108,0,0,1,39.15,17.82c.44.31.85-.41.42-.72a108.68,108.68,0,0,0-39.35-17.91c-.52-.12-.74.69-.22.81Z" transform="translate(-1543.49 -36.81)"/><path class="cls-11" d="M1645.25,120.49a164.25,164.25,0,0,1,16.22,10.92c.42.33.84-.4.42-.72a165.43,165.43,0,0,0-16.22-10.92.42.42,0,0,0-.42.72Z" transform="translate(-1543.49 -36.81)"/><path class="cls-11" d="M1616,117.09q8.44,3.91,17.17,7.2c.5.19.72-.61.22-.8q-8.62-3.24-17-7.12c-.49-.22-.91.5-.42.72Z" transform="translate(-1543.49 -36.81)"/><path class="cls-11" d="M1601.87,108.19q6.95,4.56,14.18,8.62a.41.41,0,0,0,.42-.71q-7.24-4.06-14.18-8.63c-.45-.3-.87.42-.42.72Z" transform="translate(-1543.49 -36.81)"/><path class="cls-11" d="M1702.31,100.39c11.54.57,22.86,5.66,33,10.93,9.5,4.93,18.51,14.59,23.14,24.25.23.49,1,.06.72-.42-4.76-9.91-13.69-19.48-23.44-24.55-10.24-5.34-21.74-10.46-33.41-11-.54,0-.54.81,0,.83Z" transform="translate(-1543.49 -36.81)"/><path d="M1780.41,103c5.64,6.73,13.55,10.32,21.46,13.71.49.21.91-.51.42-.72-7.84-3.36-15.69-6.9-21.3-13.58-.34-.41-.93.18-.58.59Z" transform="translate(-1543.49 -36.81)"/><path class="cls-11" d="M1676.06,52.81c-11.8-10.06-26.7-13.84-41.87-15.17-.53,0-.53.79,0,.83,14.92,1.31,29.66,5,41.28,14.93.41.34,1-.24.59-.59Z" transform="translate(-1543.49 -36.81)"/><path class="cls-11" d="M1612.84,51a25.13,25.13,0,0,1-5.9-4.1c-1.63-1.65-2-3.8.16-5.16a10.77,10.77,0,0,1,3.44-.89c.52-.09.3-.9-.23-.8-3,.53-6.35,1.26-5.63,5.11.27,1.45,1.72,2.42,2.79,3.28a32.67,32.67,0,0,0,5,3.28c.47.26.89-.46.42-.72Z" transform="translate(-1543.49 -36.81)"/><path class="cls-11" d="M1557.15,55.14c6.79-4,14.28-1.39,19.23,4.17.36.4.94-.19.59-.59-5.22-5.85-13.15-8.53-20.24-4.3a.42.42,0,0,0,.42.72Z" transform="translate(-1543.49 -36.81)"/><path class="cls-12" d="M1769.42,106.65c-32.18-5.06-41.91-7.52-62.94-11.29a4.13,4.13,0,0,1-2.67-1.7L1679,58.44c-1.72-2-3.81-4.91-2.91-6.49,1.13-2,6.31-.92,10.84,0,12.15,2.54,22,4.64,27.12,5.88,8.73,2.14,9.31,2.14,13.86,3.42,8.85,2.5,13.27,3.75,16.85,5.73,4.93,2.73,8.84,6.78,16.67,14.9,2.35,2.43,4.52,4.91,8.87,9.87,10.5,12,11.3,13.82,10.71,14.9C1780.09,108.38,1776,107.68,1769.42,106.65Z" transform="translate(-1543.49 -36.81)"/><path class="cls-13" d="M1616.42,44.86a3.94,3.94,0,0,1,.48-.18,61,61,0,0,1,50.2,8.63,2.74,2.74,0,0,1,.45.39A73.57,73.57,0,0,1,1678.76,70a76,76,0,0,1,6.45,18.23,2.72,2.72,0,0,1-3.93,3.07l-68-40.12a2.83,2.83,0,0,1,.25-4.92Z" transform="translate(-1543.49 -36.81)"/><path class="cls-10" d="M1795.9,157.55l-41.31-13.37q-3.43-6.18-6.86-12.36l31.86,14.92Z" transform="translate(-1543.49 -36.81)"/><path class="cls-14" d="M1844.59,159.09l3.22-2.26,2.69-.33a17.68,17.68,0,0,0-2-11Z" transform="translate(-1543.49 -36.81)"/><path class="cls-15" d="M1680.85,101.8a51.89,51.89,0,0,0-5.79,14.31c-.2.81,1,1.16,1.25.35a50.76,50.76,0,0,1,5.66-14,.65.65,0,0,0-1.12-.65Z" transform="translate(-1543.49 -36.81)"/><path class="cls-15" d="M1635.69,67.14c-1-1.44-2.23-1.49-3.85-.87-2.08.79-4,2.24-6,3.12-2.38,1-4.76,1.59-7.2,2.37-1.68.53-3.31,1.37-3.06,3.38a4.09,4.09,0,0,0,1.19,2c.3.39.9.56,1.25.9,2.68,2.7,4.3,5.9.31,8.69-.68.47,0,1.59.65,1.12,3.09-2.16,4.26-6.14,1.7-9.28-1.09-1.34-4.91-2.69-2.18-5.42.81-.82,4-1.07,5.09-1.47,1.73-.6,10-5.37,11-3.88.48.68,1.6,0,1.12-.65Z" transform="translate(-1543.49 -36.81)"/><path class="cls-15" d="M1688.76,98c-1.19,2.56-3.86,3.61-5.19,5.93-.94,1.64-.64,4.73-.82,6.46a186.38,186.38,0,0,1-3.94,22.74c-.1.41.53.58.62.17,1.42-6,2.59-12.12,3.41-18.27.49-3.63.52-6.8,2.21-10.11,1.26-2.49,3.1-4.07,4.27-6.59.18-.38-.38-.71-.56-.33Z" transform="translate(-1543.49 -36.81)"/><path class="cls-15" d="M1689.58,100.87a14.18,14.18,0,0,0-3.22,4.23c-.18.37.38.7.56.33a13.61,13.61,0,0,1,3.12-4.1c.31-.28-.15-.74-.46-.46Z" transform="translate(-1543.49 -36.81)"/><path class="cls-15" d="M1689.4,130.07a17.75,17.75,0,0,1,5.5-7.13c.33-.25-.13-.71-.46-.46a18.16,18.16,0,0,0-5.6,7.26c-.16.38.4.71.56.33Z" transform="translate(-1543.49 -36.81)"/><path class="cls-15" d="M1688.55,91.73a21.73,21.73,0,0,0,10.86-2c.37-.17,0-.73-.33-.56a21,21,0,0,1-10.53,1.9c-.41,0-.41.62,0,.65Z" transform="translate(-1543.49 -36.81)"/><path class="cls-15" d="M1686.66,87.5l3.34-.67c.41-.08.23-.7-.17-.62l-3.35.67c-.4.08-.23.7.18.62Z" transform="translate(-1543.49 -36.81)"/><path class="cls-15" d="M1685.33,84.54l2.33-.35c.42-.06.24-.68-.17-.62l-2.34.35c-.41.06-.23.68.18.62Z" transform="translate(-1543.49 -36.81)"/><path class="cls-15" d="M1621,75a8.74,8.74,0,0,1,4.18,6.5c0,.41.7.42.65,0a9.46,9.46,0,0,0-4.5-7.06c-.36-.22-.68.34-.33.56Z" transform="translate(-1543.49 -36.81)"/><path class="cls-15" d="M1617.56,105.28l-2.31,1.52a.33.33,0,0,0,.08.59,71.21,71.21,0,0,1,9.54,4.54c.36.2.69-.36.33-.56a71.07,71.07,0,0,0-9.7-4.6l.08.59,2.31-1.52c.34-.23,0-.79-.33-.56Z" transform="translate(-1543.49 -36.81)"/><path class="cls-15" d="M1613.23,111.82l8.66,4.07c.38.18.71-.38.33-.56l-8.66-4.07c-.38-.17-.71.38-.33.56Z" transform="translate(-1543.49 -36.81)"/><path class="cls-15" d="M1612.93,112.38a8.63,8.63,0,0,0,3.32,4.1c.35.23.68-.33.33-.56a7.87,7.87,0,0,1-3-3.71c-.15-.39-.77-.22-.62.17Z" transform="translate(-1543.49 -36.81)"/><path class="cls-15" d="M1598.94,99.8a74.91,74.91,0,0,1,13,6.66c.35.23.67-.33.32-.56a74.81,74.81,0,0,0-13.12-6.72c-.38-.16-.55.47-.17.62Z" transform="translate(-1543.49 -36.81)"/><path class="cls-15" d="M1611.89,106.2l2.66-1.69c.35-.22,0-.78-.33-.56l-2.66,1.7c-.35.22,0,.78.33.55Z" transform="translate(-1543.49 -36.81)"/><path class="cls-15" d="M1609.92,112.78a11.05,11.05,0,0,1-1.26-4.37.33.33,0,0,0-.24-.32,53.42,53.42,0,0,1-9.15-4.31.33.33,0,0,0-.33.56,53.25,53.25,0,0,0,6.92,3.47c1.4.57,1.87.67,2.32,2a20.9,20.9,0,0,0,1.18,3.27c.19.37.75,0,.56-.33Z" transform="translate(-1543.49 -36.81)"/><path class="cls-15" d="M1559.6,51.22c7.5-1.27,16.4-.09,19.4,8,.14.39.77.22.63-.17-3.13-8.44-12.3-9.82-20.2-8.49-.41.07-.24.7.17.63Z" transform="translate(-1543.49 -36.81)"/><path class="cls-15" d="M1610.37,42.37a3.5,3.5,0,0,0-5,2.39c-.51,3.43,3.86,5.71,6.64,6.09.41.06.58-.57.17-.63a7.66,7.66,0,0,1-5.69-3.39,2.74,2.74,0,0,1,3.59-3.9c.37.2.69-.36.33-.56Z" transform="translate(-1543.49 -36.81)"/><path class="cls-15" d="M1653.28,123a32.45,32.45,0,0,1,10.81,8.43c.27.32.73-.14.46-.46a32.7,32.7,0,0,0-11-8.53c-.37-.18-.7.38-.32.56Z" transform="translate(-1543.49 -36.81)"/><path class="cls-15" d="M1619.94,112.76q21.19,9.61,41.36,21.22a.33.33,0,0,0,.33-.56q-20.16-11.61-41.36-21.22c-.38-.17-.71.39-.33.56Z" transform="translate(-1543.49 -36.81)"/><path class="cls-15" d="M1618.37,121a6.66,6.66,0,0,1-1.56,5.67c-.28.32.18.78.45.46a7.35,7.35,0,0,0,1.73-6.3c-.07-.41-.7-.24-.62.17Z" transform="translate(-1543.49 -36.81)"/><path class="cls-15" d="M1618.46,86.87l.55,7c0,.41.68.41.65,0l-.55-7c0-.42-.69-.42-.65,0Z" transform="translate(-1543.49 -36.81)"/><path class="cls-15" d="M1769.58,162.37A184.86,184.86,0,0,0,1845,171c1.23-.11,1.24-2.06,0-1.94a183.38,183.38,0,0,1-74.88-8.6c-1.19-.39-1.7,1.48-.52,1.87Z" transform="translate(-1543.49 -36.81)"/><path class="cls-15" d="M1799,173.6a203,203,0,0,0,41.71,2.62c1.24-.05,1.25-2,0-1.94a200.83,200.83,0,0,1-41.2-2.55c-1.22-.21-1.75,1.66-.51,1.87Z" transform="translate(-1543.49 -36.81)"/><path class="cls-15" d="M1801.29,114.61a96.72,96.72,0,0,0,9.83,3.92c3.93,1.29,6,2.15,8.86,5,5.44,5.42,10.38,10.49,14.25,17.23a1,1,0,0,0,1.67-1,73.1,73.1,0,0,0-13.45-16.58c-2.3-2.21-3.28-4.32-6.31-5.18a92.84,92.84,0,0,1-13.87-5.07c-1.13-.52-2.12,1.16-1,1.68Z" transform="translate(-1543.49 -36.81)"/><path class="cls-16" d="M1794,50" transform="translate(-1543.49 -36.81)"/><path class="cls-15" d="M1815.21,122.71a97.55,97.55,0,0,1,12.07,10.91c.28.31.74-.15.45-.46a97.91,97.91,0,0,0-12.19-11c-.33-.26-.66.31-.33.56Z" transform="translate(-1543.49 -36.81)"/><path class="cls-15" d="M1746.65,156.49c.39,1.69,1.55,3.61,1.5,5.36-.06,2-1.91,3.05-2.46,4.79a4.82,4.82,0,0,0,1.28,4.83c.29.3.75-.16.46-.46-2.19-2.34-.82-4.14.43-6.47a5.28,5.28,0,0,0,.87-1.78c.43-2.14-1-4.42-1.45-6.44-.1-.41-.72-.24-.63.17Z" transform="translate(-1543.49 -36.81)"/><path class="cls-15" d="M1777,169.21l18.75,2.73c.41.06.59-.56.18-.62l-18.76-2.74c-.41-.06-.58.57-.17.63Z" transform="translate(-1543.49 -36.81)"/><path class="cls-15" d="M1800.79,113.47l-.5-.41-.39.51c.51.22,1,.42,1.54.6a.33.33,0,0,0,.25-.6,12.25,12.25,0,0,0-1.64-.77c-.37-.14-.52.4-.25.59a6.26,6.26,0,0,0,1.88.94c.41.12.55-.48.18-.63-.71-.29-1.4-.59-2.09-.92-.38-.17-.71.38-.33.56.7.34,1.38.7,2.06,1.08l.32-.56-1.47-.83c-.31-.18-.67.25-.39.5a5.82,5.82,0,0,0,1.35,1,.33.33,0,0,0,.33-.56,10.82,10.82,0,0,0-1.08-.67.33.33,0,0,0-.39.51,1.46,1.46,0,0,0,.8.64.32.32,0,0,0,.32-.56c-.52-.4-1-.76-1.61-1.11-.36-.23-.64.31-.32.56a15.56,15.56,0,0,0,1.66,1.12c.31.18.69-.27.4-.51a27.45,27.45,0,0,0-2.93-2,.32.32,0,0,0-.4.5A11.58,11.58,0,0,0,1800,114c.3.2.67-.27.39-.51l-2.54-2.12c-.32-.27-.78.18-.46.45a16.9,16.9,0,0,0,2.11,1.56c.36.22.67-.33.33-.56-1-.68-2.76-1.51-3.37-2.57l-.45.44c2,1.14,4.07,2.25,6.14,3.31l.25-.59L1799,112c-.34-.13-.57.43-.24.6a13,13,0,0,0,4.13,1.34c.33,0,.61-.42.25-.59-1.27-.6-2.57-1.14-3.89-1.63-.35-.13-.56.41-.25.59a17.49,17.49,0,0,0,3.4,1.43l.09-.64c-1.07-.13-2.12-.3-3.17-.53a.32.32,0,0,0-.25.59,11.47,11.47,0,0,0,5,1.58c.41.06.58-.57.17-.62a11.41,11.41,0,0,1-4.9-1.51l-.24.59a33.7,33.7,0,0,0,3.34.55c.37,0,.41-.53.08-.64a17,17,0,0,1-3.24-1.35l-.25.59c1.27.46,2.51,1,3.73,1.56l.25-.59a12.7,12.7,0,0,1-4-1.28l-.25.59,3.48,1.41c.34.14.57-.43.25-.59-2.07-1.06-4.11-2.16-6.14-3.3a.32.32,0,0,0-.44.44c.72,1.25,2.44,2,3.6,2.8l.33-.56a17.64,17.64,0,0,1-2-1.45l-.46.45,2.54,2.13.39-.51a12.49,12.49,0,0,1-1.8-1.44l-.39.51a25,25,0,0,1,2.8,1.89l.39-.51a16.77,16.77,0,0,1-1.67-1.12l-.32.56c.55.35,1.09.71,1.61,1.11l.32-.56-.66-.54-.39.51a10.67,10.67,0,0,1,1.07.67l.33-.56a3.83,3.83,0,0,1-1.22-.85l-.4.51,1.48.83c.36.2.69-.36.32-.56-.67-.38-1.35-.74-2-1.08l-.33.56c.74.35,1.49.68,2.24,1l.18-.63a5.29,5.29,0,0,1-1.73-.86l-.25.59a7.5,7.5,0,0,1,1.49.7l.25-.59a11.06,11.06,0,0,1-1.39-.53c-.32-.13-.69.24-.4.51a3.5,3.5,0,0,0,.64.51c.34.24.66-.32.32-.56Z" transform="translate(-1543.49 -36.81)"/><path class="cls-15" d="M1797.47,111.86a17.44,17.44,0,0,0,5.73,3c.4.12.57-.51.17-.63a16.56,16.56,0,0,1-5.45-2.82c-.32-.25-.78.2-.45.46Z" transform="translate(-1543.49 -36.81)"/><path class="cls-15" d="M1797.55,112.22a10,10,0,0,0,5.48,2.41c.41.06.58-.56.17-.63-1.76-.29-3.93-.9-5.2-2.24-.28-.3-.74.16-.45.46Z" transform="translate(-1543.49 -36.81)"/><path class="cls-15" d="M1799.74,113.86a9.44,9.44,0,0,0,3.78,1c.42,0,.42-.62,0-.65a8.46,8.46,0,0,1-3.45-.94c-.37-.19-.7.37-.33.56Z" transform="translate(-1543.49 -36.81)"/><path class="cls-15" d="M1753.09,129.54c.08.19-.27.65-.27.89a1,1,0,0,0,.4.75c.35.32.73.61,1.09.91s.45.42.78.37c.55-.08.65-.75.51-1.19a5.68,5.68,0,0,0-1.57-1.85.33.33,0,0,0-.55.23,2.3,2.3,0,0,0,1,2.11c.3.22.65-.26.39-.51l-1.2-1.14-.45.46.87.82.39-.51a1.38,1.38,0,0,1-.67-1.61l-.6.07.64,1.25c.12.23.72,1.09.58,1.36s.37.7.56.33,0-.85-.21-1.29l-1-2a.33.33,0,0,0-.59.07,2,2,0,0,0,1,2.35.33.33,0,0,0,.4-.51l-.88-.82c-.3-.28-.76.17-.45.46l1.19,1.14.39-.51a1.67,1.67,0,0,1-.69-1.55l-.56.23c.37.37.77.73,1.12,1.13,0,.05.46.59.33.68s-.68-.42-.8-.51a3.66,3.66,0,0,1-.66-.57c-.14-.22,0-.36.06-.57a1,1,0,0,0,0-.83c-.16-.38-.72-.05-.56.33Z" transform="translate(-1543.49 -36.81)"/><path class="cls-15" d="M1745.63,154a1,1,0,0,0,.45.6.33.33,0,0,0,.44-.12.72.72,0,0,0-.13-1,.34.34,0,0,0-.55.15,1.18,1.18,0,0,0,.05.72c.14.39.77.22.62-.17a.5.5,0,0,1,0-.38l-.54.14,0,.17.44-.11-.14-.21a.33.33,0,0,0-.63.17Z" transform="translate(-1543.49 -36.81)"/><path class="cls-15" d="M1765.46,160a.78.78,0,0,0,1.48.37.77.77,0,0,0-1.12-1,.74.74,0,0,0,.52,1.32.81.81,0,0,0,0-1.57c-.74-.22-1.7.77-1.14,1.46s1.62,0,1.7-.65-1.47-.84-1.89-.41-.26,1.44.49,1.43a1.31,1.31,0,0,0,1.1-.73.7.7,0,0,0-.42-1c-.77-.22-2.07.74-1.14,1.41.33.24.66-.32.32-.56,0,0,.49-.32.6-.23s-.17.29-.22.32c-.39.26-.44-.29,0-.33.24,0,.65,0,.26.2-.24.13-.42-.07-.17-.25l.31-.08c.06.24,0,.31-.06.2a.33.33,0,0,0-.65,0Z" transform="translate(-1543.49 -36.81)"/><path class="cls-15" d="M1774,168a.42.42,0,0,0-.32.69c.38.42.74-.12.92-.41a.33.33,0,0,0-.56-.33.51.51,0,0,0-.11.22l.28.16-.21.32c.41,0,.41-.6,0-.65Z" transform="translate(-1543.49 -36.81)"/><path class="cls-15" d="M1843,174.86l0,0c0,.41.67.42.65,0a.61.61,0,0,0-.6-.61c-.41,0-.41.61,0,.65Z" transform="translate(-1543.49 -36.81)"/><path class="cls-15" d="M1695.62,121.5c.17-.08.29.3.33.4.14.39.76.23.62-.17-.19-.57-.62-1.11-1.28-.79-.37.19,0,.75.33.56Z" transform="translate(-1543.49 -36.81)"/><path class="cls-15" d="M1679,134.51a1.11,1.11,0,0,0-.77,1.58c.13.3.62.15.6-.16a2.25,2.25,0,0,1,.08-.73l-.64-.09,0,1.2a.32.32,0,0,0,.64,0v-.74h-.65a2,2,0,0,1-.21,1.05l.6.16,0-.25c-.06-.41-.7-.42-.65,0l0,.25c0,.29.44.49.61.17a2.66,2.66,0,0,0,.3-1.38.33.33,0,0,0-.65,0v.74h.64l0-1.2a.32.32,0,0,0-.63-.08,2.75,2.75,0,0,0-.11.9l.61-.16a.47.47,0,0,1,.38-.64c.41-.07.24-.7-.17-.62Z" transform="translate(-1543.49 -36.81)"/><path class="cls-15" d="M1675.06,118.18a14.94,14.94,0,0,0-.94,2.6.32.32,0,0,0,.62.17,14.32,14.32,0,0,1,.88-2.45c.17-.37-.39-.7-.56-.32Z" transform="translate(-1543.49 -36.81)"/><path class="cls-15" d="M1675.05,118.53c-.26,1-.48,2.07-.65,3.12a.33.33,0,0,0,.63.17,10.53,10.53,0,0,0,.59-2.9c0-.36-.58-.44-.64-.08a21.72,21.72,0,0,0-.27,3l.64-.08a6.47,6.47,0,0,1-.4-3.25l-.62-.17a17.64,17.64,0,0,0-.21,3.25h.65a5.41,5.41,0,0,1,.71-3.07l-.59-.08.06.42.6-.16L1675,118c-.24-.33-.79,0-.56.33a.59.59,0,0,0,1.14-.17L1675,118a34.68,34.68,0,0,0-.47,5,.32.32,0,0,0,.64,0,33.89,33.89,0,0,1,.46-4.81c.07-.4-.52-.58-.63-.17h0l-.56.33.54.73a.33.33,0,0,0,.61-.16,1,1,0,0,0-.08-.59.33.33,0,0,0-.6-.08,6.2,6.2,0,0,0-.8,3.4c0,.41.66.42.65,0a16.66,16.66,0,0,1,.18-3.08c.06-.4-.54-.59-.62-.17a7.12,7.12,0,0,0,.4,3.59.32.32,0,0,0,.63-.09,20.93,20.93,0,0,1,.24-2.84l-.63-.09a10.14,10.14,0,0,1-.57,2.73l.63.17c.17-1,.38-2.08.64-3.11a.32.32,0,0,0-.62-.18Z" transform="translate(-1543.49 -36.81)"/><path class="cls-15" d="M1674,121.15a3.41,3.41,0,0,0,.34,2.24c.19.37.75,0,.56-.33a2.6,2.6,0,0,1-.27-1.73c.07-.41-.56-.59-.63-.18Z" transform="translate(-1543.49 -36.81)"/><path class="cls-15" d="M1674.31,121.43v2.17a.33.33,0,0,0,.65,0v-2.17a.33.33,0,0,0-.65,0Z" transform="translate(-1543.49 -36.81)"/><path class="cls-15" d="M1690.94,99.86a1.29,1.29,0,0,0,.72-.46c.26-.32-.2-.78-.46-.45a.71.71,0,0,1-.43.28.33.33,0,0,0,.17.63Z" transform="translate(-1543.49 -36.81)"/><path class="cls-15" d="M1689.54,96.19a.32.32,0,0,0,0-.64.32.32,0,0,0,0,.64Z" transform="translate(-1543.49 -36.81)"/><path class="cls-15" d="M1687.75,91.48a.33.33,0,0,0,0-.65.33.33,0,0,0,0,.65Z" transform="translate(-1543.49 -36.81)"/><path class="cls-15" d="M1691.24,85.55h-.1a.32.32,0,0,0,0,.64h.1a.32.32,0,0,0,0-.64Z" transform="translate(-1543.49 -36.81)"/><path class="cls-15" d="M1688.78,84.12a.33.33,0,0,0,0-.65.33.33,0,0,0,0,.65Z" transform="translate(-1543.49 -36.81)"/><path class="cls-15" d="M1649.18,120.69a10.68,10.68,0,0,1,1.92,1.09c.33.25.66-.32.32-.56a10,10,0,0,0-1.91-1.08c-.38-.17-.71.39-.33.55Z" transform="translate(-1543.49 -36.81)"/><path class="cls-15" d="M1664.11,134.68l.09-.1a.32.32,0,0,0-.45-.45l-.1.09a.33.33,0,0,0,.46.46Z" transform="translate(-1543.49 -36.81)"/><path class="cls-15" d="M1614.11,103a2.2,2.2,0,0,0,.92.35c.4,0,.58-.57.17-.63a1.71,1.71,0,0,1-.76-.28c-.35-.23-.68.33-.33.56Z" transform="translate(-1543.49 -36.81)"/><path class="cls-15" d="M1617.25,104.3l.85.85a.33.33,0,0,0,.46-.46l-.85-.85c-.3-.29-.76.16-.46.46Z" transform="translate(-1543.49 -36.81)"/><path class="cls-15" d="M1618.41,120.25h.38a.33.33,0,0,0,0-.65h-.38a.33.33,0,0,0,0,.65Z" transform="translate(-1543.49 -36.81)"/><path class="cls-15" d="M1619.28,96.84a4.13,4.13,0,0,0-.26,1.39.33.33,0,0,0,.65,0,3.62,3.62,0,0,1,.23-1.22c.15-.39-.48-.56-.62-.17Z" transform="translate(-1543.49 -36.81)"/><path class="cls-15" d="M1625.43,83.8a2.87,2.87,0,0,1-1.24,1.7c-.35.22,0,.78.33.55a3.56,3.56,0,0,0,1.54-2.08.33.33,0,0,0-.63-.17Z" transform="translate(-1543.49 -36.81)"/><path class="cls-15" d="M1612.09,42.8a29.56,29.56,0,0,0,3.12-.1c.41,0,.41-.68,0-.65a29.57,29.57,0,0,1-3.12.11.32.32,0,0,0,0,.64Z" transform="translate(-1543.49 -36.81)"/><path class="cls-15" d="M1580.34,60.29a1.41,1.41,0,0,1,.59,1.24.33.33,0,0,0,.65,0,2.07,2.07,0,0,0-.92-1.79c-.33-.25-.66.31-.32.55Z" transform="translate(-1543.49 -36.81)"/><path class="cls-15" d="M1744,126.33a11.92,11.92,0,0,1,5,2c1,.72,2-1,1-1.68a13.3,13.3,0,0,0-5.47-2.25c-1.22-.2-1.75,1.67-.52,1.88Z" transform="translate(-1543.49 -36.81)"/><path class="cls-15" d="M1742.32,132l4.15,6.9c.82,1.38,1.68,2.83,1.5,4.53-.08.74-.58,1.44-.66,2.19-.37,3.12,1.91,4.75,4.44,6.05,1.11.56,2.09-1.11,1-1.68a9.42,9.42,0,0,1-1.86-1c-3.56-3.16-1.07-3.27-.91-5.48a5.76,5.76,0,0,0-.18-2.73c-1.24-3.37-3.93-6.64-5.79-9.72a1,1,0,0,0-1.67,1Z" transform="translate(-1543.49 -36.81)"/><path class="cls-15" d="M1751.62,156.3a19.08,19.08,0,0,1,1.11,6c0,1.3-.25,2.68.32,3.9,1,2.16,3.74,2.48,5.52,3.69,1,.71,2-1,1-1.68a13.34,13.34,0,0,0-2.22-1.15c-1.88-.82-2.5-1.65-2.67-3.84a29.08,29.08,0,0,0-1.16-7.46c-.41-1.18-2.28-.68-1.88.51Z" transform="translate(-1543.49 -36.81)"/><path class="cls-17" d="M1740.21,98.87c10,.82,20.58.73,29.94,4.63,1.16.48,1.66-1.4.52-1.87-9.5-4-20.34-3.87-30.46-4.7-1.24-.1-1.24,1.84,0,1.94Z" transform="translate(-1543.49 -36.81)"/><path class="cls-17" d="M1746,76.82c8.94,7,17.84,14.14,23.81,24a1,1,0,0,0,1.68-1c-6.06-10-15-17.25-24.12-24.36-1-.76-2.36.61-1.37,1.38Z" transform="translate(-1543.49 -36.81)"/><path class="cls-17" d="M1770.76,100.21a2.17,2.17,0,0,0-.45,2,1,1,0,0,0,1.87-.51l-.34-1.48a1,1,0,0,0-1.9.26v1a1,1,0,0,0,2,0l0-1-1.91.26.34,1.47,1.87-.51c0-.15,0-.21,0-.16a1,1,0,0,0,0-1.37,1,1,0,0,0-1.38,0Z" transform="translate(-1543.49 -36.81)"/><path class="cls-17" d="M1738.93,70.39a18.59,18.59,0,0,0,3.13,2.06c1.11.57,2.09-1.11,1-1.68A16.33,16.33,0,0,1,1740.3,69a1,1,0,0,0-1.37,0,1,1,0,0,0,0,1.37Z" transform="translate(-1543.49 -36.81)"/><path class="cls-17" d="M1729.89,96.47l6.32.52c1.24.1,1.24-1.84,0-1.95l-6.32-.52c-1.25-.1-1.24,1.84,0,2Z" transform="translate(-1543.49 -36.81)"/><path class="cls-17" d="M1654.82,54c10.61,2.19,17.56,11.83,21.14,21.32.41,1.08.8,2.16,1.16,3.26.73,2.25,1.62,2.8-2.56,2.08-2.88-.5-5.65-2.23-8.18-3.62q-8.25-4.55-16.48-9.12c-1.09-.61-2.07,1.07-1,1.67,6,3.34,12,6.76,18.07,10,4,2.13,7.77,3.65,12.32,3a1,1,0,0,0,.68-1.19c-3.5-12.43-10.65-26.36-24.65-29.26-1.22-.25-1.75,1.62-.52,1.88Z" transform="translate(-1543.49 -36.81)"/><path class="cls-17" d="M1668.15,67.91l2.31,6.59c.41,1.17,2.29.67,1.87-.52L1670,67.39c-.41-1.17-2.29-.67-1.87.52Z" transform="translate(-1543.49 -36.81)"/><path class="cls-17" d="M1619.38,48.46l4.3-.61c1.24-.17.71-2-.51-1.87l-4.3.6c-1.24.18-.71,2.05.51,1.88Z" transform="translate(-1543.49 -36.81)"/><path class="cls-17" d="M1702.32,63.06a159.89,159.89,0,0,0,25.58,4.87c1.24.14,1.23-1.81,0-1.94a158,158,0,0,1-25.07-4.8,1,1,0,0,0-.51,1.87Z" transform="translate(-1543.49 -36.81)"/><path class="cls-18" d="M1722,140.33l.61-.48a.66.66,0,0,0-.46-1.11l-2.54.3.18,1.27a7,7,0,0,0,2-.7.65.65,0,0,0-.5-1.18l-1.06.33a.64.64,0,0,0,.34,1.24c.19-.05.45.11.26.3s-.39,0-.3-.24l-.88.24a1.21,1.21,0,0,0,1.46-.17c.54-.45,0-1.2-.63-1.08l-1.22.25a.66.66,0,0,0-.15,1.19,2,2,0,0,0,2,0l-.5.07a1.65,1.65,0,0,0,1.89-.74.66.66,0,0,0-.39-1,2.46,2.46,0,0,0-2.43.54.66.66,0,0,0-.1.79,1.58,1.58,0,0,0,2.67,0,.68.68,0,0,0-.1-.79,1.16,1.16,0,0,0-1.23-.34.65.65,0,0,0,.35,1.25h0l-.1-.78a.26.26,0,0,1-.43,0l-.1.79a1.15,1.15,0,0,1,1.16-.21l-.38-.95c-.18.29-.42.09-.68.13s-.56.29-1,.06l-.15,1.18,1.22-.25-.63-1.09.1,0a.66.66,0,0,0-.89.23c-.67,1.4.92,3,2.22,1.9a1.49,1.49,0,0,0-1.4-2.55l.34,1.24,1.06-.32-.49-1.19a5.92,5.92,0,0,1-1.69.57c-.71.13-.55,1.36.17,1.27l2.54-.29-.46-1.11-.6.48c-.66.52.26,1.43.91.92Z" transform="translate(-1543.49 -36.81)"/><path class="cls-18" d="M1720.61,144.77a13.47,13.47,0,0,1-.41,6.18c-.25.8,1,1.14,1.25.34a14.75,14.75,0,0,0,.4-6.86c-.14-.82-1.38-.47-1.24.34Z" transform="translate(-1543.49 -36.81)"/><path class="cls-18" d="M1720.63,145.26a17.47,17.47,0,0,1-6.34,15.74c-.64.53.28,1.44.92.91a18.62,18.62,0,0,0,6.71-16.65c-.09-.82-1.39-.83-1.29,0Z" transform="translate(-1543.49 -36.81)"/><path class="cls-18" d="M1721,147.47a11.45,11.45,0,0,1-6.56,12.94c-.75.35-.09,1.47.66,1.12a12.77,12.77,0,0,0,7.15-14.4c-.16-.82-1.41-.47-1.25.34Z" transform="translate(-1543.49 -36.81)"/><path class="cls-18" d="M1570.08,84a14.42,14.42,0,0,1-5.35,11.3c-.64.53.28,1.44.92.91A15.63,15.63,0,0,0,1571.38,84a.65.65,0,0,0-1.3,0Z" transform="translate(-1543.49 -36.81)"/><path class="cls-18" d="M1569.54,80.19v.23a.65.65,0,0,0,1.29,0v-.23a.65.65,0,0,0-1.29,0Z" transform="translate(-1543.49 -36.81)"/></svg>