<svg id="Layer_21" data-name="Layer 21" xmlns="http://www.w3.org/2000/svg" viewBox="0 0 371.91 264.1"><defs><style>.cls-1{fill:#3e3f4c;}.cls-2{fill:#23242d;}</style></defs><title>Meteor8</title><path class="cls-1" d="M559.59,970.17a322.5,322.5,0,0,0-64.17-21.42c-10.68-2.34-23-6-34-4.67-15.28,1.79-22.78,13.12-31.14,24.65q-43.93,60.48-87.91,121c-7.58,10.44-2.13,23.19,6.6,30.4,15.22,12.6,35,11,53.27,8.93,13.75-1.62,26.12.38,39.56,2.83,15.73,2.87,31.73,5.27,47.33.27A65.64,65.64,0,0,0,515,1116.07c2.59-2.51,9.62-7.51,10.94-10.66.75-1.77,3.54,1.33-2-1.71l-7.72-8.53c8.11,18.77,21.5,36.75,41.66,43.42,18.45,6.14,40.25,1.89,53-13.27s11.8-36,26.42-49.83c14.93-14.1,36.47-17,49.66-33.76s13.59-39.46-.9-55.51c-4.38-4.83-12-8.78-14.49-14.08,1.74,3.73-.15-5.33,0-1.68a64.15,64.15,0,0,1,.46-9.09c1.31-12.81,4.62-25.8,1.37-38.72A44.38,44.38,0,0,0,664,904.12c-9.19-10.36-19.81-10.86-32.64-8.18a138.57,138.57,0,0,0-58.17,27.75c-8.78,7-15.7,15.46-23,23.91-4.37,5-9.7,12.51-16.36,14.64-11.31,3.6-19.51,13.78-16.83,26.16,2.34,10.76,14.78,20.44,26.16,16.83a71.56,71.56,0,0,0,30.18-18c7.52-7.62,13.69-16.41,21.41-23.84a96.2,96.2,0,0,1,54.49-25.86l-16.57-3c.23.15-2.55-2.58-2.46-2.55,1.5.44,0,4,.15.1-.09,3.31.59-1.45.34,3.54-.34,6.08-1.19,12-2,18.1-1.75,13.12-2.16,27.22,4.05,39.35,4.56,8.9,11.43,14.32,18.8,20.76,5.64,5,.22,1.68,1.85.12,2-1.88-3.22,3-4.14,3.72-6.33,4.87-15,7.09-22,11a95.73,95.73,0,0,0-24.44,19.28A99.94,99.94,0,0,0,586,1073.51a111.31,111.31,0,0,0-5,13.24c-.61,2-1.46,8.56-3.44,10.1-9.45,7.37-19.63-17.23-22.11-21.65-11.48-20.68-40.47-16.15-56.41-4.39-12,8.83-17.64,20.75-31.74,20.31-16.58-.54-32.52-6.38-49.11-6.94-13.72-.48-35,7.5-45.4-1.11l6.59,30.4L427.73,1047l22.92-31.55c7.32-10.07,14.72-24.82,24.41-32.29l-10,5.1c4.39-1.26,12.44,1.6,17.2,2.62q10.69,2.32,21.24,5.4a325.7,325.7,0,0,1,42.9,16c10.85,4.89,24.33-4.1,27.6-14.42,3.89-12.49-3.58-22.66-14.43-27.6Z" transform="translate(-330.69 -885.33)"/><path class="cls-1" d="M578.78,968.89,471.9,965A22.35,22.35,0,0,0,449,986.14c-.5,13,9.24,21.12,21,22.92,50,7.65,100.09,14.18,150.44,5.77,24.3-4.06,21.47-44.25-3.72-43.49a616.54,616.54,0,0,0-168.16,28.4c-23.54,7.51-22,40.76,3.72,43.49a360.28,360.28,0,0,0,109.1-5.4,369,369,0,0,0,55.28-16.14c16.29-6.05,35.34-12.65,49-23.61,19.33-15.52,12.31-40-5.55-52.56A95.32,95.32,0,0,0,600.5,929c-25,1.64-33.44,20.86-41.06,41.8A279.83,279.83,0,0,0,545,1034c-1.82,15.6,18.36,29.27,31.95,20.56A154,154,0,0,0,638,981.33l-43-7.5c-4,26.47-3.82,74.14,32.14,77,27.93,2.28,64.59-30.74,52.48-59.65-15.57-37.14-56.78-9.33-78.78,4.9A355.37,355.37,0,0,0,530.74,1055c-16.43,18,.86,46.72,24.63,36a436.36,436.36,0,0,0,96.9-60.26L622.92,998l-78.58,70,29.35,32.78c14.12-12.76,33-31.9,33-52.45,0-22.25-20.63-34.21-40.61-34.77-36.74-1-75.56,18.87-104,40.32-13.65,10.29-6.94,32.82,8.11,37.4A137.29,137.29,0,0,0,580.71,1078c18.84-11.43,13.53-39.35-9-41.59a681.88,681.88,0,0,0-157.44,2.83c-22.23,2.93-22.07,36.54-1.89,42.49,42.86,12.67,91.36,13.32,130.94-10.07,18.22-10.75,14.11-40.86-9-41.59a315.3,315.3,0,0,0-155.4,35.19,22.39,22.39,0,0,0-9.64,29.58c5.95,11.68,18.36,13.7,29.57,9.66l87.75-31.66c23.41-8.48,9.27-48-14.63-41.12a371.73,371.73,0,0,0-81.42,33.93l19.93,39.23,16.12-9.49c24.34-14.32,4.5-53.61-19.93-39.22l-16.12,9.48c-24.3,14.3-4.81,53.28,19.93,39.23a325.6,325.6,0,0,1,70.79-30.13l-14.63-41.09-87.72,31.6,19.93,39.24A269.82,269.82,0,0,1,532.4,1074l-9-41.61c-30.05,17.76-65.26,16.94-97.94,7.32l-1.9,42.51a635.65,635.65,0,0,1,146.22-1.86l-9-41.61c-23.66,14.41-50.88,18.61-77.53,10.52l8.12,37.39A150.87,150.87,0,0,1,546,1060.7a120.33,120.33,0,0,1,14.19-2.83s7.36-.5,7.15-.29c.41-.39-1.15-12.41-5.11-10.64-1.51.68-3.57,5.55-4.71,7A98.36,98.36,0,0,1,544.33,1068c-21,19,8.19,51.62,29.34,32.77l78.58-70c21.26-18.94-7.51-50.61-29.35-32.77a391.33,391.33,0,0,1-87.48,53.8l24.65,36a337.11,337.11,0,0,1,46.57-42.54,281.09,281.09,0,0,1,23.89-16q6.56-3.95,13.32-7.54c2.23-1.19,4.49-2.35,6.76-3.51,1.13-.58,2.28-1.14,3.42-1.69q7.15-3-8.3-1.55l-7.71-8.54c-1.75-2.65,4.25-7.34-.6-5.62a23.44,23.44,0,0,0-5.88,5.08c-.42.65-2.95.72-3,1.35q-.66-3,5.28,2.61,6.33,6,5.12,1c1.11-3-1.45-11.16-1.49-14.71A129.44,129.44,0,0,1,639,975.74c1.62-10.65-8.41-20.88-18.23-22.44-11.38-1.8-20.5,4.5-24.76,14.94a102.11,102.11,0,0,1-39,47l32,20.56a231.89,231.89,0,0,1,16-61.13c.19-.5,2.46-5.37,2.41-5.46,2,2.23-9,.71-3.46,3.43,3,1.46,9,.41,12.61,1.18a56.16,56.16,0,0,1,12.86,4.4,33.11,33.11,0,0,0,5.36,3.22c3.84,1-2,3.18-1.33-6.3l3.41-10.88c2-.62,1.26-.16-2.16,1.37q-3.08,1.61-6.18,3.14c-3.12,1.56-6.27,3-9.39,4.43-7.38,3.33-14.83,6.49-22.44,9.26a315.05,315.05,0,0,1-46.24,12.67,321.5,321.5,0,0,1-96.21,4.07l3.54,43.55a575.45,575.45,0,0,1,157-27.43L611,971.85c-46.25,7.73-93.36.25-139.22-6.74l-1.89,44L576.8,1013c28.27,1,30.24-42.93,1.9-44Z" transform="translate(-330.69 -885.33)"/><path class="cls-1" d="M524.12,965.57a234.38,234.38,0,0,0-92.9-41.93c-16.54-3.4-30.73,8.29-28.07,25.65,2.3,14.92-7.07,32.7-12.31,48.08-7.06,20.65-9.13,40.4-1.22,61.08s41.54,12,41.62-9l0-10.69A22.11,22.11,0,0,0,413,1016.3c-10-1.59-22.39,4.06-24.76,14.93-5.82,26.86-3.37,54,25.19,65.73,11,4.48,24.24-3.79,27.6-14.42,3.81-12.14-3.43-23.13-14.43-27.59,4.16,1.68,1.25,1.4,2.25-.93s.93-7.25,1.47-9.68l-43-7.5,0,10.79,41.59-9c-1.48-3.91-.78-11.59.43-16.36a259.67,259.67,0,0,1,8.3-24.76c6.85-18.77,11.65-37.37,8.57-57.43l-28.08,25.67a203.5,203.5,0,0,1,82.23,36.93c9.52,7.12,24.3,2.9,30.41-6.59,6.83-10.62,2.94-23.28-6.6-30.41Z" transform="translate(-330.69 -885.33)"/><path class="cls-1" d="M511.05,933.65l-2-9c-4.32-19-29.24-22.82-40-7.22-11.66,16.85-29.58,26.82-42.05,42.86a50.44,50.44,0,0,0-6.83,52.48c11.74,25.86,50.93,5.78,39.23-19.94-2.09-4.64,11.34-14.62,14.87-17.55a167,167,0,0,0,31.77-34L466,934l2.05,9c6.29,27.59,49.29,18.33,43-9.32Z" transform="translate(-330.69 -885.33)"/><path class="cls-1" d="M431.44,1007.49a107,107,0,0,0-50.9,45c-14.14,24.44,22.78,48.38,37,23.8a67.2,67.2,0,0,1,33.85-29.62c10.95-4.59,14.75-19.52,9.64-29.58-5.7-11.26-18.6-14.27-29.58-9.64Z" transform="translate(-330.69 -885.33)"/><path class="cls-1" d="M527.72,969c.47-.72,4.33-5.06,1.48-2.29.36-.37,4.49-3.78,2.63-2.47a25.2,25.2,0,0,1,6.06-2.66c.5-.1,5.79-.88,3.63-.73s3.17.16,3.66.16c4.79.21-1.64-1.06,2.81.68s-2.09-1.55,2.47,1.12a22.44,22.44,0,0,0,30.4-6.59c6.24-9.7,3.68-24.34-6.59-30.41-28.21-16.57-65.76-8.54-83.59,19.46a22,22,0,0,0,37,23.81Z" transform="translate(-330.69 -885.33)"/><path class="cls-1" d="M506.63,937.22c-7.52,11.32-3,.66-2.31,2.25,0,0,8.56.72,9,.78,7,1,14.09,2.5,21,3.94,15.6,3.24,31,7.19,46.34,11.69,27.11,8,40.4-34,13.14-42a613.25,613.25,0,0,0-67.56-15.72c-21-3.67-43.32-4.75-56.6,15.27C454,937,491,960.85,506.67,937.24Z" transform="translate(-330.69 -885.33)"/><path class="cls-1" d="M407,974.44c-7.67,16-15.22,32.24-23,48.32-7.1,14.81-14.48,29.91-26.7,41.1-20.9,19.14,8.43,51.93,29.33,32.79,28.1-25.74,41.35-64.74,57.33-98.41,5.1-10.73,4.32-23.38-6.59-30.4C428.45,962.06,412.18,963.63,407,974.44Z" transform="translate(-330.69 -885.33)"/><path class="cls-1" d="M435.81,988.3c-14.1-8.55-28.06-6.08-42.52.05-13.11,5.59-27.56,11-39.65,18.46A32.42,32.42,0,0,0,340.69,1049c6.05,12.84,17.88,24,26.82,34.89,17.93,22,50.7-7.53,32.78-29.37l-13.41-16.35c-2.6-3.16-5.86-5.49-6.19-9.08l-.5,11.22q-7.54,6.46-1,2.71l7.56-3.43,11.37-5.14c3.73-1.73,7.48-3.5,11.34-5.15,2.23-1,4.46-2,6.74-3q3.91-.09-4.17-1c24.17,14.63,48.07-22.31,23.81-37Z" transform="translate(-330.69 -885.33)"/><path class="cls-2" d="M683.52,991.61c-1.36-25.16-1.78-50.65-4.24-75.77-2-20.21-21.12-29.86-39.88-30.47-45.3-1.4-72.64,40.15-109.07,59.33l8,15.61,5.14-3.07c9.69-5.8,1.76-21.52-8-15.62l-5.15,3.08c-9.64,5.75-2.16,21,8,15.61,30.39-16,52.93-48.16,87.37-56a45.16,45.16,0,0,1,22.77.05c12.84,3.76,13.36,12,14,23.6l3.45,63c.63,11.21,18.22,12.09,17.54.83Z" transform="translate(-330.69 -885.33)"/><path class="cls-2" d="M578.4,907.72A240,240,0,0,0,509,892.08c-8.41-.59-17-.74-25.07,2.18-10.44,3.75-17.09,12-24.07,20.33-3,3.52-5.59,8-10.62,8.36-3.66.26-8.28-2.45-11.61-3.7-7.82-3-15.79-5.46-24.16-3.1-19.21,5.46-22.61,27.62-23.74,44.42-.79,11.63-3.1,21.07-12.43,28.78S356.94,1001.63,347,1008c-7.13,4.54-14.8,9.54-16.12,18.55s4.63,18.42,6.48,27.3a74.33,74.33,0,0,1-.54,31.77c-1.77,7.79-4.16,15.48-3.54,23.55,1.58,21.94,23.09,22.25,40.31,23.86,28.65,2.75,57.37,5.53,86.07,8,11,1,21,.69,31.14-4,11.1-5,20.07-13.51,31.45-18.09,4.52-1.82,5.7-7.81,3.88-11.84A265.2,265.2,0,0,1,507,1048.69c-2.26-11.11-19.51-7.32-17.19,3.72a285.75,285.75,0,0,0,20.6,62.74l3.84-11.83c-17,6.85-29,21.8-48.58,20.61-21.38-1.28-42.73-4-64.06-5.93l-29.39-2.75c-8.75-.82-21.92,1.15-21.45-10.48.3-7.26,3.18-14.38,4.37-21.51a90.15,90.15,0,0,0,.66-24.93c-.91-8.14-4.18-15.21-5.79-23.08-1.35-6.44,1-9.1,6.4-12.46,4.42-2.81,9.1-5.24,13.67-7.82,14.24-8.11,28.29-17.42,34-33.57,4.15-11.77-1-46.68,16.39-48.68,6-.69,12.87,4,18.37,5.8a28.57,28.57,0,0,0,18.92.59c8-3,12.79-10.08,18.05-16.37,7.86-9.38,14.92-13.76,27.36-13.37a215.35,215.35,0,0,1,70,15.16c10.44,4.1,15.8-12.75,5.24-16.8Z" transform="translate(-330.69 -885.33)"/><path class="cls-2" d="M510.86,1114.44l20.56,17.93c5.59,4.89,11.23,11,18.08,14.26,10.56,4.85,25.19,2.4,36.2.09,13.91-2.92,26-9.85,32.6-22.82,3.36-6.57,5.8-13.65,8.52-20.51,3.06-7.74,5.57-19.44,12.49-24.3,6.29-4.4,14.85-5.8,21.53-9.84a140.61,140.61,0,0,0,17.26-12.63c9.32-7.86,18.35-17.3,22.44-29.06,10-28.83-18.34-43.5-41.76-48.19-11-2.2-16.39,14.57-5.25,16.82,9.13,1.82,21.4,3.77,27.81,11.28,7.76,9.09.79,20.2-5.9,27.59a101.67,101.67,0,0,1-25.92,20.49c-9.36,5.07-20.22,6.42-27.12,15.3-13.4,17.3-11.5,49.76-35.11,57.38-9.1,2.93-24.18,6.07-32.74,1.16-11-6.33-21.09-18.17-30.7-26.52-8.37-7.32-21.65,4.38-13.1,11.74Z" transform="translate(-330.69 -885.33)"/><path class="cls-2" d="M394.09,1051.46c4.47-1.83,1.6,13.77,1.35,14.61-1.22,5.15-2.53,14.43-9.38,13.69-11.28-1.22-12,16.37-.82,17.54,19.78,2.14,27.15-20.33,28.88-36.06,1.78-16.23-10.92-32.56-28.06-25.51-10.49,4.34-2.41,20,8,15.62Z" transform="translate(-330.69 -885.33)"/><path class="cls-2" d="M441.43,970.94a22.79,22.79,0,0,0,25.87,9.6c10.49-3,17.07-12,22.66-20.78,6.13-9.53-8.66-19.07-14.8-9.52-2.72,4.21-5.48,9.16-9.74,12-2,1.34-7,2.69-8.3.7-2.65-4-7.24-6.18-11.82-3.86-3.87,2-6.49,7.85-3.85,11.83Z" transform="translate(-330.69 -885.33)"/><path class="cls-2" d="M597.75,1051.72c-34.2-23.23-74.59,46.57-40.94,55.82,10.89,3,16.21-13.76,5.24-16.8-3.91-1.07,5.26-15.13,6.86-17.08,4.69-5.7,11.87-12.19,19.32-7.14C597.6,1072.89,607.12,1058.09,597.75,1051.72Z" transform="translate(-330.69 -885.33)"/><path class="cls-2" d="M620.15,921.14a26.9,26.9,0,0,0-12,29.82c3.52,12.74,15.45,20.41,28.13,21.32,11.28.88,12-16.71.81-17.52-4.7-.41-9.88-2.81-11.71-7.54a9.2,9.2,0,0,1,2.83-10.4A9.06,9.06,0,0,0,632,925c-2-3.89-7.84-6.43-11.82-3.87Z" transform="translate(-330.69 -885.33)"/><path class="cls-2" d="M534.14,1000.17c9.51,6.12,19.05-8.67,9.52-14.8S524.59,994,534.14,1000.17Z" transform="translate(-330.69 -885.33)"/><path class="cls-2" d="M501.85,993.15c7.14,4.6,14.3-6.49,7.14-11.1S494.69,988.54,501.85,993.15Z" transform="translate(-330.69 -885.33)"/><path class="cls-2" d="M518.72,998.72a3.3,3.3,0,0,0,3.57-5.55h0a3.3,3.3,0,1,0-3.57,5.55Z" transform="translate(-330.69 -885.33)"/><path class="cls-2" d="M529.19,1016.39a3.3,3.3,0,1,0-1-4.56A3.29,3.29,0,0,0,529.19,1016.39Z" transform="translate(-330.69 -885.33)"/><path class="cls-2" d="M418.11,1036.34a3.3,3.3,0,1,0-1-4.56A3.31,3.31,0,0,0,418.11,1036.34Z" transform="translate(-330.69 -885.33)"/><path class="cls-2" d="M436,1034c7.14,4.59,14.3-6.5,7.14-11.1S428.85,1029.36,436,1034Z" transform="translate(-330.69 -885.33)"/><path class="cls-2" d="M427.93,1050.74c6,3.84,11.91-5.41,5.95-9.25S422,1046.91,427.93,1050.74Z" transform="translate(-330.69 -885.33)"/><path class="cls-2" d="M525.91,1085.12c6,3.83,11.92-5.41,6-9.25S520,1081.29,525.91,1085.12Z" transform="translate(-330.69 -885.33)"/><path class="cls-2" d="M538.32,1061.61c8.34,5.37,16.67-7.58,8.33-12.95S530,1056.24,538.32,1061.61Z" transform="translate(-330.69 -885.33)"/><path class="cls-2" d="M519.14,1061.72c4.76,3.06,9.52-4.34,4.77-7.4S514.37,1058.65,519.14,1061.72Z" transform="translate(-330.69 -885.33)"/><path class="cls-2" d="M422.64,961.41c4.77,3.07,9.53-4.33,4.76-7.4S417.86,958.34,422.64,961.41Z" transform="translate(-330.69 -885.33)"/><path class="cls-2" d="M422.35,983.07c4.76,3.06,9.54-4.33,4.77-7.4S417.58,980,422.35,983.07Z" transform="translate(-330.69 -885.33)"/><path class="cls-2" d="M605.17,916.78,603,918a4.4,4.4,0,0,0,4,7.82l2.21-1.33a4.4,4.4,0,0,0-4-7.8Z" transform="translate(-330.69 -885.33)"/><path class="cls-2" d="M589.81,943.41c4.75,3.06,9.53-4.32,4.76-7.4S585,940.34,589.81,943.41Z" transform="translate(-330.69 -885.33)"/><path class="cls-2" d="M589.55,957.14l-.61,1a7.7,7.7,0,0,0,12.94,8.34l.62-1a7.7,7.7,0,1,0-13-8.33Z" transform="translate(-330.69 -885.33)"/><path class="cls-2" d="M655.7,1036.14c8.32,5.36,16.68-7.58,8.33-13S647.36,1030.77,655.7,1036.14Z" transform="translate(-330.69 -885.33)"/><path class="cls-2" d="M640.94,1033.63c4.76,3.06,9.54-4.33,4.76-7.4S636.17,1030.56,640.94,1033.63Z" transform="translate(-330.69 -885.33)"/><path class="cls-1" d="M472.44,1094.63l-.42-2.88a3.33,3.33,0,0,0-3.92-2.53l-5.79,1.51,3.48,5a35.42,35.42,0,0,0,4.17-8,3.34,3.34,0,0,0-2.26-4.16,3.38,3.38,0,0,0-1.58-.07,28.93,28.93,0,0,0-9.56,2.66c-3.85,1.92-.85,7.3,3,5.9l9.7-3.7c3.47-1.33,1.38-7.3-2.2-6.18l-11.33,3.59c-4,1.26-2.82,7.39,1.4,6.45a14.27,14.27,0,0,1,16.07,7.54,3.3,3.3,0,0,0,5.88-3,21,21,0,0,0-23.31-11l1.39,6.44,11.34-3.59-2.18-6.16-9.71,3.69,3,5.9a22.93,22.93,0,0,1,7.87-2.15l-3.81-4.16a28.4,28.4,0,0,1-3.43,6.46,3.35,3.35,0,0,0,1.15,4.59,3.45,3.45,0,0,0,2.33.42l5.78-1.51-3.92-2.53.42,2.89c.56,4.21,7,2.79,6.44-1.4Z" transform="translate(-330.69 -885.33)"/></svg>