<svg id="meteor" xmlns="http://www.w3.org/2000/svg" viewBox="0 0 542.29 205.41"><defs><style>.cls-1{fill:#3e3f4c;}.cls-2{fill:#23242d;}</style></defs><title>Meteor6</title><path class="cls-1" d="M849.47,716.76c-5.09-5-12.48-14.58-20.33-9.83-3.45,2.09-4.12,6.07-5.84,9.51-1.52,3-3.4,5.85-5,8.82-3.84,7-5.37,14.38-2,22,3.58,8.08,8.65,15.64,12.94,23.3,1.81,3.21,6.52,4.26,9,1.23s4-6.4,5.75-9.89c1.3-2.58,2.64-4.66,5.46-5.3,6.56-1.48,12.56,4.05,17.25,8.16,2.56,2.24,7.37,2.69,9-1.23a87.17,87.17,0,0,1,8.11-15.09c3-4.38,7.39-8,9.59-12.91,2.33-5.19,1.25-10.45-2.06-14.78a52.59,52.59,0,0,0-3.93-4.23c-1.28-1.34-1.92-2.08-2.2-3.19a5.66,5.66,0,0,0-9.6-2.71c-1.55,1.55-3.24,3.54-5.34,4.19-1.46.45-1.73.19-2.41-1.08-2.55-4.79-5.91-8.22-11.35-8.42-11.37-.43-16.24,11-18.23,21.12L849.58,728c1.07-10.67,1.53-21.39-3.12-31.24-3.74-7.9-10.64-14-13.25-22.5-1.64-5.37-7.57-5.67-10.5-1.48a41.1,41.1,0,0,0-7.09,22.12,6,6,0,0,0,5,6c3,.39,5.17-1.49,6.32-4.4l3.39-8.86L819,686.06c2,19.05,4,38.84-2.82,57.08l11.29,1.63,2.84-33.52c.82-9.94,2.06-20.37-1.58-29.85-1-2.55-2.79-4.51-5.55-4.51a6,6,0,0,0-5.55,4.51q-7.14,26.51-13.46,53.22c-1.83,7.67,9.08,10.89,11.08,3.27A448.39,448.39,0,0,0,826.21,682c.36-2.75-.24-5.44-2.64-6.94-2-1.26-5.41-1.15-7,1-6.87,9.3-9.74,20.32-11.27,31.89-1.77,13.3-3,26.7-4,40.09-.53,7,9.58,8.15,11.29,1.63l2.34-8.89-10.51,1.47a42.7,42.7,0,0,0,17.87,19c3.73,2,8.23,4.13,12.5,3.73,5.75-.54,8.79-6.36,7.5-12.1-1-4.66-3.45-9.13-4.89-13.69a126.37,126.37,0,0,1-3.85-14.94,79.41,79.41,0,0,1-.39-29.36l-11.29-1.63L826.69,749c.57,6.54,9.58,8.78,11.29,1.63a165.05,165.05,0,0,0,3.38-58.52c-.38-3-1.9-5.64-5-6a5.8,5.8,0,0,0-6.32,4.4c-5.37,17.7-1.7,36.36,2.32,53.91,1.39,6.05,9.52,5.66,11.09,0a112.45,112.45,0,0,0,3.28-44c-.41-3.28-2.34-6.14-5.74-6.14s-5.51,2.83-5.75,6.14a133.44,133.44,0,0,0,.5,25.2c.48,4.15,1.09,8.28,1.93,12.36.79,3.89,1.46,8.37,3.45,11.8,2.06,3.58,5.86,5.83,9.77,4.42,4.31-1.57,5.43-6.58,6.39-10.8a73.71,73.71,0,0,0,1.31-25.52c-.37-3-1.89-5.64-5-6-2.52-.32-5.92,1.34-6.32,4.4a52.6,52.6,0,0,0,4.85,30.59c1.93,3.89,8.05,4.12,9.93,0a40.65,40.65,0,0,0-1.58-37.08c-2.37-4-9.7-4.08-10.51,1.47-1.94,13.34.38,26.84,7.34,38.21,2.27,3.69,7.79,4.27,9.93,0a40.08,40.08,0,0,0,2.88-28.79c-2-7-10.64-5-11.3,1.64a38.9,38.9,0,0,0,6.27,25.19c2.26,3.36,7.94,4.58,9.93,0a65.08,65.08,0,0,0,5.58-27.82c-.17-7.11-9.19-8.12-11.29-1.64a27.4,27.4,0,0,0-.39,15.36c1,3.74,5.29,5.79,8.45,3.69a28.07,28.07,0,0,0,7.37-7.37c1.88-2.65.39-6.88-2.06-8.41-3-1.84-6-.45-7.87,2.21a12.28,12.28,0,0,1-3.25,3l8.45,3.68a14.83,14.83,0,0,1,.39-8.82l-11.29-1.63a51,51,0,0,1-4,21.62H875a28,28,0,0,1-4.68-19.07L859,723.92a26.59,26.59,0,0,1-1.72,19.32h9.93A43.48,43.48,0,0,1,861,714.49L850.54,716a27.19,27.19,0,0,1,1.58,24.66h9.93a37.45,37.45,0,0,1-3.7-21.12l-11.3-1.63a70.35,70.35,0,0,1,.37,14.29,53.23,53.23,0,0,1-.91,6.29c-.23,1.12-.48,2.24-.76,3.34-.14.56-.29,1.11-.44,1.66-.43,1.29-.45,1.44,0,.47l2.53-1.58H848l2.87.84c-.94-.45-1.72-6.34-2.06-7.93A114.29,114.29,0,0,1,847,723.89a133.93,133.93,0,0,1-.26-23.44H835.25a103.55,103.55,0,0,1-2.88,40.72h11.06c-3.54-15.45-7-31.77-2.26-47.36l-11.29-1.64a155.17,155.17,0,0,1-3,55.26l11.29,1.63-4.81-55.84c-.27-3.07-2-5.66-5-6a5.75,5.75,0,0,0-6.33,4.41,95.62,95.62,0,0,0,.19,34.81,127,127,0,0,0,4.07,16c.9,2.8,1.88,5.53,2.93,8.29.49,1.26,1,2.51,1.5,3.8a12.56,12.56,0,0,1,.46,1.59c.15-1.16.08-1.25-.22-.26l1.47-2.71c.13-.17,1.57-.26,1.53-.32s-1.34-.36-1.6-.44a24,24,0,0,1-3.12-1.18,30.15,30.15,0,0,1-6.37-4A32.61,32.61,0,0,1,814.36,736c-2.29-4.81-9.19-3.43-10.5,1.47l-2.3,8.89L812.82,748c.91-12.07,2-24.15,3.51-36.14,1.17-9.28,2.82-19.59,8.4-27.15l-9.61-6a450.18,450.18,0,0,1-10.92,55.92l11.08,3.27q6.39-26.71,13.5-53.22H817.66c3.4,8.83,1.84,18.55,1.06,27.77L816,744.76a6,6,0,0,0,5,6c3,.38,5.23-1.48,6.32-4.4,7.14-19.22,5.31-40.29,3.24-60.35-.73-7-8.8-8.16-11.3-1.63l-3.39,8.86,11.28,1.64A29.36,29.36,0,0,1,832.64,679l-10.51-1.46c2.7,8.84,8.73,15.16,13.13,23,4.74,8.45,3.77,18.11,2.83,27.5-.69,6.87,10,8.38,11.29,1.64.68-3.5,1.27-8.88,4.18-11.2a5.32,5.32,0,0,1,2.48-1c.64.12.67.07.63,0,.67.56,1.06,2,1.48,2.79a12.45,12.45,0,0,0,12.07,6.88c5.48-.44,9.68-4,13.54-7.9l-9.62-2.75c1,4.08,3.58,7,6.36,9.84a13.33,13.33,0,0,1,2.81,3.38c-.25-.51-.32.43-.06,0-.26.43-.46.92-.75,1.35-1.28,1.84-3,3.48-4.38,5.26-1.78,2.28-3.49,4.66-5.08,7.1a86.84,86.84,0,0,0-7.25,13.77l9-1.23c-7.63-6.69-16-13.26-26.45-11.68a17.51,17.51,0,0,0-11.64,6.95c-2.67,3.59-3.78,8.34-6.66,11.75l9,1.23L829,746.38c-2.55-4.53-4.35-7.64-2-12.61,2.12-4.53,5.17-8.48,7.14-13.08.38-.88.73-1.78,1.05-2.68.39-1.07.93-1.27-.25-.7-1.62.79-1.68.44-.39,1.44a87.42,87.42,0,0,1,6.78,6.7c5.42,5.37,13.57-3.3,8.13-8.69Z" transform="translate(-353.48 -669)"/><path class="cls-1" d="M812.61,688.5c-5.43,3.69-11.13,7.12-16.3,11.22S786.53,709.55,787,717s4.45,14.43,7.29,21.06c2.75,6.39,4.85,14.46,12.53,15.06,2.37.2,5.06-2,5.55-4.51a217.89,217.89,0,0,1,6.34-24.75c1.33-4.15,2.77-8.25,4.36-12.29,1.3-3.27,2.88-6.38,2.68-10-.21-4.35-3.13-8.19-7.35-8.45-4-.24-7.47,2.46-10.48,5-5.61,4.76-9.62,11.31-13.44,17.69l10.72,3.1c-.11-4.3,1.64-8.08,3.4-11.85l-10.51-4.73c-2.93,9.14-4.55,20.28-2.45,29.86a12.39,12.39,0,0,0,8.44,9.42c4.12,1.28,8.05-.34,12.08.39a5.9,5.9,0,0,0,7.07-4.31c.76-3-.94-7-4-7.55-3.63-.66-7,.14-10.57-.13a3.89,3.89,0,0,1-2.11-.63c.75.54.22.68.34,0-.05.27-.37-3-.24-1.69a55,55,0,0,1,2.59-22.07c2.09-6.54-7.59-11-10.51-4.74-2.67,5.71-5.13,11.55-5,18.06.14,6.17,7.62,8.2,10.68,3.1a83.68,83.68,0,0,1,6.49-9.88,37.62,37.62,0,0,1,3.77-4.1,16.63,16.63,0,0,1,1.66-1.38c.5-.36,1-.7,1.53-1,.85-.57,1-.65.57-.24l-2.9-.84c2.68,1.23-1.88-1.94-1.19-2.5a7.9,7.9,0,0,0-.44,1.53c-.68,2-1.55,3.85-2.3,5.79q-2.24,5.82-4.13,11.76a217.57,217.57,0,0,0-6.19,24.22l5.54-4.51c2,.16,1.73,1,.8-1-.47-1-.9-2.12-1.36-3.17l-3.17-7.38c-1.58-3.69-5.45-9.78-4.54-14,.71-3.27,4.39-5.53,6.81-7.18,4.34-3,8.72-5.91,13.08-8.86,6.23-4.23.46-14.86-5.81-10.61Z" transform="translate(-353.48 -669)"/><path class="cls-1" d="M865.58,750.08l2.64,2.74c1.53,1.58,3.75.33,3.93-1.74a5.3,5.3,0,0,0-2.57-5,2.25,2.25,0,0,0-3.16,1,2.63,2.63,0,0,0-.22,1.79,18.46,18.46,0,0,0,2.52,6.15,2.33,2.33,0,0,0,2.6,1.12,2.43,2.43,0,0,0,1.69-2.37c-.18-2.54-1.35-6-4-6.76a2.79,2.79,0,0,0-3.43,2.12s0,.05,0,.07a5.54,5.54,0,0,0,1.47,4.43,2.21,2.21,0,0,0,3.25-.19,2.59,2.59,0,0,0,0-3.3c-.33-.4-.08-.53-.23.1l-.57,1.08.15-.17-1,.61c-1.85.62-1.18-.74-.89.05.09.26.28.49.39.74a4,4,0,0,1,.29,1.23l4.28-1.23a14.46,14.46,0,0,1-2.05-5l-3.38,2.77c.38.22.33.28.29.73l3.89-1.75-2.65-2.74c-2.13-2.2-5.38,1.28-3.25,3.48Z" transform="translate(-353.48 -669)"/><path class="cls-2" d="M884.33,710.59c-4.06-8.42-14.91.57-19,4.41l3.61.5c-1.15-2.2-2.34-4.37-3.62-6.48-1-1.61-2-3.81-3.63-4.83-2.87-1.84-8.4-.69-11.33.55-3.9,1.65-6.42,5.53-9.69,8.2a37.19,37.19,0,0,1-12.16,6.47l1.77,4.49,1.23-.57c2.7-1.28.36-5.53-2.3-4.25l-1.22.58c-2.4,1.14-.69,5.28,1.77,4.5a43.58,43.58,0,0,0,18.26-11.63c2.8-2.92,6.29-4.71,10.35-4.14,1.8.26,2.59,2.46,3.53,4C863,714.26,864,716.1,865,718a2.24,2.24,0,0,0,3.61.5c1.6-1.51,10-9,11.78-5.4,1.36,2.8,5.32.32,4-2.46Z" transform="translate(-353.48 -669)"/><path class="cls-2" d="M851.66,706.36c-1.62-6.29-3.39-12.81-7.34-17.94-1.89-2.46-4.46-4.09-6.48-6.4-2.26-2.58-2.37-6.15-4.07-9a7.32,7.32,0,0,0-5.42-4c-3.39-.29-6.59,2.33-9.41,4-2.45,1.44-5.87,2.65-7.54,5.18s-2.15,6.68-2.93,9.69c-.4,1.52-.62,3.39-1.73,4.54s-3,1.81-4.33,2.64a61.07,61.07,0,0,0-8.73,6.31c-5.07,4.37-8.81,9.44-8.68,16.71.13,6.76,2.43,13.62,5,19.73a68,68,0,0,0,4.65,9.07c1.54,2.51,3.22,5.53,5.54,7.31a6.65,6.65,0,0,0,3.45,1.47c1.78.14,3.36-.93,5.06-.89,3.45.1,5.18,4.79,7.3,7,2.56,2.64,5.25,2.41,8.4,1.35a102.23,102.23,0,0,0,11.8-4.84c2.7-1.28.36-5.53-2.3-4.24-2.82,1.34-5.69,2.56-8.62,3.62a17.55,17.55,0,0,1-4,1.32c-2.1.16-3-1.84-4.13-3.42-2.79-3.88-6-6.49-10.78-5.33-1.47.36-2.47.75-3.79-.26a12.66,12.66,0,0,1-2.36-3.07,67.09,67.09,0,0,1-10.14-24.3,19.19,19.19,0,0,1,0-9c.91-3.07,3.07-5.34,5.29-7.38a53.93,53.93,0,0,1,7.16-5.57c2.18-1.43,4.72-2.46,6.73-4.15,4.28-3.63,3.27-10.14,5.6-14.88,1.11-2.28,5.27-3.72,7.32-4.92,2.67-1.56,6-4.46,8-.53,1.3,2.62,1.54,5.53,3.29,7.94s4.11,3.94,6.09,6c4.41,4.64,6.08,11.35,7.67,17.55.78,3.07,5.22,1.75,4.43-1.31Z" transform="translate(-353.48 -669)"/><path class="cls-2" d="M821.91,763.44c2.41,5.84,6.4,17.15,14.28,13.12,6.7-3.42,6.08-13.94,13-17.26,8.25-3.95,12.42,8.82,19.55,9.59,3.71.4,5.41-3.17,7.19-6l7.71-12.29c1.54-2.46,3.11-4.92,4.6-7.37,1-1.66,1.87-3.31,1.48-5.36-.79-4.24-4.69-8.54-7.4-11.62-2-2.3-5.28,1.18-3.25,3.48a45.76,45.76,0,0,1,4.6,6.08c.64,1,1.72,2.4,1.4,3.75a12.84,12.84,0,0,1-1.68,2.68l-8,12.77-4,6.38c-.83,1.33-1.21,2.92-3.14,2.16a9.55,9.55,0,0,1-2.41-2c-2.73-2.52-5.51-5.16-8.88-6.65-7.09-3.14-13.3,1.15-16.94,7.65-1.45,2.59-3.49,10.78-7.37,9.92-1.78-.4-2.77-3-3.54-4.52-1.15-2.27-2.19-4.6-3.16-6.95-1.19-2.9-5.18-.39-4,2.46Z" transform="translate(-353.48 -669)"/><path class="cls-2" d="M879.55,711.76c1.07,6.14,6.55,7.63,9.89,11.9,4.35,5.58-.05,13.12-3.45,17.75-1.81,2.46,1.42,6,3.25,3.47,3.92-5.32,7.52-11.49,6.27-18.57a13.63,13.63,0,0,0-4.88-8.15c-2.59-2.21-6-3.91-6.64-7.71-.53-3.11-5-1.79-4.43,1.31Z" transform="translate(-353.48 -669)"/><path class="cls-2" d="M825.59,686a8.92,8.92,0,0,0-2,11.79c2.23,3.64,6.73,5.58,10.12,2.52,2.27-2-1-5.53-3.25-3.48-1.07,1-2.81-1.27-3.22-2-.72-1.49-.7-3.47.69-4.53,2.39-1.84.09-6.09-2.3-4.25Z" transform="translate(-353.48 -669)"/><path class="cls-2" d="M798.16,720.81a6.56,6.56,0,0,0,6.27-4.49c1.15-3.07.25-6.45-1.45-9.08s-5.66-.13-4,2.46c1.07,1.66,2.57,6.33-.85,6.14-3-.15-2.95,4.77,0,4.92Z" transform="translate(-353.48 -669)"/><path class="cls-2" d="M798.23,729.34c3,0,3-4.92,0-4.92S795.26,729.34,798.23,729.34Z" transform="translate(-353.48 -669)"/><path class="cls-2" d="M850,734.33c-3,3.74-4,9.13-.93,13.21a7.18,7.18,0,0,0,10.56,1.2l.32-.29c2.24-2.07-1-5.53-3.26-3.47a2.81,2.81,0,0,1-4.35-1c-1.15-2-.46-4.52.9-6.22,1.93-2.39-1.31-5.88-3.24-3.47Z" transform="translate(-353.48 -669)"/><path class="cls-2" d="M857.37,722.67c2.2,4.82,7.73,5.56,11.47,2.36a2.59,2.59,0,0,0,0-3.47,2.24,2.24,0,0,0-3.25,0c-1.59,1.34-3.45.3-4.24-1.4-1.3-2.84-5.26-.35-4,2.46Z" transform="translate(-353.48 -669)"/><path class="cls-2" d="M804.23,723.9c1.84,0,1.85-3.07,0-3.07S802.37,723.9,804.23,723.9Z" transform="translate(-353.48 -669)"/><path class="cls-2" d="M803.33,728.11a.93.93,0,1,0-.87-.92A.9.9,0,0,0,803.33,728.11Z" transform="translate(-353.48 -669)"/><path class="cls-2" d="M820.42,693.15a.93.93,0,1,0-.86-.92A.9.9,0,0,0,820.42,693.15Z" transform="translate(-353.48 -669)"/><path class="cls-2" d="M818.92,703.72a.92.92,0,1,0-.86-.92A.9.9,0,0,0,818.92,703.72Z" transform="translate(-353.48 -669)"/><path class="cls-2" d="M816.53,698.56c2.22,0,2.22-3.69,0-3.69S814.3,698.56,816.53,698.56Z" transform="translate(-353.48 -669)"/><path class="cls-2" d="M824.32,705.9c3,0,3-4.91,0-4.91S821.36,705.9,824.32,705.9Z" transform="translate(-353.48 -669)"/><path class="cls-2" d="M845,734.12c3,0,3-4.92,0-4.92S842.06,734.12,845,734.12Z" transform="translate(-353.48 -669)"/><path class="cls-2" d="M839.32,735.12c1.85,0,1.85-3.07,0-3.07S837.47,735.12,839.32,735.12Z" transform="translate(-353.48 -669)"/><path class="cls-2" d="M843.52,737.71a.92.92,0,1,0-.86-.92A.89.89,0,0,0,843.52,737.71Z" transform="translate(-353.48 -669)"/><path class="cls-2" d="M839,740.59a.92.92,0,1,0-.86-.92A.9.9,0,0,0,839,740.59Z" transform="translate(-353.48 -669)"/><path class="cls-2" d="M845,748a.89.89,0,0,0,.86-.92.9.9,0,0,0-.86-.93h0a.9.9,0,0,0-.86.93A.89.89,0,0,0,845,748Z" transform="translate(-353.48 -669)"/><path class="cls-2" d="M872.62,725.85a.93.93,0,1,0-.87-.93A.9.9,0,0,0,872.62,725.85Z" transform="translate(-353.48 -669)"/><path class="cls-2" d="M874.12,732.54c2.22,0,2.22-3.69,0-3.69S871.89,732.54,874.12,732.54Z" transform="translate(-353.48 -669)"/><path class="cls-2" d="M866.62,733.48c3,0,3-4.92,0-4.92S863.65,733.48,866.62,733.48Z" transform="translate(-353.48 -669)"/><path class="cls-1" d="M388.21,841.73c-2.74-2.72-6.72-7.85-10.95-5.3-1.86,1.13-2.22,3.28-3.15,5.13-.81,1.64-1.83,3.15-2.71,4.75-2.07,3.76-2.9,7.75-1.08,11.83,1.92,4.35,4.65,8.43,7,12.55a3,3,0,0,0,4.86.66,26,26,0,0,0,3.1-5.32c.7-1.39,1.42-2.52,2.94-2.86,3.54-.8,6.77,2.18,9.3,4.4,1.37,1.2,4,1.45,4.86-.67a47.76,47.76,0,0,1,4.37-8.13c1.6-2.36,4-4.32,5.17-6.95a7.6,7.6,0,0,0-1.11-8,28.58,28.58,0,0,0-2.12-2.27,3.89,3.89,0,0,1-1.18-1.72,3.06,3.06,0,0,0-5.18-1.46,7.82,7.82,0,0,1-2.88,2.25c-.78.25-.93.11-1.29-.58-1.38-2.58-3.19-4.42-6.12-4.53-6.12-.24-8.75,5.93-9.82,11.38l6.09.88c.57-5.75.82-11.53-1.69-16.83-2-4.26-5.73-7.54-7.14-12.12-.88-2.9-4.08-3.06-5.66-.8A22.15,22.15,0,0,0,370,830a3.22,3.22,0,0,0,2.68,3.25c1.65.21,2.79-.8,3.41-2.37l1.83-4.78-6.09-.88c1.06,10.27,2.13,20.93-1.52,30.75l6.09.89,1.52-18.07c.45-5.35,1.12-11-.85-16.08a3.28,3.28,0,0,0-3-2.43,3.21,3.21,0,0,0-3,2.43q-3.85,14.28-7.26,28.68c-1,4.13,4.9,5.86,6,1.76A243.7,243.7,0,0,0,375.68,823a3.57,3.57,0,0,0-1.42-3.74,3,3,0,0,0-3.76.52c-3.7,5-5.24,10.94-6.07,17.18-.95,7.16-1.61,14.38-2.17,21.6-.28,3.79,5.16,4.39,6.09.87l1.25-4.78-5.66.79a23,23,0,0,0,9.63,10.24c2,1.08,4.43,2.23,6.73,2,3.1-.29,4.74-3.43,4.05-6.52-.57-2.51-1.86-4.92-2.64-7.37a67.89,67.89,0,0,1-2.07-8,42.51,42.51,0,0,1-.21-15.82l-6.08-.88,2.59,30.08c.31,3.53,5.16,4.73,6.08.88a88.71,88.71,0,0,0,1.82-31.53c-.2-1.63-1-3-2.68-3.25a3.12,3.12,0,0,0-3.41,2.38c-2.89,9.53-.92,19.58,1.25,29a3.07,3.07,0,0,0,6,0A60.48,60.48,0,0,0,386.75,833c-.23-1.77-1.27-3.31-3.1-3.31a3.27,3.27,0,0,0-3.1,3.31,73.24,73.24,0,0,0,.27,13.57c.26,2.24.59,4.46,1,6.66a21.22,21.22,0,0,0,1.86,6.36c1.11,1.93,3.16,3.14,5.26,2.38,2.33-.84,2.93-3.54,3.45-5.82a40,40,0,0,0,.71-13.75c-.21-1.64-1-3-2.69-3.25a3.07,3.07,0,0,0-3.41,2.37A28.32,28.32,0,0,0,389.66,858a3,3,0,0,0,5.35,0,21.94,21.94,0,0,0-.85-20c-1.28-2.18-5.23-2.2-5.66.79a30.73,30.73,0,0,0,3.95,20.59,3,3,0,0,0,5.35,0,21.63,21.63,0,0,0,1.55-15.51c-1.05-3.76-5.73-2.72-6.09.88a21,21,0,0,0,3.38,13.58c1.22,1.81,4.28,2.46,5.35,0a35.32,35.32,0,0,0,3-15,3.09,3.09,0,0,0-6.08-.88,14.67,14.67,0,0,0-.22,8.28,3.09,3.09,0,0,0,4.56,2,15.18,15.18,0,0,0,4-4c1-1.42.21-3.7-1.11-4.53-1.59-1-3.23-.24-4.24,1.19a6.53,6.53,0,0,1-1.75,1.61l4.55,2a8.05,8.05,0,0,1,.21-4.76l-6.09-.88A27.42,27.42,0,0,1,396.64,855H402a15.08,15.08,0,0,1-2.52-10.27l-6.09.88a14.32,14.32,0,0,1-.93,10.41h5.35a23.41,23.41,0,0,1-3.33-15.49l-5.66.79a14.64,14.64,0,0,1,.85,13.29H395a20.17,20.17,0,0,1-2-11.38l-6.09-.88a38.1,38.1,0,0,1,.2,7.7,29.76,29.76,0,0,1-.49,3.39c-.12.6-.26,1.2-.41,1.8l-.24.89c-.23.7-.24.78,0,.25l1.37-.85h.12L389,856c-.52-.24-.93-3.41-1.12-4.26-.43-2-.75-4.07-1-6.13a71.88,71.88,0,0,1-.13-12.62h-6.2A55.55,55.55,0,0,1,379,854.88h6c-1.91-8.32-3.79-17.11-1.22-25.52l-6.08-.88a83.79,83.79,0,0,1-1.6,29.78l6.08.87-2.59-30.08a3.25,3.25,0,0,0-2.69-3.25,3.08,3.08,0,0,0-3.41,2.37,51.44,51.44,0,0,0,.11,18.76,67.32,67.32,0,0,0,2.19,8.63c.48,1.5,1,3,1.58,4.46.26.69.56,1.36.8,2.05a5.27,5.27,0,0,1,.25.86c.08-.63,0-.67-.12-.14l.8-1.46c.07-.09.84-.14.82-.17s-.72-.2-.86-.24a14.17,14.17,0,0,1-1.68-.64,16.07,16.07,0,0,1-3.44-2.17,17.59,17.59,0,0,1-4.6-6c-1.24-2.59-5-1.84-5.66.79l-1.24,4.79,6.07.9c.49-6.51,1.07-13,1.89-19.47.63-5,1.52-10.56,4.52-14.63l-5.17-3.22a244.09,244.09,0,0,1-5.89,30.13l6,1.76q3.43-14.4,7.27-28.68h-6c1.83,4.76,1,10,.56,15l-1.47,17.4a3.22,3.22,0,0,0,2.69,3.25,3.18,3.18,0,0,0,3.41-2.37c3.84-10.35,2.86-21.71,1.74-32.51-.4-3.8-4.74-4.4-6.09-.88l-1.82,4.77,6.07.89a15.8,15.8,0,0,1,3-8.56l-5.66-.79c1.46,4.77,4.71,8.17,7.08,12.38,2.55,4.55,2,9.76,1.52,14.82-.37,3.7,5.37,4.51,6.08.88.37-1.89.69-4.79,2.26-6a2.85,2.85,0,0,1,1.33-.53c.35.06.36,0,.34,0a5.88,5.88,0,0,1,.8,1.51,6.72,6.72,0,0,0,6.51,3.71c3-.24,5.21-2.17,7.29-4.26l-5.19-1.48a11.55,11.55,0,0,0,3.43,5.3,7.29,7.29,0,0,1,1.52,1.82c-.14-.27-.18.23,0,0-.14.23-.25.5-.4.73-.69,1-1.61,1.87-2.36,2.83-1,1.23-1.88,2.51-2.74,3.83a47.68,47.68,0,0,0-3.91,7.42l4.87-.67c-4.11-3.6-8.62-7.14-14.25-6.29a9.42,9.42,0,0,0-6.27,3.75c-1.44,1.93-2,4.49-3.59,6.33l4.87.66-5.43-9.64c-1.38-2.44-2.35-4.11-1.09-6.79,1.14-2.44,2.79-4.57,3.85-7,.2-.47.39-1,.57-1.44s.49-.69-.14-.38c-.87.42-.9.23-.21.78a44.37,44.37,0,0,1,3.65,3.61c2.92,2.89,7.31-1.78,4.38-4.69Z" transform="translate(-353.48 -669)"/><path class="cls-1" d="M368.35,826.51c-2.92,2-6,3.83-8.78,6s-5.27,5.3-5,9.29,2.4,7.77,3.93,11.34,2.62,7.79,6.76,8.12a3.16,3.16,0,0,0,3-2.43,114.36,114.36,0,0,1,3.41-13.34c.72-2.23,1.49-4.44,2.35-6.62.7-1.76,1.55-3.44,1.44-5.41a4.51,4.51,0,0,0-4-4.55c-2.14-.13-4,1.32-5.65,2.7-3,2.56-5.17,6.09-7.23,9.53l5.77,1.67c-.06-2.32.88-4.35,1.83-6.39l-5.66-2.55c-1.58,4.93-2.45,10.93-1.32,16.09a6.69,6.69,0,0,0,4.55,5.08c2.22.69,4.34-.19,6.5.21a3.17,3.17,0,0,0,3.81-2.32c.41-1.59-.5-3.78-2.16-4.07-2-.36-3.77.07-5.7-.07a2.11,2.11,0,0,1-1.14-.34c.41.29.12.37.18,0,0,.14-.19-1.63-.13-.91a29.69,29.69,0,0,1,1.4-11.89c1.13-3.52-4.09-5.92-5.66-2.55-1.44,3.07-2.76,6.21-2.68,9.72a3.09,3.09,0,0,0,5.76,1.68,45.25,45.25,0,0,1,3.49-5.33,21.36,21.36,0,0,1,2-2.21,10.39,10.39,0,0,1,.9-.74c.27-.19.54-.38.82-.55.46-.3.56-.35.31-.13l-1.56-.45c1.44.66-1-1-.65-1.35a4.87,4.87,0,0,0-.23.83c-.37,1.06-.84,2.07-1.24,3.12q-1.2,3.13-2.22,6.33a116.79,116.79,0,0,0-3.34,13.06l3-2.43c1.08.08.93.53.43-.57-.26-.56-.49-1.14-.74-1.71l-1.71-4c-.85-2-2.93-5.28-2.44-7.55.38-1.76,2.37-3,3.67-3.87,2.34-1.61,4.7-3.19,7-4.77,3.36-2.28.25-8-3.13-5.72Z" transform="translate(-353.48 -669)"/><path class="cls-1" d="M396.89,859.69l1.43,1.47a1.24,1.24,0,0,0,2.11-.93,2.83,2.83,0,0,0-1.38-2.68,1.21,1.21,0,0,0-1.7.53,1.34,1.34,0,0,0-.12,1,9.74,9.74,0,0,0,1.36,3.31,1.23,1.23,0,0,0,1.4.61,1.32,1.32,0,0,0,.91-1.27c-.1-1.38-.73-3.26-2.13-3.65a1.51,1.51,0,0,0-1.85,1.14v0a3,3,0,0,0,.79,2.39,1.19,1.19,0,0,0,1.75-.1,1.4,1.4,0,0,0,0-1.78c-.18-.22-.05-.29-.13,0l-.31.58.09-.09-.55.33c-1,.33-.64-.4-.48,0,.05.14.15.26.21.4a2.45,2.45,0,0,1,.16.66l2.3-.66a7.78,7.78,0,0,1-1.11-2.69l-1.82,1.5c.21.11.18.14.16.39l2.09-.94-1.42-1.48c-1.15-1.18-2.9.69-1.75,1.88Z" transform="translate(-353.48 -669)"/><path class="cls-2" d="M407,838.41c-2.19-4.54-8,.3-10.22,2.37l1.94.27c-.62-1.18-1.26-2.35-2-3.49a7.57,7.57,0,0,0-2-2.6c-1.54-1-4.52-.37-6.1.29-2.1.9-3.46,3-5.22,4.42a20,20,0,0,1-6.55,3.49l.95,2.42.66-.31c1.46-.69.2-3-1.24-2.29l-.65.32c-1.3.61-.38,2.84.95,2.42a23.44,23.44,0,0,0,9.84-6.27,6.39,6.39,0,0,1,5.57-2.23c1,.14,1.4,1.33,1.91,2.17s1.13,2,1.65,3a1.22,1.22,0,0,0,1.73.45,1.24,1.24,0,0,0,.22-.18c.86-.81,5.41-4.84,6.34-2.91.73,1.51,2.87.17,2.14-1.33Z" transform="translate(-353.48 -669)"/><path class="cls-2" d="M389.39,836.13c-.87-3.39-1.82-6.9-3.95-9.67-1-1.32-2.4-2.2-3.49-3.45s-1.28-3.31-2.19-4.87a4,4,0,0,0-2.93-2.13c-1.82-.15-3.55,1.26-5.07,2.14-1.32.78-3.16,1.43-4.06,2.8s-1.15,3.59-1.58,5.22a5.34,5.34,0,0,1-.93,2.44,10.75,10.75,0,0,1-2.33,1.42,33.17,33.17,0,0,0-4.71,3.41c-2.72,2.35-4.74,5.08-4.67,9a29.62,29.62,0,0,0,2.7,10.63,36.17,36.17,0,0,0,2.5,4.88,14.25,14.25,0,0,0,3,3.94,3.53,3.53,0,0,0,1.86.8c1,.07,1.8-.51,2.72-.48,1.86,0,2.79,2.58,3.94,3.78,1.37,1.42,2.82,1.29,4.52.73a56.62,56.62,0,0,0,6.36-2.61c1.45-.69.2-3-1.24-2.29s-3.07,1.38-4.64,1.95a9.46,9.46,0,0,1-2.14.72c-1.13.08-1.62-1-2.22-1.85-1.51-2.09-3.26-3.49-5.81-2.87-.79.2-1.33.4-2-.14a6.53,6.53,0,0,1-1.27-1.65,34.9,34.9,0,0,1-2.35-4,35.28,35.28,0,0,1-3.12-9.07,10.32,10.32,0,0,1,0-4.88,9,9,0,0,1,2.85-4,29.16,29.16,0,0,1,3.86-3,35.36,35.36,0,0,0,3.63-2.24c2.3-2,1.76-5.46,3-8,.6-1.23,2.84-2,4-2.65,1.44-.84,3.23-2.4,4.29-.28.7,1.41.83,3,1.77,4.27a31.43,31.43,0,0,0,3.28,3.25c2.38,2.5,3.27,6.12,4.13,9.46a1.25,1.25,0,1,0,2.39-.71Z" transform="translate(-353.48 -669)"/><path class="cls-2" d="M373.37,866.88c1.29,3.15,3.44,9.24,7.69,7.07,3.61-1.84,3.27-7.51,7-9.3,4.44-2.12,6.69,4.75,10.53,5.17,2,.21,2.92-1.71,3.87-3.23l4.16-6.62c.83-1.32,1.67-2.65,2.48-4a3.94,3.94,0,0,0,.79-2.89c-.42-2.28-2.52-4.6-4-6.26-1.1-1.24-2.85.64-1.75,1.88a24,24,0,0,1,2.47,3.27c.35.56.93,1.3.76,2a7,7,0,0,1-.9,1.45l-4.34,6.87L400,865.78c-.45.72-.65,1.58-1.69,1.17a5.25,5.25,0,0,1-1.3-1.11,18.35,18.35,0,0,0-4.78-3.58c-3.82-1.69-7.17.62-9.13,4.12-.78,1.4-1.88,5.81-4,5.35-1-.22-1.49-1.61-1.91-2.44-.62-1.22-1.18-2.48-1.7-3.74-.64-1.56-2.79-.22-2.14,1.32Z" transform="translate(-353.48 -669)"/><path class="cls-2" d="M404.42,839c.58,3.31,3.53,4.11,5.33,6.41,2.34,3,0,7.07-1.86,9.56-1,1.33.77,3.22,1.75,1.87,2.11-2.87,4.05-6.19,3.38-10a7.36,7.36,0,0,0-2.63-4.39c-1.4-1.2-3.22-2.11-3.58-4.16-.28-1.67-2.67-1-2.38.71Z" transform="translate(-353.48 -669)"/><path class="cls-2" d="M375.35,825.15a4.8,4.8,0,0,0-1.1,6.35c1.2,2,3.63,3,5.45,1.36,1.22-1.1-.54-3-1.75-1.88-.58.52-1.52-.68-1.74-1.1a2,2,0,0,1,.38-2.44c1.28-1,.05-3.28-1.24-2.29Z" transform="translate(-353.48 -669)"/><path class="cls-2" d="M360.57,843.91A3.55,3.55,0,0,0,364,841.5a5.59,5.59,0,0,0-.78-4.9,1.26,1.26,0,0,0-2.14,1.33c.57.89,1.38,3.41-.46,3.31-1.59-.08-1.59,2.57,0,2.65Z" transform="translate(-353.48 -669)"/><path class="cls-2" d="M360.6,848.51c1.6,0,1.6-2.65,0-2.65S359,848.51,360.6,848.51Z" transform="translate(-353.48 -669)"/><path class="cls-2" d="M388.47,851.2c-1.62,2-2.17,4.92-.5,7.12a3.87,3.87,0,0,0,5.69.65l.17-.16c1.21-1.12-.55-3-1.75-1.88a1.51,1.51,0,0,1-2.35-.51,3.06,3.06,0,0,1,.49-3.35c1-1.29-.71-3.17-1.75-1.87Z" transform="translate(-353.48 -669)"/><path class="cls-2" d="M392.47,844.92a3.85,3.85,0,0,0,6.18,1.27,1.39,1.39,0,0,0,0-1.87,1.21,1.21,0,0,0-1.75,0c-.86.72-1.86.16-2.29-.75-.69-1.54-2.83-.2-2.14,1.32Z" transform="translate(-353.48 -669)"/><path class="cls-2" d="M363.84,845.58c1,0,1-1.66,0-1.66A.83.83,0,0,0,363.84,845.58Z" transform="translate(-353.48 -669)"/><path class="cls-2" d="M363.35,847.85a.5.5,0,1,0-.46-.5A.49.49,0,0,0,363.35,847.85Z" transform="translate(-353.48 -669)"/><path class="cls-2" d="M372.56,829a.5.5,0,1,0-.46-.5A.48.48,0,0,0,372.56,829Z" transform="translate(-353.48 -669)"/><path class="cls-2" d="M371.76,834.71a.5.5,0,1,0-.47-.5A.48.48,0,0,0,371.76,834.71Z" transform="translate(-353.48 -669)"/><path class="cls-2" d="M370.46,831.92a1,1,0,0,0,0-2A1,1,0,0,0,370.46,831.92Z" transform="translate(-353.48 -669)"/><path class="cls-2" d="M374.66,835.88a1.33,1.33,0,0,0,0-2.64C373.07,833.24,373.07,835.88,374.66,835.88Z" transform="translate(-353.48 -669)"/><path class="cls-2" d="M385.82,851.08c1.59,0,1.59-2.64,0-2.64A1.33,1.33,0,0,0,385.82,851.08Z" transform="translate(-353.48 -669)"/><path class="cls-2" d="M382.75,851.62a.83.83,0,0,0,0-1.65A.83.83,0,0,0,382.75,851.62Z" transform="translate(-353.48 -669)"/><path class="cls-2" d="M385,853a.5.5,0,1,0-.47-.5A.48.48,0,0,0,385,853Z" transform="translate(-353.48 -669)"/><path class="cls-2" d="M382.59,854.57a.5.5,0,1,0-.47-.49A.48.48,0,0,0,382.59,854.57Z" transform="translate(-353.48 -669)"/><path class="cls-2" d="M385.82,858.55a.5.5,0,0,0,0-1h0a.5.5,0,0,0,0,1Z" transform="translate(-353.48 -669)"/><path class="cls-2" d="M400.68,846.63a.48.48,0,0,0,.47-.5.47.47,0,1,0-.93,0A.48.48,0,0,0,400.68,846.63Z" transform="translate(-353.48 -669)"/><path class="cls-2" d="M401.49,850.23a1,1,0,0,0,0-2A1,1,0,0,0,401.49,850.23Z" transform="translate(-353.48 -669)"/><path class="cls-2" d="M397.45,850.74c1.6,0,1.6-2.65,0-2.65S395.86,850.74,397.45,850.74Z" transform="translate(-353.48 -669)"/></svg>