<svg id="meteor" xmlns="http://www.w3.org/2000/svg" viewBox="0 0 34 41.21"><defs><style>.cls-1{fill:#3e3f4c;}.cls-2{fill:#23242d;}</style></defs><title>Meteor4</title><path class="cls-1" d="M1230.27,981.33c-7,.87-15,4.87-13.29,13.33.76,3.82,2.83,7.61,4.27,11.23.73,1.85,1.29,3.75,2.77,5.15a6.3,6.3,0,0,0,7.27.76c1.82-1.09,3.21-3,4.61-4.55l4.32-4.74c2.52-2.76,5.37-5.61,6.43-9.3a13,13,0,0,0-1.78-10.67c-2.08-3.19-5.1-6.9-9-7.79a5.49,5.49,0,0,0-6.65,3.78,58.25,58.25,0,0,1-7.37,17.35c-3.72,5.91,5.63,11.36,9.34,5.46a68,68,0,0,0,8.46-19.93l-6.65,3.78c-.42-.47-.3-.36.36.34.39.4.78.81,1.15,1.23a7.6,7.6,0,0,1,1.62,2.31c.4,1.2-.21,1.9-1,2.9-1.43,1.86-3.19,3.54-4.78,5.27a64,64,0,0,1-5.66,6.08l3.82-1.59-.72.09,3.83,1.58c.54.92.54.8,0-.37l-.4-1-1.18-3c-.74-1.87-1.35-3.9-2.26-5.69l-.26-.81c0-.54-.15-.29-.29.68,0,0,.27-.26.34-.27.83-.1,1.93-.77,2.63-.86,2.9-.36,5.41-2.23,5.41-5.41,0-2.64-2.49-5.76-5.41-5.41Z" transform="translate(-1215 -973)"/><path class="cls-2" d="M1249,990.77c-.23-3.53-.54-7.29-2.37-10.41-1.74-3-4.64-4.7-7.8-5.82-2.51-.89-6.59-2.53-9-.73-1.48,1.08-1.62,3-2,4.72l-1.53,7.26c-.5,2.38,3.15,3.39,3.65,1,.6-2.81.81-6.14,1.86-8.8.6-1.54,1.4-1.08,2.83-.74a31.88,31.88,0,0,1,3.57,1.08c5.63,2.16,6.65,7,7,12.44.16,2.41,4,2.43,3.78,0Z" transform="translate(-1215 -973)"/><path class="cls-2" d="M1226.89,980.31c-4.92,2.49-13.36,5.84-11.67,12.66.91,3.65,2.37,7.24,3.56,10.81,1.11,3.33,2.19,6.66,4.33,9.51a1.94,1.94,0,0,0,2.59.67c4.83-2.75,9.94-4,13.55-8.53,3.25-4.06,5.12-9.09,8.86-12.78,1.74-1.71-.94-4.38-2.7-2.67-3.51,3.46-5.44,7.94-8.24,11.92-3.42,4.87-8.51,6-13.41,8.8l2.59.67c-3.37-4.48-4.6-10.57-6.35-15.82a23.81,23.81,0,0,1-1.15-3.59c-.35-2.16.9-3,2.53-4.11a68.9,68.9,0,0,1,7.4-4.27c2.17-1.08.26-4.36-1.91-3.25Z" transform="translate(-1215 -973)"/><path class="cls-2" d="M1227.71,1002.47a1.29,1.29,0,0,1,2.39.31,1.91,1.91,0,0,0,2.59.67,1.93,1.93,0,0,0,.68-2.59,5,5,0,0,0-6.67-2.36,4.94,4.94,0,0,0-1.66,1.28,2,2,0,0,0,0,2.68,1.91,1.91,0,0,0,2.67,0Z" transform="translate(-1215 -973)"/><path class="cls-2" d="M1236.65,983.64a1.9,1.9,0,0,0,0-3.79A1.9,1.9,0,0,0,1236.65,983.64Z" transform="translate(-1215 -973)"/><path class="cls-2" d="M1240.88,985.08a1.08,1.08,0,0,0,0-2.16A1.08,1.08,0,0,0,1240.88,985.08Z" transform="translate(-1215 -973)"/><path class="cls-2" d="M1235.24,986a.54.54,0,0,0,0-1.08.54.54,0,1,0,0,1.08Z" transform="translate(-1215 -973)"/><path class="cls-2" d="M1238.34,986.8a.54.54,0,0,0,.54-.54.54.54,0,1,0-1.08,0A.54.54,0,0,0,1238.34,986.8Z" transform="translate(-1215 -973)"/><path class="cls-2" d="M1224.24,996.64a1.35,1.35,0,0,0,0-2.7A1.35,1.35,0,0,0,1224.24,996.64Z" transform="translate(-1215 -973)"/><path class="cls-2" d="M1227.9,996.94a.81.81,0,1,0-.81-.81A.81.81,0,0,0,1227.9,996.94Z" transform="translate(-1215 -973)"/><path class="cls-2" d="M1227.05,992.13a1.08,1.08,0,0,0,0-2.16A1.08,1.08,0,0,0,1227.05,992.13Z" transform="translate(-1215 -973)"/></svg>