<svg id="meteor" xmlns="http://www.w3.org/2000/svg" viewBox="0 0 333.98 608.63"><defs><style>.cls-1{fill:#3e3f4c;}.cls-2{fill:#23242d;}</style></defs><title>Meteor10</title><path class="cls-1" d="M48.72,324.07q.27-6.57.62-13.08c.11-2,.22-4,.35-6a16.07,16.07,0,0,1,.16-2.15s-.1-.05.17-.11c2.56-.5,5.27,1.57,7.66,5.87,1.29,2.33,2.35,5.47,3.87,5.1S64.18,310,65.24,308c2.07-4.09,4.12-8.51,6.53-11.21,2.6-2.93,5.71-3.26,7.46-9.77l-2.86-.83c2,6.7,4.85,11.18,7.75,12.41a13.49,13.49,0,0,1,4.62,3.6l4.91,5.62,5.09,5.79c1,1.13,2.5,2.08,3.12,5a49.83,49.83,0,0,1,.65,9.29,65.84,65.84,0,0,1-.55,10.56c-1,5.81-3.6,7.21-5.83,7.55-3.16.49-6.43-.66-9.65-1.46-6.71-1.65-13.42-3.24-20.14-5-3.24-.83-6.68-1.93-9.83-6.17A26.64,26.64,0,0,1,52,315.68c.67-5.85-2.75-10.8-3.42-4.92A55.4,55.4,0,0,0,52,336.21c2.72,6.51,6.22,9.77,9.45,11.49,3.52,1.88,7,2.35,10.55,3.22l11.29,2.79c3.69.91,7.41,2.18,11.07,2.5,3.13.29,6.49-.39,8.89-5.28,2.49-5.11,3-14,2.87-23A73.63,73.63,0,0,0,105,315.26c-.86-4.39-2.19-7.21-3.78-9.09-4.09-4.84-8.21-9.55-12.33-14.08a13.66,13.66,0,0,0-3-2.71,21.46,21.46,0,0,1-3-1.58c-1.44-1.19-2.79-3.66-3.82-7-.82-2.64-2.18-3.35-2.86-.82a6.94,6.94,0,0,1-2.61,4.11,24.27,24.27,0,0,0-3.72,3.23c-2.58,3-4.8,7.58-7,12-.5,1-1,2-1.52,2.93-.18.33-.46,1.13-.68,1.26.23-.13.13.05-.12-.6a22.89,22.89,0,0,0-4-6.58,10.92,10.92,0,0,0-4.43-3.49c-1.46-.49-3.19-1-4.42.82-1.53,2.27-1.58,8-1.84,12.55q-.45,7.63-.75,15.42c-.26,6.31,3.35,8.75,3.6,2.47Z" transform="translate(82.68 -272.58)"/><path class="cls-1" d="M51.91,298.54c-1.1-.43-2.09-.11-2.89,1.74a12,12,0,0,0-.15,7c2.88,9.86,7.5,13,10.88,8.12,1.32-1.9.36-8.35-1.07-9.29l-7.17-4.66-.25,9.9,9.34,4.21-.69-9.85c-3.36,1.55-7-.05-10.39-4.57-.92-1.22-2-.51-2.29,2-.88,7.09-1.15,15.22.54,22.89,1.45,6.63,3.87,11.1,6.36,13.38,3,2.73,6,1.46,8.77-.22a6.51,6.51,0,0,0,3.56-4.44A18.8,18.8,0,0,0,65.94,324c-1.26-3.11-3.29-3.77-4.76-5l-5.37-4.37.23,10a123.31,123.31,0,0,0,16.77-8.89l-1.63-9.76a31.21,31.21,0,0,1-14,6.31l1.16,10c6.93-3.58,13.3-11.16,18.75-22.32,1.27-2.6.23-9.83-1.55-9.44-5.58,1.19-10.57,7.48-14.25,18a13.05,13.05,0,0,0,.15,6.19c.57,2.06,1.41,2.64,2.17,2.21,5.82-3.37,11.21-9.67,16-18.62.67-1.36.79-4.12.27-6.45s-1.43-3.29-2.3-2.8c-5.21,2.92-9.73,10.12-13.2,20.46a13.21,13.21,0,0,0,.15,6.2c2.86,8.57,6.63,4.3,9.55,2a71.16,71.16,0,0,0,10.27-10.22c.83-1,1.26-3.57.8-6.35-.43-2.6-1.57-4.28-2.43-3.42C80,300.49,77,301.05,74,299.39c-2.31-1.27-2.58,8.32-.25,9.89a59.89,59.89,0,0,0,19.07,8.77c1.84.46,1.83-7.3.22-9.56-2.49-3.48-5-3.69-7.55-4.13-1.72-.3-4.07-.94-5.45-5.19l-1,7.76c5.82.74,11.75,5.7,17.21,14.43L96,312c-4.41,2.49-8.61-9.76-11.24-19.63l-1.92,7.18c6.11,9.13,12.32,18.25,18.84,22.68,2.06,1.39,2.65-6.54.71-9.42l-12.07-18C88.41,292,87,299.07,88.74,303c3.85,8.65,8.15,15.25,12.65,19.39,2.09,2,2.56-6.57.71-9.41-5.45-8.39-11.11-17-17-20.08-4.89-2.52-9.87-.84-13.55,6.59-2,3.94-3.48,9.54-4.18,16.3-.33,3.23.66,8,2.07,7.57A61,61,0,0,0,91.81,311c1.51-1.28,1.14-9.14-.69-9.84-3.77-1.43-7.14,1.24-10.54,3.64l-10,7c-.81.57-1.16,3.34-.87,5.7.33,2.67,1.13,4.08,2,4.3a143.57,143.57,0,0,0,27,3.74c2.3.09,1.58-10.05-.72-10.2a129.41,129.41,0,0,1-21.84-3.22c-1.74-.39-1.95,7.68-.23,9.56,5.89,6.51,12,9.91,17.92,10a14.9,14.9,0,0,0,4.29-.58c1.35-.38,2.86-.64,3.51-4.2a22.18,22.18,0,0,0-1.28-11.39c-1.13-2.67-2.48-2.67-3.65-4.75l-1.18,8.95c1.87,2.28,3.85,2.76,5.48.53,1.16-1.59,1.33-5.51.18-8.58-1.61-4.28-3.58-7.25-5.63-8.5-1.74-1.06-2.7,5.15-1.12,8.63a79.45,79.45,0,0,0,7.74,13.8l.22-9.56c-11.64-3.52-23.17-4-34.67-4.46l.71,10.2,13-.15-.71-10.2L57,322.41c-.93.42-1.63,2.21-1.42,5.22s1.16,4.86,2.13,5c3.91.41,7.58-2.37,10.58-8,1.1-2.06.51-8.68-1.08-9.29a17.75,17.75,0,0,0-9.92-1.09,12.11,12.11,0,0,0-4.72,1.69c-1.29.89-2.55,4.09-2,8.52.33,2.9,1.05,4.82,2.12,5,2.66.37,5.12-1.77,7-6.1,1.09-2.49.53-8.1-1.07-9.29a8.69,8.69,0,0,0-7.22-1.93c-1.91.48-5.18,2.22-4,10.23.81,5.24,3.56,7.43,5.25,8.13,2,.82,4,0,5-4.68a13.29,13.29,0,0,0-.51-7.21c-1.26-3-2.66-6-4.23-6.81s-3.08.4-3.84,3.86A25.81,25.81,0,0,0,49.64,327c1.22,4.13,3.16,5.14,4.17,1.43,1.56-5.7.93-15.63-1.44-21.08-1.59-3.66-3.65-3.14-4.26,1.76-.52,4.13-.67,9-1,13.39L50.74,325q.24-9.6.06-19.42c0-2.29-.39-4.51-1.22-5.7s-1.63-.69-2.09,1a64.25,64.25,0,0,0-1.66,18.45c.19,5.68,3.67,6.82,3.57,1.11-.15-6.88,1-12.84,3-15.66.81-1.16.74-4.88.15-7-.72-2.57-1.75-2.82-2.56-1.66-2.76,4.14-4.36,12.34-4.24,21.85L49.37,319a39.11,39.11,0,0,1,1.12-11.17l-3.3-4.75q.18,9.81-.07,19.42c0,2.72.7,5.46,1.68,6.18s1.75-1.15,1.93-3.72l.52-7.33a29,29,0,0,0,.22-3l.06-.58-1.15.71c0,.07.23.55.25.7.26,1.86.78,4.39.19,6l.84-.76c.38.08.31.27.54.52s0,.68,0-.14c0,1.5-.19.72.28.61.9-.23,1.92,2.6,2.61,4.24l-.51-7.21c-.34,1.75-.78,2.05-1.56,1.87a4.29,4.29,0,0,1-1.63-1.07,5.61,5.61,0,0,1-.63-.65l-.23-.28c-.69-1.14-.7.31,0,4.37.25.06.86-.49,1.21-.6a6.54,6.54,0,0,1,2.32-.27,8.19,8.19,0,0,1,4.25,1.81l-1.07-9.29c-1.43,3.33-3.3,5-5.32,4.58l2.13,5a7.69,7.69,0,0,0-.19,1.68.17.17,0,0,0,0,.07c.06.1.44-.32.5-.36a10.29,10.29,0,0,1,1.76-.68,15.68,15.68,0,0,1,3.54-.72,16,16,0,0,1,7.26,1l-1.08-9.29c-2.52,4.68-5.61,6.93-8.88,6.5l.71,10.19,23.82-10.89c.93-.42,1.63-2.21,1.42-5.22-.21-2.8-1.16-5-2.13-5l-13,.19c-2.3,0-1.58,10.11.71,10.2,11.51.45,23,.94,34.68,4.49,1.86.56,1.82-7.36.23-9.57a69.38,69.38,0,0,1-6.91-12.27l-1.13,8.64c1.42.85,2.79,3,3.89,6l.19-8.58c-.82,1.12-1.7,1.5-2.68.31-2.28-2.81-3.27,5.21-1.17,8.93a7.31,7.31,0,0,0,1.59,1.93c.19.17,1.06,1.3,1.21,1.17a.84.84,0,0,0,0,.17s.18-2.52.18-2.52c-.08-.2-1,.43-1.15.47a15.19,15.19,0,0,1-6.87.35c-4.49-.81-9-3.69-13.46-8.52l-.22,9.56a129.37,129.37,0,0,0,21.85,3.22l-.72-10.19a143.8,143.8,0,0,1-27-3.74l1.17,9.94,9.36-6.57c3-2.08,6-5.2,9.31-4l-.69-9.83a58.53,58.53,0,0,1-21.47,11.9l2.07,7.53c1.06-10.2,4.2-15.87,7.83-18,4.38-2.56,9.28,1.36,13.72,6.84,2.92,3.63,5.77,8,8.61,12.36l.71-9.41c-3.88-3.63-7.59-9.38-10.9-16.88l-1.58,8.15,12.07,18,.72-9.41c-6.23-4.22-12.11-13-17.93-21.72-1.74-2.61-3.08,2.84-1.93,7.14,3.86,14.47,9.47,27.48,15.57,24,1.55-.87,1.08-7.24-.23-9.34-6.08-9.58-12.66-15-19.12-15.68-1.29-.15-2,4.75-1,7.78,1.94,5.93,4.42,8.65,7,9.54s5.1,0,7.52,3.34l.22-9.57A57.19,57.19,0,0,1,74,299.44l-.25,9.89c3.7,2.08,7.35,1.46,10.62-1.79l-1.64-9.76A73.38,73.38,0,0,1,74,306.71a55.18,55.18,0,0,1-4.37,3.38c-.51.35-2,1.48-2.39.34l.16,6.2c3.09-9.2,7.21-15.17,11.82-17.74l-2-9.22c-4.51,8.46-9.64,14.39-15.17,17.53l2.32,8.4c3.06-8.68,7.34-13.79,12-14.81l-1.55-9.45c-5.22,10.66-11.33,17.88-18,21.24-1.92,1-.78,10.3,1.17,10a33.31,33.31,0,0,0,14.87-6.74c.89-.68,1.22-3.81.8-6.36-.47-2.82-1.53-4-2.43-3.41a114.87,114.87,0,0,1-15.86,8.46c-.85.37-1.51,1.82-1.43,4.54.06,2.52.77,4.86,1.67,5.52l4.34,3.52,2.24,1.85,1.05.85c.24.19.7.86.91.75-.32.17-1.64-4.06-.58-4,.16,0-.56.8-.44.67a7.53,7.53,0,0,1-1.82,1.22,7.5,7.5,0,0,1-4,1.36c-2,0-4.24-1.81-5.84-6.44-1.73-5-1.4-11.13-.77-16.28l-2.29,2c4.37,5.79,8.89,7.51,13.18,5.4,1.68-.82,1-9.06-.68-9.83l-9.35-4.21c-1-.44-1.86.89-1.93,3.72s.69,5.48,1.68,6.19L58.41,316l-1.07-9.29c-1.72,2.48-4.37.05-5.78-4.81l-.15,7a4.43,4.43,0,0,1,.23-.53c1,.4,1.86-.84,1.93-3.72.07-2.46-.69-5.79-1.68-6.18Z" transform="translate(82.68 -272.58)"/><path class="cls-1" d="M97.07,311.56a12.9,12.9,0,0,1,3.44-5.4c1.07-.84,1.29-.17,1.8,2.9a248.5,248.5,0,0,1,2.52,27.09l3.54-.25c-.68-12.34-3.15-24.21-6.8-32.71-1-2.41-2.87-1.49-2.8,2.45.09,6.09.43,12.25,1,18.37.61,6.47,4.1,6.37,3.54-.25-.87-10.34-3.34-20.94-7.42-21.5l2.13,5A127.42,127.42,0,0,0,95.77,291c-1.06-5-2.46-11.28-4.54-12.95-1.07-.89-2.13-.15-2.77,1.94a40.86,40.86,0,0,0-.91,6.51,86.39,86.39,0,0,1-2.33,13.07l3.22,6q.54-3.82,1.27-7.34c.29-1.39.81-5,1.36-5.26l-.94.06-.07-.08-.76-1.78c-.09-.78-.09-.73,0,.16l.06.71c.05.72.12,1.45.18,2.17.15,1.65.34,3.29.56,4.91a28.93,28.93,0,0,0,2.12,7.95c1.23,2.59,2.58,1.26,2.8-2.46a45.27,45.27,0,0,0-1.66-15.49c-1.69-5.1-4.19-6-6.32-6.36s-4.37.48-6.32,2.56A7.51,7.51,0,0,0,78.13,291a22.24,22.24,0,0,0,1.42,9.27c1.93,4.62,3.92-2.77,2-7.38.18.43.1,2,.18.59l-.6,3.11c2.1-3.18,4.58-4.41,7.17-3.55A3.32,3.32,0,0,1,91,295.52a21.56,21.56,0,0,1,.42,6.63l2.8-2.46c-.84-1.78-1-4.61-1.27-7.22a38.14,38.14,0,0,0-.79-6.13c-.55-2.12-1.42-3.43-2.27-3.4-1.51.11-2.3,4.09-3,7.17q-1.1,5-1.89,10.49c-.72,5,2.1,10.21,3.21,6a98.53,98.53,0,0,0,2.05-9.88c.27-1.7.5-3.46.7-5.27.09-.89.17-1.79.26-2.7,0-.34.06-.68.1-1,.19-1,.07-1-.37.12-.22-.15-.25-.13-.11.06l.24.57a21.57,21.57,0,0,1,.7,2.37c.44,1.64.83,3.36,1.17,5.14a107.35,107.35,0,0,1,1.52,11.5c.23,2.91,1.14,4.83,2.13,5,1.89.27,2.81,7.45,3.16,11.56l3.54-.25c-.51-5.2-.83-10.45-.93-15.64l-2.8,2.45c2.85,6.65,4.76,16,5.26,25.6.35,6.58,3.87,6.28,3.54-.25-.29-6-.75-12-1.38-18-.55-5.34-1.11-11.34-2.34-16.13-2.86-11.1-7.64-4.77-10,1.1a12.2,12.2,0,0,0-.14,7c.6,2.17,1.88,3.33,2.55,1.66Z" transform="translate(82.68 -272.58)"/><path class="cls-1" d="M85.25,288.36c-1.8-3.09-3-7.09-4.32-11.61-2-6.68-4.19-2.69-5.89.25-3.14,5.49-5.78,12.78-7.79,21.52a13.2,13.2,0,0,0,.5,7.21c.78,1.81,2,1.95,2.51-.18a88.79,88.79,0,0,1,4-13.3,55.33,55.33,0,0,1,2.48-5.33c.45-.85.91-1.65,1.39-2.41.2-.32.39-.65.6-.93l.21-.3c.3-.31.32-.32.06,0L78.14,282a31.45,31.45,0,0,1,1.06,3.63q.73,2.43,1.55,4.63a45.35,45.35,0,0,0,3.33,7c.89,1.54,2,.27,2.29-2a12.09,12.09,0,0,0-1.12-6.93Z" transform="translate(82.68 -272.58)"/><path class="cls-2" d="M95,308.1c1.62-3.19,3-8,5-9.49s3.71,1.31,4.69,6.84c.91,5.16,1.21,10.84,1.65,16.2.24,3,2,18.45-.47,16-.46-.45-.81.59-.87,1.66-.5,8.54-3.65,11.66-6.4,12.77a18.56,18.56,0,0,1-10.2,1.53,94.66,94.66,0,0,1-10.68-3.11l-10.89-3.33c-3.43-1.05-6.94-1.69-10.36-4.91a20.93,20.93,0,0,1-4.16-5.91,55.07,55.07,0,0,1-3-8.76,7.23,7.23,0,0,0-1.27-2.82c-.67-.66-1.47.7-2-1.31s-.24-5.35-.18-7.44q.12-3.52.28-7c.19-4,.28-9.24,1.22-12.22.88-2.77,2.45-2.77,3.8-2.57,1.57.24,3.34.46,4.87,2.62s2.42,6.1,3.69,9c1.38,3.15,2.89,4.06,4.49,4.29s3.4-.15,4.58,3.75c.73,2.42,2,0,1.21-2.41-1-3.45-2.45-5-3.89-5.54-1.65-.59-3.46.39-5-2.45-1.38-2.5-2.33-6.62-3.69-9.24a7.26,7.26,0,0,0-4.52-4.09c-3-.94-6.43-1.44-7.58,7-.58,4.26-.73,9.31-.92,14-.17,4.33-.68,10.39.45,14.7a6.26,6.26,0,0,0,1.58,3.21c.35.25.64,0,1,0,.52,0,.66.82,1,2a45.56,45.56,0,0,0,3.56,9.49c3.15,6,6.71,8.28,10.18,9.56,8.12,3,16.25,5.2,24.35,7.51a18.55,18.55,0,0,0,12.95-1.16c3.38-1.52,6.66-5.86,7.25-16.06l-.87,1.64c1.13,1.11,2.17-.29,2.7-2.75.68-3.19.32-7.5,0-11.32-.62-7.61-1-15.9-2.21-23.27-1.06-6.36-3-11.15-5.42-11.2-3-.06-4.77,6.44-6.89,10.6-.78,1.54.29,5.45,1.08,3.9Z" transform="translate(82.68 -272.58)"/><path class="cls-2" d="M61.38,306.64l5.55-12.11c.88-1.93,1.76-4,2.94-4.67s2.57,0,3.85.6c1,.48,1.16-4,.12-4.46-1.35-.63-2.73-1.29-4-.84s-2.29,1.9-3.24,3.9c-2.13,4.45-4.18,9.12-6.27,13.68-.75,1.64.32,5.55,1.08,3.9Z" transform="translate(82.68 -272.58)"/><path class="cls-2" d="M71.91,288.66A60.53,60.53,0,0,1,75,281.44c1-2.06,2.33-4.86,3.81-4.26,2.51,1,4.09,12.58,6.67,10.51a15.41,15.41,0,0,0,3.28-4.27c.57-1,1.06-2.17,1.6-3.27.21-.44.39-1.25.7-.79a8.69,8.69,0,0,1,.45,1.5,27.93,27.93,0,0,0,2.5,6.78,20.93,20.93,0,0,1,1.79,3.58c.4,1.17.91,3.5.46,4.7-.68,1.82.39,5.75,1.08,3.91,1.65-4.42,0-11-1.78-14.38-.53-1-1.08-1.84-1.58-2.93a26.14,26.14,0,0,1-1.26-4.07c-.6-2.31-1.4-4.27-2.38-3.79s-1.9,3.56-2.78,5.07a16.44,16.44,0,0,1-1.73,2.47c-.46.55-1.09,1.67-1.59.88a34.5,34.5,0,0,1-1.72-4.1q-.8-2-1.65-3.78c-1.06-2.13-2.31-3-3.45-2.45-1.39.66-2.55,2.87-3.63,5a69.54,69.54,0,0,0-3.21,7.73c-.67,1.89.69,5,1.36,3.16Z" transform="translate(82.68 -272.58)"/><path class="cls-2" d="M100.71,305.4c-1.58,1-1.78,6.07-1.46,10.31s1.59,7.43,3.1,7.4c1,0,.71-4.61-.33-4.59-1.51,0-1.76-8-.57-8.73C102.42,309.21,101.68,304.81,100.71,305.4Z" transform="translate(82.68 -272.58)"/><path class="cls-2" d="M72.2,302.06c3.08,4.91,6-1.69,4.88-10.77-.35-2.9-1.8-1.55-1.45,1.33.66,5.49-1.31,7.95-2.91,5.42-1-1.55-1.49,2.47-.52,4Z" transform="translate(82.68 -272.58)"/><path class="cls-2" d="M84.91,291.59a17.42,17.42,0,0,0-.4,8.49,19.43,19.43,0,0,0,3.23,8.06c1,1.53,1.5-2.5.53-4a14,14,0,0,1-2-4.1c-.35-1.25-.67-3.44-.25-4.52C86.68,293.7,85.61,289.77,84.91,291.59Z" transform="translate(82.68 -272.58)"/><path class="cls-2" d="M51.65,298.72a20.33,20.33,0,0,0,1.85,10.69c.57,1.09,1.21,2.09,1.86,1.87s1.13-2,1.42-3.69c.42-2.45-1.12-4.66-1.54-2.21-.09.51-.19,1.33-.41,1.33s-.63-1-.8-1.33a9.33,9.33,0,0,1-.84-4.43c.24-2.69-1.3-4.92-1.54-2.21Z" transform="translate(82.68 -272.58)"/><path class="cls-2" d="M48.67,323.07c.62.86,1.3.76,1.78-.25a13.41,13.41,0,0,0,.82-3.9c.29-2.65-1.25-4.87-1.54-2.22a11.63,11.63,0,0,1-.3,2,.87.87,0,0,1-.14.32c-.09.09,0,0-.08,0s0,0,0,0c-1-1.4-1.52,2.62-.53,4Z" transform="translate(82.68 -272.58)"/><path class="cls-2" d="M58.36,315.61c1-.07.7-4.66-.32-4.59S57.33,315.68,58.36,315.61Z" transform="translate(82.68 -272.58)"/><path class="cls-2" d="M56.05,317.14c.69-.05.47-3.11-.21-3.06S55.37,317.18,56.05,317.14Z" transform="translate(82.68 -272.58)"/><path class="cls-2" d="M57.46,320c.57,0,.39-2.59-.18-2.55S56.89,320,57.46,320Z" transform="translate(82.68 -272.58)"/><path class="cls-2" d="M69.55,297.75c.57,0,.39-2.59-.18-2.55S69,297.79,69.55,297.75Z" transform="translate(82.68 -272.58)"/><path class="cls-2" d="M68.33,304.21c1.14-.08.79-5.18-.36-5.1S67.19,304.29,68.33,304.21Z" transform="translate(82.68 -272.58)"/><path class="cls-2" d="M70.4,303.29c.91-.07.63-4.15-.28-4.08S69.49,303.35,70.4,303.29Z" transform="translate(82.68 -272.58)"/><path class="cls-2" d="M90.54,311c.91-.07.63-4.15-.29-4.08S89.63,311,90.54,311Z" transform="translate(82.68 -272.58)"/><path class="cls-2" d="M88.4,312.22c.46,0,.31-2.07-.14-2S87.94,312.26,88.4,312.22Z" transform="translate(82.68 -272.58)"/><path class="cls-2" d="M103.42,330.38c.8-.06.55-3.62-.25-3.57S102.62,330.44,103.42,330.38Z" transform="translate(82.68 -272.58)"/><path class="cls-2" d="M102.15,304.28c.79-.06.55-3.63-.25-3.57S101.35,304.33,102.15,304.28Z" transform="translate(82.68 -272.58)"/><path class="cls-2" d="M103.67,306.08c.45,0,.31-2.08-.15-2S103.21,306.11,103.67,306.08Z" transform="translate(82.68 -272.58)"/><path class="cls-2" d="M91.08,284.24c.46,0,.31-2.07-.14-2S90.62,284.27,91.08,284.24Z" transform="translate(82.68 -272.58)"/><path class="cls-2" d="M91.68,291.41c.45,0,.31-2.07-.15-2S91.22,291.44,91.68,291.41Z" transform="translate(82.68 -272.58)"/><path class="cls-2" d="M92.65,289.43c.92-.06.63-4.14-.28-4.08S91.74,289.5,92.65,289.43Z" transform="translate(82.68 -272.58)"/><path class="cls-1" d="M55.66,327.67a10,10,0,0,0-3.45-1.25c-.33-.05-.25,1.23,0,1.51a24.43,24.43,0,0,0,6.76,5l0-1.49a44.51,44.51,0,0,1-6.68-3.76c-.15-.09-.27.17-.28.58a1.32,1.32,0,0,0,.25.9c1.35,1.19,2.7,2.3,4.06,3.3s2.55,2.16,3.77,2.06c.15.05.26-.26.25-.68s-.14-.81-.29-.85l-5.66-4.79,0,1.48L61.68,335c2.4,1.74,4.9,3.09,7.24,5.81l0-1.44c-2.51-.1-5.07-1.48-7.56-4.08l0,1.5c3.41,1.87,6.85,4.1,10.24,4.57l-.1-1.53a21.92,21.92,0,0,1-9.62-3.24l0,1.48c3.5,1.89,7,3.7,10.44,2.85.14,0,.24-.36.21-.78s-.17-.76-.32-.75c-3.22-.07-6.52-.21-9.76-3.84l-.1,1.41c3.91,1.4,7.86,3.2,11.75,3.58.36,0,.23-1.44-.11-1.53-3.13-.74-6.27-1.58-9.4-4.56l0,1.49a30.82,30.82,0,0,0,10.61,4.5L75,338.86c-3.53-.62-7.14-1.34-10.63-5.73l-.11,1.42a52,52,0,0,0,10.57,6.22l0-1.48a24.59,24.59,0,0,1-10-6.62l-.11,1.41A31.08,31.08,0,0,0,76,340.71c.3.09.27-1.38,0-1.53-4-1.57-8-3.29-11.89-8.52l-.1,1.42A42.18,42.18,0,0,0,75,340l0-1.49a27.76,27.76,0,0,1-11.32-9.23l-.09,1.45A65.92,65.92,0,0,0,75,339.61c.34.21.38-1.27,0-1.49a66.6,66.6,0,0,1-11.38-8.86c-.3-.29-.39,1-.1,1.41A28.24,28.24,0,0,0,75,340.05c.34.15.38-1.32,0-1.49a41.88,41.88,0,0,1-11-7.94c-.3-.29-.4,1-.11,1.41,3.9,5.3,8,7.09,12,8.67l0-1.51a30.55,30.55,0,0,1-11.07-6.59c-.3-.26-.41,1.06-.11,1.42a25,25,0,0,0,10.1,6.76c.35.15.39-1.33,0-1.48a52,52,0,0,1-10.56-6.23c-.3-.22-.41,1.05-.11,1.41,3.58,4.51,7.28,5.28,10.92,5.9.34.06.23-1.46-.11-1.53a30.19,30.19,0,0,1-10.46-4.45c-.35-.22-.38,1.17,0,1.49,3.17,3,6.37,3.85,9.54,4.6L74,339c-3.83-.37-7.74-2.15-11.6-3.54-.28-.1-.44,1.06-.11,1.41,3.34,3.75,6.71,4,10,4l-.11-1.53c-3.36.83-6.83-1-10.29-2.81-.35-.19-.39,1.27,0,1.48a22.3,22.3,0,0,0,9.77,3.29c.34,0,.23-1.48-.11-1.53-3.35-.46-6.74-2.69-10.11-4.52-.15-.1-.28.15-.29.56a1.31,1.31,0,0,0,.26.93c2.53,2.65,5.14,4.05,7.7,4.15.25,0,.29-1.12,0-1.43-2.29-2.65-4.69-4-7-5.7l-7.62-5.54c-.35-.26-.38,1.19,0,1.48l5.65,4.79,0-1.5c-1.27.09-2.68-1.31-4-2.29s-2.49-2-3.73-3.06l0,1.48A45.18,45.18,0,0,0,59,332.9c.34.15.38-1.33,0-1.49a24.4,24.4,0,0,1-6.75-5l0,1.5a10.14,10.14,0,0,1,3.31,1.2c.35.2.38-1.28,0-1.48Z" transform="translate(82.68 -272.58)"/><path class="cls-1" d="M64.45,325.52l-1.31-.13c-.94-.09-.76,3.78.11,4.52q6.34,5.4,12.73,10.18l-.11-4.52c-3.07-.71-6.17-2.84-9.18-6.31l-.32,4.24a79.6,79.6,0,0,0,13.23,7.83l-.11-4.52c-3.9.63-7.92-.41-11.92-3.06-1.08-.72-1.11,3.41-.12,4.45,4.35,4.53,8.84,6.56,13.16,5.94.86-.12.85-4.16-.1-4.52-3.85-1.56-7.53,1.19-11.39-1.37C68.07,337.56,68,342,69,342.7c3.88,2.71,7.78,3.38,11.5,2l-.32-4.59c-2.57,1-5.29.34-8-2l-.12,4.45a66.58,66.58,0,0,1,12.1,5.3l-.11-4.52c-2,.08-4.15-1.16-6.16-3.62L77.61,344l10.93,5.19c1,.5,1.16-3.66.11-4.45a29.54,29.54,0,0,1-8.79-8.93L79.54,340l11.15,10.53c.9.85,1.22-3.22.32-4.23-3.19-3.59-6.43-7.28-9.21-13.66l-.71,3.67a120.33,120.33,0,0,0,12.08,15.11c.91,1,1.17-3,.32-4.24-3.86-5.45-7.88-11.12-10.93-20.41l-1,2.86a185.06,185.06,0,0,0,12.18,20.94c1,1.47,1.47-2.38.53-4-3.65-6.35-7.4-12.95-10.14-22.67l-1,2.87a197.1,197.1,0,0,0,11.36,22.77c.85,1.43,1.51-2,.72-3.68-3.14-6.71-6.31-13.54-8.7-22.53l-1.06,2.87a170.8,170.8,0,0,0,11.26,25.1c.84,1.51,1.48-2,.71-3.67A161.6,161.6,0,0,1,87.91,323l-1,2.87A186.63,186.63,0,0,0,97.32,350c.91,1.71,1.81-1.26.9-3.33-3.09-7.06-6.2-14.25-8.5-23.48l-1.21,2.41a229.21,229.21,0,0,0,9,22.48c.92,1.94,1.72-1.15.9-3.33a183.7,183.7,0,0,1-6.85-21.31l-1.22,2.37a187.55,187.55,0,0,0,8,21.47c.75,1.67,1.75-.69,1.06-2.87-2.14-6.7-4.59-13.36-6.16-21.17l-1.33,1.87,7.83,23c.76,2.24,2,.13,1.22-2.41l-5.61-19.18-1.06,2.85,6.06,17.29c.73,2.07,1.63-.7,1.06-2.87l-5.16-19.62L95,326.55l6,19.33c.76,2.42,1.83.23,1.22-2.42l-4.65-20.1-1.21,2.41,5.2,18.36c.61,2.12,1.82.64,1.34-1.87l-3.39-17.59-1.33,1.87q2,7.8,4,15.35c.42,1.54,1.45,1.39,1.41-.65a43.46,43.46,0,0,0-1.16-8.32L100.74,324l-1.45,1.33c.84,4.21,1.77,8.32,2.78,12.29.57,2.23,1.83.55,1.33-1.87l-1.69-8.25-1.33,1.86.63,2.43c.42,1.6,1.45,1.34,1.42-.65a40.76,40.76,0,0,0-.32-4.55L100.66,328q.72,4.23,1.63,8.24c.54,2.39,1.73.56,1.33-1.87l-1.45-8.77-1.45,1.33,1.31,7.39c.49,2.8,2,1.49,1.45-1.32l-1.31-7.4c-.5-2.79-1.92-1.51-1.45,1.33l1.45,8.76,1.33-1.87c-.52-2.31-1-4.7-1.39-7.15-.48-2.89-1.81-1.51-1.45,1.33a18.71,18.71,0,0,1,.15,2.11l1.42-.65-.64-2.43c-.57-2.21-1.83-.56-1.33,1.87l1.7,8.25,1.33-1.87c-.92-3.62-1.77-7.37-2.54-11.21-.55-2.72-2-1.43-1.45,1.33l1.42,7.09a49.09,49.09,0,0,1,1.35,7.67l1.42-.65q-2.08-7.54-4-15.35c-.57-2.26-1.81-.58-1.33,1.87l3.38,17.59,1.33-1.87-5.2-18.36c-.71-2.54-1.82-.2-1.21,2.41l4.64,20.11,1.21-2.42-6-19.32c-.75-2.38-1.9-.18-1.21,2.41l5.15,19.59,1.06-2.87-6-17.27c-.71-2-1.69.72-1.06,2.87l5.6,19.2,1.22-2.41-7.83-23c-.62-1.83-1.87-.78-1.34,1.86,1.67,8.25,4.14,15.18,6.4,22.26l1.06-2.86a180.23,180.23,0,0,1-7.68-20.56c-.31-1.07-.82-1.39-1.15-.71a5.24,5.24,0,0,0-.07,3.12A190,190,0,0,0,97.49,348l.9-3.33a217.73,217.73,0,0,1-8.67-21.56c-.78-2.25-1.88-.27-1.22,2.41,2.38,9.57,5.62,17.1,8.82,24.42l.9-3.33a184.48,184.48,0,0,1-10.47-24.13c-.72-2-1.65.7-1,2.86a167.43,167.43,0,0,0,9.72,25.58l.71-3.67a168.37,168.37,0,0,1-10.89-24.4c-.73-2-1.63.68-1,2.86a133.15,133.15,0,0,0,9,23.45l.71-3.67a190.48,190.48,0,0,1-11-22.06c-.76-1.79-1.69.63-1.06,2.86,2.94,10.42,6.91,17.48,10.83,24.28l.53-4a178.6,178.6,0,0,1-11.82-20.24c-.75-1.49-1.79.63-1.06,2.86,3.28,10,7.47,16.15,11.62,22l.32-4.24a117.56,117.56,0,0,1-11.67-14.66c-.87-1.27-1.49,1.88-.71,3.67a50.14,50.14,0,0,0,9.58,14.34l.32-4.23L79.66,335.53c-1-.9-1.13,2.93-.32,4.23a31,31,0,0,0,9.2,9.37l.12-4.45-10.94-5.19c-.86-.41-1.27,3.07-.32,4.23,2.29,2.83,4.69,4.27,7,4.21.88,0,.82-4-.11-4.52a64.48,64.48,0,0,0-12.09-5.3c-1-.32-1.18,3.53-.12,4.46,2.82,2.46,5.69,3.2,8.4,2.14,1-.38.68-5-.32-4.59-3.57,1.37-7.33.73-11.06-1.87L69,342.7c3.9,2.58,7.54-.19,11.39,1.37l-.1-4.52c-4.18.59-8.52-1.39-12.72-5.8l-.12,4.45c4.15,2.77,8.32,3.86,12.36,3.23.86-.13.85-4.08-.1-4.52a78.57,78.57,0,0,1-13.22-7.83c-.9-.65-1.24,3.16-.32,4.23,3.28,3.78,6.67,6.1,10,6.85.94.21.78-3.86-.1-4.52q-6.37-4.78-12.73-10.19l.11,4.53,1.3.12c1,.11.71-4.48-.32-4.58Z" transform="translate(82.68 -272.58)"/><path class="cls-1" d="M83.4,332.32,79,317.62c-.61-2-1.88-.62-1.33,1.88A87.48,87.48,0,0,0,80.68,330c1.24,3.57,2.49,7.13,3.85,10.31.88,2,1.74-1.2.9-3.33L77.29,316.5c-.86-2.17-1.69,1.14-.9,3.32,2.3,6.39,4.77,12.15,7.27,17.89l.71-3.67q-5-9.09-9.69-19.3c-.9-1.93-1.76,1.21-.9,3.32a131.89,131.89,0,0,0,9.3,18.81c1,1.62,1.44-2.34.53-4-3-5.48-6.39-8.74-9.15-15.45l-.72,3.67c2.23,3,4.46,6,6.72,8.81,2.08,2.55,4.23,5.33,6.41,5.86.82.19.82-3.3.1-4.31a103,103,0,0,1-8-11.88l-.71,3.7q4.47,6.66,9,12.42c1,1.26,1.52-2.58.53-4-2.46-3.54-5.11-5.4-7.62-8.35-1.3-1.53-2.59-3.17-3.87-4.94-1.11-1.54-2.39-4.19-3.58-4-.58.11-.88,2-.45,3.5a35.36,35.36,0,0,0,5.26,10.68c2.1,3.16,4.27,5.8,6.51,7.23l.11-4.45c-4.39-2-8.76-5.59-13-10.54-1-1.17-1.54,2.61-.53,4,3.79,5.26,7.73,9.05,11.7,11.26l.11-4.45a24.13,24.13,0,0,1-12.3-9.9l-.52,4c4,4.44,8.28,8.91,12.34,9.86.94.22.77-3.85-.11-4.52-1.82-1.41-3.66-2.82-5.47-4.48-1.64-1.51-3.85-3-5.2-6.59l-.51,3.88,8.92,6.33.11-4.45L71.24,320c-1.06-.71-1.13,3.52-.11,4.45a34.24,34.24,0,0,0,9.2,6.23l-.11-4.52c-4.88,1-9.74-.8-14.74-3.92-.88-.54-1.25,3.21-.32,4.24,3.68,4.07,7.47,6.33,11.19,6.7,1.05.1.71-4.38-.32-4.59-4.58-1-9.19-2.05-13.76-6.31l-.11,4.46c4.69,4.16,9.46,6.05,14.09,5.56l-.32-4.59c-4.27,1-8.66.92-13.05-3.34l-.12,4.46c5.23,4,10.48,5,15.69,6.24l-.52-4.49c-3,2.68-6.51,1.06-9.77-2.42l-.32,4.24a49.94,49.94,0,0,0,14.53,6.66l-.32-4.59c-3.41.75-6.91-2-10.3-6-1-1.19-1.54,2.83-.52,4,3.65,4.3,7.46,7.36,11.14,6.57,1-.23.7-4.32-.32-4.59A48.36,48.36,0,0,1,68,328c-.89-.58-1.25,3.24-.32,4.23,3.7,4,7.57,5.85,11,2.82.87-.78.33-4.28-.53-4.5-5.07-1.23-10.17-2.19-15.26-6.1-1.06-.81-1.12,3.48-.11,4.46,4.52,4.38,9.09,4.48,13.48,3.47,1-.24.71-4.7-.32-4.59-4.49.47-9.12-1.37-13.67-5.43-1-1-1.13,3.5-.11,4.45,4.71,4.39,9.48,5.44,14.2,6.44L76,328.64c-3.45-.32-7-2.4-10.35-6.13l-.32,4.22c5.14,3.22,10.16,5.06,15.18,4.06.84-.18.86-4.1-.11-4.52a34.64,34.64,0,0,1-9.2-6.23l-.11,4.45,8.5,5.72c1,.71,1.16-3.71.11-4.45l-8.91-6.34c-.85-.6-1.12,2.27-.5,3.89,1.43,3.78,3.58,5.43,5.32,7.1a67.92,67.92,0,0,0,6.14,5.1L81.67,331c-1.88-.44-3.83-2.08-5.69-3.63a53.75,53.75,0,0,1-5.8-5.66c-1-1.13-1.53,2.52-.52,4,4.08,6.09,8.42,8.75,12.72,10.38,1,.38,1.18-3.87.11-4.46-3.83-2.11-7.63-5.76-11.28-10.82l-.54,4c4.4,5.14,8.91,8.83,13.44,11,1,.48,1.17-3.78.12-4.46A22.5,22.5,0,0,1,78.44,325a30.75,30.75,0,0,1-4.87-9.53l-.45,3.5c.61-.11,1.37,1.48,1.94,2.29s1.17,1.64,1.76,2.44c1.17,1.56,2.36,3,3.56,4.39,2.3,2.62,4.72,4.36,7,7.6l.53-4q-4.58-5.76-9-12.42c-.84-1.26-1.55,2.09-.71,3.67a107.2,107.2,0,0,0,8.32,12.58l.1-4.3c-2.07-.49-4.25-3.66-6.23-6.13s-4-5.24-6-8c-.88-1.2-1.48,1.81-.71,3.67,2.88,7,6.39,10.44,9.52,16.14l.53-4a128.21,128.21,0,0,1-8.93-18.13l-.9,3.33q4.92,10.54,10.07,20c.84,1.54,1.46-1.93.71-3.67-2.49-5.73-5-11.5-7.26-17.89l-.91,3.3,8.13,20.49.9-3.33c-1.17-2.81-2.3-5.8-3.37-8.94a81.35,81.35,0,0,1-3-9.87L77.75,320l4.43,14.7c.73,2.42,2,0,1.22-2.42Z" transform="translate(82.68 -272.58)"/><path class="cls-1" d="M76.16,335.94l3.92,3.43.11-4.45c-2.3-.79-4.59-3.05-6.71-6.61l-.31,4.23L86,340.68c1,.66,1.16-3.78.11-4.45l-12.82-8.14c-1-.61-1.15,2.84-.32,4.24,2.25,3.77,4.68,6.18,7.13,7,1,.36,1.17-3.53.11-4.45l-3.92-3.43c-1-.91-1.14,3.55-.11,4.45Z" transform="translate(82.68 -272.58)"/><path class="cls-1" d="M-59.64,601.32q15.33-11.13,30.89-21.81,7.23-4.93,14.51-9.76c1.38-.92,3.76-3,5.35-3.35,0,0-.35-.5,1,.51,12.8,9.64,20.71,24.67,22.4,42.55.87,9.66-1,19.91,6.74,25.5,7.09,5.2,19.82,4.07,29.1,4.56,18.26.94,37.07,1.15,53.88,6.07,18.14,5.28,33.07,17.52,55,12.59L148,644.86c-5,20.94-1.84,40.85,8.75,55.11a93.84,93.84,0,0,1,13.39,25.79l10.39,30.73,10.79,31.78c2.09,6.18,7,14.23,3.61,22.13s-10.83,14.47-16.95,20c-7.74,6.91-16,13.72-25.16,17.41-16.88,6.83-31.91-1.46-42.8-10C94.51,825.69,82,810,69,795.23,42,764.48,14.7,733.78-12.28,702.86c-13-15-26.34-31.17-31.67-52.11-3.93-15.38-2.95-41,17.24-51.54,15.62-8.14,10.61-31.47-5-23.3-23.31,12.15-37.54,37.6-39.14,61.42-1.53,23.36,7.47,43.89,18.54,60.44,12,18,27.13,33.48,41.27,49.56l45.55,51.8c14.89,16.9,29.17,34.64,45.21,50.35,13.64,13.45,30.48,26.1,51.91,26.85,22.32.78,43.82-13.43,62.48-31,8.64-8.14,17.26-17.2,22.27-28,5.48-11.75,5.47-22.48,2.22-32.57-8.32-25.9-17-51.68-26.07-77.12a84.5,84.5,0,0,0-7.83-17.36c-3.37-5.26-7.5-9.79-10.44-15.47-4-8.18-4.89-18.33-2.41-28.84,1.94-8.29-2.77-15.26-11.27-13.32-7.89,1.78-14.37-.47-20.74-3.11-7.92-3.28-15.47-7.06-23.92-9.36-18.31-5-38.17-5.69-57.89-6.71-4.44-.24-8.86-.5-13.26-.84-1.53-.12-4.5.23-5.78-.44,1.3.69.5.63.75-1.59,1.1-9.76-1.3-20.34-4-28.62A76.22,76.22,0,0,0,23,557.21c-5.6-7-12.45-15-22-16.73-11.86-2.11-24.28,8.31-35.32,15.75q-18.39,12.42-36.5,25.64c-14.72,10.7-3.48,30.15,11.17,19.5Z" transform="translate(82.68 -272.58)"/><path class="cls-1" d="M9.7,567c-4.09-5.34-9.31-8.84-16.94-8.69A17.39,17.39,0,0,0-23,570.74C-31,601-16.63,625.93,9.29,630.8c10.1,1.89,19.56-14.08,15-21.76L1.56,570.77l-22.38,17.38,33.64,46.43,18-21.2C12.13,602.42-1,584.44-6.84,562c-1.6-6.09-8-9.14-14.77-5.75-19.22,9.59-37.92,23.6-46.64,44.86a64.41,64.41,0,0,0,.37,51.23c7.8,17.43,24.37,27.57,40.5,35.76,7.71,3.91,15.61,8.43,25.79,6.45s19.84-11.21,20.76-22.22-6.94-20.61-11.1-28.9L-7.1,613.08l-20.49,19.67Q19,660.92,68.06,685.42l13.5-24.93A358.11,358.11,0,0,1,4.33,614.68l-16.14,23.39c39.34,22,84.71,34.14,133.5,35.83,11.39.4,22.15-17.37,13.16-24-28-20.82-64.31-29.7-103.61-25.36-5.38.59-11,6.86-12.57,12.18-1.8,6.19.78,10.73,5.16,13,33.81,17.75,72,28.29,112.77,31.18,6,.24,12.45-4.43,15.07-10.91,2.74-6.85.53-12-4.47-14.71C117.13,639.28,81,634,43,639c-5,.65-11.55,6.86-12.58,12.19-5.34,27.76,21.06,35.37,39.34,43.09a515.26,515.26,0,0,0,68.82,23.37c6,1.58,13.43-1.44,17.29-8.54,3.59-6.61,2-14.43-3.76-16.39a82.11,82.11,0,0,1-43.41-33c-7.85-11.93-29.67,4.84-22.38,17.39a597.4,597.4,0,0,0,68.28,95.06c7.43,8.46,24-6,21.51-16.9-3.9-16.73-15-27.58-25.64-38.87-7.22-7.67-16.53-18.54-13.76-32.16l-21.16,10.35c25,25.43,41.43,59.15,47.65,97.94l19-18.37c-25.46-13.53-18.37-53.72-9.21-83l-24.16,5.43c8.28,42.22,17.1,84.87,37.39,120,6.4,11.09,26.09-1.27,23.43-14.6l-16.59-83.35c-2.64-13.25-24.26-5.87-24.74,8.66-1,32,4.5,62.07,16.16,88.35,5.4,12.26,25.8-1.65,23.44-14.6C201,763,193.67,723.47,173.25,693.42c-16.91-24.9-43.27-42.34-76-43.7-17.44-.77-36.34,3.41-54,13.12-8.44,4.65-14.06,17.56-6.78,22.64A651.93,651.93,0,0,0,165.09,755c9.64,3.87,24.8-12.32,17.94-21.17C168.9,715.56,147.8,706.64,127.1,697L66.23,668.78c-5-2.31-12.48,1.42-16.22,7-4.22,6.32-3.61,12.27.13,16.48q55.17,62,115.46,118.6c10.3,9.67,28.78-12.21,18.6-22q-48.25-46.12-92.83-96.2C84.25,684.79,66,699,69.82,709.58c12.93,36.45,33.43,67.92,60.37,92.65A201.8,201.8,0,0,0,151,818.85c7,4.86,14.47,10.63,25.07,6.67,10.94-4.08,18-15.73,18.57-26.52.54-9.63-5.59-15.18-6.49-23.93L163.59,786.9c3.6,12,11.65,21,23.87,23.61,8.73,1.84,17.91-4.76,19.24-15.22,1.8-14.67-.82-28.34-7.51-39.1-5.67-9.19-23.37-1.56-23.59,11.46a226.69,226.69,0,0,0,5.71,57.64l21.51-16.9c-45.6-54.63-97.2-103.11-148.77-151.46l-18.6,22L95.37,732.5l18.61-22L-18.17,632.49c-5.13-3-12.17-2.58-17.66,3.89-5.31,6.27-5.14,13.85-.94,18.06,17,16.88,39.68,26.85,65.48,28.72,9.44.72,20.95-14,15-21.74a227.5,227.5,0,0,0-42.95-43c-7.9-5.93-16.17-12.06-25.2-16.32-7.79-3.66-20.39-2.91-27.6,7.44-4.7,6.76-5.53,13.3-.94,18.06,11.31,11.65,27.17,17.83,45.08,17.58,10.33-.15,19.78-12.93,15-21.75A99.21,99.21,0,0,0-21.72,590c-9.76-7-28.44-17.27-40,2.75-7.56,13.09.31,28.54,6.54,36.82,7.16,9.6,18.26,16.65,32.67,11.74,6.77-2.31,12.74-8,13.16-15.53.63-10.78.65-22.07-4.71-30.13-5.26-7.87-14.95-12-25.83-8.69-10.3,3.35-19.11,12.85-21.91,23.62-3.28,12.73,3.41,22.63,16,19.89C-26.45,626.32-8,605.21-7.15,585.3c.6-13.39-9.92-20.92-23.21-14.32-11.23,5.57-22.37,14-33.19,20.9l11.2,19.48q21.68-16.86,41.93-35.92c4.71-4.44,7.87-10,6.67-15.64-1.24-5.24-6-8-11.65-6.83-17.3,3.81-33.24,13.49-47.16,27.52-11.28,11.36,2.16,27.86,13.94,16.82,14.06-13.47,32.12-19.81,47.46-16.65,6.18,1.18,13.84-6,15.72-12.47,2.26-7.74-1.93-12.48-8.1-13.63-21.51-3.71-46.37,5-66.22,23.18l13.94,16.83c8.49-8.33,18.76-14,29.11-16.15l-4.91-22.51q-20.21,19-41.94,35.92c-6.09,4.87-8.57,13-5.59,18.46,3.32,5.79,10.43,5.07,16.79,1l18.09-11.5c2.18-1.39,5.55-2.84,7.44-4.75l1.52-.82-6.77-3.42c-.13.16-.14,2-.36,2.36-2.78,4.54-5.88,11.38-11.93,11.93l5.44,2c1.58,1.72.84,1.77,1.37,3.2.3.84-1.25,1.47.45-.13-3.16,2.87-2.37.6,0,2.31,4.6,3.32,3.19,12.79,2.83,18.69l13.16-15.53c-5.34,1.83-8,.61-11.18-3A34.49,34.49,0,0,1-37.44,604a30.51,30.51,0,0,1-1.48-3.84l-.46-1.48q-1.08-7.47-9.39,8.13c1,1.11,5,2.63,6.77,3.86a87,87,0,0,1,11.17,9.08,84.13,84.13,0,0,1,15.56,20.94L-.27,619c-13.63.33-25.68-4.41-34.11-13.42l-.94,18.05A12.38,12.38,0,0,0-39.77,626a.19.19,0,0,0-.12.14c.08.47,2.71,1.24,3.09,1.43,3.28,1.81,6.38,3.93,9.47,6a210.68,210.68,0,0,1,17.7,13.25,205.44,205.44,0,0,1,31,31.9l15-21.75c-21.56-1.7-40.49-10.23-54.51-24.57l-18.6,21.95L95.37,732.35c5.12,3,12.17,2.58,17.66-3.89,5-6.08,5.46-14.09.94-18.06L54.05,656.93c-10.53-9.43-28.87,12.32-18.6,22C87,727.24,138.6,775.73,184.2,830.45c7.25,8.69,24.08-6.21,21.56-16.88a199.83,199.83,0,0,1-5.24-51.41l-23.69,11.45c4.67,7.46,6.4,17,4.93,27.22L201,785.6c-6.1-1.27-11-4.21-12.86-10.47-4.4-14.64-26.11-3.78-24.51,11.8a32.86,32.86,0,0,0,3.09,10.16c.51,1.09,2.07,6.79,3,7.18,0,0-.2.49-.1.53s6.23-4,6.22-3.95c.05-.7-5.67-3.48-6.27-3.89a201.69,201.69,0,0,1-32.11-27.69,206.47,206.47,0,0,1-43.19-71.45l-21.5,16.9q44.52,50,92.83,96.2L184.21,789q-60.27-56.58-115.46-118.6l-16,23.32,56.88,26.43c17.87,8.29,38.75,15.27,51,31L178.54,730A623.67,623.67,0,0,1,55,663.54l-6.74,22.58c26.75-14.63,53.23-12.23,74.36-1.2,25.49,13.31,39.48,40.87,48,69.38,5.56,18.84,9.24,38.74,12.83,58.6l23.43-14.59c-9.91-22.79-14.53-48.81-13.56-76.46l-24.73,8.65,16.59,83.34,23.44-14.59C189.21,765.7,181.19,725,173.3,684.79c-2.35-12-20.15-7.43-24.15,5.32-13.38,42.89-15.69,90.3,19.6,109,9,4.79,20.5-9,19-18.35-7.18-42.93-25.65-80.16-53.66-108.14-5.57-5.61-19.23.67-21.21,10.39-3.87,19.05,1.64,34.37,11.53,46.7,9.44,11.77,23.39,21,27.19,37.28l21.52-16.91a567.55,567.55,0,0,1-64.6-90.39L86.13,677.09a99.77,99.77,0,0,0,52.34,40.49L152,692.67a521,521,0,0,1-59-19.38q-13.82-5.47-27.19-11.73c-3.07-1.45-12.37-5.58-11.66-9.26L41.53,664.49c33.86-4.37,65.48,1.52,92,15.79l10.56-25.52c-38.73-2.86-74.88-13-106.89-30L29.81,650c32.6-3.55,63.1,4.63,86.36,21.78l13.16-24C82.64,646,39.25,634.27,1.68,613.09c-10.9-6.11-25.66,16-16,23.44A382.09,382.09,0,0,0,68,685.32c5.53,2.41,13.75-2,17.29-8.54,3.9-7.19,1.59-13.73-3.77-16.39Q35,637.31-9.06,610.7c-4.69-2.84-10.79-2.84-16.27,2.56-5.13,5-6.93,12.23-4.25,17.14l12.27,24.49L-11,667.61l2.93,5.88c.69,1.37,1.36,4.53,2.57,5.19-1.84-1,1.22-14.35,5.83-9.82.72.7-4.25-.79-3.41-.53A75.67,75.67,0,0,1-14,663.09a92.93,92.93,0,0,1-21.18-14c-9.13-8.36-15.51-20.89-12.88-36.12,2.82-16.47,17.47-26.55,31.42-33.51l-14.77-5.75c7.56,28.85,24.5,50.71,48.63,64.51,9.43,5.38,24.13-12.63,17.94-21.16L1.52,570.66c-3.51-4.86-10.39-6-16.79-1-6.12,4.85-8.6,13-5.59,18.45L1.88,626.36l15-21.73c-13.15-2.48-20-17.92-16.07-32.82l-15.72,12.47a12.46,12.46,0,0,1,2.2,0c3.61,4.76,10.3,6.09,16.79,1,5.56-4.33,9.24-13.66,5.59-18.45Z" transform="translate(82.68 -272.58)"/><path class="cls-1" d="M188,777.64a60.25,60.25,0,0,1,27.31,4.16c6.7,2.84,6.27,5,2,12.81-11.93,21.79-29.6,42.57-46.61,60.89l16.72,14.17c23.34-25.83,37.54-58.13,39.12-89,.45-8.72-9.94-14.64-18.07-7A307.09,307.09,0,0,0,173.61,812c-11.07,14.59,5,28.79,16.71,14.16,18.2-22.89,29.67-52.8,12.26-70.69l-1,18A168.79,168.79,0,0,0,226.18,734c5.83-13.66,12.93-31.17,7-42.88-3-6.06-9.41-9-16.82-7.81-6.34,1.14-12.11,5.15-18.1,8.38a153.91,153.91,0,0,1-38.67,14.74l1.86,24.42A203.1,203.1,0,0,1,183,722.38c4.32-1.38,14.44-6,17.51-4.17l-4.44-3.77L196,714l.32-6.47c1.27-1.81,1.14-1.73-.38.26l-1.26,1.57c-1.32,1.56-2.57,3.18-3.82,4.8-2.86,3.69-5.52,7.52-8,11.45a46.35,46.35,0,0,0-7.4,23.56c.09,9.92,9.09,13,18.07,7,12.21-8.23,23-21.74,25.67-35.72C222.4,704,212.86,692,204,682.51a79.25,79.25,0,0,0-34.34-21.32c-7.07-2.22-15.85-5.74-24.14,0a31.15,31.15,0,0,0-13.35,23.16c-1.11,16.56,23.84,11,25-5.5-.11,1.55-3.87,4.15-.46,1.84L147.24,684c16.39,2.73,30.39,10.7,40.33,23,3,3.77,8.59,9.64,7,15.62s-7.38,10.72-12.32,14.08l18.08,7c0-6.76,5.09-12.92,9.67-18.69,3.65-4.58,7.8-9.19,9.56-14.66,2-6.24.85-12.26-3.1-15.73-7.13-6-19.29-1.88-29,1.06a256.18,256.18,0,0,0-31.13,11.73c-14,6.35-12.32,27.69,1.84,24.42a183.68,183.68,0,0,0,30.54-9.95c4.88-2.07,9.73-4.39,14.51-7,2.34-1.25,4.64-2.61,7-3.94.86-.51,1.74-1,2.69-1.49q4.63-1.72-2-1.3c-.67-1.19-.89-1.29-.62-.33l-.12,2a36.53,36.53,0,0,1-1.89,7.32,113.38,113.38,0,0,1-5.7,14.38,138.66,138.66,0,0,1-17.73,27.7c-5.21,6.36-5.17,13.7-.95,18.05,8.06,8.32-3.13,25.49-10.37,34.59l16.71,14.16a263.31,263.31,0,0,1,29.3-33l-18-7c-1.24,24.16-12.49,49.39-30.92,69.4-12.5,13.73,4.19,27.67,16.72,14.17a419.19,419.19,0,0,0,32.31-39.22c8.93-12.23,19.21-25.73,23.86-39.74,10.79-32.48-24.63-40.39-47.94-39.16A17.64,17.64,0,0,0,179.92,764c-1.92,6.53,1.46,14,8.09,13.63Z" transform="translate(82.68 -272.58)"/><path class="cls-1" d="M183.79,685.64c-1.57-13.19,1.57-25.56,5.2-39.47,5.39-20.49-13.37-22.31-27.45-23.85-26.12-2.76-53.85-.08-81.76,7.9C73,632.15,67,638.53,66.63,645.74c-.35,6.57,5,12,11.82,10a207.68,207.68,0,0,1,46.91-8.18,188.82,188.82,0,0,1,22.73.29q5.82.43,11.54,1.26c1.58.23,3.19.42,4.73.75.54.08,1.06.18,1.57.3,2.06.67,2.17.72.3.25l-1.3-5.95c.06,3.18-2.09,7.66-3,11.11a134.19,134.19,0,0,0-2.8,15,105.54,105.54,0,0,0,.09,26.83c.77,6.56,8.55,8.74,14.77,5.75a17.51,17.51,0,0,0,9.72-17.56Z" transform="translate(82.68 -272.58)"/><path class="cls-2" d="M185.79,762.48c14.26.77,30.63-2.65,43.12,2.91,11.94,5.29,14.09,17.73,6.7,32.07-6.9,13.39-17.67,25.23-27.19,37-5.26,6.51-30.27,42.79-36.48,27.87-1.13-2.73-5-2.2-7.55-.47-20.6,13.84-41.69,6.62-56.63-2.65-18-11.14-35.4-23.87-49.85-39.27-14.82-15.78-28.19-33.15-42.08-49.86l-42.58-51.18C-40.17,702.79-54.82,687.11-63.54,667a77.18,77.18,0,0,1-6.32-28.2c-.29-9.82,2.17-18.9,4.84-28.93,1-3.7,1.53-7.42.26-10.47-1.66-4-8.24-4.78-6.15-10.55s10.4-11,15.16-14.58q8.05-6.12,16.26-11.9c9.48-6.65,21.09-16.06,31.76-17.71,10-1.52,17.14,4.93,22.9,10.91,6.65,6.91,14.25,14.64,16.61,25,2.26,9.87-2,21.39-2.39,31.92C29,624.06,33.91,632,40.69,639c6.26,6.45,15.87,13.75,12.87,25.88-1.86,7.53,8.85,8.12,10.72.52,2.66-10.72-.4-19.44-5.9-26.38-6.23-7.89-16.61-13.55-17.7-25.32-1-10.38,3.58-22,3-32.48-.62-10.82-5.88-19-11.88-26.29C20,540.75,5.49,525.71-17.94,536.78c-11.77,5.56-23.32,14.33-34.19,22.26C-62.2,566.38-77.5,575.6-81.6,588.29c-1.55,4.5-1.43,9,.34,12.51,1.07,1.91,2.87,2.66,4.37,4.06,2.32,2.18,1.26,4.25.12,7.83A87.69,87.69,0,0,0-80.89,645c1.61,24.13,12.91,43.17,26,59.87,30.64,39.06,63,76.74,95.05,114.5a244.2,244.2,0,0,0,61.66,51.32c18.66,11.12,43,16.57,67.56,0l-7.5-.52c2.78,6.71,10.52,8.4,18.19,6,10-3.1,17.57-12.66,24.35-21.05C218,838.44,234,821.45,244.25,802.67c8.83-16.18,10.2-33.14-.71-43.21-13.53-12.47-35.6-7.68-54.22-8.71-6.87-.36-10.34,11.37-3.42,11.75Z" transform="translate(82.68 -272.58)"/><path class="cls-2" d="M35.57,621.13l51.32.35c8.18,0,16.71-.22,23.45,3.43,7,3.8,11.74,10.61,16.31,17,3.72,5.2,13.81-2.6,10.07-7.83-4.79-6.72-9.7-13.67-16.58-18.2-6.7-4.42-14.51-5.89-23.18-6.11-19.22-.49-38.65-.28-57.95-.41-7,0-10.43,11.7-3.44,11.74Z" transform="translate(82.68 -272.58)"/><path class="cls-2" d="M122.24,631.12a190.55,190.55,0,0,1,29.44-.85c9.17.46,21.06.56,26.55,7.83,9.24,12.28-8.32,40.3,7.9,47.11a86.49,86.49,0,0,0,24.17,5.59c4.7.49,9.5.34,14.28.49,1.93.06,4.47-.73,4.93,1.44.22,1-.83,3.55-1.2,4.64a54.53,54.53,0,0,0-3.12,23c.41,4.51,1.33,9.17.48,14-.67,3.83-3.32,10.29-8,10.68-7,.57-10.55,12.32-3.43,11.74,17-1.42,23.72-20.23,22.69-34.16-.28-4-1-7.88-.91-12,.07-4.39,1.55-8.36,3-12.77,2.2-6.8,2.74-13.75-2.73-16.87-6-3.43-16.31-1.21-23.59-2a86.3,86.3,0,0,1-13.2-2.56c-3.26-.87-8.53-1.38-9.15-4.95-.76-4.19.68-10.14,1-14.71a117.73,117.73,0,0,0,.55-13.85c-.27-8.34-4.09-15.18-10.5-18.81-7.76-4.52-17.8-5.2-27.38-5.62a211.88,211.88,0,0,0-31.21,1.15c-7.14.75-7.67,12.24-.6,11.5Z" transform="translate(82.68 -272.58)"/><path class="cls-2" d="M217.86,781.21c-9.28-4.75-21.19,3.94-28.82,13.16s-8.69,20.41-1.71,26.59c4.75,4.2,13.13-5.67,8.37-9.88-7-6.18,9.1-22.23,16.08-18.65C217.46,795.36,223.53,784.12,217.86,781.21Z" transform="translate(82.68 -272.58)"/><path class="cls-2" d="M94.79,657.25c3.54,21.86,30.92,21.53,45.39.1,4.62-6.85-4.89-10.33-9.48-3.51-8.76,13-23,9.4-24.88-1.91-1.13-6.92-12.15-1.56-11,5.32Z" transform="translate(82.68 -272.58)"/><path class="cls-2" d="M175.29,690.24c-7.83.45-15.87,6.13-20,14.16-5.36,9.71-4,19.6-2.5,28.37,1.19,6.89,12.21,1.55,11-5.31-.87-5-2-10.38-.45-16,1.06-3.78,4.33-9.16,8.55-9.46C178.87,701.48,182.39,689.73,175.29,690.24Z" transform="translate(82.68 -272.58)"/><path class="cls-2" d="M8.14,566.2A29.53,29.53,0,0,0-6.37,593.73c.3,4.42,1.06,8.93,4.51,11.19,4,2.6,9.4.94,14.38-1,7.2-2.83,4.88-13.31-2.27-10.48-1.53.58-3.74,1.68-4.73.78s-.79-4.44-.8-5.75c0-4,1.42-9.25,5.64-11.74,6.88-4,4.66-14.53-2.27-10.48Z" transform="translate(82.68 -272.58)"/><path class="cls-2" d="M-57.71,599.26a8.66,8.66,0,0,0,8.64,6.87c4,.14,8.17-1.74,12.13-3.86,7-3.75,4.75-14.24-2.27-10.5a20.23,20.23,0,0,1-5.69,2.53,2.68,2.68,0,0,1-1.35,0c-.6-.19,0,.16-.44-.24-.68-.57,0,0,0-.1-1.51-6.69-12.56-1.41-11,5.3Z" transform="translate(82.68 -272.58)"/><path class="cls-2" d="M2.53,625.37c4.84,4.1,13.22-5.77,8.37-9.88S-2.32,621.26,2.53,625.37Z" transform="translate(82.68 -272.58)"/><path class="cls-2" d="M-11.28,618.69c3.23,2.73,8.81-3.85,5.58-6.59S-14.51,616-11.28,618.69Z" transform="translate(82.68 -272.58)"/><path class="cls-2" d="M-11,629.82c2.69,2.28,7.34-3.21,4.65-5.49S-13.67,627.54-11,629.82Z" transform="translate(82.68 -272.58)"/><path class="cls-2" d="M92,638.31c2.68,2.27,7.34-3.21,4.65-5.49S89.27,636,92,638.31Z" transform="translate(82.68 -272.58)"/><path class="cls-2" d="M72.52,645.3c5.39,4.56,14.69-6.4,9.3-11S67.14,640.74,72.52,645.3Z" transform="translate(82.68 -272.58)"/><path class="cls-2" d="M84,652.13c4.31,3.65,11.76-5.12,7.45-8.77S79.66,648.49,84,652.13Z" transform="translate(82.68 -272.58)"/><path class="cls-2" d="M159.48,749.57c4.3,3.65,11.75-5.13,7.44-8.78S155.17,745.92,159.48,749.57Z" transform="translate(82.68 -272.58)"/><path class="cls-2" d="M147,743.09c2.15,1.82,5.87-2.56,3.72-4.39S144.83,741.27,147,743.09Z" transform="translate(82.68 -272.58)"/><path class="cls-2" d="M176.64,838.94c3.76,3.18,10.28-4.49,6.51-7.68S172.87,835.74,176.64,838.94Z" transform="translate(82.68 -272.58)"/><path class="cls-2" d="M226.81,785.05c3.76,3.18,10.28-4.49,6.51-7.69S223,781.85,226.81,785.05Z" transform="translate(82.68 -272.58)"/><path class="cls-2" d="M229.88,794.67c2.16,1.82,5.88-2.57,3.72-4.39S227.74,792.85,229.88,794.67Z" transform="translate(82.68 -272.58)"/><path class="cls-2" d="M219.26,702c2.14,1.82,5.87-2.57,3.72-4.39S217.1,700.2,219.26,702Z" transform="translate(82.68 -272.58)"/><path class="cls-2" d="M206.6,717.85c2.14,1.82,5.87-2.56,3.72-4.39S204.44,716,206.6,717.85Z" transform="translate(82.68 -272.58)"/><path class="cls-2" d="M215.3,718.19c4.3,3.65,11.75-5.13,7.44-8.78S211,714.53,215.3,718.19Z" transform="translate(82.68 -272.58)"/><path class="cls-1" d="M-35.67,636.67A111.62,111.62,0,0,0-48.74,620.1c-1.4-1.45-3.75,1.3-3.08,2.95a179.26,179.26,0,0,0,20.17,37.2l3.36-2.62a396.71,396.71,0,0,1-22.39-34.57,1.67,1.67,0,0,0-2.54-.08,2.32,2.32,0,0,0-.82,2.68c3.63,7.81,7.43,15.48,11.5,23,3.61,6.83,7,14.53,12.78,19.39.58.71,1.76.61,2.63-.23a2.14,2.14,0,0,0,.49-2.78l-15.57-32.28-3.36,2.6,21.8,39.81c7.21,13.16,15.72,26,20.61,40.73l3.24-2.54a103.62,103.62,0,0,1-25.75-38.79l-3.44,2.6c11.57,17.55,22.51,35.93,37,50.81l2.79-3.29a244.25,244.25,0,0,1-37-45.76l-3.35,2.61c12,18,24.14,35.9,41.55,48.41a1.94,1.94,0,0,0,2.64-.58,2,2,0,0,0,.15-2.71C.14,713.18-14.61,699.28-21.61,679.15l-3.52,2.2c14.87,18.76,29.07,38.45,46,55.2,1.56,1.55,4.17-1.73,2.79-3.29C11,719-1.61,704.41-9.49,686l-3.36,2.62a315.56,315.56,0,0,0,38.79,52.17l2.79-3.29C13.9,721.69-1,705.43-7.55,682.89l-3.52,2.18a452.5,452.5,0,0,0,34.88,55.2l3.35-2.6C14.88,721.34,2.9,704.58-4.13,684.2l-3.51,2.19a268.25,268.25,0,0,0,37,58.67c1.19,1.42,4.21-1.47,3.13-3-14.86-19.38-29.65-39.31-36-65l-3.52,2.2A315.59,315.59,0,0,0,26.1,739.46l3.37-2.61c-13.67-19-25.76-39.54-31.87-63.92L-6,675.22A466,466,0,0,0,27,738.73c1.14,1.83,4.5-.77,3.35-2.61A466,466,0,0,1-2.61,672.61c-.76-1.8-4,.27-3.51,2.19,6.18,24.68,18.35,45.47,32.17,64.76,1.25,1.71,4.59-.86,3.37-2.62A315.16,315.16,0,0,1-3.77,676.75c-.75-1.8-4,.28-3.51,2.19,6.45,26,21.29,46.19,36.34,65.81l3.07-3a264.7,264.7,0,0,1-36.42-58c-.8-1.74-4.12.27-3.51,2.19,7.12,20.69,19.13,37.73,31.61,54.3,1.27,1.7,4.62-.89,3.35-2.61A450.9,450.9,0,0,1-7.71,682.5c-.89-1.66-4.11.29-3.52,2.19,6.69,23.17,21.92,39.89,37.21,56,1.46,1.55,4.22-1.74,2.79-3.29A310.4,310.4,0,0,1-9.46,686c-1.13-1.88-4.21.62-3.36,2.62,8,18.71,20.81,33.44,33.69,48l2.79-3.29c-16.72-16.55-30.73-36-45.42-54.53-1-1.33-4.25.17-3.51,2.19,7.21,20.76,22.15,35.11,37.18,49l2.79-3.29c-17.14-12.36-29.14-30-41-47.76-1.18-1.77-4.51.78-3.34,2.62A246.62,246.62,0,0,0,7.93,727.93c1.52,1.48,4.26-1.78,2.79-3.29C-3.56,710-14.3,691.8-25.74,674.48a1.66,1.66,0,0,0-2.53-.15,2.32,2.32,0,0,0-.84,2.79A105.82,105.82,0,0,0-2.85,716.64c1.14,1.08,3.78-.86,3.23-2.52-4.75-14.38-12.84-26.81-19.86-39.63l-22.87-41.75c-1-1.92-4.29.65-3.35,2.61l15.57,32.28,3.07-2.94c-6-5.07-9.45-13.52-13.19-20.61-3.68-6.89-7.14-14-10.46-21.1l-3.36,2.6a399.43,399.43,0,0,0,22.38,34.59c1.26,1.72,4.61-.87,3.37-2.62A179.61,179.61,0,0,1-48.5,620.37l-3.06,3A106.57,106.57,0,0,1-39,639.21c1.17,1.81,4.53-.8,3.35-2.61Z" transform="translate(82.68 -272.58)"/><path class="cls-1" d="M9.09,669l-5.68-5.63c-4.13-4.08-11.6,3.87-9.22,8.86q17.43,36.27,36.28,71.51l9.22-8.85a141,141,0,0,1-28.37-49.65L.77,691.78A684.57,684.57,0,0,0,44.35,761l9.22-8.85A193,193,0,0,1,5.68,697.18C2.3,691.4-6.71,699-4.39,705,5.75,731.42,21.89,753.7,43,770.4c4.16,3.31,12.79-4.24,9.22-8.85C38,742.76,15.26,732.71,3.1,712c-3.29-5.61-13.3,2.14-10.07,7.82A144.51,144.51,0,0,0,41.27,771l8.37-9.87a85,85,0,0,1-32.06-36.6L7.51,732.31a674.15,674.15,0,0,1,43.86,59.8l9.22-8.85a68.92,68.92,0,0,1-20.4-32.19l-10.54,6.56,38.77,54.81c3.67,5.21,13.2-2,10.08-7.82-9-16.38-17.87-32.93-21-52.94L47,758.25l28.34,65.67c2.28,5.31,12.47-1,10.54-6.57C79,797.51,72.06,777.25,73.06,753.9l-11.14,3.87a517.18,517.18,0,0,0,22.78,78c2.12,5.57,11.86-.79,10.53-6.57-5.91-26.08-12.1-53.23-6.11-83.14l-11,1a547.06,547.06,0,0,0,10.72,89.32c1.45,6.89,11.82,1.61,11-5.3-3-26.89-6-54.67,2.34-84.08l-11,1a491.15,491.15,0,0,0,3.07,89.34c.79,6.17,11.12,2.52,11.14-3.89,0-25.47.25-51.29,8.59-77.91l-11,1a385,385,0,0,0-2.43,93.24c.61,6.29,11,2.5,11.13-3.9.58-27.79,1.43-55.9,10-84.77l-11,1a405.24,405.24,0,0,0-4,88.18c.47,6.94,10.95,5.11,11.25-2.48,1-25.93,2.24-52.15,11.54-78.85l-10.71-.52a463.07,463.07,0,0,0-7.17,79c0,7.37,10.29,5,11.24-2.49,3-22.6,6.17-45.25,14.43-68l-10.7-.64a362.65,362.65,0,0,0-9.53,73c-.15,6.21,9.48,6,11-1,4.59-21.33,7.73-43.82,17.29-64.88l-10.1-2-13.52,75.18c-1.31,7.31,8.67,8.31,10.73.53l15.54-58.88-10.95.94-9.41,57.21c-1.12,6.85,8.92,5.43,11-1l18.52-57.84-10.82-.5-13.81,61c-1.72,7.64,7.84,8,10.73.52l21.92-56.63-10.71-.52-15.62,55.7c-1.81,6.43,6.91,8.69,10.09,2l22.28-46.74-10.1-2q-7.8,22.6-14.48,45.28c-1.37,4.61,3.66,8.6,7.86,4.64,6.33-6,9.1-12.78,12.55-20.31L178,816l-9.48-3.5a354.4,354.4,0,0,0-13.68,34.36c-2.2,6.51,7.18,8.61,10.1,2l9.93-22.35-10-2-2.32,7.12c-1.53,4.7,3.74,8.49,7.87,4.66a51.92,51.92,0,0,0,8.31-9.8L169.25,823A208,208,0,0,0,159,845.08c-2.66,6.68,6.73,8.21,10.1,2l12.17-22.32-9.49-3.51-9.87,19.17c-3.74,7.26,5.71,10.83,9.47,3.53l9.89-19.19c3.73-7.25-5.54-10.77-9.49-3.51l-12.16,22.31,10.11,2a177.39,177.39,0,0,1,9-19.07c4-7.38-5-10.27-9.48-3.51a23.27,23.27,0,0,1-3.85,4.55l7.87,4.63,2.32-7.12c2.11-6.49-7.16-8.64-10.1-2l-9.93,22.36,10.09,2a327.26,327.26,0,0,1,12.44-31.38c3.33-7.32-6.08-10.92-9.48-3.51l-8.73,19.08c-2.66,5.8-5.39,15.23-10.29,19.85l7.88,4.64q6.66-22.65,14.49-45.28c2.26-6.55-7-8.53-10.1-2l-22.27,46.74,10.1,2,15.61-55.69c2.2-7.67-7.87-7.87-10.71-.52L132.64,858l10.74.52,13.8-61c1.69-7.5-8.28-8.15-10.73-.51L128,854.8l11-1,9.42-57.15c1.07-6.64-9.23-5.62-11,1l-15.62,58.9,10.73.53,13.54-75.15c1.09-6-6.85-9.17-10.09-2-10.09,22.24-13.67,45.34-18.54,67.88l11-1a347.57,347.57,0,0,1,9-70c.91-3.24-.76-5.95-3.74-6s-6,2.35-7,5.53c-8.62,23.72-11.86,47.47-15,71L123,844.79a447.28,447.28,0,0,1,6.65-76c1.28-7.38-8-8.27-10.72-.52-9.64,27.65-11,55-12.11,81.88l11.25-2.47a403.29,403.29,0,0,1,4-88.17c1-6.7-9.06-5.52-11,1-8.82,29.86-9.8,59-10.47,87.78l11.13-3.9A375.62,375.62,0,0,1,114.36,754c1-6.81-9-5.47-11,1-8.68,27.61-9.11,54.51-9.14,80.89L105.37,832a474.18,474.18,0,0,1-2.83-86.45c.35-6.49-9.05-5.79-11,1-8.93,31.52-5.93,61.11-2.64,89.92l11-5.3a530.77,530.77,0,0,1-10.52-86.49c-.22-5.85-9.54-6.21-11,1-6.44,32.11-.57,60.9,5.81,89L94.82,828A500.75,500.75,0,0,1,73,752.49c-1.24-6-10.86-2.66-11.13,3.9-1,24.38,5.82,45.53,13,66.28l10.54-6.56L57.08,750.42c-2.43-5.6-11.46.78-10.55,6.57,3.27,20.89,12.55,38.35,21.93,55.45l10.08-7.83L39.74,749.8c-3.05-4.32-12.38.5-10.54,6.57a78.38,78.38,0,0,0,23,36.8c4.11,3.61,12.34-4,9.22-8.85a651,651,0,0,0-43.87-59.81c-4-4.83-12.93,1.71-10.07,7.83A90.34,90.34,0,0,0,41.22,771c5.34,3.35,13.76-6.46,8.37-9.88A138.83,138.83,0,0,1,3.1,712L-7,719.78c12.24,20.89,34.82,30.76,49.08,49.59l9.22-8.86C31,744.34,15.42,722.76,5.68,697.18L-4.39,705a200.15,200.15,0,0,0,49.52,57c4.19,3.29,12.63-4.09,9.23-8.85A679.83,679.83,0,0,1,10.76,684c-2.69-4.91-12.41.79-10.53,6.57a152.65,152.65,0,0,0,31.09,54.15c3.84,4.29,11.83-4,9.23-8.85Q21.7,700.64,4.27,664.37l-9.22,8.86,5.68,5.62c4.52,4.47,12.87-5.42,8.37-9.88Z" transform="translate(82.68 -272.58)"/><path class="cls-1" d="M81,759.89l11.27-45.7c1.53-6.25-7.25-8.92-10.11-2-4.45,10.78-6.79,21.3-8.59,32.17-2,11.77-3.94,23.55-4.53,35.11-.37,7.44,10.54,5,11.24-2.47l6.78-71.78c.7-7.61-10.17-4.85-11.23,2.47C72.63,729,71.57,750,70.66,771l11.13-3.9q-3.15-37.41-2.87-76c0-7.3-10.63-5-11.23,2.48a328,328,0,0,0,2.14,73.47c1,7.08,11.58,1.58,11-5.31-1.95-22.59-10.46-42.67-8.66-66.57l-11.13,3.9c3.68,14.84,7.39,29.67,11.78,44.13,4,13.37,7.87,27.41,16.68,37.38,3.38,3.78,10.83-2.75,9.7-7.6-4.15-18-9.42-35.78-10.83-55l-11.18,4q6.09,30.82,14.62,60.45c1.88,6.49,12.5,1.49,11-5.32C99.26,760.38,91.15,746,86,730.1q-4-12.33-7.08-25.19c-1.78-7.47-1.92-17.67-7.79-22.2-2.87-2.2-8.31.07-9.55,4.67-4,14.86-1.49,28.5,1.07,41.59,2.83,14.54,7.09,28.45,14.24,40.35L87,761.49A273.67,273.67,0,0,1,50,688c-2.07-6.3-12.63-1.48-11,5.31A217.6,217.6,0,0,0,68.3,762.63l10.07-7.83c-15.64-20-29.53-42-35-69.23l-10.94,5.3c8.51,24.59,18.7,50.78,35.19,69.31,3.83,4.31,11.79-4,9.21-8.85-5.33-10.18-10.67-20.36-15.39-31-4.23-9.56-11.07-21.56-9.61-33.75l-10.65,5.15,27.14,48.6,10.06-7.82L51.89,686.78c-3.32-5.7-12.74,1.88-10.07,7.83A270.21,270.21,0,0,0,70.47,744.2l9.22-8.85c-24.39-18.3-42.76-41.7-58.92-68.16-2.84-4.65-12.6.81-10.54,6.57A154.14,154.14,0,0,0,47,732.45c4.57,4.51,12.59-5.25,8.37-9.88C36.5,701.87,17.77,680.83,6,654l-10.07,7.82a191.67,191.67,0,0,0,52.45,68.56l8.37-9.87c-21.63-15.75-41.51-34-52.44-60.11l-10.1,7.82C9.48,697.3,31.43,720.75,52.5,744.64l7.23-10.54c-19.62-7.54-32-24.87-39.41-44.83L9.77,695.85a497.81,497.81,0,0,0,52.06,72.41l8.37-9.88C53,745.7,43,726.09,36.05,704.7c-2-6.38-13.1-1.11-11,5.31,7.47,23.09,18.28,44.51,36.79,58.24,5.22,3.86,12.46-5.14,8.37-9.87a483,483,0,0,1-50.35-70.33c-2.8-4.73-12.67.88-10.55,6.56,8.45,22.65,22,42.16,44.33,50.78,5.66,2.17,10.73-6.58,7.22-10.56-20.5-23.24-41.72-46.07-56.59-74.36-3.08-5.89-12.58,1.84-10.07,7.84,11.26,26.83,31.92,45.91,54.16,62.15,5.08,3.71,13.31-5.82,8.37-9.88A185.08,185.08,0,0,1,5.94,654c-2.72-6.08-12.7,1.83-10.08,7.83C8,689.49,27.5,711.14,46.9,732.46l8.37-9.87a143.08,143.08,0,0,1-34.09-54.12L10.67,675c16.56,27.23,35.53,51.39,60.6,70.22,4.21,3.16,12.7-4.1,9.21-8.86a270.74,270.74,0,0,1-28.64-49.59L41.77,694.6l26.54,45.75c3.27,5.64,13.28-2.11,10.06-7.82l-27.1-48.6c-2.59-4.64-10-.42-10.65,5.16-1.55,13,4.74,24.91,9.09,35.22,5.08,12,11.08,23.44,17.08,34.84L76,750.29c-7.64-8.58-13-19.7-18.22-30.29a300.55,300.55,0,0,1-14.32-34.45c-2.15-6.24-12.39-1.65-11,5.31C38,719,52.15,742,68.28,762.71c3.84,4.92,13.67-2.33,10.07-7.83A209.05,209.05,0,0,1,50,688.12l-11,5.22a282.49,282.49,0,0,0,37.86,76c3.68,5.18,13.44-2.2,10.07-7.83-6.37-10.63-10.2-22.82-12.81-35.71-2.42-11.75-5.4-24.45-1.8-37.86l-9.55,4.67c3,2.32,3.06,8.42,3.91,12.25s1.81,7.89,2.8,11.81q3,11.67,6.84,22.9c4.9,14.39,12.21,27.62,15.51,42.9l11-5.32q-8.55-29.6-14.64-60.44c-1.15-5.83-11.59-2.52-11.13,3.89,1.46,20.2,6.64,38.88,11,57.8l9.69-7.59c-8.42-9.47-11.59-24.38-15.32-37.16-3.84-13.08-7.17-26.43-10.49-39.78-1.45-5.87-10.62-2.72-11.13,3.9-1.88,24.94,6.84,45.85,8.88,69.39l11-5.31a316.56,316.56,0,0,1-1.89-70.62l-11.23,2.48q-.21,39.93,3.12,78.77c.53,6.35,10.83,2.47,11.13-3.9.93-20.95,2-41.94,5.19-63.32l-11.23,2.39L69.06,779.4l11.25-2.48a278.21,278.21,0,0,1,3.77-30.61c1.67-10.15,3.43-20.53,7.61-30.64l-10.11-2-11.26,45.7c-1.85,7.54,8.89,8.14,10.73.52Z" transform="translate(82.68 -272.58)"/><path class="cls-1" d="M40.22,736.76l10.53,22.56,10.07-7.84c-8.81-11-14.45-24.65-16.47-40l-10.51,6.6,41.1,68.1c3.35,5.55,13.41-2.27,10.06-7.83L43.91,710.22c-3-5.05-11.36.54-10.55,6.58,2.16,16.31,8.12,30.86,17.42,42.54,3.93,4.92,12.94-1.72,10.07-7.83L50.33,729c-2.81-6-12.86,1.89-10.07,7.83Z" transform="translate(82.68 -272.58)"/></svg>