<svg id="meteor" xmlns="http://www.w3.org/2000/svg" viewBox="0 0 116.01 90.58"><defs><style>.cls-1{fill:#3e3f4c;}.cls-2{fill:#23242d;}</style></defs><title>Meteor5</title><path class="cls-1" d="M873.67,893.54a38.68,38.68,0,0,0-22.2,3C845,899.52,838,905,835.19,911.74c-2,4.69-.05,8.72,3.1,12.25,2.65,3,5.26,5.93,7.6,9.14a114.84,114.84,0,0,1,12.52,22c1.41,3.24,5.76,3.51,8.47,2.22,5.42-2.57,9.37-7.07,13.68-11.07,4-3.72,8.56-5.58,13.86-6.78,5.65-1.27,11.45-1.86,17-3.6,2.79-.85,5.82-1.85,8-3.94,2.91-2.87,3.19-6.61,2.54-10.43-1.12-6.69-2.54-13.36-3.86-20-1-5.19-2.37-10.53-5.12-15.09-6.69-11.15-20.56-12.92-30.76-5.3a38.61,38.61,0,0,0-7.82,8.12c-1,1.37-2,2.79-2.89,4.23-.66,1-1.24,2.61-2.34,3.29A17.13,17.13,0,0,1,865,898l-5.13,1.5-12,3.5c-3.1.91-5.35,4.38-4.34,7.61q4.95,15.72,11.31,30.91c1.19,2.85,3.49,5,6.82,4.44,2.73-.41,5.76-3,5.37-6.08-1.4-11.15-4.55-21.75-8-32.41l-11.95,3.3c4.85,11.61,9.83,23.23,18.74,32.38,3.58,3.67,10.94,1.07,10.57-4.38a80.35,80.35,0,0,0-9.29-32.68,6.16,6.16,0,0,0-7.72-2.53c-3,1.33-4.1,4.16-3.59,7.3a68.08,68.08,0,0,0,9.82,25.64c3.09,4.9,11.89,3.31,11.53-3.13a192.06,192.06,0,0,0-4.3-31.13l-11.94,3.28,7.92,19.77c2.27,5.65,5.33,11.77,12.39,11.67a6.29,6.29,0,0,0,6.19-6.19,92.69,92.69,0,0,0-4.38-30.3A6.19,6.19,0,0,0,876.2,896c-2.72.41-5.77,3-5.37,6.08A87.57,87.57,0,0,0,879,929.68c2.34,4.82,10.1,3.49,11.32-1.48a76.15,76.15,0,0,0,.13-35.55c-1.64-7-11.81-5.12-12.16,1.64a66.73,66.73,0,0,0,5.82,30.35c1.17,2.67,4.49,3.24,7,2.84,8.53-1.35,9.5-11.68,10.25-18.47.9-8,.43-16.36-4-23.34-3.46-5.48-11-2.86-11.53,3.09a81.58,81.58,0,0,0,2.54,29.59c1.33,4.79,3.25,11.15,9.28,11.38s7.93-5.07,9.49-9.81c2.89-8.72,5.36-20,.21-28.41-2.65-4.34-7.78-7.3-12.76-5.09s-6,7.35-5.9,12.2A55.43,55.43,0,0,0,898.54,929c3,4.29,9.73,3.89,11.32-1.48a53.49,53.49,0,0,0-1.57-35.07c-1.16-2.86-3.52-5-6.81-4.44a6.16,6.16,0,0,0-5.37,6.08,79.12,79.12,0,0,0,4.67,24.4c1.06,2.88,3.6,4.91,6.81,4.43,2.78-.41,5.69-3,5.37-6.08a107.51,107.51,0,0,0-3.9-20.19l-11.32,4.78,3,6.34c1.43,3,5.77,3.81,8.48,2.22,3.09-1.81,3.64-5.43,2.22-8.47l-3-6.35c-3-6.38-13.34-1.86-11.32,4.78a89.54,89.54,0,0,1,3.53,16.93l12.13-1.65a67.78,67.78,0,0,1-4.24-21.11l-12.17,1.65a42.39,42.39,0,0,1,1.57,28.48l11.32-1.48a44.55,44.55,0,0,1-7.85-19.34c-.31-2.2.09-4.62-.33-6.75s-4.88,2.47-4.66.76c.05-.42,1.05,2.58.91,2.1a18.19,18.19,0,0,1,.44,6.89,40.54,40.54,0,0,1-1.56,7.05c-.31,1.07-.65,2.14-1,3.2-.23.71-.47,1.41-.72,2.12-.68,1.6-.4,1.42.8-.54l3.13-.84h-.75l3.09.85c1,1.54,1.11,1.58.5.1-.23-.72-.45-1.44-.67-2.16-.31-1.08-.61-2.17-.87-3.27a66.24,66.24,0,0,1-1.47-7.78,75.46,75.46,0,0,1-.06-16.32l-11.55,3.09c2.73,4.29,2.93,9.09,2.6,14.05a59.61,59.61,0,0,1-.86,7.18,17.9,17.9,0,0,0-.55,2.3c-.41.69-.51.87-.28.54,1.24-.55,1.3-.7.24-.44l7,2.87a53.13,53.13,0,0,1-4.12-24.11L878.51,896a62.07,62.07,0,0,1-.14,29l11.32-1.48a69.5,69.5,0,0,1-6.46-21.3l-12.16,1.65a81.71,81.71,0,0,1,3.93,27l6.2-6.19c-4.43.08,1.55.25,1.08.52a17.29,17.29,0,0,1-1.17-2.16c-1-2.15-1.75-4.4-2.63-6.59l-5.66-14.11c-2.91-7.26-13.71-4.67-11.94,3.29a173.37,173.37,0,0,1,3.86,27.87l11.53-3.1a59.35,59.35,0,0,1-8.56-22.68l-11.32,4.77A65.52,65.52,0,0,1,864,938.81l10.57-4.38C867.22,926.9,863,917.09,859,907.51c-1.29-3.09-4.11-5.29-7.62-4.33A6.31,6.31,0,0,0,847,910.8c3.06,9.51,6.29,19.16,7.54,29.11l12.16-1.65q-6.35-15.19-11.31-30.9L851.1,915l17.71-5.21c3-.86,5.93-1.7,8.35-3.72a26,26,0,0,0,5-6.37c3.49-5.47,12.67-16.39,19.19-8.39,2.39,2.92,3.36,7,4.18,10.58,1.24,5.51,2.19,11.11,3.26,16.66l.78,4c.88,4.54.44-.61,1.36.38-.11-.12-6.47,2-7.09,2.11-5,1.12-10.12,1.74-15.08,3.06a38.64,38.64,0,0,0-15.55,8.11c-4.17,3.59-7.53,8-12.59,10.42l8.47,2.22a115,115,0,0,0-9.45-17.55c-2-3-4.09-5.88-6.31-8.7-1-1.23-2-2.52-3.09-3.75s-2.27-3.16-3.54-4c-.43-.27-.77-1.64-.29.51.42,1.85.43.5,1.1-.4a22.81,22.81,0,0,1,2.23-2.48,25,25,0,0,1,6.33-4.5,24.19,24.19,0,0,1,14.28-2.53c3.31.49,6.66-.83,7.63-4.34.79-2.93-1-7.12-4.34-7.62Z" transform="translate(-830.99 -873.72)"/><path class="cls-1" d="M850,913.52l-10,16.33c-2.29,3.71.13,7.64,3.71,9.09a37.23,37.23,0,0,0,18.76,2.42c3.31-.42,6.19-2.54,6.19-6.19,0-3-2.85-6.63-6.19-6.19A29.5,29.5,0,0,1,847,927l3.71,9.09,10-16.31c4.18-6.82-6.52-13-10.69-6.26Z" transform="translate(-830.99 -873.72)"/><path class="cls-1" d="M874.9,940.71q10.77,7.44,21.82,14.41c3.4,2.15,7.2,5.36,11.15,6.43,4.71,1.27,8.18-1.78,11.69-4.38,6.42-4.73,14.58-9.12,18-16.72,3.55-8,5.75-16.83,8.49-25.15a6.28,6.28,0,0,0-2.85-7q-14.77-9-28.62-19.41c-4-3-9.13,1.14-9.29,5.35a241.47,241.47,0,0,1-3.18,29.87c-.56,3.29.87,6.67,4.34,7.62,3,.82,7-1,7.61-4.33a269.54,269.54,0,0,0,3.62-33.17l-9.32,5.35A342.81,342.81,0,0,0,936.87,919l-2.85-7c-2.31,7-4.58,14.09-6.94,21.11-2,6-8,9-12.86,12.66-1.4,1-2.8,2.08-4.22,3.09-.62.44-2.26,1.19-.07.7s.08-.78-.91-1.39c-3-1.88-6.06-3.77-9.06-5.7q-9.48-6.09-18.81-12.51c-2.75-1.9-6.87-.52-8.47,2.21-1.8,3.1-.54,6.58,2.22,8.48Z" transform="translate(-830.99 -873.72)"/><path class="cls-1" d="M889.25,935.69a32.8,32.8,0,0,0,21,15c3.1.66,6.94-.88,7.62-4.33l7.14-35.92a6.24,6.24,0,0,0-10.36-6c-6.57,5.73-8.34,15.06-10.72,23.07s-7.58,18.38.76,24.51c2,1.45,6,1,7.51-1a85.93,85.93,0,0,0,12.91-22.92c2.48-6.68,7.3-18.55-.62-23.29-3.71-2.24-7.65.08-9.09,3.71a81.4,81.4,0,0,0-5.58,34c.29,5.9,8.43,8.73,11.55,3.09q8-14.43,14.67-29.57c1.35-3.06.9-6.65-2.21-8.47a6.28,6.28,0,0,0-8.48,2.22A67.37,67.37,0,0,0,916.33,931c-1.16,4.89,3,8.43,7.61,7.62s7.85-4.74,10.29-8.62c2.75-4.39,5.34-8.88,7.82-13.42,3.23-5.94-5-13-9.73-7.51l-8.77,10.06a6.35,6.35,0,0,0,0,8.75c2.25,2.25,6.56,2.54,8.77,0l8.76-10-9.72-7.51c-1.94,3.54-3.93,7-6,10.49-1.08,1.78-2.4,5.46-4.69,5.87l7.61,7.65a57,57,0,0,1,7.83-18.25l-10.7-6.25q-6.63,15.13-14.67,29.57l11.53,3.1a72.45,72.45,0,0,1,5.16-30.67l-9.1,3.72c-.09-.06-2-2.72-1.66-2.87a10.86,10.86,0,0,0-.42,2.06c-.34,1.55-.73,3.1-1.16,4.6a66.6,66.6,0,0,1-11.58,22.93l7.5-1,1.44,2.33v-.78c0-.1.18-.83.25-1.11.37-1.44.84-2.86,1.27-4.28l3-10c1.48-5,2.48-10.69,6.53-14.24l-10.35-6L906,943.1l7.62-4.34A20.6,20.6,0,0,1,900,929.41c-4.18-6.77-14.9-.56-10.7,6.25Z" transform="translate(-830.99 -873.72)"/><path class="cls-2" d="M917,887.9c-4.8-3.9-8.87-8.92-14.38-11.89a19.06,19.06,0,0,0-17.54-.29c-6,2.84-10.24,8.35-12.95,14.24-1.42,3.1-2.08,6.68-5,8.82-2.57,1.92-5.46,3.09-7.57,5.62s1.46,6,3.51,3.5c3.43-4.1,8.84-5.1,11.2-10.32,2.59-5.7,4.54-11.42,9.7-15.42,5-3.87,11.35-4.7,16.85-1.45,4.75,2.82,8.37,7.23,12.63,10.68,2.47,2,6-1.49,3.5-3.5Z" transform="translate(-830.99 -873.72)"/><path class="cls-2" d="M871,891.67c-5.26.62-10.52,1.42-15.72,2.4-4.39.82-9,1.65-12.84,4.14-3.59,2.36-5.25,5.89-7.48,9.4-2.07,3.24-4.69,6.13-3.72,10.27.8,3.4,3.49,5.75,5,8.77,1.86,3.65-.81,7.85,2,11.33,2.48,3.1,7.6,4.7,11.19,6.14a7.58,7.58,0,0,0,5.34.37c1.8-.58,3.35-2.29,5.29-2.23,3.19.11,3.18-4.85,0-5s-5.94,3.3-9,2.15c-1.65-.62-3.25-1.48-4.86-2.21s-3.51-1.28-4.22-2.89.11-3.92,0-5.77a10.31,10.31,0,0,0-.9-3.41c-1.15-2.62-3.3-4.62-4.5-7.19-1.53-3.27,1.35-5.69,3-8.31,2-3.25,3.51-6.36,7.09-8.13,3.42-1.69,7.43-2.23,11.15-2.92q6.59-1.23,13.26-2c3.09-.39,3.16-5.35,0-5Z" transform="translate(-830.99 -873.72)"/><path class="cls-2" d="M849.76,943.63a116.71,116.71,0,0,0,11.9,18,2.49,2.49,0,0,0,3.5,0c4.19-4.68,8.83-9.54,14-13.1,1.78-1.24,2.53-1.08,4.34-.12,1.23.62,2.43,1.35,3.61,2.1,2.52,1.59,4.91,3.37,7.31,5.14,4.22,3.09,9.46,7.92,14.86,8.64,5.07.67,9.84-4.64,13.43-7.54q3.57-2.9,7-5.93c2.21-1.95,4.87-3.89,6.36-6.48,1.29-2.21,1.47-4.86,2-7.31a79.53,79.53,0,0,1,2.36-9,75.07,75.07,0,0,1,3.32-8.59c1.05-2.3,3.17-5,3.21-7.6.07-4.66-5.74-8.72-9.1-11-6-4-12.23-8.13-18.58-11.56a7.81,7.81,0,0,0-6.86-.43c-3.72,1.34-7.4,2.9-11.09,4.34-2.93,1.15-1.66,5.94,1.31,4.78l7.77-3a34.72,34.72,0,0,1,4.18-1.62c1.59-.4,2.63.51,3.94,1.32,4.9,3,9.82,6,14.69,9.12a34.4,34.4,0,0,1,6.28,4.72c.91.93,2.07,2,2.11,3.31s-1.1,2.91-1.7,4.16a87.47,87.47,0,0,0-5.39,14.45c-.71,2.62-1.23,5.28-1.74,8-.56,3-1.75,4.64-4,6.68q-6.57,6-13.62,11.41c-2.39,1.85-4.18,3.71-7.29,2.19a54.07,54.07,0,0,1-6.69-4.15c-4.31-3-8.39-6.36-12.91-9.06-1.94-1.15-4.33-2.73-6.62-3-2.59-.33-4.49,1.44-6.39,2.93a107.56,107.56,0,0,0-13.67,12.81h3.51a110.75,110.75,0,0,1-11.15-17c-1.5-2.82-5.77-.32-4.27,2.47Z" transform="translate(-830.99 -873.72)"/><path class="cls-2" d="M941.62,915.14a202.14,202.14,0,0,1-8.85,24.73c-1.24,2.89,3,5.41,4.27,2.47a210.53,210.53,0,0,0,9.36-25.9c.88-3.1-3.9-4.39-4.78-1.32Z" transform="translate(-830.99 -873.72)"/><path class="cls-2" d="M925.92,907.09a12.38,12.38,0,0,0,3.77,18.25c3.1,1.85,5.9-3,2.81-4.81-4-2.41-4.55-7-1.77-10.63,2.19-2.83-2.65-5.61-4.81-2.81Z" transform="translate(-830.99 -873.72)"/><path class="cls-2" d="M898.13,942.94c1.7-1.41,3.63-.07,4,1.74.77,3.5,6.15,2,5.38-1.48-1.38-6.28-8.67-8.08-13.35-4.2-2.77,2.28,1.19,6.19,3.94,3.94Z" transform="translate(-830.99 -873.72)"/><path class="cls-2" d="M849.18,931.25c4,.88,6.92-2.3,7-6.2a10.43,10.43,0,0,0-4.92-8.85c-2.95-2-5.79,2.84-2.81,4.81a4.84,4.84,0,0,1,1.94,2.53,3.7,3.7,0,0,1,.22,1.51c0,.45-.29.73,0,.8-3.5-.77-5,4.6-1.48,5.36Z" transform="translate(-830.99 -873.72)"/><path class="cls-2" d="M856.15,914.08c3.58,0,3.59-5.57,0-5.57S852.55,914.08,856.15,914.08Z" transform="translate(-830.99 -873.72)"/><path class="cls-2" d="M895.88,886.62c3.59,0,3.6-5.57,0-5.57S892.29,886.62,895.88,886.62Z" transform="translate(-830.99 -873.72)"/><path class="cls-2" d="M862.93,914.78a1.55,1.55,0,0,0,0-3.09A1.55,1.55,0,0,0,862.93,914.78Z" transform="translate(-830.99 -873.72)"/><path class="cls-2" d="M858.73,917.39a.93.93,0,1,0-.93-.93A.93.93,0,0,0,858.73,917.39Z" transform="translate(-830.99 -873.72)"/><path class="cls-2" d="M890.07,883.15a.93.93,0,1,0-.93-.93A.93.93,0,0,0,890.07,883.15Z" transform="translate(-830.99 -873.72)"/><path class="cls-2" d="M888.13,888.64a.93.93,0,1,0-.93-.93A.93.93,0,0,0,888.13,888.64Z" transform="translate(-830.99 -873.72)"/><path class="cls-2" d="M893.62,891.51a1.86,1.86,0,0,0,0-3.72A1.86,1.86,0,0,0,893.62,891.51Z" transform="translate(-830.99 -873.72)"/><path class="cls-2" d="M907.82,934.8a1.86,1.86,0,0,0,0-3.72A1.86,1.86,0,0,0,907.82,934.8Z" transform="translate(-830.99 -873.72)"/><path class="cls-2" d="M911.71,936.77a1.24,1.24,0,0,0,0-2.48A1.24,1.24,0,0,0,911.71,936.77Z" transform="translate(-830.99 -873.72)"/><path class="cls-2" d="M924.32,900.28a1.24,1.24,0,0,0,0-2.48A1.24,1.24,0,0,0,924.32,900.28Z" transform="translate(-830.99 -873.72)"/><path class="cls-2" d="M922.07,905.43a1.24,1.24,0,0,0,0-2.48A1.24,1.24,0,0,0,922.07,905.43Z" transform="translate(-830.99 -873.72)"/><path class="cls-2" d="M917.21,897.67a1.24,1.24,0,0,0,0-2.47A1.24,1.24,0,0,0,917.21,897.67Z" transform="translate(-830.99 -873.72)"/><path class="cls-2" d="M888.78,912.86a1.24,1.24,0,0,0,0-2.48A1.24,1.24,0,0,0,888.78,912.86Z" transform="translate(-830.99 -873.72)"/><path class="cls-2" d="M885.53,925.45a1.24,1.24,0,0,0,0-2.47A1.24,1.24,0,0,0,885.53,925.45Z" transform="translate(-830.99 -873.72)"/><path class="cls-2" d="M894,916.41a1.24,1.24,0,0,0,0-2.47A1.24,1.24,0,0,0,894,916.41Z" transform="translate(-830.99 -873.72)"/></svg>