<svg id="meteor" xmlns="http://www.w3.org/2000/svg" viewBox="0 0 172.66 850.41"><defs><style>.cls-1{fill:#3e3f4c;}.cls-2{fill:#23242d;}</style></defs><title>Meteor3</title><path class="cls-1" d="M981.83,1006c-.29,3.55.3,7.53,3.75,9.4,3.16,1.72,6.78-.08,9.83-1.21,5.55-2,11.08-4.52,15.47-8.58a20.9,20.9,0,0,0,5.32-7.43c1.58-4.06-.91-7-3.45-9.87a65.08,65.08,0,0,0-7.13-7c-1.31-1.1-2.67-2.15-4-3.16s-2.89-2.25-4.71-2.36c-2.13-.12-3.61,1.1-5.23,2.3L986.4,982l-10.47,7.78a3.4,3.4,0,0,0-.67,5.23,26.15,26.15,0,0,0,6.25,6c1,.65,2.21,1.11,3.24,1.8.16.1.39.28.26.33s.8-1.09.51-.91l4.54,4.53a60.35,60.35,0,0,0,8.7-19.85,5.48,5.48,0,0,0-.71-4.66,4.45,4.45,0,0,0-5.66-1,35.8,35.8,0,0,0-4.47,3.21L983,988l4,5.23a122.4,122.4,0,0,1,12.39-9.84l-4-5.22a142,142,0,0,0-13.54,16c-1.92,2.67,1.91,6.49,4.55,4.56a149.92,149.92,0,0,0,15.9-13.32l-4.7-4.69-12.81,14.31a3.35,3.35,0,0,0-.26,4.37c.93,1.17,2.95,1.87,4.29.86L1003.73,989l-4-5.23c-5.89,5.42-11.73,11-16.06,17.74-1.71,2.68,1.83,6.57,4.55,4.55l19.1-14.1-4-5.23a126.88,126.88,0,0,0-16.69,16,3.38,3.38,0,0,0,0,4.7c3.91,3.76,8.69-1.45,11.76-3.83q5.61-4.33,11.13-8.81l-4.71-4.71a137.76,137.76,0,0,0-11.5,10.5q-2.71,2.79-5.28,5.72c-2,2.28-3.53,4.23-2.18,7.3.94,2.14,3.76,1.87,5.22.66l19.52-16c2.9-2.37-1-7.47-4-5.23a143.13,143.13,0,0,0-15.92,13.47,3.36,3.36,0,0,0-.52,4c3.17,4.3,7.26.51,10.34-1.73l10.15-7.4-4.56-4.55a16.41,16.41,0,0,1-4.3,4.09l4.56,4.56c1.59-2.17,4-3.4,5.23-5.93a7.41,7.41,0,0,0-.9-8.39,3.34,3.34,0,0,0-4.7,0,3.38,3.38,0,0,0,0,4.7c.18.22-1.11,1.77-1.36,2a39.29,39.29,0,0,0-4,4.24c-2,2.7,1.88,6.33,4.56,4.56a25.15,25.15,0,0,0,6.65-6.48c1.9-2.66-1.9-6.49-4.55-4.55l-7.55,5.5-3.64,2.66-1.83,1.33-1,.76c-.68.37-.39.37.88,0l2,1.53-.2-.26-.52,4a131,131,0,0,1,14.58-12.44l-4-5.23-19.52,16,5.23.67-.16-.36.46,1.66c0,.71-.06.5.45-.09.34-.37.67-.75,1-1.12.73-.83,1.46-1.65,2.21-2.45q2.14-2.31,4.38-4.51,4.61-4.53,9.6-8.6c1.39-1.13,1.18-3.52,0-4.7a3.41,3.41,0,0,0-4.71,0q-4.14,3.34-8.32,6.63-2,1.53-3.92,3l-2.06,1.58c-.2.15-.86.49-1,.7-.16.42-.68-.35.56.1l1.47.86-.26-.25v4.71a127.35,127.35,0,0,1,16.69-16c2.92-2.33-1-7.48-4-5.23l-19.09,14.1,4.56,4.55c4-6.29,9.55-11.37,15-16.39,2.73-2.5-1-7.55-4-5.23l-14.87,11.32,4,5.23,12.82-14.31c2.84-3.18-1.6-7.71-4.71-4.71a138.36,138.36,0,0,1-14.55,12.26l4.55,4.56a129.77,129.77,0,0,1,12.5-14.7c2.56-2.61-.84-7.45-4-5.23a138.48,138.48,0,0,0-13.75,10.87c-2.75,2.49,1,7.49,4,5.23l4.87-3.58,2.3-1.69c.59-.44,1.36-1.24,2-1.36h-1.77l.43.11-1.47-.86c-.08-.07-.47-1.27-.48-1.27s-.33,1.29-.38,1.44c-.24.86-.49,1.72-.77,2.58-.52,1.61-1.1,3.22-1.77,4.79a62.82,62.82,0,0,1-5.1,9.45c-1.85,2.83,1.77,6.19,4.55,4.55,4-2.36,3.25-7.78,0-10.36-1.47-1.15-3.26-1.73-4.73-2.86A26,26,0,0,1,980,990.3l-.66,5.23,14.4-10.71,1.83-1.36c.18-.13,1.39-.83,1.4-1,0,.17-1.64-.54-.33.33.55.37,1.09.76,1.63,1.15a56.81,56.81,0,0,1,5.88,5,63.37,63.37,0,0,1,5.24,5.63c.16.19.86.87.87,1.21,0-.44-.29.33-.34.41a20.45,20.45,0,0,1-1.72,2.69c-2.71,3.36-6.56,5.55-10.44,7.3-2.14,1-4.37,1.76-6.59,2.53-.66.23-1.33.48-2,.67-.85.25-.45,0-.3.29-.65-1.11-.41-2.41-.31-3.64a3.33,3.33,0,1,0-6.66,0Z" transform="translate(-973.05 -166)"/><path class="cls-2" d="M994.56,974.82c-3.85,2.48-7.7,5-11.37,7.72-1.71,1.29-3.39,2.62-5,4a26.93,26.93,0,0,0-4.66,4.64c-1,1.49-.29,2.78.79,4,1.59,1.77,3.21,3.53,4.82,5.29,1.47,1.6,2.4,2.41,4.64,1.92,2.59-.57,4.57.8,6.55,2.33,1.2.91,2.36-1.12,1.18-2a14.27,14.27,0,0,0-4.57-2.58,6.71,6.71,0,0,0-2.4-.25c-1.07.09-2,.55-2.91-.13a14.34,14.34,0,0,1-1.89-2.07l-2.1-2.3c-.51-.56-1.82-1.58-2.07-2.3s.91-1.66,1.52-2.27c5.53-5.51,12.12-9.76,18.64-14,1.25-.81.09-2.83-1.18-2Z" transform="translate(-973.05 -166)"/><path class="cls-2" d="M982.7,1001.72a46.17,46.17,0,0,0-1.64,4.38,5.67,5.67,0,0,0,.4,3.56c.77,2.08,1.36,5.29,3.57,6.33s5-.06,7.19-.63a58.27,58.27,0,0,0,7.51-2.56,39.18,39.18,0,0,0,13.07-8.57c3.55-3.64,6.45-8.08,4-13.16-1.36-2.82-3.84-4.79-6.33-6.57-1.33-1-2.71-1.88-4-3a16.36,16.36,0,0,1-1.52-1.48,10.93,10.93,0,0,1-1.48-1.9l-.81.83.15,0c1.48-.23.85-2.47-.62-2.24l-.15,0a1.17,1.17,0,0,0-.81.82c-.49,1.6,1.43,3.5,2.44,4.55a35.6,35.6,0,0,0,5.12,4.09c4.2,3,8.77,7.37,5.31,12.75-5,7.72-14.22,12-22.8,14.24a21.18,21.18,0,0,1-4,.88c-1.93.1-2.33-1.49-2.9-3-.49-1.3-1.43-2.93-1.15-4.33a27.82,27.82,0,0,1,1.63-4.38c.53-1.39-1.72-2-2.25-.62Z" transform="translate(-973.05 -166)"/><path class="cls-2" d="M1003.38,977.79a5.09,5.09,0,0,0-1.67-1.75c-.76-.48-1.69-.59-2.42-1.13-1.57-1.2-2.77-1.2-4.45-.06-1.23.84-.06,2.86,1.18,2s1.77,0,2.88.51,1.86.6,2.48,1.59c.79,1.27,2.81.1,2-1.18Z" transform="translate(-973.05 -166)"/><path class="cls-2" d="M981,991.2a3.39,3.39,0,0,1,2.7,2.6c.07.3-.06,1.38.22,1.39-1.5-.06-1.49,2.27,0,2.33,2.29.1,2.42-3,2-4.54a5.83,5.83,0,0,0-4.27-4,1.17,1.17,0,0,0-.62,2.25Z" transform="translate(-973.05 -166)"/><path class="cls-2" d="M1007.84,991.14a6,6,0,0,0-1.58,5.74c.53,1.89,2,3.7,4.11,3.35,1.47-.25.85-2.5-.62-2.25-.84.14-1.33-2.06-1.36-2.54a3.64,3.64,0,0,1,1.09-2.66c1-1.09-.61-2.74-1.66-1.65Z" transform="translate(-973.05 -166)"/><path class="cls-2" d="M995.07,979.94a3.65,3.65,0,0,0,3.6,2.42,1.17,1.17,0,1,0,0-2.33,1.33,1.33,0,0,1-1.35-.71,1.17,1.17,0,1,0-2.25.62Z" transform="translate(-973.05 -166)"/><path class="cls-2" d="M992,1010.81l0,0,.13-.1.28-.19a5.3,5.3,0,0,1,.57-.33,1.17,1.17,0,0,0-1.18-2,9.79,9.79,0,0,0-1.41,1,1.16,1.16,0,0,0,.83,2,1.34,1.34,0,0,0,.82-.34Z" transform="translate(-973.05 -166)"/><path class="cls-2" d="M985.91,988.35h.26a1.17,1.17,0,0,0,0-2.33h-.26a1.17,1.17,0,1,0,0,2.33Z" transform="translate(-973.05 -166)"/><path class="cls-2" d="M986.69,990.84a.67.67,0,0,0,0-1.33A.67.67,0,0,0,986.69,990.84Z" transform="translate(-973.05 -166)"/><path class="cls-2" d="M988,989a.16.16,0,0,0,.17-.16.16.16,0,0,0-.17-.17.16.16,0,0,0-.16.17A.16.16,0,0,0,988,989Z" transform="translate(-973.05 -166)"/><path class="cls-2" d="M988.26,992.43a.17.17,0,0,0,0-.34.17.17,0,0,0,0,.34Z" transform="translate(-973.05 -166)"/><path class="cls-2" d="M988,988.85a.5.5,0,0,0,.5-.5.5.5,0,0,0-.5-.5.51.51,0,0,0-.5.5A.5.5,0,0,0,988,988.85Z" transform="translate(-973.05 -166)"/><path class="cls-2" d="M988.91,1007.74a.5.5,0,1,0-.5-.5A.49.49,0,0,0,988.91,1007.74Z" transform="translate(-973.05 -166)"/><path class="cls-2" d="M987.34,1008.58h.13a.17.17,0,0,0,.17-.17.16.16,0,0,0-.17-.16h-.13a.16.16,0,0,0-.16.16A.17.17,0,0,0,987.34,1008.58Z" transform="translate(-973.05 -166)"/><path class="cls-2" d="M987.73,1011.2a.84.84,0,0,0,0-1.67A.84.84,0,0,0,987.73,1011.2Z" transform="translate(-973.05 -166)"/><path class="cls-2" d="M991.4,1006.9a.83.83,0,0,0,0-1.66A.83.83,0,0,0,991.4,1006.9Z" transform="translate(-973.05 -166)"/><path class="cls-2" d="M1005.45,990.35a.83.83,0,0,0,0-1.66A.83.83,0,0,0,1005.45,990.35Z" transform="translate(-973.05 -166)"/><path class="cls-2" d="M1001,984.11a.84.84,0,0,0,0-1.67A.84.84,0,0,0,1001,984.11Z" transform="translate(-973.05 -166)"/><path class="cls-2" d="M998.67,983.94a.67.67,0,0,0,0-1.33A.67.67,0,0,0,998.67,983.94Z" transform="translate(-973.05 -166)"/><path class="cls-2" d="M999.33,985.07h.26a.5.5,0,1,0,0-1h-.26a.5.5,0,1,0,0,1Z" transform="translate(-973.05 -166)"/><path class="cls-2" d="M996.33,983.74a.34.34,0,0,0,0-.67.34.34,0,0,0,0,.67Z" transform="translate(-973.05 -166)"/><path class="cls-2" d="M997.5,985.69a.34.34,0,1,0-.33-.33A.34.34,0,0,0,997.5,985.69Z" transform="translate(-973.05 -166)"/><path class="cls-2" d="M1002.88,988.71a.37.37,0,0,0-.27.47.36.36,0,0,0,.36.28.33.33,0,0,0,.34-.33.34.34,0,0,0-.34-.33h0l.24.1h0l.08.14v.11l-.08.15h0l-.14.05h0a.34.34,0,0,0,.23-.41.34.34,0,0,0-.41-.23h0Z" transform="translate(-973.05 -166)"/><path class="cls-2" d="M1003.88,993.25a.34.34,0,1,0,0-.67.34.34,0,0,0,0,.67Z" transform="translate(-973.05 -166)"/><path class="cls-2" d="M1006,991.16a.34.34,0,0,0,0-.67.34.34,0,0,0,0,.67Z" transform="translate(-973.05 -166)"/><path class="cls-2" d="M1003.1,991.35a.67.67,0,0,0,0-1.33A.67.67,0,0,0,1003.1,991.35Z" transform="translate(-973.05 -166)"/><path class="cls-2" d="M994.77,997.09a.67.67,0,0,0,0-1.33A.67.67,0,0,0,994.77,997.09Z" transform="translate(-973.05 -166)"/><path class="cls-2" d="M996.46,997.28a.33.33,0,1,0,0-.66.33.33,0,1,0,0,.66Z" transform="translate(-973.05 -166)"/><path class="cls-2" d="M995.68,999.37a.34.34,0,1,0-.33-.34A.34.34,0,0,0,995.68,999.37Z" transform="translate(-973.05 -166)"/><path class="cls-1" d="M1109.83,198c-.29,3.55.3,7.53,3.75,9.4,3.16,1.72,6.78-.08,9.83-1.21,5.55-2,11.08-4.52,15.47-8.58a20.9,20.9,0,0,0,5.32-7.43c1.58-4.06-.91-7-3.45-9.87a65.08,65.08,0,0,0-7.13-7c-1.31-1.1-2.67-2.15-4-3.16s-2.89-2.25-4.71-2.36c-2.13-.12-3.61,1.1-5.23,2.3l-5.23,3.9-10.47,7.78a3.4,3.4,0,0,0-.67,5.23,26.15,26.15,0,0,0,6.25,6c1,.65,2.21,1.11,3.24,1.8.16.1.39.28.26.33s.8-1.09.51-.91l4.54,4.53a60.35,60.35,0,0,0,8.7-19.85,5.48,5.48,0,0,0-.71-4.66,4.45,4.45,0,0,0-5.66-1,35.8,35.8,0,0,0-4.47,3.21L1111,180l4,5.23a122.4,122.4,0,0,1,12.39-9.84l-4-5.22a142,142,0,0,0-13.54,16c-1.92,2.67,1.91,6.49,4.55,4.56a149.92,149.92,0,0,0,15.9-13.32l-4.7-4.69-12.81,14.31a3.35,3.35,0,0,0-.26,4.37c.93,1.17,3,1.87,4.29.86L1131.73,181l-4-5.23c-5.89,5.42-11.73,11-16.06,17.74-1.71,2.68,1.83,6.57,4.55,4.55l19.1-14.1-4-5.23a126.88,126.88,0,0,0-16.69,16,3.38,3.38,0,0,0,0,4.7c3.91,3.76,8.69-1.45,11.76-3.83q5.61-4.34,11.13-8.81l-4.71-4.71a137.76,137.76,0,0,0-11.5,10.5q-2.71,2.79-5.28,5.72c-2,2.28-3.53,4.23-2.18,7.3.94,2.14,3.76,1.87,5.22.66l19.52-16c2.9-2.37-1-7.47-4-5.23a143.13,143.13,0,0,0-15.92,13.47,3.36,3.36,0,0,0-.52,4c3.17,4.3,7.26.51,10.34-1.73l10.15-7.4-4.56-4.55a16.41,16.41,0,0,1-4.3,4.09l4.56,4.56c1.59-2.17,4-3.4,5.23-5.93a7.41,7.41,0,0,0-.9-8.39,3.34,3.34,0,0,0-4.7,0,3.38,3.38,0,0,0,0,4.7c.18.22-1.11,1.77-1.36,2a39.29,39.29,0,0,0-4,4.24c-2,2.7,1.88,6.33,4.56,4.56a25.15,25.15,0,0,0,6.65-6.48c1.9-2.66-1.9-6.49-4.55-4.55l-7.55,5.5-3.64,2.66-1.83,1.33-1,.76c-.68.37-.39.37.88,0l2,1.53-.2-.26-.52,4a131,131,0,0,1,14.58-12.44l-4-5.23-19.52,16,5.23.67-.16-.36.46,1.66c0,.71-.06.5.45-.09.34-.37.67-.75,1-1.12.73-.83,1.46-1.65,2.21-2.45q2.15-2.31,4.38-4.51,4.61-4.53,9.6-8.6c1.39-1.13,1.18-3.52,0-4.7a3.41,3.41,0,0,0-4.71,0q-4.14,3.34-8.32,6.63-1.95,1.53-3.92,3l-2.06,1.58c-.2.15-.86.49-1,.7-.16.42-.68-.35.56.1l1.47.86-.26-.25v4.71a127.35,127.35,0,0,1,16.69-16c2.92-2.33-1-7.48-4-5.23l-19.09,14.1,4.56,4.55c4-6.29,9.55-11.37,15-16.39,2.73-2.5-1-7.55-4-5.23l-14.87,11.32,4,5.23,12.82-14.31c2.84-3.18-1.6-7.71-4.71-4.71a138.36,138.36,0,0,1-14.55,12.26l4.55,4.56a129.77,129.77,0,0,1,12.5-14.7c2.56-2.61-.84-7.45-4-5.23a138.48,138.48,0,0,0-13.75,10.87c-2.75,2.49,1,7.49,4,5.23l4.87-3.58,2.3-1.69c.59-.44,1.36-1.24,2-1.36h-1.77l.43.11-1.47-.86c-.08-.07-.47-1.27-.48-1.27s-.33,1.29-.38,1.44c-.24.86-.49,1.72-.77,2.58-.52,1.61-1.1,3.22-1.77,4.79a62.82,62.82,0,0,1-5.1,9.45c-1.85,2.83,1.77,6.19,4.55,4.55,4-2.36,3.25-7.78,0-10.36-1.47-1.15-3.26-1.73-4.73-2.86a26,26,0,0,1-4.14-4.43l-.66,5.23,14.4-10.71,1.83-1.36c.18-.13,1.39-.83,1.4-1,0,.17-1.64-.54-.33.33.55.37,1.09.76,1.63,1.15a56.81,56.81,0,0,1,5.88,5,63.37,63.37,0,0,1,5.24,5.63c.16.19.86.87.87,1.21,0-.44-.29.33-.34.41a20.45,20.45,0,0,1-1.72,2.69c-2.71,3.36-6.56,5.55-10.44,7.3-2.14,1-4.37,1.76-6.59,2.53-.66.23-1.33.48-2,.67-.85.25-.45,0-.3.29-.65-1.11-.41-2.41-.31-3.64a3.33,3.33,0,1,0-6.66,0Z" transform="translate(-973.05 -166)"/><path class="cls-2" d="M1122.56,166.82c-3.85,2.48-7.7,5-11.37,7.72-1.71,1.29-3.39,2.62-5,4a26.93,26.93,0,0,0-4.66,4.64c-1,1.49-.29,2.78.79,4,1.59,1.77,3.21,3.53,4.82,5.29,1.47,1.6,2.4,2.41,4.64,1.92,2.59-.57,4.57.8,6.55,2.33,1.2.91,2.36-1.12,1.18-2a14.27,14.27,0,0,0-4.57-2.58,6.71,6.71,0,0,0-2.4-.25c-1.07.09-2,.55-2.91-.13a14.34,14.34,0,0,1-1.89-2.07l-2.1-2.3c-.51-.56-1.82-1.58-2.07-2.3s.91-1.66,1.52-2.27c5.53-5.51,12.12-9.76,18.64-14,1.25-.81.09-2.83-1.18-2Z" transform="translate(-973.05 -166)"/><path class="cls-2" d="M1110.7,193.72a46.17,46.17,0,0,0-1.64,4.38,5.67,5.67,0,0,0,.4,3.56c.77,2.08,1.36,5.29,3.57,6.33s5-.06,7.19-.63a58.27,58.27,0,0,0,7.51-2.56,39.18,39.18,0,0,0,13.07-8.57c3.55-3.64,6.45-8.08,4-13.16-1.36-2.82-3.84-4.79-6.33-6.57-1.33-1-2.71-1.88-4-3a16.36,16.36,0,0,1-1.52-1.48,10.93,10.93,0,0,1-1.48-1.9l-.81.83.15,0c1.48-.23.85-2.47-.62-2.24l-.15,0a1.17,1.17,0,0,0-.81.82c-.49,1.6,1.43,3.5,2.44,4.55a35.6,35.6,0,0,0,5.12,4.09c4.2,3,8.77,7.37,5.31,12.75-5,7.72-14.22,12-22.8,14.24a21.18,21.18,0,0,1-4,.88c-1.93.1-2.33-1.49-2.9-3-.49-1.3-1.43-2.93-1.15-4.33a27.82,27.82,0,0,1,1.63-4.38c.53-1.39-1.72-2-2.25-.62Z" transform="translate(-973.05 -166)"/><path class="cls-2" d="M1131.38,169.79a5.09,5.09,0,0,0-1.67-1.75c-.76-.48-1.69-.59-2.42-1.13-1.57-1.2-2.77-1.2-4.45-.06-1.23.84-.06,2.86,1.18,2s1.77,0,2.88.51,1.86.6,2.48,1.59c.79,1.27,2.81.1,2-1.18Z" transform="translate(-973.05 -166)"/><path class="cls-2" d="M1109,183.2a3.39,3.39,0,0,1,2.7,2.6c.07.3-.06,1.38.22,1.39-1.5-.06-1.49,2.27,0,2.33,2.29.1,2.42-3,2-4.54a5.83,5.83,0,0,0-4.27-4,1.17,1.17,0,0,0-.62,2.25Z" transform="translate(-973.05 -166)"/><path class="cls-2" d="M1135.84,183.14a6,6,0,0,0-1.58,5.74c.53,1.89,2,3.7,4.11,3.35,1.47-.25.85-2.5-.62-2.25-.84.14-1.33-2.06-1.36-2.54a3.64,3.64,0,0,1,1.09-2.66c1-1.09-.61-2.74-1.66-1.65Z" transform="translate(-973.05 -166)"/><path class="cls-2" d="M1123.07,171.94a3.65,3.65,0,0,0,3.6,2.42,1.17,1.17,0,1,0,0-2.33,1.33,1.33,0,0,1-1.35-.71,1.17,1.17,0,1,0-2.25.62Z" transform="translate(-973.05 -166)"/><path class="cls-2" d="M1120,202.81l0,0,.13-.1.28-.19a5.3,5.3,0,0,1,.57-.33,1.17,1.17,0,0,0-1.18-2,9.79,9.79,0,0,0-1.41,1,1.16,1.16,0,0,0,.83,2,1.34,1.34,0,0,0,.82-.34Z" transform="translate(-973.05 -166)"/><path class="cls-2" d="M1113.91,180.35h.26a1.17,1.17,0,0,0,0-2.33h-.26a1.17,1.17,0,1,0,0,2.33Z" transform="translate(-973.05 -166)"/><path class="cls-2" d="M1114.69,182.84a.67.67,0,0,0,0-1.33A.67.67,0,0,0,1114.69,182.84Z" transform="translate(-973.05 -166)"/><path class="cls-2" d="M1116,181a.16.16,0,0,0,.17-.16.16.16,0,0,0-.17-.17.16.16,0,0,0-.16.17A.16.16,0,0,0,1116,181Z" transform="translate(-973.05 -166)"/><path class="cls-2" d="M1116.26,184.43a.17.17,0,0,0,0-.34.17.17,0,0,0,0,.34Z" transform="translate(-973.05 -166)"/><path class="cls-2" d="M1116,180.85a.5.5,0,0,0,.5-.5.5.5,0,0,0-.5-.5.51.51,0,0,0-.5.5A.5.5,0,0,0,1116,180.85Z" transform="translate(-973.05 -166)"/><path class="cls-2" d="M1116.91,199.74a.5.5,0,1,0-.5-.5A.49.49,0,0,0,1116.91,199.74Z" transform="translate(-973.05 -166)"/><path class="cls-2" d="M1115.34,200.58h.13a.17.17,0,0,0,.17-.17.16.16,0,0,0-.17-.16h-.13a.16.16,0,0,0-.16.16A.17.17,0,0,0,1115.34,200.58Z" transform="translate(-973.05 -166)"/><path class="cls-2" d="M1115.73,203.2a.84.84,0,0,0,0-1.67A.84.84,0,0,0,1115.73,203.2Z" transform="translate(-973.05 -166)"/><path class="cls-2" d="M1119.4,198.9a.83.83,0,0,0,0-1.66A.83.83,0,0,0,1119.4,198.9Z" transform="translate(-973.05 -166)"/><path class="cls-2" d="M1133.45,182.35a.83.83,0,0,0,0-1.66A.83.83,0,0,0,1133.45,182.35Z" transform="translate(-973.05 -166)"/><path class="cls-2" d="M1129,176.11a.84.84,0,0,0,0-1.67A.84.84,0,0,0,1129,176.11Z" transform="translate(-973.05 -166)"/><path class="cls-2" d="M1126.67,175.94a.67.67,0,0,0,0-1.33A.67.67,0,0,0,1126.67,175.94Z" transform="translate(-973.05 -166)"/><path class="cls-2" d="M1127.33,177.07h.26a.5.5,0,1,0,0-1h-.26a.5.5,0,1,0,0,1Z" transform="translate(-973.05 -166)"/><path class="cls-2" d="M1124.33,175.74a.34.34,0,0,0,0-.67.34.34,0,0,0,0,.67Z" transform="translate(-973.05 -166)"/><path class="cls-2" d="M1125.5,177.69a.34.34,0,1,0-.33-.33A.34.34,0,0,0,1125.5,177.69Z" transform="translate(-973.05 -166)"/><path class="cls-2" d="M1130.88,180.71a.37.37,0,0,0-.27.47.36.36,0,0,0,.36.28.33.33,0,0,0,.34-.33.34.34,0,0,0-.34-.33h0l.24.1h0l.08.14v.11l-.08.15h0l-.14,0h0a.34.34,0,0,0,.23-.41.34.34,0,0,0-.41-.23h0Z" transform="translate(-973.05 -166)"/><path class="cls-2" d="M1131.88,185.25a.34.34,0,1,0,0-.67.34.34,0,0,0,0,.67Z" transform="translate(-973.05 -166)"/><path class="cls-2" d="M1134,183.16a.34.34,0,0,0,0-.67.34.34,0,0,0,0,.67Z" transform="translate(-973.05 -166)"/><path class="cls-2" d="M1131.1,183.35a.67.67,0,0,0,0-1.33A.67.67,0,0,0,1131.1,183.35Z" transform="translate(-973.05 -166)"/><path class="cls-2" d="M1122.77,189.09a.67.67,0,0,0,0-1.33A.67.67,0,0,0,1122.77,189.09Z" transform="translate(-973.05 -166)"/><path class="cls-2" d="M1124.46,189.28a.33.33,0,1,0,0-.66.33.33,0,0,0,0,.66Z" transform="translate(-973.05 -166)"/><path class="cls-2" d="M1123.68,191.37a.34.34,0,1,0-.33-.34A.34.34,0,0,0,1123.68,191.37Z" transform="translate(-973.05 -166)"/></svg>