<svg id="meteor" xmlns="http://www.w3.org/2000/svg" viewBox="0 0 101.87 120.17"><defs><style>.cls-1{fill:#3e3f4c;}.cls-2{fill:#23242d;}</style></defs><title>Meteor7</title><path class="cls-1" d="M982,533.57A103.89,103.89,0,0,0,960.71,539c-3.32,1.23-7.31,2.41-10.09,4.69-3.85,3.16-3.91,7.57-4.16,12.18q-1.38,24.2-2.75,48.39c-.23,4.18,3.49,6.7,7.13,7.13,6.36.77,11.46-3.14,16.09-6.91,3.46-2.85,7.19-4.47,11.28-6.16,4.79-2,9.58-4.13,12.95-8.23a21.22,21.22,0,0,0,4.23-8.92c.27-1.14,1.31-3.73,1.12-4.82-.11-.62,1.19-.26-.85-.12l-3.6-1c5.5,3.7,12.3,6.25,19,4.53,6.11-1.56,11.3-6.55,12.12-12.91s-3.1-11.89-1.54-18.22,7-11,7.62-17.91-3.22-13.14-10-15c-2-.55-4.81-.29-6.42-1.3,1.13.72-1-1.42-.31-.44a21.71,21.71,0,0,1-1.47-2.56c-1.89-3.73-3.26-7.85-6.41-10.8a14.4,14.4,0,0,0-5.82-3.4c-4.32-1.21-7.3.51-10.33,3.49a45,45,0,0,0-11,17.77,59.08,59.08,0,0,0-2.08,10.56c-.3,2.13-.45,5.11-1.89,6.85-2.45,3-2.9,7.19,0,10.09,2.53,2.52,7.62,3,10.08,0a23.09,23.09,0,0,0,5.07-10.21c.71-3.4.85-6.88,1.65-10.26a31.14,31.14,0,0,1,10.32-16.6l-5,2.09c.08,0-1.15-.26-1.12-.27.48-.14.71,1.09.06,0,.55.92-.1-.5.71.91,1,1.72,1.79,3.49,2.63,5.28,1.83,3.89,4.19,7.8,8,10,2.8,1.62,5.62,1.9,8.76,2.36,2.41.36.36.42.53-.29s-.35,1.39-.48,1.74c-.87,2.44-2.85,4.57-4.05,6.86a30.77,30.77,0,0,0-3.28,9.54,32.67,32.67,0,0,0-.11,9.92,37.69,37.69,0,0,0,1,4.49c.18.65,1.11,2.59.84,3.36-1.29,3.67-8.37-1.25-9.83-2-6.75-3.62-13.86,2.69-16.14,8.7-1.72,4.5-1.17,8.75-5.09,11.1-4.62,2.76-10,4-14.61,6.72-3.82,2.28-8.22,8.18-12.57,7.66l7.13,7.13,1.54-26.62L960.2,565c.23-4-.34-9.35,1-13.09l-1.83,3.15c1-1.12,3.67-1.75,5.15-2.31,2.21-.82,4.46-1.58,6.73-2.25a105.69,105.69,0,0,1,14.51-3.16c3.81-.57,5.91-5.38,5-8.77-1.13-4.09-5-5.55-8.77-5Z" transform="translate(-929 -494)"/><path class="cls-1" d="M987,529.85l-29.82,17.69a7.24,7.24,0,0,0-2.54,9.78c2.14,3.62,6.23,4.14,9.76,2.56,15-6.69,29.77-13.69,42-24.82,5.91-5.36-1.91-15.82-8.64-11.2a199.74,199.74,0,0,0-40.86,37.24c-5.1,6.17,1.15,15,8.64,11.2a116.6,116.6,0,0,0,28.79-20.61,119.79,119.79,0,0,0,12.24-14.09c3.38-4.51,7.42-9.65,9.22-15,2.55-7.63-3.66-13.06-10.73-13.36a30.93,30.93,0,0,0-19.16,6c-6.52,4.83-5.46,11.55-3.86,18.6a91.22,91.22,0,0,0,7.13,19.75c2.24,4.57,10.14,4.75,12.32,0a50,50,0,0,0,3.81-30.66l-13,5.5c3.56,7.9,12,20.87,22.27,15.35,8-4.28,12.21-19.71,3.84-25.47-10.76-7.39-17.11,7.42-20.62,15.16A115.34,115.34,0,0,0,989,561.75c-1.32,7.8,8.43,12.59,13,5.5a141.3,141.3,0,0,0,15.85-33.43L1004.1,530,995,562.9l13.75,3.79c1.61-6,3.4-14.48-.22-20.08-3.91-6.05-11.62-5.71-17.17-2.35-10.18,6.18-17.28,18.39-21.27,29.23-1.92,5.2,3.86,10.16,8.77,8.77a44.53,44.53,0,0,0,27.81-23,7.19,7.19,0,0,0-9.76-9.75,221,221,0,0,0-42.42,28.39c-5.55,4.7.39,13.83,6.94,11.91,13.9-4.06,27.24-12.39,33.93-25.71,3.08-6.13-3.33-13.61-9.76-9.76a102.28,102.28,0,0,0-36.19,36.86,7.26,7.26,0,0,0,2.56,9.75c3.68,2.14,7.41.51,9.76-2.55l18.37-24c4.89-6.41-5.89-14.7-11.21-8.64a120.8,120.8,0,0,0-16.24,23.53l12.32,7.2,2.73-5.41c4.12-8.18-8.18-15.41-12.32-7.2l-2.73,5.41c-4.11,8.16,8,15.37,12.32,7.2a105,105,0,0,1,14-20.63l-11.2-8.64-18.37,24,12.32,7.2a87.41,87.41,0,0,1,31.07-31.75L983,556.87C977.92,567,968.18,572.94,957.59,576L964.53,588a205.89,205.89,0,0,1,39.53-26.16l-9.76-9.76A30.47,30.47,0,0,1,975,568.51l8.77,8.77a48.85,48.85,0,0,1,10.36-16.66,39.9,39.9,0,0,1,3.37-3.26s1.92-1.42,1.9-1.33c0-.18-2.49-3.18-3.26-2-.29.44,0,2.13-.07,2.72A31.43,31.43,0,0,1,995,562.9c-2.39,8.87,11.29,12.64,13.75,3.79l9.14-32.87c2.48-8.89-10.92-12.47-13.75-3.78a126.83,126.83,0,0,1-14.41,30l13,5.49a109.1,109.1,0,0,1,5.23-19.77,92.25,92.25,0,0,1,3.7-8.55c.73-1.48,1.5-3,2.31-4.39.4-.72.82-1.43,1.23-2.14l.63-1.07q1.42-2.07-2.53,1l-3.6-1c-.94-.41-.13-2.74-1.15-1.42a7.52,7.52,0,0,0-.71,2.41c0,.25-.68.72-.58.89-.47-.47.16-.54,1.9-.21s2.38.14,1.57-.63c-.23-1-2.36-2.79-3-3.75a41.25,41.25,0,0,1-3.15-5.81c-1.43-3.19-6-4.21-8.91-2.92-3.41,1.51-4.8,4.82-4.13,8.42a33,33,0,0,1-2.37,19.64h12.31a75.41,75.41,0,0,1-6.35-19.47c0-.17-.27-1.9-.3-1.91.94.25-2.34,1.77-.34,1.54,1.06-.12,2.54-1.48,3.64-1.89a18.12,18.12,0,0,1,4.28-1.06,9.85,9.85,0,0,0,2-.06c1.22-.41,0,1.23-1.47-1.48l-1-3.57c.43-.51.31-.26-.35.76-.37.65-.75,1.29-1.13,1.94-.58,1-1.18,1.92-1.79,2.85-1.42,2.2-2.9,4.37-4.49,6.46A101.6,101.6,0,0,1,983.85,542a103.92,103.92,0,0,1-25.51,18l8.6,11.25a186.52,186.52,0,0,1,38-35L996.28,525c-11.25,10.22-25.41,16.45-39.13,22.59l7.19,12.31,29.82-17.68c7.89-4.68.71-17-7.19-12.32Z" transform="translate(-929 -494)"/><path class="cls-1" d="M971.49,538.54a75.88,75.88,0,0,0-32.68,4.86c-5.11,2-6.93,7.65-3.16,11.92,3.25,3.66,3.81,10.15,5.08,15.26,1.7,6.87,4.6,12.62,10.38,16.87s13.44-4,9.77-9.77L959,574.77a7.17,7.17,0,0,0-8.9-2.91c-3,1.32-5.39,5-4.13,8.41,3.12,8.35,8.56,15.32,18.4,13.5,3.78-.71,5.94-5.28,5-8.77-1.09-4-5-5.7-8.77-5,1.42-.27.58.16.45-.65a22.74,22.74,0,0,0-1.3-2.9l-13,5.5,1.89,2.95,9.75-9.76a10.87,10.87,0,0,1-2.75-4.53,80.21,80.21,0,0,1-2.08-8.21c-1.43-6.32-3.38-12.23-7.74-17.16l-3.15,11.93a65.79,65.79,0,0,1,28.89-4.36c3.84.27,7.13-3.47,7.13-7.13,0-4.09-3.28-6.86-7.13-7.13Z" transform="translate(-929 -494)"/><path class="cls-1" d="M962.32,532.13,960.18,530c-4.5-4.41-12-1.09-12.17,5.05-.22,6.64-3.36,12.5-3.94,19.06a16.33,16.33,0,0,0,7.34,15.5c7.74,5,14.9-7.35,7.2-12.31-1.39-.9.53-6,1-7.4a54,54,0,0,0,2.69-14.85l-12.17,5,2.14,2.1c6.55,6.42,16.65-3.65,10.08-10.08Z" transform="translate(-929 -494)"/><path class="cls-1" d="M953.57,566.22a34.66,34.66,0,0,0-6,21.2c.43,9.15,14.69,9.2,14.26,0a21.78,21.78,0,0,1,4-14c2.18-3.17.6-7.9-2.56-9.75-3.53-2.07-7.57-.63-9.76,2.56Z" transform="translate(-929 -494)"/><path class="cls-1" d="M973.08,538.85c0-.28.29-2.14,0-.88,0-.17.56-1.82.28-1.14a8.8,8.8,0,0,1,1.18-1.79c.13-.11,1.43-1.25.87-.83s.89-.51,1-.6c1.34-.78-.63,0,.89-.31s-.84,0,.87-.12a7.29,7.29,0,0,0,7.13-7.14c0-3.73-3.27-7.28-7.13-7.13a20.18,20.18,0,0,0-19.38,20,7.14,7.14,0,0,0,14.27,0Z" transform="translate(-929 -494)"/><path class="cls-1" d="M961.75,533.87c-.07,4.41-.72.72-.24,1l2.6-1.37c2.08-1,4.27-1.79,6.41-2.61,4.82-1.85,9.73-3.48,14.68-4.94,8.79-2.58,5-16.35-3.78-13.75a200.32,200.32,0,0,0-21.17,7.56c-6.38,2.69-12.64,6.31-12.75,14.09-.13,9.19,14.13,9.19,14.26,0Z" transform="translate(-929 -494)"/><path class="cls-1" d="M941.12,561.49c.72,5.71,1.51,11.46,2.22,17.2.66,5.28,1.3,10.7-.07,15.89-2.34,8.88,11.41,12.67,13.75,3.79,3.14-11.94-.09-24.9-1.63-36.88-.5-3.82-2.93-7.13-7.14-7.13C944.79,554.36,940.63,557.64,941.12,561.49Z" transform="translate(-929 -494)"/><path class="cls-1" d="M951.4,560.22c-5.34.14-8.71,3.27-11.58,7.47-2.6,3.83-5.58,7.85-7.57,12a10.5,10.5,0,0,0,3.87,13.77c3.9,2.44,9.08,3.41,13.43,4.81,8.74,2.85,12.49-11,3.78-13.76l-6.52-2.1c-1.27-.41-2.56-.47-3.28-1.39l1.83,3.14q-.92,3.09.19.92l1.46-2.26,2.2-3.39c.71-1.13,1.43-2.27,2.19-3.4.43-.67.86-1.33,1.32-2q1-.71-1.32.45c9.15-.25,9.19-14.51,0-14.26Z" transform="translate(-929 -494)"/><path class="cls-2" d="M1019.5,517.67c-4.78-6.61-9.37-13.49-14.44-19.9-4.1-5.16-11-4.44-16.22-1.32-12.59,7.57-12.76,23.69-19.32,35.31l4.92,2.85.86-1.74c1.63-3.28-3.29-6.18-4.92-2.85l-.86,1.74c-1.62,3.26,3.09,6.1,4.92,2.85,5.48-9.68,6-22.41,14-30.6a14.76,14.76,0,0,1,6.22-4c4.15-1.22,5.75.94,8,4l12,16.57c2.14,2.95,7.09.1,4.93-2.85Z" transform="translate(-929 -494)"/><path class="cls-2" d="M976.13,513.25a77.72,77.72,0,0,0-21.65,7.9,19.61,19.61,0,0,0-6.45,5c-2.19,2.86-2.55,6.29-3,9.77-.19,1.48-.11,3.17-1.42,4.14-1,.71-2.69.78-3.82,1-2.66.55-5.26,1.28-7.13,3.39-4.28,4.86-1.32,11.49,1.32,16.27,1.82,3.31,2.85,6.29,1.66,10s-3.4,6.92-5,10.4c-1.15,2.49-2.36,5.2-1.14,7.89s4.49,4.2,6.55,6.3a24.09,24.09,0,0,1,5.43,8.76c.88,2.43,1.58,5,3.16,7,4.28,5.71,10.2,2,15.18-.56q12.43-6.42,24.87-12.9c3.16-1.67,5.84-3.5,7.79-6.55,2.14-3.32,3.1-7.2,5.4-10.45a2.89,2.89,0,0,0-1-3.9,85.94,85.94,0,0,1-15.47-12.6c-2.56-2.63-6.6,1.43-4,4A92.49,92.49,0,0,0,994,581.71l-1-3.9c-3.43,4.85-4.08,11-9.62,14.14-6.06,3.4-12.35,6.42-18.51,9.62L956.34,606c-2.53,1.31-5.78,4.16-7.69.9-1.19-2-1.65-4.47-2.58-6.63a29.39,29.39,0,0,0-4.19-6.91c-1.68-2.06-3.81-3.41-5.63-5.27-1.49-1.52-1.32-2.66-.44-4.52.71-1.54,1.56-3,2.35-4.53,2.46-4.71,4.66-9.71,3.38-15.11-.94-3.94-8.47-12.54-4.07-16.15,1.5-1.23,4.21-1.16,6-1.64a9.22,9.22,0,0,0,5.26-3.15c1.67-2.21,1.72-5,2-7.63.5-3.94,1.65-6.37,5.11-8.45a70.13,70.13,0,0,1,21.75-8.15c3.57-.71,2.07-6.24-1.52-5.49Z" transform="translate(-929 -494)"/><path class="cls-2" d="M994,581.44l8.75,1.29c2.38.34,5,1,7.43.71,3.73-.53,7.29-3.77,9.88-6.33,3.28-3.23,5.35-7.23,4.89-11.93-.24-2.38-.81-4.74-1.28-7.09-.52-2.65-1.89-6.28-.85-8.81.94-2.31,3-4.19,4.14-6.46a46.94,46.94,0,0,0,2.49-6.47c1.16-3.78,2-7.94,1-11.86-2.33-9.61-12.63-8.64-19.84-5.81-3.38,1.33-1.91,6.84,1.52,5.5,2.81-1.1,6.5-2.72,9.56-1.8,3.71,1.12,3.76,5.37,3.23,8.56a33.15,33.15,0,0,1-3.47,10.13c-1.66,3-4.39,5.3-4.71,8.93-.62,7.06,5.59,15.58.5,21.79-2,2.4-5.53,5.9-8.73,6.07-4.11.2-8.93-1.26-13-1.85-3.56-.53-5.13,5-1.51,5.5Z" transform="translate(-929 -494)"/><path class="cls-2" d="M951.11,584.76c.9-1.29,2.85,3.47,2.93,3.74.57,1.62,1.84,4.38-.16,5.38-3.29,1.64-.4,6.56,2.85,4.92,5.77-2.88,3.84-10.3,1.55-14.89s-8.68-7-12.12-2c-2.1,3,2.85,5.87,4.93,2.85Z" transform="translate(-929 -494)"/><path class="cls-2" d="M949.89,554.5a7.37,7.37,0,0,0,8.73-1.92c2.33-2.67,2.56-6.26,2.53-9.64,0-3.67-5.7-3.68-5.7,0a13,13,0,0,1-.54,5c-.31.71-1.43,1.95-2.14,1.64a2.94,2.94,0,0,0-3.9,1,2.87,2.87,0,0,0,1,3.9Z" transform="translate(-929 -494)"/><path class="cls-2" d="M1006.67,549.1c-13.4-.33-12.17,25.78-1.37,22.4,3.49-1.09,2-6.59-1.52-5.5-1.26.4-1.22-5-1.13-5.86.28-2.37,1.1-5.4,4-5.33C1010.34,554.9,1010.34,549.2,1006.67,549.1Z" transform="translate(-929 -494)"/><path class="cls-2" d="M989.87,509.58a8.73,8.73,0,0,0,2,10.24c3.2,2.85,7.8,2.85,11.41.88,3.23-1.74.35-6.67-2.85-4.92a4.35,4.35,0,0,1-4.51,0,3,3,0,0,1-1.06-3.33,2.93,2.93,0,0,0-1-3.9,2.88,2.88,0,0,0-3.9,1Z" transform="translate(-929 -494)"/><path class="cls-2" d="M980.28,546.21c3.67,0,3.68-5.7,0-5.7S976.61,546.21,980.28,546.21Z" transform="translate(-929 -494)"/><path class="cls-2" d="M970.25,550c2.75,0,2.76-4.28,0-4.28S967.49,550,970.25,550Z" transform="translate(-929 -494)"/><path class="cls-2" d="M975.83,548.52a1.07,1.07,0,0,0,0-2.14h0a1.07,1.07,0,0,0,0,2.14Z" transform="translate(-929 -494)"/><path class="cls-2" d="M981.78,551.5a1.07,1.07,0,1,0-1.07-1.07A1.07,1.07,0,0,0,981.78,551.5Z" transform="translate(-929 -494)"/><path class="cls-2" d="M955,576.42a1.07,1.07,0,1,0-1.07-1.07A1.07,1.07,0,0,0,955,576.42Z" transform="translate(-929 -494)"/><path class="cls-2" d="M959.46,572.64c2.76,0,2.76-4.28,0-4.28S956.7,572.64,959.46,572.64Z" transform="translate(-929 -494)"/><path class="cls-2" d="M960.21,578.63a1.79,1.79,0,0,0,0-3.57A1.79,1.79,0,0,0,960.21,578.63Z" transform="translate(-929 -494)"/><path class="cls-2" d="M992.94,570.81a1.78,1.78,0,0,0,0-3.56A1.78,1.78,0,0,0,992.94,570.81Z" transform="translate(-929 -494)"/><path class="cls-2" d="M992.2,562.23c3.22,0,3.22-5,0-5S989,562.23,992.2,562.23Z" transform="translate(-929 -494)"/><path class="cls-2" d="M987,565.62a1.43,1.43,0,0,0,0-2.85A1.43,1.43,0,0,0,987,565.62Z" transform="translate(-929 -494)"/><path class="cls-2" d="M943.09,555.2a1.43,1.43,0,0,0,0-2.85A1.43,1.43,0,0,0,943.09,555.2Z" transform="translate(-929 -494)"/><path class="cls-2" d="M946.81,561.16a1.43,1.43,0,0,0,0-2.86A1.43,1.43,0,0,0,946.81,561.16Z" transform="translate(-929 -494)"/><path class="cls-2" d="M985,511l-.38.71a1.43,1.43,0,0,0,2.47,1.43l.37-.75A1.42,1.42,0,0,0,985,511Z" transform="translate(-929 -494)"/><path class="cls-2" d="M985.5,521a1.43,1.43,0,0,0,0-2.85A1.43,1.43,0,0,0,985.5,521Z" transform="translate(-929 -494)"/><path class="cls-2" d="M987.84,524.76v.37a2.5,2.5,0,1,0,5,0v-.37a2.5,2.5,0,0,0-5,0Z" transform="translate(-929 -494)"/><path class="cls-2" d="M1019.73,534.69c3.21,0,3.22-5,0-5S1016.52,534.69,1019.73,534.69Z" transform="translate(-929 -494)"/><path class="cls-2" d="M1015.27,536.6a1.43,1.43,0,0,0,0-2.85A1.43,1.43,0,0,0,1015.27,536.6Z" transform="translate(-929 -494)"/><path class="cls-1" d="M980,582.78l-.63-.71a1.08,1.08,0,0,0-1.51,0l-1.31,1.43,1.83.75a12,12,0,0,0-.27-2.92,1.08,1.08,0,0,0-1.35-.74,1,1,0,0,0-.44.26,9.42,9.42,0,0,0-2.14,2.4c-.72,1.2,1,2.14,1.84,1.09l2-2.71c.71-1-.91-2.23-1.68-1.3l-2.46,3c-.87,1,.52,2.51,1.51,1.51a4.63,4.63,0,0,1,5.7-.77,1.07,1.07,0,0,0,1.08-1.84,6.8,6.8,0,0,0-8.28,1.1l1.51,1.51,2.46-3-1.67-1.3-2,2.71,1.85,1.09a7.24,7.24,0,0,1,1.77-2l-1.77-.46a9.3,9.3,0,0,1,.2,2.36,1.08,1.08,0,0,0,1.11,1,1,1,0,0,0,.71-.29l1.31-1.42H977.9l.62.71c.89,1.05,2.41-.47,1.52-1.51Z" transform="translate(-929 -494)"/></svg>