<svg id="meteor" xmlns="http://www.w3.org/2000/svg" viewBox="0 0 99.08 76.24"><defs><style>.cls-1{fill:#3e3f4c;}.cls-2{fill:#23242d;}</style></defs><title>Meteor2</title><path class="cls-1" d="M1134.65,768.47q-10.62-6.4-21.56-12.12c-1.83-1-3.66-1.89-5.49-2.8-2-1-4.08-2.24-6.31-2.56-4-.54-7.16,1.84-9,5.2s-3.31,7.16-4.92,10.71c-1.72,3.8-3.46,7.58-5.16,11.38-.92,2-1.72,3.91-1.37,6.19a8.77,8.77,0,0,0,3,5.19,7.18,7.18,0,0,1,2.5,6.35c-.16,3.59-1.68,7-2.82,10.34-1.59,4.68-2.47,9.38-1.37,14.28.55,2.49,3.32,3.73,5.63,3.21l41.57-9.48c6.29-1.43,12.45-2.83,18.88-1.48s12.36,4.27,18.21,7.19c2.45,1.23,6.11.35,6.73-2.74a190.38,190.38,0,0,0,3.74-24.79c.49-7.85.11-16.4-2.69-23.81s-8.88-12.83-17.06-10.08c-4,1.31-7.76,3.21-11.59,4.83l-12.36,5.23c-2.29,1-2.78,4.33-1.65,6.26,1.38,2.37,4,2.62,6.27,1.65,6.67-2.82,13.32-5.71,20-8.47,2.16-.91,4.12-1.83,5.83.11a15.06,15.06,0,0,1,2.75,6.36c3.35,13.28.52,27.18-2.11,40.3l6.73-2.75c-6.28-3.13-12.72-6.34-19.59-7.93-7.46-1.73-14.6-1-22,.71-14.72,3.31-29.43,6.71-44.14,10.08l5.63,3.2c-.91-4.12,1-8.4,2.38-12.23a31.26,31.26,0,0,0,2.17-11.26,15.52,15.52,0,0,0-4.23-10.63,17.22,17.22,0,0,0-1.57-1.38c0,1,.08,1.23.2.62l.74-1.63,2.75-6.09q2.85-6.32,5.71-12.6a23.87,23.87,0,0,1,1.42-3c-.65.33,1.2.87,1.65,1.1l3.15,1.58q12.6,6.42,24.7,13.71c5.06,3.05,9.67-4.86,4.62-7.91Z" transform="translate(-1078.92 -748.26)"/><path class="cls-1" d="M1104.92,767.52l2.89-5.3c2.86-5.25-4.56-9.39-7.91-4.62a224.3,224.3,0,0,0-12.5,19.85c-2.45,4.39,3.66,9.57,7.19,5.55q7.54-8.54,14.25-17.74l-7.91-4.63q-7.79,11-14.73,22.59c-3.07,5.1,4.65,9.49,7.9,4.62A98.1,98.1,0,0,1,1111,768.69l-7.2-5.55a165.64,165.64,0,0,0-13.93,24.07c-2.19,4.62,3.2,9.2,7.19,5.55A115.06,115.06,0,0,0,1113.38,774l-7.91-4.63-16.89,28.64c-2.6,4.4,3.61,9.43,7.2,5.55l19.32-21-6.47-6.48A212.71,212.71,0,0,0,1087,808.82c-2.82,5.28,4.53,9.37,7.91,4.62a195,195,0,0,1,23.72-27.37l-6.47-6.48c-8,10.14-16.12,20.36-21.74,32.09a4.59,4.59,0,0,0,7.19,5.55l28.4-29.66-6.48-6.48-22.73,27.22c-3.75,4.49,2.06,10.5,6.48,6.48l27.11-24.67-7.19-5.55a172.16,172.16,0,0,1-19.69,22.86c-3.13,3.05,0,9.26,4.45,7.66a299.1,299.1,0,0,0,42-19.07,4.63,4.63,0,0,0,1.64-6.26,4.68,4.68,0,0,0-6.26-1.65,102.73,102.73,0,0,1-32.12,9l2.29,8.53a98.71,98.71,0,0,1,25.35-11.9l-3.52-8.37a45,45,0,0,1-12.37,3.66c-3,.43-7.29,1-10.07-.66a3.31,3.31,0,0,1-1.54-1.92c-.24-1.11-.21-1,.79-1.34,3.37-1.07,8.28.49,11.32,1.93a4.6,4.6,0,0,0,5.55-7.19,112.78,112.78,0,0,0-17.56-16.27c-4.12-3.1-9.62,3.93-5.55,7.19a114.72,114.72,0,0,0,29.68,17.32l2.44-8.83c-10-3.64-18.24-10.68-26.22-17.46-4.44-3.78-10.58,2.14-6.47,6.48,9.11,9.66,23.2,17.4,36.81,17.12,3.72-.08,7.71-1,10.53-3.59a7.54,7.54,0,0,0,.76-10.7c-4.74-5.14-14.11-5-20.23-3.11-7.78,2.42-14,8.05-19.17,14.15-2.88,3.37-.2,8.86,4.45,7.65a168,168,0,0,0,38.13-15.08c4.62-2.51,1.45-9.68-3.53-8.37a62.92,62.92,0,0,0-36.45,26.34c-2,3.08.7,6.7,4,6.87,9.43.55,18.52-3.09,26.13-8.46a87.34,87.34,0,0,0,10.7-9c3.45-3.39,7.1-7.43,5.56-12.66-1.59-5.45-7.69-6.8-12.11-3.79a73.65,73.65,0,0,0-10.93,9.56,103,103,0,0,0-9.4,11.16q-2,2.79-3.87,5.72c-1.17,1.88-2.75,4-3.28,6.16-1.49,6.12,5.25,9.21,10.27,9.36,4.85.14,9.58-2,13.74-4.24a57.2,57.2,0,0,0,11.13-8.12c3.36-3.13,7.61-7.23,8.78-11.82,1.41-5.56-3.12-9.85-8.48-9.68a29.4,29.4,0,0,0-13.63,4.44c-7.27,4.38-15.73,14.17-10.16,23,3,4.76,9.41,6.26,14.54,4.46,4.8-1.67,8.61-5.63,11.13-10a30.11,30.11,0,0,0,.38-29.24c-1.59-2.93-6.35-3-7.91,0a60.4,60.4,0,0,0-6.05,36.25c.45,3.43,5.53,4.36,7.65,2a45.26,45.26,0,0,0,10.15-18.07c1.66-5.89,3.26-16-5.44-16.74a4.48,4.48,0,0,0-4,2.29,47.3,47.3,0,0,0-3.76,34.11,4.7,4.7,0,0,0,4.41,3.37c6.18.28,9.07-5.84,9.95-11a93.74,93.74,0,0,0,1.27-20.35,4.59,4.59,0,0,0-4-4.5c-2-.24-4.67,1-5,3.28a150.52,150.52,0,0,0-1.8,28.13c.13,4.17,6.57,6.73,8.53,2.31a57.6,57.6,0,0,0,5.11-26.19c-.24-5.29-7.23-6.05-9-1.21a54.56,54.56,0,0,0-2.29,28.15c.38,2.21,3,3.59,5,3.28a4.62,4.62,0,0,0,4-4.5,90.69,90.69,0,0,0-1.43-20.61c-.45-2.43-3.4-3.81-5.63-3.21a4.7,4.7,0,0,0-3.21,5.64,79.59,79.59,0,0,1,1.1,18.17l9-1.21a45.3,45.3,0,0,1,2.29-23.29l-9-1.21a47.53,47.53,0,0,1-3.86,21.57l8.54,2.29a138.13,138.13,0,0,1,1.47-25.7l-9-1.22a88.14,88.14,0,0,1-.46,14.71,34.3,34.3,0,0,1-1.06,6,17.11,17.11,0,0,0-.75,1.66c-.12.88-.22.06-.11.13-.1-.06,2-.19.34-.26l4.41,3.36a37.63,37.63,0,0,1,2.84-27.06l-4,2.26-2.4-1.65.14.52c.07-.28,0,.56,0,.69a22.43,22.43,0,0,1-.41,2.71,38.61,38.61,0,0,1-1.88,6.41,34.61,34.61,0,0,1-6.62,10.54l7.66,2a49.67,49.67,0,0,1,5.13-29.19h-7.92a20.58,20.58,0,0,1,1.54,15.5c-1.18,4.08-4.47,10.27-9.29,10.66-1.73.14-3.14-.75-2.94-2.54.28-2.51,2.29-4.62,4.06-6.22a23.78,23.78,0,0,1,11.61-5.51,8.87,8.87,0,0,0,1.26-.07c-.13.19-3-6.2-.5-1-.82-1.72-.18-.84-.64-.36-.86.91-1.52,2.22-2.36,3.2q-1.58,1.83-3.32,3.51a45.87,45.87,0,0,1-7.27,5.68,32.59,32.59,0,0,1-8.24,4,9.82,9.82,0,0,1-3.88.46,13.34,13.34,0,0,0-1.54-.46c.28-.13.14,2.75.57,2.69.13,0,.66-1.18.75-1.33a88.09,88.09,0,0,1,11.56-15.71,92.41,92.41,0,0,1,6.87-6.7c1.24-1.09,2.5-2.21,3.83-3.21.22-.16,1-.45,1-.69-.08.29-1.89-.82-1.93-.85-.42-.22,0-.49-.1-.52.5.3-5.38,6-6,6.52a63.42,63.42,0,0,1-8.28,6.42c-5.88,3.76-12.29,6.16-19.34,5.74l4,6.87a53.36,53.36,0,0,1,31-22.14l-3.52-8.37a157.58,157.58,0,0,1-36,14.16l4.46,7.66c4-4.62,8.51-9.52,14.41-11.55a16.3,16.3,0,0,1,8.66-.85,36.32,36.32,0,0,1,3.44,1.31,1.91,1.91,0,0,1-.56-2.44l-.19.17a14.65,14.65,0,0,0-2,.73c-5.44,1.21-12.25-1.1-17.17-3.3a47.7,47.7,0,0,1-15.3-10.89l-6.47,6.47c9.26,7.88,18.68,15.6,30.25,19.82,2.32.85,5-1,5.63-3.21.72-2.6-.89-4.71-3.2-5.63a100.1,100.1,0,0,1-25.65-15l-5.55,7.2a101.69,101.69,0,0,1,15.71,14.84l5.55-7.2c-5.73-2.75-13.49-4.82-19.69-2.4s-7.79,9.88-4.47,15.37,10.19,6.76,16.11,6.38a55.59,55.59,0,0,0,19.91-5.2c4.73-2.18,1.37-9.86-3.53-8.36a106.91,106.91,0,0,0-27.53,12.82,4.7,4.7,0,0,0-2.11,5.17c.49,1.79,2.44,3.58,4.41,3.36A116.12,116.12,0,0,0,1149.92,796l-4.62-7.91a284.09,284.09,0,0,1-39.78,18.14l4.45,7.65a185.29,185.29,0,0,0,21.14-24.73c3.15-4.4-3.52-8.89-7.19-5.55l-27.11,24.73,6.48,6.48L1126,787.58a4.71,4.71,0,0,0,0-6.48,4.64,4.64,0,0,0-6.48,0l-28.39,29.65,7.2,5.56c5.28-11,12.75-20.69,20.3-30.23,1.53-1.94,1.89-4.58,0-6.48a4.67,4.67,0,0,0-6.48,0A206.66,206.66,0,0,0,1087,808.83l7.9,4.62a200.51,200.51,0,0,1,20.19-30.81c1.54-1.93,1.88-4.58,0-6.48a4.63,4.63,0,0,0-6.48,0l-19.33,21,7.19,5.55,16.89-28.63c3-5.16-4.57-9.38-7.9-4.63a104.17,104.17,0,0,1-14.87,16.86l7.18,5.55a165.64,165.64,0,0,1,13.93-24.07,4.56,4.56,0,0,0-1.17-5.91,4.64,4.64,0,0,0-6,.36,106.4,106.4,0,0,0-18.32,21l7.91,4.62q6.95-11.58,14.74-22.58c1.43-2,.36-5.09-1.64-6.26-2.33-1.37-4.81-.36-6.27,1.64q-6,8.25-12.83,15.89l7.2,5.55a225.72,225.72,0,0,1,12.48-19.86l-7.91-4.62-2.87,5.3c-2.83,5.18,5.08,9.81,7.91,4.62Z" transform="translate(-1078.92 -748.26)"/><path class="cls-2" d="M1135.06,769.42c7.14-3.12,14.27-6.73,21.64-9.31,3.3-1.14,7.74-2.36,10.69.21,2.38,2.07,3.49,5.49,4.32,8.43,2,7.27,1.9,15,1.37,22.5a122.06,122.06,0,0,1-3.82,23.09c-.46,1.67-.75,2.9-2.75,2.65a19.16,19.16,0,0,1-5.08-1.77c-3.1-1.38-5.92-3.29-9-4.74-6.82-3.2-14.06-1.69-21.14-.28-7.58,1.5-15.08,3.38-22.59,5.17-3.83.92-7.66,1.8-11.51,2.6a81.81,81.81,0,0,1-10.84,1.94c-1.47.1-3,.2-2.75-1.57.34-2.15,1-4.29,1.55-6.41,1-4.21,1.88-8.49,3.08-12.66,1.77-6.17,9.91-6.59,14.27-10.4,2.23-1.94-1-5.16-3.24-3.23-4.7,4.12-12,4-14.75,10.45-1.66,3.87-2.26,8.37-3.25,12.45l-1.58,6.51c-.43,1.76-1.1,3.71-.59,5.53.85,3,4.12,4,7,3.91,4.12-.15,8.34-1.28,12.37-2.11,8.85-1.83,17.59-4.12,26.4-6.13,4.4-1,8.81-2,13.25-2.67s8.91-.81,13.08,1.37a120.47,120.47,0,0,0,10.77,5.42c2.93,1.16,6.79,2.19,9.44-.16a8.19,8.19,0,0,0,2.19-4.22c.61-2.25,1.14-4.53,1.62-6.81a132,132,0,0,0,2.06-13.14c.91-8.58,1.29-17.57-.54-26.07-.89-4.09-2.29-8.41-5-11.69s-6.79-4.4-11-3.85c-4.7.62-9,2.75-13.3,4.63l-14.7,6.42c-2.69,1.17-.36,5.12,2.29,3.95Z" transform="translate(-1078.92 -748.26)"/><path class="cls-2" d="M1090.55,793.07c-.78-2.7-2.72-4.48-4.63-6.41A6.29,6.29,0,0,1,1084,784c-.46-1.83,1.18-4.19,1.9-5.81,3.3-7.46,6.08-15.76,10.79-22.47,1.13-1.61,2.53-3.2,4.7-2.81s3.74,1.9,5.3,3.16a34.84,34.84,0,0,0,8.58,5.07c6.18,2.6,13,4.27,17,10,2.2,3.09,3.64,6.94,6.25,9.71a5.92,5.92,0,0,0,4.32,1.88c1.5,0,3.63-.86,5-.15,2.62,1.35,4.94-2.6,2.29-4a7.63,7.63,0,0,0-4.58-.74c-2.1.23-3.2.68-4.52-1.25-2.19-3.21-3.81-6.73-6.29-9.72-5-6-12.62-7.52-19.37-10.69-6.21-2.93-13.1-12.13-20.25-5.8-3.11,2.74-5,7-6.73,10.75-2,4.31-3.87,8.68-5.79,13-1.66,3.75-4.58,8.12-2.61,12.26,1.42,3,5.12,4.64,6,7.83.82,2.83,5.24,1.63,4.42-1.22Z" transform="translate(-1078.92 -748.26)"/><path class="cls-2" d="M1161.67,791.58c-7.68-1.06-8.27,11.27-1.91,13.4,2.8.92,4-3.49,1.22-4.42-1.16-.38-1.2-4.66-.53-4.58a2.37,2.37,0,0,0,2.82-1.6,2.31,2.31,0,0,0-1.6-2.81Z" transform="translate(-1078.92 -748.26)"/><path class="cls-2" d="M1099.66,763.89c.61,1,2.19,4.58-.24,4.65-2.94.08-3,4.66,0,4.58a6,6,0,0,0,5.49-4c.92-2.56.08-5.3-1.31-7.51-1.56-2.49-5.53-.19-3.95,2.29Z" transform="translate(-1078.92 -748.26)"/><path class="cls-2" d="M1114.5,770.62h.24a2.29,2.29,0,0,0,2.29-2.29,2.35,2.35,0,0,0-.67-1.62,2.41,2.41,0,0,0-1.62-.67h-.24a2.29,2.29,0,0,0-1.62,3.91A2.37,2.37,0,0,0,1114.5,770.62Z" transform="translate(-1078.92 -748.26)"/><path class="cls-2" d="M1104.6,800.71a20.64,20.64,0,0,1,4.67,3c.42.39,1.58,1.23,1.53,1.88s-1,1.16-1.56,1.5c-2.49,1.56-.2,5.52,2.29,4,2.68-1.68,4.8-4.23,3.32-7.53-1.4-3.13-5-5.34-8-6.81-2.64-1.31-5,2.64-2.29,4Z" transform="translate(-1078.92 -748.26)"/><path class="cls-2" d="M1094.42,805.51a3.77,3.77,0,0,1,.92-2.33c.22-.2.79-.54,1.09-.29a2.36,2.36,0,0,0,3.24,0,2.31,2.31,0,0,0,0-3.24,5.49,5.49,0,0,0-6.28-.67,7.18,7.18,0,0,0-3.4,5.32,2.36,2.36,0,0,0,1.6,2.81,2.31,2.31,0,0,0,2.82-1.6Z" transform="translate(-1078.92 -748.26)"/><path class="cls-2" d="M1109,793.36a1.38,1.38,0,0,0,0-2.75A1.38,1.38,0,0,0,1109,793.36Z" transform="translate(-1078.92 -748.26)"/><path class="cls-2" d="M1114.26,795.29a.92.92,0,0,0,0-1.83A.92.92,0,0,0,1114.26,795.29Z" transform="translate(-1078.92 -748.26)"/><path class="cls-2" d="M1117.13,772.35a.92.92,0,0,0,0-1.83A.92.92,0,0,0,1117.13,772.35Z" transform="translate(-1078.92 -748.26)"/><path class="cls-2" d="M1109.48,774.72a1.38,1.38,0,0,0,0-2.75A1.38,1.38,0,0,0,1109.48,774.72Z" transform="translate(-1078.92 -748.26)"/><path class="cls-2" d="M1162.29,776.12c3,0,3-4.58,0-4.58S1159.34,776.12,1162.29,776.12Z" transform="translate(-1078.92 -748.26)"/><path class="cls-2" d="M1157.75,769.23a1.38,1.38,0,0,0,0-2.75A1.38,1.38,0,0,0,1157.75,769.23Z" transform="translate(-1078.92 -748.26)"/><path class="cls-2" d="M1157.27,773.56a.69.69,0,1,0-.69-.69A.69.69,0,0,0,1157.27,773.56Z" transform="translate(-1078.92 -748.26)"/></svg>