<svg id="meteor" xmlns="http://www.w3.org/2000/svg" viewBox="0 0 1394.18 625.11"><defs><style>.cls-1{fill:#3e3f4c;}.cls-2{fill:#23242d;}</style></defs><title>Meteor1</title><path class="cls-1" d="M1614.8,1036.38a90.73,90.73,0,0,0-15,6.89q-3.54,2-6.88,4.41c-2.17,1.55-4.49,3.14-5.88,5.6-3,5.38.7,12.37,2.42,17.57l6.14,18.61c1,3.18,4.85,4.79,7.24,2.07,8.44-9.64,22.34-3.58,31.82.43,5.86,2.48,14.27,7.38,19.4,1,4.19-5.23,7.35-11.92,10-18.16a115,115,0,0,0,7.22-23.48c.63-3.28-2-7-5.32-5.77a6.42,6.42,0,0,1-6-.63c-2.25-1.48-2.9-3.89-3.47-6.56a52.68,52.68,0,0,0-3.23-11c-1.45-3.28-3.47-7.29-6.93-8.44s-6.49.74-9,3.28a15.4,15.4,0,0,1-5.69,3.83c-5.13,1.92-10.64,2.89-14.84,6.92a18.84,18.84,0,0,0-3.07,4.15,13.92,13.92,0,0,1-.75,1.31c-.48.62-.06.29-.6.2-4-.68-8.14-2.51-11.83-4.22-2.86-1.34-6.56.16-6.49,4.05q.18,14.19.87,28.35c.29,6,8.94,6,8.65,0q-.67-14.16-.86-28.35l-6.52,4a85.13,85.13,0,0,0,11.2,4.42c3.89,1.19,8.14,2,11.34-1.41,1.67-1.84,2.64-4.65,4.35-6,2-1.62,4.4-2.26,6.78-3a45.9,45.9,0,0,0,8.19-3.2,18.37,18.37,0,0,0,3.64-2.64c.31-.28,2.81-2.4,2.77-2.67s-1,0-1-.17a10.78,10.78,0,0,0,1.3,2.24,28.72,28.72,0,0,1,2.06,5c1.11,3.75,1.4,7.65,3,11.24,3.12,7.26,11.53,10.89,18.46,8.37l-5.32-5.77a105,105,0,0,1-5.58,19.39c-2.6,6.43-6,12.1-9.43,18-.51.9-.1.71-1.16.47a41.42,41.42,0,0,1-4.76-1.68c-3.17-1.23-6.29-2.64-9.45-3.91-5.79-2.35-11.86-4.22-18.09-4-6.61.21-13.18,2.54-17.8,7.83l7.23,2.06-5.16-15.61-2.57-7.79c-.44-1.28-.87-2.55-1.26-3.83a6,6,0,0,1-.44-1.5c0-1.08-.19.08,0-.26.63-1.35,2.91-2.34,4-3.13,1.93-1.32,3.9-2.56,5.93-3.71a78.16,78.16,0,0,1,12.65-5.75c5.27-1.87,3-10.92-2.3-9Z" transform="translate(-277.82 -471.89)"/><path class="cls-1" d="M1612.73,1038.67A119,119,0,0,0,1595,1056a5,5,0,0,0-.34,6.15c1.24,1.69,3.8,2.58,5.59,1.2a246.23,246.23,0,0,1,25.1-16.93l-5.25-7.35c-7.7,7.84-15.39,15.72-22,24.66-3.51,4.72,1.76,10.45,6.12,6.63l17.1-15c3.86-3.37-1.11-10.09-5.24-7.36a70.77,70.77,0,0,0-11.49,9.45,65.87,65.87,0,0,0-5.08,5.83c-1.7,2.21-3.46,4.56-3.06,7.63a5.89,5.89,0,0,0,5.63,5.3c2.45,0,4.43-1.5,6.36-2.94l13.79-10.31-4.37-8.1a95.19,95.19,0,0,0-21.51,23.73,5,5,0,0,0,.67,5.68,4.28,4.28,0,0,0,5.25.73c14.64-7,25.92-20.23,40.75-26.72l-3.34-8.54-31.92,23.52c-3.32,2.45-2.39,9,2.16,8.73,4.22-.19,7.71-2.24,11.26-4.55l10.87-7.2,21.78-14.36c4.77-3.13.49-11.1-4.36-8.09a322.79,322.79,0,0,0-35.2,25.31,5,5,0,0,0,0,8.1c3.3,2.7,7.47,1.3,10.82-.47,3.62-1.9,7.16-4,10.66-6.18q10.53-6.43,20.51-13.88c4.53-3.37.43-11.25-4.37-8.09a197.35,197.35,0,0,0-29.14,23.51c-1.88,1.83-1.38,4.72,0,6.62,5.3,7.29,14.33-2.59,18.62-6.14l19.45-16.18a5.08,5.08,0,0,0,1.55-6.42,4.2,4.2,0,0,0-5.92-1.68,96.75,96.75,0,0,0-25.49,25.5,4.93,4.93,0,0,0,0,4.73c4,7.41,12.12.65,16.19-2.87a51.36,51.36,0,0,0,11.68-15c2-3.87-2.21-9.19-5.92-6.42a42.06,42.06,0,0,0-15.89,24.84,5,5,0,0,0,2,5.3c5.48,3.93,11.5-4.64,14.56-8.64a69.82,69.82,0,0,0,9.3-16.17,5.22,5.22,0,0,0-.67-5.68c-1.25-1.35-3.74-2-5.25-.73a37.77,37.77,0,0,0-13.71,26.9c-.39,5.44,7.1,6.09,8.5,1.24,4-14,7.72-29.75.26-43.28-2.23-4-8-2.27-8.07,2.37l-.51,26.4a4.58,4.58,0,0,0,4.32,4.69c2.6,0,4-2.17,4.33-4.69,1.45-12.56,2.39-25.56-3.15-37.18-1.89-4-6.62-2.29-7.91,1.12a112.27,112.27,0,0,1-10.38,20.56l7.45,4.76,7.36-17c1.13-2.6,2.56-5.22,2.6-8.16a6.92,6.92,0,0,0-4.86-6.82c-5.5-1.47-9.6,4.72-12.8,8.44l-12.31,14.35,6.12,6.62,19.43-23.46c3.38-4.08-.82-9.59-5.25-7.36a86,86,0,0,0-22.38,16.45c-3.53,3.57,1.14,10.41,5.25,7.36a226,226,0,0,0,22.83-19.45c3.7-3.59-1-10-5.24-7.36a55.21,55.21,0,0,0-12.69,11.18c-3.36,4.07-7.62,9.51-8.65,15-.59,3.17.26,6.57,3,8.24s6.4.62,9.24-.32a34.23,34.23,0,0,0,14.53-9.57c2.87-3.15,0-9.49-4.21-7.83a59.82,59.82,0,0,0-21,13.92c-3.51,3.56,1.17,10.5,5.24,7.36q8.28-6.39,16.21-13.27l-6.77-5.68c-4.48,8.43-8.88,18.2-6,28.08a4.36,4.36,0,1,0,8.35-2.49c-2.16-7.35,1.78-14.67,5.07-20.86a5,5,0,0,0-1.11-6c-1.85-1.5-3.95-1.13-5.69.37q-7.07,6.12-14.45,11.81l5.24,7.35a49.73,49.73,0,0,1,17.15-11.5l-4.21-7.84a25.69,25.69,0,0,1-8.73,6.42,25,25,0,0,1-3,1c-.37.11-2.14.26-2.32.57s2.32,2.13,1.77,2.45a6,6,0,0,0,.3-1.13c.18-.47.84-1.59,1.19-2.22a47.06,47.06,0,0,1,15.82-17l-5.24-7.34a210,210,0,0,1-21.09,18l5.25,7.33a78.22,78.22,0,0,1,20.62-15l-5.24-7.37-19.43,23.47c-3.7,4.46,2.31,11.07,6.12,6.63l8.79-10.25,4.69-5.45a38.77,38.77,0,0,1,3.41-4,6.5,6.5,0,0,1,1.05-.68q1.2,1.58-2.68-2.51c.2-.16-.76,2.05-.57,1.62-1,2.22-1.92,4.42-2.88,6.63l-5.4,12.43c-2.37,5.46,4.29,9.74,7.47,4.73a122.6,122.6,0,0,0,11.26-22.79l-7.91,1.11c4.72,9.92,3.19,21.83,2,32.46h8.65l.52-26.41-8.07,2.35c6.17,11.18,2.17,24.62-1.12,36.06l8.5,1.25a27.33,27.33,0,0,1,9.42-18.81l-5.92-6.41a65.69,65.69,0,0,1-6.64,12.48,54.73,54.73,0,0,1-3.94,5c-.74.85-1.51,1.67-2.29,2.47-.35.36-.72.7-1.06,1.06-1.08,1.16.49.12-.56.33h2.31l.15.11,2,5.29a32.43,32.43,0,0,1,11.92-19.25l-5.92-6.41a44.19,44.19,0,0,1-7.43,10.36,35.69,35.69,0,0,1-4.25,3.82c-.86.65-1.73,1.28-2.63,1.86a7,7,0,0,0-.79.46c-.39.1-.34.13.16.11s.55,0,0-.16l1.91,1.2.12.22v4.76a84.87,84.87,0,0,1,22.38-22.14l-4.37-8.1-16.1,13.4-8,6.7c-1.11.94-2.17,1.9-3.35,2.74-.23.16-.87.37-1,.58q-.46.11-.12.09c1.37,1,1.73,1.08,1.05.29v6.63a185.64,185.64,0,0,1,27.39-22l-4.37-8.1q-8.67,6.44-17.71,12.14-4.54,2.85-9.17,5.51c-1.42.81-2.83,1.68-4.3,2.41-.43.21-1,.35-1.38.59a.59.59,0,0,1-.72.12c.67.26.68.17,0-.26v8.09a324.14,324.14,0,0,1,35.2-25.31l-4.37-8.08-20.34,13.39-10.13,6.67c-2.68,1.77-5.77,4.57-9,4.72l2.16,8.73,31.93-23.52a5,5,0,0,0,1.77-5.86c-.79-1.93-3.08-3.6-5.11-2.71-15.58,6.82-27.48,20.37-42.82,27.65l5.92,6.42a82.65,82.65,0,0,1,18.41-20.36,5.06,5.06,0,0,0,1.56-6.41c-1.12-2.06-4-3.13-5.93-1.69l-8.84,6.62-4.21,3.19-2.12,1.58c-1.68,1.22-.07-.24,1.32,1.34l1.11,2.07c-.29,1.15-.26,1.45.07.88.32-.41.63-.82,1-1.22.65-.82,1.3-1.61,2-2.39,1.18-1.37,2.42-2.67,3.71-3.92a57.57,57.57,0,0,1,8.66-6.89l-5.25-7.37-17.09,15,6.09,6.65c6.64-8.94,14.33-16.82,22-24.66,3.67-3.73-1-9.85-5.24-7.37a246.23,246.23,0,0,0-25.1,16.93l5.24,7.37a109,109,0,0,1,15.94-15.85,5.07,5.07,0,0,0,1.55-6.41c-1.09-2-4-3.19-5.92-1.68Z" transform="translate(-277.82 -471.89)"/><path class="cls-1" d="M1648.54,1070.4a34.79,34.79,0,0,0-4.88,12.43c-.7,3.75,3,7.66,6.35,5.29a20.21,20.21,0,0,0,8.48-15.61c.26-3.88-5-6.42-7.39-3.31a48.77,48.77,0,0,0-7.67,14.75c-1.59,5,5.84,8.44,7.91,3.61a62.22,62.22,0,0,0,4.6-27,131.32,131.32,0,0,0-1.51-14.68c-.35-2.37-.75-4.75-1.16-7.11-.36-2.12-.59-4.29-1.73-6.13-3.06-5-10.56-.32-7.48,4.73.68,1.11.75,3.32,1,4.78.36,2.07.7,4.15,1,6.22a108,108,0,0,1,1.2,12.19c.28,7.55-.43,15.32-3.41,22.25l7.9,3.61a35.74,35.74,0,0,1,5.45-10.62l-7.39-3.31a10.1,10.1,0,0,1-4.18,7.5l6.35,5.29a27.58,27.58,0,0,1,4-10.19,5,5,0,0,0-1.56-6.41c-2.16-1.37-4.58-.41-5.92,1.68Z" transform="translate(-277.82 -471.89)"/><path class="cls-2" d="M1650.48,1023.93l6.3,18.41c.87,2.47,3,6.35,1.94,8.9a85.83,85.83,0,0,1-4.55,8.11c-.87,1.54,1.37,3,2.24,1.4,1.6-2.85,3.42-5.67,4.84-8.63,1.27-2.66-.19-5.33-1.07-7.89l-7.19-21a1.31,1.31,0,1,0-2.51.74Z" transform="translate(-277.82 -471.89)"/><path class="cls-2" d="M1660.37,1047.35c1.91.47,3.46,0,5.33-.38,1.07-.2,2.59-.53,3.35.67.61,1,.23,2.52,0,3.54a97.15,97.15,0,0,1-3.31,12.51,113.62,113.62,0,0,1-10.61,23.36c-1,1.7-2.06,3.41-3.19,5-1.65,2.34-4,2-6.49,1.81-4.29-.38-9.71-1.43-13-4.59-3.09-2.93-5.86-6.21-9-9.08a120,120,0,0,0-9.61-7.91c-1.38-1-2.68,1.41-1.29,2.43a116.67,116.67,0,0,1,9.67,8c2.93,2.72,5.54,5.77,8.41,8.54,2.7,2.59,6.33,3.79,9.79,4.6,3.12.74,7.41,1.71,10.51.63,2.84-1,4.58-4.86,6.1-7.37a112.33,112.33,0,0,0,5.67-10.55,118.48,118.48,0,0,0,7.84-21.93c.79-3.16,2.62-8.05.43-11-2.65-3.51-6.63-.25-9.87-1.06-1.62-.41-2.32,2.3-.68,2.71Z" transform="translate(-277.82 -471.89)"/><path class="cls-2" d="M1630.06,1087.65c-5.73-.78-11.45-1.61-17.18-2.32-2.3-.29-4.6-.38-6.71.76s-4.19,3.28-6.14,5c-1.3,1.12.54,3.09,1.84,2,1.81-1.55,3.68-3.61,5.82-4.59,2.35-1.08,5.23-.31,7.68,0l14.71,2c1.66.22,1.64-2.59,0-2.81Z" transform="translate(-277.82 -471.89)"/><path class="cls-2" d="M1601.27,1090.41l-3,.64,1.26.36c-5.55-6-6.86-14.47-9.12-22.24-1.1-3.78-3.36-7.64-2.94-11.72a11.13,11.13,0,0,1,5.19-8.41c1-.61,2.11-1.09,2.54-2.38.54-1.67,0-3.79-.07-5.51,0-1-.25-2.7.1-3.61.49-1.26,1.52-1.35,2.6-1.45,1.73-.15,4.39-.66,6,.2,1.21.66,2.11,2,3.3,2.75a22.74,22.74,0,0,0,3.38,1.7c2.72,1.16,5.88,2,7.74,4.68,1,1.41,3.25,0,2.24-1.4-3.46-4.93-9.49-4.72-13.57-8.59a6.76,6.76,0,0,0-2.86-2.08,17,17,0,0,0-5.46-.1c-2.94.2-5.58.17-5.92,3.87a41.54,41.54,0,0,0,0,6.31c.09,1.3.08,2.24-1,3.06-.58.44-1.22.75-1.8,1.22a14.06,14.06,0,0,0-4.5,7.17,15.17,15.17,0,0,0,.63,9.32c1.49,4.1,2.62,8.25,3.76,12.47a52.37,52.37,0,0,0,4.25,11.59,20.16,20.16,0,0,0,3.46,4.9c1.3,1.22,3,.33,4.55,0s.94-3.06-.69-2.71Z" transform="translate(-277.82 -471.89)"/><path class="cls-2" d="M1611.08,1039.69a20.43,20.43,0,0,0,4.36-3c1.44-1.31,2.51-3.08,4.19-4,3.86-2.21,8.22-3.75,12.24-5.59,3.12-1.41,6.17-2.72,8.66-5.27,1.57-1.62,3.23-2.6,5.45-1.78a7.6,7.6,0,0,1,4,4.39c.72,1.64,3,.21,2.24-1.4-1.49-3.41-4.4-6.17-8-6.1a6.71,6.71,0,0,0-4.33,1.75,26,26,0,0,1-5.43,4.22c-4.67,2.34-9.5,4.36-14.25,6.52a13,13,0,0,0-4.81,3.53,18.4,18.4,0,0,1-5.56,4.36c-1.51.78-.19,3.21,1.3,2.43Z" transform="translate(-277.82 -471.89)"/><path class="cls-2" d="M1596.85,1069.21c1.87-.16,3.29,2.13,3.8,3.8a7.36,7.36,0,0,1-.71,5.79c-.84,1.57,1.4,3,2.24,1.4a10.41,10.41,0,0,0,.58-9c-1-2.45-3.24-5-5.91-4.76-1.66.14-1.68,2.95,0,2.82Z" transform="translate(-277.82 -471.89)"/><path class="cls-2" d="M1634.74,1029.63c1.53,3.28,3.4,7.45,7,8.32s6.59-2.39,9.27-4.6c1.3-1.09,0-3.53-1.3-2.43-2,1.62-4.25,4.56-6.92,4.35-3-.23-4.65-4.54-5.83-7-.76-1.61-3-.19-2.24,1.41Z" transform="translate(-277.82 -471.89)"/><path class="cls-2" d="M1642.58,1048.48c1.28.09,1.92,1.72,2.17,2.86.12.53.56,3.14-.12,3.44-1.53.68-.87,3.4.69,2.72,2.4-1.06,2.5-4.18,2-6.61-.53-2.63-2.11-5-4.76-5.22-1.67-.11-1.66,2.7,0,2.81Z" transform="translate(-277.82 -471.89)"/><path class="cls-2" d="M1641.63,1085.14a4.48,4.48,0,0,1,5.88-.85c1.44.91,2.75-1.51,1.3-2.43a7,7,0,0,0-9,1.29c-1.18,1.28.66,3.28,1.84,2Z" transform="translate(-277.82 -471.89)"/><path class="cls-2" d="M1622.43,1057.5c1.67,0,1.68-2.81,0-2.81S1620.75,1057.5,1622.43,1057.5Z" transform="translate(-277.82 -471.89)"/><path class="cls-2" d="M1619.21,1067.29c3.06,0,3.07-5.15,0-5.15S1616.14,1067.29,1619.21,1067.29Z" transform="translate(-277.82 -471.89)"/><path class="cls-2" d="M1623.11,1061.92c1.67,0,1.67-2.81,0-2.81S1621.43,1061.92,1623.11,1061.92Z" transform="translate(-277.82 -471.89)"/><path class="cls-2" d="M1626.33,1057.35a.71.71,0,0,0,0-1.41h0a.71.71,0,0,0,0,1.41Z" transform="translate(-277.82 -471.89)"/><path class="cls-2" d="M1611.59,1060.83a.67.67,0,0,0,.65-.7.65.65,0,1,0-1.3,0A.67.67,0,0,0,1611.59,1060.83Z" transform="translate(-277.82 -471.89)"/><path class="cls-2" d="M1604.31,1083a.7.7,0,1,0-.65-.7A.67.67,0,0,0,1604.31,1083Z" transform="translate(-277.82 -471.89)"/><path class="cls-2" d="M1606.17,1075.52a.68.68,0,0,0,.65-.71.65.65,0,1,0-1.3,0A.68.68,0,0,0,1606.17,1075.52Z" transform="translate(-277.82 -471.89)"/><path class="cls-2" d="M1611.08,1080.27a.7.7,0,0,0,0-1.4h0a.7.7,0,0,0,0,1.4Z" transform="translate(-277.82 -471.89)"/><path class="cls-2" d="M1601.26,1042.86a.67.67,0,0,0,.65-.7.65.65,0,1,0-1.3,0A.67.67,0,0,0,1601.26,1042.86Z" transform="translate(-277.82 -471.89)"/><path class="cls-2" d="M1597.78,1052.25l.67-1.11a.73.73,0,0,0-.26-1,.62.62,0,0,0-.86.25l-.68,1.1a.74.74,0,0,0,.24,1A.63.63,0,0,0,1597.78,1052.25Z" transform="translate(-277.82 -471.89)"/><path class="cls-2" d="M1609.56,1047.63a.71.71,0,0,0,0-1.41h0a.71.71,0,0,0,0,1.41Z" transform="translate(-277.82 -471.89)"/><path class="cls-2" d="M1630.39,1029.65a.7.7,0,0,0,0-1.4h0a.7.7,0,0,0,0,1.4Z" transform="translate(-277.82 -471.89)"/><path class="cls-2" d="M1633.61,1043.77a.7.7,0,0,0,0-1.4h0a.7.7,0,0,0,0,1.4Z" transform="translate(-277.82 -471.89)"/><path class="cls-2" d="M1648,1043.41a.71.71,0,1,0-.65-.7A.69.69,0,0,0,1648,1043.41Z" transform="translate(-277.82 -471.89)"/><path class="cls-2" d="M1654.1,1045.61a.7.7,0,1,0-.65-.7A.67.67,0,0,0,1654.1,1045.61Z" transform="translate(-277.82 -471.89)"/><path class="cls-2" d="M1635.3,1084a.7.7,0,1,0-.65-.7A.67.67,0,0,0,1635.3,1084Z" transform="translate(-277.82 -471.89)"/><path class="cls-2" d="M1636,1090.91a.7.7,0,1,0-.65-.7A.67.67,0,0,0,1636,1090.91Z" transform="translate(-277.82 -471.89)"/><path class="cls-2" d="M1647.65,1093.11a.67.67,0,0,0,.65-.7.65.65,0,1,0-1.3,0A.67.67,0,0,0,1647.65,1093.11Z" transform="translate(-277.82 -471.89)"/><path class="cls-2" d="M1663.59,1060.65a.71.71,0,1,0-.65-.7A.68.68,0,0,0,1663.59,1060.65Z" transform="translate(-277.82 -471.89)"/><path class="cls-2" d="M1646.48,1067.62h.17a.71.71,0,0,0,0-1.41h-.17a.71.71,0,0,0,0,1.41Z" transform="translate(-277.82 -471.89)"/><path class="cls-2" d="M1648.34,1066.47a.47.47,0,0,0,0-.94.47.47,0,0,0,0,.94Z" transform="translate(-277.82 -471.89)"/><path class="cls-2" d="M1649.19,1070.69a.47.47,0,1,0-.43-.47A.45.45,0,0,0,1649.19,1070.69Z" transform="translate(-277.82 -471.89)"/><path class="cls-2" d="M1635.64,1045.19a.47.47,0,1,0-.43-.47A.45.45,0,0,0,1635.64,1045.19Z" transform="translate(-277.82 -471.89)"/><path class="cls-2" d="M1632.42,1032.91a.47.47,0,1,0-.43-.47A.46.46,0,0,0,1632.42,1032.91Z" transform="translate(-277.82 -471.89)"/><path class="cls-2" d="M1627.17,1034.19a.47.47,0,0,0,0-.94.47.47,0,0,0,0,.94Z" transform="translate(-277.82 -471.89)"/><path class="cls-2" d="M1608,1077.66a.47.47,0,0,0,0-.94.47.47,0,0,0,0,.94Z" transform="translate(-277.82 -471.89)"/><path class="cls-2" d="M1641.4,1090.86a.47.47,0,1,0-.43-.47A.45.45,0,0,0,1641.4,1090.86Z" transform="translate(-277.82 -471.89)"/><path class="cls-2" d="M1650.37,1089.94a.47.47,0,0,0,0-.94.47.47,0,0,0,0,.94Z" transform="translate(-277.82 -471.89)"/><path class="cls-2" d="M1637.51,1088.11a.47.47,0,1,0-.44-.47A.46.46,0,0,0,1637.51,1088.11Z" transform="translate(-277.82 -471.89)"/><path class="cls-2" d="M1664.09,1054.55a.47.47,0,1,0-.43-.47A.46.46,0,0,0,1664.09,1054.55Z" transform="translate(-277.82 -471.89)"/><path class="cls-2" d="M1662.74,1058.58a.47.47,0,1,0-.43-.47A.45.45,0,0,0,1662.74,1058.58Z" transform="translate(-277.82 -471.89)"/><path class="cls-2" d="M1604.31,1044.11a.47.47,0,0,0,0-.94.47.47,0,0,0,0,.94Z" transform="translate(-277.82 -471.89)"/><path class="cls-2" d="M1599.39,1047a.47.47,0,1,0-.43-.47A.46.46,0,0,0,1599.39,1047Z" transform="translate(-277.82 -471.89)"/><path class="cls-2" d="M1602.63,1047.78c1.67,0,1.67-2.81,0-2.81S1601,1047.78,1602.63,1047.78Z" transform="translate(-277.82 -471.89)"/><path class="cls-2" d="M1597.53,1053.1c1.67,0,1.67-2.81,0-2.81S1595.86,1053.1,1597.53,1053.1Z" transform="translate(-277.82 -471.89)"/><path class="cls-2" d="M1605,1072.17c1.68,0,1.68-2.81,0-2.81S1603.31,1072.17,1605,1072.17Z" transform="translate(-277.82 -471.89)"/><path class="cls-2" d="M1601.43,1086.11c1.67,0,1.67-2.81,0-2.81S1599.75,1086.11,1601.43,1086.11Z" transform="translate(-277.82 -471.89)"/><path class="cls-2" d="M1644.62,1089.41c1.67,0,1.67-2.81,0-2.81S1642.94,1089.41,1644.62,1089.41Z" transform="translate(-277.82 -471.89)"/><path class="cls-2" d="M1650.88,1067.77c1.68,0,1.68-2.81,0-2.81S1649.21,1067.77,1650.88,1067.77Z" transform="translate(-277.82 -471.89)"/><path class="cls-2" d="M1651.22,1039.16c1.67,0,1.68-2.81,0-2.81S1649.55,1039.16,1651.22,1039.16Z" transform="translate(-277.82 -471.89)"/><path class="cls-2" d="M1631.91,1038.61c1.67,0,1.68-2.81,0-2.81S1630.24,1038.61,1631.91,1038.61Z" transform="translate(-277.82 -471.89)"/><path class="cls-2" d="M1664.66,1051.14v.19a1.3,1.3,0,1,0,2.59,0v-.19a1.3,1.3,0,1,0-2.59,0Z" transform="translate(-277.82 -471.89)"/><path class="cls-1" d="M307.8,491.38a90.73,90.73,0,0,0-15.05,6.89q-3.54,2-6.88,4.41c-2.17,1.55-4.49,3.14-5.88,5.6-3,5.38.7,12.37,2.42,17.57l6.14,18.61c1.05,3.18,4.85,4.79,7.24,2.07,8.44-9.64,22.34-3.58,31.82.43,5.86,2.48,14.27,7.38,19.4,1,4.19-5.23,7.35-11.92,10.05-18.16a115,115,0,0,0,7.22-23.48c.63-3.28-2-7-5.32-5.77a6.42,6.42,0,0,1-6-.63c-2.25-1.48-2.9-3.89-3.47-6.56a52.68,52.68,0,0,0-3.23-11c-1.45-3.28-3.47-7.29-6.93-8.44s-6.49.74-9,3.28a15.4,15.4,0,0,1-5.69,3.83c-5.13,1.92-10.64,2.89-14.84,6.92a18.84,18.84,0,0,0-3.07,4.15,13.92,13.92,0,0,1-.75,1.31c-.48.62-.06.29-.6.2-4-.68-8.14-2.51-11.83-4.22-2.86-1.34-6.56.16-6.49,4.05q.18,14.19.87,28.35c.29,6,8.94,6,8.65,0q-.68-14.16-.86-28.35l-6.52,4.05a85.13,85.13,0,0,0,11.2,4.42c3.89,1.19,8.14,2,11.34-1.41,1.67-1.84,2.64-4.65,4.35-6.05,2-1.62,4.4-2.26,6.78-3a45.9,45.9,0,0,0,8.19-3.2,18.37,18.37,0,0,0,3.64-2.64c.31-.28,2.81-2.4,2.77-2.67s-1,.05-.95-.17a10.78,10.78,0,0,0,1.3,2.24,28.72,28.72,0,0,1,2.06,5c1.11,3.75,1.4,7.65,2.95,11.24,3.12,7.26,11.53,10.89,18.46,8.37l-5.32-5.77a105,105,0,0,1-5.58,19.39c-2.6,6.43-6,12.1-9.43,18-.51.9-.1.71-1.16.47a41.42,41.42,0,0,1-4.76-1.68c-3.17-1.23-6.29-2.64-9.45-3.91-5.79-2.35-11.86-4.22-18.09-4-6.61.21-13.18,2.54-17.8,7.83L296.9,542l-5.16-15.61-2.57-7.79c-.44-1.28-.87-2.55-1.26-3.83a6,6,0,0,1-.44-1.5c0-1.08-.19.08,0-.26.63-1.35,2.91-2.34,4.05-3.13,1.93-1.32,3.9-2.56,5.93-3.71a78.16,78.16,0,0,1,12.65-5.75c5.27-1.87,3-10.92-2.3-9Z" transform="translate(-277.82 -471.89)"/><path class="cls-1" d="M305.73,493.67A119,119,0,0,0,288,511a5,5,0,0,0-.34,6.15c1.24,1.69,3.8,2.58,5.59,1.2a246.23,246.23,0,0,1,25.1-16.93l-5.25-7.35c-7.7,7.84-15.39,15.72-22,24.66-3.51,4.72,1.76,10.45,6.12,6.63l17.1-15c3.86-3.37-1.11-10.09-5.24-7.36a70.77,70.77,0,0,0-11.49,9.45,65.87,65.87,0,0,0-5.08,5.83c-1.7,2.21-3.46,4.56-3.06,7.63a5.89,5.89,0,0,0,5.63,5.3c2.45,0,4.43-1.5,6.36-2.94L315.24,518l-4.37-8.1a95.19,95.19,0,0,0-21.51,23.73,5,5,0,0,0,.67,5.68,4.28,4.28,0,0,0,5.25.73c14.64-7,25.92-20.23,40.75-26.72l-3.34-8.54-31.92,23.52c-3.32,2.45-2.39,9,2.16,8.73,4.22-.19,7.71-2.24,11.26-4.55l10.87-7.2,21.78-14.36c4.77-3.13.49-11.1-4.36-8.09a322.79,322.79,0,0,0-35.2,25.31,5,5,0,0,0,0,8.1c3.3,2.7,7.47,1.3,10.82-.47,3.62-1.9,7.16-4,10.66-6.18q10.53-6.43,20.51-13.88c4.53-3.37.43-11.25-4.37-8.09a197.35,197.35,0,0,0-29.14,23.51c-1.88,1.83-1.38,4.72,0,6.62,5.3,7.29,14.33-2.59,18.62-6.14l19.45-16.18a5.08,5.08,0,0,0,1.55-6.42,4.2,4.2,0,0,0-5.92-1.68A96.75,96.75,0,0,0,324,532.79a4.93,4.93,0,0,0,0,4.73c4,7.41,12.12.65,16.19-2.87a51.36,51.36,0,0,0,11.68-15c2-3.87-2.21-9.19-5.92-6.42A42.06,42.06,0,0,0,330,538.08a5,5,0,0,0,2,5.3c5.48,3.93,11.5-4.64,14.56-8.64a69.82,69.82,0,0,0,9.3-16.17,5.22,5.22,0,0,0-.67-5.68c-1.25-1.35-3.74-2-5.25-.73a37.77,37.77,0,0,0-13.71,26.9c-.39,5.44,7.1,6.09,8.5,1.24,4.05-14,7.72-29.75.26-43.28-2.23-4-8-2.27-8.07,2.37l-.51,26.4a4.58,4.58,0,0,0,4.32,4.69c2.6,0,4-2.17,4.33-4.69,1.45-12.56,2.39-25.56-3.15-37.18-1.89-4-6.62-2.29-7.91,1.12a112.27,112.27,0,0,1-10.38,20.56l7.45,4.76,7.36-17c1.13-2.6,2.56-5.22,2.6-8.16a6.92,6.92,0,0,0-4.86-6.82c-5.5-1.47-9.6,4.72-12.8,8.44l-12.31,14.35,6.12,6.62L336.63,489c3.38-4.08-.82-9.59-5.25-7.36A86,86,0,0,0,309,498.13c-3.53,3.57,1.14,10.41,5.25,7.36A226,226,0,0,0,337.08,486c3.7-3.59-1.05-10-5.24-7.36a55.21,55.21,0,0,0-12.69,11.18c-3.36,4.07-7.62,9.51-8.65,15-.59,3.17.26,6.57,3,8.24s6.4.62,9.24-.32a34.23,34.23,0,0,0,14.53-9.57c2.87-3.15,0-9.49-4.21-7.83a59.82,59.82,0,0,0-21,13.92c-3.51,3.56,1.17,10.5,5.24,7.36q8.28-6.39,16.21-13.27l-6.77-5.68c-4.48,8.43-8.88,18.2-5.95,28.08a4.36,4.36,0,1,0,8.35-2.49c-2.16-7.35,1.78-14.67,5.07-20.86a5,5,0,0,0-1.11-6.05c-1.85-1.5-3.95-1.13-5.69.37q-7.06,6.12-14.45,11.81l5.24,7.35a49.73,49.73,0,0,1,17.15-11.5l-4.21-7.84a25.69,25.69,0,0,1-8.73,6.42,25,25,0,0,1-3,1.05c-.37.11-2.14.26-2.32.57s2.32,2.13,1.77,2.45a6,6,0,0,0,.3-1.13c.18-.47.84-1.59,1.19-2.22a47.06,47.06,0,0,1,15.82-17L331,479.43a210,210,0,0,1-21.09,18l5.25,7.33a78.22,78.22,0,0,1,20.62-15l-5.24-7.37-19.43,23.47c-3.7,4.46,2.31,11.07,6.12,6.63L326,502.22l4.69-5.45a38.77,38.77,0,0,1,3.41-4,6.5,6.5,0,0,1,1-.68q1.2,1.58-2.68-2.51c.2-.16-.76,2-.57,1.62-.95,2.22-1.92,4.42-2.88,6.63l-5.4,12.43c-2.37,5.46,4.29,9.74,7.47,4.73a122.6,122.6,0,0,0,11.26-22.79l-7.91,1.11c4.72,9.92,3.19,21.83,2,32.46h8.65l.52-26.41-8.07,2.35c6.17,11.18,2.17,24.62-1.12,36.06l8.5,1.25a27.33,27.33,0,0,1,9.42-18.81l-5.92-6.41a65.69,65.69,0,0,1-6.64,12.48,54.73,54.73,0,0,1-3.94,5c-.74.85-1.51,1.67-2.29,2.47-.35.36-.72.7-1.06,1.06-1.08,1.16.49.12-.56.33h2.31l.15.11,2,5.29a32.43,32.43,0,0,1,11.92-19.25l-5.92-6.41a44.19,44.19,0,0,1-7.43,10.36,35.69,35.69,0,0,1-4.25,3.82c-.86.65-1.73,1.28-2.63,1.86a7,7,0,0,0-.79.46c-.39.1-.34.13.16.11s.55,0,0-.16l1.91,1.2.12.22v4.76a84.87,84.87,0,0,1,22.38-22.14l-4.37-8.1-16.1,13.4-8.05,6.7c-1.11.94-2.17,1.9-3.35,2.74-.23.16-.87.37-1,.58q-.46.1-.12.09c1.37,1,1.73,1.08,1.05.29v6.63a185.64,185.64,0,0,1,27.39-22l-4.37-8.1q-8.67,6.43-17.71,12.14-4.54,2.85-9.17,5.51c-1.42.81-2.83,1.68-4.3,2.41-.43.21-1,.35-1.38.59a.59.59,0,0,1-.72.12c.67.26.68.17,0-.26v8.09a324.14,324.14,0,0,1,35.2-25.31l-4.37-8.08-20.34,13.39L312,522.88c-2.68,1.77-5.77,4.57-9,4.72l2.16,8.73,31.93-23.52a5,5,0,0,0,1.77-5.86c-.79-1.93-3.08-3.6-5.11-2.71-15.58,6.82-27.48,20.37-42.82,27.65l5.92,6.42A82.65,82.65,0,0,1,315.22,518a5.06,5.06,0,0,0,1.56-6.41c-1.12-2.06-4-3.13-5.93-1.69L302,516.47l-4.21,3.19-2.12,1.58c-1.68,1.22-.07-.24,1.32,1.34l1.11,2.07c-.29,1.15-.26,1.45.07.88.32-.41.63-.82.95-1.22.65-.82,1.3-1.61,2-2.39,1.18-1.37,2.42-2.67,3.71-3.92a57.57,57.57,0,0,1,8.66-6.89l-5.25-7.37-17.09,15,6.09,6.65c6.64-8.94,14.33-16.82,22-24.66,3.67-3.73-1-9.85-5.24-7.37a246.23,246.23,0,0,0-25.1,16.93l5.24,7.37a109,109,0,0,1,15.94-15.85,5.07,5.07,0,0,0,1.55-6.41c-1.09-2-4-3.19-5.92-1.68Z" transform="translate(-277.82 -471.89)"/><path class="cls-1" d="M341.54,525.4a34.79,34.79,0,0,0-4.88,12.43c-.7,3.75,3,7.66,6.35,5.29a20.21,20.21,0,0,0,8.48-15.61c.26-3.88-5-6.42-7.39-3.31A48.77,48.77,0,0,0,336.43,539c-1.59,5,5.84,8.44,7.91,3.61a62.22,62.22,0,0,0,4.6-27,131.32,131.32,0,0,0-1.51-14.68c-.35-2.37-.75-4.75-1.16-7.11-.36-2.12-.59-4.29-1.73-6.13-3.06-5-10.56-.32-7.48,4.73.68,1.11.75,3.32,1,4.78.36,2.07.7,4.15,1,6.22a108,108,0,0,1,1.2,12.19c.28,7.55-.43,15.32-3.41,22.25l7.9,3.61a35.74,35.74,0,0,1,5.45-10.62l-7.39-3.31a10.1,10.1,0,0,1-4.18,7.5L345,540.3a27.58,27.58,0,0,1,4-10.19,5,5,0,0,0-1.56-6.41c-2.16-1.37-4.58-.41-5.92,1.68Z" transform="translate(-277.82 -471.89)"/><path class="cls-2" d="M343.48,478.93l6.3,18.41c.87,2.47,3,6.35,1.94,8.9a85.83,85.83,0,0,1-4.55,8.11c-.87,1.54,1.37,3,2.24,1.4,1.6-2.85,3.42-5.67,4.84-8.63,1.27-2.66-.19-5.33-1.07-7.89l-7.19-21a1.31,1.31,0,1,0-2.51.74Z" transform="translate(-277.82 -471.89)"/><path class="cls-2" d="M353.37,502.35c1.91.47,3.46,0,5.33-.38,1.07-.2,2.59-.53,3.35.67.61,1,.23,2.52,0,3.54a97.15,97.15,0,0,1-3.31,12.51,113.62,113.62,0,0,1-10.61,23.36c-1,1.7-2.06,3.41-3.19,5-1.65,2.34-4,2-6.49,1.81-4.29-.38-9.71-1.43-13-4.59-3.09-2.93-5.86-6.21-9-9.08a120,120,0,0,0-9.61-7.91c-1.38-1-2.68,1.41-1.29,2.43a116.67,116.67,0,0,1,9.67,8c2.93,2.72,5.54,5.77,8.41,8.54,2.7,2.59,6.33,3.79,9.79,4.6,3.12.74,7.41,1.71,10.51.63,2.84-1,4.58-4.86,6.1-7.37a112.33,112.33,0,0,0,5.67-10.55,118.48,118.48,0,0,0,7.84-21.93c.79-3.16,2.62-8.05.43-11-2.65-3.51-6.63-.25-9.87-1.06-1.62-.41-2.32,2.3-.68,2.71Z" transform="translate(-277.82 -471.89)"/><path class="cls-2" d="M323.06,542.65c-5.73-.78-11.45-1.61-17.18-2.32-2.3-.29-4.6-.38-6.71.76s-4.19,3.28-6.14,5c-1.3,1.12.54,3.09,1.84,2,1.81-1.55,3.68-3.61,5.82-4.59,2.35-1.08,5.23-.31,7.68,0l14.71,2c1.66.22,1.64-2.59,0-2.81Z" transform="translate(-277.82 -471.89)"/><path class="cls-2" d="M294.27,545.41l-3,.64,1.26.36c-5.55-6-6.86-14.47-9.12-22.24-1.1-3.78-3.36-7.64-2.94-11.72a11.13,11.13,0,0,1,5.19-8.41c1-.61,2.11-1.09,2.54-2.38.54-1.67,0-3.79-.07-5.51,0-1-.25-2.7.1-3.61.49-1.26,1.52-1.35,2.6-1.45,1.73-.15,4.39-.66,6,.2,1.21.66,2.11,2,3.3,2.75a22.74,22.74,0,0,0,3.38,1.7c2.72,1.16,5.88,2,7.74,4.68,1,1.41,3.25,0,2.24-1.4-3.46-4.93-9.49-4.72-13.57-8.59a6.76,6.76,0,0,0-2.86-2.08,17,17,0,0,0-5.46-.1c-2.94.2-5.58.17-5.92,3.87a41.54,41.54,0,0,0,0,6.31c.09,1.3.08,2.24-1,3.06-.58.44-1.22.75-1.8,1.22a14.06,14.06,0,0,0-4.5,7.17,15.17,15.17,0,0,0,.63,9.32c1.49,4.1,2.62,8.25,3.76,12.47a52.37,52.37,0,0,0,4.25,11.59,20.16,20.16,0,0,0,3.46,4.9c1.3,1.22,3,.33,4.55,0s.94-3.06-.69-2.71Z" transform="translate(-277.82 -471.89)"/><path class="cls-2" d="M304.08,494.69a20.43,20.43,0,0,0,4.36-3c1.44-1.31,2.51-3.08,4.19-4,3.86-2.21,8.22-3.75,12.24-5.59,3.12-1.41,6.17-2.72,8.66-5.27,1.57-1.62,3.23-2.6,5.45-1.78a7.6,7.6,0,0,1,4,4.39c.72,1.64,3,.21,2.24-1.4-1.49-3.41-4.4-6.17-8-6.1a6.71,6.71,0,0,0-4.33,1.75,26,26,0,0,1-5.43,4.22c-4.67,2.34-9.5,4.36-14.25,6.52a13,13,0,0,0-4.81,3.53,18.4,18.4,0,0,1-5.56,4.36c-1.51.78-.19,3.21,1.3,2.43Z" transform="translate(-277.82 -471.89)"/><path class="cls-2" d="M289.85,524.21c1.87-.16,3.29,2.13,3.8,3.8a7.36,7.36,0,0,1-.71,5.79c-.84,1.57,1.4,3,2.24,1.4a10.41,10.41,0,0,0,.58-9c-1-2.45-3.24-5-5.91-4.76-1.66.14-1.68,3,0,2.82Z" transform="translate(-277.82 -471.89)"/><path class="cls-2" d="M327.74,484.63c1.53,3.28,3.4,7.45,7.05,8.32s6.59-2.39,9.27-4.6c1.3-1.09,0-3.53-1.3-2.43-1.95,1.62-4.25,4.56-6.92,4.35-3-.23-4.65-4.54-5.83-7-.76-1.61-3-.19-2.24,1.41Z" transform="translate(-277.82 -471.89)"/><path class="cls-2" d="M335.58,503.48c1.28.09,1.92,1.72,2.17,2.86.12.53.56,3.14-.12,3.44-1.53.68-.87,3.4.69,2.72,2.4-1.06,2.5-4.18,2-6.61-.53-2.63-2.11-5-4.76-5.22-1.67-.11-1.66,2.7,0,2.81Z" transform="translate(-277.82 -471.89)"/><path class="cls-2" d="M334.63,540.14a4.48,4.48,0,0,1,5.88-.85c1.44.91,2.75-1.51,1.3-2.43a7,7,0,0,0-9,1.29c-1.18,1.28.66,3.28,1.84,2Z" transform="translate(-277.82 -471.89)"/><path class="cls-2" d="M315.43,512.5c1.67,0,1.68-2.81,0-2.81S313.75,512.5,315.43,512.5Z" transform="translate(-277.82 -471.89)"/><path class="cls-2" d="M312.21,522.29c3.06,0,3.07-5.15,0-5.15S309.14,522.29,312.21,522.29Z" transform="translate(-277.82 -471.89)"/><path class="cls-2" d="M316.11,516.92c1.67,0,1.67-2.81,0-2.81S314.43,516.92,316.11,516.92Z" transform="translate(-277.82 -471.89)"/><path class="cls-2" d="M319.33,512.35a.71.71,0,0,0,0-1.41h0a.71.71,0,0,0,0,1.41Z" transform="translate(-277.82 -471.89)"/><path class="cls-2" d="M304.59,515.83a.67.67,0,0,0,.65-.7.65.65,0,1,0-1.3,0A.67.67,0,0,0,304.59,515.83Z" transform="translate(-277.82 -471.89)"/><path class="cls-2" d="M297.31,538a.7.7,0,1,0-.65-.7A.67.67,0,0,0,297.31,538Z" transform="translate(-277.82 -471.89)"/><path class="cls-2" d="M299.17,530.52a.68.68,0,0,0,.65-.71.65.65,0,1,0-1.3,0A.68.68,0,0,0,299.17,530.52Z" transform="translate(-277.82 -471.89)"/><path class="cls-2" d="M304.08,535.27a.7.7,0,0,0,0-1.4h0a.7.7,0,0,0,0,1.4Z" transform="translate(-277.82 -471.89)"/><path class="cls-2" d="M294.26,497.86a.67.67,0,0,0,.65-.7.65.65,0,1,0-1.3,0A.67.67,0,0,0,294.26,497.86Z" transform="translate(-277.82 -471.89)"/><path class="cls-2" d="M290.78,507.25l.67-1.11a.73.73,0,0,0-.26-.95.62.62,0,0,0-.86.25l-.68,1.1a.74.74,0,0,0,.24,1A.63.63,0,0,0,290.78,507.25Z" transform="translate(-277.82 -471.89)"/><path class="cls-2" d="M302.56,502.63a.71.71,0,0,0,0-1.41h0a.71.71,0,0,0,0,1.41Z" transform="translate(-277.82 -471.89)"/><path class="cls-2" d="M323.39,484.65a.7.7,0,0,0,0-1.4h0a.7.7,0,0,0,0,1.4Z" transform="translate(-277.82 -471.89)"/><path class="cls-2" d="M326.61,498.77a.7.7,0,0,0,0-1.4h0a.7.7,0,0,0,0,1.4Z" transform="translate(-277.82 -471.89)"/><path class="cls-2" d="M341,498.41a.71.71,0,1,0-.65-.7A.69.69,0,0,0,341,498.41Z" transform="translate(-277.82 -471.89)"/><path class="cls-2" d="M347.1,500.61a.7.7,0,1,0-.65-.7A.67.67,0,0,0,347.1,500.61Z" transform="translate(-277.82 -471.89)"/><path class="cls-2" d="M328.3,539a.7.7,0,1,0-.65-.7A.67.67,0,0,0,328.3,539Z" transform="translate(-277.82 -471.89)"/><path class="cls-2" d="M329,545.91a.7.7,0,1,0-.65-.7A.67.67,0,0,0,329,545.91Z" transform="translate(-277.82 -471.89)"/><path class="cls-2" d="M340.65,548.11a.67.67,0,0,0,.65-.7.65.65,0,1,0-1.3,0A.67.67,0,0,0,340.65,548.11Z" transform="translate(-277.82 -471.89)"/><path class="cls-2" d="M356.59,515.65a.71.71,0,1,0-.65-.7A.68.68,0,0,0,356.59,515.65Z" transform="translate(-277.82 -471.89)"/><path class="cls-2" d="M339.48,522.62h.17a.71.71,0,0,0,0-1.41h-.17a.71.71,0,0,0,0,1.41Z" transform="translate(-277.82 -471.89)"/><path class="cls-2" d="M341.34,521.47a.47.47,0,0,0,0-.94.47.47,0,0,0,0,.94Z" transform="translate(-277.82 -471.89)"/><path class="cls-2" d="M342.19,525.69a.47.47,0,1,0-.43-.47A.45.45,0,0,0,342.19,525.69Z" transform="translate(-277.82 -471.89)"/><path class="cls-2" d="M328.64,500.19a.47.47,0,1,0-.43-.47A.45.45,0,0,0,328.64,500.19Z" transform="translate(-277.82 -471.89)"/><path class="cls-2" d="M325.42,487.91a.47.47,0,1,0-.43-.47A.46.46,0,0,0,325.42,487.91Z" transform="translate(-277.82 -471.89)"/><path class="cls-2" d="M320.17,489.19a.47.47,0,0,0,0-.94.47.47,0,0,0,0,.94Z" transform="translate(-277.82 -471.89)"/><path class="cls-2" d="M301,532.66a.47.47,0,0,0,0-.94.47.47,0,0,0,0,.94Z" transform="translate(-277.82 -471.89)"/><path class="cls-2" d="M334.4,545.86a.47.47,0,1,0-.43-.47A.45.45,0,0,0,334.4,545.86Z" transform="translate(-277.82 -471.89)"/><path class="cls-2" d="M343.37,544.94a.47.47,0,0,0,0-.94.47.47,0,0,0,0,.94Z" transform="translate(-277.82 -471.89)"/><path class="cls-2" d="M330.51,543.11a.47.47,0,1,0-.44-.47A.46.46,0,0,0,330.51,543.11Z" transform="translate(-277.82 -471.89)"/><path class="cls-2" d="M357.09,509.55a.47.47,0,1,0-.43-.47A.46.46,0,0,0,357.09,509.55Z" transform="translate(-277.82 -471.89)"/><path class="cls-2" d="M355.74,513.58a.47.47,0,1,0-.43-.47A.45.45,0,0,0,355.74,513.58Z" transform="translate(-277.82 -471.89)"/><path class="cls-2" d="M297.31,499.11a.47.47,0,0,0,0-.94.47.47,0,0,0,0,.94Z" transform="translate(-277.82 -471.89)"/><path class="cls-2" d="M292.39,502a.47.47,0,1,0-.43-.47A.46.46,0,0,0,292.39,502Z" transform="translate(-277.82 -471.89)"/><path class="cls-2" d="M295.63,502.78c1.67,0,1.67-2.81,0-2.81S294,502.78,295.63,502.78Z" transform="translate(-277.82 -471.89)"/><path class="cls-2" d="M290.53,508.1c1.67,0,1.67-2.81,0-2.81S288.86,508.1,290.53,508.1Z" transform="translate(-277.82 -471.89)"/><path class="cls-2" d="M298,527.17c1.68,0,1.68-2.81,0-2.81S296.31,527.17,298,527.17Z" transform="translate(-277.82 -471.89)"/><path class="cls-2" d="M294.43,541.11c1.67,0,1.67-2.81,0-2.81S292.75,541.11,294.43,541.11Z" transform="translate(-277.82 -471.89)"/><path class="cls-2" d="M337.62,544.41c1.67,0,1.67-2.81,0-2.81S335.94,544.41,337.62,544.41Z" transform="translate(-277.82 -471.89)"/><path class="cls-2" d="M343.88,522.77c1.68,0,1.68-2.81,0-2.81S342.21,522.77,343.88,522.77Z" transform="translate(-277.82 -471.89)"/><path class="cls-2" d="M344.22,494.16c1.67,0,1.68-2.81,0-2.81S342.55,494.16,344.22,494.16Z" transform="translate(-277.82 -471.89)"/><path class="cls-2" d="M324.91,493.61c1.67,0,1.68-2.81,0-2.81S323.24,493.61,324.91,493.61Z" transform="translate(-277.82 -471.89)"/><path class="cls-2" d="M357.66,506.14v.19a1.3,1.3,0,1,0,2.59,0v-.19a1.3,1.3,0,1,0-2.59,0Z" transform="translate(-277.82 -471.89)"/></svg>