<svg id="Layer_19" data-name="Layer 19" xmlns="http://www.w3.org/2000/svg" viewBox="0 0 944.99 733.84"><defs><style>.cls-1{fill:#a6a6cc;}.cls-2{fill:#76768e;}.cls-3{fill:#ebebff;}</style></defs><title>Trash1</title><path class="cls-1" d="M978.12,488.91c-47.76,21-100.64,41.65-151.48,62.42-3,1.21,5.56,2.21,12.24,2a91.09,91.09,0,0,0,14-1.49A159.2,159.2,0,0,1,873,549.48c17.06-1,35.35-1.68,52.77-2.48l27.42-1.26c6.89-.32,16.53-.5,21.55-1.42,4-.72,4.32-1.79.84-2.57-1.51-.35-4.23-.56-5.24-1-1.62-.61.13-1.53.93-2.12,7.6-5.85,23.27-11.59,35.91-17.19a121.14,121.14,0,0,1,23.82-7.68c7.25-1.63,25.7-4,13.52-6.09-6.32-1.09-16.57-1.87-24.31-2.69-8.66-.94-18.36-1.79-26.4-2.87-9.24-1.24-6-3.16-5.35-4.89l2-5.61c.76-2.05-19.16-2-19.88,0l-2.21,6.27c-.65,1.71-2.21,3.52,3.58,5.06,5.3,1.42,15.46,2.28,23.73,3.19l16.35,1.77c5,.54,15.12,1.22,18.14,2.05l-1-1.23c-.8.73-6.63,1.54-9.39,2.11s-5.59,1.18-8.2,1.77A126.92,126.92,0,0,0,996.84,517c-8.84,3.21-15.47,6.58-22.72,9.88s-15.47,6.58-20.68,10c-2.06,1.32-4.29,2.74-3.05,4.11.43.58,1.61,1.14,3.46,1.65q1.44.36,3.3.66c.4.07,3.47.6,2.38.34l-1-1.23,2-.33-6.32.29-10.54.49-19,.87-40.08,1.85c-9.62.44-19.43.87-28.33,1.62-4.6.39-8.82.87-12.56,1.45-3.11.49-5.63,1.41-10.12,1.58l12.24,2c50.83-20.78,103.73-41.46,151.49-62.42,4.42-1.93-14.81-2.76-19.18-.85Z" transform="translate(-112.31 -328.07)"/><path class="cls-1" d="M978.45,500.39l3.18-.87-18.18-1.23-61.17,30,19.16.84c15.33-8.25,30.93-16.54,58.47-24l-18.19-1.23-22.38,18.35c-2.43,2,15.71,2.84,19.16.85a294.94,294.94,0,0,0,26.25-16.92l-19.18-.85c-6.19,4.66-8,9.44-5.22,14.18,1,1.7,16.42,2.26,19.54.42,7.8-4.6,11.42-9.36,10.74-14.13-.25-1.73-17.22-2.25-19.54-.43-6.39,4.88-4.73,9.94,4.82,14.68,2.74,1.35,17.68,1.68,19.18,0,4.63-5.16,4.56-10.4-.2-15.56-1.68-1.84-19.22-1.3-19.53.43-.76,4.26,2,8.52,8.35,12.66,1.54.86,7.1,1.35,12.42,1.1a37.75,37.75,0,0,0,4.2-.39c9-1.48,7.36-3.41,6.52-5.31a39.4,39.4,0,0,0-4.69-7.74c-1.5-2-20.35-2.1-19.89,0,.77,3.58,3.6,7.13,8.44,10.63,2.61,1.87,18.5,1.25,19.54-.43,1.86-3,4.09-6,10.56-8.81l-19.47-.45a14,14,0,0,0,2.9,6.6c1,1.31,10.3,2.17,17,1.12,9.68-1.52,10.89-3.56,10.39-5.63s-19.21-2-19.89,0c-.48,1.1,1.43,2.19,5.41,3.08,2.84.75,8.83,1,13.59.58,7.42-.62,12-1.85,11.94-3.19.35-1.46-10.85-2-17-1.13-22.85,3.25-37.23,8.24-50.82,12.54-14.56,4.64-28.15,9.35-45.59,13.74l18.52.81c4-5.28,18.91-10.18,42.34-13.93l-16.42-1.55c-6.39,3.9-16.93,7.53-27.25,11.18l-31.16,11.05,18.17,1.23c17.41-9.94,44.42-19.39,80.06-28,6.14-1.49-8.4-3.34-15.62-1.93-45.17,8.8-78.32,18.87-110.89,29L905.19,543c21.16-9.33,48.27-18.28,80.88-26.71,5.79-1.5-8.59-3.38-15.62-1.93-41,8.45-67.82,18.16-94,27.9l18.18,1.23c18.39-10.11,49.66-19.38,81-28.57,5.17-1.53-8-3.37-15.62-1.94C912.29,522,885.59,533,859.89,544c-3.93,1.67,13.55,2.87,18.19,1.23l72.79-25.87c5.19-1.85-10.1-3.37-17.17-1.61-35.75,8.9-58.43,18.89-80.66,28.81l19.18.85c9.25-5.24,26.8-10,51-13.82l-15.78-1.93c-11,2.93-25.43,5.4-39.13,8-6.28,1.2-12.4,2.42-17.9,3.7-5,1.17-11.93,2.65-13,4.1-1.09,1.16,3.9,2.24,11.15,2.41h.27c9.55.21,19.27-1.23,26.81-2l67.24-6.74c10.83-1.08.86-3.84-10-2.75-19.89,2-39.64,4-55.42,6.84-3.85.64-3.7,1.66.33,2.28a38.72,38.72,0,0,0,4.09.38c12.46.71,23.18-.4,32.79-1.58,10.88-1.33,20.72-2.86,29.28-4.56,18.83-3.82,11.23-7.87-1-11.88-3.67-1.2-16.55-.94-18.16.38-3.73,2.93-5.09,5.91-4.05,8.9.8,2,.67,4.65,15.05,5.4a44.79,44.79,0,0,0,11.23-.73c11.3-2.9,16.5-6.3,14.83-9.71-.87-1.73-16.4-2.24-19.54-.42-4.68,2.67-6.51,5.45-5.41,8.22.16.89,4.78,1.59,10.32,1.56a38.39,38.39,0,0,0,8.22-.75c8.7-2,23.71-8.43.4-9.46-12.14-.54-19.89,1.77-26.26,3l-30,5.89,16.62.71c-3-1.73-1.24-3.58,4.82-5.08l-18.19-.38,18,7.12c3.2,1.27,13.25,1.61,18.18.38,11.39-2.78,12.24-6.35,2.21-9.27-3.36-1-13.94-1.07-17.17,0-6.19,1.92-6.19,4.2,0,6.13,2.08.71,7.07.82,11.23.73s8.31-.32,12.09-.64c11.49-.9,1.43-3.65-10-2.75-2.26.19-4.77.3-7.33.32l11.22.73c-2.87-.92-2.87-2,0-2.91H923.91c6.46,1.92,5.61,4.26-2.21,6.06l18.17.37-18-7.12c-3.11-1.23-13.37-1.64-18.18-.38-8.74,2.25-11.2,5-6.81,7.53,1.77,1.07,11.78,1.65,16.62.71L946.3,538c1.12-.22,8.51-1.54,8.2-1.6l-6.94.07a1.5,1.5,0,0,1-.38,1.32c-1.3,1.21-4.38,2.35-9,3.32l18.52.81c-1.06-2.49.53-5,4.68-7.38l-19.51-.43c1.6,2.84-2.66,5.68-12.11,8.1l11.22-.74c1.73.1-.17-1.66-.31-2a5.56,5.56,0,0,1-.53-2.73c.2-1.9,1.47-3.8,3.8-5.67l-18.18.38c8.55,2.8,15.91,5.6,2.52,8.33-5.18,1-10.91,2-17.13,2.85-5.46.79-16,2.61-24,2.16l4.42,2.67c14.7-2.62,32.89-4.49,51.38-6.34l-10-2.76-43,4.31-20.55,2.06c-6.3.63-14.39,1.8-21.82,2l7.67.16-2.21-.18,4.58,1c-1.51-.6,11.89-3.15,14.23-3.66,5.88-1.27,12.4-2.46,18.85-3.65,12.26-2.27,24.46-4.54,34.1-7.12,5.81-1.56-7.61-3.19-15.63-1.94-26.58,4.22-45.91,9.47-56.08,15.24-3.54,2,14.89,2.76,19.18.85,21.68-9.67,43.8-19.37,78.65-28l-17.17-1.61L861,543.62l18.17,1.23c24.42-10.4,49.65-21.06,95-29.65l-15.62-1.93c-32.09,9.43-64.09,19-83,29.33-3.07,1.69,13.61,2.92,18.17,1.23,25.43-9.44,51.24-19.05,90.82-27.23l-15.62-1.93c-33.43,8.67-61.2,17.88-82.87,27.46-3.85,1.7,13,2.84,18.16,1.23C936,533.54,968,523.64,1012,515.05l-15.63-1.93c-36.51,8.84-64.19,18.53-82,28.74-3,1.68,13.42,2.91,18.17,1.23l33-11.7c10.4-3.69,21-7.37,27.46-11.31,2.5-1.52-9.56-2.69-16.61-1.54-27,4.37-44,10.07-48.18,16.18-1.21,1.68,13.73,2,18.54.8,16.75-4.21,30-8.72,43.85-13.18,13.25-4.23,27-9.26,49.36-12.45l-17-1.13-2.08.44,13.62.57c-2.07-.42-3-.95-2.7-1.48h-19.89c.29,1.17,1.06,2.5-4.55,3.38l17,1.13a13.8,13.8,0,0,1-2.89-6.6c-.22-1.86-15.76-2.08-19.54-.42-7.05,3.11-9.23,6.38-11.27,9.66l19.54-.42c-4.45-3.21-7-6.49-7.74-9.78H982.49a44.11,44.11,0,0,1,3.72,5.72q.67,1.35,1.26,2.7c.24.61,2.07,1.89-1,2.39l16.62.7c-5.84-3.86-8.41-7.84-7.64-11.82l-19.54.42c4.21,4.6,4.28,9.27.2,13.87h19.18c-8.67-4.18-10.37-8.65-4.93-13l-19.53-.43c.67,4.48-2.71,9-10,13.29l19.53.42c-2.74-4.46-1.26-8.95,4.4-13.34,2.63-2-16.44-2.86-19.18-.85a292.87,292.87,0,0,1-26.19,16.93l19.16.85,22.36-18.35c2.21-1.72-12.17-2.85-18.18-1.23-28.36,7.69-44.66,16.25-60.44,24.76-3.69,2,15.2,2.79,19.16.85l61.1-30c3.56-1.74-12.53-2.77-18.17-1.23l-3.18.87c-6.52,1.77,10.67,3.37,17.17,1.61Z" transform="translate(-112.31 -328.07)"/><path class="cls-1" d="M947.91,505c-7.47,2.48-24.68,3.56-35.53,5.61-11.65,2.19-15.47,5-17,7.8-1.77,3.41-1.4,6.86-3,10.27a39.7,39.7,0,0,1-8.11,11.25c-2,2,17.19,2.88,19.18.85a42.69,42.69,0,0,0,11.21-20.69c.7-2.86,2.54-5.88,16-8,11.91-1.85,26.87-3,34.38-5.52,5.55-1.85-11.6-3.47-17.17-1.62Z" transform="translate(-112.31 -328.07)"/><path class="cls-2" d="M996.59,488.18c-16.13,3.5-16,8.45-11.51,12.57,2.21,1.92,10.25,3.06,19.89,4.1,14,1.51,29.39,2.73,44,4.06l-2-1.21c-11.27,2.77-22.47,5.56-33.81,8.33-5.26,1.29-12.64,1.63-20.92,2.26-8.67.67-17,1.44-24.89,2.32-5.83.64-.31,2.18,5.57,1.53,8.42-.94,17.33-1.76,26.63-2.46,7.49-.54,14.45-.86,19.69-1.93,13.83-2.84,25-6.14,37.26-9.16,1.5-.42.63-1-2-1.21-10.74-1-21.52-1.94-32.22-2.92-11.45-1-24.66-2.07-26.78-4.34-3.47-3.69-3.91-7.93,10.47-11.05,4.25-.92-5.35-1.8-9.54-.89Z" transform="translate(-112.31 -328.07)"/><path class="cls-2" d="M1002.54,518.11c-1.11,2.46-7,4.69-12.58,6.95a92.69,92.69,0,0,0-13.06,6.64c-3.91,2.34-9.43,4.73-11.64,7.12-1.75,1.87,4,3.35,10.85,4.77l2-1.21c-25.3,2.65-54.38,3.84-83.26,5.06-12,.51-25.81.88-36.2,2-10,1.1-15.29,3.26-27.13,3.9l6.23.41c-3.25-.78-6.63-1.53-10.37-2.27l.89,1.07c8.44-2.48,14.23-5.26,21-7.88l21.32-8.27c7-2.72,13.84-5.45,19.56-8.25,2.48-1.2,3.8-3.37,9.24-4.33s15.47-1.65,22.36-2.35c6-.62.42-2.15-5.57-1.53-12.17,1.26-26.25,2.15-30.65,4.5a192.63,192.63,0,0,1-19.2,9c-7.34,3-15.16,5.92-22.78,8.86-8,3.1-14.83,6.42-24.82,9.37-1.16.35-.81.77.86,1.06,3.1.62,5.88,1.25,8.62,1.91a25.05,25.05,0,0,0,6.23.4c11.05-.59,16.69-1.94,24.31-3.25,10.72-1.83,28.18-2.19,42.74-2.81,28.57-1.2,57.23-2.48,82.23-5.08,2.21-.24,3.86-.82,2-1.21-4.3-.9-9.65-1.92-9.81-3.11s3.18-2.32,4.93-3.37c3.65-2.18,7.16-4.36,11.05-6.53,6.92-3.88,19.89-7.49,21.81-11.57.53-1.13-10.52-1.13-11,0Z" transform="translate(-112.31 -328.07)"/><path class="cls-2" d="M901.31,522.55a41.44,41.44,0,0,1,1.37-6c.33-1.13-.14-2.31,3-3.34s9.94-1.33,16.31-1.84c8.44-.68,20.7-1.24,27.31-2.33,5.79-1,5.33-2.78,6.63-4s-9.48-1.6-10.65-.48c-.86.84-.82,2.05-2.94,2.84-2.41.89-11.31,1.3-16.29,1.7-8.84.71-23.16,1.37-29.5,2.68-5.37,1.1-4.26,2.83-4.68,4.15a43,43,0,0,0-1.57,6.63c-.2,1.14,10.85,1.14,11.05,0Z" transform="translate(-112.31 -328.07)"/><path class="cls-2" d="M923.91,510.38C939.38,507,949,503,959.53,499.17q7.8-2.81,15.3-5.63c2.4-.91,4.59-1.83,7.16-2.73a19.68,19.68,0,0,1,5.54-1.59c2.72-.29,11.65-.4,14.32-.44,7-.12,7.07-1.9,0-1.77-9.41.16-21.06.23-26.21,1.68-7.75,2.18-12.5,4.78-18.78,7.08-12.51,4.61-23.89,9.64-42.49,13.7-4.2.92,5.39,1.81,9.54.89Z" transform="translate(-112.31 -328.07)"/><path class="cls-2" d="M980,505l10.26,6.29a4,4,0,0,0,1.39.13c.61,0,1-.13.82-.23l-10.24-6.29a3.9,3.9,0,0,0-1.4-.13c-.61,0-1,.13-.81.23Z" transform="translate(-112.31 -328.07)"/><path class="cls-2" d="M985.43,505.48a29.45,29.45,0,0,1,6.63,4.45c.25.23,2.37.13,2.21-.09a29.35,29.35,0,0,0-6.63-4.45C987.22,505.17,985.08,505.26,985.43,505.48Z" transform="translate(-112.31 -328.07)"/><path class="cls-2" d="M903.1,533.89l-34.92,7.25c-.44.07-.44.18,0,.25a6.51,6.51,0,0,0,1.34,0,15.93,15.93,0,0,0,2.8-.36c.93-.17-.64-.42-1.57-.25l-2.34.3,1.33.28,34.91-7.25c.86-.18-.68-.43-1.54-.25Z" transform="translate(-112.31 -328.07)"/><path class="cls-2" d="M912.18,534.24l-20.64,3.63c-.95.16.62.41,1.57.25l20.64-3.63C914.7,534.33,913.15,534.07,912.18,534.24Z" transform="translate(-112.31 -328.07)"/><path class="cls-2" d="M914.79,513.28l4,3.32c.27.23,2.41.14,2.21-.09l-4-3.33C916.73,513,914.61,513.05,914.79,513.28Z" transform="translate(-112.31 -328.07)"/><path class="cls-2" d="M919.18,513.81a5.44,5.44,0,0,1,1.93,1.63c.15.22,2.36.22,2.21,0a5.75,5.75,0,0,0-2-1.73,3.77,3.77,0,0,0-1.41-.13c-.61,0-1,.13-.8.23Z" transform="translate(-112.31 -328.07)"/><path class="cls-2" d="M951.73,532.82a133.43,133.43,0,0,1,13.66,4.68c.51.21,2.63.11,2.21-.1a135.3,135.3,0,0,0-13.88-4.75c-.68-.2-2.58,0-1.9.17Z" transform="translate(-112.31 -328.07)"/><path class="cls-2" d="M956,531.13l4,1.12a5.56,5.56,0,0,0,1.54,0c.43,0,.57-.13.36-.21l-4-1.12a5.43,5.43,0,0,0-1.51-.06c-.53.05-.71.15-.41.24Z" transform="translate(-112.31 -328.07)"/><path class="cls-2" d="M930.63,542.71l-11,3.14c-.71.19,1.22.38,1.9.18l11-3.14c.25-.09,0-.19-.55-.23a5.7,5.7,0,0,0-1.35.05Z" transform="translate(-112.31 -328.07)"/><path class="cls-2" d="M1004.22,514.37l4,2.69c.33.21,2.45.12,2.21-.1l-4-2.68c-.33-.22-2.48-.13-2.21.09Z" transform="translate(-112.31 -328.07)"/><path class="cls-2" d="M974.78,492a38.8,38.8,0,0,0,6.63,2.71c.64.2,2.54,0,1.9-.18a36.09,36.09,0,0,1-6.38-2.63,4,4,0,0,0-1.41-.13c-.61,0-1,.13-.8.23Z" transform="translate(-112.31 -328.07)"/><path class="cls-3" d="M980.33,495.47c-.93,3.29.48,6.34,14.25,9,.91.17,2.48-.08,1.55-.26-13.26-2.53-14.48-5.52-13.59-8.7A3.63,3.63,0,0,0,980.33,495.47Z" transform="translate(-112.31 -328.07)"/><path class="cls-3" d="M1042,508.43l-31.22,7.66c-.78.19,1.12.36,1.9.18l31.22-7.66C1044.68,508.42,1042.76,508.25,1042,508.43Z" transform="translate(-112.31 -328.07)"/><path class="cls-3" d="M1007.64,516.67l-30.67,3c-1.22.12-.11.42,1.1.3l30.68-3C1010,516.86,1008.75,516.55,1007.64,516.67Z" transform="translate(-112.31 -328.07)"/><path class="cls-3" d="M998.43,520a61.13,61.13,0,0,1-13.09,5.51c-.66.2,1.26.38,1.91.18a62.2,62.2,0,0,0,13.25-5.59c.17-.1-.19-.2-.8-.23a3.77,3.77,0,0,0-1.41.13h.14Z" transform="translate(-112.31 -328.07)"/><path class="cls-3" d="M986.3,526.52c.61,0,1.1-.08,1.1-.18s-.49-.17-1.1-.17-1.11.07-1.11.17S985.68,526.52,986.3,526.52Z" transform="translate(-112.31 -328.07)"/><path class="cls-3" d="M983.6,527.13l-8.69,4.72c-.15.09.21.19.82.22a3.81,3.81,0,0,0,1.39-.13l8.69-4.72c.16-.09-.21-.19-.82-.22A3.84,3.84,0,0,0,983.6,527.13Z" transform="translate(-112.31 -328.07)"/><path class="cls-3" d="M973.06,532.58a28,28,0,0,0-5,3c-.31.22,1.83.32,2.21.1a27.37,27.37,0,0,1,5-3C975.73,532.46,973.59,532.36,973.06,532.58Z" transform="translate(-112.31 -328.07)"/><path class="cls-3" d="M948.57,532.41q5.31,2.24,12.16,4.35c.66.21,2.56,0,1.9-.18q-6.71-2.07-11.94-4.25c-.5-.21-2.62-.12-2.2.1Z" transform="translate(-112.31 -328.07)"/><path class="cls-3" d="M953.57,531.06l5.9,2.12c.57.21,2.47,0,1.9-.17l-5.88-2.13c-.6-.21-2.5,0-1.92.18Z" transform="translate(-112.31 -328.07)"/><path class="cls-3" d="M1000.66,513.92a22.58,22.58,0,0,0,4.11,2.21c.49.21,2.63.12,2.21-.09a23.8,23.8,0,0,1-4.13-2.22c-.31-.22-2.46-.13-2.21.1Z" transform="translate(-112.31 -328.07)"/><path class="cls-3" d="M977,504.55a65.35,65.35,0,0,1,10.58,6.86c.27.23,2.41.13,2.21-.09a67.37,67.37,0,0,0-10.56-6.86,3.62,3.62,0,0,0-1.39-.13c-.61,0-1,.13-.82.22Z" transform="translate(-112.31 -328.07)"/><path class="cls-3" d="M983.25,505.6a64.39,64.39,0,0,0,7.07,4.43,3.68,3.68,0,0,0,1.4.13c.61,0,1-.13.81-.22a62.53,62.53,0,0,1-7.07-4.44C985.15,505.28,983,505.38,983.25,505.6Z" transform="translate(-112.31 -328.07)"/><path class="cls-3" d="M912.4,513.17l4,3.61c.26.23,2.39.13,2.21-.09l-4-3.61C914.37,512.86,912.22,513,912.4,513.17Z" transform="translate(-112.31 -328.07)"/><path class="cls-3" d="M917.15,513.36l.6.55c.24.23,2.36.13,2.21-.09l-.58-.56c-.24-.22-2.36-.13-2.21.1Z" transform="translate(-112.31 -328.07)"/><path class="cls-3" d="M975.56,493.43a4.24,4.24,0,0,1,2.21.84c.13.22,2.34.23,2.2,0s-1.05-.72-2.43-1c-.84-.18-2.76,0-1.9.18Z" transform="translate(-112.31 -328.07)"/><path class="cls-3" d="M902.15,533.55q-19.3,3.74-36.14,7.77c-.79.19,1.13.36,1.91.18q16.65-4,35.79-7.7C904.6,533.63,903.05,533.37,902.15,533.55Z" transform="translate(-112.31 -328.07)"/><path class="cls-3" d="M913,533.63l-23,3.79c-1,.17.57.42,1.57.25l23-3.79c1-.17-.57-.42-1.57-.25Z" transform="translate(-112.31 -328.07)"/><path class="cls-3" d="M929.17,542.22l-12.29,3.55c-.7.2,1.22.38,1.91.18l12.28-3.55C931.76,542.2,929.86,542,929.17,542.22Z" transform="translate(-112.31 -328.07)"/><path class="cls-3" d="M963,538c-1,.77-.7,1.58,1,2.32,2.06.83,4.58,1.63,6.87,2.44.6.2,2.5,0,1.93-.18-4.27-1.5-9.17-2.8-7.65-4.49.2-.22-1.92-.32-2.21-.09Z" transform="translate(-112.31 -328.07)"/><path class="cls-3" d="M970.69,542.63c-5.6.65-11.56,1.21-17.79,1.69-1.28.09-.17.4,1.11.3,6.23-.47,12.18-1,17.79-1.68C973,542.81,971.8,542.5,970.69,542.63Z" transform="translate(-112.31 -328.07)"/><path class="cls-3" d="M949.39,544.73c.61,0,1.11-.08,1.11-.18s-.5-.17-1.11-.17-1.1.07-1.1.17S948.78,544.73,949.39,544.73Z" transform="translate(-112.31 -328.07)"/><path class="cls-3" d="M944.53,544.68q-8.79.57-18,1c-.61,0-1,.13-.81.22a3.59,3.59,0,0,0,1.39.13c6.11-.26,12.12-.58,18-1,1.3-.08.73-.42-.6-.35Z" transform="translate(-112.31 -328.07)"/><path class="cls-3" d="M954.45,504.25c-1.32,1.88,3.67,4.07-9.7,5.08-1.28.1-.15.41,1.13.31,4.88-.36,8.57-1,10.14-1.85,2.06-1.11-.22-2.39.58-3.55.17-.23-2.06-.23-2.21,0Z" transform="translate(-112.31 -328.07)"/><path class="cls-3" d="M927.93,520.61l-18.8,2c-3.82.42-9.75.82-11,1.6-.16.1.21.2.82.23a3.77,3.77,0,0,0,1.39-.14c1.19-.78,11.05-1.51,15.07-1.94l13.68-1.5c1.15-.12,0-.43-1.13-.3Z" transform="translate(-112.31 -328.07)"/><path class="cls-3" d="M843.85,552.26c6.83-2.45,22-3.61,37.26-4.32.61,0,1-.12.8-.22a3.68,3.68,0,0,0-1.4-.13c-15.75.73-31.51,1.94-38.56,4.47-.57.21,1.33.39,1.9.18Z" transform="translate(-112.31 -328.07)"/><path class="cls-3" d="M887.52,547.31l-.91.11c0,.09.49.17,1.11.17s1.1-.08,1.1-.17-.69-.28-1.62-.28a6.84,6.84,0,0,0-1.05.05c-.7.09-.78.26-.19.37a6.19,6.19,0,0,0,1,.09c1.39,0,2-.3.58-.35Z" transform="translate(-112.31 -328.07)"/><path class="cls-3" d="M896,547.3l13.9-.52c1.37-.06.8-.4-.59-.36l-13.88.52C894.06,547,894.63,547.33,896,547.3Z" transform="translate(-112.31 -328.07)"/><path class="cls-1" d="M613.51,1050.25c64.26,2.53,128.39,6.44,192.51,9.82,3.73.19,5.4-2.33,3.89-3.85s-3.41-2.11-5.93-2.78a24.87,24.87,0,0,1-9-3.9c-5-3.72-9.16-7.91-13.6-11.82l-7-6.16c-1.76-1.54-3.47-3.82-6.67-4.65a9.52,9.52,0,0,0-7.24.92c-.79.52-1,1.28-2,1.69-1.5.67-4.26.64-6,.7-17.18.69-35.12-.63-52.27-1.28a156.45,156.45,0,0,1-24.34-2.48c-5.44-1.06-14.34-4.54-18.61-.65-2.23,2-3.08,4.87-4.39,7.12-1.5,2.53-2.64,5.27-4.6,7.71-2.27,2.8-8,2.84-12.89,3.44L619.57,1046c-5.78.71-3.23,5.58,2.53,4.87l17.68-2.2c4.82-.58,10.05-1,13.58-3.08,3.26-1.91,4.37-4.78,5.83-7.19l2.84-4.78c.87-1.45,1.45-4.22,3.37-5.33l-3.28.78c2.13-.12,5.11,1,7,1.38s4,.86,6,1.23a134.32,134.32,0,0,0,13.92,1.73c10.05.76,20.23.91,30.33,1.24s20.23.91,30.32.71a55.76,55.76,0,0,0,11.79-1.05,15.12,15.12,0,0,0,4.13-1.57,8.66,8.66,0,0,0,1.43-1.09c.15-.13,1.21-1.11.62-.73l-3.28.78-1.16-.34,1.61,1.42,2.7,2.36,4.84,4.27,10.23,9a48.78,48.78,0,0,0,8.11,6.21,28.4,28.4,0,0,0,5.6,2.44c1.76.55,4.66.76,5.68,1.79l3.89-3.85c-64.13-3.37-128.26-7.28-192.52-9.82-5.91-.24-5.77,4.83.1,5.06Z" transform="translate(-112.31 -328.07)"/><path class="cls-1" d="M645.31,1045.16l-2.81-.4-1.1,5,91,1.87-.09-5c-24.86-.15-49.84-.35-74-3.84l-1.09,5,53.78-2.53c5.85-.28,5.87-5.08-.07-5.06q-25.23.11-50.31,1l.09,5.06a234.45,234.45,0,0,0,40-4.91c4.6-1,4.19-5-1.32-5a252.19,252.19,0,0,0-40.58,3.54c-4.78.82-4,5.19,1.3,5a132.09,132.09,0,0,0,40.13-7.58c3.39-1.26,2.41-5-2.44-4.69a259.21,259.21,0,0,0-43.16,6.84c-4.88,1.21-1.17,5.27,3.66,4.59a214.32,214.32,0,0,0,34.09-7.57c2.18-.75,2.83-2.32,1.47-3.52a4.62,4.62,0,0,0-1.61-.85c-5.26-1.56-10.4-.31-15.58.72q-10.54,2.12-20.89,4.52c-5.28,1.23-3.24,5.9,2.54,4.87a257,257,0,0,0,28.42-6.7c4.87-1.46,1.13-5.07-3.66-4.59a187.61,187.61,0,0,1-25.8,1.26l1.22,5q9.13-1.54,17.94-3.58c3.52-.81,4.72-3.47,1-4.64-5.45-1.71-11.27-1.11-16.95-.08s-3.24,5.58,2.53,4.86a17.74,17.74,0,0,0,7.87-2.67c1.71-1,1.64-2.6-.13-3.58a16.46,16.46,0,0,0-10.37-1.52c-4.1.55-4.16,3.52-1,4.64,11.93,4.17,27.59,5.51,41.26,7,14.73,1.54,29.55,2.8,43.94,5.15l-.12-4.88a118.36,118.36,0,0,1-44.05-4.27l-2.19,4.68c11.63-.13,23,.86,34.49,1.79l34.63,2.8,1.1-5a504.26,504.26,0,0,1-87.87-7.37c-4.91-.85-8.21,3.52-3.38,4.67,30.19,7.2,62.35,10.92,94.46,14.49l1.1-5a730.54,730.54,0,0,1-84.4-8.13c-4.91-.76-8.3,3.58-3.37,4.67,28.66,6.32,59,8.66,89.37,10.81l1.1-5c-30.4-.09-60.08-3.7-89.6-7.33-4.88-.6-8.32,3.43-3.37,4.66,31.16,7.72,65.26,9.42,98.92,10.93,5.15.23,6.26-4.57,1.09-5l-81-6.51c-5.77-.47-8.06,3.94-2.28,4.9,29.27,4.86,59.87,6,90.22,7.16l-.08-5.07a152.26,152.26,0,0,1-44.84-6.43l-3.35,4.7c9.54,1.43,18.23,3.86,27.17,6.08,4.12,1,8.28,2,12.55,2.77,3.87.71,8.85,1.76,13,1.38,3.36-.24,5.73-1.93,5.29-3.78a.64.64,0,0,1,0-.07c-.63-2.42-5.86-4.17-8.92-5.69L763,1036.09c-4.39-2.18-10.77,1.46-6.37,3.65,8,4,16.23,7.94,26,10.57,2.28.66,5.1.18,6.3-1.08a1.77,1.77,0,0,0,.53-1.16c.38-3.36-4.05-5.5-8.57-7.33a106.45,106.45,0,0,0-16.38-5.17c-13-2.94-23.27.69-32.82,5.43-2.87,1.42-.51,4.46,3.36,4.28a175.49,175.49,0,0,0,25.2-2.89c5.58-1.09,12.84-2.19,13.08-6,0-1.14-1.45-2.13-3.45-2.43a82.29,82.29,0,0,0-28.83.61c-4.69,1-4.12,5,1.32,5a124.27,124.27,0,0,0,23.5-2.26c2.45-.43,3.8-1.86,3-3.2a4.34,4.34,0,0,0-3.14-1.68c-6.59-1.27-26.4-2.13-26.3,4,0,3.21,7.45,4.09,11.71,5.11l20.14,4.77-.15-4.37a31.29,31.29,0,0,1-14.69,1l1.25,4.62,17.48-7.5c3.11-1.33,2.77-3.94-1.25-4.61-9.19-1.57-19.2-.22-26,3.51-2.37,1.26-1.17,3.87,2.19,4.19,6.12.68,12.46-.32,17-2.67,1.7-.82,1.39-2.09.61-3.07a12.3,12.3,0,0,0-3.32-2.67c-4-2.42-10.32,1.24-6.36,3.65a5,5,0,0,1,1.82,1.66l.6-3.07a15,15,0,0,1-8.08,1.27l2.18,4.2c4.52-2.42,11.14-3.23,17.1-2.1l-1.26-4.61-17.48,7.5c-3,1.3-2.84,4,1.26,4.61a47.32,47.32,0,0,0,21.77-1.62c2.72-.9,3.08-3.6-.15-4.37l-22-5.21c-.76-.18-5.35-1.41-5.5-1.31l1.1,1.67a37,37,0,0,1,3.7-.48,38.8,38.8,0,0,1,10.37.75l-.12-4.89a110.55,110.55,0,0,1-21.08,2.08l1.3,5a67,67,0,0,1,24-.57l-3.47-2.43c0-.46-4.59.77-5.48.94q-3.68.75-7.49,1.32a159.92,159.92,0,0,1-16.22,1.55l3.38,4.28c6.66-3.31,13.5-6.34,22.78-4.25a90.84,90.84,0,0,1,10.1,2.94c2.87,1,9.27,2.79,9,4.92l6.84-2.24c-9.13-2.45-16.65-6.08-24.14-9.8l-6.36,3.66,17.42,8.63,8.33,4.13c2.56,1.27,6.83,2.73,8.35,4.46l-.53-2-.21.62,2.06-1.53c-1.49.63-10.26-1.53-12-1.88-4.26-.89-8.39-2-12.52-3a231.54,231.54,0,0,0-24.11-5.23c-5.07-.74-7.88,3.25-3.37,4.66a168.43,168.43,0,0,0,49.42,7.07c6,0,5.76-4.85-.08-5.06-29.59-1.09-59.33-2.26-87.85-7l-2.28,4.9,81,6.52,1.09-5c-32-1.43-64.75-3-94.37-10.3l-3.37,4.66c30.27,3.73,60.79,7.4,92,7.49,5.07,0,6.37-4.6,1.1-5-29.45-2.1-59.38-4.22-87.14-10.33l-3.37,4.66a753.65,753.65,0,0,0,86.77,8.29c5.19.2,6.21-4.42,1.09-5-31.27-3.48-62.85-7-92.27-14l-3.37,4.67a520,520,0,0,0,90.2,7.52c5,0,6.37-4.55,1.09-5l-36.65-3c-11.56-.94-23.14-1.93-34.88-1.79-4.55.06-6.25,3.52-2.18,4.74a136.33,136.33,0,0,0,51,4.72c4.81-.43,3.84-4.23-.13-4.88-13.82-2.26-28-3.52-42.17-5-13.42-1.4-29.13-2.56-40.82-6.65l-1,4.65,1.47.32-.15-3.58a7.45,7.45,0,0,1-3.75,1.3l2.53,4.86c3.2-.57,6.8-1.34,10-.36l1-4.64q-8.82,2-17.94,3.59c-5.14.86-3.77,4.76,1.31,5,9.53.37,18.88-.52,28.24-1.46l-3.66-4.59a234.1,234.1,0,0,1-26.13,6.15l2.53,4.87q7.65-1.79,15.4-3.41l7.32-1.48c1.67-.33,5-1.33,6.74-.8l-.15-4.38a199.13,199.13,0,0,1-31.83,7l3.66,4.59a234.25,234.25,0,0,1,38.46-6.1l-2.44-4.69a116,116,0,0,1-35.38,6.87l1.3,5a237.35,237.35,0,0,1,38.15-3.34l-1.31-5a220.51,220.51,0,0,1-37.58,4.74c-5.88.23-5.84,5.27.09,5.06q25.08-.87,50.3-1l-.08-5.05-53.76,2.53c-5,.21-6.37,4.22-1.09,5,24.93,3.59,50.78,3.84,76.4,4,5.95,0,5.8-4.93-.09-5l-91.07-1.85c-5.28-.11-6.08,4.27-1.09,5l2.81.4c5.75.82,8-4.09,2.28-4.9Z" transform="translate(-112.31 -328.07)"/><path class="cls-1" d="M662,1050.62c7.84.75,13,4.48,20.1,6.24,7.57,1.89,15.87,1.6,23.8.75,9.71-1.06,19.23-2.65,28.89-3.75q16-1.83,32.26-2.93c5.82-.39,5.79-5.45-.09-5.06-19.94,1.39-39.35,3.67-58.85,6.29-8,1.08-16.65,1.94-24.19-.43-6.67-2.1-11.84-5.25-19.72-6-5.82-.55-8.13,4.35-2.29,4.91Z" transform="translate(-112.31 -328.07)"/><path class="cls-2" d="M609.12,1046.05c11.76,2.42,25.51.23,36.37-2.67a13.33,13.33,0,0,0,8.85-6.65c2.39-4.08,3.83-8.38,5.65-12.54l-3.12,1c9.14,1.55,18.3,3.07,27.43,4.63,4.26.73,6.12,2.39,8.93,4.14a82,82,0,0,0,9.62,5.07c2.52,1.14,6.08-.88,3.54-2a80.57,80.57,0,0,1-10.22-5.44c-2.48-1.59-4.25-3.16-7.88-4-9.63-2.15-20.21-3.44-30.15-5.12-1.36-.18-2.74.27-3.11,1-1.33,3-2.64,6.11-4,9.15-1.45,3.26-2.63,6.94-8.66,8.45-9.79,2.46-21.51,4.41-32,2.25-3.09-.63-4.32,2.1-1.27,2.73Z" transform="translate(-112.31 -328.07)"/><path class="cls-2" d="M691.44,1031.54c6.95-.8,13.9-.32,20.89,0,6.68.31,13.39.41,20.09.3,7-.06,14.33.25,21.24-.26a20.88,20.88,0,0,0,11.85-4.73l-3.61,0c10.59,5,17.57,11.62,24.65,18.15,2.93,2.7,5.71,5.93,10.18,8,4.32,2,11,2.32,14.28,4.93l.33-1.7c-1.76,1.14-3.4,2.29-5,3.52l2.84-.68c-8-1-16.42-1.18-24.55-1.69L759,1055.84c-8.43-.52-16.88-1-25.37-1.19-3.65-.08-9.84.54-13.21-.36s-6.53-3.07-9.35-4.45c-2.48-1.19-6,.84-3.54,2,5,2.43,9.3,5.48,16.38,5.53,9.16.07,18.22.28,27.34.79s18.35,1.12,27.48,1.7c9.63.61,19.72.83,29.17,2a3.82,3.82,0,0,0,2.84-.67c1.33-1,2.71-2,4.19-2.94.79-.46.92-1.16.34-1.7-3-2.44-7.53-3.23-12.13-4.53-6.43-1.82-9.66-5.93-13.22-9.22-7-6.46-14.17-12.92-24.58-17.89a4.28,4.28,0,0,0-3.62,0c-1.94,1.44-4.1,3.2-7.37,3.75-3,.51-6.86.24-10,.27-6.52.06-13,.15-19.54.15-11.64,0-23.32-1.6-34.88-.29-3.22.36-1.8,3.06,1.41,2.7Z" transform="translate(-112.31 -328.07)"/><path class="cls-2" d="M716.65,1054.36q-8.35,1.19-16.74,2.27c-3.19.41-6.41,1-9.66.73s-5-1.85-7.2-3.19c-2.95-1.77-6.06-4.52-9.92-5.66-3.4-1-8.41-.09-12,.13-3.25.2-3.22,3,0,2.81,2.42-.15,5.78-.69,8.24-.51,2.79.2,5,2.2,6.78,3.24,3.1,1.85,6.77,5.06,11.2,6,3.76.83,8.41-.19,12.11-.66q9.33-1.18,18.6-2.51c3.2-.45,1.79-3.15-1.4-2.7Z" transform="translate(-112.31 -328.07)"/><path class="cls-2" d="M680,1054.14c-11.3-2.31-23.76-2.9-35.61-3.82q-8.79-.69-17.59-1.28c-2.82-.2-5.67-.33-8.48-.56-1.48-.12-3.94-.13-5.11-.67s-2.6-2.67-3.06-3.3c-1.23-1.67-6.16-.91-4.92.77,1.65,2.23,3.33,5,8,5.67,7,1,14.87,1,22.06,1.51,14.37,1,29.77,1.64,43.41,4.41,3.09.63,4.33-2.1,1.27-2.72Z" transform="translate(-112.31 -328.07)"/><path class="cls-2" d="M657.78,1042.81l16.15-5.25c.25-.09.33-.26.18-.4a.77.77,0,0,0-.72-.1l-16.16,5.24c-.25.09-.34.27-.18.4a.8.8,0,0,0,.72.1Z" transform="translate(-112.31 -328.07)"/><path class="cls-2" d="M658.56,1041.23c3.69-1.32,7.54-2.51,11.51-3.56.59-.16.06-.63-.55-.5q-6,1.57-11.5,3.57C657.47,1040.93,658,1041.42,658.56,1041.23Z" transform="translate(-112.31 -328.07)"/><path class="cls-2" d="M747.89,1049l24.55,5.37a.77.77,0,0,0,.69-.1c.12-.11.08-.25-.09-.34a2.78,2.78,0,0,0-1.34-.53c-.59-.16-1.09.34-.49.49l1.12.44.61-.44-24.56-5.38c-.6-.13-1.1.35-.49.49Z" transform="translate(-112.31 -328.07)"/><path class="cls-2" d="M747.71,1046.6l12.68,3.47c.58.16,1.08-.33.49-.49l-12.68-3.47C747.61,1046,747.11,1046.44,747.71,1046.6Z" transform="translate(-112.31 -328.07)"/><path class="cls-2" d="M689.19,1055.11l8.73-2.42c.59-.17.06-.65-.54-.5l-8.74,2.42C688.06,1054.77,688.59,1055.25,689.19,1055.11Z" transform="translate(-112.31 -328.07)"/><path class="cls-2" d="M690.1,1053.8a41.62,41.62,0,0,1,4.27-1.18c.6-.13.33-.67-.28-.54a46.06,46.06,0,0,0-4.53,1.24c-.25.08-.33.26-.18.4a.8.8,0,0,0,.72.1Z" transform="translate(-112.31 -328.07)"/><path class="cls-2" d="M738.73,1037.55a116.82,116.82,0,0,1,11.23-5.38c.52-.22,0-.69-.54-.5a119.83,119.83,0,0,0-11.43,5.47c-.47.25.27.64.73.39Z" transform="translate(-112.31 -328.07)"/><path class="cls-2" d="M733.48,1037.24l2.6-1.46c.17-.12.13-.3-.09-.4a.91.91,0,0,0-.65,0l-2.59,1.46c-.2.11-.19.29,0,.39a.83.83,0,0,0,.72,0Z" transform="translate(-112.31 -328.07)"/><path class="cls-2" d="M768.86,1038.39l10.1,1.34c.64.09.9-.46.26-.54l-10.11-1.34c-.28,0-.54.09-.58.24s.11.26.33.3Z" transform="translate(-112.31 -328.07)"/><path class="cls-2" d="M680.85,1032.76l6.93-2.15c.57-.18,0-.66-.55-.5l-6.92,2.15c-.58.17,0,.66.53.5Z" transform="translate(-112.31 -328.07)"/><path class="cls-2" d="M622.55,1049.71a54.22,54.22,0,0,0,6.68-2.8c.48-.25-.26-.63-.74-.39a51.64,51.64,0,0,1-6.48,2.71c-.25.08-.33.26-.18.4a.82.82,0,0,0,.73.1Z" transform="translate(-112.31 -328.07)"/><path class="cls-3" d="M631.43,1046.85c9.25-1.21,17.53-2.89,23-7.39.36-.3-.53-.57-.9-.27-5.34,4.35-13.49,6-22.42,7.12C630.52,1046.41,630.8,1047,631.43,1046.85Z" transform="translate(-112.31 -328.07)"/><path class="cls-3" d="M659.55,1026.12l25.23,4.29c.63.11.84-.43.25-.54l-25.23-4.29C659.16,1025.47,659,1026,659.55,1026.12Z" transform="translate(-112.31 -328.07)"/><path class="cls-3" d="M686.78,1030.92l12.28,6.19c.49.24,1.2-.16.71-.41l-12.27-6.18C687,1030.27,686.31,1030.71,686.78,1030.92Z" transform="translate(-112.31 -328.07)"/><path class="cls-3" d="M697.23,1031.72a142.37,142.37,0,0,1,16.94.8c.65.07.91-.48.26-.55a146.67,146.67,0,0,0-17.2-.8c-.29,0-.53.13-.52.29s.24.29.53.29h0Z" transform="translate(-112.31 -328.07)"/><path class="cls-3" d="M716.84,1031.85a.65.65,0,0,0-.64-.2c-.27,0-.42.2-.35.35a.63.63,0,0,0,.64.19C716.76,1032.15,716.91,1032,716.84,1031.85Z" transform="translate(-112.31 -328.07)"/><path class="cls-3" d="M718.88,1032.24l14.19.07c.29,0,.52-.14.51-.3s-.25-.29-.54-.28l-14.18-.07c-.3,0-.53.13-.52.29S718.59,1032.24,718.88,1032.24Z" transform="translate(-112.31 -328.07)"/><path class="cls-3" d="M735.34,1032.44c2.95.08,5.91.06,8.86-.06.66,0,.65-.59,0-.58q-4.42.18-8.87.06C734.65,1031.84,734.67,1032.4,735.34,1032.44Z" transform="translate(-112.31 -328.07)"/><path class="cls-3" d="M738,1038.5q5.52-2.26,10.53-4.87c.48-.25-.27-.64-.74-.39q-4.9,2.55-10.28,4.78c-.53.21,0,.69.54.5Z" transform="translate(-112.31 -328.07)"/><path class="cls-3" d="M733.6,1037.87l5.15-2.37c.51-.23-.24-.62-.73-.39l-5.16,2.37c-.5.23.24.62.75.39Z" transform="translate(-112.31 -328.07)"/><path class="cls-3" d="M680,1033.83c2-.59,3.83-1.24,5.62-2,.53-.21,0-.7-.53-.5q-2.7,1.1-5.63,2c-.57.17,0,.65.54.5Z" transform="translate(-112.31 -328.07)"/><path class="cls-3" d="M657.06,1043.71q8.61-3,17.69-5.58c.59-.16,0-.65-.54-.5q-9.08,2.55-17.69,5.57c-.25.08-.33.26-.18.4a.8.8,0,0,0,.72.1Z" transform="translate(-112.31 -328.07)"/><path class="cls-3" d="M659.17,1041.72q5.82-1.73,11.4-3.67c.25-.08.33-.26.18-.39a.79.79,0,0,0-.73-.1q-5.58,1.93-11.4,3.66C658.05,1041.39,658.57,1041.87,659.17,1041.72Z" transform="translate(-112.31 -328.07)"/><path class="cls-3" d="M689.21,1055.74l9.5-2.55c.59-.17,0-.64-.55-.5l-9.49,2.55C688.07,1055.4,688.61,1055.88,689.21,1055.74Z" transform="translate(-112.31 -328.07)"/><path class="cls-3" d="M689.11,1054.5l1.46-.39c.59-.16.06-.64-.54-.5l-1.46.38c-.6.16-.07.64.53.5Z" transform="translate(-112.31 -328.07)"/><path class="cls-3" d="M626.39,1048.9a5.21,5.21,0,0,1,2-.9c.61-.13.34-.67-.28-.54a6.69,6.69,0,0,0-2.51,1c-.39.28.35.67.74.38Z" transform="translate(-112.31 -328.07)"/><path class="cls-3" d="M747.06,1049.36c8.54,2.06,17.28,3.88,26.16,5.44.64.11.84-.43.26-.54q-13.2-2.33-25.92-5.4C747,1048.72,746.45,1049.21,747.06,1049.36Z" transform="translate(-112.31 -328.07)"/><path class="cls-3" d="M745.9,1046.68l13.46,4c.58.17,1.08-.32.5-.49l-13.47-4c-.58-.17-1.08.32-.49.49Z" transform="translate(-112.31 -328.07)"/><path class="cls-3" d="M767.69,1039l11.4,1.46c.64.09.9-.46.25-.54l-11.4-1.46C767.3,1038.34,767,1038.89,767.69,1039Z" transform="translate(-112.31 -328.07)"/><path class="cls-3" d="M751.52,1032.57a19.68,19.68,0,0,0,6.33-1.25c2-.87,3.93-1.83,5.88-2.75.49-.23-.24-.62-.75-.39-3.59,1.7-6.58,3.46-11.47,3.83-.65,0-.64.61,0,.58Z" transform="translate(-112.31 -328.07)"/><path class="cls-3" d="M763.54,1028.63a53.19,53.19,0,0,1,6.94,3.62c.43.27,1.15-.14.71-.41a55.09,55.09,0,0,0-6.94-3.61C763.74,1028,763,1028.42,763.54,1028.63Z" transform="translate(-112.31 -328.07)"/><path class="cls-3" d="M772.07,1032.93a.64.64,0,0,0-.63-.2c-.27,0-.43.2-.35.35a.61.61,0,0,0,.63.19C772,1033.23,772.15,1033.08,772.07,1032.93Z" transform="translate(-112.31 -328.07)"/><path class="cls-3" d="M772.55,1034.14a49.1,49.1,0,0,1,5,4,.79.79,0,0,0,.73.1c.25-.08.33-.25.18-.39a49.16,49.16,0,0,0-4.95-4c-.39-.29-1.27,0-.91.3Z" transform="translate(-112.31 -328.07)"/><path class="cls-3" d="M659.07,1049.35c5.41-.5,10.85-2.68,15.36.15.44.27,1.14-.14.71-.41a12.51,12.51,0,0,0-6.44-1.67c-3.34,0-6.6,1.1-9.91,1.41-.65.05-.37.6.28.54Z" transform="translate(-112.31 -328.07)"/><path class="cls-3" d="M707.86,1048.7l8.09,3.7c1.65.75,3.5,2,5.85,2,.29,0,.52-.13.52-.29s-.25-.29-.54-.29c-2.34,0-5.62-2-7.32-2.83l-5.89-2.7c-.5-.22-1.21.19-.7.41Z" transform="translate(-112.31 -328.07)"/><path class="cls-3" d="M806.39,1055.45a27.6,27.6,0,0,1-16.71-7.23.85.85,0,0,0-.73-.1c-.25.09-.33.27-.18.4A28.7,28.7,0,0,0,806.1,1056c.65,0,.91-.49.25-.54Z" transform="translate(-112.31 -328.07)"/><path class="cls-3" d="M787.12,1046.93l.4.18c.27,0,.42-.2.35-.35a.65.65,0,0,0-.64-.19c-.41,0-.67.29-.56.51a.49.49,0,0,0,.28.24,1.18,1.18,0,0,0,1.06-.12.28.28,0,0,0,.12-.28c-.08-.35-1.1-.35-1,0Z" transform="translate(-112.31 -328.07)"/><path class="cls-3" d="M786,1044.86l-3.2-3.17c-.32-.32-1.19,0-.91.3l3.2,3.16C785.4,1045.47,786.27,1045.18,786,1044.86Z" transform="translate(-112.31 -328.07)"/><path class="cls-1" d="M118.08,353.42c18.7-6.81,38.17-13.2,57.33-19.74,1.11-.38.09-1.32-1.2-1.59A10,10,0,0,0,171,332a18.48,18.48,0,0,1-4.68-.09c-3.52-.51-7.07-1.27-10.53-1.9l-5.46-1a18.54,18.54,0,0,0-4.5-.59c-1.06.1-1.64.57-1.41,1.12.09.25.47.5.46.73s-.77.69-1.2.92c-4.21,2.22-9.79,3.94-14.77,5.77a40.9,40.9,0,0,1-8,2.13c-2.08.32-6.5.34-5.37,2a18.59,18.59,0,0,0,3,2.62c1.07.93,2.36,1.87,3.25,2.83s-.48,1.78-1.45,2.53l-3.11,2.43c-1.13.89,2.38,2,3.51,1.15l3.46-2.73c1-.74,2.12-1.48,1.85-2.51s-1.61-1.93-2.63-2.82l-2-1.74c-.62-.53-2.08-1.42-2.2-2l-.43.61a10.77,10.77,0,0,1,2.69-.42c.77-.1,1.56-.21,2.32-.33a38.14,38.14,0,0,0,4.73-1.13c3.14-1,6-2.11,8.86-3.2s6-2.11,8.53-3.36a6.6,6.6,0,0,0,2.56-1.69,1.13,1.13,0,0,0,.19-.95,1.52,1.52,0,0,0-.25-.49c0-.06-.32-.48-.26-.29l-.42.61-.51,0,1.25.23,2.1.38,3.79.69,8,1.46c1.91.35,3.85.72,5.8.89a20.51,20.51,0,0,0,2.92.06,9.82,9.82,0,0,1,2.56-.14l-1.2-1.59c-19.15,6.54-38.63,12.92-57.33,19.73-1.72.63,1.26,2.11,3,1.49Z" transform="translate(-112.31 -328.07)"/><path class="cls-1" d="M123.64,348.17l-1,.22,2.6,1.6,25.5-10.15-3-1.49c-6.75,2.88-13.56,5.76-22.08,7.58l2.61,1.6,13-7.08c1.4-.76-1.39-2.19-3-1.48q-6.69,3-12.93,6.2l3,1.48a24.29,24.29,0,0,0,7.86-6.15c.66-.83-1.79-2-3.24-1.31a29.65,29.65,0,0,0-8.82,5.82c-.81.8,1.94,2,3.24,1.31,3.52-1.85,5.71-4.25,6.34-7,.18-.77-2.3-1.78-3.38-1.1a23.55,23.55,0,0,0-7.59,7.1c-.61.93,2.75,1.69,3.65.92a16.58,16.58,0,0,0,4.74-6.24c.14-.48-.6-1-1.66-1.22a4.2,4.2,0,0,0-.93-.06,4.52,4.52,0,0,0-3.76,2.05c-1.06,1.24-2,2.5-3,3.79-.7,1,2.56,2.12,3.51,1.14a19.21,19.21,0,0,0,3.72-5.33c.46-1-2.65-1.63-3.66-.92a25.39,25.39,0,0,1-6.18,3.4l3.21,1.33a24.63,24.63,0,0,0,2.72-3.17c.48-.66-.75-1.58-2.44-1.49a6.2,6.2,0,0,0-4.59,2c-.93,1,2.38,2,3.51,1.14a1.37,1.37,0,0,0,.55-1.71c-.13-.51-1.07-1-2.11-1a5.05,5.05,0,0,0-3.67.77c-.78.65.93,1.53,2.44,1.49,5.63-.17,10.61-1.62,15.12-2.79,4.84-1.28,9.55-2.65,14.78-3.65l-2.88-1.43c-3.29,2.18-8.32,3.55-14.3,3.92l2.15,1.64A77.26,77.26,0,0,1,144,336.34l10.92-3.25-2.61-1.6a121.36,121.36,0,0,1-27.85,8.15c-1.81.33-.15,2,1.82,1.78,12.28-1.42,23.07-4.1,33.76-6.82L157.43,333a183.54,183.54,0,0,1-27.36,7.52c-1.76.36-.14,2,1.81,1.78,11.37-1.5,20.87-4.38,30.26-7.31l-2.61-1.6c-8.2,3.54-18.26,6-28.29,8.36-1.66.4-.23,2,1.81,1.78,12.85-1.38,23-4.89,32.89-8.4,1.51-.54-1-2.09-2.61-1.6l-25.53,7.6c-1.82.54.13,2.11,2.25,1.72,10.67-2,19.57-5.25,28.35-8.49l-3-1.49a46.64,46.64,0,0,1-15.77,3.37L151.5,338c3.39-.7,7.14-1,10.83-1.39,1.69-.19,3.37-.39,5-.66s3.41-.52,4.3-1.12.41-1.25-.78-1.74l0,0c-1.58-.64-4-.55-5.7-.63l-15.18-.8c-2.44-.12-2,1.7.43,1.83a94.56,94.56,0,0,0,13.13.07c1-.07,1.47-.55,1.06-1.06a1.65,1.65,0,0,0-.53-.41c-1.86-1-4.29-1.15-6.57-1.16a56.89,56.89,0,0,0-7.4.4c-5.2.66-5.84,2.94-5.64,5.47.06.75,2.46,1.38,3.39.87a18.82,18.82,0,0,0,5.08-3.82c.86-1,2.16-2.16,0-3.33a4,4,0,0,0-2.34-.31c-3.42.67-6,1.92-7.38,3.57-.69.84,1.8,2,3.25,1.31a14.21,14.21,0,0,0,5-3.43c.41-.41-.07-1-1.06-1.3a3.81,3.81,0,0,0-1.82-.13c-2.5.4-8.31,2.48-4.7,4.29,1.87.94,4.38.33,6.11.13l8.18-1-2.59-1.28c-.31,1-1.53,1.7-3.33,2l3,1.22.32-4.28c.06-.76-1.55-1.49-3-1.21-3.38.61-5.28,2.19-4.94,4.09.1.66,1.94,1.29,3,1,2-.52,3.16-1.56,3-2.79,0-.44-.85-.78-1.63-1a15.33,15.33,0,0,0-2.44-.4c-2.48-.25-2,1.58.42,1.83a7,7,0,0,1,1.45.27l-1.62-1c.06.58-.47,1.07-1.43,1.32l3,1c-.2-1.25,1.1-2.27,3.36-2.64l-3-1.21-.32,4.27c-.06.74,1.56,1.51,3,1.22,2.65-.52,4.42-1.63,4.89-3,.21-.59-1.27-1.43-2.58-1.28l-8.93,1.05c-.31,0-2.26.21-2.23.26l1.26.36a3.87,3.87,0,0,1,.71-.58,9.06,9.06,0,0,1,3.22-1l-2.88-1.43a12.69,12.69,0,0,1-4.44,3.09l3.23,1.31c1.11-1.38,3.26-2.43,6.11-3l-2.34-.31c-.26-.14-.79.77-.92.92a14.84,14.84,0,0,1-1.24,1.28,19.13,19.13,0,0,1-3.45,2.36l3.4.87c-.15-1.76-.07-3.46,3.63-3.94,1.42-.17,2.9-.28,4.42-.31,1.35-.05,4.11-.27,5.29.39l.53-1.47a87.06,87.06,0,0,1-12.18-.06l.42,1.83L160,334l4.63.24a30.21,30.21,0,0,1,4.84.33l-1.28-.51.31.21-.35-.7c0,.36-3.64.76-4.3.85-1.66.24-3.4.41-5.12.59a91,91,0,0,0-9.51,1.28c-1.79.38-.22,1.89,1.81,1.78a51.37,51.37,0,0,0,17.37-3.72c1.61-.71-1.28-2.11-3-1.49-8.56,3.16-17.22,6.31-27.63,8.26l2.24,1.72,25.53-7.6L163,333.62c-9.4,3.34-19.08,6.74-31.3,8.05l1.81,1.78c10.29-2.46,20.61-5,29-8.6,1.37-.59-1-2.11-2.6-1.6-9.12,2.84-18.38,5.73-29.38,7.19l1.81,1.78a190.74,190.74,0,0,0,28.09-7.76c1.51-.55-.91-2-2.61-1.6-10.41,2.65-20.92,5.33-32.89,6.71l1.81,1.78A124.77,124.77,0,0,0,155.28,333c1.35-.59-.94-2.09-2.6-1.6l-11.55,3.44a78.91,78.91,0,0,0-10.39,3.57c-1.19.55.37,1.78,2.17,1.66,6.91-.44,12.7-2.06,16.44-4.61,1-.69-1.44-1.7-2.88-1.43-5,1-9.56,2.26-14.2,3.49-4.41,1.17-9.3,2.67-14.82,2.84l2.45,1.49.58-.08-2.13-1a.6.6,0,0,1-.24.83l3.51,1.14a3.15,3.15,0,0,1,2.46-1.28l-2.45-1.49a24.09,24.09,0,0,1-2.72,3.17c-.87.86,1.76,1.85,3.24,1.31a27.83,27.83,0,0,0,6.73-3.75l-3.66-.93a17.69,17.69,0,0,1-3.42,4.9l3.51,1.14c.68-1,1.39-1.89,2.15-2.82.36-.43.72-.87,1.09-1.3s.56-1,1.34-1l-2.58-1.28a15.58,15.58,0,0,1-4.44,5.83l3.65.93a21.38,21.38,0,0,1,6.76-6.33l-3.38-1.1c-.52,2.4-2.41,4.53-5.49,6.19l3.24,1.31a28,28,0,0,1,8.28-5.47l-3.24-1.31a22.55,22.55,0,0,1-7.32,5.82c-1.44.76,1.51,2.24,3,1.48q6.21-3.19,12.91-6.2l-3-1.49L125.36,346c-1.23.66.75,2,2.61,1.61,8.77-1.88,15.84-4.84,22.8-7.81,1.62-.69-1.32-2.14-3-1.48l-25.49,10.16c-1.48.59.86,2,2.6,1.6l1-.21c2-.44-.23-2.15-2.24-1.72Z" transform="translate(-112.31 -328.07)"/><path class="cls-1" d="M131.29,347.83c2.54-.71,6.11-.21,9-.52a13.32,13.32,0,0,0,6.81-2.58c2-1.45,3.61-3.05,5.57-4.51a82.16,82.16,0,0,1,6.94-4.66c1.33-.8-1.63-2.29-3-1.48a99.37,99.37,0,0,0-12.12,8.78,10.51,10.51,0,0,1-6.73,2.72c-3,.16-6.23-.16-8.78.54-1.89.52.35,2.24,2.24,1.72Z" transform="translate(-112.31 -328.07)"/><path class="cls-2" d="M114.46,352.69c4.56-.67,7-2.93,8.19-5.07.55-1-.31-2-1.5-3-1.73-1.49-3.85-2.93-5.79-4.38l-.25.67c3.36-.62,6.7-1.25,10.06-1.86a16.72,16.72,0,0,1,4.8.18c1.86.19,3.7.31,5.53.36,1.34.05,1.12-1-.23-1-2-.06-3.93-.19-5.91-.41a18.72,18.72,0,0,0-4.43-.25c-3.83.5-7.42,1.36-11.06,2-.47.11-.58.41-.24.67,1.42,1.06,2.85,2.12,4.25,3.18s3.34,2.36,2.6,3.51a9.55,9.55,0,0,1-7.26,4.43c-1.2.18.06,1.13,1.25.95Z" transform="translate(-112.31 -328.07)"/><path class="cls-2" d="M128.08,338.72a20.89,20.89,0,0,1,5.62-2.44,59.57,59.57,0,0,0,5.56-2.28,55.89,55.89,0,0,0,5.54-2.57c1.23-.75.94-1.76.43-2.8l-.95.44a116.89,116.89,0,0,1,17.19,2.47,47.66,47.66,0,0,0,7.37,1.16c2.31.08,4.3-.6,6.7-.21l-.9-.55a11,11,0,0,0,.72,1.63l.37-.54c-2.71.65-5.09,1.58-7.57,2.39L160.34,338c-2.56.84-5.11,1.69-7.49,2.63-1,.41-2.32,1.32-3.75,1.45a44.65,44.65,0,0,1-5.1-.22c-1.36-.06-1.13,1,.23,1,2.77.12,5.69.53,7.62-.29,2.49-1.06,5-2.06,7.78-3s5.58-1.83,8.36-2.73c2.94-1,5.77-2.08,9-2.85.37-.09.52-.3.37-.53a8.89,8.89,0,0,1-.59-1.36c-.06-.23-.43-.45-.9-.54a21.77,21.77,0,0,0-5.89.08c-2.79.22-6.05-.62-8.92-1.17a117.43,117.43,0,0,0-17-2.4c-.5,0-1.08.15-.94.44.32.65.76,1.42.21,2a10,10,0,0,1-2.52,1.25c-1.71.79-3.41,1.58-5.15,2.35-3.13,1.36-7.19,2.27-9.52,4-.65.49,1.3,1.12,2,.64Z" transform="translate(-112.31 -328.07)"/><path class="cls-2" d="M148.12,342.5c-1,.89-2.08,1.77-3.16,2.64a5.24,5.24,0,0,1-2.17,1.35,11.59,11.59,0,0,1-3.78-.09,41.36,41.36,0,0,0-6-.51,6.39,6.39,0,0,0-3.14,1.45c-.76.45.89,1.27,1.65.83a9.07,9.07,0,0,1,1.9-1.12,12.78,12.78,0,0,1,3.71.16c1.91.18,4.76.7,6.52.47a5.17,5.17,0,0,0,2.86-1.62c1.21-1,2.39-1.94,3.53-2.93.59-.51-1.36-1.14-2-.63Z" transform="translate(-112.31 -328.07)"/><path class="cls-2" d="M138.17,346.75a79.57,79.57,0,0,0-11.78,3.06c-1.84.55-3.66,1.12-5.46,1.69-.87.27-1.71.57-2.6.83a5.42,5.42,0,0,1-1.76.4,19.52,19.52,0,0,1-2.75-.61c-1.29-.35-2.17.45-.86.8,1.74.47,3.83,1.11,5.45.74,2.44-.55,4.55-1.46,6.78-2.15,4.47-1.38,8.94-3,14.22-3.8,1.19-.18-.07-1.13-1.25-.95Z" transform="translate(-112.31 -328.07)"/><path class="cls-2" d="M125.61,346l1.27-3.45c0-.06-.06-.12-.18-.14s-.23,0-.25.05l-1.28,3.46c0,.05.06.11.19.13s.23,0,.25-.05Z" transform="translate(-112.31 -328.07)"/><path class="cls-2" d="M124.91,345.45a9.29,9.29,0,0,1,1-2.41c.06-.11-.36-.19-.44-.08a9.88,9.88,0,0,0-1,2.41C124.44,345.49,124.86,345.57,124.91,345.45Z" transform="translate(-112.31 -328.07)"/><path class="cls-2" d="M153.36,337.24l9.72-1.3c.11,0,.16-.06.12-.11a.27.27,0,0,0-.22-.09,1.88,1.88,0,0,0-.67,0c-.25,0-.09.23.16.2H163l-.09-.2-9.72,1.3c-.24,0-.09.23.15.2Z" transform="translate(-112.31 -328.07)"/><path class="cls-2" d="M151.93,336.56l5.42-.47c.25,0,.1-.22-.15-.2l-5.42.46C151.53,336.37,151.68,336.58,151.93,336.56Z" transform="translate(-112.31 -328.07)"/><path class="cls-2" d="M141.2,346l.93-1.74c.06-.12-.36-.2-.44-.08l-.93,1.74C140.7,346,141.12,346.07,141.2,346Z" transform="translate(-112.31 -328.07)"/><path class="cls-2" d="M140.68,345.46a3,3,0,0,1,.46-.85c.08-.11-.31-.24-.39-.13a3.06,3.06,0,0,0-.49.9c0,.06.06.12.18.14s.23,0,.25,0Z" transform="translate(-112.31 -328.07)"/><path class="cls-2" d="M144.25,334.93a10.19,10.19,0,0,1-.12-2.91c0-.12-.41-.2-.44-.08a10.55,10.55,0,0,0,.12,3c0,.13.45.16.43,0Z" transform="translate(-112.31 -328.07)"/><path class="cls-2" d="M142.67,335.46l-.16-.74c0-.05-.14-.1-.25-.1s-.17,0-.17.07l.15.74c0,.06.12.11.24.12s.2,0,.19-.09Z" transform="translate(-112.31 -328.07)"/><path class="cls-2" d="M152.82,331.64l3.49-.79c.22-.05,0-.24-.25-.19l-3.48.79c-.09,0-.1.09,0,.14a.47.47,0,0,0,.26.05Z" transform="translate(-112.31 -328.07)"/><path class="cls-2" d="M126,340.33l.6-1.46c0-.12-.37-.2-.44-.08l-.6,1.45c-.05.12.37.2.43.08Z" transform="translate(-112.31 -328.07)"/><path class="cls-2" d="M120.19,352.19a4.16,4.16,0,0,0,.16-1.61c0-.13-.44-.16-.43,0a4,4,0,0,1-.16,1.57c0,.05.07.11.19.13s.23,0,.25-.05Z" transform="translate(-112.31 -328.07)"/><path class="cls-3" d="M120.9,350.3c1.78-1.44,3-2.91,1.87-4.89-.07-.13-.47-.11-.39,0,1.1,1.92-.15,3.35-1.87,4.75C120.4,350.28,120.79,350.41,120.9,350.3Z" transform="translate(-112.31 -328.07)"/><path class="cls-3" d="M116.37,340.87l9.26-1.7c.23,0,0-.23-.25-.19l-9.26,1.7C115.88,340.72,116.14,340.9,116.37,340.87Z" transform="translate(-112.31 -328.07)"/><path class="cls-3" d="M126.47,339.08l6.89.39c.27,0,.23-.19,0-.2l-6.9-.39C126.15,338.87,126.21,339.08,126.47,339.08Z" transform="translate(-112.31 -328.07)"/><path class="cls-3" d="M129.73,338.09a29.63,29.63,0,0,1,5-1.76c.21-.05,0-.24-.25-.19a30.45,30.45,0,0,0-5.08,1.79c-.08,0-.06.1,0,.15a.48.48,0,0,0,.31,0h0Z" transform="translate(-112.31 -328.07)"/><path class="cls-3" d="M135.06,335.82a.36.36,0,0,0-.28,0c-.05,0,0,.11.11.14a.33.33,0,0,0,.28,0C135.22,335.92,135.17,335.86,135.06,335.82Z" transform="translate(-112.31 -328.07)"/><path class="cls-3" d="M135.84,335.7l3.84-1.65c.08,0,.06-.1,0-.15a.42.42,0,0,0-.31,0l-3.85,1.65c-.07,0-.06.1,0,.15A.48.48,0,0,0,135.84,335.7Z" transform="translate(-112.31 -328.07)"/><path class="cls-3" d="M140.37,333.82a21.12,21.12,0,0,0,2.34-1.06c.16-.08-.17-.25-.34-.17a22.18,22.18,0,0,1-2.35,1.06C139.84,333.73,140.17,333.89,140.37,333.82Z" transform="translate(-112.31 -328.07)"/><path class="cls-3" d="M144.61,335.3a11.45,11.45,0,0,0,0-2.68c0-.13-.45-.15-.43,0a10.94,10.94,0,0,1,0,2.62c0,.12.41.2.44.08Z" transform="translate(-112.31 -328.07)"/><path class="cls-3" d="M143.06,335.63v-1.3c0-.13-.42-.16-.42,0v1.3c0,.13.43.16.43,0Z" transform="translate(-112.31 -328.07)"/><path class="cls-3" d="M126.35,340.74a4.69,4.69,0,0,0,.36-1.25c0-.12-.41-.2-.44-.08a4.42,4.42,0,0,1-.35,1.25c-.06.11.37.19.43.08Z" transform="translate(-112.31 -328.07)"/><path class="cls-3" d="M126,346.36a19.1,19.1,0,0,1,1.49-3.73c.06-.12-.36-.2-.44-.08a19.66,19.66,0,0,0-1.49,3.72c0,.06.06.12.18.14s.23,0,.25-.05Z" transform="translate(-112.31 -328.07)"/><path class="cls-3" d="M125.35,345.52a16.93,16.93,0,0,0,.92-2.42c0-.05-.06-.12-.18-.14s-.23,0-.25.06a17.46,17.46,0,0,1-.93,2.42C124.86,345.56,125.28,345.64,125.35,345.52Z" transform="translate(-112.31 -328.07)"/><path class="cls-3" d="M141.57,346.14l1.06-1.87c.06-.12-.36-.2-.44-.09l-1.05,1.87C141.07,346.17,141.49,346.25,141.57,346.14Z" transform="translate(-112.31 -328.07)"/><path class="cls-3" d="M140.82,345.78l.17-.28c.06-.12-.36-.2-.44-.09l-.17.29c-.07.11.35.19.44.08Z" transform="translate(-112.31 -328.07)"/><path class="cls-3" d="M120.75,351.5a.44.44,0,0,1,0-.5c.08-.11-.31-.24-.39-.13a.53.53,0,0,0-.07.6c.06.13.49.16.42,0Z" transform="translate(-112.31 -328.07)"/><path class="cls-3" d="M153.36,337.45q5.25-.6,10.19-1.47c.23,0,0-.22-.25-.19-3.26.58-6.63,1.06-10.09,1.45C153,337.27,153.12,337.48,153.36,337.45Z" transform="translate(-112.31 -328.07)"/><path class="cls-3" d="M151.49,336.79l5.93-.41c.25,0,.1-.22-.16-.2l-5.92.41c-.26,0-.1.22.15.2Z" transform="translate(-112.31 -328.07)"/><path class="cls-3" d="M152.84,332l3.91-.91c.22-.05,0-.24-.25-.19l-3.91.91C152.38,331.81,152.62,332,152.84,332Z" transform="translate(-112.31 -328.07)"/><path class="cls-3" d="M144.78,332a1.65,1.65,0,0,0,1-1.12c0-.49,0-1,0-1.5,0-.13-.43-.16-.43,0,0,.93.25,1.8-.85,2.48-.14.09.19.26.35.17Z" transform="translate(-112.31 -328.07)"/><path class="cls-3" d="M145.71,329.38c1.31,0,2.63.11,4,.25.27,0,.23-.17-.05-.2-1.33-.14-2.66-.23-4-.25C145.4,329.17,145.45,329.38,145.71,329.38Z" transform="translate(-112.31 -328.07)"/><path class="cls-3" d="M150.5,329.65a.33.33,0,0,0-.28,0c-.05,0,0,.11.11.15a.33.33,0,0,0,.28,0S150.61,329.68,150.5,329.65Z" transform="translate(-112.31 -328.07)"/><path class="cls-3" d="M151.33,330c1.22.16,2.44.36,3.65.59.12,0,.23,0,.25-.05s-.06-.12-.18-.14c-1.21-.24-2.43-.43-3.65-.6-.27,0-.33.15-.07.2Z" transform="translate(-112.31 -328.07)"/><path class="cls-3" d="M129.77,347.79c1.16-.78,1.35-2.06,4.21-1.76.27,0,.22-.17,0-.2a5.71,5.71,0,0,0-2.7.26c-.91.39-1.13,1.1-1.84,1.58-.14.09.25.22.39.13Z" transform="translate(-112.31 -328.07)"/><path class="cls-3" d="M142.47,341.86l4.33.15a7.8,7.8,0,0,0,2.73-.1c.08,0,.06-.1,0-.15a.48.48,0,0,0-.31,0c-.6.29-2.7.06-3.62,0l-3.15-.1c-.26,0-.21.2.05.2Z" transform="translate(-112.31 -328.07)"/><path class="cls-3" d="M172.82,332.27c-2.4.73-5.65.38-8.69-.17-.12,0-.23,0-.25.06s.06.11.18.14c3.14.57,6.52.92,9,.17.21-.06,0-.25-.25-.19Z" transform="translate(-112.31 -328.07)"/><path class="cls-3" d="M162.69,332h.21s0-.11-.11-.15a.32.32,0,0,0-.28,0c-.08.06,0,.16.15.22a.71.71,0,0,0,.21,0c.17,0,.27-.07.22-.15a.23.23,0,0,0-.13-.1c-.23-.1-.5,0-.28.13Z" transform="translate(-112.31 -328.07)"/><path class="cls-3" d="M161.18,331.54l-2.71-.56c-.27-.06-.33.13-.07.19l2.71.56C161.38,331.79,161.44,331.6,161.18,331.54Z" transform="translate(-112.31 -328.07)"/></svg>