<svg id="meteor" xmlns="http://www.w3.org/2000/svg" viewBox="0 0 283.55 221.16"><defs><style>.cls-1{fill:#a6a6cc;}.cls-2{fill:#76768e;}.cls-3{fill:#ebebff;}</style></defs><title>Trash5</title><path class="cls-1" d="M1699.6,985.63q37.34,8.4,74.89,15.79,18.13,3.48,36.34,6.69c10.62,1.87,21.89,5.11,32.14.21,9.23-4.44,16.53-13.41,23.52-20.78q11.61-12.15,22.23-25.23a445.9,445.9,0,0,0,39.69-57.45c6.53-11.26-11.24-20.87-17.75-9.67a414,414,0,0,1-35,51.27q-9.75,12.18-20.46,23.6-5.31,5.69-10.91,11.2c-2.83,2.81-6.25,7.36-10.14,8.87-3.44,1.33-7.41.08-10.88-.5q-9.12-1.59-18.19-3.22-16.89-3-33.73-6.35-33.64-6.62-67.1-14.28c-12.67-2.88-17.29,16.78-4.59,19.66Z" transform="translate(-1677.94 -878.83)"/><path class="cls-1" d="M1686,1071.83l-5,8.1,17.74,9.67,25-53.49,12-25.51c4.06-8.66,9.65-17.66,12.44-26.8,2.27-7.36-2.77-17.76-5-24.87q-4-12.49-9-24.66a361.74,361.74,0,0,0-23.56-47.14c-6.64-11.23-23.8-.52-17.16,10.65a333.41,333.41,0,0,1,35.74,85.43l.77-7.81-48.91,104.53c-5.52,11.79,10.87,20.72,17.74,9.67l5-8.08c6.87-11.06-10.91-20.66-17.75-9.67Z" transform="translate(-1677.94 -878.83)"/><path class="cls-1" d="M1785.42,1092.59l20.43-44.11c6.35-13.73,17-29.72,16-45.35-.89-14-11.57-25.67-18.2-37.36a272.2,272.2,0,0,1-18.78-40.89c-4.45-12.11-23.77-6.3-19.3,6A308,308,0,0,0,1782,968.05q4.68,9,10,17.56c3.16,5.1,8,10.63,9.41,16.6,1.47,6.43-2.39,13.06-5,18.71l-9.39,20.26-19.33,41.75c-5.51,11.74,12.27,21.47,17.73,9.68Z" transform="translate(-1677.94 -878.83)"/><path class="cls-1" d="M1896,1066.89c-1.18-31.52-2.6-63.11-5.39-94.53-.56-6.41-1.75-12.59-5.62-17.91-4.19-5.76-10.28-10.23-15.59-14.93l-36.3-32c-9.76-8.59-23.67,6.07-13.91,14.73l32.36,28.54c5.2,4.56,11.08,9,15.85,14,3.84,4.1,3.2,10.5,3.6,15.8q3.19,43.47,4.81,87.06c.49,13,20.65,12.22,20.2-.82Z" transform="translate(-1677.94 -878.83)"/><path class="cls-1" d="M1958.6,977.19,1948,941.72c-2.81-9.38-5.26-19-9.59-27.77a42.89,42.89,0,0,0-18.8-19.69c-9.34-4.82-20.06-6-29.12-11.47-11.13-6.75-20.73,11-9.67,17.74,8,4.84,16.92,6.51,25.5,9.85,7.68,3,12.32,8.08,15.42,15.63,7.49,18.26,11.81,38.27,17.51,57.19,3.73,12.44,23,6.52,19.37-6Z" transform="translate(-1677.94 -878.83)"/><path class="cls-2" d="M1727.59,968.81c-8.33-20.59-16.44-41.4-25.44-61.72a42.31,42.31,0,0,0-5.07-8.67c-2.79-3.68-3.54-7.92.63-11.1,3.13-2.37,8-3.43,11,.26,1.9,2.41,2.8,6.95,4.51,9.76,2.52,4.16,5.14,8.21,7.49,12.47,9.85,17.87,16.67,37.2,22.73,56.63.89,3,1.51,6.5,3.44,8.95,2.51,3.2,6.8,3.75,10.53,4.7a224.07,224.07,0,0,0,32.92,5.75c3.39.35,4.67-4.89,1.23-5.24-6.84-.7-13.63-1.64-20.38-2.93-5.08-1-13.12-1.5-17.53-4.1-5.23-3.13-6.18-12.19-8-17.59-1.94-6-4-11.82-6.2-17.64a253.61,253.61,0,0,0-12.6-28.24c-2.82-5.33-6-10.38-9.15-15.53a36.74,36.74,0,0,1-3.36-6.58c-.66-1.78-.8-4-2.05-5.53-4.2-5.12-14.65-2.42-18.93,1.12-5.55,4.62-5.69,11.47-1.57,16.94,7.39,9.82,11.21,22.61,15.88,33.92q7.44,18,14.73,36c1.29,3.18,6.45,1.63,5.14-1.56Z" transform="translate(-1677.94 -878.83)"/><path class="cls-2" d="M1792.14,980.94q-9.17-18.45-18.22-37l-4.54-9.24c-1-1.85-3.38-5-3.38-6.94,0-7.26,8.32-6.79,12.48-5.73s5.49,3.63,6.28,7.44c2.2,10.55,8.28,20.82,13.13,30.37a179.07,179.07,0,0,0,19.61,31.38c2.14,2.67,6.74-.14,4.56-2.85-10.43-13-18-27.85-25.21-42.87a110.29,110.29,0,0,1-5.82-13.16c-1-3-.94-6.44-2.27-9.31-2.12-4.56-6.9-6-11.57-6.6-5.2-.63-11.56-.55-15.13,3.92-3.41,4.29-1.6,8.21.49,12.56,8.22,17,16.63,33.92,25,50.78,1.53,3.13,6.1.25,4.57-2.83Z" transform="translate(-1677.94 -878.83)"/><path class="cls-2" d="M1817.11,990.84c4.36,3,8,2.45,13,2.15l-2.46-1.29c2.73,3.87,4.07,9.75,5.82,14.15,1.29,3.19,6.45,1.63,5.15-1.57l-3.41-8.49c-.88-2.15-1.43-5.19-3-6.91-1.2-1.32-2.24-1.34-3.9-1.08-3.34.48-5.69.33-8.61-1.68s-5.39,2.78-2.57,4.74Z" transform="translate(-1677.94 -878.83)"/><path class="cls-2" d="M1829.74,992.94c1.16-.22,3.61-1.22,4.73-.93.89.21,2.48,2,3.25,2.58a80.69,80.69,0,0,0,8,5c3,1.68,5.63-3.06,2.59-4.73-3.86-2.13-7.17-4.84-10.87-7.23-2.89-1.88-6.17-.51-9.32.12-3.38.69-1.77,5.82,1.57,5.14Z" transform="translate(-1677.94 -878.83)"/><path class="cls-2" d="M1836.34,991q14.23-12.84,27.56-26.58c2.42-2.49-1.5-6.2-3.92-3.69q-13.34,13.74-27.55,26.59C1829.85,989.62,1833.79,993.31,1836.34,991Z" transform="translate(-1677.94 -878.83)"/><path class="cls-2" d="M1863.61,958.83,1833.12,931c-4.47-4.07-9.47-7.74-13.83-11.83-5.68-5.26,4.79-11.76,9.76-12.71l-2.62-.61,48.93,39.86c2.68,2.19,6.4-1.71,3.68-3.91L1841.32,911c-3.69-3-8.93-9.66-13.86-9.76-4.57-.08-9.69,4.1-12.22,7.52-2.14,2.87-4.16,7.15-3,10.8a6.6,6.6,0,0,0,2.27,3.29c2.88,2.41,6.34,4.25,9.23,6.83l36.18,33c2.57,2.32,6.26-1.58,3.68-3.93Z" transform="translate(-1677.94 -878.83)"/><path class="cls-2" d="M1880,944.21c10-9.45,17.44-21.39,25.55-32.43,2-2.76-1.86-6.49-3.91-3.68-8.1,11-15.58,23-25.55,32.42-2.52,2.4,1.35,6.08,3.92,3.68Z" transform="translate(-1677.94 -878.83)"/><path class="cls-2" d="M1904.44,906.26c-7-2.37-15.06-4.11-21.56-7.58-1.23-.67-4.4-2.23-4.77-3.63-.67-2.53,1.36-5.83,3-7.6,3.57-4.1,7.76-2.34,11.85-.37,5.33,2.63,11.36,4.19,17,6.08,6.31,2.12,17.07-2.06,17.9,7.51.3,3.43,5.7,3.24,5.37-.23-.89-9.77-8.49-12.28-17-11.77-6.14.36-15.09-3.61-20.65-6.31-4.35-2.1-7.2-4.72-12.23-2.93-6,2.13-13.46,10.27-10.52,17,1.8,4.14,6,6.47,10.08,8.06,6.66,2.64,13.58,4.73,20.37,7,3.28,1.12,4.48-4.13,1.23-5.25Z" transform="translate(-1677.94 -878.83)"/><path class="cls-2" d="M1927.64,902.33a117,117,0,0,1,11.62,19.38c3.06,7,4.71,14.47,6.65,21.84q3,11.38,6.48,22.65c1.27,4.09,3.22,8.54,3.61,12.82a13.85,13.85,0,0,1-.28,5.13c-.92,3-6.1,6.71-8.7,3.36-2.13-2.72-6.7.11-4.57,2.85a10,10,0,0,0,13.9,2.2,9.58,9.58,0,0,0,1.36-1.19c6.91-7,2.74-17.63.22-25.51-3.77-12-6.62-24.3-10.18-36.39-3.25-11.05-9-20.59-15.52-30-2-2.83-6.56,0-4.57,2.85Z" transform="translate(-1677.94 -878.83)"/><path class="cls-2" d="M1946.67,987.89c-9.2-6.3-11.64-23.46-14.49-33.57-3.25-11.49-6.46-23-11.33-33.9-.74-1.65-3.14-2.8-4.53-1q-16.65,21-31.59,43.16c-1.94,2.88,2.81,5.43,4.72,2.58q14.57-21.63,30.78-42l-4.55-1.06c5.84,13.13,9.25,27,13.29,40.8,3,10.38,5.59,23.43,15.16,29.81,2.87,1.94,5.43-2.8,2.57-4.74Z" transform="translate(-1677.94 -878.83)"/><path class="cls-2" d="M1885.63,963.76c-.88,7.17.29,14.06,1.18,21.17q1.55,12.66,2.72,25.38,2.07,24.78,2.14,49.69c0,5.11.56,10.6-4.87,13.45-3.47,1.84-7.63-2.32-8.6-5.18-.6-1.73-.28-4.22-.4-6q-.81-13-1.46-25.93-1.33-25.95-2.1-51.92c-.1-3.45-5.49-3.26-5.37.23q1,32.43,2.82,64.87c.31,5.61.64,11.21,1,16.83.21,3,.29,6.33,2,8.93,3.31,5.08,11,4.92,15.92,2.53,6.38-3.11,6.35-10.44,6.43-16.69,0-10.63-.29-21.25-.86-31.86s-1.42-21.23-2.53-31.8-4.09-21.87-2.76-32.45C1891.3,961.59,1886.06,960.32,1885.63,963.76Z" transform="translate(-1677.94 -878.83)"/><path class="cls-2" d="M1822.3,1014c10.43.36,20.67-.43,29.57-6.4,8.39-5.63,14.33-14,20.12-22.16,2-2.81-2.76-5.37-4.74-2.57-5.2,7.36-10.68,15-18.23,20.16-8.09,5.5-17.49,5.92-26.92,5.58-3.47-.13-3.25,5.26.2,5.39Z" transform="translate(-1677.94 -878.83)"/><path class="cls-2" d="M1819.45,1011.84a409.34,409.34,0,0,1-17.65,42.57q-5,10.3-10.46,20.22c-2.93,5.26-6.59,15.06-12,18.26-6.58,3.86-10.62-2.48-10-8.4.47-4.6,3.1-8.82,5.18-12.88q5.28-10.3,10.37-20.73,10.08-20.87,19.17-42.17c1.36-3.17-3.37-5.77-4.72-2.57q-12.16,28.39-26,56c-3.74,7.42-9.92,15.95-9.62,24.63.2,5.72,3.73,11.8,9.66,13s10.34-2.81,13.64-7.17c5.5-7.41,9.73-16.15,14-24.31a414.23,414.23,0,0,0,23.84-55.28c1.14-3.27-4.11-4.47-5.24-1.22Z" transform="translate(-1677.94 -878.83)"/><path class="cls-2" d="M1800,1004.7,1744,993.93c-3.4-.66-4.64,4.59-1.23,5.25l56,10.76c3.39.66,4.63-4.59,1.22-5.24Z" transform="translate(-1677.94 -878.83)"/><path class="cls-2" d="M1725.35,967.28l-16.06-2.65c-3.9-.64-8.22-2-12.18-2-6.14.13-7.14,9.06-7.56,13.76-.22,2.55-1.09,6.86.39,9.14s5.28,2.61,7.56,3.14c4.44,1.12,8.93,2.09,13.4,3,3.2.65,7.84,2.38,11.07,1.47a2.71,2.71,0,0,0,1.79-3.37,2.76,2.76,0,0,0-.73-1.17l-.18-.19a2.69,2.69,0,0,0-3.8.09h0l-.12.12c-2.53,2.4,1.34,6.07,3.91,3.68l.14-.12-3.81.09.17.21,1.05-4.5c-1.94.56-6.27-1.14-8.25-1.55-2.23-.52-4.49-.94-6.73-1.45-2.52-.58-6.72-.82-8.9-2.17-2.24.21-2.84-.6-1.83-2.39a37,37,0,0,1,.24-3.94c.31-3,.28-7.11,3.94-8.24,1.85-.56,6.07,1,8,1.32l17.28,2.86C1727.53,973.09,1728.78,967.85,1725.35,967.28Z" transform="translate(-1677.94 -878.83)"/><path class="cls-2" d="M1718.66,989.42q-13.35,32.57-27.82,64.61c-4,8.94-9.92,18.24-12.38,27.76-1.49,5.76.15,12.48,6.28,14.59,6.4,2.17,12.54-1.91,16.12-7,6-8.53,9.64-19.14,13.82-28.64l13-29.73,7.16-16.3c2.38-5.39,4.35-11.56,9.12-15.34,2.69-2.13-.12-6.72-2.85-4.58-5.71,4.52-8.13,10.83-11,17.36l-11.26,25.63-10.42,23.73c-3.6,8.2-6.78,17.78-12.21,25-1.53,2-3.47,4.34-6.14,4.84-6.53,1.24-7.52-4.09-6.45-8.32s3.55-8.29,5.35-12.21q6-13,11.83-26.09,11.65-26.21,22.5-52.71C1724.7,988.83,1720,986.22,1718.66,989.42Z" transform="translate(-1677.94 -878.83)"/><path class="cls-2" d="M1842.76,989a49.22,49.22,0,0,0,9.71,3.92.68.68,0,0,0,.3-1.32,46.6,46.6,0,0,1-9.36-3.79.69.69,0,0,0-.94.29.68.68,0,0,0,.28.94h0Z" transform="translate(-1677.94 -878.83)"/><path class="cls-2" d="M1840.65,999.46a.89.89,0,0,1,.59.5c.33.79,1.63.38,1.3-.39a2.21,2.21,0,0,0-1.24-1.3c-.8-.31-1.44.87-.66,1.23Z" transform="translate(-1677.94 -878.83)"/><path class="cls-2" d="M1860.86,961.35a9.2,9.2,0,0,0,8.92-2.67.67.67,0,0,0-1-.92,7.88,7.88,0,0,1-7.56,2.39.67.67,0,0,0-.81.5.69.69,0,0,0,.51.81Z" transform="translate(-1677.94 -878.83)"/><path class="cls-2" d="M1871.81,954.27l1.46-3.26c.37-.79-.82-1.44-1.22-.67l-1.49,3.27c-.35.79.83,1.44,1.23.66Z" transform="translate(-1677.94 -878.83)"/><path class="cls-2" d="M1876.59,947.6l2.5-2.61a.66.66,0,0,0-.13-.94.68.68,0,0,0-.85,0l-2.5,2.61a.68.68,0,0,0,1,.92Z" transform="translate(-1677.94 -878.83)"/><path class="cls-2" d="M1871.38,983.24a15.94,15.94,0,0,1,4.22-6.24c.63-.58-.35-1.46-1-.92a17.35,17.35,0,0,0-4.53,6.85c-.29.81,1,1.11,1.31.31Z" transform="translate(-1677.94 -878.83)"/><path class="cls-2" d="M1878.44,972a7.75,7.75,0,0,1,3.82-3.67c.77-.36.06-1.49-.72-1.14a9,9,0,0,0-4.29,4.16.7.7,0,0,0,1.23.66Z" transform="translate(-1677.94 -878.83)"/><path class="cls-2" d="M1904.28,908.66a20.78,20.78,0,0,0,8.11-9.17c.35-.79-.82-1.44-1.23-.66a19.4,19.4,0,0,1-7.62,8.66.68.68,0,0,0-.08,1,.66.66,0,0,0,.78.18Z" transform="translate(-1677.94 -878.83)"/><path class="cls-2" d="M1913.85,895a4.31,4.31,0,0,1,1.92-2.32.67.67,0,0,0-.71-1.13,5.78,5.78,0,0,0-2.45,3.13c-.27.82,1,1.13,1.31.31Z" transform="translate(-1677.94 -878.83)"/><path class="cls-2" d="M1919.31,920.24a28.74,28.74,0,0,1,7.46-9.12c.67-.55-.33-1.46-1-.94a29.79,29.79,0,0,0-7.64,9.42.7.7,0,0,0,1.23.66Z" transform="translate(-1677.94 -878.83)"/><path class="cls-2" d="M1928.11,908.28l1.24-2.24a.7.7,0,1,0-1.23-.65l-1.24,2.24a.7.7,0,1,0,1.23.65Z" transform="translate(-1677.94 -878.83)"/><path class="cls-2" d="M1883.58,937.62a85.15,85.15,0,0,0,15.4-3.21.66.66,0,0,0,.43-.85.68.68,0,0,0-.83-.43,83.18,83.18,0,0,1-15,3.14c-.86.1-.82,1.45,0,1.39Z" transform="translate(-1677.94 -878.83)"/><path class="cls-2" d="M1889.93,933.88a19.22,19.22,0,0,1,6.44-1.36.7.7,0,0,0,.68-.72.69.69,0,0,0-.72-.67,20.36,20.36,0,0,0-6.79,1.43c-.8.3-.37,1.61.4,1.28Z" transform="translate(-1677.94 -878.83)"/><path class="cls-2" d="M1885.62,882.48l7.12,15.19c.37.79,1.5.07,1.14-.7l-7.1-15.23c-.37-.78-1.51-.06-1.15.72Z" transform="translate(-1677.94 -878.83)"/><path class="cls-2" d="M1890.82,885.12a37.31,37.31,0,0,1,2.72,6.91.68.68,0,0,0,1.29-.4,37.16,37.16,0,0,0-2.88-7.21C1891.55,883.64,1890.41,884.36,1890.82,885.12Z" transform="translate(-1677.94 -878.83)"/><path class="cls-2" d="M1940,960.64q-3.13-10.85-7-21.41c-.29-.82-1.6-.37-1.29.39q3.87,10.59,7,21.41a.67.67,0,0,0,1.28-.39Z" transform="translate(-1677.94 -878.83)"/><path class="cls-2" d="M1939.7,949.41l-3-7.5c-.31-.81-1.62-.38-1.28.39l3,7.51c.31.81,1.62.38,1.29-.39Z" transform="translate(-1677.94 -878.83)"/><path class="cls-2" d="M1959,982.94a71.74,71.74,0,0,1-11.74-13.29c-.49-.72-1.63,0-1.14.71a73.18,73.18,0,0,0,12,13.56C1958.72,984.49,1959.65,983.52,1959,982.94Z" transform="translate(-1677.94 -878.83)"/><path class="cls-2" d="M1826.32,931.09a126.37,126.37,0,0,1,20.26,2,.67.67,0,0,0,.31-1.31,128.9,128.9,0,0,0-20.65-2.05c-.87,0-.81,1.33,0,1.39Z" transform="translate(-1677.94 -878.83)"/><path class="cls-2" d="M1836.26,936.43a42,42,0,0,1,8,.31c.86.11,1.18-1.19.31-1.31a44.17,44.17,0,0,0-8.37-.35.7.7,0,1,0,0,1.39Z" transform="translate(-1677.94 -878.83)"/><path class="cls-2" d="M1821.24,904.34q3.45,7.06,7.53,13.79c.44.74,1.59,0,1.14-.71q-4.07-6.72-7.52-13.78C1822,902.86,1820.87,903.58,1821.24,904.34Z" transform="translate(-1677.94 -878.83)"/><path class="cls-2" d="M1857,930.7l8.82,17.36c.38.79,1.53.07,1.14-.7l-8.8-17.37c-.39-.77-1.54-.06-1.15.71Z" transform="translate(-1677.94 -878.83)"/><path class="cls-2" d="M1854.28,979.29l16.35-3.93c.85-.19.44-1.49-.39-1.28L1853.89,978C1853,978.2,1853.45,979.49,1854.28,979.29Z" transform="translate(-1677.94 -878.83)"/><path class="cls-2" d="M1863.28,974.34a16.3,16.3,0,0,1,7.4-.72c.86.1,1.16-1.21.3-1.32a18,18,0,0,0-8.09.75A.67.67,0,0,0,1863.28,974.34Z" transform="translate(-1677.94 -878.83)"/><path class="cls-2" d="M1883.67,1034.33a102.83,102.83,0,0,1-8.87-20c-.26-.82-1.57-.37-1.28.39a103.44,103.44,0,0,0,9.08,20.33c.44.75,1.58,0,1.15-.7Z" transform="translate(-1677.94 -878.83)"/><path class="cls-2" d="M1881,1023.69a164.21,164.21,0,0,1-9.86-19.67c-.34-.78-1.62-.38-1.28.41a167.59,167.59,0,0,0,10,20C1880.3,1025.16,1881.43,1024.44,1881,1023.69Z" transform="translate(-1677.94 -878.83)"/><path class="cls-2" d="M1885.9,1067.85l8.31-6.35c.68-.52,0-1.67-.71-1.15l-8.3,6.36c-.69.51,0,1.66.7,1.13Z" transform="translate(-1677.94 -878.83)"/><path class="cls-2" d="M1888.67,1063l4.09-4.17a.68.68,0,0,0-1-.94l-4.09,4.18a.67.67,0,0,0,1,.93Z" transform="translate(-1677.94 -878.83)"/><path class="cls-2" d="M1890.71,1004a62.26,62.26,0,0,1-12.85-15.16.68.68,0,0,0-1.15.72,64,64,0,0,0,13,15.47c.66.56,1.59-.42.94-1Z" transform="translate(-1677.94 -878.83)"/><path class="cls-2" d="M1800.86,980.06l-11-10.56c-3.17-3-6.22-6.58-10-8.89-.74-.46-1.38.73-.66,1.23,4,2.46,7.28,6.42,10.64,9.62l10.18,9.67a.68.68,0,0,0,.93-1Z" transform="translate(-1677.94 -878.83)"/><path class="cls-2" d="M1788.71,964.5A152,152,0,0,1,1776.86,954c-.62-.62-1.47.37-.93,1a148.52,148.52,0,0,0,11.86,10.56C1788.45,966,1789.38,965,1788.71,964.5Z" transform="translate(-1677.94 -878.83)"/><path class="cls-2" d="M1788.71,982c4,3.26,8.48,6.5,14,5.88.85-.09.8-1.44-.05-1.39-5.09.57-9.19-2.51-12.95-5.53-.68-.53-1.61.44-.94,1Z" transform="translate(-1677.94 -878.83)"/><path class="cls-2" d="M1806.62,990a22.07,22.07,0,0,0,10.06-1.15c.81-.29.37-1.6-.41-1.3a20.5,20.5,0,0,1-9.35,1.14C1806.08,988.54,1805.76,989.85,1806.62,990Z" transform="translate(-1677.94 -878.83)"/><path class="cls-2" d="M1800.24,1007.43a36.87,36.87,0,0,1,11.4,1.28.67.67,0,0,0,.31-1.31,37.09,37.09,0,0,0-11.76-1.36.7.7,0,0,0,0,1.39Z" transform="translate(-1677.94 -878.83)"/><path class="cls-2" d="M1816.17,1010l6.54,2.91c.79.35,1.44-.83.66-1.23l-6.54-2.91C1816,1008.44,1815.4,1009.62,1816.17,1010Z" transform="translate(-1677.94 -878.83)"/><path class="cls-2" d="M1791.29,944.31l-4.55,3.08-2.14,1.41c-.29.2-2.25,1.25-2.24,1.54a.7.7,0,0,0-1.39,0c0,1.76,2.09,1,3,.44,2.72-1.7,5.35-3.56,8-5.34.72-.48,0-1.62-.7-1.14Z" transform="translate(-1677.94 -878.83)"/><path class="cls-2" d="M1714.67,896.63a130.73,130.73,0,0,0,3,24.3c.17.85,1.46.44,1.28-.4a129.45,129.45,0,0,1-2.91-24,.7.7,0,0,0-.72-.68.69.69,0,0,0-.67.72Z" transform="translate(-1677.94 -878.83)"/><path class="cls-2" d="M1705.65,924.68a191.27,191.27,0,0,0,17.6,16.07c.66.55,1.59-.43.92-1a196,196,0,0,1-17.54-16.06c-.6-.62-1.46.37-.92,1Z" transform="translate(-1677.94 -878.83)"/><path class="cls-2" d="M1712.21,937q5,3.74,9.75,7.7c.66.54,1.6-.43.92-1q-4.77-4-9.74-7.68c-.69-.51-1.62.46-.93,1Z" transform="translate(-1677.94 -878.83)"/><path class="cls-2" d="M1736.47,947.35a90.19,90.19,0,0,1-3.62,17.13l1.31.31.3-1.31a.67.67,0,1,0-1.31-.31l-.3,1.31a.67.67,0,0,0,1.31.31,90.35,90.35,0,0,0,3.62-17.13C1737.89,946.81,1736.58,946.49,1736.47,947.35Z" transform="translate(-1677.94 -878.83)"/><path class="cls-2" d="M1724.15,968.5a10.41,10.41,0,0,0,10.42,5.32c.84-.12.79-1.46,0-1.4a9.05,9.05,0,0,1-9.23-4.61c-.41-.76-1.56,0-1.14.7Z" transform="translate(-1677.94 -878.83)"/><path class="cls-2" d="M1741.73,976a6.87,6.87,0,0,0,4.39,0,.67.67,0,0,0-.4-1.28,5.73,5.73,0,0,1-3.68-.07C1741.22,974.36,1740.91,975.67,1741.73,976Z" transform="translate(-1677.94 -878.83)"/><path class="cls-2" d="M1720.29,989.82a24.49,24.49,0,0,1,11.68,2.32c.79.37,1.44-.81.67-1.23a26.49,26.49,0,0,0-12.39-2.5.7.7,0,0,0,0,1.39Z" transform="translate(-1677.94 -878.83)"/><path class="cls-2" d="M1736.29,993.8a35.1,35.1,0,0,0,5.52,2.67c.79.31,1.44-.88.66-1.23a35.1,35.1,0,0,1-5.52-2.67C1736.21,992.12,1735.56,993.31,1736.29,993.8Z" transform="translate(-1677.94 -878.83)"/><path class="cls-2" d="M1706.38,989.6q9.31-3.48,18.41-7.5c.79-.34.39-1.64-.39-1.28q-9.11,4-18.43,7.49C1705.17,988.61,1705.6,989.91,1706.38,989.6Z" transform="translate(-1677.94 -878.83)"/><path class="cls-2" d="M1707.47,984.61a29.08,29.08,0,0,0,10-3.34c.76-.41,0-1.55-.72-1.13a27.54,27.54,0,0,1-9.39,3.13c-.84.12-.79,1.46,0,1.39Z" transform="translate(-1677.94 -878.83)"/><path class="cls-2" d="M1746.09,983l15.68,10.91c4.56,3.18,9.31,7.51,14.78,9a.67.67,0,0,0,.31-1.31c-5.63-1.58-10.76-6.37-15.51-9.67l-14.61-10.16c-.7-.49-1.34.7-.65,1.24Z" transform="translate(-1677.94 -878.83)"/><path class="cls-2" d="M1762.24,990.61l16,10.82c.71.49,1.35-.7.66-1.23L1763,989.39c-.71-.48-1.35.71-.66,1.23Z" transform="translate(-1677.94 -878.83)"/><path class="cls-2" d="M1786.93,995.54l7.77,2.27a.67.67,0,0,0,.31-1.31l-7.77-2.27A.67.67,0,0,0,1786.93,995.54Z" transform="translate(-1677.94 -878.83)"/><path class="cls-2" d="M1695.84,1052.19a185.6,185.6,0,0,0,15.74-14.85.68.68,0,0,0,0-1,.67.67,0,0,0-1,0,188.63,188.63,0,0,1-15.72,14.86C1694.2,1051.82,1695.19,1052.73,1695.84,1052.19Z" transform="translate(-1677.94 -878.83)"/><path class="cls-2" d="M1700.41,1042.89l9.75-8.29c.65-.55-.34-1.46-1-.92l-9.74,8.29c-.67.56.33,1.46,1,.93Z" transform="translate(-1677.94 -878.83)"/><path class="cls-2" d="M1726.57,1022.64a61,61,0,0,0,2.74-14.66c0-.86-1.29-.82-1.39,0a60.12,60.12,0,0,1-2.72,14.31c-.26.83,1,1.13,1.32.31Z" transform="translate(-1677.94 -878.83)"/><path class="cls-2" d="M1717.21,1023.17a17.51,17.51,0,0,1,2-6.73.69.69,0,0,0-.28-.94.71.71,0,0,0-1,.28,19.16,19.16,0,0,0-2.21,7.42C1715.74,1024.07,1717,1024,1717.21,1023.17Z" transform="translate(-1677.94 -878.83)"/><path class="cls-2" d="M1679.63,1086.5q8.64-6.27,17.85-11.76a.68.68,0,0,0-.72-1.15q-9.19,5.46-17.84,11.77C1678.23,1085.86,1678.93,1087,1679.63,1086.5Z" transform="translate(-1677.94 -878.83)"/><path class="cls-2" d="M1706.42,1068.49a80.05,80.05,0,0,1-1.21-11.34.7.7,0,0,0-.72-.68.69.69,0,0,0-.67.72,81.84,81.84,0,0,0,1.24,11.79c.15.85,1.43.44,1.28-.41Z" transform="translate(-1677.94 -878.83)"/><path class="cls-2" d="M1701.47,1064.86a1,1,0,0,1-.14-1c.36-.78-.83-1.43-1.23-.65a2.36,2.36,0,0,0,.41,2.67c.58.65,1.46-.35.92-1Z" transform="translate(-1677.94 -878.83)"/><path class="cls-2" d="M1771.06,1084.18a119.7,119.7,0,0,1,10.37-8.86c.69-.53,0-1.68-.71-1.15a124.76,124.76,0,0,0-10.68,9.07c-.64.59.36,1.46,1,.93Z" transform="translate(-1677.94 -878.83)"/><path class="cls-2" d="M1775.92,1075.8l5.62-4.14c.68-.51,0-1.66-.72-1.14l-5.61,4.13C1774.51,1075.17,1775.22,1076.32,1775.92,1075.8Z" transform="translate(-1677.94 -878.83)"/><path class="cls-2" d="M1798.47,1061.91a82.86,82.86,0,0,0,5.09-18.41.67.67,0,0,0-1.31-.31,81.66,81.66,0,0,1-5,18.09c-.32.79.85,1.44,1.23.65Z" transform="translate(-1677.94 -878.83)"/><path class="cls-2" d="M1791.71,1059.67a65.4,65.4,0,0,1,5.1-9.65c.46-.73-.72-1.37-1.23-.66a65.17,65.17,0,0,0-5,9.67c-.34.79.84,1.44,1.22.66Z" transform="translate(-1677.94 -878.83)"/><path class="cls-2" d="M1788.34,1038.85a194.62,194.62,0,0,0,18-12c.68-.52,0-1.67-.72-1.15a193.14,193.14,0,0,1-18,12A.68.68,0,0,0,1788.34,1038.85Z" transform="translate(-1677.94 -878.83)"/><path class="cls-2" d="M1811.2,1028.31l3.76-11.38c.28-.82-1-1.12-1.31-.31l-3.76,11.39C1809.61,1028.83,1810.92,1029.13,1811.2,1028.31Z" transform="translate(-1677.94 -878.83)"/><path class="cls-2" d="M1823.85,1014.33l10-12.08c.55-.68-.43-1.61-1-.94l-10,12.1C1822.32,1014.07,1823.29,1015,1823.85,1014.33Z" transform="translate(-1677.94 -878.83)"/><path class="cls-3" d="M1696.08,888.42c3.73-3.09,11.26-5.14,13,1.31.23.85,1.52.44,1.3-.39a7.26,7.26,0,0,0-6.12-5.24c-3.43-.48-6.57,1.23-9.09,3.41-.67.55.32,1.46,1,.92Z" transform="translate(-1677.94 -878.83)"/><path class="cls-3" d="M1710.44,893.1l.78,1.27a.67.67,0,0,0,.93.22.68.68,0,0,0,.22-.93l-.79-1.26A.67.67,0,0,0,1710.44,893.1Z" transform="translate(-1677.94 -878.83)"/><path class="cls-3" d="M1715.65,902.5l4.07,20.84c.16.84,1.45.45,1.29-.41l-4.08-20.82C1716.77,901.26,1715.48,901.66,1715.65,902.5Z" transform="translate(-1677.94 -878.83)"/><path class="cls-3" d="M1710.89,927.25l10.33,9.67a.68.68,0,0,0,1,0,.68.68,0,0,0,0-.94l-10.34-9.67a.67.67,0,0,0-.93,1Z" transform="translate(-1677.94 -878.83)"/><path class="cls-3" d="M1714.53,937.16a47.58,47.58,0,0,1,6.57,5.08c.64.58,1.57-.39.94-1a51.74,51.74,0,0,0-6.87-5.3c-.72-.47-1.36.72-.65,1.24Z" transform="translate(-1677.94 -878.83)"/><path class="cls-3" d="M1721.08,910.88q7.22,18,15.07,35.65c.35.79,1.64.39,1.28-.39q-7.85-17.71-15-35.7c-.33-.8-1.63-.38-1.3.4Z" transform="translate(-1677.94 -878.83)"/><path class="cls-3" d="M1697.9,969.71a156.26,156.26,0,0,1,26.59,2.85.67.67,0,0,0,.31-1.31,158.92,158.92,0,0,0-27-2.89c-.85,0-.8,1.32,0,1.4Z" transform="translate(-1677.94 -878.83)"/><path class="cls-3" d="M1706.05,983a36.34,36.34,0,0,0,8-1.42.68.68,0,0,0-.4-1.29,34,34,0,0,1-7.61,1.36.71.71,0,0,0-.67.73.69.69,0,0,0,.72.67Z" transform="translate(-1677.94 -878.83)"/><path class="cls-3" d="M1714.15,984.26a99.27,99.27,0,0,0,11.11-4.24c.79-.34.39-1.63-.39-1.28a100.72,100.72,0,0,1-11.11,4.23.67.67,0,0,0,.39,1.29Z" transform="translate(-1677.94 -878.83)"/><path class="cls-3" d="M1727.53,970.13a4.62,4.62,0,0,0,3.13,1.45c.86,0,.8-1.29,0-1.4a3.18,3.18,0,0,1-2.15-1.06c-.59-.64-1.46.35-.93,1Z" transform="translate(-1677.94 -878.83)"/><path class="cls-3" d="M1741.79,974.91l2.13.12c.86.07.81-1.29-.05-1.39l-2.12-.14c-.86,0-.8,1.3,0,1.4Z" transform="translate(-1677.94 -878.83)"/><path class="cls-3" d="M1749.55,979.46q10.18,2.76,20.59,4.52a.68.68,0,0,0,.3-1.32,206.81,206.81,0,0,1-20.58-4.51A.67.67,0,0,0,1749.55,979.46Z" transform="translate(-1677.94 -878.83)"/><path class="cls-3" d="M1774.7,984.46a.68.68,0,0,0-.5-.81.67.67,0,0,0-.81.5.66.66,0,0,0,.5.81A.67.67,0,0,0,1774.7,984.46Z" transform="translate(-1677.94 -878.83)"/><path class="cls-3" d="M1777.46,985.15l12.65,1.43c.84.1,1.16-1.21.3-1.31l-12.65-1.44C1776.91,983.75,1776.59,985.05,1777.46,985.15Z" transform="translate(-1677.94 -878.83)"/><path class="cls-3" d="M1763.18,989.2a100.31,100.31,0,0,0,20.71,12.44c.78.34,1.43-.83.65-1.23a99.77,99.77,0,0,1-20.43-12.24c-.68-.53-1.61.44-.92,1Z" transform="translate(-1677.94 -878.83)"/><path class="cls-3" d="M1747.63,982.37l7.42,5.11c.7.48,1.34-.7.65-1.23l-7.41-5.11C1747.57,980.66,1746.93,981.85,1747.63,982.37Z" transform="translate(-1677.94 -878.83)"/><path class="cls-3" d="M1792.8,982.92c-.37,1.15.6,1.87,1.56,2.27a35.87,35.87,0,0,0,6.82,1.79.67.67,0,0,0,.31-1.31c-.85-.2-7.69-1.47-7.38-2.44S1793.06,982.1,1792.8,982.92Z" transform="translate(-1677.94 -878.83)"/><path class="cls-3" d="M1783.87,964.31l16.91,16.4a.68.68,0,0,0,1,0,.67.67,0,0,0,0-.95l-16.91-16.4a.68.68,0,0,0-.92,1Z" transform="translate(-1677.94 -878.83)"/><path class="cls-3" d="M1780.86,957.55a14.56,14.56,0,0,0,3.49,3.47c.71.5,1.35-.69.66-1.23a12.94,12.94,0,0,1-3-3c-.5-.7-1.65,0-1.13.71Z" transform="translate(-1677.94 -878.83)"/><path class="cls-3" d="M1781.38,949.87a48.86,48.86,0,0,0,7.57-2.82c.78-.37.06-1.5-.71-1.15a47.05,47.05,0,0,1-7.24,2.7c-.83.23-.44,1.51.4,1.28Z" transform="translate(-1677.94 -878.83)"/><path class="cls-3" d="M1767.73,922.79c3.67-.52,7.11-1.61,10.64.1a11.19,11.19,0,0,1,6.05,7.56c.2.84,1.49.45,1.3-.4a12.44,12.44,0,0,0-5.92-8c-4-2.32-7.79-1.31-12.1-.67-.85.12-.82,1.47,0,1.39Z" transform="translate(-1677.94 -878.83)"/><path class="cls-3" d="M1785.6,935.88l1.48,2.88c.4.77,1.55.06,1.15-.71l-1.45-2.9c-.4-.77-1.55-.06-1.15.7Z" transform="translate(-1677.94 -878.83)"/><path class="cls-3" d="M1806.4,988.67l6.81.47c.86.06.8-1.29,0-1.4l-6.74-.46c-.87,0-.81,1.29,0,1.39Z" transform="translate(-1677.94 -878.83)"/><path class="cls-3" d="M1788.33,992.76l0-.09a.71.71,0,0,0-.68-.48.78.78,0,0,0-.69.32.68.68,0,0,0-.09.81c.4.87,1.89,1.13,2.72,1.37a16.79,16.79,0,0,0,4.1.6c.87,0,.81-1.32,0-1.4a13.79,13.79,0,0,1-3.07-.37c-.55-.12-2.3-.41-2.55-.94l-.08.82-.22.11-.66-.47,0,.09a.67.67,0,0,0,1.28-.41Z" transform="translate(-1677.94 -878.83)"/><path class="cls-3" d="M1802.77,1005.82A22.92,22.92,0,0,1,1811,1007c.82.27,1.11-1,.31-1.31a23.88,23.88,0,0,0-8.55-1.21.7.7,0,0,0-.67.72.69.69,0,0,0,.72.67Z" transform="translate(-1677.94 -878.83)"/><path class="cls-3" d="M1816.56,1009a8.76,8.76,0,0,0,2.94,1.44.67.67,0,0,0,.3-1.31,6.93,6.93,0,0,1-2.31-1.1C1816.79,1007.49,1815.86,1008.47,1816.56,1009Z" transform="translate(-1677.94 -878.83)"/><path class="cls-3" d="M1793.4,1033.78a154.06,154.06,0,0,1,13-8.55c.76-.44,0-1.58-.71-1.15q-6.75,4-13.06,8.55C1792,1033.15,1792.7,1034.29,1793.4,1033.78Z" transform="translate(-1677.94 -878.83)"/><path class="cls-3" d="M1809.82,1026.44a115.19,115.19,0,0,0,4.92-11.36c.3-.8-1-1.11-1.31-.31a115.62,115.62,0,0,1-4.78,11,.69.69,0,0,0,1.22.66Z" transform="translate(-1677.94 -878.83)"/><path class="cls-3" d="M1725.4,1020.38a46,46,0,0,0,3.18-11.33c.2-.84-1.19-1.16-1.31-.31a44.23,44.23,0,0,1-3.06,11c-.34.79.85,1.44,1.23.66Z" transform="translate(-1677.94 -878.83)"/><path class="cls-3" d="M1715.75,1020.65l1.31-2.58a.7.7,0,0,0-1.23-.65l-1.33,2.58a.7.7,0,0,0,.3.94.69.69,0,0,0,.94-.29Z" transform="translate(-1677.94 -878.83)"/><path class="cls-3" d="M1704.41,1037.43l3-1.9a.68.68,0,0,0,.22-.93.67.67,0,0,0-.93-.22l-3,1.91a.68.68,0,0,0,.72,1.15Z" transform="translate(-1677.94 -878.83)"/><path class="cls-3" d="M1685.52,1079.18l.12,0-.13-.81.14-.14.6.32c.33.42,3.56-1.44,4-1.64a38.83,38.83,0,0,0,3.74-2.32c.71-.5,0-1.64-.7-1.15a35,35,0,0,1-4,2.43,31.2,31.2,0,0,0-3.79,1.79c-1.45,1,.29,2.84,1.21,1.35a.67.67,0,0,0-.13-.8l-.11-.1c-.63-.59-1.57.4-.93,1Z" transform="translate(-1677.94 -878.83)"/><path class="cls-3" d="M1775,1074.53a15.18,15.18,0,0,0,5.27-2.92c.66-.56-.34-1.46-1-.92a13.6,13.6,0,0,1-4.69,2.6.67.67,0,0,0,.4,1.28Z" transform="translate(-1677.94 -878.83)"/><path class="cls-3" d="M1772.13,1081.61l5.9-5.11c.66-.57-.34-1.46-1-.92l-5.89,5.11C1770.5,1081.26,1771.48,1082.15,1772.13,1081.61Z" transform="translate(-1677.94 -878.83)"/><path class="cls-3" d="M1834.78,992.09l-1-.39a.67.67,0,0,0-.91.31.72.72,0,0,0,0,.64l5.15,11c.37.78,1.51.06,1.15-.71l-5.15-11-.88,1,1,.39c.79.29,1.45-.88.65-1.23Z" transform="translate(-1677.94 -878.83)"/><path class="cls-3" d="M1826.5,1008.5a25.18,25.18,0,0,0,4-3.81c.56-.66-.41-1.59-1-.93a22.64,22.64,0,0,1-3.73,3.59C1825.11,1007.87,1825.81,1009,1826.5,1008.5Z" transform="translate(-1677.94 -878.83)"/><path class="cls-3" d="M1818,993a10.93,10.93,0,0,0,9.19,1.45c.83-.23.44-1.51-.4-1.28a9.71,9.71,0,0,1-8.14-1.35c-.73-.49-1.36.69-.66,1.23Z" transform="translate(-1677.94 -878.83)"/><path class="cls-3" d="M1838.67,988.52a38.87,38.87,0,0,0,8.33,7c.74.46,1.39-.73.66-1.23a37.28,37.28,0,0,1-8.13-6.68c-.58-.65-1.46.35-.92,1Z" transform="translate(-1677.94 -878.83)"/><path class="cls-3" d="M1841.11,999.14l1,.57c.74.44,1.39-.75.66-1.23l-1-.59c-.73-.45-1.37.75-.64,1.24Z" transform="translate(-1677.94 -878.83)"/><path class="cls-3" d="M1843.09,987.42a15.71,15.71,0,0,0,4.75,2.16.67.67,0,0,0,.31-1.31,14.07,14.07,0,0,1-4.41-2c-.71-.49-1.35.71-.66,1.23Z" transform="translate(-1677.94 -878.83)"/><path class="cls-3" d="M1840,988.27q5.61-5.6,10.92-11.27a.67.67,0,0,0-1-.92q-5.4,5.76-10.93,11.27C1838.35,988,1839.35,988.83,1840,988.27Z" transform="translate(-1677.94 -878.83)"/><path class="cls-3" d="M1853.14,975.12l.85-.52a.67.67,0,0,0,.22-.93.68.68,0,0,0-.93-.22h0l-.9.53a.67.67,0,0,0,.7,1.14Z" transform="translate(-1677.94 -878.83)"/><path class="cls-3" d="M1856.59,972.19q4.42-4.5,8.43-9.35c.54-.66-.43-1.6-1-.92q-4,4.88-8.45,9.34C1855,971.87,1856,972.73,1856.59,972.19Z" transform="translate(-1677.94 -878.83)"/><path class="cls-3" d="M1854.8,977.4l6.68-.95c.86-.12.82-1.46,0-1.39l-6.72.94c-.84.12-.81,1.46,0,1.4Z" transform="translate(-1677.94 -878.83)"/><path class="cls-3" d="M1865.39,972.41l4-.16a.7.7,0,0,0,.68-.72.69.69,0,0,0-.72-.67l-4,.14a.7.7,0,0,0-.67.72.69.69,0,0,0,.72.67Z" transform="translate(-1677.94 -878.83)"/><path class="cls-3" d="M1870.71,980.51l3.48-4.25c.56-.67-.41-1.6-1-.93l-3.48,4.26C1869.18,980.25,1870.17,981.18,1870.71,980.51Z" transform="translate(-1677.94 -878.83)"/><path class="cls-3" d="M1875,973.44a27.76,27.76,0,0,1,5.15-5.51c.67-.54-.32-1.45-1-.93a28.88,28.88,0,0,0-5.36,5.79c-.5.71.68,1.35,1.23.66Z" transform="translate(-1677.94 -878.83)"/><path class="cls-3" d="M1888.38,1000.15a62,62,0,0,1-9.13-11.6.68.68,0,0,0-1.15.71,63.5,63.5,0,0,0,9.36,11.86C1888.06,1001.73,1888.93,1000.75,1888.38,1000.15Z" transform="translate(-1677.94 -878.83)"/><path class="cls-3" d="M1886.59,1060.55c0,1,1.14,1.06,1.8.66a5.4,5.4,0,0,0,1.24-1.41L1891,1058c.53-.66-.44-1.6-1-.92l-1.39,1.77-.71.88a1.18,1.18,0,0,1-.28.31c-.28.07-.18.2.27.42,0-.87-1.31-.81-1.4,0Z" transform="translate(-1677.94 -878.83)"/><path class="cls-3" d="M1881.47,1021.91a37.7,37.7,0,0,0-5.25-9.86c-.51-.69-1.66,0-1.15.71a36,36,0,0,1,5.12,9.5c.29.81,1.6.37,1.29-.41Z" transform="translate(-1677.94 -878.83)"/><path class="cls-3" d="M1826.62,907l-.24-.18a.7.7,0,0,0-.82-.09c-1.6.9.33,3.18.87,4.2l4.47,8.53c.4.77,1.53.05,1.14-.7s-5.75-10.9-5.75-10.89l-.83-.08.25.18c.68.52,1.61-.45.92-1Z" transform="translate(-1677.94 -878.83)"/><path class="cls-3" d="M1830.87,929.36l12.67,3a.67.67,0,1,0,.3-1.31l-12.66-3a.68.68,0,0,0-.81.51A.66.66,0,0,0,1830.87,929.36Z" transform="translate(-1677.94 -878.83)"/><path class="cls-3" d="M1818.52,914.91l4.57-4.56c.61-.62-.38-1.54-1-.93l-4.55,4.56C1816.94,914.59,1817.93,915.51,1818.52,914.91Z" transform="translate(-1677.94 -878.83)"/><path class="cls-3" d="M1825.61,907.12l11.82,9.67c.66.54,1.59-.43.92-1l-11.81-9.67C1825.87,905.6,1825,906.58,1825.61,907.12Z" transform="translate(-1677.94 -878.83)"/><path class="cls-3" d="M1839.61,918.07l2.46,2c.67.53,1.61-.44.92-1l-2.46-1.95c-.68-.54-1.61.44-.92,1Z" transform="translate(-1677.94 -878.83)"/><path class="cls-3" d="M1843.9,921.46q5.67,4.78,11.73,9c.71.5,1.35-.7.66-1.23q-5.94-4.15-11.45-8.81c-.66-.56-1.59.41-.94,1Z" transform="translate(-1677.94 -878.83)"/><path class="cls-3" d="M1858.88,932.46l4.21,6.68a.67.67,0,0,0,.93.22.68.68,0,0,0,.22-.93l-4.19-6.75a.69.69,0,0,0-.94-.21.67.67,0,0,0-.21.93Z" transform="translate(-1677.94 -878.83)"/><path class="cls-3" d="M1870.05,953.21l1.42-2.9a.69.69,0,0,0-1.22-.66l-1.44,2.9a.7.7,0,0,0,1.23.66Z" transform="translate(-1677.94 -878.83)"/><path class="cls-3" d="M1864.26,960.24a9.15,9.15,0,0,0,6.19-2.83.68.68,0,0,0,0-1,.67.67,0,0,0-1,0,7.63,7.63,0,0,1-5.27,2.4.71.71,0,0,0-.67.73.7.7,0,0,0,.72.67Z" transform="translate(-1677.94 -878.83)"/><path class="cls-3" d="M1817.41,913.27c-.27.8-1.11,2.22-.91,3.07a7,7,0,0,0,1.55,2.2,16.12,16.12,0,0,0,4.89,3.91.7.7,0,1,0,.65-1.23,15.68,15.68,0,0,1-4-3,7,7,0,0,1-1.5-1.89c-.33-.79.36-2,.66-2.8s-1-1.12-1.32-.31Z" transform="translate(-1677.94 -878.83)"/><path class="cls-3" d="M1878.59,947l6.4-6.09c.63-.6-.37-1.47-1-.92l-6.45,6.07c-.64.6.36,1.47,1,.93Z" transform="translate(-1677.94 -878.83)"/><path class="cls-3" d="M1889,935.7l7.78-2.55a.68.68,0,0,0-.4-1.3h0l-7.77,2.56A.67.67,0,0,0,1889,935.7Z" transform="translate(-1677.94 -878.83)"/><path class="cls-3" d="M1892.26,932l3.67-1.59c.79-.34.38-1.64-.4-1.29l-3.66,1.52c-.79.34-.38,1.64.4,1.3Z" transform="translate(-1677.94 -878.83)"/><path class="cls-3" d="M1892.78,931.25l11.68-16c.51-.7-.47-1.63-1-.93l-11.69,16C1891.3,931,1892.27,932,1892.78,931.25Z" transform="translate(-1677.94 -878.83)"/><path class="cls-3" d="M1879.42,893.18l.92-3.15c.34-1.18.51-2.79,1.72-3.36s3-.24,4.31-.68a.67.67,0,0,0-.39-1.28c-1.73.53-3.92-.06-5.39,1.22a4.11,4.11,0,0,0-1.11,2c-.52,1.61-.94,3.27-1.42,4.9a.67.67,0,0,0,1.31.3Z" transform="translate(-1677.94 -878.83)"/><path class="cls-3" d="M1888.47,885.8l2,.82c.79.34,1.44-.85.65-1.23l-2-.83c-.79-.32-1.44.85-.66,1.23Z" transform="translate(-1677.94 -878.83)"/><path class="cls-3" d="M1894.93,888.89a41.51,41.51,0,0,0,6.77,2.86c.83.28,1.12-1,.3-1.31a37.45,37.45,0,0,1-6.42-2.74.7.7,0,0,0-.95.28.71.71,0,0,0,.29.95h0Z" transform="translate(-1677.94 -878.83)"/><path class="cls-3" d="M1885.39,885.91l5.27,11.05c.38.78,1.52.07,1.15-.71l-5.27-11C1886.17,884.42,1885,885.15,1885.39,885.91Z" transform="translate(-1677.94 -878.83)"/><path class="cls-3" d="M1889.51,886l2.55,6c.32.8,1.62.38,1.28-.39l-2.55-6C1890.46,884.86,1889.16,885.27,1889.51,886Z" transform="translate(-1677.94 -878.83)"/><path class="cls-3" d="M1911.09,893.82a11.16,11.16,0,0,1-1.8,5.71c-.47.73.71,1.37,1.22.66a12.46,12.46,0,0,0,2-6.46c0-.88-1.32-.82-1.39,0Z" transform="translate(-1677.94 -878.83)"/><path class="cls-3" d="M1904.8,907.33l2.39-2.31c.62-.6-.38-1.47-1-.92l-2.39,2.29c-.62.6.38,1.47,1,.94Z" transform="translate(-1677.94 -878.83)"/><path class="cls-3" d="M1878.19,891.21a4.44,4.44,0,0,0,.4,5.23c1.42,1.78,3.77,2.4,5.88,2.93a.67.67,0,1,0,.31-1.31c-2.52-.59-7.89-2.67-5.46-6.22.49-.7-.7-1.34-1.23-.65Z" transform="translate(-1677.94 -878.83)"/><path class="cls-3" d="M1887.47,900.68l2,.84c.79.33,1.44-.85.65-1.23l-2-.82c-.79-.34-1.44.84-.66,1.23Z" transform="translate(-1677.94 -878.83)"/><path class="cls-3" d="M1915.67,894.85a13.73,13.73,0,0,1,11.37,3c.66.56,1.59-.41.93-1a15,15,0,0,0-12.35-3.39c-.84.15-.8,1.5,0,1.39Z" transform="translate(-1677.94 -878.83)"/><path class="cls-3" d="M1927.53,904.49l-2.93,4.77c-.46.73.73,1.37,1.23.64l2.93-4.72c.45-.74-.73-1.37-1.23-.65Z" transform="translate(-1677.94 -878.83)"/><path class="cls-3" d="M1919.48,917.06a12.57,12.57,0,0,1,5.38-4.88c.77-.39.05-1.54-.71-1.15a13.94,13.94,0,0,0-5.85,5.38c-.45.75.74,1.39,1.23.66Z" transform="translate(-1677.94 -878.83)"/><path class="cls-3" d="M1936.25,940.82a51.11,51.11,0,0,1,3.41,8.53.68.68,0,0,0,1.29-.41,54,54,0,0,0-3.56-8.83c-.4-.78-1.55-.06-1.14.71Z" transform="translate(-1677.94 -878.83)"/><path class="cls-3" d="M1946.8,969.34a21.09,21.09,0,0,0,6.17,7.2c.68.52,1.62-.46.92-1a20.2,20.2,0,0,1-5.94-6.92c-.41-.76-1.56,0-1.15.71Z" transform="translate(-1677.94 -878.83)"/><path class="cls-1" d="M1788.5,1063.62c2-1.21,2.72-3.51,3.73-5.5l5-9.73-1.23-.65-5.07,12.56c-.32.78.78,1.44,1.22.66a63.74,63.74,0,0,0,5.83-14.89.68.68,0,0,0-.39-.88.69.69,0,0,0-.88.39l-8.34,16,1.27.48a56.57,56.57,0,0,1,8.71-16.46l-1.08-.78a14.93,14.93,0,0,0-2.72,6.74.67.67,0,0,0,1.14.61,8.41,8.41,0,0,0,2.36-3.8.67.67,0,0,0-1.31-.31,5.92,5.92,0,0,1-2.06,3.23l1.14.62a14.38,14.38,0,0,1,2.59-6.4c.44-.62-.63-1.4-1.08-.78a58.82,58.82,0,0,0-9,17.11.69.69,0,0,0,1.27.49l8.34-16-1.27-.48a64,64,0,0,1-5.69,14.55l1.23.66,5.09-12.64a.7.7,0,0,0-1.23-.65l-3.79,7.41c-1.11,2.16-2.3,6-4.46,7.26a.67.67,0,0,0,.7,1.13Z" transform="translate(-1677.94 -878.83)"/><path class="cls-1" d="M1797.45,1052.54l-2.9,12.41c-.16.71.94,1.19,1.27.48a173,173,0,0,0,8.67-24.93.67.67,0,0,0-1.31-.3,147.34,147.34,0,0,1-8.88,24.34l1.24.64q3.9-9.9,7.17-20l-1.31-.3a191.65,191.65,0,0,1-6.56,19.64c-.31.79.85,1.45,1.23.66l8-19-1.23-.66-7.33,17.93c-.31.78.82,1.45,1.23.66a100.8,100.8,0,0,0,7.18-18.92c.2-.86-1-1.09-1.31-.3l-6.81,18.39c-.27.71.92,1.15,1.27.47q3.06-6.35,5.88-12.81c1.38-3.13,3.24-6.42,3.32-9.91,0-.87-1.33-.81-1.39,0-.09,3.92-2.61,8-4.18,11.56s-3.18,7-4.85,10.47l1.27.48,6.8-18.4-1.31-.3a97.88,97.88,0,0,1-7.1,18.56l1.23.66,7.27-17.94c.32-.8-.84-1.45-1.23-.66l-8,19,1.23.66a193.46,193.46,0,0,0,6.68-20,.67.67,0,0,0-1.31-.31c-2.14,6.65-4.46,13.2-7.06,19.69a.7.7,0,0,0,1.24.64,151.27,151.27,0,0,0,9-24.68l-1.31-.3a172.35,172.35,0,0,1-8.6,24.57l1.27.49,2.9-12.42a.68.68,0,0,0-.5-.81.67.67,0,0,0-.81.5Z" transform="translate(-1677.94 -878.83)"/><path class="cls-1" d="M1809.64,1033.13l7.43-17c.35-.78-.82-1.43-1.23-.66-2.2,5-4,11-7.38,15.4l1.08.78q3.66-8.07,6.6-16.44c.28-.76-.86-1.06-1.27-.49-3.15,4.69-5.06,10.19-7.27,15.35l1.23.65a118.91,118.91,0,0,1,7.93-16.19l-1.23-.66-8.52,16,1.23.66a168.67,168.67,0,0,1,9.3-18.4l-1.23-.66a55,55,0,0,1-6.4,11.43l1.08.78,4.41-9.6a.7.7,0,0,0-1.23-.65l-5.88,12.11a.69.69,0,0,0,1.22.66,121.28,121.28,0,0,0,5.26-12.38c.25-.7-1-1.17-1.27-.48l-5.16,11.85,1.23.66q2.49-6.18,4.91-12.4c.2-.48-.18-1.19-.78-1l-1.7.64c-.81.31-.37,1.6.39,1.28l1.7-.64-.79-1c-1.61,4.15-3.31,8.26-4.91,12.39-.32.8.84,1.46,1.23.66l5.17-11.84-1.27-.49a117.85,117.85,0,0,1-5.12,12l1.23.66,5.89-12.13-1.23-.64-4.42,9.6c-.3.64.61,1.43,1.08.78a55.36,55.36,0,0,0,6.61-11.71.7.7,0,0,0-1.23-.66,166.24,166.24,0,0,0-9.31,18.41.7.7,0,0,0,1.23.66l8.53-16a.68.68,0,0,0-.28-.94.71.71,0,0,0-1,.28,122.13,122.13,0,0,0-7.93,16.21c-.32.78.84,1.44,1.23.65,2.22-5.16,4.14-10.65,7.28-15.34l-1.27-.48q-2.91,8.19-6.52,16.08c-.31.65.58,1.42,1.07.78,3.48-4.47,5.32-10.53,7.59-15.67l-1.23-.66-7.45,17c-.33.79.84,1.44,1.23.66Z" transform="translate(-1677.94 -878.83)"/><path class="cls-1" d="M1815.93,1007.8l-1.22,1.1c-.56.51.23,1.44.84,1l5.14-3.64-.83-1-5.88,5.38a.69.69,0,0,0,.69,1.12,8.24,8.24,0,0,0,4.34-3.36c.47-.68-.54-1.23-1.07-.78a10,10,0,0,0-2.69,3.52.68.68,0,0,0,.27.92.67.67,0,0,0,.8-.13l3.87-3.78-1-.92a13.47,13.47,0,0,0-2.78,4.45.69.69,0,0,0,.29.94.69.69,0,0,0,.94-.28l2.76-3.81-1.28-.47a6.39,6.39,0,0,1-1.65,3.36l1,.91a35.91,35.91,0,0,0,2.43-3.2l-1.24-.65a17.63,17.63,0,0,1-2.66,3.87l1.08.78a11.55,11.55,0,0,1,5.12-6l-.86-1a11.48,11.48,0,0,1-3.87,2.85c-.69.3-.15,1.49.55,1.2l6.6-2.61c.79-.31.37-1.61-.41-1.28l-6.58,2.61.54,1.22a12.48,12.48,0,0,0,4.16-3.07.68.68,0,0,0-.1-1,.71.71,0,0,0-.75-.08,12.75,12.75,0,0,0-5.58,6.55c-.25.65.52,1.4,1.08.78a18.54,18.54,0,0,0,2.86-4.16.69.69,0,1,0-1.23-.64c-.69,1-1.43,2-2.22,2.92-.55.66.38,1.57,1,.92a7.63,7.63,0,0,0,2-4,.69.69,0,0,0-.4-.88.68.68,0,0,0-.87.4l-2.75,3.8,1.22.66a12.78,12.78,0,0,1,2.6-4.18.69.69,0,0,0,0-1,.68.68,0,0,0-1,0l-3.79,3.74,1.07.79a9.43,9.43,0,0,1,2.48-3.19l-1.08-.78a6.69,6.69,0,0,1-3.56,2.69l.69,1.12,5.86-5.38c.57-.52-.23-1.44-.85-1l-5.13,3.64.85,1,1.21-1.1c.65-.59-.34-1.46-1-.92Z" transform="translate(-1677.94 -878.83)"/><path class="cls-1" d="M1781.64,992.7a9.5,9.5,0,0,0,5.18,3.21c3.76,1.25,7.56,2.38,11.35,3.57.73.17,1.18-1,.49-1.27a87.07,87.07,0,0,0-16.16-5c-.71-.16-1.22.95-.49,1.27a74.18,74.18,0,0,0,16.53,4.72c.68.16,1.21-1,.47-1.27a113.83,113.83,0,0,0-17.39-5.64.67.67,0,0,0-.31,1.31,133.32,133.32,0,0,0,16.25,3.88.67.67,0,0,0,.8-.51.67.67,0,0,0-.5-.81,81.11,81.11,0,0,0-14.26-3.41c-.84-.11-1.16,1.11-.31,1.31l16.76,3.64a.69.69,0,0,0,.79-.56.66.66,0,0,0-.17-.58c-1.5-1.74-3.65-2.1-5.81-2.66-3.62-.93-7.28-1.78-10.94-2.55a.66.66,0,0,0-.81.5.67.67,0,0,0,.5.81l15.24,3.55a.66.66,0,0,0,.8-.5.67.67,0,0,0-.5-.81,61.47,61.47,0,0,0-15.2-2.86c-.77,0-.86,1.19-.14,1.35l20,4.2a.67.67,0,1,0,.3-1.31,88.43,88.43,0,0,0-18.77-3.15c-.76-.06-.86,1.18-.12,1.35a131.39,131.39,0,0,0,21.26,3.06c.86,0,.8-1.3,0-1.4a127,127,0,0,1-20.9-3l-.13,1.35a88.39,88.39,0,0,1,18.41,3.12l.3-1.31-20-4.19-.13,1.35a59.79,59.79,0,0,1,14.83,2.67l.31-1.31-15.24-3.56-.3,1.32,8.37,1.95c2.44.57,6,1,7.75,3l.61-1.14-16.73-3.62-.31,1.31a81.22,81.22,0,0,1,14.27,3.41l.3-1.31a133.12,133.12,0,0,1-16.24-3.87l-.31,1.31a111.52,111.52,0,0,1,17,5.51l.49-1.27a71.82,71.82,0,0,1-16.18-4.59l-.48,1.27a85.29,85.29,0,0,1,15.87,4.92l.48-1.27-7.56-2.37c-2.69-.85-6.32-1.48-8.13-3.81-.52-.68-1.66,0-1.15.72Z" transform="translate(-1677.94 -878.83)"/><path class="cls-1" d="M1802.22,1002.36c3.85,3.32,9.28,3.55,13.09,6.92l.78-1.08a26.92,26.92,0,0,1-8.46-6.59l-.92,1,7.88,8.76.78-1.08a32.53,32.53,0,0,1-8.51-8.64l-1,.85,8.39,9.8c.5.59,1.44-.23,1-.84l-.94-1.32c-.5-.7-1.64,0-1.15.71l.94,1.33,1-.85-8.39-9.8c-.49-.59-1.43.22-1,.84a34.1,34.1,0,0,0,9,9.1c.66.46,1.26-.55.77-1.08l-7.88-8.75c-.58-.65-1.46.33-.92,1a27.46,27.46,0,0,0,8.74,6.8c.66.33,1.38-.56.78-1.08-3.83-3.32-9.27-3.54-13.07-6.92C1802.5,1000.81,1801.57,1001.8,1802.22,1002.36Z" transform="translate(-1677.94 -878.83)"/><path class="cls-1" d="M1794.76,990.64a14,14,0,0,0,8.94-2.46.68.68,0,0,0-.7-1.15,27.56,27.56,0,0,1-5.89,2.64l.55,1.2a23.79,23.79,0,0,1,6-2.75l-.39-1.28c-2.9,1.2-5.85,2.35-9,1.86l0,1.29q5.28-.91,10.51-2.12l-.4-1.29a27.62,27.62,0,0,1-9.91,1.52l.23,1.33,9.56-2.1c.84-.19.44-1.46-.4-1.3a42.94,42.94,0,0,1-12.49.75c-.85-.07-.81,1.28.05,1.4a44.94,44.94,0,0,0,12.83-.8l-.41-1.29-9.56,2.09c-.77.18-.49,1.27.23,1.33a29.18,29.18,0,0,0,10.3-1.76.67.67,0,0,0,.42-.85.66.66,0,0,0-.83-.43c-3.47.79-7,1.51-10.49,2.12-.66.11-.59,1.25,0,1.3,3.47.53,6.57-.57,9.73-1.88a.67.67,0,0,0-.39-1.28,25.11,25.11,0,0,0-6.31,3,.66.66,0,0,0-.19.93.68.68,0,0,0,.76.28,28,28,0,0,0,6.17-2.78L1803,987a12.73,12.73,0,0,1-8.27,2.21c-.87-.05-.81,1.29,0,1.39Z" transform="translate(-1677.94 -878.83)"/><path class="cls-1" d="M1802.51,989.82l12,5.08c.78.32,1.43-.81.64-1.23a70,70,0,0,1-10.92-6.51l-.65,1.23,9.24,4.92c1.58.86,2.94,1.83,4.68,1.1.57-.27.25-1.1-.2-1.24-3.89-1.09-10.66-1.7-12.95-5.48l-.9.95,13.21,5.46c.79.34,1.44-.85.64-1.23l-13.18-5.47a.69.69,0,0,0-.92.32.67.67,0,0,0,0,.63c2.56,4.29,9.42,4.87,13.79,6.08l-.21-1.22c-1.56.75-5.35-2.15-6.73-3l-5.83-3.14c-.79-.42-1.33.7-.65,1.23a71.31,71.31,0,0,0,10.93,6.51l.65-1.24-12-5.07c-.79-.33-1.44.85-.65,1.23Z" transform="translate(-1677.94 -878.83)"/><path class="cls-1" d="M1822.27,1006.41l-1.63-.38-.3,1.31c3.27.49,6.54.88,9.83,1.18.76.06.87-1.18.14-1.35l-8.22-.89c-.83-.09-1.17,1.11-.3,1.32a43.21,43.21,0,0,0,8.11.8.69.69,0,0,0,.13-1.35,49.88,49.88,0,0,0-8.46-.35.7.7,0,0,0-.68.72.69.69,0,0,0,.72.67l7.52-.26-.05-1.39a22.09,22.09,0,0,1-5.57.16c-.84-.08-1.17,1.11-.3,1.31a19.3,19.3,0,0,0,6.43.34.69.69,0,0,0,.68-.71.7.7,0,0,0-.72-.68,26.31,26.31,0,0,0-7.25.41c-.77.15-.49,1.27.23,1.31a57,57,0,0,0,7.39-.39.67.67,0,0,0,.74-.6.68.68,0,0,0-.6-.75,44.83,44.83,0,0,0-6.44-1.68.67.67,0,0,0-.81.5.68.68,0,0,0,.5.81l6.06,1.3a.66.66,0,0,0,.87-.39.68.68,0,0,0-.39-.88l-5.27-2.49-.65,1.24a38.19,38.19,0,0,0,6.45,2,.68.68,0,0,0,.48-1.28,35.08,35.08,0,0,1-5.12-3.62l-.77,1.07,5.29,3.41c.57.37,1.24-.4.9-1l-3.55-5.61-1,.9a27.55,27.55,0,0,1,4.16,4.73.68.68,0,0,0,1.15-.7l-2.88-5.47-1.14.72,3.47,5.19c.4.61,1.51.19,1.21-.55l-2.51-6.28c-.31-.79-1.61-.37-1.28.41l2.51,6.27,1.22-.55-3.48-5.21a.67.67,0,1,0-1.14.72l2.87,5.45,1.15-.7a28.94,28.94,0,0,0-4.37-5,.68.68,0,0,0-1,.1.71.71,0,0,0-.08.75l3.55,5.61.9-.95-5.3-3.4a.68.68,0,0,0-.79,1.08,37,37,0,0,0,5.46,3.75l.49-1.27a37.05,37.05,0,0,1-6.16-1.87.7.7,0,0,0-.65,1.23l5.17,2.68.48-1.27-6.06-1.31-.3,1.31a43.59,43.59,0,0,1,6.44,1.69l.12-1.36a65.22,65.22,0,0,1-7.39.39l.23,1.31a24.93,24.93,0,0,1,6.9-.33l0-1.4a17.75,17.75,0,0,1-6.08-.3l-.31,1.32a23,23,0,0,0,5.92-.14.7.7,0,0,0,0-1.4l-7.52.27.05,1.39a46.69,46.69,0,0,1,8.1.32l.13-1.35a41.56,41.56,0,0,1-7.78-.79l-.3,1.32,8.21.88.14-1.35c-3.17-.29-6.33-.68-9.42-1.14a.67.67,0,0,0-.3,1.31l1.62.38a.67.67,0,0,0,.81-.5.68.68,0,0,0-.5-.81Z" transform="translate(-1677.94 -878.83)"/><path class="cls-1" d="M1827.52,996.19l-.83-.79c-.62-.6-1.47.37-.92,1a97.48,97.48,0,0,0,12,10.63l.44-1.15a23.15,23.15,0,0,1-8.34-.22,8.68,8.68,0,0,1-1.94-.58c-.92-2-.79-2.54.54-1.49a16.53,16.53,0,0,1,3.83,2.08c.55.3,1.34-.4.9-.95l-4.39-5.39-1,.85,6.35,6.6.93-1a11.67,11.67,0,0,0-2.71-2,.7.7,0,0,0-.65,1.23l2.32,1.5c.64.4,1.41-.63.8-1.09l-4.71-3.53c-.69-.52-1.62.45-.93,1l4.71,3.53.79-1.07-2.34-1.48-.65,1.23a10.29,10.29,0,0,1,2.42,1.78.67.67,0,0,0,.93-1l-6.36-6.61c-.53-.55-1.53.24-1,.84l4.37,5.39.89-1c-1.24-.65-8.52-5.59-7.47-.43.91,4.36,9.73,3.65,12.8,3.17.5-.07.94-.78.44-1.16a98.09,98.09,0,0,1-12-10.74l-.92,1,.83.79a.67.67,0,0,0,1,0,.68.68,0,0,0,0-1Z" transform="translate(-1677.94 -878.83)"/><path class="cls-1" d="M1831.89,1004.48a19.75,19.75,0,0,0,3.56,2.52c.77.41,1.32-.7.65-1.23a21.74,21.74,0,0,1-4.06-3.72c-.53-.62-1.43.2-1,.85a6.33,6.33,0,0,0,3.89,3.18.67.67,0,0,0,.31-1.31,5,5,0,0,1-3-2.58l-1,.83a22.51,22.51,0,0,0,4.35,3.92l.65-1.23a17.42,17.42,0,0,1-3.33-2.32c-.65-.58-1.57.4-.93,1Z" transform="translate(-1677.94 -878.83)"/><path class="cls-1" d="M1836.94,996.13l14.81,3a.67.67,0,0,0,.3-1.31l-14.81-3a.67.67,0,1,0-.3,1.31Z" transform="translate(-1677.94 -878.83)"/><path class="cls-1" d="M1842.83,997.82a32,32,0,0,1,5.05,2.57l.66-1.23-5-2.32a.7.7,0,0,0-.66,1.23h0l4,2.31.65-1.23-3.17-1.82c-.65-.37-1.4.6-.78,1.08a11.8,11.8,0,0,0,4.6,2.23.69.69,0,0,0,.82-.52.76.76,0,0,0,0-.15,2.88,2.88,0,0,0-2.25-3,.67.67,0,0,0-.8.51.65.65,0,0,0,.19.63,5.59,5.59,0,0,0,6.15.75c.78-.38.07-1.51-.71-1.14a4.17,4.17,0,0,1-4.51-.58l-.63,1.14a1.46,1.46,0,0,1,1.22,1.66l.82-.68a10.17,10.17,0,0,1-4-1.89l-.78,1.07,3.17,1.82a.7.7,0,1,0,.65-1.23l-4-2.31-.66,1.23,5,2.3a.68.68,0,0,0,.94-.28.71.71,0,0,0-.28-1,33.71,33.71,0,0,0-5-2.56c-.79-.32-1.44.86-.66,1.23Z" transform="translate(-1677.94 -878.83)"/><path class="cls-1" d="M1856.26,976c-.94.54-.86.43-1.3,1.43a.68.68,0,0,0,.31.92.6.6,0,0,0,.32.07,23.72,23.72,0,0,0,8.44-2.06c.76-.34.38-1.6-.4-1.28l-9.45,3.32.39,1.28,8.33-3c.68-.24.57-1.44-.23-1.32a37.5,37.5,0,0,0-9.49,2.68l.39,1.29a18.38,18.38,0,0,0,5-3.2c.54-.48-.1-1.26-.7-1.11a7.64,7.64,0,0,0-4.74,3.31c-.44.63.58,1.35,1.09.79a27,27,0,0,1,5.11-4.56c.72-.48,0-1.61-.7-1.13l-5.58,3.65a.68.68,0,0,0,.71,1.15,61.7,61.7,0,0,1,16.35-7.25l-.56-1.22q-6.43,3.27-12.8,6.69l.71,1.15,14.08-7.78-.71-1.14a157.52,157.52,0,0,1-13.69,8c-.67.34-.14,1.53.55,1.2l13.15-6-.55-1.2-13.3,7.76c-.76.45,0,1.52.71,1.14Q1865,976,1872,971.9l-.85-1a62.51,62.51,0,0,1-11,7.48c-.78.41-.06,1.53.71,1.14a119.25,119.25,0,0,0,11.25-6.25l-.85-1a66.74,66.74,0,0,1-7,5.61c-.59.41-.19,1.51.56,1.22a24.73,24.73,0,0,0,8.45-5.57.67.67,0,0,0-.08-.94.65.65,0,0,0-.76-.08c-2.25,1.46-4.46,3-6.6,4.56a.67.67,0,0,0,.7,1.13c2-1.13,9.73-5.49,7.5-8.43a.71.71,0,0,0-.77-.29,6,6,0,0,0-4,5.63.68.68,0,0,0,.73.64.85.85,0,0,0,.31-.09c2-1.32,6.63-5.24,4.49-7.94-.53-.68-1.68,0-1.14.7.76,1-1.09,3.48-1.59,4a13.65,13.65,0,0,1-2.48,2.06l1,.55c-.27-1.51.19-2.41,1.39-2.69a16,16,0,0,1-1.64,1.57,29,29,0,0,1-4.5,3.1l.71,1.13c2.17-1.56,4.4-3.12,6.59-4.56l-.84-1a22.58,22.58,0,0,1-7.93,5.2l.56,1.22a69.17,69.17,0,0,0,7.27-5.85c.57-.52-.21-1.43-.84-1-3.66,2.27-7.4,4.34-11.25,6.25l.71,1.15a63.79,63.79,0,0,0,11.3-7.69c.6-.52-.21-1.43-.85-1-4.78,2.69-9.53,5.26-14.33,7.71l.72,1.14,13.28-7.75c.66-.38.17-1.54-.54-1.22l-13.11,5.91.55,1.21a155.94,155.94,0,0,0,13.69-8,.67.67,0,0,0,.22-.93.68.68,0,0,0-.93-.22l-14.08,7.78c-.76.41,0,1.53.71,1.15q6.33-3.39,12.81-6.69c.69-.37.13-1.35-.56-1.21a62.53,62.53,0,0,0-16.68,7.47l.71,1.15,5.56-3.71-.71-1.13a27.76,27.76,0,0,0-5.4,4.75l1.09.79a6.11,6.11,0,0,1,3.94-2.59l-.61-1.11a15.31,15.31,0,0,1-4.41,2.83c-.79.34-.38,1.64.39,1.29a35.57,35.57,0,0,1,9.16-2.62l-.23-1.32-8.42,3c-.81.29-.37,1.58.39,1.28l9.46-3.32-.4-1.29a23,23,0,0,1-8.1,2l.62,1,.83-.93c.76-.43,0-1.58-.72-1.15Z" transform="translate(-1677.94 -878.83)"/><path class="cls-1" d="M1883.23,1018.28a23.62,23.62,0,0,0-.92-7.53.68.68,0,0,0-1.32.23c-.31,11.57,3.19,22.79,3.49,34.33l1.13-.52c-3.39-3.9-3.1-11-3.18-16s.19-10.14.5-15.2l-1.39,0q1,13.67,3.17,27.17l1.31-.22a107.18,107.18,0,0,1-5.28-28.22l-1.3.22,3.65,16.37c1.19,5.3,2.89,10.73,3,16.18l1-.63c-2.42-1.52-3.15-6.53-3.71-9.16a70.92,70.92,0,0,1-1.35-9.62c-.44-5.64-.36-11.34-.27-17l-1.4,0a93.6,93.6,0,0,0,1.13,14c.31,2.12,3.37,13.53,1.67,14.46l1,.37a294.81,294.81,0,0,1-4.91-31.28l-1.32.22c1.93,9.51,4.55,19.12,5,28.82l1.31-.22a88.18,88.18,0,0,1-6.27-31l-1.31.22a107.19,107.19,0,0,1,3.18,33.13l1.39,0c-1-9.92-2.19-19.87-3.38-29.83l-1.4,0,4,26.15,1.33-.22a62.19,62.19,0,0,1-3.24-15.31c-.33-4.11.51-8.64-1.24-12.48a.67.67,0,0,0-1.28.4q2.57,14.25,3.7,28.74l1.24-.39c-6-8.32-1.49-19.26-4.4-28.54-.21-.7-1.42-.56-1.31.22q2.28,17.12,6,34l1.28-.39a76.88,76.88,0,0,1-5-33.19c.06-.86-1.28-.8-1.4,0a77.63,77.63,0,0,0,5,33.52.66.66,0,0,0,.88.35.67.67,0,0,0,.4-.75q-3.65-16.73-6-33.7l-1.31.22c2.9,9.43-1.67,20.35,4.49,28.85.37.5,1.31.31,1.24-.39q-1.15-14.61-3.76-29.07l-1.28.39c1.9,4.27.83,9.88,1.36,14.47a64.75,64.75,0,0,0,3.07,13.31c.24.69,1.45.56,1.33-.21l-4-26.17c-.13-.83-1.46-.81-1.4,0,1.19,10,2.38,19.83,3.37,29.82a.7.7,0,1,0,1.39,0,108.27,108.27,0,0,0-3.24-33.49.67.67,0,0,0-1.31.22,88.27,88.27,0,0,0,6.32,31.36.67.67,0,0,0,.86.41.66.66,0,0,0,.45-.63c-.46-9.87-3-19.58-5-29.2a.68.68,0,0,0-1.32.22,295.45,295.45,0,0,0,5,31.58.67.67,0,0,0,.84.44l.15-.07c2.84-1.56.22-8.16-.17-10.4a108.19,108.19,0,0,1-2-19.25c0-.88-1.33-.81-1.4,0a148.46,148.46,0,0,0,1,21.81,61.31,61.31,0,0,0,2,9.28c.68,2.3,1.22,4.68,3.35,6a.69.69,0,0,0,.92-.32.55.55,0,0,0,.07-.31c-.18-5.14-1.65-10.22-2.77-15.19l-4-17.69c-.17-.76-1.35-.52-1.31.22a108.84,108.84,0,0,0,5.38,28.54c.23.69,1.44.56,1.31-.22q-2.19-13.53-3.15-27.17a.7.7,0,0,0-1.39,0,158.24,158.24,0,0,0-.37,18.86c.35,4.42.5,9.7,3.46,13.25.4.47,1.16,0,1.14-.51-.3-11.54-3.8-22.75-3.48-34.33l-1.25.18a22.66,22.66,0,0,1,.87,7.19c0,.86,1.3.8,1.39,0Z" transform="translate(-1677.94 -878.83)"/><path class="cls-1" d="M1879.39,1030.39l.07,6.6,1.31-.23c-3.34-11.07-3.79-22.08-4-33.56a.7.7,0,1,0-1.39,0c.23,11.58.7,22.71,4.07,33.9a.68.68,0,0,0,.85.43.65.65,0,0,0,.46-.66l0-6.55c0-.86-1.36-.82-1.4,0Z" transform="translate(-1677.94 -878.83)"/><path class="cls-1" d="M1879.49,1030.09c-1.49-8.35-2.9-16.72-2-25.2l-1.35-.14c.3,4.66-1.62,9.08-1.52,13.75a42.57,42.57,0,0,0,2.81,12.49l1.28-.39c-3.41-8-1.79-18.07-1.6-26.58l-1.39.05c.27,5.18-4.19,12,1.26,15.94.69.5,1.33-.69.66-1.23-4.58-3.28-.35-10.36-.55-14.82a.71.71,0,0,0-.73-.67.7.7,0,0,0-.67.72c-.18,8.66-1.81,18.72,1.67,26.91.33.78,1.55.45,1.28-.39-1.41-4.26-2.88-8.65-2.74-13.2.13-4.28,1.84-8.28,1.56-12.6a.69.69,0,0,0-1.35-.12c-1,8.73.45,17.32,2,25.89.16.85,1.45.45,1.3-.39Z" transform="translate(-1677.94 -878.83)"/><path class="cls-1" d="M1856.28,938.77l8.89,11,1-.84a73.5,73.5,0,0,1-11.28-14l-1,.85c4.26,5.06,8.34,10.41,13.39,14.73a.67.67,0,0,0,1-.84,192.48,192.48,0,0,0-13.7-19c-.49-.59-1.43.21-1,.84a112.59,112.59,0,0,0,13.51,17.4.69.69,0,0,0,1-.06.66.66,0,0,0,.17-.45c-.25-2.82-3.61-5.42-5.32-7.48l-8.71-10.55c-.48-.58-1.52.25-1,.85a120.84,120.84,0,0,0,13.43,14.09c.54.48,1.52-.22,1-.84a134.54,134.54,0,0,0-15.19-16.64c-.53-.5-1.52.22-1,.83a107.72,107.72,0,0,0,14.18,14.15.67.67,0,0,0,.93-1q-7.29-7.34-14.74-14.5l-.92,1q8,6.74,15.38,14.13l.94-1q-7.92-7.53-16.3-14.73a.67.67,0,0,0-.94.12.68.68,0,0,0,0,.85l19.33,18.15a.68.68,0,1,0,.94-1h0l-19.35-18.18-.92,1q8.33,7.2,16.28,14.74a.68.68,0,1,0,.94-1q-7.41-7.38-15.4-14.12a.67.67,0,0,0-.92,1q7.45,7.18,14.73,14.51l.93-1a105.83,105.83,0,0,1-14-13.88l-1,.84a133.58,133.58,0,0,1,15,16.39l1-.86a119.24,119.24,0,0,1-13.26-13.8l-1,.84,6.64,8,3.37,4c1,1.22,3.51,3.46,3.66,5l1.14-.51a110.81,110.81,0,0,1-13.3-17.13l-1,.84a189,189,0,0,1,13.48,18.79l1-.86c-5-4.31-9.12-9.66-13.38-14.74-.5-.58-1.44.22-1,.86a75.58,75.58,0,0,0,11.5,14.27c.53.51,1.52-.24,1-.85l-8.9-11c-.55-.66-1.69,0-1.15.72Z" transform="translate(-1677.94 -878.83)"/><path class="cls-1" d="M1931.72,929.06a126.32,126.32,0,0,0,8.63,31.51l1.21-.56a189.13,189.13,0,0,1-10.26-26.69c-.24-.85-1.47-.44-1.28.39,2.55,11.53,5.17,23.08,9.78,34,.33.79,1.57.44,1.28-.39a266.18,266.18,0,0,1-8.62-32.61l-1.28.4c2.51,10.27,5.06,20.67,9.49,30.4.35.77,1.54.47,1.3-.39l-9.34-32.78a.68.68,0,0,0-1.29.41c2.57,9.25,5.47,18.43,10.53,26.68.38.64,1.48.18,1.21-.55l-9.84-25.8a.68.68,0,0,0-.88-.36.67.67,0,0,0-.4.75,114.92,114.92,0,0,0,9.39,24.15c.36.68,1.47.17,1.22-.56l-10-28a.68.68,0,0,0-.88-.36.69.69,0,0,0-.4.76c2.75,9,6.12,17.84,11.42,25.7.41.61,1.55.18,1.22-.56L1933.3,931a.68.68,0,0,0-1.29.4,103.89,103.89,0,0,0,11.6,24.12c.47.76,1.51.06,1.15-.7L1933.62,931c-.33-.7-1.47-.17-1.22.56a123.56,123.56,0,0,0,9.45,21c.43.77,1.51,0,1.13-.71q-4.05-8.25-7.89-16.59L1934,936q2.38,5.15,5.15,10.12c.43.75,1.57,0,1.15-.71-1.84-3.32-3.56-6.68-5.16-10.13-.36-.78-1.49-.07-1.14.72q3.84,8.36,7.9,16.58l1.13-.71a122.32,122.32,0,0,1-9.3-20.69l-1.21.56,11.14,23.72,1.15-.7A101.93,101.93,0,0,1,1933.3,931l-1.29.4,10.55,23.58,1.21-.56c-5.25-7.77-8.6-16.47-11.29-25.38l-1.28.39,10,28,1.22-.56a113.17,113.17,0,0,1-9.26-23.83l-1.28.39,9.84,25.8,1.2-.54c-5-8.17-7.83-17.24-10.42-26.4l-1.29.4,9.36,32.87,1.3-.39c-4.41-9.72-7-20.06-9.5-30.41-.2-.85-1.44-.43-1.28.41a266,266,0,0,0,8.62,32.6l1.28-.4c-4.59-10.93-7.21-22.42-9.77-34l-1.28.39a189.24,189.24,0,0,0,10.39,27c.33.68,1.52.14,1.21-.56a125.23,125.23,0,0,1-8.57-31.15c-.12-.86-1.45-.81-1.39,0Z" transform="translate(-1677.94 -878.83)"/><path class="cls-1" d="M1712.12,1027.55l.46,1.84c.14.61.93.56,1.23.12,4.66-7,7.53-14.84,10.29-22.61l-1.31-.31a191.61,191.61,0,0,1-6.81,19.46l1.25.12c-.68-3,1.17-6.43,2.14-9.18,1.07-3,2.19-6,3.32-9.07a.69.69,0,1,0-1.23-.64c-3.59,5.25-5.27,11.82-7.41,17.76l1.31.31a72,72,0,0,1,6.19-16.33.68.68,0,0,0-.29-.93.69.69,0,0,0-.94.29c-3.78,5.31-4.52,12-7.92,17.51l1.27.47a78.27,78.27,0,0,1,5.73-14.93l-1.23-.66a56.66,56.66,0,0,1-6.51,12.76l1.14.63a86.6,86.6,0,0,1,5.65-13.31.7.7,0,0,0-1.23-.65,86.14,86.14,0,0,0-5.78,13.64c-.15.63.75,1.14,1.14.61a57.91,57.91,0,0,0,6.85-13.06c.32-.78-.78-1.44-1.23-.66a80.7,80.7,0,0,0-5.83,15.23.68.68,0,0,0,.39.88.69.69,0,0,0,.88-.4c3.41-5.5,4.15-12.18,7.92-17.51l-1.24-.65a73.53,73.53,0,0,0-6.32,16.65.67.67,0,0,0,.5.81.66.66,0,0,0,.81-.5c2.11-5.83,3.77-12.28,7.28-17.44l-1.23-.64q-2,5.25-3.85,10.56c-1,2.85-2.36,5.68-1.72,8.74a.69.69,0,0,0,.87.43.67.67,0,0,0,.37-.31,198,198,0,0,0,6.93-19.78.67.67,0,0,0-1.31-.31c-2.74,7.72-5.58,15.41-10.16,22.27l1.23.12-.45-1.83c-.21-.84-1.5-.45-1.29.4Z" transform="translate(-1677.94 -878.83)"/><path class="cls-1" d="M1719.93,1017.12a37.7,37.7,0,0,1,.35,10.76.68.68,0,0,0,.51.81.67.67,0,0,0,.8-.5l8.16-26.47-1.31-.31-9.13,29.67c-.16.73,1,1.18,1.28.48q6-14,10.72-28.57l-1.31-.3a180.68,180.68,0,0,1-10.49,27.72l1.27.49c3.06-8.7,6.49-17.25,10-25.8l-1.27-.48q-4.5,14.32-9.87,28.35c-.31.79.87,1.45,1.23.65l11.19-28.24c.31-.8-.85-1.45-1.23-.66l-12.15,28.9,1.27.48a259.76,259.76,0,0,1,13.33-38.64c.35-.79-.84-1.44-1.23-.66a264,264,0,0,0-13.47,39c-.16.72.94,1.19,1.27.49l12.16-28.9-1.23-.66L1719.55,1033l1.23.65q5.45-14.17,10-28.68c.23-.7-1-1.18-1.28-.47-3.5,8.65-7,17.31-10.07,26.13-.25.71.94,1.16,1.28.48a183.71,183.71,0,0,0,10.6-28.07.67.67,0,0,0-1.31-.31q-4.66,14.34-10.59,28.24l1.27.48,9.13-29.68a.67.67,0,0,0-1.31-.3l-8.19,26.46,1.31.31a40.44,40.44,0,0,0-.37-11.47c-.15-.85-1.43-.45-1.29.4Z" transform="translate(-1677.94 -878.83)"/><path class="cls-1" d="M1697.67,1064.57l-2,1.74,1.09.78a68.59,68.59,0,0,1,8.53-11.58l-1.09-.79a69.08,69.08,0,0,0-5.7,12.16c-.23.64.72,1.07,1.14.62a19.71,19.71,0,0,0,4.3-7.44.68.68,0,0,0-1.14-.62,17.77,17.77,0,0,0-4.52,8.31.68.68,0,0,0,1.27.49,82.9,82.9,0,0,0,6.26-14.29c.16-.72-1-1.18-1.28-.48a93.81,93.81,0,0,0-4.29,14.77c-.16.71,1,1.2,1.27.48l4.47-11.55-1.27-.49a97.82,97.82,0,0,0-3.66,13.23.68.68,0,0,0,1.32.31q2.34-7.54,5.07-14.92l-1.31-.31a122.31,122.31,0,0,0-3.85,16.5.67.67,0,0,0,1.31.3,142.59,142.59,0,0,1,3.65-15l-1.32-.3q-1.77,8.36-4,16.6l1.32.3c.88-6.33,4.64-11.76,5.59-18.05a.67.67,0,1,0-1.31-.3q-2.38,8.79-5.36,17.41c-.25.7,1,1.18,1.27.48l5.5-14.38-1.27-.48-5.78,16.24,1.29,0c-.7-2.92,1.24-6.07,2.32-8.66l2.58-6.44c.33-.78-.86-1.44-1.23-.65-1.35,3.26-2.71,6.51-4,9.78a9.55,9.55,0,0,0-1,6.25c.17.72,1.09.52,1.29,0l5.82-16.22c.25-.7-1-1.18-1.27-.48l-5.41,14.46,1.27.48q3-8.62,5.37-17.41l-1.31-.31c-1,6.32-4.71,11.75-5.6,18a.67.67,0,1,0,1.31.31q2.22-8.23,4-16.6a.67.67,0,1,0-1.31-.31,144.48,144.48,0,0,0-3.73,15l1.32.31a122.67,122.67,0,0,1,3.85-16.5c.26-.84-1-1.09-1.31-.31q-2.74,7.38-5.08,14.93l1.31.3A97.82,97.82,0,0,1,1706,1057c.25-.7-1-1.18-1.27-.48l-4.47,11.56,1.27.49a89.55,89.55,0,0,1,4.16-14.44l-1.27-.49a80.88,80.88,0,0,1-6.12,14l1.27.48a16.4,16.4,0,0,1,4.17-7.69l-1.14-.61a17.68,17.68,0,0,1-4,6.81l1.14.62a67.37,67.37,0,0,1,5.53-11.83.7.7,0,0,0-.34-.91.69.69,0,0,0-.75.12,70.45,70.45,0,0,0-8.73,11.87c-.41.69.54,1.25,1.09.78l2-1.73c.66-.56-.34-1.46-1-.93Z" transform="translate(-1677.94 -878.83)"/><path class="cls-1" d="M1734.7,960.2a27.6,27.6,0,0,1-2.63-6.5c-.21-.86-1.47-.44-1.28.39l4.59,20.22,1.28-.39q-3.83-11.58-6.82-23.39c-.22-.85-1.49-.44-1.29.39a113.55,113.55,0,0,0,6.13,18.58.67.67,0,0,0,1.28-.4c-1.56-7.7-3.42-15.31-5.29-22.94l-1.3.41,6.09,17.5c.29.82,1.57.37,1.3-.4a149.65,149.65,0,0,1-5.9-22.12l-1.32.22a107.94,107.94,0,0,0,7,20.75c.35.7,1.43.15,1.21-.57l-6.31-21.41c-.25-.83-1.49-.44-1.3.4a76.76,76.76,0,0,0,7.2,18.87.67.67,0,0,0,.92.23.68.68,0,0,0,.3-.77q-3.69-10.11-6.52-20.47l-1.28.39a150.31,150.31,0,0,0,6.82,16.45c.34.68,1.46.16,1.22-.56-1.9-5.6-4.35-11-6.74-16.36l-1.21.56a138.79,138.79,0,0,1,7.76,18c.28.83,1.58.37,1.28-.39a136.65,136.65,0,0,0-7.91-18.31c-.34-.66-1.53-.14-1.21.56a174.66,174.66,0,0,1,6.77,16.32l1.21-.56A148.77,148.77,0,0,1,1732,938.8a.67.67,0,0,0-1.28.39q2.8,10.34,6.43,20.49l1.21-.55a75.19,75.19,0,0,1-7-18.57l-1.3.4,6.33,21.42,1.22-.56a105.26,105.26,0,0,1-6.81-20.39c-.19-.73-1.45-.55-1.32.21a153.59,153.59,0,0,0,6,22.5l1.3-.41-6.09-17.5a.68.68,0,0,0-1.3.4h0c1.89,7.62,3.75,15.24,5.31,22.94l1.28-.41a113.3,113.3,0,0,1-6.12-18.56l-1.29.39q3,11.76,6.83,23.39a.68.68,0,0,0,.88.36.67.67,0,0,0,.4-.76l-4.58-20.26-1.29.39a28.34,28.34,0,0,0,2.78,6.82c.43.76,1.58.05,1.15-.7Z" transform="translate(-1677.94 -878.83)"/><path class="cls-1" d="M1729.46,937.81l7.37,16.49c.34.78,1.64.38,1.28-.4l-7.35-16.48C1730.4,936.63,1729.11,937,1729.46,937.81Z" transform="translate(-1677.94 -878.83)"/><path class="cls-1" d="M1730.24,938.27c3.22,5.69,6.39,11.44,7.47,18,.14.85,1.49.81,1.39,0-1.18-6.8-4.32-12.72-7.68-18.63-.42-.75-1.57,0-1.14.72Z" transform="translate(-1677.94 -878.83)"/><path class="cls-1" d="M1775.76,940.88q2.85,6.35,6.24,12.42c.43.77,1.53.05,1.15-.7l-7.88-16-1.15.7,7.93,14.67c.41.77,1.5.06,1.13-.7l-6-12.19-1.15.71,8.8,14.27c.46.74,1.55,0,1.15-.72l-8-14.66c-.42-.78-1.51-.05-1.15.71a104.38,104.38,0,0,0,9.29,15.72c.5.7,1.62,0,1.14-.71-3.81-5.77-7.52-11.59-9.44-18.29l-1.23.56a202,202,0,0,0,10.87,18.6.68.68,0,1,0,1.15-.71,113.21,113.21,0,0,1-10.17-21.13l-1.22.56c3.32,7.1,6.24,14.73,11.09,20.91.42.54,1.57.2,1.22-.56l-9.84-21.76c-.34-.77-1.61-.38-1.28.39a102.5,102.5,0,0,0,11.15,21.15.67.67,0,0,0,.94.08.68.68,0,0,0,.19-.79l-9.49-19.82-1.15.7c2.64,5.42,4.78,11.88,8.78,16.42.55.61,1.43-.19,1-.85q-3.78-7.49-7.26-15.11l-1.13.72q3.38,6.16,7,12.19l1.15-.72a57.37,57.37,0,0,1-4.92-10l-1.21.56a75.49,75.49,0,0,1,5.59,11.6l1.28-.4a65.86,65.86,0,0,0-4.34-9.14l-1.13.72,3.77,6.16,1.14-.72a18.35,18.35,0,0,1-1.81-3.35l-1.2.55c.89,1.76,1.72,3.51,2.5,5.31l1.21-.54-2.8-5.76-1.15.71,2.26,4,1.13-.72-1.69-2.58a.68.68,0,0,0-1.15.7l2.14,3.87c.42.78,1.54.06,1.14-.71l-2.4-4.71-1.15.7c1.22,2.07,2.32,4.17,3.34,6.31l1.14-.72a80.07,80.07,0,0,0-5.94-10.47c-.48-.72-1.63,0-1.13.7a82.61,82.61,0,0,1,5.93,10.49c.37.78,1.49.06,1.14-.72a64.18,64.18,0,0,0-3.33-6.31c-.45-.75-1.53,0-1.14.7l2.41,4.72,1.13-.72-2-3.79-1.14.7,1.7,2.59a.67.67,0,0,0,.94.14.66.66,0,0,0,.19-.85L1787.9,942c-.45-.77-1.51-.05-1.15.71l2.8,5.76c.34.67,1.53.15,1.23-.56-.83-1.91-1.71-3.77-2.64-5.64-.36-.67-1.52-.14-1.23.56a20.26,20.26,0,0,0,1.92,3.66.67.67,0,0,0,.94.13.66.66,0,0,0,.19-.85l-3.77-6.16c-.45-.75-1.57,0-1.14.71a64.1,64.1,0,0,1,4.19,8.82c.31.81,1.6.37,1.28-.39a73.32,73.32,0,0,0-5.78-11.93c-.38-.64-1.48-.18-1.21.55a59.86,59.86,0,0,0,5,10.33.68.68,0,1,0,1.15-.71q-3.63-6-7-12.19c-.43-.78-1.5-.06-1.14.71q3.5,7.59,7.25,15.11l1-.85c-3.88-4.38-6-10.92-8.57-16.13-.37-.78-1.51-.07-1.15.7l9.44,19.83,1.13-.7a102,102,0,0,1-11-20.84l-1.28.39,9.84,21.78,1.21-.56c-4.89-6.17-7.84-13.83-11.09-20.91-.32-.7-1.47-.16-1.21.55a114.66,114.66,0,0,0,10.3,21.45l1.15-.72a192.91,192.91,0,0,1-10.87-18.6c-.35-.69-1.35-.14-1.21.56,2,6.81,5.76,12.78,9.7,18.62l1.15-.71a104.33,104.33,0,0,1-9.28-15.72l-1.15.71,7.91,14.63,1.15-.72L1777.24,939c-.46-.76-1.51,0-1.15.71l6,12.18,1.13-.71-7.91-14.66c-.42-.78-1.52-.07-1.15.7l7.89,16,1.15-.7c-2.21-4-4.25-8-6.1-12.13-.35-.77-1.64-.38-1.28.41Z" transform="translate(-1677.94 -878.83)"/><path class="cls-1" d="M1785.7,941.07l4.48,8.45c.4.78,1.51.05,1.14-.71a87.93,87.93,0,0,1-3.78-9.09l-1.23.56,3.72,8.07,1.13-.71L1789,944a.67.67,0,0,0-.94-.08.68.68,0,0,0-.19.79l2.17,3.68c.46.76,1.49.06,1.13-.71l-3.65-8c-.33-.7-1.47-.16-1.21.56a88.8,88.8,0,0,0,3.93,9.4l1.13-.72-4.47-8.44c-.4-.77-1.55-.06-1.14.7Z" transform="translate(-1677.94 -878.83)"/><path class="cls-1" d="M1711.7,909.32l-3-6c-.36-.75-1.35-.13-1.2.56.84,4.86,4,9.24,6.55,13.37,3,4.85,6.14,9.59,9.46,14.21a.68.68,0,1,0,1.15-.71l-14.55-26.53c-.41-.76-1.52-.05-1.13.72,3.94,7.83,7.91,15.67,12.44,23.17.46.76,1.51,0,1.15-.71L1710,901.5l-1.15.7L1721,926c.34.68,1.52.15,1.21-.56l-11.55-27.21c-.33-.78-1.59-.37-1.3.4a147.93,147.93,0,0,0,11.84,26.27.69.69,0,0,0,1,.15.7.7,0,0,0,.27-.71c-3.3-9.56-8-18.54-12.72-27.48-.36-.68-1.52-.16-1.21.55,3,7.27,6.15,14.51,10.92,20.85.44.56,1.54.21,1.22-.56a150.51,150.51,0,0,0-10.6-20.93c-.39-.63-1.49-.17-1.22.56a81.84,81.84,0,0,0,12,21.72.67.67,0,0,0,1,.08.66.66,0,0,0,.18-.78l-11-20.26c-.36-.67-1.46-.16-1.21.56,2.13,6.15,5.79,11.43,9.69,16.6.43.57,1.5.21,1.22-.56a57.81,57.81,0,0,0-8.72-15.94.67.67,0,0,0-1.14.71,41.44,41.44,0,0,0,7.81,11.39c.54.56,1.43-.2,1-.85q-4-6.66-8.55-13.06c-.5-.7-1.63,0-1.15.72l7,10.66a.68.68,0,1,0,1.15-.72,68.69,68.69,0,0,0-8.44-11.94c-.5-.57-1.43.22-1,.84l8.42,12.21c.4.59,1.55.17,1.21-.56a45.16,45.16,0,0,0-8.3-12.42c-.53-.54-1.44.25-1,.85l8.91,12a.67.67,0,0,0,1.14-.71,53.16,53.16,0,0,0-8.79-13c-.5-.56-1.43.23-1,.85l8.06,11.41a.67.67,0,0,0,1.14-.7,85.59,85.59,0,0,0-8.31-11.8c-.52-.63-1.34.21-1,.84,2.12,4.24,6.67,6.95,7.86,11.64l1.22-.56a41.86,41.86,0,0,0-10.23-13c-.65-.56-1.59.41-.93,1a40.94,40.94,0,0,1,10,12.73c.36.71,1.35.15,1.22-.56-1.27-4.86-5.82-7.58-8-11.93l-1,.83a85.69,85.69,0,0,1,8.09,11.57l1.14-.7L1710.36,895l-1,.84a51.91,51.91,0,0,1,8.57,12.76l1.13-.72-8.9-12-1,.85a42.3,42.3,0,0,1,8,11.84l1.23-.56-8.43-12.2-1,.84a66.07,66.07,0,0,1,8.22,11.68l1.15-.71L1711.12,897l-1.15.71c3,4.23,5.86,8.57,8.56,13.06l1-.84a40.3,40.3,0,0,1-7.59-11.13l-1.14.71a56.29,56.29,0,0,1,8.52,15.63l1.22-.56c-3.82-5-7.45-10.23-9.55-16.29l-1.21.56,11.07,20.21,1.14-.7A80.77,80.77,0,0,1,1710.16,897l-1.22.56a151,151,0,0,1,10.4,20.59l1.21-.54c-4.71-6.25-7.79-13.37-10.8-20.5l-1.21.55c4.66,8.84,9.28,17.72,12.57,27.19l1.21-.57a145.47,145.47,0,0,1-11.75-26l-1.29.4,11.61,27.23,1.21-.56-12.18-23.85c-.4-.78-1.52-.06-1.15.7L1721.39,928l1.15-.72c-4.52-7.52-8.5-15.34-12.45-23.18l-1.14.72,14.56,26.59,1.15-.71c-3.14-4.3-6-8.67-8.83-13.13s-6.18-9-7-14.09l-1.21.57,3,6c.37.77,1.52.06,1.13-.72Z" transform="translate(-1677.94 -878.83)"/><path class="cls-2" d="M1714.75,894.83a25.86,25.86,0,0,0,3.67,8.69l1.14-.71a35.73,35.73,0,0,1-4-6.35c-.34-.69-1.46-.16-1.22.54a31,31,0,0,0,3.77,7.52.68.68,0,0,0,1.15-.71l-4.57-7.32c-.38-.62-1.51-.16-1.21.56a31.29,31.29,0,0,0,4.38,7.47l1-.84a17.22,17.22,0,0,1-3.22-5.36c-.29-.81-1.6-.37-1.28.4a21.87,21.87,0,0,0,2.88,5.42c.52.69,1.61,0,1.15-.71a32,32,0,0,1-2-3.7l-1.15.72a46.87,46.87,0,0,0,3.52,6.16c.49.7,1.63,0,1.15-.72a45.77,45.77,0,0,1-3.52-6.16c-.39-.78-1.51-.06-1.15.72a36.3,36.3,0,0,0,2,3.69l1.15-.71a20.9,20.9,0,0,1-2.8-5.12l-1.28.39a18.67,18.67,0,0,0,3.58,5.94c.49.56,1.44-.26,1-.85a29.73,29.73,0,0,1-4.24-7.16l-1.21.56,4.56,7.32,1.15-.72a29.41,29.41,0,0,1-3.62-7.19l-1.22.56a37,37,0,0,0,4.05,6.35c.52.66,1.63,0,1.15-.71a24.89,24.89,0,0,1-3.58-8.39c-.19-.84-1.47-.45-1.28.4Z" transform="translate(-1677.94 -878.83)"/><path class="cls-1" d="M1691.46,1080.21l0,1.39a.7.7,0,0,0,.74.64.69.69,0,0,0,.43-.2,164.64,164.64,0,0,0,9.57-13.75.67.67,0,0,0-.24-.92.69.69,0,0,0-.85.14,116.37,116.37,0,0,0-10.41,14.16c-.47.75.71,1.34,1.23.65,2.84-4.08,5.64-8.2,8.06-12.54.43-.77-.71-1.36-1.23-.66l-9.57,14.27,1.23.66,7.78-12.47c.4-.64-.63-1.4-1.08-.77l-9.43,12.85,1.07.79,7.81-12.6c.45-.73-.7-1.35-1.23-.64l-8,12,1.23.66,7.39-11.39c.48-.74-.7-1.34-1.23-.66l-8.37,12.15,1.23.66,6.82-12.67a.7.7,0,1,0-1.23-.65l-7.87,13.27,1.27.47a70.68,70.68,0,0,1,6-12.82l-1.23-.65a58.84,58.84,0,0,1-6.72,11.67l1.08.77,4.71-10.39-1.24-.64a56,56,0,0,1-5,9.55l1.27.49a66.55,66.55,0,0,1,4.67-10.24c.36-.65-.61-1.4-1.09-.78a29.25,29.25,0,0,0-5.43,11.4.68.68,0,0,0,.5.81.67.67,0,0,0,.81-.5,33.11,33.11,0,0,1,5.09-11c.43-.62-.6-1.36-1.09-.78a26.06,26.06,0,0,0-5,8.36c-.61,1.72-1.69,3.92-.33,5.45.37.42,1,.1,1.11-.33a118.36,118.36,0,0,1,14.3-29.23c.47-.73-.71-1.37-1.23-.66a120.25,120.25,0,0,0-14.42,29.57l1.12-.33c-1-1.17,1.33-5.71,1.8-6.65a25.48,25.48,0,0,1,3.59-5.26l-1.09-.78a34.19,34.19,0,0,0-5.2,11.38l1.31.31a27.58,27.58,0,0,1,5-10.79l-1.09-.78a69.92,69.92,0,0,0-4.6,10.58c-.27.75.86,1.06,1.27.47a56.45,56.45,0,0,0,5-9.56c.32-.78-.81-1.43-1.23-.65l-4.71,10.4c-.3.63.59,1.43,1.08.77a60.57,60.57,0,0,0,6.94-11.94.71.71,0,0,0-.3-.94.69.69,0,0,0-.94.29,72.26,72.26,0,0,0-6.19,13.1c-.25.75.87,1.1,1.27.49l7.85-13.28-1.23-.65-6.81,12.66a.69.69,0,0,0,.28.94.7.7,0,0,0,1-.28l8.37-12.15-1.23-.66-7.41,11.39c-.47.73.71,1.35,1.23.66l8-12-1.23-.64-7.79,12.59c-.4.64.62,1.4,1.07.79l9.44-12.87-1.08-.78-7.81,12.56c-.46.75.7,1.35,1.22.66l9.71-14.21-1.23-.66q-3.72,6.48-8.06,12.56l1.23.64a110.8,110.8,0,0,1,10.16-13.91l-1.09-.78a152.28,152.28,0,0,1-9.36,13.45l1.17.44,0-1.39a.7.7,0,1,0-1.39,0Z" transform="translate(-1677.94 -878.83)"/><path class="cls-1" d="M1684.46,1081.24a9,9,0,0,0-1.49,4.45,2.69,2.69,0,0,0,2.12,2.5.67.67,0,0,0,.3-1.31c-2.32-.46-.32-3.81.24-5a.7.7,0,0,0-1.23-.66Z" transform="translate(-1677.94 -878.83)"/><path class="cls-1" d="M1891.5,937.24a10.85,10.85,0,0,0-1.19,2.59.68.68,0,0,0,1.14.61l9.68-10.67-1-.92-7.72,9.95,1.09.8a89.27,89.27,0,0,1,10.25-13.37.68.68,0,0,0,0-1,.67.67,0,0,0-1,0c-5,4.24-7.55,10.45-11.78,15.39l1,.92q6.3-7.43,13.3-14.22c.63-.6-.36-1.47-1-.92-3.92,3.64-6.87,8.38-10,12.67l1.08.78c2.73-5.07,7.45-8.55,10.84-13.14a.68.68,0,0,0-.85-1c-6,3.75-10.27,9.42-15.49,14.08l1,.94L1904,925.88c.48-.55-.19-1.49-.85-1-5.3,3.75-8.16,9.82-13.25,13.79l.84,1a152.41,152.41,0,0,0,11-12.77.67.67,0,0,0-1-.93c-4.53,3.86-7.07,9.55-12,13l.85,1q6.36-7,12-14.64a.68.68,0,1,0-1-.94c-4.2,3.95-6.56,9.45-11.1,13.07l.85,1,10.91-13.09-1-.93a121.19,121.19,0,0,1-11.82,13.68l1,.92,10.31-12.64c.55-.67-.4-1.59-1-.93l-11,12.63,1,.94L1900,925.38l-1-.93c-1.74,2.36-3.49,4.71-5.28,7-1.58,2-3.15,4.79-5.53,5.92l.83,1,11.46-14.81-1.08-.79a109.92,109.92,0,0,1-10.63,14l1,.92,9.87-12.65-1.08-.77q-4.66,6.62-9.83,12.91l1,.94c2-2.79,4.13-5.51,6.34-8.2l-1-.92a128.16,128.16,0,0,1-8.45,9.89l1,.93,8.41-9.94-1-.94a85.33,85.33,0,0,1-8,8.93l1,.92,7.94-8.88c.58-.65-.4-1.57-1-.93l-8.56,9.49a.68.68,0,0,0,1,.93q4.18-4.27,8-8.87c.56-.68-.42-1.59-1-.94l-7.64,9c-.56.68.42,1.59,1,.94l7.64-9-1-.94c-2.57,3.07-5.24,6-8,8.88l1,.93,8.55-9.49-1-.93-7.91,9a.68.68,0,0,0,0,1,.67.67,0,0,0,1,0,85.12,85.12,0,0,0,8-8.91c.52-.68-.41-1.6-1-.94l-8.39,10c-.57.66.38,1.57,1,.93q4.44-4.77,8.45-9.9c.53-.67-.42-1.59-1-.92q-3.28,4-6.35,8.19c-.49.69.43,1.61,1,.94q5.23-6.4,10-13.18c.43-.62-.62-1.38-1.09-.78l-9.87,12.64c-.53.67.38,1.58,1,.92a110.85,110.85,0,0,0,10.83-14.24c.41-.64-.61-1.4-1.07-.79L1888,937.6a.69.69,0,0,0,.85,1c2.18-1.08,3.54-3.32,5-5.19,2.05-2.61,4.05-5.27,6-8,.5-.69-.43-1.61-1-.94l-11.1,13.73c-.53.68.41,1.59,1,.93l11-12.63-1-.93-10.21,12.53a.67.67,0,0,0,1,.92,118.41,118.41,0,0,0,11.89-13.71c.5-.68-.42-1.6-1-.93l-10.93,13.1c-.45.55.22,1.53.85,1,4.64-3.7,7.07-9.25,11.39-13.26l-1-.93q-5.65,7.64-12,14.66a.67.67,0,0,0,.83,1c5-3.54,7.62-9.28,12.23-13.22l-1-.94a152.41,152.41,0,0,1-11,12.77c-.52.55.21,1.52.83,1,5.08-4,8-10,13.26-13.79l-.83-1L1890,939.82a.68.68,0,0,0,0,1,.67.67,0,0,0,1,0h0c5.14-4.58,9.3-10.19,15.21-13.87l-.84-1c-3.47,4.72-8.25,8.24-11,13.43-.35.65.61,1.41,1.07.77,3.16-4.29,6.09-9,10-12.67l-1-.93q-7,6.79-13.29,14.23c-.55.66.42,1.57,1,.92,4.24-4.93,6.76-11.16,11.8-15.39l-1-.92A93,93,0,0,0,1892.36,939c-.37.65.62,1.4,1.09.8l7.71-10c.51-.67-.38-1.58-1-.92l-9.68,10.67,1.14.61a6.69,6.69,0,0,1,1.08-2.25c.47-.74-.73-1.38-1.23-.65Z" transform="translate(-1677.94 -878.83)"/><path class="cls-2" d="M1884.38,937.2a13.57,13.57,0,0,0,5-4.36c.44-.62-.63-1.4-1.08-.78l-3.34,4.57c-.41.54.18,1.53.85,1a31.27,31.27,0,0,0,5.33-5.08c.54-.66-.38-1.57-1-.92l-4.05,4.41a.68.68,0,0,0,1,.92l4.56-4.58-1-.93c-.86,1-1.69,2-2.47,3-.51.67.37,1.57,1,.92l2.16-2.26-1.08-.79a6.29,6.29,0,0,1-1.52,1.61l.83,1,.88-.88-1-.92-3.25,3.77,1,.92,2.11-2.78-1-.94a34.64,34.64,0,0,1-3.93,4.62l1.15.61a4.71,4.71,0,0,0-2.18-5.19c-.73-.47-1.37.71-.64,1.23a3.37,3.37,0,0,1,1.49,3.71.68.68,0,0,0,.5.81.64.64,0,0,0,.64-.19,36.06,36.06,0,0,0,3.94-4.61c.51-.68-.45-1.62-1-.93l-2.11,2.8c-.51.66.41,1.58,1,.92l3.24-3.78a.67.67,0,0,0-1-.92l-.87.88a.68.68,0,0,0,.84,1,8.16,8.16,0,0,0,2-2.1c.42-.65-.56-1.34-1.08-.79l-2.16,2.26,1,.92c.79-1,1.6-2,2.48-3a.68.68,0,1,0-1-.93l-4.55,4.55,1,.92,4-4.45-1-.91a30.33,30.33,0,0,1-5,4.85l.85,1,3.34-4.57-1.08-.78a12.59,12.59,0,0,1-4.54,3.88c-.77.39-.06,1.54.71,1.14Z" transform="translate(-1677.94 -878.83)"/><path class="cls-1" d="M1866,967.47c-.85.48-6.63,4.11-4.2,5.41,1,.54,2.51-.63,3.26-1.09a17.06,17.06,0,0,0,4.68-4.44c.35-.46,0-1.38-.68-1.1a20.87,20.87,0,0,0-7.63,5.55.68.68,0,0,0,.85,1c3.74-2.55,7.45-5.18,9.58-9.34a.7.7,0,0,0-1.23-.65c-2,3.91-5.55,6.42-9.1,8.83l.85,1a19.59,19.59,0,0,1,7-5.19l-.68-1.1a16.38,16.38,0,0,1-4.73,4.43c-1,.58-1.26.85-.27-.06a14,14,0,0,1,2.92-2.09c.75-.43,0-1.56-.71-1.14Z" transform="translate(-1677.94 -878.83)"/><path class="cls-1" d="M1847.52,985.42l-.07-.11a.63.63,0,0,0-.6-.32c-1,0-1.1,1-.54,1.63a14.1,14.1,0,0,0,4.33,2.77l.49-1.27a23.36,23.36,0,0,1-5-2.43c-.73-.48-1.35.7-.66,1.23l3.83,2.58.64-1.24a18.41,18.41,0,0,1-4.14-2.75l-.92,1a46.42,46.42,0,0,0,4.59,3.43l.66-1.22a10.66,10.66,0,0,1-4.17-2.9l-.92,1,3.13,2.62.62-1.15a5.49,5.49,0,0,1-3.11-2.91c-.36-.77-1.66-.38-1.3.4a7.08,7.08,0,0,0,4.14,3.94c.64.24,1.11-.73.62-1.15l-3.14-2.6a.67.67,0,0,0-.92,1,11.34,11.34,0,0,0,4.44,3.11.69.69,0,1,0,.66-1.22,43.73,43.73,0,0,1-4.32-3.23c-.66-.56-1.57.41-.92,1a20.25,20.25,0,0,0,4.42,3,.7.7,0,1,0,.65-1.23l-3.81-2.57-.66,1.23a24.3,24.3,0,0,0,5.23,2.6c.71.25,1.14-.92.47-1.27a23.13,23.13,0,0,1-2.12-1.17c-.48-.3-1.76-.9-1.93-1.45l-.15.66-.17.08-.6-.32.06.13c.42.75,1.57,0,1.15-.71Z" transform="translate(-1677.94 -878.83)"/><path class="cls-1" d="M1892.88,900.13l-5.64-2.18c-.79-.31-1.45.83-.65,1.23l4,1.73.66-1.23a38.72,38.72,0,0,0-5.73-2l-.31,1.31a15.37,15.37,0,0,1,5.65,2.19l.49-1.27a47.66,47.66,0,0,1-9-4.3l-.49,1.27a21.53,21.53,0,0,1,5.1,2.49l.48-1.27a14.19,14.19,0,0,1-3.16-1.07l-.77-.41a3.09,3.09,0,0,1-1.81-3c.86-.11.81-1.46,0-1.4a2,2,0,0,0-1.88,2.17,2.19,2.19,0,0,0,.32,1c1.15,2.3,4.73,3.45,7,4a.68.68,0,0,0,.88-.39.69.69,0,0,0-.39-.88,23,23,0,0,0-5.44-2.65c-.74-.24-1.09.87-.47,1.27a49.64,49.64,0,0,0,9.34,4.44c.76.26,1.08-.87.48-1.27a16.19,16.19,0,0,0-6-2.33.68.68,0,0,0-.81.5.67.67,0,0,0,.51.81,36.82,36.82,0,0,1,5.39,1.84c.79.34,1.44-.84.66-1.23l-4-1.73-.65,1.23,5.63,2.17c.8.31,1.45-.86.66-1.23Z" transform="translate(-1677.94 -878.83)"/><path class="cls-1" d="M1736.05,991.46l-3.88.67c-.75.13-.53,1.44.22,1.31q3.69-.59,7.4-.83l-.22-1.32a23.22,23.22,0,0,0-6,2c-.72.35-.14,1.35.56,1.22l5.42-1.28c.75-.16.54-1.42-.22-1.31a15.63,15.63,0,0,0-5.73,2,.68.68,0,0,0,.37,1.25,20.45,20.45,0,0,0,6.33-2c.79-.39.07-1.53-.71-1.14a55.74,55.74,0,0,0-5.11,2.88l.71,1.15a59.11,59.11,0,0,1,6.47-4l-.84-1c-1.49,1.26-3,2.51-4.48,3.8-.82.72-1.53,1.23-1.46,2.42a.68.68,0,0,0,.73.64.75.75,0,0,0,.3-.09,29.4,29.4,0,0,0,6-4.58l-1-.91a21.11,21.11,0,0,1-5.07,3.95l.7,1.15a47.82,47.82,0,0,1,7.11-4.44l-.72-1.15-5.21,3.24c-.76.47,0,1.51.72,1.15a19.11,19.11,0,0,0,4.37-3c.6-.53-.2-1.43-.84-1a9,9,0,0,0-2.65,2.15c-.58.64.4,1.57,1,.92a8.24,8.24,0,0,1,2.37-1.86l-.85-1a17.61,17.61,0,0,1-4.11,2.73l.71,1.15,5.21-3.23a.68.68,0,0,0-.71-1.15,48.77,48.77,0,0,0-7.1,4.44.68.68,0,0,0,.7,1.15,21.82,21.82,0,0,0,5.31-4.2.67.67,0,0,0-1-.92,28.2,28.2,0,0,1-5.75,4.34l1,.55c-.06-.94,2.1-2.27,2.68-2.78l2.88-2.44c.62-.51-.2-1.42-.84-1a60.68,60.68,0,0,0-6.47,4c-.7.5,0,1.61.71,1.14a50.1,50.1,0,0,1,5.13-3l-.71-1.14a18.16,18.16,0,0,1-5.67,1.76l.38,1.24a14.31,14.31,0,0,1,5.08-1.81l-.22-1.31-5.46,1.27.56,1.22a22.17,22.17,0,0,1,5.72-1.87c.77-.14.53-1.37-.21-1.32-2.49.17-5,.45-7.41.84l.22,1.31,3.89-.67c.85-.14.45-1.43-.4-1.28Z" transform="translate(-1677.94 -878.83)"/><path class="cls-1" d="M1719.09,1027.84l-.34,1.47a.66.66,0,0,0,.5.8.67.67,0,0,0,.81-.5c1.64-6.38,5.82-11.55,8.56-17.46a.7.7,0,0,0-1.23-.66,83.47,83.47,0,0,0-6.55,17.5l1.31.31a42,42,0,0,1,3.15-9.18c1.14-2.32,2.64-4.32,2.93-7,.07-.67-.94-1.24-1.28-.48a128,128,0,0,0-4.49,13.33c-.17.73.94,1.18,1.27.48,2-4.67,4.5-9.42,5.42-14.43a.67.67,0,0,0-1.31-.3c-.91,4.86-3.4,9.55-5.3,14.08l1.27.49a123.73,123.73,0,0,1,4.32-13l-1.27-.49c-.34,3.14-2.61,6-3.81,8.87a43.92,43.92,0,0,0-2.26,7.26.67.67,0,0,0,.5.81.68.68,0,0,0,.81-.5,81.89,81.89,0,0,1,6.59-17.12l-1.22-.66c-2.79,6-7,11.29-8.7,17.8l1.32.31.34-1.47a.68.68,0,0,0-.5-.81.67.67,0,0,0-.81.5Z" transform="translate(-1677.94 -878.83)"/><path class="cls-1" d="M1726.09,1016.57l-2.63,5.33a.7.7,0,0,0,1.23.66l2.63-5.33A.7.7,0,0,0,1726.09,1016.57Z" transform="translate(-1677.94 -878.83)"/><path class="cls-1" d="M1722.65,1025.27l-.06.72a.68.68,0,0,0,.51.81.67.67,0,0,0,.8-.51q3.54-9.21,7.76-18.11c.36-.79-.81-1.44-1.23-.66q-4.2,8.91-7.74,18.12l1.31.3.07-.71c.08-.86-1.2-.78-1.39,0Z" transform="translate(-1677.94 -878.83)"/><path class="cls-1" d="M1731.18,987.16c-3,3.17,2.94,5.88,5,7.25.55.37,1.31-.42.89-.94-2.31-2.93-7.15-4.43-10.34-6.26a.68.68,0,0,0-.9.31.67.67,0,0,0,.12.77,29.16,29.16,0,0,0,6.9,4.68.69.69,0,0,0,.93-.29.75.75,0,0,0,.07-.33c0-1.16-.83-1.48-1.78-2.06-2.35-1.44-4.79-2.74-7.25-4a.68.68,0,0,0-.92.3.67.67,0,0,0-.05.5c.22,1.18,1.21,1.66,2.2,2.41l5.34,4.22.77-1.08a32.26,32.26,0,0,1-8.26-6.08l-.92,1,6.19,6.12.94-1-5.55-4.59a6.65,6.65,0,0,0-3.3-2,.68.68,0,0,0-.61,1.15,19.45,19.45,0,0,0,4.66,3.06.7.7,0,1,0,.66-1.23,18.85,18.85,0,0,0-7.21-2.91l-.31,1.31c2.94.52,5.86,1.13,7.46,3.95l.9-.95c-1.88-.77-2.36-3-4.21-4a.66.66,0,0,0-.91.27.69.69,0,0,0,0,.67,35.94,35.94,0,0,0,2.64,4.26.68.68,0,0,0,.93.23.67.67,0,0,0,.29-.77c-.35-1.94-2-3.93-1.79-6,.1-.85-1.2-1.17-1.31-.31-.28,2.51,1.4,4.21,1.84,6.6l1.2-.55a38.37,38.37,0,0,1-2.63-4.28l-.93,1.07c1.87.93,2.25,3.16,4.21,4a.69.69,0,0,0,.89-1c-1.76-3.18-5-3.93-8.3-4.56a.68.68,0,0,0-.3,1.32,18,18,0,0,1,6.87,2.78l.66-1.23a19.16,19.16,0,0,1-4.41-2.8l-.62,1.14c2.49.34,6.29,4.66,8.21,6.26a.67.67,0,0,0,1,0,.68.68,0,0,0,0-1h0l-6.21-6.11c-.61-.61-1.53.37-.92,1a33.17,33.17,0,0,0,8.52,6.21c.66.33,1.41-.59.78-1.08l-3.85-3.07c-.87-.69-3-1.78-3.23-3l-1,.8c1.24.61,8.33,3.49,8.32,4.9l1-.62a28.35,28.35,0,0,1-6.64-4.47l-.79,1.08,4.69,2.57c1.6.87,4,1.77,5.16,3.21l.9-.94c-.84-.55-6.21-3.52-4.69-5.14a.68.68,0,0,0-1-.94Z" transform="translate(-1677.94 -878.83)"/><path class="cls-1" d="M1865,951a11.12,11.12,0,0,0-.16,2.37.69.69,0,0,0,.7.65,5.28,5.28,0,0,0,5.48-5.07v-.16a.67.67,0,0,0-.7-.64.69.69,0,0,0-.45.2,15.18,15.18,0,0,0-3.12,6.3c-.17.72.68,1,1.14.61a9.56,9.56,0,0,0,2.48-3,5.42,5.42,0,0,0,.87-2.84,1,1,0,0,0-1.14-1h0c-1,.08-1.58,1.32-2,2.09s-2.34,4.55.1,4.17c.86-.12,1.76-1.14,2.31-1.75a9.64,9.64,0,0,0,1.91-3.48.67.67,0,0,0-.49-.81.69.69,0,0,0-.51.08,7,7,0,0,0-3.1,4.81.68.68,0,0,0,.54.81.74.74,0,0,0,.33,0,3.91,3.91,0,0,0,2.62-3.9.68.68,0,0,0-.5-.81.67.67,0,0,0-.81.5,9.88,9.88,0,0,0-1.61,4c-.11.5.52,1.12,1,.72a6,6,0,0,0,2.3-3.92c.13-.59-.68-1.16-1.15-.61a8.61,8.61,0,0,0-1.75,3.48c-.14.61.73,1.16,1.14.62a8.82,8.82,0,0,0,1.8-4.21c.14-.58-.69-1.2-1.14-.61a8.75,8.75,0,0,0-1.87,5.09.67.67,0,0,0,.71.64.66.66,0,0,0,.31-.09,6,6,0,0,0,2.79-5.2.66.66,0,0,0-.64-.7.63.63,0,0,0-.44.14,10,10,0,0,0-2.38,5.42.68.68,0,0,0,1.15.61,7.66,7.66,0,0,0,2.35-4.5.68.68,0,0,0-1.27-.48h0c-.58,1-1.57,2.56-1.24,3.86a1.2,1.2,0,0,0,1.42.92,1.16,1.16,0,0,0,.43-.18c1.76-1,2.55-5-.27-4.75-.87.08-.82,1.43,0,1.39,1.16-.1-.79,3.39-.11,1.36a9,9,0,0,1,.9-1.85l-1.27-.48a6.48,6.48,0,0,1-2,3.89l1.14.61a9,9,0,0,1,2-4.79l-1.15-.44a4.56,4.56,0,0,1-2.15,4l1,.55a7,7,0,0,1,1.5-4.06l-1.16-.62a7.42,7.42,0,0,1-1.46,3.59l1.15.61a6.72,6.72,0,0,1,1.43-2.86l-1.16-.62a4.62,4.62,0,0,1-1.73,3.08l1,.73a9,9,0,0,1,1.48-3.71l-1.32-.31a2.57,2.57,0,0,1-1.69,2.57l.85.79a5.61,5.61,0,0,1,2.5-3.92l-1-.73a8.07,8.07,0,0,1-2,3.25,7,7,0,0,1-1.07.89l.26-.08a8.82,8.82,0,0,1,.93-2.08c.05-.22.77-2,.55-1.25a9.58,9.58,0,0,1-.63,1.72,8.9,8.9,0,0,1-2.29,2.74l1.16.62a13.52,13.52,0,0,1,2.71-5.69l-1.16-.44a3.91,3.91,0,0,1-4,3.83h-.19l.71.65a8.93,8.93,0,0,1,.12-2,.67.67,0,0,0-1.31-.31Z" transform="translate(-1677.94 -878.83)"/><path class="cls-1" d="M1728.51,968.3a8.27,8.27,0,0,0,7.21,5.72c.81.08.8-1.11.14-1.35a11.23,11.23,0,0,1-6-4.61l-1.15.7a13.7,13.7,0,0,0,3.65,3.47c.72.45,1.37-.72.64-1.24a11.76,11.76,0,0,1-3.15-2.9c-.52-.69-1.62,0-1.14.7a12.57,12.57,0,0,0,6.83,5.21l.13-1.35a6.85,6.85,0,0,1-5.88-4.77.68.68,0,0,0-.85-.43.67.67,0,0,0-.43.83Z" transform="translate(-1677.94 -878.83)"/><path class="cls-1" d="M1739.7,975.74c1.17-.66,2.37-1.29,3.52-2,.61-.37,1.42-1.47.44-1.91s-1.55.73-1.72,1.43a1.52,1.52,0,0,1-2.07,1.29l.49.46-.19-.5c-.29-.82-1.58-.37-1.28.39s.45,1,1.21,1.1a3,3,0,0,0,1.7-.32,2.86,2.86,0,0,0,1.14-1.12c.16-.31.31-1.31.6-1.46L1743,973l.11,0-.31-.39c-.08-.25,0-.15-.25-.06s-.32.18-.47.28l-1.06.6L1739,974.6C1738.24,975,1738.94,976.17,1739.7,975.74Z" transform="translate(-1677.94 -878.83)"/><path class="cls-1" d="M1863.58,955.61c.59,1.86,3.28,2,4.9,2.19a6.08,6.08,0,0,0,5.67-2.1.68.68,0,0,0-.84-1,9,9,0,0,1-8.19.72l-.48,1.27c1.95.65,9.42,2.32,9.55-1.2,0-.46-.48-.68-.87-.62-2.53.49-7.72,2.47-9.21-.53l-.88.94a12.9,12.9,0,0,0,6.86,2.13,6.37,6.37,0,0,0,2.38-.59c.37-.18,1.63-1.39,2-1.35.85.1,1.17-1.21.31-1.32-1.69-.18-1.82,1.17-3.48,1.68-2.55.79-5.1-.58-7.3-1.7a.67.67,0,0,0-.89.95c1.87,3.85,7.58,1.77,10.8,1.14l-.87-.62c-.06,1.63-7.06.11-7.89-.17s-1.18,1-.48,1.27a10.44,10.44,0,0,0,9.53-.74l-.84-1a4.78,4.78,0,0,1-4.55,1.71c-.91-.08-3.51-.2-3.86-1.23a.67.67,0,1,0-1.28.39Z" transform="translate(-1677.94 -878.83)"/><path class="cls-1" d="M1872.46,974.81a32.49,32.49,0,0,1,10.55-2.42l0-1.39c-3.75.5-8.16.41-11.57,2.2-.7.37-.17,1.44.54,1.22l2.65-.79a.67.67,0,0,0,.42-.85.66.66,0,0,0-.83-.43l-2.61.77.54,1.22c3.16-1.66,7.45-1.56,10.91-2,.84-.13.83-1.42,0-1.4a34.32,34.32,0,0,0-10.9,2.49c-.8.33-.38,1.63.39,1.28Z" transform="translate(-1677.94 -878.83)"/><path class="cls-1" d="M1881.9,969.09l-.57.55.93.22-3.15-5.43a.66.66,0,0,0-.92-.21l-.13.1c-1.82,1.9,3.22,4.41,4.33,5.16a.67.67,0,0,0,.9-.31.65.65,0,0,0-.13-.77,16.82,16.82,0,0,0-6.16-3.61.68.68,0,0,0-.81.5c-.31,1.31,1,1.81,2,2.33a26.08,26.08,0,0,0,4.54,2,.68.68,0,0,0,.62-1.14,47.26,47.26,0,0,0-5.64-4.75c-.7-.49-1.34.69-.65,1.23a44.26,44.26,0,0,1,5.47,4.47l.61-1.15a23.91,23.91,0,0,1-2.93-1.18c-.26-.07-2.62-1.22-2.57-1.5l-.8.5a15.3,15.3,0,0,1,5.55,3.27l.78-1.07c-.4-.25-4.29-2.8-4.07-3l-1.07-.11,3.14,5.43a.7.7,0,0,0,.94.22,2.52,2.52,0,0,0,1-1.14.7.7,0,1,0-1.23-.65Z" transform="translate(-1677.94 -878.83)"/><path class="cls-1" d="M1877.12,977c0-.63.34-.31-.35-1a4.36,4.36,0,0,0-1.21-.72,6.58,6.58,0,0,0-2.42-.64c-2.51-.15-4.75,1.3-7.25,1.43l.22,1.33a104.6,104.6,0,0,1,11.81-1.82l0-1.39a35.45,35.45,0,0,0-12.4,4.24.66.66,0,0,0-.17.93.67.67,0,0,0,.72.27c4.74-1.47,9.56-2.7,14.42-3.69.85-.18.45-1.46-.4-1.3a146.59,146.59,0,0,0-14.42,3.71l.55,1.22a33.82,33.82,0,0,1,11.76-4c.83-.13.81-1.43,0-1.4a113.66,113.66,0,0,0-12.18,2c-.76.16-.52,1.36.23,1.33,2.81-.18,5.87-2.16,8.64-1.07,1.15.46,2.25,2.23,3.62,1.48a.72.72,0,0,0,.32-.6V977a.7.7,0,0,0-.72-.68.69.69,0,0,0-.67.72Z" transform="translate(-1677.94 -878.83)"/><path class="cls-1" d="M1925.23,916.21a5.05,5.05,0,0,1,2.07-4.72l-1-.72a4,4,0,0,1-2.28,2.91l1,.9a51.4,51.4,0,0,1,2.77-5c.46-.74-.73-1.37-1.23-.66a52.51,52.51,0,0,0-2.78,5,.68.68,0,0,0,.32.92.67.67,0,0,0,.63,0,5.24,5.24,0,0,0,2.88-3.75c.13-.54-.52-1.09-1-.73a6.43,6.43,0,0,0-2.76,5.9c.09.86,1.42.81,1.39,0Z" transform="translate(-1677.94 -878.83)"/><path class="cls-1" d="M1928.32,907.71a28,28,0,0,1-7.55,2.23c-.85.12-.8,1.47,0,1.39a29,29,0,0,0,7.9-2.3c.79-.36.38-1.64-.39-1.29Z" transform="translate(-1677.94 -878.83)"/><path class="cls-1" d="M1925.09,914.56a25.21,25.21,0,0,1,.62-4.24.67.67,0,0,0-1.31-.31,10.12,10.12,0,0,1-1.44,3.63l1.26.49.16-.68a.67.67,0,0,0-.5-.81.68.68,0,0,0-.81.5l-.16.69c-.18.77.86,1.08,1.27.47a11.21,11.21,0,0,0,1.58-4l-1.31-.31a38.77,38.77,0,0,0-.66,4,1.57,1.57,0,0,0,1.07,1.79c.84.24,1.14-1.11.3-1.31Z" transform="translate(-1677.94 -878.83)"/><path class="cls-1" d="M1904,903.54a.68.68,0,0,0-1.32-.31.68.68,0,0,0,1.32.31Z" transform="translate(-1677.94 -878.83)"/><path class="cls-1" d="M1903.05,903.06a1.07,1.07,0,0,0-.73,1.32,1,1,0,0,0,.83.75,5.31,5.31,0,0,0,2.41-.21,40.3,40.3,0,0,0,4.9-1.12c.71-.2.54-1.41-.23-1.32a41.18,41.18,0,0,0-6.16,1.22.69.69,0,0,0,.23,1.33,59.3,59.3,0,0,0,9.37-1.56c.84-.21.45-1.5-.39-1.28a57.57,57.57,0,0,1-9,1.48l.23,1.33a37,37,0,0,1,5.8-1.18l-.23-1.31c-1,.28-2.08.55-3.13.78-.55.13-1.12.23-1.68.32a8.17,8.17,0,0,1-1,.16.82.82,0,0,0-.83.58c.78-.34.38-1.64-.39-1.29Z" transform="translate(-1677.94 -878.83)"/><path class="cls-1" d="M1907.8,897.76l1.76,6.81c.22.85,1.45.43,1.28-.41a23.76,23.76,0,0,0-2.2-6.43c-.35-.69-1.44-.17-1.21.55a55.45,55.45,0,0,0,2.73,6.8c.38.78,1.52.07,1.15-.71a53.42,53.42,0,0,1-2.63-6.49l-1.22.54a23.75,23.75,0,0,1,2.06,6.14l1.28-.41-1.75-6.8c-.22-.83-1.5-.44-1.28.4Z" transform="translate(-1677.94 -878.83)"/><path class="cls-1" d="M1913.93,899.12c-1.09,1.4-2.2,2.8-3.33,4.18-.45.56.21,1.55.84,1a28,28,0,0,0,3.08-2.79.67.67,0,0,0,0-.95.68.68,0,0,0-.82-.08,17.24,17.24,0,0,1-3.33,1.59l.55,1.21a52.31,52.31,0,0,0,4.56-3.25c.66-.53,0-1.64-.7-1.15l-3.78,2.49.85,1.05a19.85,19.85,0,0,1,5.11-4.69c.73-.46,0-1.61-.7-1.14a20.94,20.94,0,0,0-5.39,4.89c-.44.58.16,1.49.85,1l3.76-2.49-.7-1.15a53.87,53.87,0,0,1-4.56,3.25c-.63.41-.19,1.48.54,1.22a18.17,18.17,0,0,0,3.65-1.72l-.84-1a27.25,27.25,0,0,1-2.8,2.57l.83,1c1.14-1.38,2.24-2.79,3.33-4.2.54-.68-.44-1.61-1-.92Z" transform="translate(-1677.94 -878.83)"/><path class="cls-1" d="M1872.49,945.84l-1.15-.63-.66,1.23,6,2.79.64-1.23a45.26,45.26,0,0,1-6.53-3.63l-.66,1.23c3.65,2.1,7.24,4.08,10.93,6a.7.7,0,1,0,.65-1.23q-5.54-2.86-10.93-6c-.76-.44-1.35.71-.66,1.23a45.53,45.53,0,0,0,6.55,3.64c.78.35,1.43-.81.65-1.23l-6-2.78a.69.69,0,0,0-.94.29.69.69,0,0,0,.28.94h0l1.15.63a.71.71,0,0,0,1-.29.7.7,0,0,0-.29-.94Z" transform="translate(-1677.94 -878.83)"/><path class="cls-1" d="M1871.06,945.15a35.91,35.91,0,0,0,5.22,3.22.69.69,0,1,0,.66-1.22,31,31,0,0,0-5.9-3.29.69.69,0,0,0-.94.29.71.71,0,0,0,.3.94,102.09,102.09,0,0,0,13.92,7.72c.78.36,1.42-.83.64-1.23a105.55,105.55,0,0,1-13.92-7.72l-.64,1.23a30.33,30.33,0,0,1,5.88,3.3l.66-1.23a32.9,32.9,0,0,1-5-3c-.69-.51-1.62.46-.92,1Z" transform="translate(-1677.94 -878.83)"/></svg>