<svg id="Trash" xmlns="http://www.w3.org/2000/svg" viewBox="0 0 1247.32 722.49"><defs><style>.cls-1{fill:#a6a6cc;}.cls-2{fill:#76768e;}.cls-3{fill:#ebebff;}</style></defs><title>Trash2</title><path class="cls-1" d="M79.22,456.37a264.69,264.69,0,0,1-36.87-14.3q-9-4.29-17.59-9.27-4.28-2.48-8.52-5.14l-.16-.1c-2,.93-4,1.86-6,2.83-2.57,1.25-5.27,2.22-7.89,3.36,3.94,3.46,9,6,13.4,8.6q9.23,5.44,18.86,10.13a284.76,284.76,0,0,0,41.37,16.29C83.72,471.19,87.1,458.78,79.22,456.37Z" transform="translate(39.16 -398.18)"/><path class="cls-1" d="M-29.36,472.12c19.37-5.3,38.75-10.75,57.83-17,3.89-1.28,7.55-2.91,10.28-6.08,3-3.43,4.86-7.85,7-11.83l14.57-27.13c3.92-7.3-7.18-13.8-11.14-6.49l-13,24.19c-2.07,3.88-4,8.17-6.4,11.85-2,3-6.05,3.51-9.28,4.52Q-6,452.41-32.78,459.72c-8,2.18-4.58,14.57,3.43,12.4Z" transform="translate(39.16 -398.18)"/><path class="cls-1" d="M35.32,498l20.45-11.71c5.41-3.09,11-6,15.84-10a27.43,27.43,0,0,0,9.48-14.51c1.63-6.49.8-13.3,2.89-19.71,2.58-7.88-9.82-11.26-12.39-3.43-1.85,5.64-1.59,11.43-2.42,17.24-.75,5.19-3.22,8.8-7.46,11.82-10.23,7.29-22,12.86-32.92,19.13-7.17,4.12-.71,15.23,6.49,11.15Z" transform="translate(39.16 -398.18)"/><path class="cls-2" d="M5.19,432.49a1.74,1.74,0,0,0,3.18-.33c.11-.39.24-.78.36-1.16C7.56,431.52,6.38,432,5.19,432.49Z" transform="translate(39.16 -398.18)"/><path class="cls-2" d="M31.26,434.43q-6-3.62-11.85-7.46a7.27,7.27,0,0,1-.89-.54l-3.63,1.68q7.21,4.81,14.66,9.28C31.44,438.53,33.17,435.57,31.26,434.43Z" transform="translate(39.16 -398.18)"/><path class="cls-2" d="M33,436.41l12.86-22.93c1.88-3.36,3.43-7,5.33-10.29,2.44-4.29,8,1.27,9.29,4.21v-1.72L42.8,441.79c-1,2,2,3.72,3,1.72l13.59-27.84c1.34-2.73,4.7-6.94,4-10-.61-2.85-3.94-5.42-6.43-6.49-2.09-.91-5-1.55-7.13-.31a4.29,4.29,0,0,0-1.72,1.88c-1.07,2.14-1.71,4.55-2.89,6.72L30,434.68c-1.07,1.93,1.89,3.65,3,1.71Z" transform="translate(39.16 -398.18)"/><path class="cls-2" d="M44.38,444.43c7.3,4.81,15.79,7.72,23.8,11.15,2,.85,3.76-2.09,1.72-3-8-3.43-16.49-6.34-23.8-11.15-1.85-1.21-3.57,1.72-1.71,3Z" transform="translate(39.16 -398.18)"/><path class="cls-2" d="M71.45,454.11c.46-4.66.37-9.93,1.58-14.46.24-.86.74-3,1.56-3.48,1.47-.78,3.81,0,5.14.74,3.06,1.62,2.57,4.47,2,7.29-.86,3.69-1,7.65-1.31,11.4-.41,4.22,3.74,10.29-2.07,12.18-2.08.69-1.18,4,.92,3.31,5.93-2,6.38-7,4.84-12.24-1.11-3.75,0-9.87.92-13.71.68-3,1.88-5.15,0-8-2.19-3.43-8.32-6.86-12-4.07-2.31,1.72-3.14,4.69-3.54,7.42-.67,4.51-1,9.1-1.41,13.65-.22,2.19,3.21,2.18,3.43,0Z" transform="translate(39.16 -398.18)"/><path class="cls-2" d="M77.25,467.93a75.1,75.1,0,0,1-10.33,10c-3.9,2.92-8.29,5-12.58,7.29s-8.79,4.77-13.11,7.3c-2.35,1.38-4.82,3.23-7.42,4.09a8.7,8.7,0,0,1-3.23.57c-2-.14-5-2.81-3.34-4.9,1.38-1.72-1-4.14-2.43-2.43a6.34,6.34,0,0,0,.65,8.94,6.18,6.18,0,0,0,.94.67c5.32,3.28,11.33-.86,15.84-3.56,6.92-4.08,14.11-7.62,21.09-11.58,6.38-3.61,11.46-8.57,16.34-14,1.47-1.63-1-4.07-2.42-2.42Z" transform="translate(39.16 -398.18)"/><path class="cls-2" d="M27,492.11c2.57-6.61,12.86-10.61,18.71-13.84,6.65-3.68,13.3-7.33,19.38-11.93.91-.7,1.28-2.35,0-3Q49.61,456.09,33.71,450c-2.06-.79-2.95,2.53-.91,3.3q15.51,5.9,30.52,13v-3C56,468.88,47.88,473,40,477.51c-6,3.37-13.72,6.85-16.29,13.71-.79,2.06,2.52,3,3.31.91Z" transform="translate(39.16 -398.18)"/><path class="cls-2" d="M33.08,450.78c-4.57.48-8.68,2.21-12.95,3.79q-7.63,2.79-15.34,5.36-15.07,4.88-30.5,8.52c-3.17.75-6.49,1.88-9-1.07-1.64-1.88.34-5.06,2-6.09a16.56,16.56,0,0,1,3.67-1.11q7.92-2.39,15.87-4.66,15.9-4.59,31.88-8.82c2.13-.56,1.23-3.87-.91-3.3q-20,5.31-39.82,11.15c-3.42,1-6.85,2-10.28,3.06-1.81.56-3.89,1.1-5.25,2.52-2.67,2.79-1.46,7.53.74,10.23,2.84,3.51,7.39,2.43,11.27,1.57,6.59-1.52,13.13-3.25,19.63-5.14s13-4,19.35-6.17,13-5.7,19.72-6.41C35.25,454,35.27,450.54,33.08,450.78Z" transform="translate(39.16 -398.18)"/><path class="cls-2" d="M18.59,442.14c-5.31-2.16-10.85-4.45-15.14-8.38l-.4-.4c-.89.38-1.77.76-2.63,1.18-.23.1-.45.22-.67.33.41.45.83.89,1.28,1.32,4.71,4.38,10.77,6.85,16.65,9.26C19.72,446.31,20.61,443,18.59,442.14Z" transform="translate(39.16 -398.18)"/><path class="cls-2" d="M10.73,430.07a30.5,30.5,0,0,0-.53,4.37.43.43,0,0,0,.86,0,29,29,0,0,1,.62-4.83Z" transform="translate(39.16 -398.18)"/><path class="cls-2" d="M31,435.07a5.84,5.84,0,0,0,2.95,5.14.42.42,0,0,0,.42-.73,5,5,0,0,1-2.57-4.34.43.43,0,1,0-.85,0Z" transform="translate(39.16 -398.18)"/><path class="cls-2" d="M37,440.83l2.24.44c.54.11.77-.72.23-.86L37.19,440c-.54-.11-.77.72-.23.85Z" transform="translate(39.16 -398.18)"/><path class="cls-2" d="M41.79,442.83l2,1.17a.43.43,0,0,0,.57-.21.43.43,0,0,0-.14-.52l-2-1.18a.43.43,0,0,0-.43.74Z" transform="translate(39.16 -398.18)"/><path class="cls-2" d="M18.94,444.76a10.11,10.11,0,0,1,4.48,1.71c.45.31.85-.43.43-.74a11,11,0,0,0-4.91-1.82c-.54-.06-.54.8,0,.86Z" transform="translate(39.16 -398.18)"/><path class="cls-2" d="M26.91,447.52a5,5,0,0,1,2.83,1.83c.33.43.93-.18.6-.61a5.71,5.71,0,0,0-3.2-2.05.44.44,0,0,0-.23.85Z" transform="translate(39.16 -398.18)"/><path class="cls-2" d="M69.94,454.36a13.12,13.12,0,0,0,6.86,3.7c.54.11.77-.72.23-.85a12.39,12.39,0,0,1-6.47-3.48.43.43,0,0,0-.6.09.41.41,0,0,0,0,.51Z" transform="translate(39.16 -398.18)"/><path class="cls-2" d="M79.78,458.32a2.71,2.71,0,0,1,1.72.86c.38.38,1-.23.6-.61a3.65,3.65,0,0,0-2.3-1.06c-.55-.06-.55.8,0,.85Z" transform="translate(39.16 -398.18)"/><path class="cls-2" d="M64.94,465.36a18.24,18.24,0,0,1,6.73,3.3c.44.33.86-.41.44-.75a18.84,18.84,0,0,0-6.94-3.37.44.44,0,0,0-.23.85Z" transform="translate(39.16 -398.18)"/><path class="cls-2" d="M73.63,469.08l1.57.44a.44.44,0,1,0,.22-.85l-1.57-.45a.44.44,0,0,0-.22.86Z" transform="translate(39.16 -398.18)"/><path class="cls-2" d="M49,445.72a53.92,53.92,0,0,0,4.22,9.09.43.43,0,0,0,.59.14.45.45,0,0,0,.15-.58,53.31,53.31,0,0,1-4.13-8.87c-.19-.53-1-.3-.86.22Z" transform="translate(39.16 -398.18)"/><path class="cls-2" d="M52.23,449.11a12.47,12.47,0,0,1,1.78,3.8.44.44,0,0,0,.54.32.45.45,0,0,0,.31-.54,13,13,0,0,0-1.87-4c-.31-.45-1.05,0-.73.43Z" transform="translate(39.16 -398.18)"/><path class="cls-2" d="M83.47,439l-8.38,6.61c-.44.34.17.94.6.6l8.41-6.61c.42-.34-.18-.94-.61-.6Z" transform="translate(39.16 -398.18)"/><path class="cls-2" d="M82.59,442.61a24.35,24.35,0,0,1-3.9,2.69c-.48.26,0,1,.44.74a23.79,23.79,0,0,0,4.06-2.83C83.61,442.85,83,442.25,82.59,442.61Z" transform="translate(39.16 -398.18)"/><path class="cls-2" d="M42.89,484q6.26-3.51,12.26-7.44c.46-.3,0-1-.43-.75q-6,3.95-12.26,7.45a.43.43,0,0,0,.43.74Z" transform="translate(39.16 -398.18)"/><path class="cls-2" d="M49.8,482.22l4.22-3c.46-.31,0-1-.43-.74l-4.22,3c-.46.3,0,1,.43.73Z" transform="translate(39.16 -398.18)"/><path class="cls-2" d="M31.81,499a45.79,45.79,0,0,1,6.54-9.21c.38-.4-.23-1-.61-.6a46.84,46.84,0,0,0-6.67,9.38C30.81,499.09,31.54,499.53,31.81,499Z" transform="translate(39.16 -398.18)"/><path class="cls-2" d="M44.75,409.28a80.55,80.55,0,0,1,1.66,12.85.43.43,0,0,0,.86,0A82.73,82.73,0,0,0,45.55,409c-.11-.54-.94-.3-.85.24Z" transform="translate(39.16 -398.18)"/><path class="cls-2" d="M42.88,416.21a27.39,27.39,0,0,1,1,5c0,.55.91.55.85,0a28.17,28.17,0,0,0-1-5.24.44.44,0,0,0-.55-.31.44.44,0,0,0-.31.54Z" transform="translate(39.16 -398.18)"/><path class="cls-2" d="M60.6,402.25q-3.89,3.17-7.46,6.67c-.4.38.21,1,.61.6q3.57-3.5,7.45-6.66C61.63,402.51,61,401.91,60.6,402.25Z" transform="translate(39.16 -398.18)"/><path class="cls-2" d="M49.43,428.21l-9.49,8c-.43.36.18,1,.6.61l9.5-8c.42-.35-.19-1-.61-.61Z" transform="translate(39.16 -398.18)"/><path class="cls-2" d="M18.92,433.59l4.8,9.56c.24.5,1,.06.73-.42l-4.8-9.57C19.41,432.66,18.67,433.1,18.92,433.59Z" transform="translate(39.16 -398.18)"/><path class="cls-2" d="M23.29,438.45a10.53,10.53,0,0,1,1.52,4.48c.06.55.91.55.85,0A11.43,11.43,0,0,0,24,438C23.73,437.55,23,438,23.29,438.45Z" transform="translate(39.16 -398.18)"/><path class="cls-2" d="M-10.95,459.78a65.07,65.07,0,0,1,11.14-8.4c.48-.29,0-1-.43-.74a65.72,65.72,0,0,0-11.29,8.57c-.4.38.21,1,.6.61Z" transform="translate(39.16 -398.18)"/><path class="cls-2" d="M-4.74,456.58a104.71,104.71,0,0,1,10.76-9c.44-.32,0-1.06-.43-.74A107,107,0,0,0-5.35,456C-5.76,456.36-5.15,457-4.74,456.58Z" transform="translate(39.16 -398.18)"/><path class="cls-2" d="M-31.41,466l5.14,4.23c.42.35,1-.25.61-.6l-5.15-4.23c-.42-.35-1,.26-.6.6Z" transform="translate(39.16 -398.18)"/><path class="cls-2" d="M-28,467l3.18,1.93a.44.44,0,0,0,.59-.16.44.44,0,0,0-.15-.58l-3.18-1.93a.45.45,0,0,0-.59.16A.43.43,0,0,0-28,467Z" transform="translate(39.16 -398.18)"/><path class="cls-2" d="M8.89,459.74a40.13,40.13,0,0,1,7.54-10.16c.39-.38-.21-1-.61-.6a40.61,40.61,0,0,0-7.71,10.28c-.25.49.48.93.74.44Z" transform="translate(39.16 -398.18)"/><path class="cls-3" d="M11.77,429.57a10.9,10.9,0,0,0-.17,1.51.43.43,0,0,0,.86,0,9.47,9.47,0,0,1,.29-2Z" transform="translate(39.16 -398.18)"/><path class="cls-3" d="M15.72,427.72l-.93.43c1.68,1,3.37,2,5.05,3a.43.43,0,0,0,.43-.73C18.74,429.52,17.22,428.63,15.72,427.72Z" transform="translate(39.16 -398.18)"/><path class="cls-3" d="M21.33,432.28l.45.45a.43.43,0,1,0,.61-.61h0l-.46-.48c-.39-.39-1,.22-.6.6Z" transform="translate(39.16 -398.18)"/><path class="cls-3" d="M23.65,434c2.28,1.4,4.63,2.69,7,3.88.49.24.93-.5.43-.74q-3.6-1.77-7-3.89C23.61,433,23.23,433.7,23.65,434Z" transform="translate(39.16 -398.18)"/><path class="cls-3" d="M20.16,433.64l1.56,4c.2.52,1,.29.86-.22l-1.56-4c-.2-.51-1-.29-.86.23Z" transform="translate(39.16 -398.18)"/><path class="cls-3" d="M24.79,439.48l.68,2.45a.44.44,0,1,0,.85-.22l-.67-2.46a.44.44,0,1,0-.85.23Z" transform="translate(39.16 -398.18)"/><path class="cls-3" d="M20.54,444l3.13,1.55c.5.24.94-.49.44-.74L21,443.21C20.48,443,20,443.71,20.54,444Z" transform="translate(39.16 -398.18)"/><path class="cls-3" d="M25.54,445.59A17.59,17.59,0,0,1,29.7,448c.44.33.86-.41.44-.74a18.33,18.33,0,0,0-4.37-2.48c-.51-.21-.73.61-.23.85Z" transform="translate(39.16 -398.18)"/><path class="cls-3" d="M10.92,457.75a39.26,39.26,0,0,1,5.87-7.34.43.43,0,0,0-.61-.61,40.29,40.29,0,0,0-6,7.52C9.89,457.78,10.63,458.17,10.92,457.75Z" transform="translate(39.16 -398.18)"/><path class="cls-3" d="M-26.79,465.38c-.62.12-.49.86-.15,1.21a3.63,3.63,0,0,0,1.06.57l1.3.62c.49.23.92-.51.43-.75l-1.31-.61-.64-.31a.76.76,0,0,1-.23-.13c-.09-.16-.16-.08-.22.23.54-.11.31-.93-.24-.86Z" transform="translate(39.16 -398.18)"/><path class="cls-3" d="M-3.57,456.61a23.66,23.66,0,0,0,5.35-4.68c.35-.42-.25-1-.61-.61A23,23,0,0,1-4,455.87c-.47.3,0,1,.43.74Z" transform="translate(39.16 -398.18)"/><path class="cls-3" d="M59.75,406l.08-.18a.45.45,0,0,0-.07-.52c-.79-.86-1.92.67-2.48,1.15l-4.64,4c-.42.36.19,1,.6.61l5.92-5.14-.07-.52-.08.18c-.22.49.52.93.74.42Z" transform="translate(39.16 -398.18)"/><path class="cls-3" d="M46.48,411.85v8.28a.43.43,0,0,0,.43.43.44.44,0,0,0,.43-.43v-8.28a.43.43,0,0,0-.43-.43A.43.43,0,0,0,46.48,411.85Z" transform="translate(39.16 -398.18)"/><path class="cls-3" d="M53.65,402.1l3.49,2.17c.47.29.9-.46.43-.75l-3.48-2.16C53.62,401.07,53.19,401.82,53.65,402.1Z" transform="translate(39.16 -398.18)"/><path class="cls-3" d="M59.51,405.37l-4.29,8.72c-.24.49.5.93.74.43l4.29-8.72C60.49,405.31,59.75,404.88,59.51,405.37Z" transform="translate(39.16 -398.18)"/><path class="cls-3" d="M54.74,415.63l-.85,1.81c-.24.49.5.93.74.43l.86-1.81c.23-.5-.51-.94-.74-.43Z" transform="translate(39.16 -398.18)"/><path class="cls-3" d="M53.27,418.78q-2.16,4.2-3.89,8.58c-.2.51.63.73.86.23q1.71-4.29,3.81-8.38c.25-.49-.49-.92-.75-.44Z" transform="translate(39.16 -398.18)"/><path class="cls-3" d="M48.61,429.66l-3.53,3.58a.42.42,0,0,0,0,.6.43.43,0,0,0,.61,0l3.57-3.57a.43.43,0,0,0,0-.61.42.42,0,0,0-.6,0Z" transform="translate(39.16 -398.18)"/><path class="cls-3" d="M37.37,439.59l2,.46a.45.45,0,0,0,.23-.86l-2-.47a.45.45,0,0,0-.23.86Z" transform="translate(39.16 -398.18)"/><path class="cls-3" d="M32.17,437a5.84,5.84,0,0,0,2.65,3.43.43.43,0,0,0,.59-.16.44.44,0,0,0-.15-.59A4.85,4.85,0,0,1,33,436.79a.45.45,0,0,0-.54-.32.46.46,0,0,0-.32.55Z" transform="translate(39.16 -398.18)"/><path class="cls-3" d="M54.51,401.17c-.54-.05-1.54-.36-2-.12a4.49,4.49,0,0,0-1.14,1.28,10.3,10.3,0,0,0-1.71,3.6.44.44,0,0,0,.31.54.44.44,0,0,0,.54-.32,10.25,10.25,0,0,1,1.26-2.9,4.62,4.62,0,0,1,1-1.2c.45-.32,1.32-.07,1.84,0s.54-.8,0-.86Z" transform="translate(39.16 -398.18)"/><path class="cls-3" d="M42.43,444l4.71,3.08c.46.31.86-.43.43-.73l-4.7-3.13c-.46-.3-.86.44-.44.74Z" transform="translate(39.16 -398.18)"/><path class="cls-3" d="M51,448.79l2.71,4.46a.44.44,0,0,0,.59.15.43.43,0,0,0,.16-.59h0l-2.71-4.45C51.42,447.89,50.68,448.32,51,448.79Z" transform="translate(39.16 -398.18)"/><path class="cls-3" d="M53.72,450.29l1.52,2c.33.43,1.07,0,.75-.44l-1.48-2c-.32-.44-1.07,0-.74.44Z" transform="translate(39.16 -398.18)"/><path class="cls-3" d="M54.27,450.5l11.63,4.92c.5.22.94-.52.43-.73L54.7,449.76C54.2,449.55,53.77,450.29,54.27,450.5Z" transform="translate(39.16 -398.18)"/><path class="cls-3" d="M75.94,436.71l2.09.11c.78,0,1.8-.09,2.33.58s.58,1.82,1,2.57a.43.43,0,0,0,.74-.42c-.58-1-.53-2.44-1.53-3.17a2.65,2.65,0,0,0-1.43-.39c-1.07-.09-2.16-.11-3.24-.17a.43.43,0,0,0,0,.85Z" transform="translate(39.16 -398.18)"/><path class="cls-3" d="M81.82,441.25l-.22,1.35c-.09.54.74.77.86.22l.23-1.34c.09-.54-.74-.77-.86-.23Z" transform="translate(39.16 -398.18)"/><path class="cls-3" d="M80.85,445.7a25.86,25.86,0,0,0-.8,4.61c0,.56.81.55.86,0a23.37,23.37,0,0,1,.77-4.38.45.45,0,0,0-.31-.54.44.44,0,0,0-.55.31h0Z" transform="translate(39.16 -398.18)"/><path class="cls-3" d="M81.31,439.36l-6.09,4.87c-.43.34.18.95.61.61L81.91,440C82.35,439.62,81.73,439,81.31,439.36Z" transform="translate(39.16 -398.18)"/><path class="cls-3" d="M81.82,441.93l-3.36,2.45c-.44.32,0,1.06.43.74l3.36-2.45C82.7,442.35,82.25,441.6,81.82,441.93Z" transform="translate(39.16 -398.18)"/><path class="cls-3" d="M80.13,456.43a6.93,6.93,0,0,1-3.8-.29c-.52-.18-.75.65-.23.86a7.8,7.8,0,0,0,4.28.28c.55-.1.32-.93-.22-.85Z" transform="translate(39.16 -398.18)"/><path class="cls-3" d="M70.84,454.49l1.78,1.15c.46.3.85-.45.43-.75l-1.77-1.15c-.46-.3-.86.45-.44.75Z" transform="translate(39.16 -398.18)"/><path class="cls-3" d="M77,435.66a2.8,2.8,0,0,0-3.18,1,6.62,6.62,0,0,0-1,4.07.43.43,0,0,0,.86,0c0-1.65.51-5.28,3.07-4.29.5.21.73-.62.22-.86Z" transform="translate(39.16 -398.18)"/><path class="cls-3" d="M72.45,442.79l-.23,1.34c-.09.54.74.77.86.23L73.3,443c.1-.54-.73-.77-.85-.23Z" transform="translate(39.16 -398.18)"/><path class="cls-3" d="M80.15,459.43a8.75,8.75,0,0,1-.22,7.48c-.25.49.49.93.74.44a9.6,9.6,0,0,0,.31-8.16c-.21-.49-1-.27-.85.24Z" transform="translate(39.16 -398.18)"/><path class="cls-3" d="M75.89,468.17l-3.38-1.12c-.52-.18-.74.65-.22.85L75.64,469c.53.17.75-.66.23-.86Z" transform="translate(39.16 -398.18)"/><path class="cls-3" d="M66.93,465a8,8,0,0,1,3.81,2.63c.35.42,1-.19.61-.61a8.86,8.86,0,0,0-4.19-2.84c-.53-.18-.75.66-.23.85Z" transform="translate(39.16 -398.18)"/><path class="cls-3" d="M54.63,478.83a32.46,32.46,0,0,1-4.79,3.36.42.42,0,0,0-.14.59.43.43,0,0,0,.58.14,34,34,0,0,0,5-3.48c.42-.36-.19-1-.61-.61Z" transform="translate(39.16 -398.18)"/><path class="cls-3" d="M38.48,489.51a13.38,13.38,0,0,0-3.58,4.87c-.22.49.53.93.74.43a12.87,12.87,0,0,1,3.43-4.69c.41-.36-.2-1-.61-.61Z" transform="translate(39.16 -398.18)"/><path class="cls-1" d="M6.18,432.08l.09,2.8a.43.43,0,0,0,.86,0L7,431.73Z" transform="translate(39.16 -398.18)"/><path class="cls-1" d="M6.52,432.51a1.69,1.69,0,0,0,.28-.68l-2,.81c0,.08,0,.16,0,.24a.44.44,0,0,0,.44.43h.1a2.07,2.07,0,0,0,.33-.1,3.51,3.51,0,0,0,.81,2c.34.43.94-.18.6-.61A2.62,2.62,0,0,1,6.52,432.51Z" transform="translate(39.16 -398.18)"/><path class="cls-1" d="M21.27,434.33c-.47-.5-.39-.47-1.08-.6a.44.44,0,0,0-.52.33.34.34,0,0,0,0,.2,15.46,15.46,0,0,0,2.5,4.94c.32.42,1,0,.74-.43l-3.43-5.38-.73.43,3.05,4.73c.25.39,1,.15.79-.33a24,24,0,0,0-3-5.5l-.74.43a11.43,11.43,0,0,0,2.7,2.63c.38.27.77-.24.59-.59a4.87,4.87,0,0,0-2.74-2.46c-.45-.18-.75.56-.33.79A16.71,16.71,0,0,1,22.59,436c.41.38,1-.22.6-.6l-3.06-2.93a.43.43,0,0,0-.61.61,39.41,39.41,0,0,1,6.85,9.08l.68-.52q-3-3.51-6-7l-.61.61,6.86,7.6.61-.6A98.24,98.24,0,0,1,21,435c-.31-.36-1,.13-.67.52l5.6,7.29.67-.52-6.74-7.12c-.39-.41-.95.19-.6.61q3.32,4,6.86,7.76l.52-.67a39.1,39.1,0,0,1-6.23-5.76c-.37-.42-1,.19-.61.61a76.65,76.65,0,0,0,5.5,6.07l.52-.68a43.65,43.65,0,0,1-4.49-3.54c-.34-.31-1,.1-.67.52a15.67,15.67,0,0,0,4.67,4.43.43.43,0,0,0,.58-.18.44.44,0,0,0-.07-.49c-1.23-1.18-2.48-2.33-3.78-3.43a.43.43,0,0,0-.6.09.44.44,0,0,0,0,.51c1,1.07,4.81,5.24,6.31,3.43a.45.45,0,0,0,.07-.52,3.8,3.8,0,0,0-4.06-1.64.43.43,0,0,0-.29.55.42.42,0,0,0,.1.17c1.1,1.05,4.21,3.35,5.57,1.64.34-.43-.26-1-.6-.61-.5.62-2.32-.17-2.73-.4a8.56,8.56,0,0,1-1.63-1.24l-.2.71c.9-.38,1.52-.23,1.87.48a12,12,0,0,1-1.21-.79A18.4,18.4,0,0,1,22,440.44l-.6.6c1.28,1.12,2.57,2.28,3.78,3.43l.51-.67a14.61,14.61,0,0,1-4.37-4.17l-.68.52a43.33,43.33,0,0,0,4.68,3.66c.41.29.86-.33.52-.66-1.94-1.94-3.77-4-5.51-6.07l-.6.61a40.1,40.1,0,0,0,6.4,5.88c.41.3.86-.33.52-.67-2.36-2.57-4.64-5.15-6.86-7.77l-.6.61L26,442.85c.33.36,1-.12.68-.51l-5.56-7.27-.67.52a100,100,0,0,0,7,7.32.43.43,0,0,0,.61,0,.42.42,0,0,0,0-.6l-6.86-7.61c-.37-.41-1,.19-.61.61q3,3.44,6,7c.33.38.86-.11.67-.52a40.2,40.2,0,0,0-7-9.26l-.61.61,3.1,2.9.6-.6a17.78,17.78,0,0,0-3.73-2.65l-.33.78a3.9,3.9,0,0,1,2.17,2.07l.6-.54a9.94,9.94,0,0,1-2.39-2.32c-.32-.44-1.07,0-.74.43a22.66,22.66,0,0,1,2.95,5.29l.78-.33-3.07-4.78c-.3-.47-1,0-.74.42l3.43,5.39.74-.44A14.63,14.63,0,0,1,20.47,434l-.52.53.69.38c.38.41,1-.2.61-.61Z" transform="translate(39.16 -398.18)"/><path class="cls-1" d="M-1.07,457.18a15.29,15.29,0,0,0,4.54-1.66.44.44,0,0,0,.14-.59.42.42,0,0,0-.48-.19c-7.21,1.48-13.66,5.27-20.78,7.13l.49.63c1.93-2.67,6.39-3.53,9.43-4.29s6.32-1.35,9.5-1.89l-.22-.85q-8.34,2.56-16.39,5.89l.32.78a68.13,68.13,0,0,1,16.74-7.35L1.89,454l-9.62,4.64c-3.11,1.5-6.23,3.34-9.59,4.21l.53.52c.59-1.72,3.59-2.9,5.14-3.63a45.84,45.84,0,0,1,5.77-2.23c3.43-1.09,7-1.86,10.51-2.63L4.4,454a60.23,60.23,0,0,0-8.51,2.73c-1.27.5-7.9,4.05-8.72,3.13l-.08.68A184.28,184.28,0,0,1,5.77,453l-.33-.79c-5.62,2.57-11.2,5.59-17.15,7.26l.33.78a56.13,56.13,0,0,1,18.32-8.38l-.33-.78a68.23,68.23,0,0,1-20.08,6.77l.22.85c6-2.06,12-4.23,18-6.41l-.23-.86-15.63,6.29.33.79a39.15,39.15,0,0,1,9-4.23c2.49-.8,5.42-.93,7.55-2.57a.43.43,0,0,0-.43-.74q-8.48,3.66-17.28,6.46l.42.71c4.29-4.93,11.73-3.71,17.06-6.86.4-.23.14-1-.33-.78q-10.29,3.9-20.24,8.63l.43.74A49,49,0,0,1,5.29,452c.54-.08.3-.91-.24-.85a49.35,49.35,0,0,0-20,8,.43.43,0,0,0-.09.6.44.44,0,0,0,.52.14q9.84-4.68,20-8.58l-.33-.78c-5.43,3.17-12.86,1.91-17.24,7-.26.3,0,.86.42.72A185.61,185.61,0,0,0,5.8,451.62l-.43-.73c-2.36,1.8-6,1.94-8.77,2.94a41.28,41.28,0,0,0-7.81,3.83c-.39.25-.14,1,.33.79l15.63-6.29c.5-.2.3-1-.23-.86-6,2.18-11.95,4.35-18,6.4a.45.45,0,0,0-.32.54.45.45,0,0,0,.54.32A68.72,68.72,0,0,0,7,451.7a.42.42,0,0,0,.14-.59.44.44,0,0,0-.46-.19,56.36,56.36,0,0,0-18.53,8.46.42.42,0,0,0-.13.59.42.42,0,0,0,.46.19c6.05-1.71,11.7-4.7,17.38-7.34.43-.2.12-.95-.33-.78A188,188,0,0,0-13.3,459.7a.43.43,0,0,0-.15.59l.06.08c1.38,1.53,5.1-1.05,6.43-1.61a68.25,68.25,0,0,1,11.65-4c.54-.13.3-.95-.24-.86a94.21,94.21,0,0,0-13.38,3.75,39.44,39.44,0,0,0-5.46,2.58c-1.33.75-2.72,1.43-3.24,3a.43.43,0,0,0,.33.52.45.45,0,0,0,.2,0,53.49,53.49,0,0,0,9-3.92l10.39-5c.45-.22.13-.92-.32-.78a68.55,68.55,0,0,0-16.92,7.46c-.39.24-.14,1,.33.78q8.06-3.31,16.39-5.89a.45.45,0,0,0,.32-.54.44.44,0,0,0-.54-.31A97.79,97.79,0,0,0-10.18,458c-2.69.86-5.94,1.71-7.72,4.06-.23.32.15.72.49.64,7.11-1.86,13.55-5.65,20.78-7.14l-.3-.74a14.53,14.53,0,0,1-4.33,1.58c-.54.1-.3.92.24.85Z" transform="translate(39.16 -398.18)"/><path class="cls-1" d="M-9.13,456.55l-4.08,1,.33.78C-6.5,454.66.26,452.78,7.34,451a.45.45,0,0,0,.32-.54.46.46,0,0,0-.55-.32c-7.15,1.82-14,3.73-20.43,7.44a.43.43,0,0,0-.14.59.43.43,0,0,0,.48.19l4.05-1c.53-.13.31-1-.23-.86Z" transform="translate(39.16 -398.18)"/><path class="cls-1" d="M-8.93,456.57c5-2.13,10-4.22,15.34-4.87l-.11-.86c-2.85.86-5.87.31-8.75,1.05a27.52,27.52,0,0,0-7.34,3.55l.43.74c4.5-3.28,11-3.72,16.25-4.84l-.23-.86c-3.17.92-8.06-.85-9.7,3.09-.21.51.62.73.86.23,1.37-3.31,6.37-1.71,9.1-2.48a.46.46,0,0,0,.32-.55.45.45,0,0,0-.55-.31C1.3,451.6-5.17,452-9.75,455.39c-.44.32-.05,1,.43.74a24.32,24.32,0,0,1,7.78-3.61c2.68-.54,5.4-.06,8-.86a.44.44,0,0,0-.12-.86c-5.55.67-10.67,2.79-15.76,5-.51.23-.07,1,.43.75Z" transform="translate(39.16 -398.18)"/><path class="cls-1" d="M44.33,429l-5.52,7.11.66.52a47.15,47.15,0,0,1,7.06-9l-.68-.51c-2.52,3.37-5.24,6.67-7.19,10.43a.43.43,0,0,0,.16.59.43.43,0,0,0,.51-.07,120.75,120.75,0,0,0,9.82-11.25c.3-.39-.33-.86-.67-.53a72.83,72.83,0,0,0-8.83,10.9.44.44,0,0,0,.18.59.39.39,0,0,0,.3,0c1.72-.56,2.84-3,3.87-4.38l5.28-6.92c.29-.39-.38-.91-.68-.53a78,78,0,0,0-6.79,10.37c-.22.4.36.91.67.51A85.36,85.36,0,0,0,50.6,425c.23-.4-.36-.91-.67-.52a68.63,68.63,0,0,0-6.72,10.83.43.43,0,0,0,.74.44q3.49-5.58,6.86-11.24l-.74-.43q-3,5.94-6.53,11.59l.74.43q3.53-6,6.78-12.23a.43.43,0,0,0-.74-.43L41.87,438a.43.43,0,1,0,.74.43h0l8.47-14.62-.74-.43q-3.26,6.19-6.78,12.23a.43.43,0,1,0,.75.43q3.51-5.65,6.52-11.59a.43.43,0,0,0-.73-.43q-3.37,5.67-6.86,11.23l.73.44a68.27,68.27,0,0,1,6.59-10.66l-.67-.52a84.29,84.29,0,0,1-8,11.65l.68.52a75.38,75.38,0,0,1,6.63-10.22l-.67-.53-4,5.29-2,2.67c-.61.8-1.64,2.68-2.57,3l.48.64a70.57,70.57,0,0,1,8.69-10.73l-.67-.51a121.27,121.27,0,0,1-9.69,11.07l.67.52c1.95-3.76,4.67-7.06,7.2-10.43.3-.4-.34-.86-.67-.52a47.8,47.8,0,0,0-7.19,9.2c-.24.4.37.91.68.51l5.52-7.1c.34-.44-.27-1.05-.61-.61Z" transform="translate(39.16 -398.18)"/><path class="cls-1" d="M61.27,474.33A80.13,80.13,0,0,0,43,484.24l.52.66a119,119,0,0,1,15.07-10.21.43.43,0,0,0-.43-.74c-6.78,3.25-13.56,6.54-19.67,11-.44.32,0,1,.43.74a167.83,167.83,0,0,1,19-10.07l-.44-.73c-6,3-12.07,6.13-17.47,10.28-.43.33-.07,1,.43.75l19-10.54c.48-.26,0-1-.43-.73-5.37,2.93-10.64,6.06-15,10.39-.35.32.1.94.51.66L59,475.85a.42.42,0,0,0,.1-.6.44.44,0,0,0-.52-.14A73.29,73.29,0,0,0,45,484.43c-.37.32.11.94.53.68l15.91-10.29a.43.43,0,0,0,.09-.6.42.42,0,0,0-.52-.13,59.37,59.37,0,0,0-14.28,10.8c-.32.34.11,1,.52.67l13.12-10c.43-.32.06-1-.43-.74a65.67,65.67,0,0,0-13.27,10.68c-.41.4.18.94.6.61l13.09-10.34c.39-.31-.11-.93-.52-.68A79.24,79.24,0,0,0,48.14,484c-.41.38.19.95.61.6q4.53-3.71,9.14-7.29l-.61-.6q-2.85,2.22-5.53,4.65c-.4.38.21,1,.61.61q2.69-2.43,5.53-4.66c.44-.34-.17-.94-.61-.6q-4.62,3.58-9.14,7.29l.61.6a78.09,78.09,0,0,1,11.48-8.76l-.52-.67L46.62,485.52l.6.61a64.93,64.93,0,0,1,13.1-10.55l-.43-.74-13.09,10,.52.67a58.75,58.75,0,0,1,14.1-10.67l-.43-.74L45.07,484.34l.53.68A71.12,71.12,0,0,1,59,475.83l-.43-.74L44,484.92l.51.67c4.34-4.29,9.55-7.36,14.86-10.29l-.44-.73-19,10.56.43.74c5.39-4.14,11.42-7.22,17.48-10.28.49-.25.06-1-.44-.74a169.25,169.25,0,0,0-19,10.06l.42.74c6.12-4.43,12.86-7.72,19.67-11l-.43-.74a120.21,120.21,0,0,0-15.24,10.36c-.38.3.13,1,.52.67a79.55,79.55,0,0,1,18.07-9.83c.52-.2.29-1-.22-.86Z" transform="translate(39.16 -398.18)"/><path class="cls-1" d="M50.37,450.58a6.73,6.73,0,0,0-1.77-.37.43.43,0,0,0-.22.8l8,4.46.43-.74-7.29-3.35-.34.79A57.37,57.37,0,0,1,59,456.6a.43.43,0,0,0,.58-.16.43.43,0,0,0-.15-.59c-3.36-2.51-7.57-3.16-11.25-5.07l-.43.73c3.67,1.89,7.26,3.95,10.74,6.19.46.3.86-.43.43-.74-2.83-1.91-6.19-3-9.31-4.38l-.33.79c3.54,1,6.38,3.37,9.72,4.81a.43.43,0,0,0,.51-.67c-3.2-3.18-7.33-5-11-7.57l-.44.75,11.15,6c.41.22.9-.33.52-.68-3.1-2.74-7.27-3.63-10.47-6.21l-.52.67a97.85,97.85,0,0,0,9.51,5,.44.44,0,0,0,.59-.17.42.42,0,0,0-.15-.57c-3.05-2.25-6.94-3-9.81-5.54l-.51.68q5.27,2.92,10.82,5.34a.43.43,0,0,0,.59-.16.44.44,0,0,0-.15-.59c-3.06-2-6.81-2.7-9.71-5l-.51.68L59.12,455l.44-.74a76.62,76.62,0,0,1-10.19-5.35l-.43.74,9.33,4.56c.49.24.92-.48.43-.74l-9.43-5-.43.74L59,454.11l.44-.74c-1.72-.73-3.43-1.48-5.09-2.26-1.49-.69-3.43-1.26-4.48-2.57l-.52.67,10.84,5,.34-.78a69,69,0,0,1-10.2-4.57l-.43.74,9.26,4.29.33-.78c-3.19-1.3-6.33-2.7-9.43-4.23l-.44.75c2,.85,4,1.76,6,2.74l.43-.74a82.38,82.38,0,0,1-7.35-3.8l-.44.73,7.38,3.78.44-.75a54.75,54.75,0,0,1-6.69-3.64l-.43.74,6.66,3.64c.48.26.91-.48.43-.74l-7.12-3.94a.45.45,0,0,0-.59.16.43.43,0,0,0,.16.59q3.25,2,6.66,3.69c.5.25.93-.48.44-.73l-6.71-3.43c-.49-.25-.92.49-.43.74l6.7,3.42.44-.73c-2.27-1.15-4.49-2.38-6.67-3.71l-.43.75,7.12,3.93.43-.74-6.71-3.61a.43.43,0,0,0-.59.16.44.44,0,0,0,.16.59,56,56,0,0,0,6.68,3.64c.5.22.93-.49.44-.75l-7.38-3.76a.43.43,0,0,0-.44.74q3.6,2.06,7.36,3.8c.49.23.93-.49.43-.73-2-1-4-1.9-6-2.76-.5-.2-.93.5-.44.75q4.74,2.33,9.62,4.29c.45.18.76-.59.33-.79l-9.27-4.29c-.49-.23-.93.46-.43.74a69.62,69.62,0,0,0,10.4,4.65c.45.17.78-.58.33-.78l-10.84-4.95a.44.44,0,0,0-.52.68c1,1.19,2.57,1.71,3.93,2.34,1.92.89,3.86,1.74,5.81,2.57.49.21.93-.5.43-.74l-10.11-4.89c-.5-.24-.93.48-.44.74l9.43,5,.44-.74-9.25-4.52a.44.44,0,0,0-.57.22.42.42,0,0,0,.14.52,75.4,75.4,0,0,0,10.22,5.38c.49.22.93-.48.43-.73l-9.7-4.88c-.4-.2-.92.36-.51.68,3,2.34,6.75,3,9.86,5.14l.44-.75q-5.55-2.4-10.83-5.33a.43.43,0,0,0-.51.67c2.91,2.57,6.86,3.38,10,5.67l.44-.74a98,98,0,0,1-9.52-5c-.41-.24-.91.35-.52.67,3.19,2.57,7.39,3.49,10.46,6.22l.53-.66-11.15-6a.43.43,0,0,0-.43.75h0c3.58,2.52,7.66,4.29,10.8,7.42l.52-.67c-3.43-1.47-6.3-3.92-9.92-4.9-.45-.12-.79.59-.32.78,3.12,1.34,6.48,2.47,9.31,4.38l.42-.74q-5.22-3.36-10.74-6.18c-.49-.25-.91.48-.43.73,3.67,1.92,7.9,2.58,11.25,5.09l.43-.75a59.63,59.63,0,0,0-10-4.55c-.46-.14-.78.58-.34.79l7.3,3.33c.49.23.92-.46.43-.73l-8-4.46-.21.79a4.37,4.37,0,0,1,1.55.35c.52.18.74-.65.22-.86Z" transform="translate(39.16 -398.18)"/><path class="cls-2" d="M49.37,446.16a8.59,8.59,0,0,0,3.43,2.46c.44.18.77-.59.32-.78l-3.32-1.41c-.39-.17-.92.33-.51.68a20.38,20.38,0,0,0,3.92,2.57c.49.24.92-.46.43-.74l-3.32-1.87a.43.43,0,0,0-.43.74l3.5,2.17.44-.75c-.73-.39-1.46-.76-2.22-1.09-.49-.23-.91.45-.43.73l1.72,1,.33-.78a3.89,3.89,0,0,1-1.21-.71l-.53.67.68.41.43-.73-2.81-1.47-.43.74,2,.91.44-.75a22.25,22.25,0,0,1-3.43-1.77l-.22.8a3,3,0,0,0,2.91-2.1c.18-.52-.64-.75-.86-.22a2.14,2.14,0,0,1-2.08,1.46.43.43,0,0,0-.43.43.44.44,0,0,0,.21.37,23.22,23.22,0,0,0,3.43,1.78c.49.21.94-.52.43-.75l-2-.9c-.49-.22-.92.48-.43.74l2.82,1.46a.42.42,0,0,0,.56-.21.41.41,0,0,0-.14-.52l-.66-.42c-.42-.24-.86.36-.53.67a5.15,5.15,0,0,0,1.6.94c.46.17.74-.54.33-.78l-1.71-1-.43.73c.74.35,1.48.71,2.2,1.11a.43.43,0,0,0,.44-.75l-3.48-2.16-.43.74,3.34,1.83.42-.73a19.5,19.5,0,0,1-3.73-2.41l-.53.68,3.32,1.4.33-.78A8,8,0,0,1,50,445.55c-.36-.42-1,.19-.6.61Z" transform="translate(39.16 -398.18)"/><path class="cls-1" d="M27.94,439.13c-.42-.45-3.51-3.51-4-1.81-.18.69.76,1.46,1.15,1.86a11.06,11.06,0,0,0,3.43,2.26c.34.15.86-.2.59-.58a13.35,13.35,0,0,0-4.55-3.93.43.43,0,0,0-.51.68c2.11,1.94,4.28,3.86,7.17,4.58a.44.44,0,0,0,.54-.31.44.44,0,0,0-.31-.54c-2.71-.68-4.79-2.51-6.79-4.37l-.53.68a12.41,12.41,0,0,1,4.24,3.61l.58-.58a10.58,10.58,0,0,1-3.43-2.29c-.5-.52-.71-.66,0-.18a9.14,9.14,0,0,1,1.72,1.51c.37.4,1-.2.61-.61Z" transform="translate(39.16 -398.18)"/><path class="cls-1" d="M13.79,429.37v0l0,0v0h0s.06-.07.1-.09a.47.47,0,0,0,.09-.64l-1.31.61a4.51,4.51,0,0,0-1.06,2.42.38.38,0,0,0,0,.19c0,.16-.07.32-.09.48a.43.43,0,0,0,.31.54.37.37,0,0,0,.18,0,.77.77,0,0,0,0,.15c-.05.48.74.57.86.11a.35.35,0,0,1,0-.11h0c0-.08,0-.17,0-.25.1-.38.19-.75.32-1.12a7.23,7.23,0,0,1,.4-1.15.43.43,0,0,0,.36-.1h0l.06-.06a.39.39,0,0,0,.11-.42A.5.5,0,0,0,13.79,429.37Z" transform="translate(39.16 -398.18)"/><path class="cls-1" d="M73.58,446.06l.54-3.81c.07-.54-.73-.78-.86-.23l-.5,2.72.86.23a24.74,24.74,0,0,0,.39-3.84h-.86a10,10,0,0,1-.54,3.83l.86.12a29.8,29.8,0,0,1,1.36-6.21l-.86-.12a13.73,13.73,0,0,1-.8,3.52l.85.11a9.39,9.39,0,0,1,.21-2.11l.14-.54A2,2,0,0,1,76,438.18c.19.52,1,.29.86-.23a1.3,1.3,0,0,0-1.62-.85,1.22,1.22,0,0,0-.55.34c-1.26,1-1.46,3.43-1.46,4.94a.43.43,0,0,0,.37.49.42.42,0,0,0,.49-.37,14.6,14.6,0,0,0,.86-3.75c0-.5-.7-.55-.86-.11a31.49,31.49,0,0,0-1.4,6.44c-.05.5.7.54.86.11a10.37,10.37,0,0,0,.57-4.06.43.43,0,1,0-.85,0,24.26,24.26,0,0,1-.36,3.61c-.1.54.72.77.85.23l.5-2.72-.86-.23-.53,3.81c-.08.54.75.77.86.23Z" transform="translate(39.16 -398.18)"/><path class="cls-1" d="M38,436.12a6.72,6.72,0,0,0-1.49.24.44.44,0,0,0-.3.53,3.36,3.36,0,0,0,3.93,2.66l.1,0a.44.44,0,0,0,.3-.53.41.41,0,0,0-.19-.25,9.6,9.6,0,0,0-4.36-1c-.47,0-.51.56-.21.8A6.19,6.19,0,0,0,38,439.62a3.39,3.39,0,0,0,1.89.13.66.66,0,0,0,.42-.84v0c-.2-.62-1.05-.78-1.58-.92s-3.16-.79-2.57.67c.2.51,1,.92,1.42,1.17a6.23,6.23,0,0,0,2.43.69.43.43,0,0,0,.31-.73,4.45,4.45,0,0,0-3.43-1.23.45.45,0,0,0-.43.45.66.66,0,0,0,.06.2,2.49,2.49,0,0,0,2.8,1.07.43.43,0,0,0,0-.86,6.25,6.25,0,0,0-2.74-.41c-.32,0-.62.48-.3.73a3.78,3.78,0,0,0,2.76.85c.39,0,.63-.59.22-.79a5.49,5.49,0,0,0-2.41-.59c-.41,0-.62.62-.23.8a5.71,5.71,0,0,0,2.88.51c.37,0,.64-.6.21-.8a5.55,5.55,0,0,0-3.43-.42.42.42,0,0,0-.29.53.4.4,0,0,0,.1.18,3.82,3.82,0,0,0,3.63,1,.44.44,0,0,0,.34-.5.46.46,0,0,0-.15-.26,6.44,6.44,0,0,0-3.71-.68.42.42,0,0,0-.42.43.44.44,0,0,0,.21.37,4.87,4.87,0,0,0,3.13.8.44.44,0,0,0,.49-.37.44.44,0,0,0-.37-.49h0a3.74,3.74,0,0,0-2.57-.2.75.75,0,0,0-.37,1,.81.81,0,0,0,.17.24c.86.95,3.48.86,2.91-.86-.18-.52-1-.3-.86.23.23.7-2.21,0-.86.12a5.67,5.67,0,0,1,1.28.3l.11-.86a4.1,4.1,0,0,1-2.7-.69l-.21.8a5.66,5.66,0,0,1,3.26.57l.1-.78a2.92,2.92,0,0,1-2.78-.76l-.19.71a4.5,4.5,0,0,1,2.73.35l.22-.81a4.77,4.77,0,0,1-2.44-.39l-.21.8a4.37,4.37,0,0,1,2,.47l.21-.8a3,3,0,0,1-2.16-.63l-.3.74a5.56,5.56,0,0,1,2.52.38v-.86a1.63,1.63,0,0,1-1.84-.68l-.37.64a3.62,3.62,0,0,1,2.8,1l.3-.74a5.19,5.19,0,0,1-2.3-.73,5.35,5.35,0,0,1-.7-.53l.08.14a5.84,5.84,0,0,1,1.43.28c.14,0,1.35.18.85.16a5.58,5.58,0,0,1-1.15-.15,5.37,5.37,0,0,1-2-1l-.21.81a8.72,8.72,0,0,1,3.92.86l.1-.78A2.5,2.5,0,0,1,37,436.66a.5.5,0,0,1,0-.12l-.3.53a5.94,5.94,0,0,1,1.26-.22.43.43,0,0,0,0-.85Z" transform="translate(39.16 -398.18)"/><path class="cls-1" d="M34.94,435.93c-1.06.63-.79,2.32-.64,3.35a3.86,3.86,0,0,0,2.11,3.21.43.43,0,0,0,.53-.67,5.74,5.74,0,0,1-1.63-5l-.86-.12c-.12,1.31-.08,6.18,2.13,5.75.29-.05.35-.4.25-.63-.66-1.5-2.65-4.43-1-5.78l-.71-.42a8.24,8.24,0,0,0-.33,4.56,4,4,0,0,0,.72,1.39c.16.21,1.09.82,1.12,1,.06.54.92.55.86,0-.13-1.07-1-1-1.55-1.91-.86-1.47-.37-3.25,0-4.77a.43.43,0,0,0-.72-.42c-2.12,1.72,0,5,.86,6.86l.26-.62c-1,.19-1.09-4.37-1-4.92s-.76-.6-.86-.12a6.66,6.66,0,0,0,1.85,5.81l.52-.68a3,3,0,0,1-1.72-2.57c-.08-.58-.38-2.2.21-2.57a.43.43,0,1,0-.43-.74Z" transform="translate(39.16 -398.18)"/><path class="cls-1" d="M24.33,444.21a20.94,20.94,0,0,1,3,6.19l.86-.22c-.86-2.26-1.44-5-3-6.86-.33-.38-.92.1-.68.51l.87,1.53a.44.44,0,0,0,.59.14.42.42,0,0,0,.15-.58l-.86-1.51-.67.52c1.48,1.71,2,4.39,2.82,6.47.19.5,1,.31.85-.22a21.61,21.61,0,0,0-3.12-6.4c-.31-.45-1.06,0-.73.43Z" transform="translate(39.16 -398.18)"/><path class="cls-1" d="M29.24,449.23l-.43-.27v.61l2.91-2.74a.42.42,0,0,0,0-.6.27.27,0,0,0-.08-.07c-1.44-.85-2.27,2.64-2.57,3.43a.43.43,0,0,0,.32.52.45.45,0,0,0,.46-.19,10.77,10.77,0,0,0,1.34-4.35.44.44,0,0,0-.43-.43c-.85,0-1,.9-1.15,1.56a16.28,16.28,0,0,0-.57,3.1.43.43,0,0,0,.8.21A28.28,28.28,0,0,0,32,445.83c.21-.51-.61-.73-.85-.22a28.94,28.94,0,0,1-2,4l.8.22a14.71,14.71,0,0,1,.31-2c0-.17.38-1.8.56-1.81l-.43-.43a9.52,9.52,0,0,1-1.23,3.92l.78.33a16.46,16.46,0,0,1,1.28-3l-.08-.68L28.2,449a.43.43,0,0,0,0,.6,1.56,1.56,0,0,0,.86.49.45.45,0,0,0,.54-.31.44.44,0,0,0-.32-.54Z" transform="translate(39.16 -398.18)"/><path class="cls-1" d="M23.65,447.42c.38-.12.24.16.56-.36a2.89,2.89,0,0,0,.28-.86,4.11,4.11,0,0,0,0-1.6c-.26-1.57-1.49-2.75-1.94-4.28l-.78.32a68.54,68.54,0,0,1,2.83,7.07l.86-.23a22.57,22.57,0,0,0-4.42-7.08.43.43,0,0,0-.67.52,94.42,94.42,0,0,1,4.38,8.41c.23.49,1,.07.74-.44a94.24,94.24,0,0,0-4.38-8.4l-.68.51a21.72,21.72,0,0,1,4.21,6.71c.19.49,1,.3.85-.23a68.6,68.6,0,0,0-3-7.27c-.2-.44-.91-.12-.78.34.51,1.71,2.18,3.32,1.91,5.2-.12.78-1.06,1.72-.4,2.46a.44.44,0,0,0,.42.11l.18-.05a.44.44,0,1,0-.23-.85Z" transform="translate(39.16 -398.18)"/><path class="cls-1" d="M68.3,468.44a3.23,3.23,0,0,1,3.22.6l.3-.73a2.59,2.59,0,0,1-2.14-1l-.42.72a35.49,35.49,0,0,1,3.53,1c.52.18.74-.65.23-.86a33.47,33.47,0,0,0-3.52-1,.43.43,0,0,0-.42.72,3.36,3.36,0,0,0,2.74,1.24.43.43,0,0,0,.31-.73,4.13,4.13,0,0,0-4.06-.86c-.52.18-.3,1,.23.86Z" transform="translate(39.16 -398.18)"/><path class="cls-1" d="M74,469.13a17.89,17.89,0,0,1-2.47-4.36c-.2-.51-1-.29-.86.23a18.32,18.32,0,0,0,2.57,4.56c.34.44,1.07,0,.74-.43Z" transform="translate(39.16 -398.18)"/><path class="cls-1" d="M69.3,468.12a15.53,15.53,0,0,1,2.72-.23.43.43,0,0,0,0-.86,6.43,6.43,0,0,1-2.46-.37l-.12.86h.44a.43.43,0,1,0,0-.86h-.44a.44.44,0,0,0-.12.86,7.29,7.29,0,0,0,2.7.4v-.86a24.85,24.85,0,0,0-2.58.18c-.51.09-.93.36-1,.91s.86.55.86,0Z" transform="translate(39.16 -398.18)"/><path class="cls-1" d="M73.07,453.43a.43.43,0,0,0,.43-.43.43.43,0,1,0-.86,0A.43.43,0,0,0,73.07,453.43Z" transform="translate(39.16 -398.18)"/><path class="cls-1" d="M73.23,452.79a.67.67,0,0,0-.92-.26.65.65,0,0,0-.34.62,3.36,3.36,0,0,0,.48,1.47,26.17,26.17,0,0,0,1.4,2.87c.22.41,1,.13.78-.34A25.82,25.82,0,0,0,73,453.51a.44.44,0,0,0-.61-.11.42.42,0,0,0-.18.45,37.3,37.3,0,0,0,2.32,5.58c.25.49,1,.06.74-.42a36.31,36.31,0,0,1-2.23-5.4l-.79.34a23.62,23.62,0,0,1,1.57,3.43l.78-.34c-.33-.6-.64-1.21-.94-1.82-.16-.33-.3-.66-.44-1a5.89,5.89,0,0,1-.24-.58.52.52,0,0,0-.48-.43c.32.44,1.07,0,.74-.43Z" transform="translate(39.16 -398.18)"/><path class="cls-1" d="M77.21,455l-4,2.07c-.49.26-.06,1,.44.74a15.2,15.2,0,0,0,3.67-2.3c.38-.31-.1-.91-.52-.67A37.42,37.42,0,0,0,73,457.49c-.43.35.18.95.61.61a32.75,32.75,0,0,1,3.64-2.57l-.51-.68A14.91,14.91,0,0,1,73.24,457l.44.73,4-2.07c.49-.26.06-1-.43-.74Z" transform="translate(39.16 -398.18)"/><path class="cls-1" d="M77.25,459c-1-.47-2-1-3.07-1.45-.41-.2-.93.35-.53.66a18,18,0,0,0,2.18,1.51.43.43,0,0,0,.52-.67,10.79,10.79,0,0,1-1.47-1.84l-.67.52A31.51,31.51,0,0,0,76.89,460c.42.34,1-.21.6-.6l-2.09-2-.52.68a12.6,12.6,0,0,1,3.64,2.49c.4.38,1-.22.61-.6a13.35,13.35,0,0,0-3.81-2.64c-.42-.18-.9.32-.53.68l2.1,2,.6-.6a35,35,0,0,1-2.67-2.35c-.34-.34-.94.09-.68.51a11.49,11.49,0,0,0,1.6,2l.52-.67a16.07,16.07,0,0,1-2-1.37l-.52.67c1,.51,2.05,1,3.09,1.46.49.23.93-.51.42-.74Z" transform="translate(39.16 -398.18)"/><path class="cls-1" d="M42.29,440l.22-.8-.86-.23-.86,4.12.86.22a28.73,28.73,0,0,1,1.3-4.57l-.85-.24c-.77,2.58-1.49,5.09-2.13,7.65a.44.44,0,1,0,.86.22c.64-2.56,1.35-5.11,2.12-7.63.16-.54-.64-.74-.86-.24a28.26,28.26,0,0,0-1.31,4.59c-.11.53.71.77.85.22l.86-4.11a.44.44,0,0,0-.31-.55.46.46,0,0,0-.55.32h0l-.22.8a.46.46,0,0,0,.31.55.45.45,0,0,0,.55-.32Z" transform="translate(39.16 -398.18)"/><path class="cls-1" d="M42.51,439.05a23.31,23.31,0,0,0-1.24,3.7.44.44,0,1,0,.85.23,19.72,19.72,0,0,0,1.19-4.13.44.44,0,0,0-.86-.22,64.52,64.52,0,0,0-2.77,9.75.44.44,0,0,0,.86.22,66.05,66.05,0,0,1,2.77-9.75l-.86-.22a19.05,19.05,0,0,1-1.19,4.12l.85.23a22.43,22.43,0,0,1,1.16-3.5c.22-.5-.52-.94-.74-.43Z" transform="translate(39.16 -398.18)"/><path class="cls-2" d="M.51,435.33q9-3.69,18.2-7c1.22-.44.69-2.4-.54-2q-9.18,3.3-18.2,7c-1.19.49-.67,2.46.54,2Z" transform="translate(39.16 -398.18)"/><path class="cls-1" d="M1204.3,1095.46a149.09,149.09,0,0,1-21-8.14q-5.1-2.43-10-5.27c-1.63-.94-3.24-1.91-4.85-2.93l-.09,0c-1.15.53-2.3,1.06-3.43,1.61-1.47.71-3,1.26-4.49,1.91a48.33,48.33,0,0,0,7.62,4.89q5.25,3.11,10.74,5.77a161.72,161.72,0,0,0,23.53,9.27C1206.87,1103.89,1208.79,1096.83,1204.3,1095.46Z" transform="translate(39.16 -398.18)"/><path class="cls-1" d="M1142.52,1104.43c11-3,22-6.12,32.91-9.69a12.53,12.53,0,0,0,5.85-3.46c1.69-2,2.76-4.47,4-6.73l8.3-15.44c2.23-4.15-4.09-7.85-6.34-3.7l-7.4,13.77c-1.18,2.21-2.26,4.65-3.65,6.75-1.13,1.69-3.44,2-5.28,2.57q-15.08,4.71-30.31,8.87c-4.54,1.24-2.61,8.29,2,7.06Z" transform="translate(39.16 -398.18)"/><path class="cls-1" d="M1179.32,1119.13l11.64-6.67a64,64,0,0,0,9-5.66,15.58,15.58,0,0,0,5.4-8.26c.93-3.69.46-7.57,1.65-11.22,1.46-4.48-5.59-6.4-7.06-2-1,3.21-.9,6.51-1.37,9.81a9.48,9.48,0,0,1-4.25,6.73c-5.82,4.14-12.52,7.32-18.73,10.89-4.08,2.34-.4,8.66,3.69,6.34Z" transform="translate(39.16 -398.18)"/><path class="cls-2" d="M1162.18,1081.87a1,1,0,0,0,1.81-.18,6.37,6.37,0,0,1,.21-.66C1163.53,1081.32,1162.85,1081.6,1162.18,1081.87Z" transform="translate(39.16 -398.18)"/><path class="cls-2" d="M1177,1083q-3.42-2.06-6.75-4.25a4.27,4.27,0,0,1-.51-.3l-2.06,1q4.11,2.74,8.34,5.28A1,1,0,0,0,1177,1083Z" transform="translate(39.16 -398.18)"/><path class="cls-2" d="M1178,1084.1l7.31-13c1.07-1.91,2-4,3-5.85,1.38-2.44,4.54.72,5.29,2.39v-1l-10,20.55c-.55,1.12,1.13,2.11,1.68,1l7.74-15.84c.76-1.55,2.67-3.94,2.3-5.69s-2.24-3.08-3.65-3.69c-1.2-.52-2.87-.88-4.06-.18a2.42,2.42,0,0,0-1,1.07c-.61,1.22-1,2.59-1.65,3.82l-8.67,15.49a1,1,0,0,0,1.69,1Z" transform="translate(39.16 -398.18)"/><path class="cls-2" d="M1184.48,1088.67c4.16,2.74,9,4.39,13.55,6.34,1.14.49,2.13-1.19,1-1.68-4.55-1.95-9.38-3.61-13.54-6.34-1-.7-2,1-1,1.68Z" transform="translate(39.16 -398.18)"/><path class="cls-2" d="M1199.88,1094.18c.27-2.66.21-5.65.9-8.23.14-.49.43-1.74.89-2a3.51,3.51,0,0,1,2.93.42c1.74.92,1.46,2.54,1.1,4.15a50.2,50.2,0,0,0-.74,6.48c-.23,2.4,2.13,5.86-1.18,6.94-1.18.39-.67,2.27.52,1.87,3.38-1.12,3.64-4,2.76-7-.63-2.13,0-5.62.52-7.8.39-1.71,1.08-2.93,0-4.56-1.25-2-4.73-3.9-6.86-2.31a6.2,6.2,0,0,0-2,4.22c-.38,2.57-.55,5.18-.8,7.77-.13,1.24,1.82,1.23,2,0Z" transform="translate(39.16 -398.18)"/><path class="cls-2" d="M1203.18,1102a42.18,42.18,0,0,1-5.88,5.69,52.4,52.4,0,0,1-7.15,4.15q-3.78,2-7.46,4.15a23.6,23.6,0,0,1-4.23,2.33,4.94,4.94,0,0,1-1.83.32c-1.13-.07-2.87-1.6-1.9-2.79.78-1-.59-2.35-1.38-1.38a3.61,3.61,0,0,0,.36,5.09,4,4,0,0,0,.54.38c3,1.87,6.44-.49,9-2,3.94-2.32,8-4.34,12-6.59a38,38,0,0,0,9.3-7.94c.84-.94-.54-2.32-1.38-1.39Z" transform="translate(39.16 -398.18)"/><path class="cls-2" d="M1174.57,1115.8c1.46-3.76,7.31-6,10.65-7.88a90.33,90.33,0,0,0,11-6.79c.52-.39.73-1.33,0-1.68q-8.77-4.15-17.83-7.59c-1.18-.45-1.68,1.44-.52,1.88q8.82,3.35,17.36,7.39v-1.69c-4.15,3.14-8.78,5.49-13.29,8-3.42,1.92-7.81,3.9-9.27,7.8-.45,1.17,1.43,1.69,1.88.52Z" transform="translate(39.16 -398.18)"/><path class="cls-2" d="M1178.05,1092.28a30.71,30.71,0,0,0-7.37,2.16c-2.89,1.06-5.8,2.07-8.73,3q-8.58,2.77-17.35,4.85c-1.8.42-3.7,1.07-5.15-.61-.93-1.08.19-2.89,1.12-3.47a9.19,9.19,0,0,1,2.09-.63c3-.9,6-1.79,9-2.65q9-2.61,18.14-5a1,1,0,0,0-.52-1.88q-11.37,3-22.66,6.34c-2,.58-3.9,1.15-5.85,1.75a6.66,6.66,0,0,0-3,1.43c-1.52,1.59-.82,4.29.42,5.83,1.62,2,4.21,1.38,6.42.89,3.75-.87,7.47-1.86,11.17-2.93s7.37-2.25,11-3.51,7.38-3.25,11.22-3.65C1179.28,1094.1,1179.3,1092.15,1178.05,1092.28Z" transform="translate(39.16 -398.18)"/><path class="cls-2" d="M1169.81,1087.37c-3-1.23-6.18-2.54-8.62-4.77l-.23-.23c-.5.21-1,.43-1.5.67l-.38.19c.24.25.48.5.74.75,2.67,2.49,6.12,3.9,9.47,5.27C1170.45,1089.74,1171,1087.83,1169.81,1087.37Z" transform="translate(39.16 -398.18)"/><path class="cls-2" d="M1165.33,1080.5a17.31,17.31,0,0,0-.3,2.48.25.25,0,0,0,.49,0,17.1,17.1,0,0,1,.35-2.75Z" transform="translate(39.16 -398.18)"/><path class="cls-2" d="M1176.86,1083.34a3.34,3.34,0,0,0,1.68,2.93.24.24,0,0,0,.24-.42,2.86,2.86,0,0,1-1.46-2.47.25.25,0,0,0-.49,0Z" transform="translate(39.16 -398.18)"/><path class="cls-2" d="M1180.26,1086.62l1.27.25c.31.06.44-.41.13-.49l-1.27-.25c-.31-.06-.44.41-.13.48Z" transform="translate(39.16 -398.18)"/><path class="cls-2" d="M1183,1087.76l1.12.66a.24.24,0,0,0,.33-.12.25.25,0,0,0-.08-.29l-1.13-.67a.24.24,0,0,0-.24.42Z" transform="translate(39.16 -398.18)"/><path class="cls-2" d="M1170,1088.85a5.86,5.86,0,0,1,2.54,1c.26.18.49-.24.25-.42a6.32,6.32,0,0,0-2.79-1c-.31,0-.31.45,0,.49Z" transform="translate(39.16 -398.18)"/><path class="cls-2" d="M1174.54,1090.42a2.82,2.82,0,0,1,1.61,1c.19.24.53-.1.34-.35a3.25,3.25,0,0,0-1.82-1.17.25.25,0,0,0-.13.49Z" transform="translate(39.16 -398.18)"/><path class="cls-2" d="M1199,1094.32a7.4,7.4,0,0,0,3.9,2.1c.31.06.44-.4.13-.48a7,7,0,0,1-3.68-2,.24.24,0,0,0-.34,0,.23.23,0,0,0,0,.29Z" transform="translate(39.16 -398.18)"/><path class="cls-2" d="M1204.63,1096.57a1.52,1.52,0,0,1,1,.49c.22.22.57-.13.34-.35a2.07,2.07,0,0,0-1.3-.6c-.32,0-.32.46,0,.49Z" transform="translate(39.16 -398.18)"/><path class="cls-2" d="M1196.18,1100.58a10.37,10.37,0,0,1,3.83,1.87c.25.19.49-.23.25-.42a10.84,10.84,0,0,0-4-1.92.25.25,0,0,0-.13.49Z" transform="translate(39.16 -398.18)"/><path class="cls-2" d="M1201.12,1102.69l.9.26a.25.25,0,0,0,.3-.18.24.24,0,0,0-.18-.31l-.89-.25a.25.25,0,1,0-.13.48Z" transform="translate(39.16 -398.18)"/><path class="cls-2" d="M1187.1,1089.4a31.52,31.52,0,0,0,2.4,5.17.24.24,0,0,0,.34.08.24.24,0,0,0,.08-.33,29.69,29.69,0,0,1-2.34-5c-.11-.29-.58-.17-.49.13Z" transform="translate(39.16 -398.18)"/><path class="cls-2" d="M1189,1091.33a7,7,0,0,1,1,2.16.24.24,0,0,0,.3.18.25.25,0,0,0,.19-.3,7.56,7.56,0,0,0-1.07-2.28c-.17-.26-.6,0-.42.24Z" transform="translate(39.16 -398.18)"/><path class="cls-2" d="M1206.72,1085.58l-4.77,3.76c-.25.2.1.54.34.35l4.79-3.76c.24-.2-.1-.54-.35-.35Z" transform="translate(39.16 -398.18)"/><path class="cls-2" d="M1206.22,1087.63a13.39,13.39,0,0,1-2.21,1.53c-.28.15,0,.57.25.42a13,13,0,0,0,2.3-1.61C1206.8,1087.77,1206.46,1087.42,1206.22,1087.63Z" transform="translate(39.16 -398.18)"/><path class="cls-2" d="M1183.63,1111.2c2.38-1.33,4.7-2.74,7-4.23.26-.17,0-.6-.25-.43-2.27,1.49-4.6,2.91-7,4.24a.24.24,0,0,0-.06.34A.24.24,0,0,0,1183.63,1111.2Z" transform="translate(39.16 -398.18)"/><path class="cls-2" d="M1187.57,1110.17l2.4-1.68c.26-.17,0-.6-.25-.42l-2.4,1.68c-.26.17,0,.6.24.42Z" transform="translate(39.16 -398.18)"/><path class="cls-2" d="M1177.33,1119.74a26.35,26.35,0,0,1,3.72-5.24c.21-.23-.13-.57-.35-.34a26.66,26.66,0,0,0-3.79,5.34C1176.76,1119.77,1177.18,1120,1177.33,1119.74Z" transform="translate(39.16 -398.18)"/><path class="cls-2" d="M1184.69,1068.66a46.26,46.26,0,0,1,1,7.32.24.24,0,0,0,.48,0,46.6,46.6,0,0,0-1-7.45c-.07-.31-.54-.18-.49.13Z" transform="translate(39.16 -398.18)"/><path class="cls-2" d="M1183.63,1072.61a16.13,16.13,0,0,1,.55,2.85c0,.31.51.32.48,0a15.82,15.82,0,0,0-.56-3,.25.25,0,0,0-.31-.18.25.25,0,0,0-.18.31Z" transform="translate(39.16 -398.18)"/><path class="cls-2" d="M1193.71,1064.67q-2.2,1.8-4.25,3.79c-.22.22.13.56.35.34,1.36-1.32,2.77-2.59,4.24-3.79C1194.29,1064.81,1194,1064.47,1193.71,1064.67Z" transform="translate(39.16 -398.18)"/><path class="cls-2" d="M1187.35,1079.44,1182,1084c-.24.2.1.55.34.35l5.41-4.54c.24-.2-.11-.55-.35-.35Z" transform="translate(39.16 -398.18)"/><path class="cls-2" d="M1170,1082.5l2.73,5.44c.14.28.56,0,.42-.24l-2.73-5.45C1170.27,1082,1169.85,1082.22,1170,1082.5Z" transform="translate(39.16 -398.18)"/><path class="cls-2" d="M1172.48,1085.26a6,6,0,0,1,.86,2.55c0,.32.52.32.49,0a6.46,6.46,0,0,0-.93-2.79C1172.73,1084.75,1172.31,1085,1172.48,1085.26Z" transform="translate(39.16 -398.18)"/><path class="cls-2" d="M1153,1097.4a36.47,36.47,0,0,1,6.34-4.78c.27-.16,0-.59-.25-.42a37.1,37.1,0,0,0-6.42,4.88c-.23.21.12.56.34.34Z" transform="translate(39.16 -398.18)"/><path class="cls-2" d="M1156.53,1095.58a59.71,59.71,0,0,1,6.12-5.1c.25-.18,0-.6-.24-.42a61.67,61.67,0,0,0-6.23,5.17C1156,1095.45,1156.3,1095.8,1156.53,1095.58Z" transform="translate(39.16 -398.18)"/><path class="cls-2" d="M1141.35,1101l2.93,2.41c.24.19.58-.15.34-.35l-2.92-2.4c-.24-.2-.59.14-.34.34Z" transform="translate(39.16 -398.18)"/><path class="cls-2" d="M1143.28,1101.53l1.81,1.1a.26.26,0,0,0,.34-.1.24.24,0,0,0-.09-.32l-1.81-1.1a.24.24,0,0,0-.33.09A.24.24,0,0,0,1143.28,1101.53Z" transform="translate(39.16 -398.18)"/><path class="cls-2" d="M1164.29,1097.38a22.69,22.69,0,0,1,4.29-5.78c.22-.22-.13-.57-.35-.35a23.29,23.29,0,0,0-4.39,5.86c-.14.28.28.52.42.25Z" transform="translate(39.16 -398.18)"/><path class="cls-3" d="M1165.92,1080.21a6.27,6.27,0,0,0-.09.86.25.25,0,0,0,.49,0,5.22,5.22,0,0,1,.16-1.12Z" transform="translate(39.16 -398.18)"/><path class="cls-3" d="M1168.17,1079.16l-.53.25c1,.58,1.92,1.15,2.88,1.7a.25.25,0,0,0,.32-.12.24.24,0,0,0-.08-.3C1169.89,1080.19,1169,1079.68,1168.17,1079.16Z" transform="translate(39.16 -398.18)"/><path class="cls-3" d="M1171.37,1081.75l.25.26a.24.24,0,0,0,.35,0,.26.26,0,0,0,0-.35h0l-.26-.27c-.23-.22-.57.12-.35.34Z" transform="translate(39.16 -398.18)"/><path class="cls-3" d="M1172.68,1082.73c1.3.79,2.64,1.53,4,2.2.28.14.53-.28.24-.42q-2-1-4-2.21C1172.66,1082.14,1172.44,1082.56,1172.68,1082.73Z" transform="translate(39.16 -398.18)"/><path class="cls-3" d="M1170.7,1082.53l.89,2.28c.11.29.58.16.48-.13l-.88-2.29c-.12-.29-.58-.17-.49.13Z" transform="translate(39.16 -398.18)"/><path class="cls-3" d="M1173.33,1085.85l.39,1.39a.24.24,0,0,0,.31.18.25.25,0,0,0,.18-.3l-.38-1.4a.25.25,0,0,0-.31-.18.25.25,0,0,0-.18.31Z" transform="translate(39.16 -398.18)"/><path class="cls-3" d="M1170.91,1088.4l1.79.87c.28.14.53-.27.25-.42l-1.79-.87C1170.88,1087.83,1170.63,1088.26,1170.91,1088.4Z" transform="translate(39.16 -398.18)"/><path class="cls-3" d="M1173.76,1089.33a9.79,9.79,0,0,1,2.37,1.36c.25.19.49-.23.25-.42a10.38,10.38,0,0,0-2.49-1.41c-.29-.12-.42.35-.13.49Z" transform="translate(39.16 -398.18)"/><path class="cls-3" d="M1165.44,1096.24a22.4,22.4,0,0,1,3.34-4.17c.23-.22-.12-.57-.35-.35A23.07,23.07,0,0,0,1165,1096C1164.85,1096.26,1165.27,1096.49,1165.44,1096.24Z" transform="translate(39.16 -398.18)"/><path class="cls-3" d="M1144,1100.59c-.36.06-.29.49-.09.69a1.93,1.93,0,0,0,.6.32l.74.35c.28.13.53-.29.24-.42l-.74-.35-.36-.17-.14-.08c0-.09-.08,0-.12.13.3-.06.17-.53-.13-.49Z" transform="translate(39.16 -398.18)"/><path class="cls-3" d="M1157.2,1095.6a13.78,13.78,0,0,0,3-2.66c.2-.24-.14-.59-.35-.35a13.11,13.11,0,0,1-2.92,2.59c-.27.17,0,.59.24.42Z" transform="translate(39.16 -398.18)"/><path class="cls-3" d="M1193.23,1066.78l0-.1a.24.24,0,0,0,0-.29c-.45-.49-1.09.38-1.41.65l-2.64,2.28c-.24.2.11.54.34.34l3.37-2.92,0-.3,0,.1c-.13.28.29.53.42.25Z" transform="translate(39.16 -398.18)"/><path class="cls-3" d="M1185.67,1070.13v4.71a.25.25,0,0,0,.49,0v-4.71a.25.25,0,1,0-.49,0Z" transform="translate(39.16 -398.18)"/><path class="cls-3" d="M1189.76,1064.58l2,1.23c.27.17.51-.25.25-.42l-2-1.23C1189.74,1064,1189.49,1064.42,1189.76,1064.58Z" transform="translate(39.16 -398.18)"/><path class="cls-3" d="M1193.09,1066.44l-2.44,5c-.14.28.28.53.42.25l2.44-5C1193.65,1066.4,1193.23,1066.16,1193.09,1066.44Z" transform="translate(39.16 -398.18)"/><path class="cls-3" d="M1190.38,1072.28l-.49,1c-.13.28.29.53.42.24l.49-1c.13-.28-.29-.53-.42-.24Z" transform="translate(39.16 -398.18)"/><path class="cls-3" d="M1189.54,1074.07a53.29,53.29,0,0,0-2.21,4.88c-.12.29.35.42.49.13q1-2.43,2.16-4.76c.14-.28-.28-.53-.42-.25Z" transform="translate(39.16 -398.18)"/><path class="cls-3" d="M1186.89,1080.26l-2,2a.23.23,0,0,0,0,.34.24.24,0,0,0,.35,0l2-2a.24.24,0,0,0,0-.35.26.26,0,0,0-.35,0Z" transform="translate(39.16 -398.18)"/><path class="cls-3" d="M1180.49,1085.91l1.14.27a.25.25,0,0,0,.13-.49l-1.14-.27a.25.25,0,0,0-.13.49Z" transform="translate(39.16 -398.18)"/><path class="cls-3" d="M1177.53,1084.45a3.36,3.36,0,0,0,1.51,2,.25.25,0,0,0,.34-.09.24.24,0,0,0-.09-.33,2.77,2.77,0,0,1-1.28-1.66.25.25,0,0,0-.31-.18.25.25,0,0,0-.18.31Z" transform="translate(39.16 -398.18)"/><path class="cls-3" d="M1190.25,1064.05c-.31,0-.88-.21-1.17-.06a2.32,2.32,0,0,0-.64.72,5.88,5.88,0,0,0-1,2,.25.25,0,0,0,.18.31.27.27,0,0,0,.31-.18,5.82,5.82,0,0,1,.71-1.66,2.74,2.74,0,0,1,.55-.68c.25-.18.74,0,1,0s.31-.45,0-.49Z" transform="translate(39.16 -398.18)"/><path class="cls-3" d="M1183.37,1088.41l2.68,1.76c.26.18.49-.25.24-.42l-2.67-1.77c-.26-.18-.49.24-.25.42Z" transform="translate(39.16 -398.18)"/><path class="cls-3" d="M1188.23,1091.15l1.54,2.53a.24.24,0,0,0,.33.09.25.25,0,0,0,.09-.34h0l-1.54-2.53C1188.48,1090.63,1188.06,1090.88,1188.23,1091.15Z" transform="translate(39.16 -398.18)"/><path class="cls-3" d="M1189.8,1092l.86,1.17c.19.25.61,0,.42-.25l-.83-1.17c-.19-.25-.61,0-.43.25Z" transform="translate(39.16 -398.18)"/><path class="cls-3" d="M1190.11,1092.12l6.61,2.8c.29.12.54-.3.25-.42l-6.62-2.8C1190.07,1091.58,1189.82,1092,1190.11,1092.12Z" transform="translate(39.16 -398.18)"/><path class="cls-3" d="M1202.44,1084.27l1.19.07c.44,0,1,0,1.32.33s.33,1,.6,1.46a.24.24,0,0,0,.42-.24c-.33-.57-.31-1.39-.88-1.8a1.53,1.53,0,0,0-.81-.23c-.61,0-1.22-.06-1.84-.09a.24.24,0,0,0,0,.48Z" transform="translate(39.16 -398.18)"/><path class="cls-3" d="M1205.79,1086.86l-.13.76c-.05.31.42.44.49.13l.13-.76c0-.31-.42-.44-.49-.13Z" transform="translate(39.16 -398.18)"/><path class="cls-3" d="M1205.23,1089.39a14.61,14.61,0,0,0-.45,2.63c0,.31.46.31.48,0a14.07,14.07,0,0,1,.44-2.5.25.25,0,0,0-.17-.31.26.26,0,0,0-.31.18h0Z" transform="translate(39.16 -398.18)"/><path class="cls-3" d="M1205.49,1085.78l-3.46,2.77c-.24.2.1.54.35.35l3.46-2.77C1206.08,1085.93,1205.73,1085.59,1205.49,1085.78Z" transform="translate(39.16 -398.18)"/><path class="cls-3" d="M1205.79,1087.24l-1.92,1.4c-.25.18,0,.6.25.42l1.91-1.4C1206.28,1087.48,1206,1087.06,1205.79,1087.24Z" transform="translate(39.16 -398.18)"/><path class="cls-3" d="M1204.82,1095.5a4.07,4.07,0,0,1-2.16-.17c-.3-.1-.42.37-.13.49a4.5,4.5,0,0,0,2.44.16c.31-.06.18-.53-.13-.49Z" transform="translate(39.16 -398.18)"/><path class="cls-3" d="M1199.54,1094.39l1,.65c.26.18.49-.25.24-.42l-1-.65c-.27-.17-.49.25-.25.42Z" transform="translate(39.16 -398.18)"/><path class="cls-3" d="M1203,1083.68a1.59,1.59,0,0,0-1.81.57,3.75,3.75,0,0,0-.55,2.32.25.25,0,0,0,.49,0c0-.94.29-3,1.74-2.44.29.11.42-.36.13-.49Z" transform="translate(39.16 -398.18)"/><path class="cls-3" d="M1200.46,1087.73l-.14.77c0,.31.42.44.49.12l.13-.76c0-.3-.42-.44-.49-.13Z" transform="translate(39.16 -398.18)"/><path class="cls-3" d="M1204.84,1097.2a5,5,0,0,1-.13,4.26c-.14.28.28.53.42.25a5.46,5.46,0,0,0,.18-4.64c-.12-.28-.6-.16-.49.13Z" transform="translate(39.16 -398.18)"/><path class="cls-3" d="M1202.41,1102.18l-1.92-.64c-.3-.11-.43.37-.13.48l1.91.65c.3.1.42-.37.13-.49Z" transform="translate(39.16 -398.18)"/><path class="cls-3" d="M1197.31,1100.37a4.59,4.59,0,0,1,2.17,1.5c.2.24.55-.11.35-.35a5.08,5.08,0,0,0-2.38-1.62c-.31-.09-.43.38-.14.49Z" transform="translate(39.16 -398.18)"/><path class="cls-3" d="M1190.31,1108.24a18.24,18.24,0,0,1-2.72,1.91.24.24,0,0,0-.08.34.24.24,0,0,0,.33.08,19.6,19.6,0,0,0,2.82-2c.24-.2-.11-.55-.35-.35Z" transform="translate(39.16 -398.18)"/><path class="cls-3" d="M1181.12,1114.32a7.55,7.55,0,0,0-2,2.77c-.13.28.3.53.42.24a7.35,7.35,0,0,1,2-2.67c.23-.2-.11-.55-.35-.34Z" transform="translate(39.16 -398.18)"/><path class="cls-1" d="M1162.74,1081.64l.06,1.59a.24.24,0,1,0,.48,0l0-1.79Z" transform="translate(39.16 -398.18)"/><path class="cls-1" d="M1162.94,1081.88a1.18,1.18,0,0,0,.16-.38l-1.14.46s0,.09,0,.13a.25.25,0,0,0,.25.25h.06l.19,0a2,2,0,0,0,.46,1.13c.19.24.53-.11.34-.35A1.49,1.49,0,0,1,1162.94,1081.88Z" transform="translate(39.16 -398.18)"/><path class="cls-1" d="M1171.33,1082.92c-.27-.29-.22-.27-.61-.34a.25.25,0,0,0-.3.19.21.21,0,0,0,0,.11,8.66,8.66,0,0,0,1.42,2.81c.19.24.6,0,.42-.25l-2-3-.42.24,1.74,2.69c.14.22.56.09.45-.19a14.08,14.08,0,0,0-1.73-3.13l-.42.25a6.85,6.85,0,0,0,1.54,1.5c.21.15.43-.14.33-.34a2.72,2.72,0,0,0-1.56-1.4c-.25-.1-.42.32-.19.45a9.65,9.65,0,0,1,2,1.43c.23.21.57-.13.35-.34l-1.75-1.67c-.23-.22-.57.12-.35.34a22.15,22.15,0,0,1,3.9,5.18l.39-.3q-1.68-2-3.41-4l-.35.35,3.9,4.33.35-.35a55.73,55.73,0,0,1-4-4.17c-.18-.21-.55.08-.38.3l3.18,4.14.38-.29-3.83-4c-.22-.23-.54.1-.34.34q1.89,2.26,3.9,4.42l.3-.38a22.54,22.54,0,0,1-3.55-3.28c-.21-.24-.55.11-.35.35a42.49,42.49,0,0,0,3.14,3.45l.29-.38a24.85,24.85,0,0,1-2.55-2c-.2-.18-.55.06-.39.3a9,9,0,0,0,2.66,2.52.25.25,0,0,0,.33-.11.23.23,0,0,0,0-.27c-.7-.68-1.41-1.33-2.15-1.95a.24.24,0,0,0-.34,0,.27.27,0,0,0,0,.3c.56.6,2.74,3,3.59,2a.26.26,0,0,0,0-.3,2.16,2.16,0,0,0-2.31-.93.25.25,0,0,0-.17.31.21.21,0,0,0,.06.1c.63.59,2.4,1.91,3.17.93.2-.24-.15-.59-.34-.35s-1.32-.09-1.55-.22a5,5,0,0,1-.93-.71l-.12.41c.52-.22.87-.13,1.07.27a7.48,7.48,0,0,1-.69-.45,10.88,10.88,0,0,1-1.46-1.33l-.34.34c.73.64,1.46,1.29,2.15,2l.29-.38a8.28,8.28,0,0,1-2.49-2.37l-.38.29a22.45,22.45,0,0,0,2.66,2.09c.23.16.49-.19.29-.38q-1.65-1.67-3.13-3.46l-.35.35a23.64,23.64,0,0,0,3.65,3.35c.23.17.49-.19.3-.38-1.35-1.47-2.64-2.93-3.91-4.42l-.34.34,3.83,4c.19.2.56-.07.39-.29l-3.17-4.14-.38.29q1.88,2.19,4,4.18a.25.25,0,0,0,.34,0,.24.24,0,0,0,0-.35l-3.9-4.33c-.21-.23-.55.11-.35.35q1.71,1.95,3.42,4c.18.22.49-.06.38-.29a22.68,22.68,0,0,0-4-5.27l-.35.34,1.77,1.66.34-.34a9.9,9.9,0,0,0-2.12-1.52l-.19.45a2.24,2.24,0,0,1,1.24,1.18l.34-.31a5.51,5.51,0,0,1-1.36-1.32c-.19-.25-.61,0-.43.24a12.59,12.59,0,0,1,1.68,3l.45-.19-1.75-2.72c-.17-.27-.59,0-.42.24l1.95,3.06.42-.25a8.18,8.18,0,0,1-1.38-2.69l-.29.3.39.22c.22.23.56-.11.35-.35Z" transform="translate(39.16 -398.18)"/><path class="cls-1" d="M1158.62,1095.92a8.41,8.41,0,0,0,2.58-.94.25.25,0,0,0-.19-.45c-4.11.85-7.78,3-11.82,4.06l.27.36c1.1-1.52,3.64-2,5.37-2.44s3.59-.77,5.4-1.08l-.12-.48q-4.74,1.46-9.33,3.35l.19.45a38.53,38.53,0,0,1,9.52-4.19l-.19-.44-5.47,2.64a30.75,30.75,0,0,1-5.46,2.39l.3.3c.34-1,2-1.65,2.93-2.06a24.17,24.17,0,0,1,3.28-1.27c1.95-.62,4-1.06,6-1.5l-.13-.49a35.41,35.41,0,0,0-4.84,1.55c-.72.29-4.49,2.31-5,1.78l0,.39a106.46,106.46,0,0,1,10.63-4.31l-.19-.45a67.7,67.7,0,0,1-9.75,4.13l.18.45a31.87,31.87,0,0,1,10.43-4.77l-.19-.44a38.76,38.76,0,0,1-11.43,3.85l.13.49c3.41-1.18,6.83-2.41,10.24-3.65l-.13-.49-8.89,3.57.18.45a22.71,22.71,0,0,1,5.14-2.4c1.42-.46,3.09-.53,4.3-1.47a.24.24,0,0,0,0-.34.24.24,0,0,0-.3-.07q-4.82,2.07-9.83,3.67l.24.4c2.44-2.8,6.67-2.11,9.71-3.9.22-.13.07-.55-.19-.44q-5.85,2.2-11.52,4.91l.25.42a27.88,27.88,0,0,1,11.29-4.49c.31,0,.18-.52-.13-.49a28.19,28.19,0,0,0-11.41,4.54.24.24,0,0,0,0,.34.25.25,0,0,0,.3.08q5.6-2.67,11.4-4.88l-.19-.44c-3.09,1.8-7.32,1.09-9.81,4-.14.17,0,.49.24.4a104.41,104.41,0,0,0,10-3.72l-.25-.42c-1.34,1-3.41,1.11-5,1.68a22.58,22.58,0,0,0-4.44,2.18c-.23.14-.08.55.18.44l8.9-3.58c.29-.11.17-.58-.13-.48-3.41,1.24-6.8,2.47-10.24,3.64a.24.24,0,0,0-.18.31.25.25,0,0,0,.3.18,39.3,39.3,0,0,0,11.55-3.9.25.25,0,0,0-.19-.45,31.92,31.92,0,0,0-10.54,4.82.23.23,0,0,0-.07.33.24.24,0,0,0,.26.11,68.64,68.64,0,0,0,9.89-4.18c.24-.11.07-.54-.19-.44a107.11,107.11,0,0,0-10.73,4.36.25.25,0,0,0-.09.33l0,0c.79.87,2.9-.6,3.65-.92a40,40,0,0,1,6.63-2.29c.31-.07.18-.53-.13-.49a54,54,0,0,0-7.61,2.14,23.21,23.21,0,0,0-3.11,1.46c-.76.43-1.55.82-1.84,1.68a.24.24,0,0,0,.18.3.24.24,0,0,0,.12,0,29.93,29.93,0,0,0,5.13-2.23l5.91-2.85c.26-.12.08-.52-.18-.45a39.29,39.29,0,0,0-9.63,4.25c-.22.14-.08.55.19.45q4.59-1.89,9.32-3.36a.25.25,0,1,0-.12-.48,56.42,56.42,0,0,0-6.69,1.42c-1.53.49-3.38,1-4.39,2.31-.13.18.09.41.28.36,4-1,7.71-3.21,11.82-4l-.16-.43a8.32,8.32,0,0,1-2.47.9c-.3.06-.17.53.13.49Z" transform="translate(39.16 -398.18)"/><path class="cls-1" d="M1154,1095.57l-2.32.56.19.45a44,44,0,0,1,11.51-4.18.25.25,0,0,0,.17-.31.24.24,0,0,0-.31-.18,44.25,44.25,0,0,0-11.62,4.23.23.23,0,0,0-.08.33.24.24,0,0,0,.27.11l2.31-.56c.3-.07.17-.54-.14-.48Z" transform="translate(39.16 -398.18)"/><path class="cls-1" d="M1154.15,1095.58a31.77,31.77,0,0,1,8.72-2.77l-.06-.49c-1.62.49-3.34.17-5,.59a15.47,15.47,0,0,0-4.17,2l.24.42c2.56-1.86,6.23-2.12,9.25-2.75l-.13-.49c-1.81.52-4.59-.49-5.52,1.76-.12.29.35.41.49.13.78-1.88,3.62-1,5.18-1.41a.25.25,0,0,0,.17-.31.24.24,0,0,0-.31-.18c-3.06.65-6.75.9-9.35,2.8-.25.18,0,.59.24.42a14.18,14.18,0,0,1,4.43-2c1.52-.31,3.07,0,4.58-.49a.25.25,0,0,0-.07-.49,32.67,32.67,0,0,0-9,2.84c-.29.12,0,.54.24.42Z" transform="translate(39.16 -398.18)"/><path class="cls-1" d="M1184.45,1079.86l-3.14,4.05.38.3a26.62,26.62,0,0,1,4-5.14l-.38-.29a43.41,43.41,0,0,0-4.09,5.93.25.25,0,0,0,.08.34.26.26,0,0,0,.3,0,69.53,69.53,0,0,0,5.59-6.41c.17-.21-.19-.48-.38-.29a40.47,40.47,0,0,0-5,6.2.24.24,0,0,0,.1.33.26.26,0,0,0,.17,0c1-.32,1.62-1.72,2.2-2.49l3-4c.17-.22-.22-.51-.39-.29A44.88,44.88,0,0,0,1183,1084c-.13.23.2.52.38.3a48.33,48.33,0,0,0,4.62-6.73c.13-.23-.2-.52-.38-.3a39.14,39.14,0,0,0-3.82,6.17.24.24,0,0,0,.09.33.24.24,0,0,0,.33-.08q2-3.18,3.9-6.4l-.42-.24q-1.73,3.38-3.72,6.59l.43.25c1.33-2.28,2.62-4.6,3.85-7a.26.26,0,0,0-.12-.33.26.26,0,0,0-.3.08l-4.81,8.32a.25.25,0,0,0,.09.34.24.24,0,0,0,.33-.09h0l4.82-8.32-.42-.25c-1.23,2.35-2.52,4.67-3.85,7a.25.25,0,0,0,.08.34.27.27,0,0,0,.34-.09q2-3.23,3.71-6.6a.24.24,0,0,0-.42-.24q-1.92,3.21-3.9,6.39l.42.25a37.84,37.84,0,0,1,3.75-6.07l-.38-.29a48.35,48.35,0,0,1-4.55,6.63l.38.29a44.6,44.6,0,0,1,3.78-5.82l-.38-.29-2.29,3-1.14,1.52c-.35.46-.94,1.52-1.47,1.71l.28.36a40.27,40.27,0,0,1,4.94-6.11l-.38-.29a67.44,67.44,0,0,1-5.52,6.3l.39.3a43.86,43.86,0,0,1,4.1-5.94c.16-.22-.2-.49-.39-.29a27.61,27.61,0,0,0-4.09,5.23c-.13.23.21.52.39.29l3.14-4c.19-.25-.16-.6-.35-.35Z" transform="translate(39.16 -398.18)"/><path class="cls-1" d="M1194.09,1105.68a45.79,45.79,0,0,0-10.41,5.64l.3.38a69.07,69.07,0,0,1,8.57-5.82c.28-.15,0-.55-.24-.42a70.79,70.79,0,0,0-11.19,6.25c-.25.18,0,.59.24.42a96.05,96.05,0,0,1,10.8-5.72l-.25-.42a61,61,0,0,0-9.94,5.85c-.25.19,0,.58.24.42l10.8-6c.27-.15,0-.57-.25-.42a37.16,37.16,0,0,0-8.55,5.91c-.19.19.06.54.29.38l8.3-5.59a.24.24,0,0,0,0-.34.24.24,0,0,0-.3-.08,41.76,41.76,0,0,0-7.74,5.3c-.21.18.06.53.29.39l9.06-5.86a.24.24,0,0,0,0-.34.25.25,0,0,0-.3-.08,33.9,33.9,0,0,0-8.12,6.15c-.18.19.06.56.29.38l7.47-5.68a.24.24,0,0,0-.25-.42,37.79,37.79,0,0,0-7.55,6.08c-.23.23.1.54.34.35l7.46-5.89c.22-.17-.07-.53-.3-.38a45.21,45.21,0,0,0-6.63,5.06c-.23.22.11.54.35.34,1.71-1.4,3.45-2.79,5.2-4.15l-.35-.34c-1.08.84-2.13,1.73-3.15,2.65-.22.21.12.55.35.35,1-.93,2.06-1.81,3.15-2.66.25-.19-.1-.53-.35-.34-1.75,1.36-3.49,2.74-5.2,4.15l.35.34a43.32,43.32,0,0,1,6.53-5l-.3-.38-7.45,5.88.34.35a37.18,37.18,0,0,1,7.46-6l-.25-.42-7.45,5.67.3.38a33.34,33.34,0,0,1,8-6.08l-.25-.42-9.06,5.86.3.38a40.76,40.76,0,0,1,7.65-5.23l-.25-.42-8.29,5.6.29.38a37.49,37.49,0,0,1,8.46-5.86l-.25-.41-10.83,6,.25.42a61.12,61.12,0,0,1,9.94-5.85c.29-.15,0-.55-.25-.42a95.92,95.92,0,0,0-10.79,5.72l.25.42a71.14,71.14,0,0,1,11.19-6.25l-.25-.42a68.6,68.6,0,0,0-8.67,5.9c-.21.17.07.54.3.38a45.33,45.33,0,0,1,10.28-5.59c.29-.11.17-.58-.13-.49Z" transform="translate(39.16 -398.18)"/><path class="cls-1" d="M1187.89,1092.17a3.57,3.57,0,0,0-1-.21.24.24,0,0,0-.12.45l4.56,2.54.24-.42-4.14-1.91-.19.45a33.5,33.5,0,0,1,5.56,2.52.24.24,0,0,0,.33-.09.23.23,0,0,0-.09-.33c-1.91-1.43-4.31-1.8-6.4-2.89l-.24.42c2.09,1.07,4.12,2.25,6.11,3.52.26.17.49-.25.24-.42a30.39,30.39,0,0,0-5.29-2.49l-.19.44c2,.55,3.63,1.92,5.53,2.74a.24.24,0,0,0,.29-.38c-1.82-1.81-4.17-2.85-6.24-4.3l-.25.42,6.34,3.41c.23.13.51-.19.3-.38-1.77-1.56-4.14-2.07-6-3.54l-.3.38a54.81,54.81,0,0,0,5.42,2.85.26.26,0,0,0,.33-.09.25.25,0,0,0-.08-.33c-1.74-1.28-4-1.71-5.59-3.15l-.29.38c2,1.11,4,2.13,6.16,3a.23.23,0,0,0,.33-.09.24.24,0,0,0-.08-.33c-1.74-1.16-3.88-1.54-5.52-2.84l-.3.38,5.52,2.77.25-.42a43.23,43.23,0,0,1-5.8-3l-.25.42,5.31,2.59c.28.14.53-.27.25-.42l-5.37-2.85-.24.43,5.75,2.78.25-.42c-1-.42-2-.85-2.9-1.29a6.76,6.76,0,0,1-2.54-1.46l-.3.38,6.17,2.82.19-.45a39.65,39.65,0,0,1-5.8-2.6l-.25.42,5.27,2.44.19-.44q-2.71-1.11-5.37-2.41l-.24.43c1.15.48,2.28,1,3.41,1.56l.24-.42c-1.43-.65-2.82-1.38-4.18-2.17l-.25.42,4.2,2.15.25-.43a30.48,30.48,0,0,1-3.81-2.07l-.24.42,3.79,2.07c.27.15.52-.27.24-.42l-4-2.24a.25.25,0,0,0-.33.09.25.25,0,0,0,.09.34c1.23.75,2.5,1.45,3.79,2.1.28.14.52-.28.25-.42l-3.82-1.95c-.28-.14-.53.28-.25.42l3.82,2,.25-.42c-1.3-.65-2.56-1.35-3.8-2.11l-.24.43,4,2.23.24-.42-3.82-2a.24.24,0,0,0-.33.09.23.23,0,0,0,.09.33,32.56,32.56,0,0,0,3.8,2.08c.28.12.53-.28.25-.43l-4.2-2.14a.24.24,0,0,0-.25.42c1.37.78,2.76,1.51,4.19,2.17.28.13.53-.28.24-.42-1.11-.56-2.25-1.08-3.41-1.57-.28-.12-.53.28-.25.42q2.7,1.34,5.47,2.44c.26.11.44-.33.19-.44l-5.27-2.44c-.28-.14-.53.26-.25.42a40.16,40.16,0,0,0,5.92,2.64c.26.1.44-.33.19-.44l-6.17-2.82a.25.25,0,0,0-.3.39,6.12,6.12,0,0,0,2.24,1.33c1.09.51,2.19,1,3.3,1.46.29.12.53-.28.25-.42l-5.75-2.78c-.29-.14-.53.27-.25.42l5.36,2.85.25-.42-5.26-2.57a.24.24,0,0,0-.32.12.24.24,0,0,0,.07.3,43,43,0,0,0,5.82,3.06c.28.12.53-.28.25-.42l-5.52-2.77c-.23-.11-.53.2-.3.38,1.69,1.33,3.85,1.73,5.62,2.93l.25-.42q-3.17-1.38-6.16-3a.25.25,0,0,0-.3.38c1.66,1.47,3.91,1.92,5.68,3.23l.24-.42a55.79,55.79,0,0,1-5.41-2.85c-.23-.13-.52.2-.3.38,1.82,1.47,4.21,2,6,3.54l.3-.38-6.35-3.41a.24.24,0,0,0-.24.42h0c2,1.44,4.36,2.44,6.14,4.23l.3-.39c-2-.83-3.59-2.23-5.64-2.78-.26-.07-.45.33-.19.44a31.65,31.65,0,0,1,5.3,2.49l.24-.42q-3-1.9-6.11-3.52c-.28-.14-.52.28-.24.42,2.08,1.09,4.49,1.47,6.4,2.89l.24-.42a33.93,33.93,0,0,0-5.69-2.59c-.26-.08-.45.33-.19.45l4.15,1.9c.28.12.53-.27.24-.42L1187,1092l-.12.45a2.45,2.45,0,0,1,.88.2c.3.1.43-.37.13-.49Z" transform="translate(39.16 -398.18)"/><path class="cls-2" d="M1187.32,1089.65a4.78,4.78,0,0,0,2,1.4c.25.11.44-.33.18-.44l-1.88-.8c-.23-.1-.53.19-.3.38a11.57,11.57,0,0,0,2.23,1.46c.28.14.53-.26.25-.42l-1.89-1.06a.25.25,0,0,0-.32.12.24.24,0,0,0,.08.3l2,1.23.24-.42c-.41-.22-.82-.43-1.25-.62-.28-.13-.53.25-.25.42l1,.57.19-.44a2.18,2.18,0,0,1-.69-.41l-.3.38.38.24.25-.42-1.6-.84-.25.42,1.16.52.25-.42a12.86,12.86,0,0,1-2-1l-.13.45a1.7,1.7,0,0,0,1.66-1.19c.1-.3-.37-.43-.49-.13a1.22,1.22,0,0,1-1.18.84.24.24,0,0,0-.25.24.24.24,0,0,0,.12.21,12.86,12.86,0,0,0,2,1c.28.12.54-.29.25-.42l-1.16-.52c-.28-.12-.53.28-.25.42l1.6.84a.26.26,0,0,0,.33-.12.26.26,0,0,0-.08-.3l-.38-.24a.25.25,0,0,0-.3.38,3.09,3.09,0,0,0,.91.54c.26.09.42-.31.19-.45l-1-.57-.24.42c.42.19.84.4,1.25.62a.25.25,0,0,0,.34-.08.25.25,0,0,0-.09-.34l-2-1.23-.24.42,1.89,1,.25-.42a10.6,10.6,0,0,1-2.13-1.37l-.3.39,1.89.8.19-.44a4.67,4.67,0,0,1-1.75-1.29c-.2-.24-.54.11-.34.35Z" transform="translate(39.16 -398.18)"/><path class="cls-1" d="M1175.12,1085.65c-.24-.25-2-2-2.25-1-.11.39.43.83.65,1.06a6.49,6.49,0,0,0,2,1.29c.19.08.49-.12.34-.34a7.62,7.62,0,0,0-2.59-2.23.25.25,0,0,0-.29.39,9.71,9.71,0,0,0,4.08,2.61.26.26,0,0,0,.31-.19.25.25,0,0,0-.18-.3,9.26,9.26,0,0,1-3.87-2.49l-.29.39a7,7,0,0,1,2.41,2l.33-.33a5.85,5.85,0,0,1-2-1.3c-.29-.29-.41-.38,0-.1a4.94,4.94,0,0,1,1,.86c.22.22.56-.12.35-.35Z" transform="translate(39.16 -398.18)"/><path class="cls-1" d="M1167.07,1080.1v0h0l.05,0a.27.27,0,0,0,.06-.36l-.75.35a2.64,2.64,0,0,0-.61,1.37.2.2,0,0,0,0,.11,2.61,2.61,0,0,0-.06.27.24.24,0,0,0,.18.31h.1s0,0,0,.08c0,.28.42.33.49.07,0,0,0,0,0-.07h0a.68.68,0,0,1,0-.14,4.67,4.67,0,0,1,.18-.64,5,5,0,0,1,.22-.65.25.25,0,0,0,.21-.06h0l0,0a.25.25,0,0,0,.07-.24A.29.29,0,0,0,1167.07,1080.1Z" transform="translate(39.16 -398.18)"/><path class="cls-1" d="M1201.09,1089.6l.31-2.18c0-.3-.41-.44-.49-.12l-.28,1.54.49.14a14.77,14.77,0,0,0,.22-2.19h-.49a5.58,5.58,0,0,1-.31,2.18l.49.06a17.82,17.82,0,0,1,.78-3.53l-.49-.07a8.15,8.15,0,0,1-.46,2l.49.06a5.42,5.42,0,0,1,.11-1.2l.09-.3a1.12,1.12,0,0,1,.9-.89c.11.3.58.17.49-.13a.73.73,0,0,0-.92-.48.7.7,0,0,0-.32.19c-.71.59-.83,2-.83,2.81a.26.26,0,0,0,.21.28.24.24,0,0,0,.28-.21,8.22,8.22,0,0,0,.49-2.14c0-.28-.39-.31-.49-.06a17.7,17.7,0,0,0-.79,3.66c0,.29.39.31.49.07a5.86,5.86,0,0,0,.32-2.31.25.25,0,0,0-.49,0,12.71,12.71,0,0,1-.2,2c0,.31.41.44.49.14l.28-1.56-.49-.12-.3,2.16c0,.31.42.44.49.14Z" transform="translate(39.16 -398.18)"/><path class="cls-1" d="M1180.86,1083.94a4.06,4.06,0,0,0-.85.13.26.26,0,0,0-.17.31,1.91,1.91,0,0,0,2.24,1.51h.06a.25.25,0,0,0,.17-.3.33.33,0,0,0-.11-.15,5.61,5.61,0,0,0-2.48-.58c-.27,0-.29.33-.12.46a3.5,3.5,0,0,0,1.27.62,2,2,0,0,0,1.07.08.39.39,0,0,0,.24-.49h0c-.11-.36-.59-.45-.9-.53s-1.8-.45-1.46.38c.11.29.55.53.81.67a3.53,3.53,0,0,0,1.38.39.25.25,0,0,0,.25-.24.29.29,0,0,0-.07-.18,2.51,2.51,0,0,0-2-.69.25.25,0,0,0-.25.25.28.28,0,0,0,0,.12,1.4,1.4,0,0,0,1.59.6.24.24,0,0,0,.24-.24.24.24,0,0,0-.24-.24,3.48,3.48,0,0,0-1.56-.24c-.19,0-.35.27-.17.42a2.17,2.17,0,0,0,1.57.48.24.24,0,0,0,.12-.45,3.07,3.07,0,0,0-1.37-.33c-.23,0-.35.35-.13.45a3.2,3.2,0,0,0,1.64.29c.21,0,.36-.34.12-.45a3.12,3.12,0,0,0-1.95-.24.24.24,0,0,0-.17.3.21.21,0,0,0,.06.1,2.16,2.16,0,0,0,2.06.56.25.25,0,0,0,.2-.29.22.22,0,0,0-.09-.14,3.58,3.58,0,0,0-2.11-.39.24.24,0,0,0-.12.45,2.83,2.83,0,0,0,1.78.46.24.24,0,0,0,.28-.21.25.25,0,0,0-.21-.28h0a2.1,2.1,0,0,0-1.46-.11.42.42,0,0,0-.21.57.33.33,0,0,0,.1.14c.48.54,2,.49,1.65-.49a.25.25,0,0,0-.49.13c.13.4-1.26,0-.49.07a3,3,0,0,1,.73.17l.06-.49a2.37,2.37,0,0,1-1.53-.39l-.12.45a3.21,3.21,0,0,1,1.85.32l.06-.44a1.65,1.65,0,0,1-1.58-.43l-.11.41a2.54,2.54,0,0,1,1.56.19l.12-.46a2.67,2.67,0,0,1-1.39-.22l-.12.46a2.47,2.47,0,0,1,1.13.26l.12-.45a1.71,1.71,0,0,1-1.23-.36l-.17.42a3.32,3.32,0,0,1,1.43.21v-.48a.93.93,0,0,1-1-.39l-.21.37a2,2,0,0,1,1.59.55l.17-.42a2.89,2.89,0,0,1-1.31-.42,2.32,2.32,0,0,1-.4-.3l0,.08a3.23,3.23,0,0,1,.81.16c.08,0,.77.11.49.09a2.84,2.84,0,0,1-.66-.08,3.17,3.17,0,0,1-1.16-.58l-.12.46a4.81,4.81,0,0,1,2.23.49l.06-.45a1.42,1.42,0,0,1-1.68-1.1l0-.06-.17.3a3,3,0,0,1,.72-.12.25.25,0,0,0,0-.49Z" transform="translate(39.16 -398.18)"/><path class="cls-1" d="M1179.11,1083.83c-.61.36-.45,1.32-.37,1.91a2.22,2.22,0,0,0,1.21,1.83.25.25,0,0,0,.29-.39,3.26,3.26,0,0,1-.92-2.83l-.49-.06c-.07.74,0,3.51,1.21,3.27.17,0,.2-.23.15-.36-.38-.85-1.51-2.52-.57-3.29l-.41-.24a4.61,4.61,0,0,0-.18,2.6,2.19,2.19,0,0,0,.4.79c.09.12.62.46.64.58,0,.31.52.32.49,0-.08-.61-.56-.54-.88-1.08a3.61,3.61,0,0,1,0-2.72.25.25,0,0,0-.17-.3.24.24,0,0,0-.24.07c-1.21,1,0,2.81.49,3.9l.14-.36c-.58.11-.62-2.48-.59-2.8a.24.24,0,0,0-.48-.06,3.77,3.77,0,0,0,1,3.3l.3-.38a1.73,1.73,0,0,1-1-1.47c0-.33-.22-1.25.11-1.46a.24.24,0,1,0-.24-.42Z" transform="translate(39.16 -398.18)"/><path class="cls-1" d="M1173.07,1088.54a11.87,11.87,0,0,1,1.72,3.52l.49-.12a12.86,12.86,0,0,0-1.73-3.91c-.19-.21-.52.06-.39.3l.5.87a.24.24,0,0,0,.33.08.25.25,0,0,0,.09-.33l-.49-.86-.38.29a12.1,12.1,0,0,1,1.6,3.68c.11.29.57.18.49-.12a12.2,12.2,0,0,0-1.78-3.64c-.18-.26-.6,0-.42.24Z" transform="translate(39.16 -398.18)"/><path class="cls-1" d="M1175.86,1091.4l-.24-.16v.35l1.66-1.56a.25.25,0,0,0,0-.34l0,0c-.82-.48-1.29,1.5-1.46,2a.24.24,0,0,0,.44.18,6.15,6.15,0,0,0,.77-2.47.26.26,0,0,0-.25-.25c-.49,0-.55.52-.66.89a9.41,9.41,0,0,0-.32,1.76.25.25,0,0,0,.46.12,17.16,17.16,0,0,0,1.21-2.38c.11-.28-.36-.41-.49-.12a16.23,16.23,0,0,1-1.13,2.29l.46.13a9,9,0,0,1,.17-1.14c0-.09.22-1,.32-1l-.24-.25a5.45,5.45,0,0,1-.7,2.23l.44.19a9.8,9.8,0,0,1,.73-1.69l0-.38-1.66,1.55a.26.26,0,0,0,0,.35.93.93,0,0,0,.49.28.25.25,0,1,0,.13-.49Z" transform="translate(39.16 -398.18)"/><path class="cls-1" d="M1172.68,1090.37c.22-.07.14.09.33-.21a1.64,1.64,0,0,0,.15-.49,2.27,2.27,0,0,0,0-.9c-.16-.9-.85-1.57-1.11-2.44l-.45.18a36.69,36.69,0,0,1,1.62,4l.49-.13a12.75,12.75,0,0,0-2.52-4,.24.24,0,0,0-.34,0,.24.24,0,0,0,0,.28c.91,1.55,1.74,3.15,2.49,4.78.13.29.55,0,.43-.24-.75-1.64-1.59-3.23-2.5-4.79l-.39.3a12.23,12.23,0,0,1,2.4,3.81c.11.28.57.17.49-.13a42.69,42.69,0,0,0-1.71-4.13c-.12-.26-.52-.07-.45.19.29,1,1.24,1.89,1.09,3-.07.44-.6,1-.23,1.4a.27.27,0,0,0,.24.06l.11,0a.25.25,0,1,0-.14-.48Z" transform="translate(39.16 -398.18)"/><path class="cls-1" d="M1198.09,1102.33a1.82,1.82,0,0,1,1.83.34l.17-.42a1.46,1.46,0,0,1-1.21-.56l-.24.41a20,20,0,0,1,2,.56c.29.1.42-.37.13-.49a20,20,0,0,0-2-.56.25.25,0,0,0-.3.18.31.31,0,0,0,.06.23,1.92,1.92,0,0,0,1.56.7c.2,0,.35-.27.18-.41a2.32,2.32,0,0,0-2.31-.49.25.25,0,0,0,.13.49Z" transform="translate(39.16 -398.18)"/><path class="cls-1" d="M1201.34,1102.72a10.13,10.13,0,0,1-1.41-2.48c-.11-.29-.58-.16-.48.13a10.4,10.4,0,0,0,1.46,2.6c.19.25.61,0,.42-.25Z" transform="translate(39.16 -398.18)"/><path class="cls-1" d="M1198.66,1102.15a8,8,0,0,1,1.55-.13.25.25,0,0,0,0-.49,3.7,3.7,0,0,1-1.4-.21l-.07.49h.25a.25.25,0,1,0,0-.49h-.25c-.29,0-.31.39-.07.49a4.05,4.05,0,0,0,1.54.22v-.48a14.5,14.5,0,0,0-1.47.09c-.29.06-.53.21-.54.53s.48.31.48,0Z" transform="translate(39.16 -398.18)"/><path class="cls-1" d="M1200.81,1093.79a.25.25,0,1,0-.25-.25A.25.25,0,0,0,1200.81,1093.79Z" transform="translate(39.16 -398.18)"/><path class="cls-1" d="M1200.9,1093.42a.38.38,0,0,0-.72.21,1.89,1.89,0,0,0,.27.83,14.6,14.6,0,0,0,.8,1.64c.13.23.54.07.44-.19a14.34,14.34,0,0,0-.93-2.08.25.25,0,0,0-.35-.06.25.25,0,0,0-.1.25,21.64,21.64,0,0,0,1.32,3.19c.14.27.57,0,.42-.25a21.1,21.1,0,0,1-1.27-3.07l-.45.19a14.31,14.31,0,0,1,.9,2l.44-.19c-.19-.34-.37-.68-.53-1-.09-.19-.18-.38-.26-.57l-.13-.33a.31.31,0,0,0-.28-.25c.19.25.61,0,.43-.24Z" transform="translate(39.16 -398.18)"/><path class="cls-1" d="M1203.16,1094.66l-2.26,1.18c-.28.15,0,.55.25.42a8.51,8.51,0,0,0,2.09-1.3c.22-.18-.06-.53-.29-.38a19.31,19.31,0,0,0-2.18,1.52c-.24.2.1.54.35.34a19.8,19.8,0,0,1,2.07-1.46l-.29-.38a8.75,8.75,0,0,1-2,1.23l.25.42,2.26-1.18c.27-.15,0-.57-.25-.42Z" transform="translate(39.16 -398.18)"/><path class="cls-1" d="M1203.19,1096.94l-1.75-.83c-.24-.11-.53.2-.3.38a10.92,10.92,0,0,0,1.24.86.26.26,0,0,0,.33-.09.24.24,0,0,0,0-.3,6.89,6.89,0,0,1-.83-1l-.38.29a17.55,17.55,0,0,0,1.52,1.34c.24.19.58-.12.34-.34l-1.19-1.13-.29.39a7.1,7.1,0,0,1,2.07,1.41c.22.22.57-.12.35-.34a7.78,7.78,0,0,0-2.18-1.5c-.23-.1-.51.18-.29.39l1.19,1.12.34-.34c-.53-.42-1-.87-1.52-1.34-.19-.19-.54.05-.38.29a6.72,6.72,0,0,0,.9,1.15l.3-.39a9.9,9.9,0,0,1-1.14-.77l-.29.38c.58.29,1.16.56,1.75.83.29.13.53-.29.25-.42Z" transform="translate(39.16 -398.18)"/><path class="cls-1" d="M1183.29,1086.17l.13-.46-.49-.13-.49,2.34.49.13a15.83,15.83,0,0,1,.74-2.61l-.49-.13c-.44,1.47-.84,2.9-1.21,4.35a.26.26,0,0,0,.18.31.25.25,0,0,0,.31-.18q.55-2.19,1.2-4.35c.1-.3-.36-.42-.48-.13a16.91,16.91,0,0,0-.75,2.61c-.06.3.41.44.49.13l.49-2.34a.26.26,0,0,0-.18-.31.24.24,0,0,0-.31.18h0l-.13.45a.24.24,0,0,0,.18.31.25.25,0,0,0,.31-.17Z" transform="translate(39.16 -398.18)"/><path class="cls-1" d="M1183.42,1085.61a13,13,0,0,0-.71,2.1.24.24,0,0,0,.18.31.25.25,0,0,0,.31-.18,11.1,11.1,0,0,0,.67-2.35.25.25,0,0,0-.18-.3.25.25,0,0,0-.31.18,36.8,36.8,0,0,0-1.57,5.54c-.07.31.41.44.48.13a38.17,38.17,0,0,1,1.58-5.55l-.49-.12a10.63,10.63,0,0,1-.68,2.34l.49.13a11.61,11.61,0,0,1,.66-2c.12-.28-.3-.53-.42-.24Z" transform="translate(39.16 -398.18)"/><path class="cls-2" d="M1159.52,1083.49q5.13-2.1,10.35-4c.69-.25.4-1.37-.31-1.12q-5.22,1.88-10.35,4c-.68.27-.38,1.39.31,1.11Z" transform="translate(39.16 -398.18)"/></svg>