<svg id="Layer_20" data-name="Layer 20" xmlns="http://www.w3.org/2000/svg" viewBox="0 0 564.73 328.03"><defs><style>.cls-1{fill:#a6a6cc;}.cls-2{fill:#76768e;}.cls-3{fill:#ebebff;}</style></defs><title>Trash6</title><path class="cls-1" d="M-78.8,1041.86c-14.69,3.19-29.95,6.2-44.77,9.73,5.27,9.67,15.07,17.94,26.15,25.79q30-6.56,60-13Q20.1,1052,77.85,1039.94q115.34-24,231.18-46.47c43.84-8.54,38.18-38.5-5.75-29.94l-.15-.26q-129.06,25.26-257.82,52.06Q-16.81,1028.38-78.8,1041.86Z" transform="translate(128.2 -804.54)"/><path class="cls-1" d="M256.81,838.39l7.52-15.29-67.26,4.64-24.83,93.58L160.36,966c-4,15.15-12.66,32.23-12.08,46.78.37,11.74,27.47,20.34,42.21,27.37q25.94,12.31,54.85,23.22a1065.82,1065.82,0,0,0,125.19,38.28c33.14,8.12,77.25-22.37,44.16-30.42C335.81,1052,267,1026.33,210.26,995.08l5.67,10.87,48.4-182.85c5.47-20.63-56.68-16.33-67.26,4.64l-7.76,15.34c-10.58,21,56.76,16.21,67.32-4.65Z" transform="translate(128.2 -804.54)"/><path class="cls-1" d="M-85.18,907.74l-19.77,77c-6.1,23.94-23.75,55-4.21,74.29,17.45,17.24,64.1,22.07,97.69,30.81A741.82,741.82,0,0,1,91.8,1124.61c27,11.38,83.17-14.85,56-26.42a811.87,811.87,0,0,0-91.67-32.37q-24.47-7.11-50.63-13c-15.53-3.56-37.07-6-47.68-12.41-11.46-6.91-6-19.24-3.47-29.08l9.1-35.36,18.67-72.84c5.48-20.55-62-15.94-67.27,4.64Z" transform="translate(128.2 -804.54)"/><path class="cls-2" d="M230.51,1012.18c48.36,18.63,96.24,37.75,146.48,55.36a144.79,144.79,0,0,0,25.4,6.34c12.84,2.07,19.69,6.84,9.57,15-7.6,6.1-22.3,12.23-35.73,10.32-8.63-1.28-16.29-6.29-24.73-8.29-12.45-3-25.13-5.67-37.16-8.91-50.41-13.62-92.61-32.07-132.42-51.39-6-3-11.66-7-20.45-8.27-11.45-1.71-25.82,1.73-38.85,4.11-37.71,6.93-75.18,15.1-112.11,24.43-11.29,2.83-9.93,10.87,1.54,8,22.75-5.71,45.62-11.08,68.72-15.93,17.4-3.65,43.85-10.76,60.78-11.67,20.12-1,32.67,9.81,44,15.09,12.49,5.88,25.2,11.45,38.4,16.87a677.88,677.88,0,0,0,70.11,24.39c14.66,4.18,30.31,7.61,45.72,11.27a110.43,110.43,0,0,1,17.7,5.28c4,1.67,6.74,4.4,12.4,5.17,18.88,2.58,49.73-11,59.84-19.77,13-11.36,6.36-20.39-12.67-23.48-34.06-5.57-59.73-18.46-86.61-28.59q-42.74-16.08-85.08-32.39c-7.48-2.87-22.49,4.14-14.91,7Z" transform="translate(128.2 -804.54)"/><path class="cls-2" d="M9.81,1059q48.8,15.06,97.34,30.26l24.28,7.59c5,1.48,16.18,3.27,18.16,5.72,7.56,9.42-19.72,16.85-34.24,19.52s-21.48.6-28-3.56c-18.1-11.55-48.42-19-74-26.66-29.13-9.14-61.29-16.4-96-21.68-9.7-1.39-21.58,6.71-11.74,8.11,47.26,6.8,87.29,18.61,126,31.16a286.81,286.81,0,0,1,32.5,11.41c6.22,3,9.77,7.44,17.07,9.87,11.59,3.86,28.5,1.11,44.18-2.65,17.43-4.22,37.82-10.47,44.67-19.73,6.49-8.87-3.43-12.2-14.73-15.81-44.23-14.08-89-27.86-133.7-41.59-8.22-2.56-20,5.59-11.78,8.1Z" transform="translate(128.2 -804.54)"/><path class="cls-2" d="M-103,1073.25c2.86,2.18,5.85,4.32,8.91,6.43a80.59,80.59,0,0,1,9.83-.77c11.5-.22,14.47-8.82,3.34-8.63l0,0A96.32,96.32,0,0,0-103,1073.25Z" transform="translate(128.2 -804.54)"/><path class="cls-2" d="M-121.91,1045.38l-4,1.13a37.31,37.31,0,0,0,3.74,7.51c2.16-.62,4.33-1.25,6.51-1.86,11.31-3.19,5-10-6.3-6.78Z" transform="translate(128.2 -804.54)"/><path class="cls-2" d="M-126.86,1043.19a33.77,33.77,0,0,0,3.28,8.39c5.32-.06,12.88-2.72,13-6.13l0-.07A318.37,318.37,0,0,1-98.08,973.1,353.52,353.52,0,0,1-85.5,936.76c3.94-9.66,5.49-25.9,19.75-35.34,17.19-11.37,36.82-7.07,41.09,1.17,3.31,6.43-.76,14.43-3.23,21.71q-6.26,18.47-11.76,36.91Q-50.31,998-57.36,1034.45c-1.08,5.42,16.88,4.21,17.91-1.25a863.16,863.16,0,0,1,25.33-97.82c4.29-13.24,15.3-30.28,5.28-41.25-6.62-7.21-24.35-11.67-44.71-7.47S-83.92,900.31-90,909.16c-10,14.94-14.49,30.35-19.63,45a335.41,335.41,0,0,0-18.57,86.85A4.46,4.46,0,0,1-126.86,1043.19Z" transform="translate(128.2 -804.54)"/><path class="cls-2" d="M-40.19,1035.75l191.52-40.22c11.65-2.44,10.16-10.44-1.53-8l-191.57,40.23c-11.6,2.44-10.11,10.43,1.54,8Z" transform="translate(128.2 -804.54)"/><path class="cls-2" d="M239.34,1012l54.52-12.1c13.24-3,28.62-5.34,41.3-9.28,19.66-6.12,13.52-18.66,10-25.16-1.95-3.52-3.66-9.94-10.78-11.47s-19.75,1.73-27.66,3.25c-15.48,2.84-31,5.94-46.39,9-11,2.25-27.75,4.5-37.2,8.82-4.13,1.94-5.14,4.67-2.25,6.09a9.6,9.6,0,0,0,3.58.82l.77.08c4.55.28,10-1.43,12.17-3.82h0l.27-.28c5.63-5.56-10.68-6.56-16.45-1l-.32.28,12.19-3.8-.78-.1,1.32,6.84c5.67-2.6,21.41-4.59,28.22-6,7.72-1.48,15.42-3.12,23.19-4.64,8.73-1.67,22.52-5.44,30.94-5.79,7-2.45,9.8-2,8.41,1.32a29.72,29.72,0,0,1,3.33,5.34c2.13,4.19,6.54,9.49-4.1,14.49-5.36,2.52-20.61,4.58-27.12,6l-58.68,13C226.23,1006.58,227.67,1014.58,239.34,1012Z" transform="translate(128.2 -804.54)"/><path class="cls-2" d="M237.77,976.82q9-55.12,22.15-110.69c3.71-15.51,12.89-33.25,10.87-48-1.2-8.92-13.5-16-35.46-12.84C212.41,808.71,196.89,820,190.66,830c-10.47,16.9-11.07,34.15-14.62,50.52l-11,51.16L159,959.71c-2,9.29-1.93,19.19-13.34,28.71-6.47,5.38,7.4,8.59,13.95,3.18,13.69-11.39,14.88-21.9,17.2-33.11l9.49-44.13,8.79-40.85c3-14.12,3.27-29.61,13.29-44.18,2.8-4.1,6.62-9,14.72-12.22,19.73-7.93,28.51-2,29.48,4.54s-2.79,14.17-4.5,21q-5.82,22.67-10.86,45.29-10.17,45.22-17.43,90.11C218.91,983.44,236.88,982.24,237.77,976.82Z" transform="translate(128.2 -804.54)"/><path class="cls-2" d="M-17.39,1068.56l46.63,3c13.36.85,26.92,2.51,41.37,1.89,2.85-.12,3.66-2.28.84-2.23-15.38.65-30.17-1.27-44.34-2.17l-42.94-2.66a4.26,4.26,0,0,0-3,1c-.54.6,0,1.14,1.1,1.2Z" transform="translate(128.2 -804.54)"/><path class="cls-2" d="M38.05,1077q25.16.42,49.21,2.2c2.63.2,4.35-1.91,2-2.16q-24-1.79-49.25-2.2C37.3,1074.74,35.31,1076.93,38.05,1077Z" transform="translate(128.2 -804.54)"/><path class="cls-2" d="M19.74,1054.25c-16.46-.29-34.12-.21-51.1,5.88-2.64.94-1.09,2.65,1.61,1.76,15.79-5.66,32.24-5.65,47.52-5.38,2.74,0,4.73-2.13,2-2.18Z" transform="translate(128.2 -804.54)"/><path class="cls-2" d="M-46.26,1061.32a147.1,147.1,0,0,0-31.21,11.23c-2.32,1.17.46,2.43,2.65,1.29a136.46,136.46,0,0,1,28.94-10.53C-43,1062.62-43.38,1060.62-46.26,1061.32Z" transform="translate(128.2 -804.54)"/><path class="cls-2" d="M-44,1032.48A279.77,279.77,0,0,1-82,1041.86c-2.91.56-2.52,2.56.39,2a286.51,286.51,0,0,0,39.3-9.62c1.22-.39,1.86-1.1,1.41-1.59s-1.8-.56-3-.17Z" transform="translate(128.2 -804.54)"/><path class="cls-2" d="M-98,1044.56l-24.11,2.56c-2.91.31-3.77,2.46-.84,2.23l24.11-2.56C-96,1046.48-95.1,1044.33-98,1044.56Z" transform="translate(128.2 -804.54)"/><path class="cls-2" d="M50.82,1105.64l11.44-8.41,5.43-3.9c.74-.54,6-3.79,5.61-4.16.44.49,1.8.56,3,.17s1.86-1.1,1.41-1.58c-2-2.25-7.77.75-10,2.29-7,4.84-13.53,9.8-20.23,14.67-1.82,1.32,1.64,2.12,3.46.8Z" transform="translate(128.2 -804.54)"/><path class="cls-2" d="M347.56,1093.23c-9.29-10.37-21-20-35-28.61-1.45-.92-5.16.85-3.71,1.77,13.78,8.57,25.33,18,34.47,28.32.44.48,1.8.56,3,.17s1.86-1.1,1.41-1.59Z" transform="translate(128.2 -804.54)"/><path class="cls-2" d="M347.34,1048.13c-23.79-2.05-48.34-3.32-73.51-3.79-2.7-.06-4.69,2.1-1.94,2.16,25.08.5,49.55,1.78,73.28,3.83,2.58.22,4.35-1.9,1.94-2.16Z" transform="translate(128.2 -804.54)"/><path class="cls-2" d="M313.35,1038.57q-19.94,0-39.46-.53c-2.69-.06-4.68,2.1-1.94,2.17q19.53.51,39.42.52c2.77,0,4.76-2.17,2-2.16Z" transform="translate(128.2 -804.54)"/><path class="cls-2" d="M224.31,1048.6a60.81,60.81,0,0,1-6.21-25.72l-4.55.87.38,2c.11.55,1.21.8,2.47.56s2.19-.88,2.08-1.43l-.38-2c-.25-1.3-4.57-.45-4.55.87a60.81,60.81,0,0,0,6.21,25.72C220.32,1050.67,224.87,1049.81,224.31,1048.6Z" transform="translate(128.2 -804.54)"/><path class="cls-2" d="M241.92,1009.26c-10.51-2.87-26-1.6-39.12,3.19-2.59,1-1,2.66,1.61,1.76,11.48-4.32,25.25-5.49,34.55-3,2.14.58,5.09-1.46,3-2Z" transform="translate(128.2 -804.54)"/><path class="cls-2" d="M177.49,1016.63a49.28,49.28,0,0,0-14.18,4.19c-1,.52-1.06,1.19-.24,1.49a4.45,4.45,0,0,0,2.84-.21,42,42,0,0,1,12-3.48C180.81,1018.18,180.42,1016.19,177.49,1016.63Z" transform="translate(128.2 -804.54)"/><path class="cls-2" d="M232.08,977.89A189.31,189.31,0,0,1,192,986.18c-2.92.3-3.78,2.45-.85,2.24a204.1,204.1,0,0,0,42.53-8.75c1.23-.39,1.86-1.1,1.42-1.59s-1.8-.56-3-.17Z" transform="translate(128.2 -804.54)"/><path class="cls-2" d="M176.37,988.22c-6.76.34-13.64,1-20.57,1.88-2.9.37-3.75,2.54-.84,2.23,6.92-.91,13.81-1.54,20.57-1.88C178.37,990.31,179.23,988.14,176.37,988.22Z" transform="translate(128.2 -804.54)"/><path class="cls-2" d="M277.15,964.7q-26.38,13.51-51.5,27.55c-2.18,1.2.48,2.49,2.6,1.28q25.16-14,51.55-27.56C282.08,964.81,279.33,963.53,277.15,964.7Z" transform="translate(128.2 -804.54)"/><path class="cls-2" d="M278.83,972.22a156.19,156.19,0,0,0-28.88,14c-2,1.28,1.48,2.06,3.5.78a146,146,0,0,1,27-13.15c2.59-1,1-2.66-1.61-1.76Z" transform="translate(128.2 -804.54)"/><path class="cls-2" d="M156.09,1011.73l-61.92,1c-18,.3-37.85-.72-57,2.67-3,.57-2.57,2.57.38,2,19.81-3.41,41.35-2.17,60.09-2.5l57.7-1c2.77,0,3.58-2.19.8-2.22Z" transform="translate(128.2 -804.54)"/><path class="cls-2" d="M96.06,1017.49l-62.79,1.44c-2.81.06-3.62,2.23-.84,2.23L95,1019.75c2.81-.06,3.62-2.23.84-2.23Z" transform="translate(128.2 -804.54)"/><path class="cls-2" d="M11.33,1035l-27.4,4.58c-2.91.56-2.53,2.56.38,2l27.4-4.58C14.67,1036.43,14.29,1034.43,11.33,1035Z" transform="translate(128.2 -804.54)"/><path class="cls-2" d="M245.7,873.35a419.69,419.69,0,0,0-35.18,34.5c-.54.6,0,1.14,1.1,1.2a4.27,4.27,0,0,0,3-1,423.51,423.51,0,0,1,35.14-34.48C251.38,872.24,247.24,872,245.7,873.35Z" transform="translate(128.2 -804.54)"/><path class="cls-2" d="M240.72,889.83,218,910c-1.53,1.35,2.61,1.57,4.15.24l22.71-20.18c1.57-1.38-2.57-1.58-4.11-.27Z" transform="translate(128.2 -804.54)"/><path class="cls-2" d="M177.56,941.41A41.87,41.87,0,0,0,184,963.08c.75,1.17,5-.19,4.45-1.39a41.18,41.18,0,0,1-6.19-21.18c0-1.32-4.56-.45-4.55.87Z" transform="translate(128.2 -804.54)"/><path class="cls-2" d="M207.18,931.67a12.49,12.49,0,0,1,.4,10.71c-.23.61.62,1,1.91.94s2.51-.66,2.74-1.28a13.52,13.52,0,0,0-.61-11.76C211,929.08,206.94,930.41,207.18,931.67Z" transform="translate(128.2 -804.54)"/><path class="cls-2" d="M262.1,813.18q-21.3,16.52-45.23,32.53c-1.91,1.3,1.59,2.1,3.5.8q23.94-16,45.23-32.53C267.28,812.66,263.82,811.83,262.1,813.18Z" transform="translate(128.2 -804.54)"/><path class="cls-2" d="M194.59,862.47A93.77,93.77,0,0,1,210.34,876c.45.49,1.8.57,3,.18s1.86-1.1,1.42-1.59a96.24,96.24,0,0,0-16.33-14.06c-1.36-1-5.07.81-3.71,1.77Z" transform="translate(128.2 -804.54)"/><path class="cls-2" d="M214.33,862.39c1.12.12,1.73.6,1.55,1.21-.35,1.35,4.16,1,4.65-.36.47-1.57-1.17-2.79-4.13-3-2.55-.28-4.35,1.87-1.94,2.17Z" transform="translate(128.2 -804.54)"/><path class="cls-2" d="M-30.14,904.74a302.39,302.39,0,0,1-24.14,21.53c-1.68,1.36,1.82,2.15,3.5.8A327.29,327.29,0,0,0-25.85,905c1.43-1.39-2.7-1.55-4.11-.26Z" transform="translate(128.2 -804.54)"/><path class="cls-2" d="M-37,920.31l-13.76,10.8c-1.68,1.33,1.78,2.14,3.5.8l13.76-10.8C-31.83,919.76-35.33,919-37,920.31Z" transform="translate(128.2 -804.54)"/><path class="cls-2" d="M-95.2,960.15A56.44,56.44,0,0,0-92.35,989c.24,1.28,4.79.42,4.54-.87a55.33,55.33,0,0,1-2.92-28.25c.21-1.35-4.26-1.05-4.65.35Z" transform="translate(128.2 -804.54)"/><path class="cls-2" d="M-71.06,956.5A62.86,62.86,0,0,1-77.42,974c-.72,1.4,3.75,1.08,4.65-.33a62,62,0,0,0,6.09-17.4c.26-1.35-4.21-1.05-4.65.33Z" transform="translate(128.2 -804.54)"/><path class="cls-2" d="M-38.45,980.23q-24.36,16.14-45.52,33c-1.68,1.34,1.82,2.14,3.5.8q21.12-16.8,45.52-33C-33,979.72-36.49,978.92-38.45,980.23Z" transform="translate(128.2 -804.54)"/><path class="cls-2" d="M-101.1,1016l-.24,18.4c0,1.33,4.52.44,4.55-.87l.23-18.41C-96.53,1013.82-101.08,1014.7-101.1,1016Z" transform="translate(128.2 -804.54)"/><path class="cls-3" d="M416.05,1085.87c-8.77,7.6-30.89,17.57-43.17,10.86-1.62-.87-5.34.9-3.76,1.75,5.5,2.9,15.45,3.25,25.2.88a57.54,57.54,0,0,0,25.74-13.23c1.58-1.35-2.57-1.57-4.1-.24Z" transform="translate(128.2 -804.54)"/><path class="cls-3" d="M364.9,1093.71l-3.84-.9a4.68,4.68,0,0,0-3.23.62c-.82.56-.7,1.2.27,1.42l3.85.87C364.21,1096.24,367.17,1094.2,364.9,1093.71Z" transform="translate(128.2 -804.54)"/><path class="cls-3" d="M338.27,1086.57l-34.88-23.07c-1.41-.93-5.12.82-3.71,1.77l34.87,23C336,1089.27,339.72,1087.49,338.27,1086.57Z" transform="translate(128.2 -804.54)"/><path class="cls-3" d="M327.78,1049.88l-43.43-2.53a4.24,4.24,0,0,0-3,1c-.52.58-.06,1.11,1,1.19l43.42,2.53a4.26,4.26,0,0,0,3-1C329.34,1050.49,328.88,1050,327.78,1049.88Z" transform="translate(128.2 -804.54)"/><path class="cls-3" d="M305.68,1040.56c-9.1.32-18,.24-26.49-.23-2.67-.13-4.65,2-2,2.18,8.93.47,18.18.54,27.67.22,2.81-.09,3.62-2.25.8-2.23Z" transform="translate(128.2 -804.54)"/><path class="cls-3" d="M312,1081q-42-16.29-85.82-31.62c-1.93-.69-5.69,1.09-3.72,1.75q43.82,15.35,85.8,31.71c1.88.71,5.63-1.08,3.75-1.78Z" transform="translate(128.2 -804.54)"/><path class="cls-3" d="M325.26,982.26c-29,8.4-58.64,15.78-88.67,22.06-2.91.56-2.52,2.56.38,2,30.48-6.37,60.58-13.86,90-22.39,2.76-.8,1.21-2.49-1.62-1.76Z" transform="translate(128.2 -804.54)"/><path class="cls-3" d="M285.1,972.92A228.5,228.5,0,0,0,261,982.46c-1,.5-1.23,1.18-.48,1.52a4.31,4.31,0,0,0,3.13-.25,215.37,215.37,0,0,1,23.08-9.13c1.23-.39,1.86-1.1,1.42-1.58s-1.8-.57-3-.18Z" transform="translate(128.2 -804.54)"/><path class="cls-3" d="M257.68,979.14Q241.27,987,226.3,995.39c-2.18,1.21.48,2.5,2.6,1.28q15-8.4,31.39-16.23c1-.49,1.29-1.17.57-1.53A4.23,4.23,0,0,0,257.68,979.14Z" transform="translate(128.2 -804.54)"/><path class="cls-3" d="M229.32,1010.42a33.18,33.18,0,0,0-11.61,1.15c-2.82.77-1.22,2.45,1.62,1.76a22.41,22.41,0,0,1,8-.69c2.59.25,4.35-1.87,2-2.16Z" transform="translate(128.2 -804.54)"/><path class="cls-3" d="M178.37,1018l-7,1.9c-2.82.75-1.27,2.46,1.61,1.76l7-1.88c2.82-.77,1.22-2.45-1.61-1.76Z" transform="translate(128.2 -804.54)"/><path class="cls-3" d="M148.61,1019.65q-35.7,6.27-71.06,14.08c-2.91.56-2.57,2.56.38,2q35.35-7.83,71.06-14.09C151.9,1021.08,151.52,1019.09,148.61,1019.65Z" transform="translate(128.2 -804.54)"/><path class="cls-3" d="M62.34,1037.52c.11.55,1.21.8,2.47.56s2.18-.88,2.08-1.43-1.21-.81-2.47-.56S62.24,1037,62.34,1037.52Z" transform="translate(128.2 -804.54)"/><path class="cls-3" d="M52.74,1039.3l-42.26,10.4c-2.84.69-2.5,2.69.38,2l42.26-10.39C56,1040.59,55.62,1038.58,52.74,1039.3Z" transform="translate(128.2 -804.54)"/><path class="cls-3" d="M94.51,1020.23a692.23,692.23,0,0,0-79.75,3.93c-2.86.3-3.72,2.45-.8,2.22a688.16,688.16,0,0,1,78.63-3.92c2.74,0,4.73-2.13,1.94-2.15Z" transform="translate(128.2 -804.54)"/><path class="cls-3" d="M151.77,1014l-29.26.57c-2.77.06-3.58,2.2-.8,2.22l29.22-.56C153.74,1016.18,154.55,1014,151.77,1014Z" transform="translate(128.2 -804.54)"/><path class="cls-3" d="M5.62,1057.05c0-1.84-3.89-1.84-7.4-1.44-8,1.08-16,2.52-23.87,4.29-2.91.56-2.57,2.57.38,2s26.32-5.55,26.34-4S5.64,1058.37,5.62,1057.05Z" transform="translate(128.2 -804.54)"/><path class="cls-3" d="M53.84,1072.52l-71.64-4.87a4.24,4.24,0,0,0-3,1c-.54.6,0,1.14,1.1,1.2l71.64,4.87a4.23,4.23,0,0,0,3-1C55.48,1073.12,55,1072.58,53.84,1072.52Z" transform="translate(128.2 -804.54)"/><path class="cls-3" d="M70.61,1078.36a78,78,0,0,0-14.87-1.11c-2.82,0-3.63,2.2-.85,2.23a67.83,67.83,0,0,1,12.82,1c2.35.42,5.3-1.62,2.91-2Z" transform="translate(128.2 -804.54)"/><path class="cls-3" d="M77,1088.82q-11.42,5.19-21.46,11c-2.12,1.24,1.38,2,3.5.8,6.38-3.68,13.24-7.19,20.51-10.5,2.43-1.11-.17-2.39-2.64-1.27Z" transform="translate(128.2 -804.54)"/><path class="cls-3" d="M149.22,1110.71c-11.25,4.23-21.23,9-34.38,10.18-11.4,1-21.47-.4-27.39-4-1.54-.88-5.26.86-3.76,1.78,6,3.6,15.94,5.26,27.37,4.59,15.3-.86,26.5-5.85,39.73-10.86,2.59-1,1.08-2.69-1.57-1.76Z" transform="translate(128.2 -804.54)"/><path class="cls-3" d="M78,1111l-7.79-2.29c-2.1-.61-5.05,1.42-3,2l7.71,2.34c2.1.62,5.06-1.42,3-2Z" transform="translate(128.2 -804.54)"/><path class="cls-3" d="M-44.24,1062.77l-22.41,6c-2.83.75-1.23,2.45,1.61,1.76l22.19-5.92c2.87-.77,1.27-2.45-1.56-1.76Z" transform="translate(128.2 -804.54)"/><path class="cls-3" d="M9.74,1040l0,.14a4.3,4.3,0,0,0,2.68,0,3.35,3.35,0,0,0,1.92-1.1c.42-.48.2-.94-.55-1.13-2.22-.74-7.29.36-10.21.86a126.66,126.66,0,0,0-13.85,3.2c-2.82.81-1.22,2.49,1.61,1.76,3.34-1,6.78-1.81,10.27-2.49,1.91-.37,7.83-1.69,9.18-1.25l-.59-1.12.59-.37,2.64,0,0-.14a4.38,4.38,0,0,0-3.19.28c-1,.48-1.22,1.14-.53,1.49Z" transform="translate(128.2 -804.54)"/><path class="cls-3" d="M-50.46,1037A176.5,176.5,0,0,1-78,1043.43c-2.94.44-2.51,2.42.38,2a184.53,184.53,0,0,0,28.78-6.7c1.23-.39,1.86-1.1,1.42-1.59s-1.8-.56-3-.17Z" transform="translate(128.2 -804.54)"/><path class="cls-3" d="M-98.17,1046.28a64.47,64.47,0,0,0-11,1c-2.91.56-2.52,2.56.38,2a52.76,52.76,0,0,1,8.61-.83C-97.38,1048.43-95.39,1046.27-98.17,1046.28Z" transform="translate(128.2 -804.54)"/><path class="cls-3" d="M-49.45,991.7Q-65,1003.78-82.6,1015.43c-2,1.29,1.53,2.09,3.5.8q17.61-11.65,33.15-23.73C-44.23,991.15-47.73,990.36-49.45,991.7Z" transform="translate(128.2 -804.54)"/><path class="cls-3" d="M-94.72,1017.12a92.7,92.7,0,0,0-4,19.5c-.13,1.32,4.42.45,4.54-.88a93.85,93.85,0,0,1,3.91-18.92c.44-1.39-4.07-1.08-4.65.33Z" transform="translate(128.2 -804.54)"/><path class="cls-3" d="M183.71,943.22A31.28,31.28,0,0,0,185.28,961c.24,1.28,5.06.35,4.55-.87a30.15,30.15,0,0,1-1.61-17.2c.26-1.36-4.26-1-4.65.33Z" transform="translate(128.2 -804.54)"/><path class="cls-3" d="M214.51,933.51,213,938.13c-.49,1.38,4,1.07,4.65-.35l1.56-4.63c.22-.61-.64-1-1.93-.94s-2.5.68-2.72,1.29Z" transform="translate(128.2 -804.54)"/><path class="cls-3" d="M233.53,900.78l-7.6,5.35c-.81.56-.69,1.19.28,1.41a4.61,4.61,0,0,0,3.22-.62l7.56-5.34c1.87-1.29-1.63-2.09-3.5-.79Z" transform="translate(128.2 -804.54)"/><path class="cls-3" d="M250.78,828.37l-.41.08,1.26.92-.31.33-2.28.17c-1.5-.23-10,5.3-11,5.94q-5.11,3.24-9.61,6.63c-1.77,1.33,1.68,2.14,3.45.81q4.71-3.59,10.21-7,5.51-2.89,10.35-6c3.57-2.75-3.9-3.39-5.3-.57-.18.48.34.85,1.26.91l.43,0c2.67.15,4.66-2,2-2.16Z" transform="translate(128.2 -804.54)"/><path class="cls-3" d="M-32.66,921a60.2,60.2,0,0,0-14,8.89c-1.52,1.37,2.61,1.57,4.15.24a52.91,52.91,0,0,1,12.39-7.91c2.37-1.14-.24-2.44-2.61-1.28Z" transform="translate(128.2 -804.54)"/><path class="cls-3" d="M-30.9,909.11l-13.66,12.33c-1.53,1.37,2.61,1.57,4.1.25l13.66-12.33C-25.27,908-29.37,907.78-30.9,909.11Z" transform="translate(128.2 -804.54)"/><path class="cls-3" d="M-105.6,1071.27l2,1.6a73.24,73.24,0,0,1,16.46-2.28c2.86-.08,3.68-2.22.84-2.23l0,.08A83,83,0,0,0-105.6,1071.27Z" transform="translate(128.2 -804.54)"/><path class="cls-1" d="M-64.86,948.27c-5,3.48-5.08,7.19-6.28,10.75L-77,976.46l4.64-.36,3.24-21.19c.22-1.33-4-1.11-4.65.33A48.79,48.79,0,0,0-77,980.18c-.07.58.9.93,2.17.76s2.36-.77,2.43-1.35l10.15-28.86-4.6.61c-.17,9.6-3.85,19.65-10.87,29.76l4.28,0c2.6-4,3.19-7.88,1.73-11.37-.12-.55-1.23-.79-2.48-.54A3.44,3.44,0,0,0-76,970c-2.52,2.41-3.77,4.91-3.61,7.21.24,1.28,4.79.4,4.54-.87-.35-2,.8-4.12,3.25-6.17l-4.33.29c1.35,3.32.78,7-1.65,10.81-.75,1.22,3.49,1.19,4.29,0,7.27-10.5,11-21,11.17-30.91-.22-1.14-4.08-.61-4.6.59L-77.1,979.79l4.6-.61a48.49,48.49,0,0,1,3.15-24.37l-4.65.33-3.22,21.32c-.21,1.32,4,1.1,4.65-.36l4.47-13.27c1.33-3.88,1.2-10,6.79-13.73.67-.58.35-1.17-.72-1.31a4.88,4.88,0,0,0-2.73.53Z" transform="translate(128.2 -804.54)"/><path class="cls-1" d="M-82.12,971.31l-3.63-18.9c-.2-1.08-4.27-.63-4.59.61a123.73,123.73,0,0,0-1.9,40.71c.25,1.3,4.8.4,4.55-.87a107.58,107.58,0,0,1,3.18-40.15l-4.65.36A246.38,246.38,0,0,0-91.37,986l4.55-.88a131.67,131.67,0,0,1,.63-31.81c.17-1.33-4.26-1.06-4.65.34L-96.93,986l4.65-.34,4.92-30.33c.17-1.32-4.17-1.09-4.65.33a74.22,74.22,0,0,0-3.38,31.47c.25,1.32,4.42.44,4.54-.87l2.74-30.44c.1-1.18-4.17-.6-4.6.62q-3.23,11.21-5.57,22.3c-1.17,5.4-3.73,11.46-.35,16.07.83,1.15,5.14-.24,4.44-1.41-3.82-5.17,0-12.92,1.39-19s2.94-12.16,4.69-18.27l-4.59.62-2.69,30.42,4.54-.87a72.64,72.64,0,0,1,3.49-30.93l-4.65.33-4.69,30.29c-.21,1.35,4.21,1.08,4.65-.33l6.13-32.37-4.65.33a134.36,134.36,0,0,0-.66,32.38c.24,1.28,4.78.38,4.54-.87a222,222,0,0,1,2.18-32.36c.17-1.31-4-1.09-4.65.36a110.4,110.4,0,0,0-3.08,40.66l4.55-.87a123.07,123.07,0,0,1,2-40.18l-4.6.59,3.63,18.91c.11.55,1.21.8,2.47.56s2.18-.88,2.08-1.43Z" transform="translate(128.2 -804.54)"/><path class="cls-1" d="M-101.13,1008.27l-6.23,29.18c-.3,1.36,4.17,1.06,4.65-.33,1.88-8.64,1.23-18.14,7.71-27.11l-4.28,0a151.17,151.17,0,0,0-4.11,27.69c-.09,1.26,3.87.54,4.6-.59,5.27-9.13,5.67-18.1,7.41-26.94l-4.65.35a106.63,106.63,0,0,1-8.63,28.67l4.65-.33,10.74-29-4.65.34a152.22,152.22,0,0,1-10.75,32.86l4.65-.33a55.51,55.51,0,0,1,8.69-21l-4.28,0-4.19,16.72c-.35,1.36,4.07,1.06,4.65-.35l6.3-21.39c.45-1.39-4-1.09-4.64.33a96.41,96.41,0,0,0-4,21.14c-.06,1.15,4.31.58,4.6-.62l4.25-20.35-4.65.33q-1.59,10.42-2.88,20.84c-.13.81,1.81,1.37,3.53.48l4.8-2.47c2.27-1.19-.46-2.44-2.6-1.28l-4.8,2.47,3.53.48c.88-6.94,2-13.91,2.88-20.82.22-1.34-4.21-1.07-4.65.34L-97.78,1038l4.6-.59a94,94,0,0,1,3.93-20.56l-4.65.33-6.31,21.41,4.65-.35,4.19-16.72c.3-1.12-3.45-1.27-4.29,0-4.82,7.28-7.86,14.52-9,21.57-.24.62.62,1,1.9.95s2.51-.67,2.75-1.28a150.13,150.13,0,0,0,10.75-32.87c.22-1.32-3.94-1.1-4.65.34l-10.79,29c-.23.61.62,1,1.9,1s2.52-.67,2.75-1.29a107,107,0,0,0,8.63-28.69c.22-1.32-4.21-1.05-4.65.36-1.74,8.82-2.19,17.8-7.41,26.92l4.6-.61a150.4,150.4,0,0,1,4.21-27.16c.3-1.13-3.36-1.28-4.29,0-6.53,9.16-6.14,18.79-8.07,27.65l4.65-.34,6.27-29.18c.26-1.36-4.21-1.06-4.65.33Z" transform="translate(128.2 -804.54)"/><path class="cls-1" d="M-107.18,1042.07a24.55,24.55,0,0,0-4.62,7.47l0,.06-9.81,5.17c.43.66.89,1.3,1.37,1.94l2.39-1.26c-.39.59.19,1.09,1.36,1.11a4.94,4.94,0,0,0,2.48-.63,38.18,38.18,0,0,0,5.35-4.15,2.07,2.07,0,0,0,1,.26,4.18,4.18,0,0,0,.79,0l-2.08,2c-1.28,1.22,2.24,1.64,3.82.53l8.72-6.63a3.59,3.59,0,0,0,1.56-.73v0l2.8-2.6c.75-.71-.17-1.14-1.38-1.16l1.9-1.8c1.11-1.08-1.64-1.63-3.4-.78-.51.25-.94.52-1.42.78a2.3,2.3,0,0,0-1.62-.34,4,4,0,0,0-2.45.93l-.08.08c-.15-.42-.87-.68-1.89-.6a4.33,4.33,0,0,0-.5.08C-103.36,1040.94-106.12,1040.85-107.18,1042.07Z" transform="translate(128.2 -804.54)"/><path class="cls-1" d="M31.37,1033.55a64.25,64.25,0,0,0-20.06.88c-13.42,2-26.85,4.22-40.3,6.35-2.55.49-2.8,2.38-.26,2.12,19.08-2.21,38.27-5.29,57.3-9.18,2.46-.48,2.93-2.41.26-2.12a575.49,575.49,0,0,0-58.2,9.89c-2.37.45-2.93,2.41-.21,2.11,20.61-2.43,41.33-5.62,61.94-9.54,2.91-.56,2.48-2.54-.38-2-18.87,3-37.71,6.62-56.39,10.7-1.26.24-2.19.89-2.08,1.44s1.21.8,2.46.56c16.59-2.46,33.17-5.6,49.53-9.39,2.84-.67,2.57-2.56-.38-2l-57.8,11.51c-1.27.28-2.16.94-2,1.49.1.31.53.53,1.16.59,6.65.79,14-.82,21.5-2.18,12.66-2.31,25.34-4.74,38-7.29,1.26-.24,2.19-.88,2.09-1.44s-1.21-.8-2.47-.56l-52.82,10.15c-1.26.24-2.19.88-2.08,1.43s1.21.81,2.46.56a474.93,474.93,0,0,0,52-11c2.51-.67,1.52-2.36-1-1.88l-69,14c-1.26.24-2.19.88-2.08,1.43s1.21.81,2.46.57c21.55-3.71,42.94-8.43,63.8-14.1,2.51-.67,1.53-2.36-1-1.87-24.2,4.69-48.18,10.26-71.7,16.62-2.82.77-1.23,2.45,1.61,1.76,23.12-6.27,46.69-11.73,70.49-16.33l-1-1.88c-20.48,5.53-41.46,10.15-62.59,13.78l.39,2,69-14-1-1.89a465.46,465.46,0,0,1-50.61,10.9l.39,2,52.82-10.15-.38-2-29,5.58c-8.46,1.62-20.38,4.59-28,3.67l-.78,2.07,57.7-11.52-.39-2c-16.35,3.78-32.93,6.92-49.52,9.39l.38,2c18.68-4.08,37.52-7.66,56.39-10.7l-.38-2c-20.2,3.85-40.5,7-60.71,9.36l-.25,2.12a562.85,562.85,0,0,1,57-9.72l.21-2.11c-18.7,3.82-37.56,6.83-56.3,9l-.21,2.11,26.86-4.24c9.56-1.51,21.91-4.21,30.16-2.94,2.39.39,5.34-1.65,3-2Z" transform="translate(128.2 -804.54)"/><path class="cls-1" d="M-45.08,1041c-15.85-.58-33.61,4.39-49.39,3.71l-1.38,2.15a165.85,165.85,0,0,1,34.15.36l1.94-2.16-34.55-3.71-1.38,2.15a169.91,169.91,0,0,1,36.44,3l2.47-2.11L-94,1039.74c-2.22-.28-4.39,1.69-2.48,2.09l4.4.81c2.35.42,5.31-1.6,3-2l-4.4-.81L-96,1041.9l37.27,4.58c2.22.28,4.39-1.67,2.47-2.09a180.38,180.38,0,0,0-38.58-3.06c-2.63,0-3.49,1.93-1.38,2.14l34.56,3.72c2.55.27,4.36-1.86,1.94-2.16a170.43,170.43,0,0,0-35.27-.34c-2.46.2-3.85,2.06-1.38,2.15,15.81.6,33.57-4.38,49.35-3.69C-44.35,1043.25-42.37,1041.07-45.08,1041Z" transform="translate(128.2 -804.54)"/><path class="cls-1" d="M-8.76,1048.94c-10.47,2.78-19.73,7-26.24,11.85-.74.57-.52,1.19.49,1.36a4.69,4.69,0,0,0,3-.55,126.41,126.41,0,0,1,16.21-9.12l-3-1a108.72,108.72,0,0,1-16.36,9.35l2.61,1.28c8.07-4.37,16.38-8.72,27.17-11.16l-1.49-1.64q-16,6.32-31.64,12.93l2.64,1.27a181,181,0,0,1,30.35-11.56l-2.12-1.5-28.62,12c-2.53,1.06.11,2.31,2.65,1.29a304.31,304.31,0,0,1,39.44-13.06c2.83-.73,1.28-2.44-1.61-1.76a313.61,313.61,0,0,0-40.5,13.45l2.65,1.29,28.62-12c2.31-1,.26-2.12-2.12-1.49A187.07,187.07,0,0,0-38,1062.39c-1,.49-1.23,1.17-.48,1.51a4.3,4.3,0,0,0,3.13-.24q15.56-6.59,31.6-12.92c2-.78.61-2.19-1.5-1.64-11.74,2.67-20.55,7.1-29.4,11.86-2.22,1.17.14,2.43,2.61,1.28a109.75,109.75,0,0,0,17.22-10c.8-.56.65-1.19-.33-1.4a4.84,4.84,0,0,0-2.74.38,129.26,129.26,0,0,0-17,9.58l3.45.81c6-4.51,14.65-8.36,24.35-10.89,2.87-.78,1.27-2.46-1.56-1.77Z" transform="translate(128.2 -804.54)"/><path class="cls-1" d="M-32.9,1057.51-77,1062.58c-2.86.34-3.78,2.44-.8,2.22,14.26-1.33,28.32-2,42-2.14l.8-2.23L-69.88,1063c-6,.43-11.41.49-16.23,3.11-1.57.91.32,1.68,1.92,1.42,13.69-2.36,36.15-8.13,47.46-5.44l1.91-2.1-48.26,5.71c-2.91.33-3.76,2.5-.8,2.22l48.22-5.68c1.27-.11,2.44-.7,2.62-1.3.1-.35-.17-.65-.72-.8-12.75-3.08-35.47,2.82-50.8,5.47l2,1.38c4.24-2.49,19.48-2.39,24.75-2.68l22.09-1.57c3-.22,3.54-2.19.8-2.23-13.69.1-27.75.82-42,2.15l-.8,2.22,44.09-5.07c2.9-.35,3.76-2.5.8-2.22Z" transform="translate(128.2 -804.54)"/><path class="cls-1" d="M-119.61,1053.38l-2.44.76a51.22,51.22,0,0,0,4.53,6c1.23-.68,1.2-1.69-.73-1.67l0-.11,1.1-.23c1.26-.24,2.19-.89,2.09-1.44-.07-.34-.55-.55-1.18-.61,2.58-.61,5.17-1.24,7.73-1.83,2.78-.53,2.56-2.42-.15-2l0-.16-1.87.45h0c-.44-.49-1.8-.57-3-.18l-1.06.34a4.18,4.18,0,0,0-2.56,0l-.57.18-.12-.09C-118.43,1052.94-119,1053.16-119.61,1053.38Z" transform="translate(128.2 -804.54)"/><path class="cls-1" d="M219,921.06l-3.39-1.94c-1.12-.65-3.6.18-4.09,1-7.77,13.53-8.77,26.52-9.57,39.28l4.55-.88a138,138,0,0,1,1.62-31.81l-4.14,1c5.34,3.24,3,9.47,2.69,14-.28,5-.73,10-1.23,15-.22.61.64,1,1.92.93s2.51-.67,2.73-1.29c6.08-10.29,4.6-20.42,5.32-30.2l-4.55.87A53.85,53.85,0,0,1,208,954.2c-.22.62.64,1,1.92.94s2.51-.68,2.73-1.29c6.6-10.54,2-19.91,7.22-30.37l-4.6.62A58.66,58.66,0,0,1,212.39,949l4.65-.34c.5-7.42,3.07-15.09,7.63-22.84l-4.32.29A68.68,68.68,0,0,1,216,948.85c-.22.61.64,1,1.92.93s2.5-.68,2.72-1.29a68.51,68.51,0,0,0,4.39-23.28c-.18-1-3.63-.75-4.32.31-4.9,8-7.73,15.9-8.44,23.56-.21,1.33,4,1.11,4.65-.33a60,60,0,0,0,2.9-25.39c.06-.59-.92-.92-2.19-.75s-2.35.78-2.4,1.36c-5.26,10.43-.68,19.81-7.23,30.36l4.65-.35a54.63,54.63,0,0,0,3-27.71c-.1-.55-1.21-.8-2.46-.56s-2.19.88-2.08,1.44c-.71,9.59.69,19.57-5.24,29.65l4.64-.35q1-8.76,1.37-17.43c.24-4.66,1.68-9.65-3.58-13a4.42,4.42,0,0,0-3.26.29,1.83,1.83,0,0,0-.88.75,142.79,142.79,0,0,0-1.65,32.36c.25,1.3,4.51.44,4.54-.87.77-12.67,1.87-25.38,9.49-38.71l-4.09,1,3.34,1.94c1.59.88,5.3-.87,3.76-1.78Z" transform="translate(128.2 -804.54)"/><path class="cls-1" d="M204.71,942.14c-5.73-4-9.89-8.58-12.37-13.6-.11-.55-1.21-.81-2.46-.56s-2.19.88-2.09,1.43l1.37,42.21,4.55-.87-1.59-47.3c-.21-1.1-4.27-.61-4.6.61a234.7,234.7,0,0,0-4.7,47.41l4.54-.87a133.42,133.42,0,0,1,4.82-46.09l-4.6.6c-.75,14.24-2.89,28.64-5.11,43.08l4.59-.62a354.28,354.28,0,0,1,2.19-46.3c.17-1.32-4.3-1-4.65.35l-6.54,47.43c-.17,1.34,4.26,1.07,4.65-.33l9-49.23-4.6.62a185.06,185.06,0,0,1-2.61,63c-.3,1.36,4.21,1,4.65-.34a187.66,187.66,0,0,0,2.69-63.56c-.21-1.1-4.27-.63-4.6.59l-9,49.23,4.65-.33,6.49-47.45-4.64.35a351,351,0,0,0-2.27,46.87c0,1.14,4.31.6,4.6-.62,2.24-14.61,4.38-29.2,5.15-43.63.06-1.17-4.22-.59-4.6.62a135.41,135.41,0,0,0-4.85,46.65c.25,1.3,4.79.39,4.55-.87a248.27,248.27,0,0,1,4.62-46.86l-4.6.61,1.59,47.3c.25,1.3,4.79.41,4.55-.87l-1.28-42.23-4.54.88c2.64,5.36,7.09,10.24,13.2,14.5,1.36,1,5.08-.81,3.71-1.77Z" transform="translate(128.2 -804.54)"/><path class="cls-1" d="M226.89,859.08l4.71-4.21-4.33,0a96.38,96.38,0,0,1-15.38,23.26l4.33,0a59.19,59.19,0,0,0,5.67-21.3c.08-1.05-3.43-.68-4.32.32-4.1,4.66-6.17,9.37-6.07,13.79.19,1,3.39.71,4.32-.29,4.75-5.15,6.78-10.38,5.86-15.14.07-.59-.9-.93-2.17-.76s-2.36.77-2.43,1.35a67.11,67.11,0,0,0-5.22,24.58c.21,1.1,4.31.6,4.59-.61a63.14,63.14,0,0,0-1.6-23.31c-.2-1.08-4.36-.61-4.59.61l-2.33,19.31,4.6-.6a65.47,65.47,0,0,0-2-20.7c-.11-.55-1.21-.8-2.47-.56s-2.18.88-2.08,1.44a207.87,207.87,0,0,1-.76,24.26l4.55-.88a81.62,81.62,0,0,0-4.83-25.11c-.24-1.28-4.79-.42-4.54.87a95.7,95.7,0,0,1,3.88,22.94l4.55-.88a217.81,217.81,0,0,1-4.45-25.39l-4.55.87c3.77,9.07-2.66,19.75.82,28.82.11.56,1.21.81,2.47.57s2.18-.89,2.08-1.44a183.1,183.1,0,0,1-.9-27.77c.06-1.15-4.41-.58-4.6.62l-2.7,24,4.59-.62,1.67-26.65-4.13,1.31c5.31,3.12,2.36,9.07,1.6,13.48l-1.59,10.84c-.27,1.34,4.25,1,4.64-.35.92-5.52,1.93-11,2.8-16.58,1.32-3.47.14-6.67-3.34-9.06-1.32-.76-4.07.38-4.13,1.31l-1.81,26.65c-.06,1.15,4.4.58,4.59-.61l2.33-24-4.6.61a175.64,175.64,0,0,0,.9,27.77L205,881c-3.54-9.11,2.89-19.79-.82-28.82-.11-.55-1.21-.8-2.47-.56s-2.18.88-2.08,1.43a218.55,218.55,0,0,0,4.45,25.39c.11.55,1.21.8,2.47.56s2.19-.88,2.08-1.43a95.86,95.86,0,0,0-3.61-23l-4.55.88a81.2,81.2,0,0,1,4.82,25.11c0,1.34,4.42.43,4.55-.87a195.5,195.5,0,0,0,.76-24.26l-4.54.87a65.76,65.76,0,0,1,2,20.7c-.06,1.15,4.4.58,4.59-.62l2.33-19.3-4.6.6a60.92,60.92,0,0,1,1.68,22.73l4.6-.59a65.47,65.47,0,0,1,5.15-24l-4.6.62c.88,4.39-1,9.23-5.42,14l4.33-.31c-.1-4.05,1.82-8.38,5.63-12.65l-4.33.29A57.89,57.89,0,0,1,212,878.43c-.15.6.76,1,2,.85a4.18,4.18,0,0,0,2.29-.87,99.45,99.45,0,0,0,15.73-23.85c.6-1.29-3-1.09-4.32.05l-4.71,4.19c-1.53,1.37,2.61,1.57,4.15.26Z" transform="translate(128.2 -804.54)"/><path class="cls-1" d="M216.59,1030.23a66.27,66.27,0,0,1,15.27,5.88c1.58.9,5.21-.85,3.71-1.74l-35.9-21.78-3.72,1.75q24.42,11.31,46.41,23.71c1.59.9,5.26-.86,3.77-1.76A236,236,0,0,0,207,1018.15a4.37,4.37,0,0,0-3.19.27c-1,.49-1.22,1.15-.53,1.5,13.08,8.46,27,16.52,41,24.59l3.76-1.77L210.11,1026c-1.8-.78-5.46,1-3.76,1.77a267.49,267.49,0,0,1,42.12,23l4-1.56A226.19,226.19,0,0,0,208.38,1029c-1.86-.58-4.77,1.19-3.31,1.9l42.71,21.64c1.67.84,5.25-.86,3.76-1.78-11.9-7-26.33-12.89-42.91-17.48a4.59,4.59,0,0,0-3.21.6c-.68.46-.74,1-.15,1.28q22.44,9.54,42.39,20.22l3.72-1.75a375.45,375.45,0,0,0-39.16-14.71c-1.81-.56-4.86,1.21-3.36,1.91,12,5.42,25.49,10,38.83,14.67l3.31-1.9a358,358,0,0,1-43.81-15.8c-1.75-.8-5.5,1-3.72,1.75a357,357,0,0,0,44.62,16.08c1.8.52,5.07-1.31,3.31-1.9q-20.57-6.67-38.86-14.6l-3.31,1.9a370.32,370.32,0,0,1,38.43,14.35,4.53,4.53,0,0,0,3.22-.39c.82-.45,1-1,.5-1.36q-19.86-10.66-42.13-20.33l-3.31,1.88c16.28,4.53,30.44,10.33,42.1,17.25l3.76-1.78L209,1029l-3.36,1.91A218.39,218.39,0,0,1,249,1050.74c1.37.75,5.24-.7,4-1.57a273.76,273.76,0,0,0-42.89-23.32l-3.76,1.78,37.91,16.79a4.37,4.37,0,0,0,3.21-.25c1-.49,1.29-1.18.55-1.53h0c-14-8.05-28-16.13-41.06-24.59l-3.71,1.77A231.84,231.84,0,0,1,242.34,1038l3.77-1.76q-22-12.33-46.46-23.7a4.54,4.54,0,0,0-3.22.39c-.81.45-1,1-.5,1.36l36,21.83,3.72-1.75a68.73,68.73,0,0,0-16.07-6.15c-2.19-.57-5.14,1.47-3,2Z" transform="translate(128.2 -804.54)"/><path class="cls-1" d="M256.87,1054.18l-41-14.24c-1.93-.68-5.69,1.09-3.72,1.75l40.91,14.25C255.07,1056.62,258.83,1054.84,256.87,1054.18Z" transform="translate(128.2 -804.54)"/><path class="cls-1" d="M253.88,1054.34c-16.32-4.25-32.53-8.65-42.82-16-1.36-1-5.67.4-4.44,1.39,10.9,7.67,27.2,12.31,44.21,16.72,2.14.56,5.1-1.48,2.91-2Z" transform="translate(128.2 -804.54)"/><path class="cls-1" d="M104.45,1095.05q-15.8-5.47-33.08-10.06c-2.19-.6-5,1.41-3,2l42.1,13.09,3-2L72.6,1086.74c-2.15-.61-4.92,1.38-2.92,2l31.91,10,3-2-43.26-10c-2.27-.52-5,1.44-2.95,2l41,11.29c2.14.61,4.91-1.39,3-2A360,360,0,0,0,56,1086.69c-2.34-.42-5.27,1.54-3,2,18.31,3.79,36.37,7.73,49.56,14.56l3.35-1.91q-25.89-7.65-54.46-13.59a4.66,4.66,0,0,0-3.22.62c-.82.56-.7,1.2.27,1.42a321.26,321.26,0,0,1,54.84,17.53l3.36-1.91c-18.12-6-35.51-13-57.59-16.36-1.94-.29-5.27,1.26-3.36,1.9l54.45,18.69c1.92.67,5.59-1.07,3.72-1.75a316.09,316.09,0,0,0-58-16.61,4.47,4.47,0,0,0-3.14.81c-.54.47-.45,1,.23,1.19l51.29,16.5,3-2C83.09,1103.33,69.44,1097,51.8,1095c-2.41-.27-4.4,1.63-2.47,2.11q20,6,39.17,12.55l2.91-2q-17.31-4.73-35.33-9l-3,2a169.55,169.55,0,0,1,26.32,8.21l3.32-1.89a212.93,212.93,0,0,1-30.13-9.62l-3.72,1.75a184,184,0,0,0,23.53,7.65l2.91-2-18.6-4.33-2.91,2a58.77,58.77,0,0,1,9.31,2.6l3.32-1.88c-4.7-1.42-9.23-2.89-13.63-4.46l-3.32,1.88,15,4.74,3-2-11.4-2.93-2.91,2,8.15,1.71a4.6,4.6,0,0,0,3.19-.72c.66-.51.56-1.06-.23-1.3l-10.94-2.95c-2.14-.6-5,1.42-2.91,2L63.13,1105l3-2c-6.08-1.5-11.83-3.17-17.35-5l-2.91,2a263,263,0,0,0,30.07,7.83c2.3.47,5.26-1.55,2.91-2A271.64,271.64,0,0,1,48.74,1098c-2-.64-4.88,1.38-2.91,2,5.49,1.87,11.28,3.51,17.31,5,2.22.54,5-1.42,3-2l-12.7-3.77-2.91,2,10.51,3,3-2-8.2-1.72a4.6,4.6,0,0,0-3.18.74c-.65.51-.54,1.06.27,1.29l11.36,2.93c2.23.57,4.91-1.4,3-2l-15-4.75c-1.8-.54-5.08,1.29-3.36,1.91,4.66,1.67,9.44,3.24,14.39,4.75,1.85.53,5-1.28,3.36-1.91a62,62,0,0,0-10-2.89,4.6,4.6,0,0,0-3.18.74c-.65.51-.54,1.06.27,1.29l18.6,4.34c2.23.52,5.09-1.48,2.91-2a185.28,185.28,0,0,1-22.72-7.37c-1.84-.75-5.54,1.06-3.72,1.74A211.61,211.61,0,0,0,79.8,1109c1.88.47,5-1.2,3.32-1.88a171.66,171.66,0,0,0-27.09-8.5,4.7,4.7,0,0,0-3.23.62c-.81.57-.69,1.2.28,1.42q18,4.27,35.38,9c2.19.59,4.87-1.37,2.91-2q-19.2-6.45-39.13-12.56l-2.47,2.11c17,1.92,30.82,8.32,44.47,12.61,2,.65,4.92-1.38,3-2l-51.13-16.57-2.91,2a314.67,314.67,0,0,1,57.21,16.36l3.71-1.75-54.45-18.71-3.31,1.9c22.22,3.27,39.7,10.34,57.59,16.36,1.76.6,4.9-1.21,3.31-1.87a326.6,326.6,0,0,0-55.6-17.83l-3,2q28.57,5.9,54.46,13.59c1.85.56,4.5-1.13,3.32-1.9-13.58-6.89-31.91-11-50.73-14.74l-3,2a357.18,357.18,0,0,1,46.35,11.38l3-2-40.78-11.29-2.95,2,43.27,10c2.27.54,4.91-1.4,3-2l-31.95-10-2.91,2,40.83,11.34c2.14.6,5-1.39,3-2l-42.16-13.09-3,2q16.92,4.48,32.34,9.81c1.92.67,5.68-1.09,3.71-1.77Z" transform="translate(128.2 -804.54)"/><path class="cls-1" d="M72.22,1104.42l-23.28-6.62c-2.1-.61-4.92,1.4-2.91,2a221.34,221.34,0,0,1,21.68,8.11l3.36-1.91-20.41-6.86-2.91,2,10.84,2.66a4.56,4.56,0,0,0,3.14-.82c.54-.47.44-1-.23-1.19l-10.84-2.68c-2.27-.54-4.87,1.37-2.91,2L67.92,1108c1.77.6,4.91-1.21,3.31-1.89a225.29,225.29,0,0,0-22.48-8.37l-2.91,2,23.23,6.62c2.1.61,5.05-1.43,3-2Z" transform="translate(128.2 -804.54)"/><path class="cls-1" d="M343.9,1073.9l15.84,4.94c2,.62,4.5-1.13,3.31-1.9-7.79-5.47-22.57-8.08-35.1-11-14.79-3.37-29.81-6.49-45.33-9.26a4.69,4.69,0,0,0-3.23.62c-.82.56-.69,1.2.27,1.42l74.6,20.3c2.14.58,5-1.41,2.91-2-20.87-6.34-41.88-12.66-64.3-18-2.28-.53-4.92,1.4-3,2l67.64,21.33,3-2-64-19.1c-1.8-.55-5,1.27-3.31,1.89l65.67,24.09c1.87.7,5.5-1.06,3.76-1.78A396.75,396.75,0,0,0,297,1062.89a4.65,4.65,0,0,0-3.24.74c-.54.42-.58.88-.12,1.17,20.63,9.2,45.18,16.28,69.72,23.3,1.84.54,5-1.25,3.31-1.87-17.36-6.5-35-12.86-57-16.46-2-.3-5.18,1.22-3.35,1.9a450,450,0,0,0,56,16.87c1.92.44,5-1.22,3.36-1.9-17.44-7.34-38.16-12.91-61.44-16.52a4.55,4.55,0,0,0-3.14.81c-.54.47-.44,1,.23,1.2l56.5,15.64c1.85.52,4.86-1.2,3.31-1.9-13.29-5.91-30.61-9.21-48.57-12.13-2-.32-5.05,1.17-3.35,1.9,12.6,5.46,27.71,9.59,44.77,12.23a4.61,4.61,0,0,0,3.18-.74c.65-.51.53-1.06-.27-1.29a161.42,161.42,0,0,0-37.07-7.2c-2.3-.2-4.4,1.65-2.42,2.1q20,4.73,41.2,8.64c2.35.42,5.27-1.55,3-2l-33.87-7a4.7,4.7,0,0,0-3.23.62c-.81.56-.69,1.2.28,1.42a275.51,275.51,0,0,0,39.67,7.3c2.22.26,4.4-1.67,2.48-2.09l-39.89-7.67c-1.91-.38-5.18,1.28-3.31,1.9a172,172,0,0,0,39.72,8.05c2.25.19,4.39-1.71,2.47-2.1l-41.25-6.9a4.6,4.6,0,0,0-3.18.73c-.65.52-.53,1.07.27,1.3a206.72,206.72,0,0,0,41.91,8.36c2.22.24,4.39-1.69,2.43-2.1l-37.88-7a4.57,4.57,0,0,0-3.18.72c-.67.51-.57,1.06.23,1.3a349.51,349.51,0,0,0,39.1,7.25c2.37.31,4.12-1.58,2.47-2.09-11.27-3.45-28.77-2.55-37.49-7.48l-3.36,1.91c13.28,4,29.1,6.37,46.53,6.94,2.71.1,4.7-2.06,2-2.16-17.07-.57-32.56-2.88-45.57-6.82-1.9-.56-4.5,1.12-3.35,1.91,9.17,5.07,26.68,4.19,38.29,7.72l2.48-2.09a337.92,337.92,0,0,1-38.15-7.17l-3,2,37.88,7,2.47-2.09a201.23,201.23,0,0,1-40.94-8.24l-2.91,2,41.2,6.9,2.47-2.11a164.26,164.26,0,0,1-38-7.64l-3.35,1.9,39.88,7.66,2.48-2.09a264,264,0,0,1-38.71-7.18l-3,2,33.87,7,2.95-2c-14.16-2.56-27.86-5.43-41.25-8.63l-2.43,2.08a157.42,157.42,0,0,1,36.1,7.08l2.91-2c-16.7-2.59-31.48-6.64-43.78-12l-3.36,1.91c17.61,2.83,34.72,6,47.81,11.87l3.31-1.9-56.8-15.48-2.91,2c22.95,3.57,43.38,9.06,60.58,16.29l3.36-1.91a448.37,448.37,0,0,1-55-16.62l-3.32,1.87c21.7,3.54,39.07,9.78,56.22,16.12l3.31-1.88c-24.24-7-48.4-14-68.91-23.07l-3.31,1.9a389.56,389.56,0,0,1,65,22.29l3.76-1.78-65.89-24-3.31,1.9,64.19,19.11c2.1.63,5-1.39,3-2L293.11,1059l-3,2c22.43,5.38,43.43,11.65,64.35,18l2.91-2-74.71-20.36-2.95,2c14.63,2.53,28.51,5.39,42.16,8.46s29.38,5.72,37.41,11.44l3.31-1.9-15.84-4.94c-2-.65-5,1.39-2.91,2Z" transform="translate(128.2 -804.54)"/><path class="cls-2" d="M349.2,1095.65c-5.42-3.36-12.51-6-20.9-7.73l-2.95,2a131.7,131.7,0,0,1,19.68,4.31c1.8.57,4.86-1.2,3.36-1.88a90.89,90.89,0,0,0-20-6.09c-2.31-.45-5.23,1.52-3,2l22.37,5.06c1.87.43,5-1.25,3.31-1.9a106.13,106.13,0,0,0-21.92-5.43l-2.43,2.08a59.23,59.23,0,0,1,16,3.83c1.8.77,5.55-1.07,3.72-1.75a68.54,68.54,0,0,0-15-4.25c-2.38-.39-5.22,1.52-2.95,2a102.14,102.14,0,0,1,10.26,2.87l3-2a156.43,156.43,0,0,0-17.8-4.57c-2.3-.44-5.26,1.57-2.95,2a151.82,151.82,0,0,1,17.8,4.57c2.05.64,4.92-1.38,3-2q-4.85-1.6-10.26-2.87l-2.95,2a67.06,67.06,0,0,1,14.37,3.92l3.72-1.75a65.17,65.17,0,0,0-17.74-4.23c-2.16-.24-4.38,1.73-2.42,2.1a102.17,102.17,0,0,1,21.12,5.18l3.31-1.9-22.32-5.07-3,2a86.88,86.88,0,0,1,19.17,5.82l3.36-1.91a137.33,137.33,0,0,0-19.68-4.31c-2.38-.35-5.32,1.54-3,2,8.14,1.66,15,4.17,20.28,7.4,1.49.92,5.21-.83,3.72-1.75Z" transform="translate(128.2 -804.54)"/><path class="cls-1" d="M230.56,832.79,229,831c-.48-.46-1.84-.51-3-.11a2.89,2.89,0,0,0-1.2.68,215.52,215.52,0,0,0-16.48,27.09c-.26.6.52,1,1.75,1a4,4,0,0,0,2.58-1,161.63,161.63,0,0,0,18.76-28.45c.72-1.42-3.69-1.05-4.64.36-4.87,8-9.59,16.08-12.87,24.06-.58,1.41,3.69,1.07,4.65-.34l15.92-27.77-4.65.34-12,23.69c-.61,1.21,3.49,1.21,4.29,0l17-25.8-4.29,0-12,23.89c-.68,1.4,3.69,1.08,4.65-.35L240.57,825l-4.65.34L224,847.28c-.77,1.41,3.65,1.06,4.65-.34l14.27-23.85-4.65.33-8.73,23c-.22.62.64,1,1.93.94s2.5-.68,2.72-1.29l11.5-24.81-4.6.61a60.28,60.28,0,0,1-6,22.45l4.65-.35a61.64,61.64,0,0,1,9.46-21.63l-4.28,0-4.31,18,4.64-.36a52.87,52.87,0,0,1,6.12-17.21l-4.6.59a55.53,55.53,0,0,1-4.36,17.79c-.48,1.19,3.44,1.22,4.33,0,4.92-6.89,6.83-13.73,5.58-20-.11-.55-1.21-.8-2.46-.56s-2.19.89-2.09,1.44c.93,6.1-.71,12.63-4.83,19.24-.76,1.22,3.34,1.18,4.33,0,4.45-5.28,6.94-10.6,7.36-15.68.16-2.82,1.35-6.71-4.63-7.39-1.64-.18-3.24.81-3.24,1.52-.14,16.71-5.36,34.11-15.52,51.72-.77,1.41,3.7,1.09,4.65-.33,10.21-17.81,15.44-35.4,15.55-52.29l-3.25,1.51c4.53.52,1.67,8.68,1.15,10.36A32.52,32.52,0,0,1,243.25,841l4.33,0c4.2-6.81,5.85-13.51,4.87-19.79l-4.54.87c1.27,5.94-.44,12.38-5,18.89l4.33,0A55.88,55.88,0,0,0,251,822.66c.1-1.24-3.87-.54-4.59.61a53.65,53.65,0,0,0-6.12,17.24c-.21,1.32,4.12,1.07,4.65-.36l4.31-18c.31-1.12-3.4-1.3-4.28,0a63.67,63.67,0,0,0-9.88,22.2c-.22.62.64,1,1.93.94s2.5-.68,2.72-1.29A62.14,62.14,0,0,0,246,821c0-1.2-4-.58-4.6.59L230,846.44l4.64-.35,8.74-23c.23-.61-.62-1-1.9-1s-2.52.67-2.75,1.29l-14.27,23.85,4.64-.33L241,825c.76-1.41-3.69-1.07-4.65.33l-13.21,23.24,4.64-.36,12-23.86c.62-1.22-3.48-1.22-4.28,0l-17,25.82,4.28,0,12.06-23.85c.67-1.41-3.69-1.07-4.65.34l-16.44,27.81,4.65-.34A176.5,176.5,0,0,1,231.31,830l-4.65.36a153.18,153.18,0,0,1-18.21,27.88l4.33,0a200.73,200.73,0,0,1,16.12-26.5l-4.23.56,1.56,1.77c.45.49,1.8.56,3,.17s1.86-1.1,1.42-1.58Z" transform="translate(128.2 -804.54)"/><path class="cls-1" d="M252.05,824.67c1.45-2.57,1.5-5.06.13-7.2-1.47-1.52-5.33-2-9.42-1.2-2.91.56-2.58,2.57.38,2,8-1.66,5,4.62,4.44,6.7-.39,1.38,4.08,1.08,4.65-.33Z" transform="translate(128.2 -804.54)"/><path class="cls-1" d="M179.59,991l11.79-4.62c2.28-.9.21-2.38-2.07-1.49q-11.28,4.35-23,8.24l2.08,1.51a126.32,126.32,0,0,0,17.24-8.44c1.94-1.16-1-1.89-3.08-1.05l-16.16,6.91c-2.23.93-.25,2.37,2.08,1.49a82.66,82.66,0,0,0,16.39-8.16c1.46-1-.38-2-2.51-1.26A113,113,0,0,0,164,992.82c-2.11,1.28,1.38,2.06,3.5.8,4.74-2.83,9.24-5.73,13.46-8.69l-3.5-.8q-7.68,5.88-16.65,11.48l3.78.52c3.51-3.08,7.06-6.16,10.47-9.26,1.89-1.73,3.65-3.08,2.19-4.56-.47-.47-1.83-.52-3-.12a3.59,3.59,0,0,0-.88.41,86.26,86.26,0,0,0-14.57,11.74l4.1.25a59.92,59.92,0,0,1,12.21-10l-3.46-.81a171.05,171.05,0,0,1-18.26,12.64l3.5.79,13.4-9.23c2-1.35-1.42-2-3.5-.8a62.44,62.44,0,0,0-11,8.07c-1.4,1.26,2.12,1.66,3.78.52a25.06,25.06,0,0,0,6.28-5.35c1.19-1.39-2.91-1.66-4.1-.25a23.62,23.62,0,0,1-5.7,4.7l3.83.53a59.67,59.67,0,0,1,10.38-7.52l-3.5-.8-13.4,9.24c-1.91,1.34,1.43,2,3.5.79a174.93,174.93,0,0,0,18.22-12.62c.74-.58.52-1.19-.49-1.37a4.77,4.77,0,0,0-3,.56,61.41,61.41,0,0,0-12.73,10.58c-.42.6.21,1.09,1.39,1.1a4.4,4.4,0,0,0,2.71-.85,83,83,0,0,1,14-11.19l-3.91.29c1.17,1.16-4.41,5-5.74,6.19l-6.72,6c-1.46,1.28,2.11,1.67,3.77.54q8.93-5.6,16.65-11.48c1.73-1.32-1.58-2.11-3.5-.79q-6.25,4.5-13.44,8.79l3.5.79A98.17,98.17,0,0,1,184,985.8l-2.5-1.26A74.46,74.46,0,0,1,167,991.81l2.08,1.49,16.25-6.93-3.08-1a115.71,115.71,0,0,1-16.47,8c-2.33.92-.27,2.29,2.08,1.5,7.84-2.62,15.46-5.37,23-8.26l-2.08-1.48-11.84,4.63c-2.58,1,.07,2.29,2.65,1.27Z" transform="translate(128.2 -804.54)"/><path class="cls-1" d="M196.23,927.44l-.43-2.24c-.11-.55-1.21-.8-2.46-.56s-2.19.88-2.09,1.44c1.38,9.85-6.69,20.61-9.33,30.91-.35,1.37,4,1.07,4.65-.33a61.69,61.69,0,0,0,2.82-29l-4.55.87a29.68,29.68,0,0,1-.57,15c-1.24,4.11-4,8.16-2.16,11.84.47.94,4.33.7,4.6-.62a90.37,90.37,0,0,0,.56-21.63c-.21-1.1-4.27-.61-4.6.61-1.39,8-4.64,16.57-2.37,24,.24,1.28,4.79.41,4.54-.87-2.18-7.18.95-15.66,2.35-23.38l-4.6.59a87.28,87.28,0,0,1-.35,21l4.6-.59c-2.16-4.41,2.18-10.25,3-15.19a30.69,30.69,0,0,0-.29-11.6c-.11-.55-1.21-.8-2.47-.56s-2.18.88-2.08,1.43A61.32,61.32,0,0,1,181.65,957l4.65-.33c2.7-10.5,10.82-21.43,9.41-31.49l-4.55.87.43,2.24c.11.55,1.21.8,2.47.56s2.19-.88,2.08-1.43Z" transform="translate(128.2 -804.54)"/><path class="cls-1" d="M185.44,948.82l2.9-9.45c.44-1.39-4.07-1.09-4.65.33l-2.9,9.46C180.4,950.54,184.87,950.24,185.44,948.82Z" transform="translate(128.2 -804.54)"/><path class="cls-1" d="M187.45,934.22l-.57-1c-.11-.55-1.21-.8-2.47-.56s-2.18.88-2.08,1.43a203.27,203.27,0,0,1-6.07,31c-.34,1.38,4.12,1.08,4.65-.33a216.68,216.68,0,0,0,6-31l-4.55.87.52,1c.65,1.18,4.69-.16,4.44-1.41Z" transform="translate(128.2 -804.54)"/><path class="cls-1" d="M199.79,991.87c6.29-7-15.62-4.78-23.73-4.55-2.16.07-3.8,1.83-1.91,2.09,10.53,1.56,27.68-1.18,39.88-1.91,1.25-.11,2.41-.68,2.59-1.27s-.34-.81-1.21-.88a192.91,192.91,0,0,0-27.12.62c-1.27.1-2.47.67-2.68,1.27a.5.5,0,0,0,.1.51c1.23,1.5,4.22,1.11,7.91.94,9.06-.42,18.27-1.09,27.5-1.87,1.27-.1,2.46-.67,2.66-1.28.09-.27,0-.52-.36-.69-1.95-1.32-5.65-1-9.61-1l-21.6-.3-1.38,2.15a205.43,205.43,0,0,1,33-.13l1.94-2.15-26.34-1.94-2,2.19,22.68.57a45.12,45.12,0,0,0,12.71-.6c2-.4,3-2,.78-2.08a131.21,131.21,0,0,0-18.23.54c-1.29.1-2.52.67-2.75,1.29s.62,1,1.9,1a143.2,143.2,0,0,0,26.3-3.21l-.38-2c-10,2.17-20.08,4.21-28.16,2.1l-1.91,2.1c6.87-.82,10.78,1.66,17.69,1.06,1.24-.09,2.43-.65,2.65-1.24.14-.38-.14-.7-.74-.85a126.39,126.39,0,0,0-13-3,4.63,4.63,0,0,0-3.22.6c-.67.46-.73,1-.14,1.28,3.15,2.17,10.64,3.14,12,6,.56,1.2,5.11.34,4.55-.87-1.72-3.52-8.9-4.11-12.81-6.77l-3.31,1.87a133.08,133.08,0,0,1,13,3l1.87-2.29c-7,.6-10.55-1.92-17.74-1.06-1.27.13-2.43.72-2.57,1.32-.08.34.18.63.71.78,9,2.41,20,.29,31.5-2.14,2.91-.56,2.53-2.56-.38-2a135.75,135.75,0,0,1-25.06,3.05l-.84,2.24a125,125,0,0,1,17.13-.64l.82-2.09c-8.39,2-25.16,0-33-.15a4.25,4.25,0,0,0-3.07,1c-.55.6-.06,1.15,1.08,1.22h0l26.39,1.91c2.63.19,4.57-2,1.94-2.16a212,212,0,0,0-33.94.21c-2.46.2-3.93,2.12-1.38,2.15l15.6.25c3.55,0,11.62-.62,13.53.71l2.3-2c-4.63.41-30.52,3.54-32,1.71l-2.58,1.78a186.72,186.72,0,0,1,26-.64l1.43-2.15L197,986.63c-6.09.42-14.78,1.59-20,.84l-1.91,2.08c3.28-.09,23.71-1.45,20.49,2.13-.53.6,0,1.14,1.11,1.2a4.32,4.32,0,0,0,3-.93Z" transform="translate(128.2 -804.54)"/><path class="cls-1" d="M228.08,1013.74c-6.63-3.15-18.17-3.32-29.22-.43-2.69.68-1.41,2.21,1,1.88,8.79-1.36,17.31-1.3,24.12.17l3-2a74.27,74.27,0,0,0-15.37-1c-2.8.11-3.66,2.26-.79,2.22a66.23,66.23,0,0,1,13.19.72c2.38.39,5.27-1.53,3-2-7.74-1.67-17.46-1.72-27.46-.15l1,1.89c9.12-2.31,18.54-2.12,24,.49a4.33,4.33,0,0,0,3.19-.28c1-.48,1.22-1.14.52-1.49Z" transform="translate(128.2 -804.54)"/><path class="cls-1" d="M184.24,1014.94c-3.07,2-6.27,3.95-9.28,5.92-1.59,1.07-3.05,3.28.56,2.91s4.24-2.45,4-3.52c-.29-1.52,1.38-3.13,5.33-3.68l-2-.12,1.13.47c1.79.77,5.5-1.06,3.71-1.75s-2.47-.87-5-.26a18.75,18.75,0,0,0-5.12,2.06,6.18,6.18,0,0,0-2.53,2.56c-.17.55.39,2-.42,2.48l1.78-.34-.37.07,1.41.21c.52.25.05.24.86-.17.43-.26.84-.54,1.21-.81l2.82-1.8,5.46-3.46C189.7,1014.45,186.25,1013.64,184.24,1014.94Z" transform="translate(128.2 -804.54)"/><path class="cls-2" d="M-121.94,1048c7.32,10.43,13.89,21.36,25.21,27.89,4.18,2.41,7.24-3.51,3.66-6.27-7.77-6-14.33-13.22-18.67-22.06-1.89-3.82-7.5-1.06-6.63,2.8,1.6,7.15,6.23,12.22,12.05,16.39,2.86,2,7.15-2.1,5-5l-11.74-15.33c-2.44-3.2-7.49-1.46-6.63,2.79,1.31,6.46,5.15,11.55,10.23,15.62,3.61,2.88,8.28-1.56,5.14-5.13l-9.71-11c-2-2.26-6.48-.54-6.19,2.57a18,18,0,0,0,3.19,9.12l5.7-4.4-4.31-4.68-5.13,5.13c10.82,11.57,21.49,20.86,37.89,22.09,4.2.32,4.74-6,1-7.13-11.46-3.54-20.92-15-27.62-24.48-2.68-3.78-9-.16-6.27,3.66,7.91,11.13,18.48,23.65,32,27.82l1-7.13c-14.23-1.06-23.45-10-32.76-20-3.2-3.43-8.29,1.7-5.13,5.13l4.31,4.68c2.75,3,8-1,5.7-4.39a10.94,10.94,0,0,1-2.21-5.46l-6.19,2.56,9.7,11,5.14-5.13c-4.19-3.35-7.29-7.07-8.37-12.42l-6.63,2.8,11.73,15.33,5-5c-4.29-3.08-7.54-6.84-8.72-12.06l-6.63,2.8c4.92,10,12.52,17.9,21.28,24.66l3.66-6.27c-10.18-5.87-16-15.91-22.61-25.28-2.66-3.8-8.95-.18-6.26,3.66Z" transform="translate(128.2 -804.54)"/></svg>