<svg id="TV" xmlns="http://www.w3.org/2000/svg" viewBox="0 0 134.27 98"><defs><style>.cls-1{fill:#555472;}.cls-2{fill:#363649;}.cls-3{fill:#484860;}.cls-4{fill:#8e8ebf;}.cls-5{fill:#646484;}</style></defs><title>TV</title><path class="cls-1" d="M345.9,198.1q-7.83,8.76-15.51,17.66c-4.37,5-11.16,10.82-13.55,17.15-2.2,5.76,1,11.18,6.06,14,6.86,3.79,15,6.2,22.32,9.15l22.61,9.15c7.11,2.88,11.95,2.9,17.65-2.7,11.7-11.61,23-23.63,34.5-35.44,3.16-3.24,3-9.74-1.52-11.88Q389.21,201.36,358.88,190c-9.15-3.41-13.08,11.21-4,14.59q28.5,10.62,56,23.67l-1.56-11.87q-12.6,12.94-25.21,25.95l-6.74,6.91L375.63,251q-3.28,2.82-.32,1c-2.6-.08-6.61-2.68-9-3.67l-7.92-3.21-17-6.86-6.78-2.75c-1.35-.52-2.69-1.08-4-1.66q.72,5.75,2.94,1.5c2.19-1.26,4.43-5.21,6.09-7.15l4.6-5.33q6.16-7.09,12.45-14.1c6.47-7.24-4.2-18-10.71-10.69Z" transform="translate(-310.36 -186)"/><path class="cls-1" d="M356.86,196.38a144.21,144.21,0,0,0-31.53,35c-5,7.81,5.63,14.08,11.88,9.16q18.77-14.73,36.7-30.49l-10.71-10.7c-10.19,9.37-20.17,19-26.9,31.29-3.3,6.08,3.93,15.22,10.36,10.36l37.74-28.55-9.17-11.89c-11.35,9.33-22.1,18.84-30.53,30.93-4.26,6.12,4.23,14.6,10.36,10.34l35.29-24.45-9.17-11.88A280,280,0,0,0,358.7,227.3c-5.12,5.77-13.49,14.41-5.9,21.8,3.11,3,7.56,2.67,10.7,0a347.6,347.6,0,0,1,33.27-24.91L387.6,212.3c-11.47,9.59-22.85,19.62-29.57,33.24-3,6,3.78,15.37,10.35,10.35L399,232.58l-9.17-11.89c-8.27,7.8-19.29,15.55-24,26.19-2.65,6,3.57,15.48,10.35,10.35,10-7.56,19.71-15.41,29.13-23.65l-10.71-10.7-8.15,10.47c-5.92,7.56,4.71,18.37,10.7,10.7l8.16-10.47c5.89-7.57-3.19-17.27-10.71-10.7Q382,234,368.56,244.15l10.35,10.36c4.1-9.22,14.47-16.33,21.67-23.12,6.09-5.75-2.22-17.16-9.17-11.87l-30.67,23.31,10.36,10.35c6.16-12.49,16.68-21.43,27.21-30.17,6.57-5.49-2-16.61-9.17-11.88a379.56,379.56,0,0,0-36.34,27.26h10.7l-.75-.73L365,243c-.08-.9,4.18-4.74,5.18-5.85,2.24-2.52,4.58-4.89,7-7.25,4.78-4.72,9.79-9.21,14.78-13.7,6.3-5.66-2.06-16.8-9.17-11.87L347.41,228.8l10.36,10.35c7.56-10.92,18-19.45,28.15-27.86,6.55-5.42-2.29-17.08-9.16-11.89L339,228l10.35,10.36c6.09-11.18,15.27-19.73,24.54-28.24,7.21-6.63-3.45-17.08-10.71-10.7q-17.91,15.75-36.69,30.5l11.89,9.17a132.23,132.23,0,0,1,29.15-32c7.57-6.06-3.15-16.7-10.69-10.69Z" transform="translate(-310.36 -186)"/><path class="cls-1" d="M397,227.38a51.55,51.55,0,0,1,24.29,4.88l-1.52-11.89L397.7,244c-3.31,3.54-6.43,7.84-10.19,10.89-2.52,2.1.23,1.34-2.62.63a18.06,18.06,0,0,1-6.67-4.16l-9.17,11.89a133.3,133.3,0,0,0,26.34,10.33l2.06-14.82-1.64-.44c-7.57-6-17.17,3.19-10.71,10.71a22.46,22.46,0,0,0,7.76,5.87c8.73,4,16-7.76,7.64-13.06A25.75,25.75,0,0,0,390,257.91l-2,14.86c.69,0,2,1.08,2.8,1.45a13,13,0,0,0,5.83,1.45c3.79,0,6.39-2,9.2-4.24a164.3,164.3,0,0,0,19.93-18.92c4.73-5.28,12.8-12.6,13.46-20,.86-9.57-9.35-12-16.39-14.2-9.31-2.94-13.3,11.66-4,14.6l4.35,1.37c3.16,1.69,3.61.29,1.38-4.17-.62,0-4.48,5.91-5.13,6.7q-5.26,6.3-11.13,12.15-2.73,2.7-5.58,5.3c-1.91,1.73-5.39,3.64-6.67,5.72q-3,1.93,1.12.39a23.9,23.9,0,0,0-2.61-1.47,12.65,12.65,0,0,0-6.51-1.33c-7.87.57-11,13.65-2,14.87a15.61,15.61,0,0,1,6.84,2.38l7.65-13.06a11.74,11.74,0,0,1-4.69-3.52L385.13,269a19.73,19.73,0,0,0,12.34,4.87c8.62.44,10.16-12.61,2-14.87a112.67,112.67,0,0,1-22.77-8.83c-7.29-3.78-15.84,5.87-9.17,11.89a40.91,40.91,0,0,0,15.13,8.91c6.7,1.95,12-1.63,16.4-6.31C409.64,253.51,420,242.23,430.47,231c3.09-3.29,3-9.7-1.52-11.88a67.82,67.82,0,0,0-31.94-7c-9.71.3-9.75,15.43,0,15.13Z" transform="translate(-310.36 -186)"/><path class="cls-1" d="M355.79,249.73l-6.85,9.62c-1.58,2.19-3.72,6.7-6.44,7.65-3.06,1.06-1.74,5.94,1.33,4.86s5.16-3.95,7-6.57q4.65-6.51,9.27-13c1.89-2.65-2.52-5.17-4.35-2.53Z" transform="translate(-310.36 -186)"/><path class="cls-1" d="M325.76,267q15.56,7.43,31.74,13.38c2.65,1,4.58-3.48,1.94-4.61L327.65,262c-2.91-1.26-5.52,2.9-2.52,4.35l27.06,13.26c2.89,1.41,5.41-2.75,2.52-4.37a203.73,203.73,0,0,0-19-9.43c-2.9-1.26-5.45,2.71-2.52,4.36,9.16,5.2,19.21-.19,20.27-10.54.33-3.23-4.71-3.2-5,0-.67,6.52-7.22,9.3-12.69,6.18l-2.52,4.36a200.35,200.35,0,0,1,19,9.44l2.52-4.37L327.68,262l-2.52,4.35L357,280.07l1.94-4.61q-15.56-5.7-30.53-12.86c-2.92-1.4-5.48,2.95-2.52,4.35Z" transform="translate(-310.36 -186)"/><path class="cls-1" d="M350.29,254.68c-2.52,6.31-4.23,12.47-1.34,18.92,1.34,3,5.64.39,4.37-2.52L351,265.83c-1.12-2.58-5.68-.71-4.6,2l2,5,2.43-3.19-5.54-.17c-2.59-.08-3.3,3.41-1.26,4.7a85.72,85.72,0,0,0,12.69,6.67l1.94-4.6-11.45-4.6c-2.82-1.14-4.12,3.07-1.95,4.6a41,41,0,0,0,12.53,5.89c2.94.8,4.12-3,1.94-4.62l-9.7-7.21c-2.61-1.93-5.13,2.45-2.52,4.36l9.71,7.2,1.94-4.6a36.48,36.48,0,0,1-11.34-5.37l-2,4.59,11.45,4.6c2.63,1.06,4.58-3.49,1.94-4.6a86.46,86.46,0,0,1-12.67-6.67l-1.26,4.69,5.53.17a2.52,2.52,0,0,0,2.53-2.52,2.57,2.57,0,0,0-.09-.67l-2-5-4.6,1.95,2.26,5.24,4.37-2.52c-2.23-5,0-10.35,1.84-15.13,1.2-3-3.68-4.33-4.87-1.34Z" transform="translate(-310.36 -186)"/><path class="cls-1" d="M350.06,254.33c-.26,8.41-10.7,9.26-17,9.57-3.24.15-3.26,5.2,0,5.05,9.35-.46,21.66-3,22-14.62C355.21,251.08,350.16,251.09,350.06,254.33Z" transform="translate(-310.36 -186)"/><path class="cls-1" d="M349.92,256.41A25.5,25.5,0,0,0,355,279.89c2.07,2.52,5.63-1.1,3.56-3.57a20.16,20.16,0,0,1-3.78-18.57c.87-3.13-4-4.47-4.87-1.34Z" transform="translate(-310.36 -186)"/><path class="cls-1" d="M347.92,271.57a22.21,22.21,0,0,0,9.75,9.78c2.88,1.48,5.44-2.87,2.52-4.35a17.79,17.79,0,0,1-7.95-8c-1.46-2.9-5.81-.35-4.35,2.52Z" transform="translate(-310.36 -186)"/><path class="cls-1" d="M346.47,274a25.25,25.25,0,0,0,13.45,8.83c2.29.62,4.48-2.52,2.46-4.21a94,94,0,0,0-15-10.18c-2.85-1.55-5.4,2.8-2.53,4.35a87.66,87.66,0,0,1,14,9.4l2.45-4.23a20.76,20.76,0,0,1-11.23-7.56c-2-2.53-5.55,1-3.57,3.56Z" transform="translate(-310.36 -186)"/><path class="cls-1" d="M331.85,262.45l-2.52-.67-1.94,4.62a30.23,30.23,0,0,0,21.85-.39c3-1.2,1.67-6.08-1.35-4.86a25.9,25.9,0,0,1-19.16.38c-2.66-1-4.51,3.36-2,4.62a12.86,12.86,0,0,0,5.05,1.35c3.24.23,3.23-4.81,0-5.05Z" transform="translate(-310.36 -186)"/><path class="cls-1" d="M340.39,268a33.51,33.51,0,0,0,20.18-20.18c1.12-3.05-3.79-4.36-4.86-1.33A28,28,0,0,1,339.08,263c-3,1.11-1.72,6,1.35,4.87Z" transform="translate(-310.36 -186)"/><path class="cls-1" d="M335,267.5c11.35-1,17.2-10.58,21.82-19.87,1.43-2.9-2.92-5.45-4.35-2.52-3.66,7.33-8.25,16.53-17.47,17.37-3.21.29-3.24,5.33,0,5Z" transform="translate(-310.36 -186)"/><path class="cls-1" d="M352.58,190.65a120,120,0,0,0-19.76,26c-1.58,2.83,2.77,5.38,4.37,2.53a114,114,0,0,1,18.91-25c2.3-2.3-1.26-5.87-3.57-3.57Z" transform="translate(-310.36 -186)"/><path class="cls-1" d="M355.84,192.82c13.06,5,26.14,10.16,39.09,15.5q10.24,4.23,20.39,8.71c2.92,1.26,5.85,2.62,8.75,4,1.8.83,9.23,3,10.2,4.67l.39-3.07-.16.17c-2.37,2.22,1.26,5.78,3.57,3.55l.16-.15a2.51,2.51,0,0,0,.39-3c-1.15-1.93-3.54-2.52-5.47-3.41q-5.44-2.59-10.9-5-10.15-4.59-20.44-8.83c-14.78-6.19-29.72-12-44.65-17.8-3-1.17-4.34,3.69-1.34,4.87Z" transform="translate(-310.36 -186)"/><path class="cls-1" d="M431.42,224.08a32.33,32.33,0,0,1,5.31,2.86c1.26,1,1.06.25.73,1.53s-2.21,2.84-3,3.78L425,243.79c-2,2.52,1.51,6.08,3.57,3.57l7.82-9.5c2.09-2.52,5-5.28,6.3-8.42,2.15-5.61-4.74-7.74-8.64-9.75-2.88-1.49-5.43,2.88-2.52,4.36Z" transform="translate(-310.36 -186)"/><path class="cls-1" d="M437.84,228.61a164.87,164.87,0,0,1-10.25,13.44c-2,2.52,1.5,6.08,3.57,3.57a175.94,175.94,0,0,0,11-14.47c1.79-2.71-2.52-5.24-4.36-2.52Z" transform="translate(-310.36 -186)"/><path class="cls-1" d="M321.36,226.4a19.38,19.38,0,0,1-4.2,6l3.57,3.57a38.74,38.74,0,0,0,5-7.68c1.09-2.42-1.88-5.36-4-3.06a139.89,139.89,0,0,0-9.46,11.71,2.52,2.52,0,0,0,.9,3.45h0l8.55,3.71c2.9,1.26,5.43-2.7,2.52-4.35a58.55,58.55,0,0,0-8.06-3.78c-2.9-1.14-4,3-1.94,4.6a33.84,33.84,0,0,0,8,4.45c2.7,1.08,4.35-3.2,1.94-4.62a60.62,60.62,0,0,0-8.08-3.89c-2.73-1.09-4.3,3.16-1.94,4.6l7.75,4.73c2.85,1.73,5-2.52,2.52-4.36a36.55,36.55,0,0,0-9.34-5.05c-2.74-1-4.33,3.18-1.94,4.6,3,1.82,6.38,4.71,9.91,5.28,2.68.42,4.55-3,1.94-4.62l-8.61-5.19L314,240.84c6.53,3.91,13.78,5.94,21.1,7.82,3.14.8,4.49-4.06,1.34-4.87-6.91-1.78-13.73-3.62-19.9-7.31-2.8-1.67-5.33,2.68-2.52,4.36l8.61,5.19,1.95-4.61c-3-.48-6.17-3.24-8.71-4.76l-1.94,4.61a32.09,32.09,0,0,1,8.14,4.51l2.52-4.36-7.76-4.72-1.94,4.6a53.15,53.15,0,0,1,6.89,3.41l1.94-4.62a28.94,28.94,0,0,1-6.82-3.93l-1.95,4.6a52.67,52.67,0,0,1,6.85,3.31l2.52-4.35-8.56-3.67.91,3.45a132.54,132.54,0,0,1,8.66-10.69l-4-3.05a32.35,32.35,0,0,1-4.2,6.66c-1.93,2.52,1.19,5.91,3.57,3.56a23.58,23.58,0,0,0,5-7c1.36-2.93-3-5.49-4.37-2.53Z" transform="translate(-310.36 -186)"/><path class="cls-2" d="M355.38,186.55a373.17,373.17,0,0,0-31.86,34.55q-3.66,4.43-7.26,8.89c-1.73,2.15-4.68,4.58-5.6,7.19-1.26,3.66,1.72,3.7,3.88,6.12,1.08,1.26,2.86-.57,1.79-1.78-1.73-1.93-3.28-1.46-1.89-5.27.86-2.37,4.17-5.17,5.77-7.14,3.86-4.75,7.76-9.48,11.73-14.13a332.28,332.28,0,0,1,25.22-26.64c1.19-1.12-.6-2.9-1.79-1.79Z" transform="translate(-310.36 -186)"/><path class="cls-2" d="M313.17,241.94c11.26,8.39,24.38,13,37.55,17.46,15.81,5.35,31.11,11.76,46.35,18.52,1.48.66,2.76-1.52,1.26-2.18-14.12-6.3-28.28-12.41-42.87-17.4-14.3-4.88-28.75-9.44-41-18.59-1.26-1-2.52,1.26-1.26,2.19Z" transform="translate(-310.36 -186)"/><path class="cls-2" d="M344.77,256a23.47,23.47,0,0,1-6.31,4.51c-3.47,1.59-6.43.58-9.95,0-3.18-.55-4.49,1.17-6.1,3.78-.85,1.39,1.34,2.65,2.18,1.27,2.64-4.32,8.6-.82,12.77-1.95a22.6,22.6,0,0,0,9.23-5.86c1.18-1.12-.6-2.9-1.77-1.78Z" transform="translate(-310.36 -186)"/><path class="cls-2" d="M353.48,260.33a19.62,19.62,0,0,0,.38,10.82c1.51,4.16,8,6.31,5.89,11.35-.63,1.49,1.8,2.14,2.43.67,1.08-2.52,1.37-4.67-.53-6.86-1.53-1.77-3.92-3.1-5-5.17-1.52-2.74-1.4-7.26-.68-10.18a1.26,1.26,0,0,0-2.44-.66h0Z" transform="translate(-310.36 -186)"/><path class="cls-2" d="M323,265.69c10.6,8,24.23,13,36.57,17.73,1.52.58,2.17-1.85.68-2.43-12.05-4.68-25.49-9.65-35.91-17.48-1.26-1-2.52,1.26-1.26,2.18Z" transform="translate(-310.36 -186)"/><path class="cls-2" d="M399.27,277.55c10.66-9.08,21.37-18.21,30.66-28.73a120.47,120.47,0,0,0,11.24-14.69c2.09-3.25,4.66-6.47,2.83-10.3-.7-1.46-2.87-.18-2.18,1.26,2.08,4.34-7.9,15-10.2,17.87-3.16,3.87-6.56,7.56-10.09,11.12-7.56,7.67-15.83,14.68-24.06,21.66-1.26,1.06.56,2.84,1.8,1.79Z" transform="translate(-310.36 -186)"/><path class="cls-2" d="M356.61,188.57l41.92,17.34,20.41,8.44,10.2,4.21c3.52,1.45,10,2.7,11.75,6.2.73,1.45,2.91.18,2.18-1.26-2.36-4.65-10-6-14.39-7.84l-23.8-9.88L357.27,186.1c-1.5-.62-2.15,1.82-.66,2.43Z" transform="translate(-310.36 -186)"/><path class="cls-3" d="M355.85,191.75q-20,21.57-38.46,44.4c-1,1.26.76,3,1.78,1.79q18.52-22.84,38.47-44.41C358.74,192.34,357,190.55,355.85,191.75Z" transform="translate(-310.36 -186)"/><path class="cls-3" d="M318.89,237.9a585.13,585.13,0,0,0,78.29,33.25c1.54.53,2.2-1.91.67-2.43a580.66,580.66,0,0,1-77.69-33c-1.45-.75-2.72,1.44-1.26,2.18Z" transform="translate(-310.36 -186)"/><path class="cls-3" d="M398.71,270.76c13.19-14.35,28.41-26.72,40.35-42.23,1-1.26-1.2-2.52-2.18-1.26C425.12,242.6,410,254.81,396.94,269c-1.09,1.2.69,3,1.8,1.79Z" transform="translate(-310.36 -186)"/><path class="cls-3" d="M356.8,193.58c25.91,13.72,53.27,24.26,80.62,34.7,1.53.58,2.18-1.85.67-2.42-27.15-10.38-54.3-20.85-80-34.46-1.44-.76-2.71,1.42-1.26,2.18Z" transform="translate(-310.36 -186)"/><path class="cls-3" d="M357.29,194.62q31.51,14.61,62.81,29.84c1.45.7,2.73-1.48,1.26-2.18q-31.25-15.24-62.8-29.83c-1.46-.68-2.74,1.49-1.26,2.17Z" transform="translate(-310.36 -186)"/><path class="cls-3" d="M368.91,221.52a118.11,118.11,0,0,0,10.09-9c4.67-4.71-2.19-11.14-7.14-7.13a147.31,147.31,0,0,0-28.68,31.29c-3.33,4.87,3.88,9.93,7.92,6.12,9.26-8.73,18.57-17.35,29.41-24.08l-6.19-7.87q-11.47,13.63-22.81,27.37l7.14,7.14a121.21,121.21,0,0,1,30.57-26.66l-6.91-6.89c-7.15,10.5-17,18.91-23,30.18-2.8,5.24,3.59,9.73,7.92,6.12a342.68,342.68,0,0,1,28.39-21.2l-5-8.7a81.48,81.48,0,0,0-22.29,23.58c-2.74,4.4,2.62,9.28,6.91,6.9,9.76-5.42,17.33-15,28.34-18l-4.92-8.42c-8.32,8.53-17.22,16.78-23.42,27.07-2.44,4,2.73,10.09,6.91,6.91,10.44-7.94,20.66-16.39,32.52-22.22l-6.17-8c-8.64,8.23-17.88,16.09-25,25.71-3.55,4.8,3.88,9.76,7.92,6.12,8.54-7.7,17.09-15.21,27.15-20.86l-6.1-7.92L387.83,250.4l7.14,7.13,23.12-22.74c4.2-4.12-1.12-10.51-6.11-7.92q-4.64,2.43-9.5,4.4c-1.26.53-2.67,1-4,1.49s-4.14.37-1.77,1l3.53,3.52-.29-1-.5,3.88c2.45-4.78,8.83-7,13.87-7.26,4.53-.27,7.45-7.15,2.52-9.4l-19.43-8.86L393.87,224a29.77,29.77,0,0,1,15,5.58l5-8.72c-5.94-3-13.28-5.57-18.07-10.31l-6.09,7.84a88.73,88.73,0,0,0,11.21,5.05l1.34-9.9c-4.42-.59-6.78-2.61-10.34-4.81a38,38,0,0,0-8.83-3.46q-12.09-3.72-24.19-7.36l3.71,4.87.37-3.6-8.62,3.56a35.92,35.92,0,0,0,12.84,9.35c4.73,2,11-3.92,6.12-7.92a18.81,18.81,0,0,1-4.09-4.4l-5.7,7.41a12.14,12.14,0,0,1,5.56,3.13l7.13-7.05A27.6,27.6,0,0,0,361,195.7c-6.3-.92-9.09,8.82-2.68,9.72a18.71,18.71,0,0,1,10.79,5c4.72,4.47,11.86-2.65,7.13-7.12a22.74,22.74,0,0,0-10-5.73c-4.08-1.16-8.17,3.67-5.7,7.4a28.5,28.5,0,0,0,5.66,6.44l6.12-7.92a28.73,28.73,0,0,1-10.77-7.75c-3.18-3.6-8.21-.4-8.62,3.57l-.36,3.61c-.23,2.21,1.73,4.26,3.71,4.85,8.71,2.65,17.5,5.12,26.16,8,3.57,1.16,5.85,3.33,9,5.16s7.12,2.36,10.84,2.86c6,.8,6.3-8.08,1.35-9.91a68.89,68.89,0,0,1-8.83-4c-5-2.66-10.29,3.78-6.12,7.92,5.53,5.47,13.29,8.42,20.18,11.9,5.82,3,10.4-5,5-8.71A39.78,39.78,0,0,0,393.84,214c-4.86-.39-7,7.33-2.52,9.39l19.39,8.84,2.53-9.39c-7.22.43-25,5.95-23.05,16.15,2.2,11.25,21.75-.7,26.87-3.35l-6.12-7.93-23.17,22.69c-4.7,4.59,2.28,11.35,7.13,7.14l24.58-21.35c4.42-3.78-1.26-10.65-6.1-7.92-10.8,6.06-20.07,14.19-29.21,22.44l7.92,6.11c6.56-8.82,15.5-16.11,23.44-23.67,4.34-4.13-1.16-10.34-6.11-7.91-11.84,5.78-22.08,14.26-32.52,22.2l6.89,6.9c5.74-9.52,14.15-17.14,21.86-25a5.05,5.05,0,0,0-4.91-8.44c-12.1,3.32-20.07,13.1-30.75,19l6.89,6.91a68.83,68.83,0,0,1,18.68-20c5.22-3.7.36-12.36-5.05-8.7a363.39,363.39,0,0,0-30.42,22.69L368,247c6-11.26,15.9-19.7,23-30.2,2.89-4.24-2.73-9.45-6.89-6.9a129.75,129.75,0,0,0-32.61,28.23c-4.09,5,3,12.15,7.13,7.14q11.35-13.74,22.8-27.37c3.5-4.15-.93-11.14-6.11-7.92-11.58,7.18-21.58,16.39-31.45,25.66l7.92,6.11a137.7,137.7,0,0,1,27.11-29.25l-7.14-7.14a112,112,0,0,1-10.09,9c-5,4,2.11,11.14,7.13,7.14Z" transform="translate(-310.36 -186)"/><path class="cls-3" d="M366.78,217l2.13-2.64c4-5-2.32-11.71-7.13-7.14a202.39,202.39,0,0,0-22.94,26.09l8.71,5c4.84-10.85,12.5-19.52,20.72-27.93,4.55-4.66-2.43-11.63-7.12-7.14A244.81,244.81,0,0,0,337,229.93l7.92,6.12c5.28-10.19,12.52-18.92,20-27.54a5,5,0,0,0-7.14-7.14A131.78,131.78,0,0,0,335,226l8.71,5c4.26-9.39,12-17.3,18.44-25.3,4-5-2.36-11.77-7.14-7.13a148.23,148.23,0,0,0-21.44,26.27c-3.51,5.49,5.14,10.45,8.72,5a229.15,229.15,0,0,1,19.09-24.6c4.27-4.83-2.52-11.8-7.14-7.14-6.78,6.89-13.38,13.87-18.36,22.22-3.37,5.64,5,10.4,8.71,5l14.38-21.16c3.28-4.82-3.92-10.08-7.92-6.11A83.38,83.38,0,0,0,337.15,216c-3.32,5.74,5,10.26,8.71,5.05,2.42-3.36,5-6.55,7.68-9.67,4.21-4.87-2.65-11.92-7.12-7.14A141.38,141.38,0,0,0,329.82,226l8.72,5a86,86,0,0,1,8.34-11.64l-8-6q-6.54,8.63-12.74,17.51l8.72,5a45.62,45.62,0,0,1,4.6-6.46c4.21-4.88-2.8-12-7.12-7.14a54.81,54.81,0,0,0-7,9.78c-1.68,3,.36,8.08,4.35,7.56,2.33-.27,4.65,2.36,6.45,3.45a47.38,47.38,0,0,0,6.31,2.91l2.68-9.74a30.58,30.58,0,0,1-8.33-3.07c-5.69-3.14-10.77,5.55-5,8.71a33.8,33.8,0,0,0,14.94,4.29c5.68.34,6.84-8.58,1.35-9.9l-6.95-1.69c-6.31-1.53-8.9,7.84-2.69,9.73a67.57,67.57,0,0,0,16.08,2.78V237a14.65,14.65,0,0,1-6.22-1.26l-2.68,9.72a49,49,0,0,0,15.45,2.22c5.8-.09,6.7-8.13,1.34-9.91a48.79,48.79,0,0,0-10.56-2.16v10.09c5.57-.23,10.5,3,16.2,2.37,4.81-.52,7.07-6.57,2.52-9.39a26.92,26.92,0,0,0-8.82-3.62c-6.4-1.39-8.83,7.56-2.69,9.72a35.68,35.68,0,0,0,11.75,2.09c4.21.08,6.86-5.67,3.56-8.61a7.42,7.42,0,0,0-5.21-2.14c-6.48-.31-6.47,9.78,0,10.09h.95l-3.7-1.37.71.62,3.57-8.61a27,27,0,0,1-9.07-1.73l-2.66,9.72a19.23,19.23,0,0,1,6.46,2.61l2.52-9.4c-5.53.6-10.59-2.61-16.21-2.37-6.59.27-6.3,9.43,0,10.08a35.48,35.48,0,0,1,7.88,1.81l1.34-9.91a40.33,40.33,0,0,1-12.76-1.86c-6.38-2-8.49,7.32-2.69,9.72a22,22,0,0,0,8.91,1.68c6.53,0,6.45-9.75,0-10.09A54.84,54.84,0,0,1,341,234.72l-2.69,9.74,6.95,1.67,1.33-9.91a21.84,21.84,0,0,1-9.86-2.91l-5,8.71a39.44,39.44,0,0,0,10.74,4.11c6.48,1.44,8.6-7.33,2.69-9.73-5.22-2.11-9.4-7.44-15.4-6.71l4.37,7.57a42.25,42.25,0,0,1,5.41-7.73l-7.15-7.18a59.32,59.32,0,0,0-6.2,8.51c-3.36,5.67,5.05,10.34,8.72,5q6.18-8.83,12.73-17.5c3.45-4.54-4.21-10.47-7.92-6.12A103.54,103.54,0,0,0,329.82,226c-3.38,5.58,5.27,10.59,8.72,5a125.83,125.83,0,0,1,15.13-19.64l-7.13-7.14c-3.26,3.78-6.3,7.68-9.26,11.71l8.71,5a73,73,0,0,1,12.28-15.81l-7.93-6.12L336,220.21l8.72,5c4.55-7.56,10.59-13.87,16.78-20.17l-7.14-7.14a253,253,0,0,0-20.71,27l8.71,5.05a136.11,136.11,0,0,1,19.81-24.19L355,198.66c-6.91,8.62-15.41,17.19-20,27.35a5,5,0,0,0,8.71,5A121,121,0,0,1,365,208.52l-7.14-7.14C349.87,210.66,342,220,336.3,231c-2.52,4.8,4.23,10.87,7.92,6.12a246.79,246.79,0,0,1,24.1-26.68l-7.17-7.14c-8.83,9-17.15,18.41-22.31,30a5,5,0,0,0,8.71,5.05,186.88,186.88,0,0,1,21.36-24l-7.13-7.14-2.13,2.64C355.61,214.86,362.7,222,366.78,217Z" transform="translate(-310.36 -186)"/><path class="cls-3" d="M391.61,256.76c4.25-1.37,7.24-4.47,10.58-7.33l13.19-11.35L408.22,231l-17.05,22c-3.85,5,2.74,12.12,7.14,7.14,6.53-7.39,13.26-14.26,22.24-18.64l-6.12-7.91c-9.62,7.56-19.12,15.19-26.65,24.91-3.47,4.49.69,10.48,6.11,7.92,5.05-2.36,8.44-7,12.35-10.72a144.51,144.51,0,0,1,15.87-13.25c5.2-3.78.28-12.47-5-8.71-7.78,5.44-14.93,11.35-19.71,19.71-2.91,5,3.71,9.88,7.92,6.11l16.75-15c4.19-3.78-1.45-11.35-6.11-7.92a82,82,0,0,0-17.8,18.3c-3.32,4.59,4.36,10.59,7.93,6.12,6.17-7.76,15.41-12.69,19.54-22,2.6-5.89-6.09-11-8.71-5-3.78,8.43-12.37,12.93-18,20l7.92,6.12A66.23,66.23,0,0,1,421,245.45l-6.11-7.92-16.74,14.91,7.92,6.12c3.89-6.83,9.72-11.64,16.07-16.09l-5-8.72a172.34,172.34,0,0,0-14.72,11.83c-4.31,3.9-8.22,9.66-13.51,12.16l6.11,7.91c7.57-9.72,17-17.38,26.66-24.93,4.75-3.71-1.26-10.26-6.12-7.91-9.67,4.72-17.22,12.23-24.28,20.17l7.13,7.14,17.05-22c3.91-5.05-2.09-11.47-7.13-7.14l-9.68,8.31c-2.72,2.33-6.21,6.66-9.63,7.77-6.15,2-3.53,11.74,2.67,9.72Z" transform="translate(-310.36 -186)"/><path class="cls-3" d="M423,242.59l10.87-11.35c1.12-1.17-.65-2.94-1.79-1.78A114.17,114.17,0,0,0,420,243.88c-.83,1.17,1,2.52,2,1.52l12.37-13.34a1.27,1.27,0,0,0-1.53-2,63.72,63.72,0,0,0-10.59,8.14c-1.2,1.12.56,2.82,1.78,1.77q6.3-5.44,12.42-11.16a1.25,1.25,0,0,0,0-1.78,1.22,1.22,0,0,0-.25-.2c-3.43-2.4-8.14-2.33-12.19-2.86v2.52a8.71,8.71,0,0,1,6.08,1.58l1.26-2.18-10.55-4.55-1,2.3c2.12.51,7.39.91,8.83,2.79l1.09-1.89c-3.06,0-10.74.77-12.42-2.31l-1.7,1.75a26.85,26.85,0,0,0,6.42,2.45,1.26,1.26,0,0,0,1.46-1,1.25,1.25,0,0,0-.79-1.4l-9.54-3.3a1.26,1.26,0,0,0-1,2.3,120.59,120.59,0,0,0,16.75,7.78c1.39.51,2.14-1.56,1-2.29-1.93-1.26-13.81-8.7-14.8-3.68a1.25,1.25,0,0,0,.32,1.26c3.95,3.12,10.37,3.06,15.13,2.42,1.27-.17,1.19-2.25,0-2.44-4.95-.79-14.47-1.55-17.32,3.72a1.26,1.26,0,0,0,.44,1.73,1.21,1.21,0,0,0,.64.18A37.58,37.58,0,0,0,429,228.48c1.39-.59.34-2.52-1-2.31a70.38,70.38,0,0,0-14,4.38c-1.37.58-.34,2.52,1,2.29,3.88-.78,7.75-1.64,11.58-2.59,2.16-.55,4.28-.79,5.7-2.53a1.26,1.26,0,0,0-1.26-2.1c-4.46.77-8.7,1.7-12.61,4.11-1,.62-.68,2.52.65,2.36A39.19,39.19,0,0,0,432.84,228c1.48-.74.18-2.81-1.26-2.18a84.85,84.85,0,0,0-10.2,5.17c-1.62,1-3.2,1.61-3.69,3.5a1.26,1.26,0,0,0,1.84,1.43l13.69-6.82L432,227c-4.26,2.71-8.43,5.51-12.61,8.43a1.26,1.26,0,0,0,1.26,2.17l12-6.82-1.27-2.18q-7.44,5-14.51,10.64c-1.12.88.34,2.76,1.53,2a82.74,82.74,0,0,1,13.4-7.22l-1.26-2.19L411.37,246c-1.26,1,0,3.15,1.26,2.18L431.76,234a1.26,1.26,0,0,0-1.26-2.19A83.58,83.58,0,0,0,417.1,239l1.52,2q6.84-5.37,14-10.24a1.26,1.26,0,0,0-1.26-2.18l-12,6.83,1.26,2.17q6.17-4.37,12.61-8.43A1.26,1.26,0,0,0,432,227l-13.55,6.77,1.84,1.42c.43-1.6,5-3.44,6.38-4.16,2.08-1.09,4.21-2.07,6.37-3l-1.26-2.18a35.57,35.57,0,0,1-12.45,3.71l.63,2.34c3.78-2.33,7.7-3.12,12-3.86l-1.26-2.1c-1.53,1.9-6,2.27-8.15,2.77-2.66.63-5.35,1.2-8,1.74l1,2.31a67.51,67.51,0,0,1,13.34-4.11l-1-2.31a34.52,34.52,0,0,1-13.51,2.84l1.09,1.89c2.14-4,11-3.13,14.49-2.52v-2.44A22.56,22.56,0,0,1,422,226c-.39-.08-4.64-1.88-3.1.2.55.75,5,1.95,5.6,2.22a45.75,45.75,0,0,1,4.13,2.36l1-2.3a120.35,120.35,0,0,1-16.14-7.57l-1,2.31,9.54,3.29.66-2.42a26.14,26.14,0,0,1-5.81-2.2,1.26,1.26,0,0,0-1.73.44,1.27,1.27,0,0,0,0,1.28c2.53,4.56,10.38,3.53,14.61,3.56a1.27,1.27,0,0,0,1.26-1.26,1.25,1.25,0,0,0-.18-.65c-2.3-3-6.89-3.11-10.34-3.94-1.32-.33-2.35,1.71-1,2.29l10.55,4.57a1.28,1.28,0,0,0,1.71-.53,1.26,1.26,0,0,0-.45-1.65A9.69,9.69,0,0,0,424,224a1.26,1.26,0,1,0,0,2.52c3.62.47,7.86.37,10.91,2.52l-.25-2q-6.09,5.7-12.41,11.16L424,240a60.67,60.67,0,0,1,10.09-7.73l-1.53-2-12.42,13.29,2,1.53a112.48,112.48,0,0,1,11.73-13.87l-1.79-1.78-10.87,11.35c-1.13,1.16.65,2.95,1.79,1.78Z" transform="translate(-310.36 -186)"/><path class="cls-3" d="M332.87,221.7a40.77,40.77,0,0,0-10.08,11.53l2.3,1c1.86-4.66,5.75-7.76,9.64-10.7l-1.53-2q-5.22,5.33-10.73,10.33l2.11,1.26.31-.45-2.1-1.26c-.73,2-4,1.66-2.4,4.88s8.45.51,9.33,2.82l1.55-1.55q-5.22-1.29-10.31-2.94a1.26,1.26,0,0,0-1,2.31l13.57,7.78,1.26-2.18a52.2,52.2,0,0,1-9-5.5l-1,2.31,14.49,5.79c1.51.59,2.17-1.85.67-2.44l-14.49-5.79c-1.44-.56-2,1.53-1,2.31a52.11,52.11,0,0,0,9,5.5c1.45.69,2.7-1.36,1.26-2.18l-13.56-7.74-1,2.3c3.42,1.1,6.85,2.08,10.33,2.94.84.2,1.9-.62,1.55-1.55-.92-2.38-2.52-3.1-5-3-.71,0-2.1.6-2.73.36L323,234.42l.8-.42c.51-.87,1.08-.8,1.47-1.89.47-1.26-1.26-2-2.1-1.26a2.55,2.55,0,0,0-1,1.57A1.26,1.26,0,0,0,323,234a1.28,1.28,0,0,0,1.29-.32q5.52-5.06,10.73-10.33c1-1-.34-2.88-1.52-2-4.51,3.42-8.66,6.83-10.8,12.21-.54,1.34,1.59,2.16,2.3,1a39,39,0,0,1,9.72-11c1.26-1-.52-2.77-1.78-1.78Z" transform="translate(-310.36 -186)"/><path class="cls-3" d="M325.18,235.62l-.4-.56-.74,1.86a6.28,6.28,0,0,1,4.59.21c1.58.52,2.11-1.83.66-2.43A22.74,22.74,0,0,0,322,233a1.26,1.26,0,0,0-.65,2.34,56.77,56.77,0,0,0,21.52,7.24c1.6.22,1.59-2.32,0-2.52a53.39,53.39,0,0,1-20.24-6.9l-.63,2.36a20.45,20.45,0,0,1,6.61,1.6l.66-2.43a10.45,10.45,0,0,0-5.94-.22,1.26,1.26,0,0,0-.87,1.56,1.94,1.94,0,0,0,.13.3l.39.55c.93,1.26,3.12,0,2.18-1.26Z" transform="translate(-310.36 -186)"/><path class="cls-3" d="M345.84,242.35a36.17,36.17,0,0,1-10.09-1.26,1.26,1.26,0,1,0-.68,2.43h0l30.4,11.59.67-2.43c-9-2.9-18.6-5.18-26.95-9.66l-1,2.29,34,13.51c1.26.53,2.25-1.66,1-2.31-9.68-4.87-20.88-5.95-30-12.07l-1.26,2.17a169.79,169.79,0,0,0,33.83,14.83,1.27,1.27,0,0,0,1.56-.86,1.25,1.25,0,0,0-.59-1.44c-9.18-5.6-19.63-8.83-29.64-12.61-1.26-.51-2.27,1.72-1,2.3q20.65,9.1,41.8,17l.66-2.44c-11.34-4.17-23.47-7.64-33.61-14.47l-1,2.29,40.35,16.1c1.26.53,2.23-1.65,1-2.3-14.88-7.65-32.36-10-45.6-20.71l-1.52,2q19.74,9.3,40,17.3c1.53.59,2.15-1.83.67-2.43-7.57-3.1-15.13-6.21-22.56-9.48-6.8-3-13.87-5.81-19.44-10.79l-1.53,2a367.18,367.18,0,0,0,44.29,20.4c1.52.58,2.17-1.85.66-2.43-15-5.78-30-11.74-43.18-21.19l-1.26,2.17,44.47,20.34,1-2.31c-13.58-5.22-27.08-10.57-39.48-18.28l-1.26,2.17c13.39,6.4,26.79,12.72,40.68,18l.67-2.44c-12.37-4.59-24.66-9.35-35.31-17.3l-1.26,2.19,36,16.17,1-2.29c-12.27-5.15-24.5-10.35-36.27-16.61l-1,2.31,36.48,14.8.67-2.43c-12.93-5-25.79-10-37.83-16.81l-1,2.3,32.6,12.61c1.33.51,2.23-1.66,1-2.31l-29.21-15.13-1,2.3c11.6,4.54,23.22,9,35.31,12.06a1.27,1.27,0,0,0,.67-2.44c-12.1-3.06-23.71-7.56-35.31-12.05-1.34-.52-2.23,1.65-1,2.31l29.2,15.13,1-2.31-32.58-12.61c-1.35-.52-2.21,1.63-1,2.31,12.28,6.91,25.34,12,38.47,17.07,1.52.58,2.14-1.83.67-2.43l-36.43-14.8c-1.33-.53-2.22,1.65-1,2.3,11.95,6.31,24.4,11.63,36.87,16.85,1.26.55,2.27-1.72,1-2.3l-36-16.19a1.26,1.26,0,0,0-1.26,2.19c10.83,8.07,23.34,12.88,35.91,17.55,1.53.55,2.17-1.87.67-2.44-13.68-5.17-26.88-11.42-40.07-17.65a1.26,1.26,0,0,0-1.26,2.17c12.6,7.83,26.3,13.25,40.08,18.55,1.33.52,2.27-1.72,1-2.31l-44.7-20.38a1.26,1.26,0,0,0-1.26,2.17c13.35,9.57,28.56,15.6,43.79,21.44l.67-2.43a362,362,0,0,1-43.68-20.18c-1.26-.66-2.65,1-1.52,2,5.78,5.14,12.92,8.07,19.94,11.16,7.67,3.38,15.43,6.56,23.17,9.75l.67-2.44q-20-7.89-39.43-17c-1.26-.55-2.73,1-1.53,2,13.48,10.9,31,13.35,46.1,21.11l1-2.3L354.6,248.78c-1.4-.55-2.09,1.57-1,2.31,10.32,7,22.63,10.49,34.22,14.74,1.53.56,2.17-1.87.67-2.43q-20.82-7.81-41.19-16.77l-1,2.3c9.82,3.71,20.07,6.91,29,12.39l1-2.3a167.22,167.22,0,0,1-33.24-14.56,1.26,1.26,0,0,0-1.26,2.17c9.11,6.15,20.26,7.2,30,12.08l1-2.31-34-13.49c-1.33-.53-2.22,1.62-1,2.29,8.55,4.6,18.34,7,27.54,9.93,1.57.5,2.16-1.86.67-2.44l-30.36-11.6-.68,2.43a38.81,38.81,0,0,0,10.83,1.35,1.26,1.26,0,1,0,0-2.52Z" transform="translate(-310.36 -186)"/><path class="cls-3" d="M401.09,257.48a24.46,24.46,0,0,0-8.37,8.75,1.27,1.27,0,0,0,.46,1.73,1.38,1.38,0,0,0,.63.17c2.19.29,4.22-1.78,5.86-3,2.08-1.55,4.06-3.2,6-4.94a1.26,1.26,0,0,0-1.27-2.1c-2.37.59-3.92,2.33-5.63,4-1.41,1.36-3.65,2.79-3.38,5a1.26,1.26,0,0,0,1.89,1.1,17.75,17.75,0,0,0,7.57-6.31,1.26,1.26,0,0,0-.45-1.72,1.19,1.19,0,0,0-.64-.18c-3.67.44-6.3,4.27-8.13,7.16a1.26,1.26,0,0,0,.44,1.73,1.29,1.29,0,0,0,1.29,0,19,19,0,0,0,4.13-3.41c1.1-1.19-.67-3-1.78-1.77-1.75,1.86-4.47,2.05-5.86,4.4a1.26,1.26,0,0,0,1.73,1.72l2.17-1.07c1.19-.59.51-2.28-.65-2.35a7.23,7.23,0,0,1-4.93-2.29c-1.13-1.14-2.92.63-1.77,1.79a9.8,9.8,0,0,0,6.7,3l-.63-2.35-2.17,1.07,1.73,1.73c1.12-1.92,3.94-2.27,5.46-3.9l-1.78-1.77a16.92,16.92,0,0,1-3.63,3l1.73,1.73c1.15-1.82,3.52-5.63,5.95-5.92l-1.1-1.89A15.45,15.45,0,0,1,396,266l1.9,1.08c-.14-1.18,2.32-2.89,3-3.55a9.53,9.53,0,0,1,4.13-3l-1.26-2.11c-1.64,1.48-3.3,2.92-5,4.25-1.15.86-3.46,3.16-5.05,2.95l1.09,1.91a21.39,21.39,0,0,1,7.48-7.84c1.37-.86.1-3.06-1.26-2.19Z" transform="translate(-310.36 -186)"/><path class="cls-1" d="M315.71,238.09q40,19.23,81.6,34.63c1.53.55,2.18-1.88.68-2.44Q356.68,255,317,235.91c-1.47-.71-2.74,1.47-1.26,2.18Z" transform="translate(-310.36 -186)"/><path class="cls-4" d="M409.33,216.87q-21.43,10-43.61,18.39c-1.5.58-.84,3,.68,2.44q22.44-8.52,44.2-18.65c1.48-.68.19-2.86-1.26-2.18Z" transform="translate(-310.36 -186)"/><path class="cls-4" d="M411.79,222.3q-10.44,5.59-21.35,10.2a1.28,1.28,0,1,0,.33,2.53h.69c1.61.11,1.61-2.41,0-2.53h-.69l.34,2.53c7.47-3.16,14.79-6.62,21.95-10.47,1.43-.76.15-2.94-1.26-2.17Z" transform="translate(-310.36 -186)"/><path class="cls-5" d="M440.6,228.77a277.78,277.78,0,0,1-42.48,44.69c-.63.52.26,1.41.88.88a277.23,277.23,0,0,0,42.68-44.94c.5-.64-.6-1.26-1.08-.63Z" transform="translate(-310.36 -186)"/><path class="cls-5" d="M399.18,269.9a28.51,28.51,0,0,0-1.86,4.68.66.66,0,0,0,.47.8.65.65,0,0,0,.79-.47,27.29,27.29,0,0,1,1.73-4.36c.35-.72-.73-1.36-1.1-.65Z" transform="translate(-310.36 -186)"/><path class="cls-5" d="M353,260.11a15.09,15.09,0,0,0-.64,10.36.64.64,0,0,0,.8.46.65.65,0,0,0,.46-.8,13.65,13.65,0,0,1,.5-9.38c.32-.74-.76-1.39-1.08-.64Z" transform="translate(-310.36 -186)"/><path class="cls-5" d="M353.92,273a1,1,0,0,0-.4,1.43,1,1,0,0,0,.4.4,1,1,0,0,0,1.36-.53,1,1,0,0,0,0-.73c-.25-.77-1.48-.44-1.26.34l.5.2c.74-.34.1-1.42-.64-1.09Z" transform="translate(-310.36 -186)"/><path class="cls-5" d="M356.52,275.78h0l.77.1.07.14-.06.49v-.06l-.54.3h.17l-.44-.18a11.27,11.27,0,0,1,2.41,3.35c.39.7,1.48.07,1.09-.65a17.67,17.67,0,0,0-1.5-2.32c-.46-.59-.93-1.42-1.73-1.47a.62.62,0,0,0-.54.31.72.72,0,0,0,.13,1,.65.65,0,0,0,.77.1h0c.66-.46,0-1.56-.64-1.08Z" transform="translate(-310.36 -186)"/><path class="cls-5" d="M395.71,206.14A323.44,323.44,0,0,1,438.52,224c.72.36,1.36-.72.63-1.09A324.7,324.7,0,0,0,396,204.93c-.77-.27-1.1.95-.33,1.26Z" transform="translate(-310.36 -186)"/><path class="cls-5" d="M440.68,226.06a1.18,1.18,0,0,1,.59,1.4.64.64,0,0,0,.46.8.65.65,0,0,0,.8-.46,2.44,2.44,0,0,0-1.17-2.82c-.72-.4-1.35.69-.65,1.08Z" transform="translate(-310.36 -186)"/></svg>