<svg xmlns="http://www.w3.org/2000/svg" xmlns:xlink="http://www.w3.org/1999/xlink" viewBox="0 0 801.63 739"><defs><style>.cls-1{opacity:0.62;}.cls-2{fill:url(#radial-gradient);}.cls-3{fill:none;stroke:#3fc5d6;stroke-width:30px;}.cls-10,.cls-11,.cls-12,.cls-13,.cls-14,.cls-15,.cls-3,.cls-4,.cls-5,.cls-6,.cls-7,.cls-8,.cls-9{stroke-miterlimit:10;}.cls-4{stroke:blue;stroke-width:6px;fill:url(#linear-gradient);}.cls-10,.cls-11,.cls-12,.cls-13,.cls-14,.cls-15,.cls-5,.cls-6,.cls-7,.cls-8,.cls-9{stroke:#000;}.cls-10,.cls-11,.cls-12,.cls-13,.cls-14,.cls-15,.cls-5{stroke-width:7px;}.cls-5{fill:url(#linear-gradient-2);}.cls-6{stroke-width:6.23px;}.cls-7{stroke-width:2px;}.cls-8{stroke-width:3px;}.cls-9{stroke-width:10px;fill:url(#linear-gradient-3);}.cls-10{fill:#606060;}.cls-11{fill:url(#linear-gradient-4);}.cls-12{fill:url(#linear-gradient-5);}.cls-13{fill:url(#linear-gradient-6);}.cls-14{fill:url(#linear-gradient-7);}.cls-15{fill:url(#linear-gradient-8);}.cls-16{fill:url(#linear-gradient-9);}.cls-17{opacity:0.71;}.cls-18{fill:#fff;}</style><radialGradient id="radial-gradient" cx="432.13" cy="369.5" r="354.5" gradientUnits="userSpaceOnUse"><stop offset="0" stop-color="#94fdff" stop-opacity="0.13"/><stop offset="0.09" stop-color="#94fdff" stop-opacity="0.16"/><stop offset="0.24" stop-color="#94fcff" stop-opacity="0.25"/><stop offset="0.42" stop-color="#94faff" stop-opacity="0.38"/><stop offset="0.62" stop-color="#94f8ff" stop-opacity="0.58"/><stop offset="0.85" stop-color="#94f6ff" stop-opacity="0.82"/><stop offset="1" stop-color="#94f4ff"/></radialGradient><linearGradient id="linear-gradient" x1="221.11" y1="578.41" x2="511.34" y2="730.01" gradientUnits="userSpaceOnUse"><stop offset="0" stop-color="#1572ff"/><stop offset="0.05" stop-color="#197aff"/><stop offset="0.13" stop-color="#238fff"/><stop offset="0.22" stop-color="#34b2ff"/><stop offset="0.32" stop-color="#4ce3ff"/><stop offset="0.34" stop-color="#51edff"/><stop offset="0.4" stop-color="#63eeff"/><stop offset="0.52" stop-color="#91f1ff"/><stop offset="0.68" stop-color="#dcf5ff"/><stop offset="0.69" stop-color="#ddf5ff"/><stop offset="1" stop-color="#fff"/></linearGradient><linearGradient id="linear-gradient-2" x1="495.48" y1="690.73" x2="644.39" y2="690.73" gradientTransform="translate(566.75 -211.41) rotate(45)" gradientUnits="userSpaceOnUse"><stop offset="0.01" stop-color="#949494"/><stop offset="1" stop-color="#00282a"/></linearGradient><linearGradient id="linear-gradient-3" x1="444.93" y1="436.45" x2="696.97" y2="436.45" gradientTransform="translate(566.75 -211.41) rotate(45)" gradientUnits="userSpaceOnUse"><stop offset="0" stop-color="#d8b8ff"/><stop offset="0.04" stop-color="#dfc5ff"/><stop offset="0.15" stop-color="#eddfff"/><stop offset="0.26" stop-color="#f7f1ff"/><stop offset="0.37" stop-color="#fdfbff"/><stop offset="0.5" stop-color="#fff"/><stop offset="0.62" stop-color="#fdfbff"/><stop offset="0.74" stop-color="#f6efff"/><stop offset="0.86" stop-color="#ebdbff"/><stop offset="0.97" stop-color="#dcbfff"/><stop offset="1" stop-color="#d8b8ff"/></linearGradient><linearGradient id="linear-gradient-4" x1="473.77" y1="657.64" x2="656.61" y2="657.64" gradientTransform="translate(566.75 -211.41) rotate(45)" gradientUnits="userSpaceOnUse"><stop offset="0" stop-color="#a70017"/><stop offset="0.15" stop-color="#a30016"/><stop offset="0.3" stop-color="#960015"/><stop offset="0.46" stop-color="#810012"/><stop offset="0.62" stop-color="#64000e"/><stop offset="0.79" stop-color="#3e0009"/><stop offset="0.95" stop-color="#110002"/><stop offset="1"/></linearGradient><linearGradient id="linear-gradient-5" x1="547.99" y1="708.7" x2="601.7" y2="708.7" gradientTransform="translate(566.75 -211.41) rotate(45)" gradientUnits="userSpaceOnUse"><stop offset="0" stop-color="#a70017"/><stop offset="0.14" stop-color="#a20016"/><stop offset="0.3" stop-color="#950015"/><stop offset="0.46" stop-color="#7f0011"/><stop offset="0.63" stop-color="#60000d"/><stop offset="0.8" stop-color="#380008"/><stop offset="0.98" stop-color="#070001"/><stop offset="1"/></linearGradient><linearGradient id="linear-gradient-6" x1="396.77" y1="698.71" x2="492.46" y2="698.71" gradientTransform="translate(566.75 -211.41) rotate(45)" gradientUnits="userSpaceOnUse"><stop offset="0" stop-color="#a70017"/><stop offset="0.12" stop-color="#a10016"/><stop offset="0.28" stop-color="#900014"/><stop offset="0.46" stop-color="#730010"/><stop offset="0.66" stop-color="#4c000a"/><stop offset="0.87" stop-color="#1a0004"/><stop offset="0.97"/></linearGradient><linearGradient id="linear-gradient-7" x1="647.77" y1="698.71" x2="743.46" y2="698.71" gradientTransform="translate(566.75 -211.41) rotate(45)" gradientUnits="userSpaceOnUse"><stop offset="0" stop-color="#a70017"/><stop offset="0.17" stop-color="#a30017"/><stop offset="0.33" stop-color="#990015"/><stop offset="0.48" stop-color="#860012"/><stop offset="0.62" stop-color="#6c000f"/><stop offset="0.76" stop-color="#4b000a"/><stop offset="0.9" stop-color="#230005"/><stop offset="1"/></linearGradient><linearGradient id="linear-gradient-8" x1="498.32" y1="386.7" x2="645.32" y2="386.7" gradientTransform="translate(395.38 -389.41) rotate(45)" gradientUnits="userSpaceOnUse"><stop offset="0" stop-color="#a70017"/><stop offset="0.24" stop-color="#a40017"/><stop offset="0.39" stop-color="#9b0015"/><stop offset="0.52" stop-color="#8c0013"/><stop offset="0.64" stop-color="#770010"/><stop offset="0.76" stop-color="#5c000d"/><stop offset="0.86" stop-color="#3a0008"/><stop offset="0.96" stop-color="#120003"/><stop offset="1"/></linearGradient><linearGradient id="linear-gradient-9" x1="526.77" y1="365.31" x2="626.3" y2="413.38" gradientTransform="translate(395.38 -389.41) rotate(45)" gradientUnits="userSpaceOnUse"><stop offset="0" stop-color="#ade8ff"/><stop offset="0.19" stop-color="#b5eaff"/><stop offset="0.48" stop-color="#caf0ff"/><stop offset="0.84" stop-color="#edfaff"/><stop offset="1" stop-color="#fff"/></linearGradient></defs><title>Game Logo</title><g id="Layer_9" data-name="Layer 9"><circle class="cls-2" cx="432.13" cy="369.5" r="354.5"/><circle class="cls-3" cx="432.13" cy="369.5" r="354.5"/><path class="cls-4" d="M442.39,787.4c-17,6.89-18.65,16.84-26.87,18.38S394,860,372.39,821.23l-12.73,5.66q2.82,9.2,5.66,18.38l-24.75-9.19c-.1-2.89-1-21.62-16.27-33.23a40.5,40.5,0,0,0-19.09-7.78c5,8.14,7.55,13.41,8.61,16.84.8,2.59.63,4.73-.12,5.79-2.64,3.71-20.28-1.16-83.7-36.7l24-14,5-20c-10.52.68-32,.43-51-13-29.68-20.92-39.86-64.18-29.95-95.69,17.44-55.5,96.21-72.43,90.51-96.17-.71-2.95-3.17-7.72-13.44-12l110.31-75c-23.84,52.08-51.27,82.59-72.83,101.12-8.88,7.63-24.6,20-35.36,42.43-11.35,23.7-16.5,57.23-4.24,65,8.48,5.41,26-1,31.11-11.31,3.41-6.85.65-14,1.42-14.14,1.35-.24,12.27,21.66,7.77,46-3.48,18.86,17.5-14.8,21.1-5.06,4.43,11.95,25.32,19.61,32.53,12.73,4.71-4.5,3.47-15.1-1.41-25.46l20.5,9.19c1.18,3.73,6.05,17.68,20.51,26.17,3.07,1.8,19.29,11.32,31.82,4.95,15.45-7.87,13.61-33.93,23.33-34.65,3.67-.27,4.09,3.42,11.32,7.07,11.36,5.74,17.73.36,27.93,3.89s20.3,14.78,20.86,27.93c.41,9.66-4.24,21.11-12.73,25.45-6.58,3.37-10.54-.07-19.8,4.25-5.95,2.77-12.95,8.22-12,12,1,4.21,10.8,2.3,13.44,7.78,2.5,5.2-3.09,13.62-8.49,18.38C455.91,784.44,451.27,783.8,442.39,787.4Z" transform="translate(-171.37 -178)"/><path class="cls-5" d="M516.64,733.66c-4.91.33-86.71-78.26-87-84.15-.46-10.23-1.12-24.91,7.07-29.7,6.94-4,108.71,97.49,105.36,104C537.71,732.2,524.57,733.11,516.64,733.66Z" transform="translate(-171.37 -178)"/><rect class="cls-6" x="814.37" y="301.86" width="19" height="78" transform="translate(310.96 -660.73) rotate(45)"/><path class="cls-7" d="M861.71,337l-34-33.94q-.35-6-.7-12c15.55,16,31.82,31.34,47.37,47.37C870.43,337.68,865.71,337.68,861.71,337Z" transform="translate(-171.37 -178)"/><path class="cls-7" d="M856.76,342.63c-1.41.22-15.47,2.21-26.17-8.49s-8.71-24.76-8.48-26.16l4.95-5,34.65,34.65Z" transform="translate(-171.37 -178)"/><path class="cls-8" d="M826.35,248.58,827.76,296" transform="translate(-171.37 -178)"/><line class="cls-8" x1="693.87" y1="51.49" x2="654.27" y2="71.29"/><line class="cls-8" x1="718.62" y1="70.58" x2="693.87" y2="51.49"/><line class="cls-8" x1="712.25" y1="75.53" x2="718.62" y2="69.17"/><line class="cls-8" x1="692.3" y1="61.83" x2="713.67" y2="75.53"/><line class="cls-8" x1="667.7" y1="77.65" x2="693.87" y2="62.8"/><line class="cls-8" x1="667.7" y1="125.73" x2="667.7" y2="77.65"/><path d="M865.12,229.66" transform="translate(-171.37 -178)"/><path d="M865.12,231.16a1.5,1.5,0,0,0,0-3,1.5,1.5,0,0,0,0,3Z" transform="translate(-171.37 -178)"/><path d="M865.24,229.41" transform="translate(-171.37 -178)"/><path d="M865.24,230.91a1.5,1.5,0,0,0,0-3,1.5,1.5,0,0,0,0,3Z" transform="translate(-171.37 -178)"/><path d="M890.29,247.9" transform="translate(-171.37 -178)"/><path d="M890.29,248.65a.75.75,0,0,0,0-1.5.75.75,0,0,0,0,1.5Z" transform="translate(-171.37 -178)"/><path d="M884.27,254" transform="translate(-171.37 -178)"/><path d="M884.27,254.79a.75.75,0,0,0,0-1.5.75.75,0,0,0,0,1.5Z" transform="translate(-171.37 -178)"/><path d="M833.81,300.3V251.56" transform="translate(-171.37 -178)"/><path d="M838.31,300.3V251.56c0-5.79-9-5.8-9,0V300.3c0,5.79,9,5.8,9,0Z" transform="translate(-171.37 -178)"/><path d="M832.83,294.91V264.54" transform="translate(-171.37 -178)"/><path d="M837.33,294.91V258.3h-9v6.24c0,5.79,9,5.8,9,0V258.3c0-5.79-9-5.8-9,0v36.61c0,5.79,9,5.8,9,0Z" transform="translate(-171.37 -178)"/><path d="M836.52,248.88a13.5,13.5,0,0,1,5.27-1.81,6.36,6.36,0,0,1-1.6,1.59l18-8.53c2-.92,3.92-1.85,5.84-2.84.67-.35,1.35-1.33.69-1.67a1,1,0,0,0-.73,0c-2.63.8-4.85,2.57-7.34,3.74-3.91,1.83-8.51,2.18-12,4.71" transform="translate(-171.37 -178)"/><path d="M838.79,252.77a12.72,12.72,0,0,1,4.19-1.36l-4.38-7.52a5.9,5.9,0,0,1-1.6,1.59c-4.2,3.45,1.15,9.1,5.46,7.06,6.75-3.19,13.52-6.33,20.24-9.57,4-1.9,8.64-4.51,5.94-9.62a4.45,4.45,0,0,0-3.88-2.23c-4.08.13-7.15,3-10.76,4.55-3.9,1.64-7.94,2.25-11.58,4.54-4.9,3.08-.38,10.87,4.54,7.77,2.93-1.84,6.23-2.44,9.43-3.63,2.3-.85,6.06-4.16,8.37-4.23l-3.89-2.23.27.51v-4.54c-.4.77-4.3,2-5.18,2.39l-5.41,2.55-12.64,6,5.46,7.07a6.2,6.2,0,0,0,1.6-1.59,4.54,4.54,0,0,0-4.38-7.52,20.73,20.73,0,0,0-6.34,2.27c-5.12,2.71-.58,10.48,4.54,7.77Z" transform="translate(-171.37 -178)"/><path d="M869.59,237.86a6.39,6.39,0,0,1,2.18,1.71,16.13,16.13,0,0,0,2,1.52l3.88,2.58" transform="translate(-171.37 -178)"/><path d="M867.32,241.75l.42.18c-.22-.22-.22-.22,0,0a8.33,8.33,0,0,1,.67.66,20.26,20.26,0,0,0,2.48,1.95c1.49,1,3,2,4.52,3a4.5,4.5,0,1,0,4.54-7.77c-1.5-1-3-2-4.52-3-.2-.14-.69-.61-1.16-1a8.65,8.65,0,0,0-2.42-1.75c-2.22-1-4.82-.66-6.15,1.61-1.12,1.9-.63,5.18,1.61,6.16Z" transform="translate(-171.37 -178)"/><path d="M882.85,247.55" transform="translate(-171.37 -178)"/><path d="M882.85,252.05c5.79,0,5.8-9,0-9s-5.8,9,0,9Z" transform="translate(-171.37 -178)"/><path class="cls-8" d="M917.09,339.32l-47.38-1.41" transform="translate(-171.37 -178)"/><line class="cls-8" x1="764.81" y1="122.43" x2="745.01" y2="162.03"/><line class="cls-8" x1="745.72" y1="97.68" x2="764.81" y2="122.43"/><line class="cls-8" x1="740.77" y1="104.04" x2="747.13" y2="97.68"/><line class="cls-8" x1="754.46" y1="124" x2="740.77" y2="102.63"/><line class="cls-8" x1="738.64" y1="148.59" x2="753.49" y2="122.43"/><line class="cls-8" x1="690.56" y1="148.59" x2="738.64" y2="148.59"/><path d="M936,300.55" transform="translate(-171.37 -178)"/><path d="M936,302.05a1.5,1.5,0,0,0,0-3,1.5,1.5,0,0,0,0,3Z" transform="translate(-171.37 -178)"/><path d="M936.26,300.43" transform="translate(-171.37 -178)"/><path d="M936.26,301.93a1.5,1.5,0,0,0,0-3,1.5,1.5,0,0,0,0,3Z" transform="translate(-171.37 -178)"/><path d="M917.77,275.38" transform="translate(-171.37 -178)"/><path d="M917.77,276.13a.75.75,0,0,0,0-1.5.75.75,0,0,0,0,1.5Z" transform="translate(-171.37 -178)"/><path d="M911.63,281.4" transform="translate(-171.37 -178)"/><path d="M911.63,282.15a.75.75,0,0,0,0-1.5.75.75,0,0,0,0,1.5Z" transform="translate(-171.37 -178)"/><path d="M865.37,331.86h48.74" transform="translate(-171.37 -178)"/><path d="M865.37,336.36h48.74c5.79,0,5.8-9,0-9H865.37c-5.79,0-5.8,9,0,9Z" transform="translate(-171.37 -178)"/><path d="M870.76,332.84h30.37" transform="translate(-171.37 -178)"/><path d="M870.76,337.34h36.61v-9h-6.24c-5.79,0-5.8,9,0,9h6.24c5.79,0,5.8-9,0-9H870.76c-5.8,0-5.8,9,0,9Z" transform="translate(-171.37 -178)"/><path d="M904.18,335.4a6.49,6.49,0,0,1,2.9-.67c1.15,0,2.28.33,3.43.41a3.84,3.84,0,0,0,3.17-1" transform="translate(-171.37 -178)"/><path d="M906.45,339.28c1.1-.48,3.3.39,4.56.37a8.55,8.55,0,0,0,5.85-2.35c4.23-4-2.14-10.33-6.36-6.37.42-.39.74-.08,0-.29a14,14,0,0,0-2.74-.37,12.38,12.38,0,0,0-5.86,1.24c-2.23,1-2.74,4.24-1.62,6.16,1.35,2.3,3.92,2.59,6.16,1.61Z" transform="translate(-171.37 -178)"/><path d="M913.62,329.16" transform="translate(-171.37 -178)"/><path d="M913.62,333.66c5.79,0,5.8-9,0-9s-5.8,9,0,9Z" transform="translate(-171.37 -178)"/><path d="M916.79,329.15a13.5,13.5,0,0,0,1.81-5.27,6.2,6.2,0,0,0-1.59,1.6l8.53-18c.92-2,1.85-3.92,2.84-5.84.35-.67,1.33-1.36,1.67-.69a1,1,0,0,1,0,.73c-.8,2.63-2.57,4.85-3.74,7.34-1.83,3.9-2.18,8.51-4.71,12" transform="translate(-171.37 -178)"/><path d="M920.67,331.42a20.83,20.83,0,0,0,2.27-6.34,4.54,4.54,0,0,0-7.52-4.38,6.2,6.2,0,0,0-1.59,1.6l7.07,5.46,6-12.64,2.55-5.41c.42-.88,1.62-4.78,2.39-5.18h-4.54l.51.27-2.23-3.89c-.08,2.46-3.31,5.92-4.23,8.36-1.22,3.23-1.78,6.49-3.63,9.44-3.1,4.92,4.69,9.44,7.77,4.54,2.29-3.64,2.9-7.68,4.54-11.58,1.51-3.61,4.42-6.68,4.55-10.76a4.45,4.45,0,0,0-2.23-3.88c-5.12-2.7-7.71,2-9.62,5.94-3.24,6.72-6.38,13.49-9.57,20.24-2,4.26,3.58,9.7,7.06,5.46a5.9,5.9,0,0,1,1.59-1.6l-7.52-4.38a12.72,12.72,0,0,1-1.36,4.19c-2.71,5.12,5.05,9.67,7.77,4.54Z" transform="translate(-171.37 -178)"/><path d="M927.81,296.08a6.39,6.39,0,0,0-1.71-2.18,16.13,16.13,0,0,1-1.52-2L922,288" transform="translate(-171.37 -178)"/><path d="M931.69,293.81a8.06,8.06,0,0,0-1.59-2.25c-.44-.49-1-1.11-1.2-1.34-1-1.47-2-3-3-4.51a4.61,4.61,0,0,0-6.15-1.62,4.55,4.55,0,0,0-1.62,6.16c1,1.51,2,3,3,4.52a22,22,0,0,0,1.79,2.31c.21.23.44.45.66.67.71.74-.06-.33.34.6,1,2.23,4.24,2.74,6.16,1.61,2.3-1.34,2.59-3.92,1.61-6.15Z" transform="translate(-171.37 -178)"/><path d="M918.12,282.82" transform="translate(-171.37 -178)"/><path d="M918.12,287.32c5.79,0,5.8-9,0-9s-5.8,9,0,9Z" transform="translate(-171.37 -178)"/><line class="cls-7" x1="689.62" y1="160.38" x2="743.36" y2="160.38"/><path d="M831.37,252.48c-2.87,2.05-2.67,5.21-1.89,8.32a1.51,1.51,0,0,0,2.95-.4c0-3.49-1.68-6.7-1.54-10.18.08-1.93-2.88-1.91-3,0a42.35,42.35,0,0,1-2.08,10.69c-.6,1.84,2.29,2.62,2.89.79a44.84,44.84,0,0,0,2.19-11.48h-3c-.14,3.51,1.56,6.7,1.54,10.18l2.94-.4c-.38-1.54-1.07-3.8.51-4.93s.06-3.72-1.51-2.59Z" transform="translate(-171.37 -178)"/><path d="M837.47,251.27c0,.15-.07.31-.11.46a2.49,2.49,0,0,1-.11.29c0-.09,0-.09,0,0a2.22,2.22,0,0,1-.45.65,1.5,1.5,0,1,0,2.12,2.12,5.6,5.6,0,0,0,1.45-2.72,1.5,1.5,0,1,0-2.89-.8Z" transform="translate(-171.37 -178)"/><path d="M838.43,251.73l-2.57,3.68a1.53,1.53,0,0,0,.54,2.06,1.54,1.54,0,0,0,2.06-.54l2.56-3.69a1.51,1.51,0,0,0-.54-2.05,1.53,1.53,0,0,0-2.05.54Z" transform="translate(-171.37 -178)"/><path d="M839.43,251.94l-1.93,1.93a1.53,1.53,0,0,0,0,2.12,1.51,1.51,0,0,0,2.12,0l1.93-1.93a1.5,1.5,0,1,0-2.12-2.12Z" transform="translate(-171.37 -178)"/><path d="M830.23,251.72a1.5,1.5,0,0,0,0-3,1.5,1.5,0,0,0,0,3Z" transform="translate(-171.37 -178)"/><path d="M828.78,252.2a1.5,1.5,0,0,0,0-3,1.5,1.5,0,0,0,0,3Z" transform="translate(-171.37 -178)"/><path d="M830.47,250.51a1.5,1.5,0,0,0,0-3,1.5,1.5,0,0,0,0,3Z" transform="translate(-171.37 -178)"/><path d="M827.21,250.15a1.5,1.5,0,0,0,0-3,1.5,1.5,0,0,0,0,3Z" transform="translate(-171.37 -178)"/><path class="cls-9" d="M746.21,593.18c-19.79,21.18-102.28,81.2-134.85,100.91C597.09,702.72,579,713,557.85,709.41c-11.07-1.89-20-7.11-56.4-44-32.2-32.68-48.23-49.31-51.06-62.07-3.88-17.5,1.16-34.88,25.52-73.6C487,512.06,565.53,417.3,568,415c17.67-16.45,97.54-80,129.78-88.77,23.36-6.35,89.85-24.42,125.72,11.46C844.45,358.6,847,390,844.24,417.11c-2,19.26-6.6,36.42-9.26,46.29C826.58,494.48,764,574.1,746.21,593.18Z" transform="translate(-171.37 -178)"/><path class="cls-10" d="M802.85,317.25c7.39,2,11.36,5.95,21.22,15.55,18.28,17.82,21.56,20.69,23.33,27.58,1.35,5.23,2.06,13.67-1.41,15.56-1.75.94-4.64.29-18.39-11.32-15.91-13.43-23.5-22.24-28.28-28.28-7-8.81-11.93-15.18-9.9-18.39C791.72,314.32,801.64,316.92,802.85,317.25Z" transform="translate(-171.37 -178)"/><path class="cls-11" d="M568.26,714.56c-2.52,5.29-8.45,8.42-13.44,9.2-18.38,2.85-27.94-25.64-61.52-59.4-35-35.23-65-44.85-62.22-64.35.12-.83,1.51-9.62,8.13-13.08,14.76-7.72,41.48,18.38,77.43,54.09C573.41,697.44,570.32,710.22,568.26,714.56Z" transform="translate(-171.37 -178)"/><path class="cls-12" d="M489.77,708.91c-77.27,52.44-83.68,57.82-86.27,55.15-4.24-4.37,12.88-18.94,56.57-84.85,15.49-23.37,28.77-44.83,53.74-52.33,4.48-1.34,19.78-5.94,26.87,1.42,6.23,6.47,2.89,18.83,1.41,24C534.68,678.5,511.86,693.91,489.77,708.91Z" transform="translate(-171.37 -178)"/><path class="cls-13" d="M400,596.48c-9.35-.91-21.68,3.86-46,13.43-44.12,17.4-55.31,22-57.27,19.09-1.56-2.28,3.51-8,13.43-19.09,48.81-54.48,54-58.59,63.64-60.81,13.08-3,28.9-1.31,41,0,11.65,1.26,13.7,2.61,24.05,2.83,16.23.34,22.26-2.78,26.87,1.41,6.93,6.32,2.18,21.57,1.41,24-4,12.91-15.56,26.51-30.41,29C422.23,608.8,418.53,598.28,400,596.48Z" transform="translate(-171.37 -178)"/><path class="cls-14" d="M565.13,761.65c.91,9.35-3.86,21.68-13.43,46-17.4,44.12-22,55.31-19.09,57.27,2.28,1.56,8-3.51,19.09-13.43,54.48-48.81,58.59-54,60.81-63.64,3-13.08,1.31-28.9,0-41-1.26-11.65-2.61-13.7-2.83-24-.34-16.23,2.78-22.27-1.41-26.87-6.32-6.93-21.57-2.18-24-1.41-12.9,4-26.5,15.56-29,30.41C552.81,739.38,563.33,743.08,565.13,761.65Z" transform="translate(-171.37 -178)"/><circle class="cls-15" cx="526.28" cy="288.37" r="73.5"/><circle class="cls-16" cx="525.93" cy="288.37" r="55.25"/><g class="cls-17"><path class="cls-18" d="M736.1,462.49l-71.76,1.34c-13.5.26-13.54,21.26,0,21l71.76-1.34c13.5-.25,13.54-21.25,0-21Z" transform="translate(-171.37 -178)"/></g><g class="cls-17"><path class="cls-18" d="M709.35,495.79l-25,.47c-13.5.25-13.54,21.25,0,21l25-.47c13.5-.25,13.55-21.25,0-21Z" transform="translate(-171.37 -178)"/></g></g></svg>