<?xml version="1.0" encoding="utf-8"?>
<!-- Generator: Adobe Illustrator 23.0.2, SVG Export Plug-In . SVG Version: 6.00 Build 0)  -->
<svg version="1.1" xmlns="http://www.w3.org/2000/svg" xmlns:xlink="http://www.w3.org/1999/xlink" x="0px" y="0px"
	 viewBox="0 0 24 32.1" style="enable-background:new 0 0 24 32.1;" xml:space="preserve">
<style type="text/css">
	.st0{fill:#42210B;stroke:#4C150B;stroke-width:0.2;stroke-miterlimit:10;}
	.st1{fill:#CCCCCC;stroke:#7F000A;stroke-width:0.2;stroke-miterlimit:10;}
	.st2{fill:#CCCCCC;stroke:#7F000A;stroke-width:0.18;stroke-miterlimit:10;}
	.st3{fill:#C1272D;stroke:#7F000A;stroke-width:0.21;stroke-miterlimit:10;}
	.st4{fill:#42210B;}
	.st5{fill:#C69C6D;stroke:#8C6239;stroke-width:0.69;stroke-miterlimit:10;}
	.st6{fill:#2B828B;stroke:#004A6A;stroke-width:0.67;stroke-miterlimit:10;}
	.st7{fill:#9F2800;stroke:#7F000A;stroke-width:0.45;stroke-miterlimit:10;}
	.st8{fill:#8C6239;stroke:#A67C52;stroke-width:0.42;stroke-miterlimit:10;}
	.st9{fill:#8C6239;stroke:#42210B;stroke-width:0.42;stroke-miterlimit:10;}
	.st10{stroke:#004A6A;stroke-width:0.42;stroke-miterlimit:10;}
	.st11{fill:#C89C6D;stroke:#000000;stroke-width:0.41;stroke-miterlimit:10;}
	.st12{fill:none;}
	.st13{stroke:#850000;stroke-width:0.25;stroke-miterlimit:10;}
	.st14{font-family:'ArialMT';}
	.st15{font-size:6px;}
	.st16{font-size:3px;}
</style>
<g id="Layer_1">
	<g>
		<title>icon</title>
		<rect width="24" height="32.1"/>
	</g>
	<path class="st0" d="M7.5,7.8c0.2,0,0.3-0.2,0.2-0.3c0-0.1-0.1-0.2-0.2-0.2c-0.2,0-0.3,0.2-0.2,0.3C7.3,7.7,7.4,7.8,7.5,7.8z"/>
	<path class="st0" d="M7.3,6.9c0.2,0,0.3-0.2,0.2-0.3c0-0.1-0.1-0.2-0.2-0.2C7.1,6.4,7,6.5,7,6.7C7.1,6.8,7.2,6.9,7.3,6.9z"/>
	<path class="st0" d="M7,5.9c0.2,0,0.3-0.1,0.3-0.3c0-0.2-0.1-0.3-0.3-0.3c-0.2,0-0.3,0.1-0.3,0.3S6.8,5.9,7,5.9z"/>
	<path class="st0" d="M6.7,5C6.9,5,7,4.8,7,4.7c0-0.2-0.1-0.3-0.3-0.3c-0.2,0-0.3,0.1-0.3,0.3C6.4,4.8,6.6,5,6.7,5z"/>
	<path class="st0" d="M6.5,4c0.2,0,0.3-0.2,0.2-0.3c0-0.1-0.1-0.2-0.2-0.2c-0.2,0-0.3,0.2-0.2,0.3C6.3,3.8,6.4,3.9,6.5,4z"/>
	<path class="st0" d="M6.2,3c0.2,0,0.3-0.1,0.3-0.3S6.4,2.4,6.2,2.4C6,2.4,5.9,2.5,5.9,2.7C5.9,2.9,6.1,3,6.2,3z"/>
	<path class="st0" d="M5.9,2c0.2,0,0.3-0.1,0.3-0.3S6.1,1.4,5.9,1.4c-0.2,0-0.3,0.1-0.3,0.3C5.7,1.8,5.8,2,5.9,2z"/>
	<path class="st0" d="M5.4,1.2c0.2,0,0.3-0.1,0.3-0.3S5.6,0.6,5.4,0.6S5.1,0.7,5.1,0.9S5.2,1.2,5.4,1.2z"/>
	<path class="st0" d="M4.5,0.8c0.2,0,0.3-0.1,0.3-0.3S4.6,0.2,4.5,0.2S4.2,0.4,4.2,0.5S4.3,0.8,4.5,0.8z"/>
	<path class="st0" d="M3.5,1c0.2,0,0.3-0.2,0.2-0.3c0-0.1-0.1-0.2-0.2-0.2c-0.2,0-0.3,0.2-0.2,0.3C3.3,0.8,3.4,0.9,3.5,1z"/>
	<path class="st0" d="M2.6,1.4c0.2,0,0.3-0.1,0.3-0.3S2.8,0.9,2.6,0.9l0,0C2.4,0.9,2.3,1,2.3,1.2C2.3,1.3,2.4,1.4,2.6,1.4z"/>
	<path class="st0" d="M2.2,2.2c0.2,0,0.3-0.1,0.3-0.3S2.4,1.5,2.2,1.5l0,0C2,1.5,1.9,1.7,1.9,1.8C1.9,2,2,2.1,2.2,2.2L2.2,2.2z"/>
	<path class="st0" d="M2.2,3.1c0.2,0,0.3-0.2,0.2-0.3c0-0.1-0.1-0.2-0.2-0.2C2,2.5,1.9,2.7,1.9,2.8C1.9,3,2,3.1,2.2,3.1L2.2,3.1z"/>
	<path class="st0" d="M2.4,4c0.2,0,0.3-0.1,0.3-0.3S2.6,3.4,2.4,3.4S2.1,3.5,2.1,3.7C2.1,3.8,2.2,4,2.4,4z"/>
	<path class="st0" d="M2.6,4.8c0.2,0,0.3-0.2,0.2-0.3c0-0.1-0.1-0.2-0.2-0.2c-0.2,0-0.3,0.2-0.2,0.3C2.4,4.7,2.5,4.8,2.6,4.8z"/>
	<path class="st0" d="M2.8,5.8c0.2,0,0.3-0.1,0.3-0.3c0-0.2-0.1-0.3-0.3-0.3S2.5,5.3,2.5,5.5C2.5,5.7,2.7,5.8,2.8,5.8z"/>
	<path class="st0" d="M3.1,6.9c0.2,0,0.3-0.2,0.2-0.3c0-0.1-0.1-0.2-0.2-0.2c-0.2,0-0.3,0.2-0.2,0.3C2.9,6.7,3,6.8,3.1,6.9z"/>
	<path class="st0" d="M3.4,7.9c0.2,0,0.3-0.2,0.2-0.3c0-0.1-0.1-0.2-0.2-0.2c-0.2,0-0.3,0.2-0.2,0.3C3.2,7.8,3.3,7.9,3.4,7.9z"/>
	<path class="st0" d="M3.7,9C3.8,9,4,8.9,4,8.7S3.9,8.4,3.7,8.4S3.4,8.5,3.4,8.7S3.5,9,3.7,9z"/>
	<path class="st1" d="M6.2,10.3H6C5.1,10.5,4.1,10,3.9,9.1L2.3,2.8C2.1,1.9,2.6,1,3.5,0.7l0.2-0.1c1-0.1,1.9,0.4,2.1,1.3l1.6,6.3
		C7.7,9.1,7.1,10,6.2,10.3z"/>
	<path class="st2" d="M6.1,10.3L6.1,10.3c-0.8,0.2-1.5-0.3-1.7-1L2.7,2.8C2.5,2,3,1.2,3.7,1.1l0,0c0.7-0.2,1.5,0.3,1.7,1l1.7,6.5
		C7.3,9.3,6.8,10.1,6.1,10.3z"/>
	<path class="st3" d="M10.5,14.7l-4.3,1.1c-0.7,0.2-1.5-0.3-1.7-1l-1-4.1C3.3,10,3.8,9.2,4.5,9l4.3-1c0.7-0.2,1.5,0.3,1.7,1l1,4.1
		C11.6,13.8,11.2,14.5,10.5,14.7z"/>
	<path class="st4" d="M5.8,13.6c0.2,0,0.4-0.2,0.4-0.4S6,12.8,5.8,12.8c-0.2,0-0.4,0.2-0.4,0.4C5.4,13.4,5.6,13.6,5.8,13.6z"/>
	<path class="st4" d="M6.5,14l-0.9,0.2c-0.4,0.1-0.2,0.6,0.2,0.6l0.9-0.2C7,14.4,6.9,13.9,6.5,14L6.5,14z"/>
	<path class="st5" d="M7,16.7c-0.1-0.3-1.2-3-3-2.9c-1.1,0.1-1.8,1.3-2.2,2c-0.5,0.6-0.7,1.3-0.6,2c0.1,0.4,0.5,0.9,1.4,1.8
		s1,0.9,1.1,0.8c0.7-0.1,0.7-2,1.1-2s0.5,2,1.1,2.1c0.2,0,0.4-0.1,0.8-0.4C7,20,7.2,19.9,7.4,19.7"/>
	<path class="st6" d="M15.2,23c-1.6-1-3.6-1-5.2,0c-0.7,0-1.5-0.3-2-0.8s-0.8-1.2-0.8-2v-8.6c0-0.3,0.1-0.6,0.3-0.9
		c0.7-1,2.3-0.4,5.4-0.4c2.8,0,4.2-0.6,4.9,0.3c0.2,0.3,0.3,0.6,0.3,0.9v8.6C18.1,21.7,16.8,23,15.2,23L15.2,23z"/>
	<path d="M12.1,17.9v0.5c0,0.1,0.1,0.1,0.2,0.1c0,0,0.1,0,0.1-0.1v-0.5C12.3,17.9,12.3,17.8,12.1,17.9
		C12.2,17.9,12.1,17.9,12.1,17.9z"/>
	<path d="M13.5,18.1v0.5c0,0.1,0.1,0.1,0.2,0.1c0,0,0.1,0,0.1-0.1v-0.5C13.7,18,13.6,18,13.5,18.1C13.5,18,13.5,18,13.5,18.1z"/>
	<path d="M10,14.1c0.5-0.1,0.8-0.5,0.8-1c0-0.4-0.4-0.7-0.8-0.8c-0.5,0.1-0.8,0.5-0.8,1C9.3,13.7,9.6,14,10,14.1z"/>
	<path d="M15.6,14.1c0.5-0.1,0.8-0.5,0.8-1c0-0.4-0.4-0.7-0.8-0.8c-0.5,0.1-0.8,0.5-0.8,1C14.8,13.7,15.2,14,15.6,14.1z"/>
	<path class="st7" d="M20.6,17l0.3-0.1c0.5-0.1,0.8-0.6,0.6-1.1v-0.1l-0.1-0.3c-0.3-0.5-0.9-0.7-1.4-0.6L19.6,15
		c-0.5,0.1-0.8,0.6-0.6,1.1v0.1l0.1,0.3c-2.6,0.6-3.8,1-3.8,1.1S17.2,17.5,20.6,17z"/>
	<circle class="st8" cx="12.8" cy="14.2" r="1.5"/>
	<path class="st9" d="M13.4,18.9h-1.3c-0.5,0.2-1.1,0.2-1.6-0.1c-0.5-0.4-0.8-1-0.7-1.7v-0.6c0-1.3,1-2.4,2.3-2.4
		c0.1,0.3,0.4,0.5,0.7,0.5c0.2-0.1,0.4-0.3,0.5-0.5c0.6,0,1.2,0.3,1.7,0.7c0.4,0.4,0.7,1,0.7,1.7v0.6c0.1,0.6-0.2,1.3-0.7,1.7
		C14.6,19.1,14,19.1,13.4,18.9z"/>
	<ellipse class="st10" cx="12.6" cy="10" rx="5.9" ry="1.2"/>
	<rect x="8.3" y="7.1" class="st11" width="8.4" height="2.1"/>
	<path class="st10" d="M10,1h5c0.9,0,1.7,0.8,1.7,1.7v7l0,0H8.3l0,0v-7C8.3,1.8,9,1,10,1z"/>
	<rect x="1.6" y="23.3" class="st12" width="22.4" height="10.7"/>
	<text transform="matrix(1 0 0 1 6.7 28.096)" class="st13 st14 st15">DAD</text>
	<text transform="matrix(1 0 0 1 10.7 31.6961)" class="st13 st14 st16">Inc</text>
	<g id="Layer_3">
	</g>
	<rect x="16.3" y="9.4" width="0.6" height="0.4"/>
</g>
<g id="Layer_2">
	<rect x="8" y="9.5" width="8.9" height="0.8"/>
</g>
</svg>
