<svg xmlns="http://www.w3.org/2000/svg" xmlns:xlink="http://www.w3.org/1999/xlink" viewBox="0 0 1925 1086.64"><defs><style>.cls-1{stroke:#cecece;opacity:0.25;fill:url(#Naamloos_verloop_58);}.cls-1,.cls-10,.cls-11,.cls-12,.cls-13,.cls-14,.cls-17,.cls-18,.cls-19,.cls-2,.cls-29,.cls-3,.cls-4,.cls-5,.cls-6{stroke-miterlimit:10;}.cls-10,.cls-13,.cls-14,.cls-17,.cls-2,.cls-29,.cls-5{fill:none;}.cls-2,.cls-29{stroke:#e0e0e0;stroke-width:4px;}.cls-13,.cls-17,.cls-2,.cls-29{stroke-linecap:round;}.cls-3{fill:#92a9ad;stroke:#636970;}.cls-10,.cls-11,.cls-12,.cls-13,.cls-14,.cls-18,.cls-19,.cls-3,.cls-4,.cls-5,.cls-6{stroke-width:5px;}.cls-4,.cls-5{stroke:#50555b;}.cls-4{fill:url(#Naamloos_verloop_119);}.cls-6{fill:#515c5e;}.cls-10,.cls-6{stroke:#3a3e42;}.cls-7{fill:#44484c;}.cls-8{fill:#585c60;}.cls-9{fill:#485051;}.cls-11{fill:#b52a2a;}.cls-11,.cls-12{stroke:#7c3535;}.cls-12{fill:#a07878;}.cls-13{stroke:#7f644a;}.cls-14{stroke:#3d2828;}.cls-15{fill:#3d2828;}.cls-16{fill:#777;}.cls-17{stroke:#1c1414;stroke-width:10px;}.cls-18{fill:#846853;}.cls-18,.cls-19{stroke:#6b533b;}.cls-19{fill:#5eaeb7;}.cls-20{fill:#2d7500;}.cls-21{fill:#664f26;}.cls-22{fill:#605023;}.cls-23{fill:#895338;}.cls-24{fill:#895033;}.cls-25{fill:#7c726b;}.cls-26{fill:#429295;}.cls-27{fill:#386c75;}.cls-28{fill:#a5a5a5;}.cls-29{opacity:0.61;}</style><linearGradient id="Naamloos_verloop_58" x1="95.44" y1="943.66" x2="956.57" y2="82.53" gradientUnits="userSpaceOnUse"><stop offset="0.42" stop-color="#282861" stop-opacity="0.25"/><stop offset="0.52" stop-color="#fff" stop-opacity="0.5"/><stop offset="0.58" stop-color="#b4e1fa" stop-opacity="0"/><stop offset="0.61" stop-color="#cbeafc" stop-opacity="0.3"/><stop offset="0.66" stop-color="#e7f5fd" stop-opacity="0.68"/><stop offset="0.69" stop-color="#f8fcff" stop-opacity="0.91"/><stop offset="0.7" stop-color="#fff"/><stop offset="0.71" stop-color="#eef8fe" stop-opacity="0.77"/><stop offset="0.72" stop-color="#dcf1fd" stop-opacity="0.54"/><stop offset="0.73" stop-color="#ceebfc" stop-opacity="0.35"/><stop offset="0.74" stop-color="#c3e7fb" stop-opacity="0.2"/><stop offset="0.75" stop-color="#bbe4fa" stop-opacity="0.09"/><stop offset="0.75" stop-color="#b6e2fa" stop-opacity="0.02"/><stop offset="0.76" stop-color="#b4e1fa" stop-opacity="0"/></linearGradient><linearGradient id="Naamloos_verloop_119" x1="-354.37" y1="543.32" x2="1860.85" y2="543.32" gradientUnits="userSpaceOnUse"><stop offset="0" stop-color="#798791"/><stop offset="0.89" stop-color="#b0d3e2"/></linearGradient></defs><title>ship bg</title><g id="Laag_43" data-name="Laag 43"><path class="cls-1" d="M1265.38,656.82v-5.58l81-55.41-79.51-122-1.5,1V458.57l48.46-66.08L984.58,139v-3h-4l-38.77-29.84L920,136H0V800.9H788.94v1.86H937.55l32.79,50.3,73.54-50.3h8.73v-6l204.61-140ZM984.58,667V656.82h14.83Z" transform="translate(2.5 4.14)"/><path class="cls-2" d="M1255.18,368.76" transform="translate(2.5 4.14)"/><path class="cls-2" d="M991.9,166" transform="translate(2.5 4.14)"/><path class="cls-2" d="M1255.18,368.76" transform="translate(2.5 4.14)"/><path class="cls-2" d="M1255.18,665.56" transform="translate(2.5 4.14)"/><path class="cls-2" d="M1255.18,665.56" transform="translate(2.5 4.14)"/><path class="cls-2" d="M1043.88,802.76" transform="translate(2.5 4.14)"/></g><g id="ship"><polygon class="cls-3" points="1269.75 359.31 1269.75 398.21 971.25 173.54 1029.63 173.21 1269.75 359.31"/><polygon class="cls-3" points="1269.75 668.72 1244.78 670.52 1247.54 381.5 1270.58 361.98 1269.75 668.72"/><polygon class="cls-3" points="1060.4 810.36 1027.6 810.36 1244.78 670.52 1269.75 668.72 1060.4 810.36"/><polygon class="cls-4" points="1922.5 185.88 1922.5 151.45 1922.5 4.14 1487.8 4.14 1342.12 2.5 2.5 4.14 2.5 168.47 1029.88 170.29 1271.54 356.06 1271.54 665.46 1062.19 807.11 2.5 807.11 2.5 1084.14 1922.5 1084.14 1922.5 833.46 1922.5 822.14 1922.5 804.53 1922.5 765.4 1922.5 185.88"/><circle class="cls-5" cx="36.85" cy="140.23" r="4.3"/><circle class="cls-5" cx="152.67" cy="140.23" r="4.3"/><circle class="cls-5" cx="279.11" cy="140.23" r="4.3"/><circle class="cls-5" cx="394.94" cy="140.23" r="4.3"/><circle class="cls-5" cx="503.87" cy="140.23" r="4.3"/><circle class="cls-5" cx="619.69" cy="140.23" r="4.3"/><circle class="cls-5" cx="729.07" cy="140.23" r="4.3"/><circle class="cls-5" cx="844.89" cy="140.23" r="4.3"/><circle class="cls-5" cx="953.89" cy="140.23" r="4.3"/><circle class="cls-5" cx="1057.03" cy="140.23" r="4.3"/><circle class="cls-5" cx="1136.8" cy="190.18" r="4.3"/><circle class="cls-5" cx="1232.17" cy="261.61" r="4.3"/><circle class="cls-5" cx="1310.27" cy="346.06" r="4.3"/><circle class="cls-5" cx="1310.27" cy="446.1" r="4.3"/><circle class="cls-5" cx="1310.27" cy="561.68" r="4.3"/><circle class="cls-5" cx="1310.27" cy="670.79" r="4.3"/><circle class="cls-5" cx="1237.03" cy="741.5" r="4.3"/><circle class="cls-5" cx="1157.08" cy="794.73" r="4.3"/><circle class="cls-5" cx="1076.85" cy="843.34" r="4.3"/><circle class="cls-5" cx="955.34" cy="844.79" r="4.3"/><circle class="cls-5" cx="845.17" cy="849.09" r="4.3"/><circle class="cls-5" cx="730.52" cy="850.68" r="4.3"/><circle class="cls-5" cx="620.42" cy="850.68" r="4.3"/><circle class="cls-5" cx="508.4" cy="850.68" r="4.3"/><circle class="cls-5" cx="394.39" cy="850.68" r="4.3"/><circle class="cls-5" cx="280.56" cy="850.68" r="4.3"/><circle class="cls-5" cx="154.12" cy="853.09" r="4.3"/><circle class="cls-5" cx="35.56" cy="853.09" r="4.3"/><polygon class="cls-6" points="1922.5 1035.52 1751.93 1032.86 1751.93 697.2 1922.5 699.86 1922.5 1035.52"/><polygon class="cls-7" points="1885.72 706.7 1774.29 707.87 1751.93 697.2 1922.5 699.86 1885.72 706.7"/><polygon class="cls-8" points="1775.41 986.1 1751.93 1031.21 1751.93 697.2 1774.29 707.87 1775.41 986.1"/><polygon class="cls-8" points="1922.5 1035.52 1885.15 987.69 1885.15 707.87 1922.5 703.78 1922.5 1035.52"/><rect class="cls-9" x="1774.29" y="707.87" width="110.86" height="279.82"/><line class="cls-10" x1="1884.59" y1="987.27" x2="1922.5" y2="1033.86"/><line class="cls-10" x1="1775.41" y1="986.1" x2="1751.93" y2="1031.21"/><line class="cls-10" x1="1884.59" y1="987.27" x2="1775.41" y2="986.1"/><line class="cls-10" x1="1885.72" y1="706.7" x2="1884.59" y2="987.27"/><line class="cls-10" x1="1775.41" y1="986.1" x2="1774.29" y2="707.87"/><line class="cls-10" x1="1922.5" y1="703.78" x2="1885.72" y2="706.7"/><line class="cls-10" x1="1751.93" y1="697.2" x2="1774.29" y2="707.87"/><line class="cls-10" x1="1885.72" y1="706.7" x2="1774.29" y2="707.87"/><path class="cls-11" d="M1852.22,769.87h-.79V756a8.61,8.61,0,0,0-8.6-8.61h-3.66a8.61,8.61,0,0,0-8.6,8.61v13.83h-5a37.83,37.83,0,0,0-37.83,37.83V974.76a37.83,37.83,0,0,0,37.83,37.83h26.61A37.83,37.83,0,0,0,1890,974.76V807.7A37.82,37.82,0,0,0,1852.22,769.87Z" transform="translate(2.5 4.14)"/><rect class="cls-12" x="1790.28" y="828.42" width="102.26" height="51.35"/><line class="cls-13" x1="1660.76" y1="163.24" x2="1686.39" y2="118.58"/><line class="cls-13" x1="1712.8" y1="163.24" x2="1686.39" y2="118.58"/><line class="cls-14" x1="1787.8" y1="899.75" x2="1895.02" y2="899.75"/><path class="cls-15" d="M1831.78,754.79c-3-5.33-10.44-5.4-15.86-5.34a50.5,50.5,0,0,0-17.23,3.35,54.63,54.63,0,0,0-28.07,23.2c-16.11,27.59-2.2,59.3,4,87.5,1.55,7.06,2.67,14.49,1.67,21.72-.9,6.51-6.15,12.27-5,18.92a4.49,4.49,0,0,0,3.24,3.24c8.69,1.44,13.43-7.36,15.46-14.51,2.14-7.5,2-15.29.88-22.93-2.6-18.47-10.78-35.7-13-54.25-2-16.11,1-32.44,14-43.26a45.54,45.54,0,0,1,17.65-9.09,44.41,44.41,0,0,1,10.57-1.43c3.57,0,7.17.69,10.27-1.54a4.18,4.18,0,0,0,1.46-5.58Z" transform="translate(2.5 4.14)"/><path class="cls-16" d="M1772.92,899a42.08,42.08,0,0,0-7.45,10.12,5,5,0,1,0,8.63,5,32.85,32.85,0,0,1,5.89-8.09c4.53-4.58-2.53-11.65-7.07-7.07Z" transform="translate(2.5 4.14)"/><path class="cls-17" d="M1831.42,750.9l6.77-7a115,115,0,0,1,44.22-28.35l7.63-2.69" transform="translate(2.5 4.14)"/><path class="cls-17" d="M1831.42,750.9l9-3.75a114.75,114.75,0,0,1,51.81-8.62l8.07.53" transform="translate(2.5 4.14)"/><rect class="cls-18" x="1523.81" y="163.24" width="330.46" height="212.08"/><rect class="cls-19" x="1544.15" y="190.18" width="289.76" height="161.32"/><rect class="cls-20" x="1546.8" y="295.45" width="284.48" height="53.61"/><rect class="cls-21" x="1686.39" y="257.88" width="50.87" height="64.17"/><polygon class="cls-22" points="1686.39 320.89 1635.13 310.33 1635.13 249.48 1686.39 256.72 1686.39 320.89"/><polygon class="cls-23" points="1683.85 261.4 1631.41 250.84 1659.3 219.87 1717.2 224.67 1683.85 261.4"/><polygon class="cls-24" points="1742.87 259.45 1737.07 259.45 1715.48 226.57 1717.2 224.67 1742.87 259.45"/><polygon class="cls-21" points="1737.07 259.45 1686.39 257.88 1715.48 226.57 1725.72 240.64 1737.07 259.45"/><rect class="cls-25" x="1699.11" y="291.63" width="13.7" height="30.42"/><rect class="cls-26" x="1719.65" y="297.21" width="13.5" height="12.33"/><rect class="cls-26" x="1694.8" y="265.32" width="14.87" height="17.8"/><rect class="cls-26" x="1719.65" y="265.32" width="13.5" height="17.8"/><polygon class="cls-27" points="1654.5 306.94 1641 302.83 1641 283.95 1654.5 287.38 1654.5 306.94"/><polygon class="cls-27" points="1678.96 311.49 1663.7 308.53 1663.7 288.23 1678.96 291.14 1678.96 311.49"/><polygon class="cls-27" points="1667.41 280.38 1652.54 275.88 1652.54 261.4 1667.41 264.53 1667.41 280.38"/><ellipse class="cls-28" cx="1565.67" cy="223.05" rx="15.26" ry="11.35"/><ellipse class="cls-28" cx="1583.34" cy="228.73" rx="20.79" ry="5.67"/><ellipse class="cls-28" cx="1567.78" cy="235.18" rx="20.98" ry="12.13"/><ellipse class="cls-28" cx="1787.35" cy="208.89" rx="18.59" ry="8.92"/><ellipse class="cls-28" cx="1772.67" cy="217.38" rx="18.78" ry="5.67"/><ellipse class="cls-28" cx="1800.9" cy="215.89" rx="23.43" ry="3.99"/><circle class="cls-5" cx="1737.26" cy="686.18" r="4.3"/><circle class="cls-5" cx="1741.57" cy="1041.69" r="4.3"/></g><g id="Laag_44" data-name="Laag 44"><line class="cls-29" x1="992.8" y1="175.1" x2="1254.63" y2="376.62"/><line class="cls-29" x1="1254.63" y1="669.81" x2="1254.63" y2="376.62"/><line class="cls-29" x1="1048.21" y1="802.07" x2="1254.63" y2="669.81"/></g></svg>