<svg id="Laag_1" data-name="Laag 1" xmlns="http://www.w3.org/2000/svg" xmlns:xlink="http://www.w3.org/1999/xlink" viewBox="0 0 965 1084"><defs><style>.cls-1{fill:url(#Naamloos_verloop);}.cls-2{fill:#50555b;}.cls-3,.cls-4{fill:none;stroke:#000;stroke-miterlimit:10;}.cls-3{stroke-width:10px;}.cls-4{stroke-width:3px;}.cls-5{opacity:0.5;}.cls-6{fill:#fff;}</style><linearGradient id="Naamloos_verloop" x1="0.5" y1="540" x2="959.5" y2="540" gradientTransform="matrix(1, 0, 0, -1, 0, 1080)" gradientUnits="userSpaceOnUse"><stop offset="0" stop-color="#50555b"/><stop offset="0.53" stop-color="#8196a0"/><stop offset="1" stop-color="#b0d3e2"/></linearGradient></defs><title>Shot6V2</title><g id="Layer_1" data-name="Layer 1"><rect class="cls-1" x="0.5" y="0.5" width="959" height="1079"/><path class="cls-2" d="M959,1V1079H1V1H959m1-1H0V1080H960V0Z"/><line class="cls-3" x1="960" x2="960" y2="1080"/><line class="cls-3" x1="897" y1="2" x2="897" y2="1084"/><line class="cls-3" x1="895" y1="205" x2="690" y2="410"/><line class="cls-3" x1="691" y1="537" x2="691" y2="407"/><line class="cls-3" x1="895" y1="869" x2="690" y2="664"/><line class="cls-3" x1="691" y1="537" x2="691" y2="667"/><line class="cls-3" x1="900" y1="278" x2="740.1" y2="437.9"/><line class="cls-3" x1="740.9" y1="537" x2="740.9" y2="435.6"/><line class="cls-3" x1="900" y1="796" x2="740.1" y2="636.1"/><line class="cls-3" x1="740.9" y1="537" x2="740.9" y2="638.4"/><circle class="cls-4" cx="928.5" cy="42.5" r="16.5"/><circle class="cls-4" cx="928.5" cy="843.5" r="16.5"/><circle class="cls-4" cx="928.5" cy="742.5" r="16.5"/><circle class="cls-4" cx="928.5" cy="642.5" r="16.5"/><circle class="cls-4" cx="928.5" cy="542.5" r="16.5"/><circle class="cls-4" cx="928.5" cy="442.5" r="16.5"/><circle class="cls-4" cx="928.5" cy="342.5" r="16.5"/><circle class="cls-4" cx="928.5" cy="242.5" r="16.5"/><circle class="cls-4" cx="928.5" cy="141.5" r="16.5"/><circle class="cls-4" cx="928.5" cy="943.5" r="16.5"/><circle class="cls-4" cx="928.5" cy="1043.5" r="16.5"/><circle class="cls-4" cx="854.5" cy="281.5" r="16.5"/><circle class="cls-4" cx="780.5" cy="358.5" r="16.5"/><circle class="cls-4" cx="717.5" cy="431.5" r="16.5"/><circle class="cls-4" cx="716.5" cy="540.5" r="16.5"/><circle class="cls-4" cx="861.5" cy="799.5" r="16.5"/><circle class="cls-4" cx="787.5" cy="724.5" r="16.5"/><circle class="cls-4" cx="723.5" cy="653.5" r="16.5"/><g id="Layer_3" data-name="Layer 3"><g class="cls-5"><path class="cls-2" d="M119.4,918.5q72.3,37.95,141.6,81.4c1.6,1,3.1-1.6,1.5-2.6Q193.2,954,120.9,915.9c-1.7-.9-3.2,1.7-1.5,2.6Z"/></g><g class="cls-5"><path class="cls-2" d="M171.4,930.7c24.5,14.2,49.1,28.3,73.6,42.5a1.5,1.5,0,0,0,1.5-2.6c-24.5-14.2-49.1-28.3-73.6-42.5a1.5,1.5,0,0,0-1.5,2.6Z"/></g><g class="cls-5"><path class="cls-2" d="M172.2,912.8q51.15,29.25,102.3,58.6a1.5,1.5,0,0,0,1.5-2.6q-51.15-29.25-102.3-58.6c-1.7-.9-3.2,1.7-1.5,2.6Z"/></g><g class="cls-5"><path class="cls-2" d="M149.8,950.7c16.3-3.3,32.7-6.7,49-10,1.9-.4,1.1-3.3-.8-2.9-16.3,3.3-32.7,6.7-49,10-1.8.4-1,3.3.8,2.9Z"/></g><g class="cls-5"><path class="cls-2" d="M154.5,957.9c18.6-5.3,37.2-10.7,55.7-16a1.5,1.5,0,0,0-.8-2.9c-18.6,5.3-37.2,10.7-55.7,16-1.8.6-1,3.5.8,2.9Z"/></g><g class="cls-5"><path class="cls-2" d="M184,954.8l34.5-7.8c1.9-.4,1.1-3.3-.8-2.9l-34.5,7.8c-1.9.4-1.1,3.3.8,2.9Z"/></g><g class="cls-5"><path class="cls-2" d="M180.8,963.1a612.11,612.11,0,0,1,106.5-29c1.9-.3,1.1-3.2-.8-2.9a605.74,605.74,0,0,0-106.5,29c-1.8.7-1.1,3.6.8,2.9Z"/></g><g class="cls-5"><path class="cls-6" d="M506.2,169.2q64.05-23.25,128-46.5c1.8-.7,1-3.6-.8-2.9q-64,23.25-128,46.5c-1.8.6-1,3.5.8,2.9Z"/></g><g class="cls-5"><path class="cls-6" d="M542.4,168q76.05-24.45,152.2-49c1.8-.6,1-3.5-.8-2.9q-76,24.45-152.2,49c-1.8.6-1.1,3.5.8,2.9Z"/></g><g class="cls-5"><path class="cls-6" d="M581.7,166.5q46.65-16.5,93.2-33c1.8-.6,1-3.5-.8-2.9q-46.65,16.5-93.2,33c-1.8.7-1,3.6.8,2.9Z"/></g><g class="cls-5"><path class="cls-6" d="M513,196c20.9-7.1,42.2-13.2,63.7-18.3,1.9-.4,1.1-3.3-.8-2.9a642.58,642.58,0,0,0-63.7,18.3c-1.8.6-1,3.5.8,2.9Z"/></g><g class="cls-5"><path class="cls-6" d="M528.5,143.7q71.1,14,142.3,27.8c1.9.4,2.7-2.5.8-2.9q-71.1-13.95-142.3-27.8c-1.9-.4-2.7,2.5-.8,2.9Z"/></g><g class="cls-5"><path class="cls-6" d="M556.3,142.2q58.5,9.45,116.2,22.7c1.9.4,2.7-2.5.8-2.9q-57.75-13.35-116.2-22.7c-1.9-.3-2.7,2.6-.8,2.9Z"/></g><g class="cls-5"><path class="cls-6" d="M626.7,141.9c8.7,2.1,17.5,4.3,26.2,6.4a1.5,1.5,0,0,0,.8-2.9c-8.7-2.1-17.5-4.3-26.2-6.4-1.8-.5-2.6,2.4-.8,2.9Z"/></g><g class="cls-5"><path class="cls-6" d="M586.2,135.4a159.92,159.92,0,0,1,39,4.5,1.5,1.5,0,0,0,.8-2.9,161.59,161.59,0,0,0-39.8-4.6,1.5,1.5,0,0,0,0,3Z"/></g><g class="cls-5"><path class="cls-6" d="M770,781.3a127.79,127.79,0,0,0,44.7,32.6c1.8.8,3.3-1.8,1.5-2.6a127.31,127.31,0,0,1-44.1-32.1c-1.3-1.4-3.4.7-2.1,2.1Z"/></g><g class="cls-5"><path class="cls-6" d="M788.2,816.1c15.3,9.3,30.5,18.6,45.8,27.9a1.5,1.5,0,0,0,1.5-2.6c-15.3-9.3-30.5-18.6-45.8-27.9-1.6-1-3.1,1.6-1.5,2.6Z"/></g><g class="cls-5"><path class="cls-6" d="M758.4,807.7a124.76,124.76,0,0,0,41.9,27.6c1.8.7,2.6-2.2.8-2.9a120.25,120.25,0,0,1-40.6-26.8,1.48,1.48,0,0,0-2.1,2.1Z"/></g><g class="cls-5"><path d="M253.9,959.8c-4.2-1.3-8.5-2.7-12.7-4-1.6-.5-2.7,2.1-1.2,2.7a317.66,317.66,0,0,0,42.6,15.3,1.5,1.5,0,0,0,.8-2.9,342.33,342.33,0,0,1-41.9-15l-1.2,2.7c4.2,1.3,8.5,2.7,12.7,4,1.9.7,2.7-2.2.9-2.8Z"/></g><g class="cls-5"><path d="M214.3,942.1c6,2.2,12,4.4,18,6.5,1.8.7,2.6-2.2.8-2.9-6-2.2-12-4.4-18-6.5-1.8-.6-2.6,2.3-.8,2.9Z"/></g><g class="cls-5"><path d="M251.2,958.6c7.1,2.7,14.2,5.5,21.3,8.2,1.8.7,2.6-2.2.8-2.9-7.1-2.7-14.2-5.5-21.3-8.2-1.8-.7-2.6,2.2-.8,2.9Z"/></g><g class="cls-5"><path d="M199.2,923.7c25.1,12.6,50.1,25.2,75.2,37.8,1.7.9,3.2-1.7,1.5-2.6-25.1-12.6-50.1-25.2-75.2-37.8-1.7-.9-3.2,1.7-1.5,2.6Z"/></g><g class="cls-5"><path d="M746.6,472.5a1.5,1.5,0,0,0,0-3,1.5,1.5,0,1,0,0,3Z"/></g><g class="cls-5"><path d="M750,456.3v54a1.5,1.5,0,0,0,3,0v-54a1.5,1.5,0,0,0-3,0Z"/></g><g class="cls-5"><path d="M759.9,489c-.7,12.5-1.4,25.1-2.1,37.6-.1,1.9,2.9,1.9,3,0,.7-12.5,1.4-25.1,2.1-37.6.1-1.9-2.9-1.9-3,0Z"/></g></g></g></svg>