<svg xmlns="http://www.w3.org/2000/svg" viewBox="0 0 448.39 355.51"><defs><style>.cls-1{stroke:#000;stroke-miterlimit:10;stroke-width:4px;}</style></defs><title>SpeechBubble</title><g id="Layer_2" data-name="Layer 2"><g id="Layer_1-2" data-name="Layer 1"><path class="cls-1" d="M416.39,353.51H32l-30-30V115.24l30-30H416.39l30,30V323.51Z"/><path class="cls-1" d="M143.74,83.85a.2.2,0,0,1-.2.26L136.76,84l-21.65.15h-8.69a.21.21,0,0,1-.21-.21l-.84-10.6s.84-9.86.84-9.88l8-27.19v0l14.5-34.16a.21.21,0,0,1,.4.06l2,21.72a4,4,0,0,0,.16.78l2.24,21.69v0l5,19.77Z"/></g></g></svg>