<svg id="Layer_1" data-name="Layer 1" xmlns="http://www.w3.org/2000/svg" viewBox="0 0 24 34"><defs><style>.cls-1,.cls-5{fill:#42210b;}.cls-1{stroke:#4c150b;}.cls-1,.cls-10,.cls-11,.cls-12,.cls-15,.cls-17,.cls-2,.cls-3,.cls-4,.cls-6,.cls-7,.cls-8,.cls-9{stroke-miterlimit:10;}.cls-1,.cls-2{stroke-width:0.2px;}.cls-2,.cls-3{fill:#ccc;}.cls-2,.cls-3,.cls-4,.cls-8{stroke:#7f000a;}.cls-3{stroke-width:0.18px;}.cls-4{fill:#c1272d;stroke-width:0.21px;}.cls-6{fill:#c69c6d;stroke:#8c6239;stroke-width:0.69px;}.cls-7{fill:#2b828b;stroke-width:0.67px;}.cls-11,.cls-7{stroke:#004a6a;}.cls-8{fill:#9f2800;stroke-width:0.45px;}.cls-10,.cls-9{fill:#8c6239;}.cls-9{stroke:#a67c52;}.cls-10,.cls-11,.cls-9{stroke-width:0.42px;}.cls-10{stroke:#42210b;}.cls-12{fill:#c89c6d;stroke:#000;stroke-width:0.41px;}.cls-13,.cls-15,.cls-17{fill:none;}.cls-14,.cls-15,.cls-16,.cls-17{isolation:isolate;font-family:ArialMT, Arial;}.cls-14,.cls-15{font-size:6px;}.cls-15,.cls-17{stroke:#850000;stroke-width:0.25px;}.cls-16,.cls-17{font-size:3px;}</style></defs><title>TeamLogo</title><rect width="24" height="32.1"/><path class="cls-1" d="M7.5,7.8c.2,0,.3-.2.2-.3a.22.22,0,0,0-.2-.2c-.2,0-.3.2-.2.3A.22.22,0,0,0,7.5,7.8Z"/><path class="cls-1" d="M7.3,6.9c.2,0,.3-.2.2-.3a.22.22,0,0,0-.2-.2.27.27,0,0,0-.3.3C7.1,6.8,7.2,6.9,7.3,6.9Z"/><path class="cls-1" d="M7,5.9a.27.27,0,0,0,.3-.3A.27.27,0,0,0,7,5.3a.27.27,0,0,0-.3.3A.27.27,0,0,0,7,5.9Z"/><path class="cls-1" d="M6.7,5A.32.32,0,0,0,7,4.7a.27.27,0,0,0-.3-.3.27.27,0,0,0-.3.3A.45.45,0,0,0,6.7,5Z"/><path class="cls-1" d="M6.5,4c.2,0,.3-.2.2-.3a.22.22,0,0,0-.2-.2c-.2,0-.3.2-.2.3Z"/><path class="cls-1" d="M6.2,3a.27.27,0,0,0,.3-.3.27.27,0,0,0-.3-.3.27.27,0,0,0-.3.3A.32.32,0,0,0,6.2,3Z"/><path class="cls-1" d="M5.9,2a.27.27,0,0,0,.3-.3.27.27,0,0,0-.3-.3.27.27,0,0,0-.3.3C5.7,1.8,5.8,2,5.9,2Z"/><path class="cls-1" d="M5.4,1.2A.27.27,0,0,0,5.7.9.27.27,0,0,0,5.4.6a.27.27,0,0,0-.3.3A.27.27,0,0,0,5.4,1.2Z"/><path class="cls-1" d="M4.5.8A.27.27,0,0,0,4.8.5.32.32,0,0,0,4.5.2a.45.45,0,0,0-.3.3A.32.32,0,0,0,4.5.8Z"/><path class="cls-1" d="M3.5,1c.2,0,.3-.2.2-.3A.22.22,0,0,0,3.5.5c-.2,0-.3.2-.2.3Z"/><path class="cls-1" d="M2.6,1.4a.27.27,0,0,0,.3-.3c0-.2-.1-.2-.3-.2h0a.27.27,0,0,0-.3.3C2.3,1.3,2.4,1.4,2.6,1.4Z"/><path class="cls-1" d="M2.2,2.2a.27.27,0,0,0,.3-.3c0-.2-.1-.4-.3-.4h0a.32.32,0,0,0-.3.3c0,.2.1.3.3.4Z"/><path class="cls-1" d="M2.2,3.1c.2,0,.3-.2.2-.3a.22.22,0,0,0-.2-.2c-.2-.1-.3.1-.3.2a.27.27,0,0,0,.3.3Z"/><path class="cls-1" d="M2.4,4a.27.27,0,0,0,.3-.3.27.27,0,0,0-.3-.3.27.27,0,0,0-.3.3A.32.32,0,0,0,2.4,4Z"/><path class="cls-1" d="M2.6,4.8c.2,0,.3-.2.2-.3a.22.22,0,0,0-.2-.2c-.2,0-.3.2-.2.3A.22.22,0,0,0,2.6,4.8Z"/><path class="cls-1" d="M2.8,5.8a.27.27,0,0,0,.3-.3.27.27,0,0,0-.3-.3.27.27,0,0,0-.3.3A.32.32,0,0,0,2.8,5.8Z"/><path class="cls-1" d="M3.1,6.9c.2,0,.3-.2.2-.3a.22.22,0,0,0-.2-.2c-.2,0-.3.2-.2.3Z"/><path class="cls-1" d="M3.4,7.9c.2,0,.3-.2.2-.3a.22.22,0,0,0-.2-.2c-.2,0-.3.2-.2.3A.22.22,0,0,0,3.4,7.9Z"/><path class="cls-1" d="M3.7,9A.32.32,0,0,0,4,8.7a.27.27,0,0,0-.3-.3.3.3,0,1,0,0,.6Z"/><path class="cls-2" d="M6.2,10.3H6A1.74,1.74,0,0,1,3.9,9.1L2.3,2.8A1.79,1.79,0,0,1,3.5.7L3.7.6A1.84,1.84,0,0,1,5.8,1.9L7.4,8.2A1.71,1.71,0,0,1,6.2,10.3Z"/><path class="cls-3" d="M6.1,10.3h0a1.4,1.4,0,0,1-1.7-1L2.7,2.8a1.36,1.36,0,0,1,1-1.7h0a1.45,1.45,0,0,1,1.7,1L7.1,8.6A1.45,1.45,0,0,1,6.1,10.3Z"/><path class="cls-4" d="M10.5,14.7,6.2,15.8a1.45,1.45,0,0,1-1.7-1l-1-4.1A1.45,1.45,0,0,1,4.5,9L8.8,8a1.45,1.45,0,0,1,1.7,1l1,4.1A1.43,1.43,0,0,1,10.5,14.7Z"/><path class="cls-5" d="M5.8,13.6a.4.4,0,1,0,0-.8.4.4,0,0,0,0,.8Z"/><path class="cls-5" d="M6.5,14l-.9.2c-.4.1-.2.6.2.6l.9-.2c.3-.2.2-.7-.2-.6Z"/><path class="cls-6" d="M7,16.7c-.1-.3-1.2-3-3-2.9-1.1.1-1.8,1.3-2.2,2a2.52,2.52,0,0,0-.6,2,5,5,0,0,0,1.4,1.8c.9.9,1,.9,1.1.8.7-.1.7-2,1.1-2s.5,2,1.1,2.1c.2,0,.4-.1.8-.4a1.61,1.61,0,0,0,.7-.4"/><path class="cls-7" d="M15.2,23A4.88,4.88,0,0,0,10,23a3,3,0,0,1-2-.8,2.79,2.79,0,0,1-.8-2V11.6a1.61,1.61,0,0,1,.3-.9c.7-1,2.3-.4,5.4-.4,2.8,0,4.2-.6,4.9.3a1.61,1.61,0,0,1,.3.9v8.6A2.9,2.9,0,0,1,15.2,23Z"/><path d="M12.1,17.9v.5c0,.1.1.1.2.1a.1.1,0,0,0,.1-.1v-.5c-.1,0-.1-.1-.3,0Z"/><path d="M13.5,18.1v.5c0,.1.1.1.2.1a.1.1,0,0,0,.1-.1v-.5a.19.19,0,0,0-.3,0Z"/><path d="M10,14.1a1,1,0,0,0,.8-1c0-.4-.4-.7-.8-.8a1,1,0,0,0-.8,1A1.09,1.09,0,0,0,10,14.1Z"/><path d="M15.6,14.1a1,1,0,0,0,.8-1c0-.4-.4-.7-.8-.8a1,1,0,0,0-.8,1C14.8,13.7,15.2,14,15.6,14.1Z"/><path class="cls-8" d="M20.6,17l.3-.1a.8.8,0,0,0,.6-1.1v-.1l-.1-.3a1.34,1.34,0,0,0-1.4-.6l-.4.2a.8.8,0,0,0-.6,1.1v.1l.1.3a16.2,16.2,0,0,0-3.8,1.1A34,34,0,0,0,20.6,17Z"/><circle class="cls-9" cx="12.8" cy="14.2" r="1.5"/><path class="cls-10" d="M13.4,18.9H12.1a1.81,1.81,0,0,1-1.6-.1,1.81,1.81,0,0,1-.7-1.7v-.6a2.35,2.35,0,0,1,2.3-2.4.75.75,0,0,0,.7.5,1.21,1.21,0,0,0,.5-.5,2.84,2.84,0,0,1,1.7.7,2.41,2.41,0,0,1,.7,1.7v.6a1.9,1.9,0,0,1-.7,1.7A1.76,1.76,0,0,1,13.4,18.9Z"/><ellipse class="cls-11" cx="12.6" cy="10" rx="5.9" ry="1.2"/><rect class="cls-12" x="8.3" y="7.1" width="8.4" height="2.1"/><path class="cls-11" d="M10,1h5a1.75,1.75,0,0,1,1.7,1.7v7H8.3v-7A1.69,1.69,0,0,1,10,1Z"/><rect class="cls-13" x="1.6" y="23.3" width="22.4" height="10.7"/><text class="cls-14" transform="translate(6.7 28.1)">DAD</text><text class="cls-15" transform="translate(6.7 28.1)">DAD</text><text class="cls-16" transform="translate(10.7 31.7)">Inc</text><text class="cls-17" transform="translate(10.7 31.7)">Inc</text><rect x="16.3" y="9.4" width="0.6" height="0.4"/><rect x="8" y="9.5" width="8.9" height="0.8"/></svg>