<svg id="Layer_11" data-name="Layer 11" xmlns="http://www.w3.org/2000/svg" viewBox="0 0 118 118"><defs><style>.cls-1,.cls-2{fill:#fff;}.cls-2{font-size:72px;font-family:AlienLeagueBoldItalic, Alien League Bold Italic;}</style></defs><title>A</title><path class="cls-1" d="M809.72,719A19.3,19.3,0,0,1,829,738.28v65.44A19.3,19.3,0,0,1,809.72,823H744.28A19.3,19.3,0,0,1,725,803.72V738.28A19.3,19.3,0,0,1,744.28,719h65.44m0-7H744.28A26.29,26.29,0,0,0,718,738.28v65.44A26.29,26.29,0,0,0,744.28,830h65.44A26.29,26.29,0,0,0,836,803.72V738.28A26.29,26.29,0,0,0,809.72,712Z" transform="translate(-718 -712)"/><text class="cls-2" transform="translate(40.62 81.83)">A</text></svg>