<svg id="Layer_11" data-name="Layer 11" xmlns="http://www.w3.org/2000/svg" viewBox="0 0 170 118"><defs><style>.cls-1,.cls-3{fill:#fff;}.cls-2{fill:none;stroke:#fff;stroke-miterlimit:10;stroke-width:6px;}.cls-3{font-size:21px;font-family:Atures500PERSONALUSEONLY, "Atures 500 PERSONAL USE ONLY";}</style></defs><title>Backspace</title><path class="cls-1" d="M832.45,719A24.57,24.57,0,0,1,857,743.55v54.9A24.57,24.57,0,0,1,832.45,823H725.55A24.57,24.57,0,0,1,701,798.45v-54.9A24.57,24.57,0,0,1,725.55,719h106.9m0-7H725.55A31.54,31.54,0,0,0,694,743.55v54.9A31.54,31.54,0,0,0,725.55,830h106.9A31.54,31.54,0,0,0,864,798.45v-54.9A31.54,31.54,0,0,0,832.45,712Z" transform="translate(-694 -712)"/><path class="cls-2" d="M738.76,769.41l74.67-24.26a2.83,2.83,0,0,1,3.39,4l-11.38,21.65a2.79,2.79,0,0,0,0,2.59L816.31,795a2.84,2.84,0,0,1-3.41,4L738.76,774.8A2.83,2.83,0,0,1,738.76,769.41Z" transform="translate(-694 -712)"/><text class="cls-3" transform="translate(87.24 65.53) scale(1.22 1)">x</text></svg>