<svg id="Layer_11" data-name="Layer 11" xmlns="http://www.w3.org/2000/svg" viewBox="0 0 118 118"><defs><style>.cls-1,.cls-2{fill:#fff;}.cls-2{font-size:72px;font-family:AlienLeagueBoldItalic, Alien League Bold Italic;}</style></defs><title>C</title><path class="cls-1" d="M811.72,719A19.3,19.3,0,0,1,831,738.28v65.44A19.3,19.3,0,0,1,811.72,823H746.28A19.3,19.3,0,0,1,727,803.72V738.28A19.3,19.3,0,0,1,746.28,719h65.44m0-7H746.28A26.29,26.29,0,0,0,720,738.28v65.44A26.29,26.29,0,0,0,746.28,830h65.44A26.29,26.29,0,0,0,838,803.72V738.28A26.29,26.29,0,0,0,811.72,712Z" transform="translate(-720 -712)"/><text class="cls-2" transform="translate(40.28 86.87)">C</text></svg>