<svg id="Layer_11" data-name="Layer 11" xmlns="http://www.w3.org/2000/svg" viewBox="0 0 118 118"><defs><style>.cls-1,.cls-2{fill:#fff;}.cls-2{font-size:72px;font-family:AlienLeagueBoldItalic, Alien League Bold Italic;}</style></defs><title>D</title><path class="cls-1" d="M808.72,719A19.3,19.3,0,0,1,828,738.28v65.44A19.3,19.3,0,0,1,808.72,823H743.28A19.3,19.3,0,0,1,724,803.72V738.28A19.3,19.3,0,0,1,743.28,719h65.44m0-7H743.28A26.29,26.29,0,0,0,717,738.28v65.44A26.29,26.29,0,0,0,743.28,830h65.44A26.29,26.29,0,0,0,835,803.72V738.28A26.29,26.29,0,0,0,808.72,712Z" transform="translate(-717 -712)"/><text class="cls-2" transform="translate(46.57 85.1)">D</text></svg>