<svg id="Layer_11" data-name="Layer 11" xmlns="http://www.w3.org/2000/svg" viewBox="0 0 118 118"><defs><style>.cls-1,.cls-2{fill:#fff;}.cls-2{font-size:72px;font-family:AlienLeagueBoldItalic, Alien League Bold Italic;}</style></defs><title>E</title><path class="cls-1" d="M810.72,681A19.3,19.3,0,0,1,830,700.28v65.44A19.3,19.3,0,0,1,810.72,785H745.28A19.3,19.3,0,0,1,726,765.72V700.28A19.3,19.3,0,0,1,745.28,681h65.44m0-7H745.28A26.29,26.29,0,0,0,719,700.28v65.44A26.29,26.29,0,0,0,745.28,792h65.44A26.29,26.29,0,0,0,837,765.72V700.28A26.29,26.29,0,0,0,810.72,674Z" transform="translate(-719 -674)"/><text class="cls-2" transform="translate(44.29 84.48)">E</text></svg>