<svg id="Layer_11" data-name="Layer 11" xmlns="http://www.w3.org/2000/svg" viewBox="0 0 293 118"><defs><style>.cls-1{fill:#fff;}.cls-2{fill:none;stroke:#fff;stroke-miterlimit:10;stroke-width:6px;}</style></defs><title>Enter</title><path class="cls-1" d="M884.59,719.45a34,34,0,0,1,34,34v35.18a34,34,0,0,1-34,34H674.41a34,34,0,0,1-34-34V753.41a34,34,0,0,1,34-34H884.59m0-7.45H674.41A41.41,41.41,0,0,0,633,753.41v35.18A41.41,41.41,0,0,0,674.41,830H884.59A41.41,41.41,0,0,0,926,788.59V753.41A41.41,41.41,0,0,0,884.59,712Z" transform="translate(-633 -712)"/><path class="cls-2" d="M696,770l73.43-27.85a2.83,2.83,0,0,1,3.39,4l-10.48,19.93a1.49,1.49,0,0,0-.21.62,1.25,1.25,0,0,0,0,.24c.19.58,2.85,0,2.85,0,1.78-.36,18.86-.69,60.29-1A4.74,4.74,0,0,0,830,761.3V744.73a4.73,4.73,0,0,1,4.73-4.73h11.54a4.73,4.73,0,0,1,4.73,4.73v35.53a4.74,4.74,0,0,1-4.74,4.74c-42.32,0-72.84,0-79.26,0-.58,0-2.47,0-3,1-1.38,2.64,7.19,10.74,8.31,16,.13.59.48,2.13-.38,3.13a2.79,2.79,0,0,1-3,.85l-73-26.67a4.47,4.47,0,0,1-2-1.42A5.11,5.11,0,0,1,696,770Z" transform="translate(-633 -712)"/></svg>