<svg xmlns="http://www.w3.org/2000/svg" viewBox="0 0 1431 593.56"><defs><style>.cls-1{opacity:0.2;}.cls-2{fill:#3fa9f5;}.cls-3{fill:#fff;}</style></defs><title>KeyboardBackground</title><g id="Layer_10" data-name="Layer 10"><g class="cls-1"><rect class="cls-2" x="7" y="1.06" width="1416" height="592.5" rx="40.61"/></g></g><g id="Layer_1" data-name="Layer 1"><path class="cls-3" d="M1687.17,459.5A33.86,33.86,0,0,1,1721,493.33v510.84a33.86,33.86,0,0,1-33.83,33.83H337.83A33.86,33.86,0,0,1,304,1004.17V493.33a33.86,33.86,0,0,1,33.83-33.83H1687.17m0-7H337.83A40.83,40.83,0,0,0,297,493.33v510.84A40.83,40.83,0,0,0,337.83,1045H1687.17a40.83,40.83,0,0,0,40.83-40.83V493.33a40.83,40.83,0,0,0-40.83-40.83Z" transform="translate(-297 -452.5)"/></g></svg>