<svg id="Layer_11" data-name="Layer 11" xmlns="http://www.w3.org/2000/svg" viewBox="0 0 118 118"><defs><style>.cls-1,.cls-2{fill:#fff;}.cls-2{font-size:72px;font-family:AlienLeagueBoldItalic, Alien League Bold Italic;}</style></defs><title>M</title><path class="cls-1" d="M807.72,719A19.3,19.3,0,0,1,827,738.28v65.44A19.3,19.3,0,0,1,807.72,823H742.28A19.3,19.3,0,0,1,723,803.72V738.28A19.3,19.3,0,0,1,742.28,719h65.44m0-7H742.28A26.29,26.29,0,0,0,716,738.28v65.44A26.29,26.29,0,0,0,742.28,830h65.44A26.29,26.29,0,0,0,834,803.72V738.28A26.29,26.29,0,0,0,807.72,712Z" transform="translate(-716 -712)"/><text class="cls-2" transform="translate(31.2 84.23)">M</text></svg>