<svg id="Layer_11" data-name="Layer 11" xmlns="http://www.w3.org/2000/svg" viewBox="0 0 118 118"><defs><style>.cls-1,.cls-2{fill:#fff;}.cls-2{font-size:72px;font-family:AlienLeagueBoldItalic, Alien League Bold Italic;}</style></defs><title>Q</title><path class="cls-1" d="M420.72,489A19.3,19.3,0,0,1,440,508.28v65.44A19.3,19.3,0,0,1,420.72,593H355.28A19.3,19.3,0,0,1,336,573.72V508.28A19.3,19.3,0,0,1,355.28,489h65.44m0-7H355.28A26.29,26.29,0,0,0,329,508.28v65.44A26.29,26.29,0,0,0,355.28,600h65.44A26.29,26.29,0,0,0,447,573.72V508.28A26.29,26.29,0,0,0,420.72,482Z" transform="translate(-329 -482)"/><text class="cls-2" transform="translate(42.02 79.62)">Q</text></svg>