<svg id="Layer_11" data-name="Layer 11" xmlns="http://www.w3.org/2000/svg" viewBox="0 0 118 118"><defs><style>.cls-1,.cls-2{fill:#fff;}.cls-2{font-size:72px;font-family:AlienLeagueBoldItalic, Alien League Bold Italic;}</style></defs><title>R</title><path class="cls-1" d="M810.72,719A19.3,19.3,0,0,1,830,738.28v65.44A19.3,19.3,0,0,1,810.72,823H745.28A19.3,19.3,0,0,1,726,803.72V738.28A19.3,19.3,0,0,1,745.28,719h65.44m0-7H745.28A26.29,26.29,0,0,0,719,738.28v65.44A26.29,26.29,0,0,0,745.28,830h65.44A26.29,26.29,0,0,0,837,803.72V738.28A26.29,26.29,0,0,0,810.72,712Z" transform="translate(-719 -712)"/><text class="cls-2" transform="translate(41.13 85.19)">R</text></svg>