<svg id="Layer_11" data-name="Layer 11" xmlns="http://www.w3.org/2000/svg" viewBox="0 0 966 118.1"><defs><style>.cls-1{fill:#fff;}</style></defs><title>Spacebar</title><path class="cls-1" d="M1228.27,719.54a26.11,26.11,0,0,1,26.09,26.09v50.64a26.11,26.11,0,0,1-26.09,26.09H329.73a26.11,26.11,0,0,1-26.09-26.09V745.63a26.11,26.11,0,0,1,26.09-26.09h898.54m0-7.64H329.73A33.73,33.73,0,0,0,296,745.63v50.64A33.73,33.73,0,0,0,329.73,830h898.54A33.73,33.73,0,0,0,1262,796.27V745.63a33.73,33.73,0,0,0-33.73-33.73Z" transform="translate(-296 -711.9)"/></svg>