<svg id="Layer_11" data-name="Layer 11" xmlns="http://www.w3.org/2000/svg" viewBox="0 0 118 118"><defs><style>.cls-1,.cls-2{fill:#fff;}.cls-2{font-size:72px;font-family:AlienLeagueBoldItalic, Alien League Bold Italic;}</style></defs><title>W</title><path class="cls-1" d="M806.72,744A19.3,19.3,0,0,1,826,763.28v65.44A19.3,19.3,0,0,1,806.72,848H741.28A19.3,19.3,0,0,1,722,828.72V763.28A19.3,19.3,0,0,1,741.28,744h65.44m0-7H741.28A26.29,26.29,0,0,0,715,763.28v65.44A26.29,26.29,0,0,0,741.28,855h65.44A26.29,26.29,0,0,0,833,828.72V763.28A26.29,26.29,0,0,0,806.72,737Z" transform="translate(-715 -737)"/><text class="cls-2" transform="translate(32 86.14)">W</text></svg>