<svg xmlns="http://www.w3.org/2000/svg" viewBox="0 0 1431 756.96"><defs><style>.cls-1{opacity:0.2;}.cls-2{fill:#3fa9f5;}.cls-3,.cls-4,.cls-7{fill:#fff;}.cls-4{font-size:72px;font-family:AlienLeagueBoldItalic, Alien League Bold Italic;}.cls-5,.cls-6{fill:none;stroke-miterlimit:10;}.cls-5{stroke:#3fa9f5;stroke-width:7.79px;}.cls-6{stroke:#fff;stroke-width:6px;}.cls-7{font-size:21px;font-family:Atures500PERSONALUSEONLY, "Atures 500 PERSONAL USE ONLY";}</style></defs><title>WholeKeyboard</title><g id="Layer_10" data-name="Layer 10"><g class="cls-1"><rect class="cls-2" x="7" y="164.46" width="1416" height="592.5" rx="40.61"/></g></g><g id="Layer_1" data-name="Layer 1"><path class="cls-3" d="M1687.17,459.5A33.86,33.86,0,0,1,1721,493.33v510.84a33.86,33.86,0,0,1-33.83,33.83H337.83A33.86,33.86,0,0,1,304,1004.17V493.33a33.86,33.86,0,0,1,33.83-33.83H1687.17m0-7H337.83A40.83,40.83,0,0,0,297,493.33v510.84A40.83,40.83,0,0,0,337.83,1045H1687.17a40.83,40.83,0,0,0,40.83-40.83V493.33a40.83,40.83,0,0,0-40.83-40.83Z" transform="translate(-297 -289.1)"/></g><g id="Layer_2" data-name="Layer 2"><path class="cls-3" d="M1253.72,489A19.3,19.3,0,0,1,1273,508.28v65.44A19.3,19.3,0,0,1,1253.72,593h-65.44A19.3,19.3,0,0,1,1169,573.72V508.28A19.3,19.3,0,0,1,1188.28,489h65.44m0-7h-65.44A26.29,26.29,0,0,0,1162,508.28v65.44A26.29,26.29,0,0,0,1188.28,600h65.44A26.29,26.29,0,0,0,1280,573.72V508.28A26.29,26.29,0,0,0,1253.72,482Z" transform="translate(-297 -289.1)"/><path class="cls-3" d="M1326.72,628A19.3,19.3,0,0,1,1346,647.28v65.44A19.3,19.3,0,0,1,1326.72,732h-65.44A19.3,19.3,0,0,1,1242,712.72V647.28A19.3,19.3,0,0,1,1261.28,628h65.44m0-7h-65.44A26.29,26.29,0,0,0,1235,647.28v65.44A26.29,26.29,0,0,0,1261.28,739h65.44A26.29,26.29,0,0,0,1353,712.72V647.28A26.29,26.29,0,0,0,1326.72,621Z" transform="translate(-297 -289.1)"/><path class="cls-3" d="M1370.72,767A19.3,19.3,0,0,1,1390,786.28v65.44A19.3,19.3,0,0,1,1370.72,871h-65.44A19.3,19.3,0,0,1,1286,851.72V786.28A19.3,19.3,0,0,1,1305.28,767h65.44m0-7h-65.44A26.29,26.29,0,0,0,1279,786.28v65.44A26.29,26.29,0,0,0,1305.28,878h65.44A26.29,26.29,0,0,0,1397,851.72V786.28A26.29,26.29,0,0,0,1370.72,760Z" transform="translate(-297 -289.1)"/><path class="cls-3" d="M1391.72,489A19.3,19.3,0,0,1,1411,508.28v65.44A19.3,19.3,0,0,1,1391.72,593h-65.44A19.3,19.3,0,0,1,1307,573.72V508.28A19.3,19.3,0,0,1,1326.28,489h65.44m0-7h-65.44A26.29,26.29,0,0,0,1300,508.28v65.44A26.29,26.29,0,0,0,1326.28,600h65.44A26.29,26.29,0,0,0,1418,573.72V508.28A26.29,26.29,0,0,0,1391.72,482Z" transform="translate(-297 -289.1)"/><path class="cls-3" d="M1610.59,906.45a34,34,0,0,1,34,34v35.18a34,34,0,0,1-34,34H1400.41a34,34,0,0,1-34-34V940.41a34,34,0,0,1,34-34h210.18m0-7.45H1400.41A41.41,41.41,0,0,0,1359,940.41v35.18a41.41,41.41,0,0,0,41.41,41.41h210.18A41.41,41.41,0,0,0,1652,975.59V940.41A41.41,41.41,0,0,0,1610.59,899Z" transform="translate(-297 -289.1)"/><path class="cls-3" d="M1551.45,767A24.57,24.57,0,0,1,1576,791.55v54.9A24.57,24.57,0,0,1,1551.45,871h-106.9A24.57,24.57,0,0,1,1420,846.45v-54.9A24.57,24.57,0,0,1,1444.55,767h106.9m0-7h-106.9A31.54,31.54,0,0,0,1413,791.55v54.9A31.54,31.54,0,0,0,1444.55,878h106.9A31.54,31.54,0,0,0,1583,846.45v-54.9A31.54,31.54,0,0,0,1551.45,760Z" transform="translate(-297 -289.1)"/></g><g id="Layer_8" data-name="Layer 8"><path class="cls-3" d="M1466.72,628A19.3,19.3,0,0,1,1486,647.28v65.44A19.3,19.3,0,0,1,1466.72,732h-65.44A19.3,19.3,0,0,1,1382,712.72V647.28A19.3,19.3,0,0,1,1401.28,628h65.44m0-7h-65.44A26.29,26.29,0,0,0,1375,647.28v65.44A26.29,26.29,0,0,0,1401.28,739h65.44A26.29,26.29,0,0,0,1493,712.72V647.28A26.29,26.29,0,0,0,1466.72,621Z" transform="translate(-297 -289.1)"/><path class="cls-3" d="M1531.72,489A19.3,19.3,0,0,1,1551,508.28v65.44A19.3,19.3,0,0,1,1531.72,593h-65.44A19.3,19.3,0,0,1,1447,573.72V508.28A19.3,19.3,0,0,1,1466.28,489h65.44m0-7h-65.44A26.29,26.29,0,0,0,1440,508.28v65.44A26.29,26.29,0,0,0,1466.28,600h65.44A26.29,26.29,0,0,0,1558,573.72V508.28A26.29,26.29,0,0,0,1531.72,482Z" transform="translate(-297 -289.1)"/><path class="cls-3" d="M1604.72,628A19.3,19.3,0,0,1,1624,647.28v65.44A19.3,19.3,0,0,1,1604.72,732h-65.44A19.3,19.3,0,0,1,1520,712.72V647.28A19.3,19.3,0,0,1,1539.28,628h65.44m0-7h-65.44A26.29,26.29,0,0,0,1513,647.28v65.44A26.29,26.29,0,0,0,1539.28,739h65.44A26.29,26.29,0,0,0,1631,712.72V647.28A26.29,26.29,0,0,0,1604.72,621Z" transform="translate(-297 -289.1)"/><path class="cls-3" d="M1674.72,489A19.3,19.3,0,0,1,1694,508.28v65.44A19.3,19.3,0,0,1,1674.72,593h-65.44A19.3,19.3,0,0,1,1590,573.72V508.28A19.3,19.3,0,0,1,1609.28,489h65.44m0-7h-65.44A26.29,26.29,0,0,0,1583,508.28v65.44A26.29,26.29,0,0,0,1609.28,600h65.44A26.29,26.29,0,0,0,1701,573.72V508.28A26.29,26.29,0,0,0,1674.72,482Z" transform="translate(-297 -289.1)"/></g><g id="Layer_7" data-name="Layer 7"><path class="cls-3" d="M975.72,489A19.3,19.3,0,0,1,995,508.28v65.44A19.3,19.3,0,0,1,975.72,593H910.28A19.3,19.3,0,0,1,891,573.72V508.28A19.3,19.3,0,0,1,910.28,489h65.44m0-7H910.28A26.29,26.29,0,0,0,884,508.28v65.44A26.29,26.29,0,0,0,910.28,600h65.44A26.29,26.29,0,0,0,1002,573.72V508.28A26.29,26.29,0,0,0,975.72,482Z" transform="translate(-297 -289.1)"/><path class="cls-3" d="M1048.72,628A19.3,19.3,0,0,1,1068,647.28v65.44A19.3,19.3,0,0,1,1048.72,732H983.28A19.3,19.3,0,0,1,964,712.72V647.28A19.3,19.3,0,0,1,983.28,628h65.44m0-7H983.28A26.29,26.29,0,0,0,957,647.28v65.44A26.29,26.29,0,0,0,983.28,739h65.44A26.29,26.29,0,0,0,1075,712.72V647.28A26.29,26.29,0,0,0,1048.72,621Z" transform="translate(-297 -289.1)"/><path class="cls-3" d="M1091.72,767A19.3,19.3,0,0,1,1111,786.28v65.44A19.3,19.3,0,0,1,1091.72,871h-65.44A19.3,19.3,0,0,1,1007,851.72V786.28A19.3,19.3,0,0,1,1026.28,767h65.44m0-7h-65.44A26.29,26.29,0,0,0,1000,786.28v65.44A26.29,26.29,0,0,0,1026.28,878h65.44A26.29,26.29,0,0,0,1118,851.72V786.28A26.29,26.29,0,0,0,1091.72,760Z" transform="translate(-297 -289.1)"/><path class="cls-3" d="M1113.72,489A19.3,19.3,0,0,1,1133,508.28v65.44A19.3,19.3,0,0,1,1113.72,593h-65.44A19.3,19.3,0,0,1,1029,573.72V508.28A19.3,19.3,0,0,1,1048.28,489h65.44m0-7h-65.44A26.29,26.29,0,0,0,1022,508.28v65.44A26.29,26.29,0,0,0,1048.28,600h65.44A26.29,26.29,0,0,0,1140,573.72V508.28A26.29,26.29,0,0,0,1113.72,482Z" transform="translate(-297 -289.1)"/><path class="cls-3" d="M1186.72,628A19.3,19.3,0,0,1,1206,647.28v65.44A19.3,19.3,0,0,1,1186.72,732h-65.44A19.3,19.3,0,0,1,1102,712.72V647.28A19.3,19.3,0,0,1,1121.28,628h65.44m0-7h-65.44A26.29,26.29,0,0,0,1095,647.28v65.44A26.29,26.29,0,0,0,1121.28,739h65.44A26.29,26.29,0,0,0,1213,712.72V647.28A26.29,26.29,0,0,0,1186.72,621Z" transform="translate(-297 -289.1)"/><path class="cls-3" d="M1227.72,767A19.3,19.3,0,0,1,1247,786.28v65.44A19.3,19.3,0,0,1,1227.72,871h-65.44A19.3,19.3,0,0,1,1143,851.72V786.28A19.3,19.3,0,0,1,1162.28,767h65.44m0-7h-65.44A26.29,26.29,0,0,0,1136,786.28v65.44A26.29,26.29,0,0,0,1162.28,878h65.44A26.29,26.29,0,0,0,1254,851.72V786.28A26.29,26.29,0,0,0,1227.72,760Z" transform="translate(-297 -289.1)"/><text class="cls-4" transform="translate(626.83 277.59)">T</text></g><g id="Layer_6" data-name="Layer 6"><path class="cls-3" d="M698.72,489A19.3,19.3,0,0,1,718,508.28v65.44A19.3,19.3,0,0,1,698.72,593H633.28A19.3,19.3,0,0,1,614,573.72V508.28A19.3,19.3,0,0,1,633.28,489h65.44m0-7H633.28A26.29,26.29,0,0,0,607,508.28v65.44A26.29,26.29,0,0,0,633.28,600h65.44A26.29,26.29,0,0,0,725,573.72V508.28A26.29,26.29,0,0,0,698.72,482Z" transform="translate(-297 -289.1)"/><path class="cls-3" d="M768.72,628A19.3,19.3,0,0,1,788,647.28v65.44A19.3,19.3,0,0,1,768.72,732H703.28A19.3,19.3,0,0,1,684,712.72V647.28A19.3,19.3,0,0,1,703.28,628h65.44m0-7H703.28A26.29,26.29,0,0,0,677,647.28v65.44A26.29,26.29,0,0,0,703.28,739h65.44A26.29,26.29,0,0,0,795,712.72V647.28A26.29,26.29,0,0,0,768.72,621Z" transform="translate(-297 -289.1)"/><path class="cls-3" d="M814.72,767A19.3,19.3,0,0,1,834,786.28v65.44A19.3,19.3,0,0,1,814.72,871H749.28A19.3,19.3,0,0,1,730,851.72V786.28A19.3,19.3,0,0,1,749.28,767h65.44m0-7H749.28A26.29,26.29,0,0,0,723,786.28v65.44A26.29,26.29,0,0,0,749.28,878h65.44A26.29,26.29,0,0,0,841,851.72V786.28A26.29,26.29,0,0,0,814.72,760Z" transform="translate(-297 -289.1)"/><path class="cls-3" d="M836.72,489A19.3,19.3,0,0,1,856,508.28v65.44A19.3,19.3,0,0,1,836.72,593H771.28A19.3,19.3,0,0,1,752,573.72V508.28A19.3,19.3,0,0,1,771.28,489h65.44m0-7H771.28A26.29,26.29,0,0,0,745,508.28v65.44A26.29,26.29,0,0,0,771.28,600h65.44A26.29,26.29,0,0,0,863,573.72V508.28A26.29,26.29,0,0,0,836.72,482Z" transform="translate(-297 -289.1)"/><path class="cls-3" d="M909.72,628A19.3,19.3,0,0,1,929,647.28v65.44A19.3,19.3,0,0,1,909.72,732H844.28A19.3,19.3,0,0,1,825,712.72V647.28A19.3,19.3,0,0,1,844.28,628h65.44m0-7H844.28A26.29,26.29,0,0,0,818,647.28v65.44A26.29,26.29,0,0,0,844.28,739h65.44A26.29,26.29,0,0,0,936,712.72V647.28A26.29,26.29,0,0,0,909.72,621Z" transform="translate(-297 -289.1)"/><path class="cls-3" d="M952.72,767A19.3,19.3,0,0,1,972,786.28v65.44A19.3,19.3,0,0,1,952.72,871H887.28A19.3,19.3,0,0,1,868,851.72V786.28A19.3,19.3,0,0,1,887.28,767h65.44m0-7H887.28A26.29,26.29,0,0,0,861,786.28v65.44A26.29,26.29,0,0,0,887.28,878h65.44A26.29,26.29,0,0,0,979,851.72V786.28A26.29,26.29,0,0,0,952.72,760Z" transform="translate(-297 -289.1)"/><text class="cls-4" transform="translate(354.29 277.37)">E</text><text class="cls-4" transform="translate(489.13 278.09)">R</text></g><g id="Layer_5" data-name="Layer 5"><path class="cls-3" d="M414.72,489A19.3,19.3,0,0,1,434,508.28v65.44A19.3,19.3,0,0,1,414.72,593H349.28A19.3,19.3,0,0,1,330,573.72V508.28A19.3,19.3,0,0,1,349.28,489h65.44m0-7H349.28A26.29,26.29,0,0,0,323,508.28v65.44A26.29,26.29,0,0,0,349.28,600h65.44A26.29,26.29,0,0,0,441,573.72V508.28A26.29,26.29,0,0,0,414.72,482Z" transform="translate(-297 -289.1)"/><path class="cls-3" d="M487.72,628A19.3,19.3,0,0,1,507,647.28v65.44A19.3,19.3,0,0,1,487.72,732H422.28A19.3,19.3,0,0,1,403,712.72V647.28A19.3,19.3,0,0,1,422.28,628h65.44m0-7H422.28A26.29,26.29,0,0,0,396,647.28v65.44A26.29,26.29,0,0,0,422.28,739h65.44A26.29,26.29,0,0,0,514,712.72V647.28A26.29,26.29,0,0,0,487.72,621Z" transform="translate(-297 -289.1)"/><path class="cls-3" d="M530.72,767A19.3,19.3,0,0,1,550,786.28v65.44A19.3,19.3,0,0,1,530.72,871H465.28A19.3,19.3,0,0,1,446,851.72V786.28A19.3,19.3,0,0,1,465.28,767h65.44m0-7H465.28A26.29,26.29,0,0,0,439,786.28v65.44A26.29,26.29,0,0,0,465.28,878h65.44A26.29,26.29,0,0,0,557,851.72V786.28A26.29,26.29,0,0,0,530.72,760Z" transform="translate(-297 -289.1)"/><path class="cls-3" d="M552.72,489A19.3,19.3,0,0,1,572,508.28v65.44A19.3,19.3,0,0,1,552.72,593H487.28A19.3,19.3,0,0,1,468,573.72V508.28A19.3,19.3,0,0,1,487.28,489h65.44m0-7H487.28A26.29,26.29,0,0,0,461,508.28v65.44A26.29,26.29,0,0,0,487.28,600h65.44A26.29,26.29,0,0,0,579,573.72V508.28A26.29,26.29,0,0,0,552.72,482Z" transform="translate(-297 -289.1)"/><path class="cls-3" d="M625.72,628A19.3,19.3,0,0,1,645,647.28v65.44A19.3,19.3,0,0,1,625.72,732H560.28A19.3,19.3,0,0,1,541,712.72V647.28A19.3,19.3,0,0,1,560.28,628h65.44m0-7H560.28A26.29,26.29,0,0,0,534,647.28v65.44A26.29,26.29,0,0,0,560.28,739h65.44A26.29,26.29,0,0,0,652,712.72V647.28A26.29,26.29,0,0,0,625.72,621Z" transform="translate(-297 -289.1)"/><path class="cls-3" d="M668.72,767A19.3,19.3,0,0,1,688,786.28v65.44A19.3,19.3,0,0,1,668.72,871H603.28A19.3,19.3,0,0,1,584,851.72V786.28A19.3,19.3,0,0,1,603.28,767h65.44m0-7H603.28A26.29,26.29,0,0,0,577,786.28v65.44A26.29,26.29,0,0,0,603.28,878h65.44A26.29,26.29,0,0,0,695,851.72V786.28A26.29,26.29,0,0,0,668.72,760Z" transform="translate(-297 -289.1)"/><text class="cls-4" transform="translate(68.02 272.51)">Q</text><text class="cls-4" transform="translate(196 279.04)">W</text><text class="cls-4" transform="translate(765.95 277.37)">Y</text><text class="cls-4" transform="translate(908.36 276.73)">U</text><text class="cls-4" transform="translate(1047.98 275.37)">I</text><text class="cls-4" transform="translate(1184.96 277.23)">O</text><text class="cls-4" transform="translate(1325.94 279.3)">P</text><text class="cls-4" transform="translate(279.52 415.43)">S</text><text class="cls-4" transform="translate(426.57 417)">D</text><text class="cls-4" transform="translate(564.62 417)">F</text><text class="cls-4" transform="translate(700.17 418)">G</text><text class="cls-4" transform="translate(841.3 415.71)">H</text><text class="cls-4" transform="translate(977.35 414)">J</text><text class="cls-4" transform="translate(1117.97 414.07)">K</text><text class="cls-4" transform="translate(1258.95 416.29)">L</text><text class="cls-4" transform="translate(179.74 554.91)">Z</text><text class="cls-4" transform="translate(320.44 554.48)">X</text><text class="cls-4" transform="translate(466.28 557.77)">C</text><text class="cls-4" transform="translate(604.33 555.12)">V</text><text class="cls-4" transform="translate(743.38 555.19)">B</text><text class="cls-4" transform="translate(880.5 558.34)">N</text><text class="cls-4" transform="translate(1013.2 555.12)">M</text></g><g id="Layer_4" data-name="Layer 4"><path class="cls-3" d="M1304.27,906.54a26.11,26.11,0,0,1,26.09,26.09v50.64a26.11,26.11,0,0,1-26.09,26.09H405.73a26.11,26.11,0,0,1-26.09-26.09V932.63a26.11,26.11,0,0,1,26.09-26.09h898.54m0-7.64H405.73A33.73,33.73,0,0,0,372,932.63v50.64A33.73,33.73,0,0,0,405.73,1017h898.54A33.73,33.73,0,0,0,1338,983.27V932.63a33.73,33.73,0,0,0-33.73-33.73Z" transform="translate(-297 -289.1)"/><line class="cls-5" x1="269" y1="3.9" x2="269" y2="3.9"/></g><g id="Layer_9" data-name="Layer 9"><text class="cls-4" transform="translate(139.62 413.73)">A</text><path class="cls-6" d="M1457.76,817.41l74.67-24.26a2.83,2.83,0,0,1,3.39,4l-11.38,21.65a2.79,2.79,0,0,0,0,2.59l10.89,21.6a2.84,2.84,0,0,1-3.41,4l-74.14-24.18A2.83,2.83,0,0,1,1457.76,817.41Z" transform="translate(-297 -289.1)"/><text class="cls-7" transform="translate(1203.24 536.42) scale(1.22 1)">x</text><path class="cls-6" d="M1422,957l73.43-27.85a2.83,2.83,0,0,1,3.39,4l-10.48,19.93a1.49,1.49,0,0,0-.21.62,1.25,1.25,0,0,0,0,.24c.19.58,2.85,0,2.85,0,1.78-.36,18.86-.69,60.29-1a4.74,4.74,0,0,0,4.71-4.73V931.73a4.73,4.73,0,0,1,4.73-4.73h11.54a4.73,4.73,0,0,1,4.73,4.73v35.53a4.74,4.74,0,0,1-4.74,4.74c-42.32,0-72.84,0-79.26,0-.58,0-2.47,0-3,1-1.38,2.64,7.19,10.74,8.31,16,.13.59.48,2.13-.38,3.13a2.79,2.79,0,0,1-3,.85l-73.05-26.67a4.47,4.47,0,0,1-2-1.42A5.11,5.11,0,0,1,1422,957Z" transform="translate(-297 -289.1)"/></g></svg>