<svg xmlns="http://www.w3.org/2000/svg" xmlns:xlink="http://www.w3.org/1999/xlink" viewBox="0 0 43.6 43.74"><defs><style>.cls-1{stroke:#fff;fill:url(#linear-gradient);}.cls-1,.cls-2,.cls-3{stroke-miterlimit:10;}.cls-2,.cls-3{stroke:#b75954;}.cls-2{fill:url(#linear-gradient-2);}.cls-3{fill:none;}.cls-4{opacity:0.6;}.cls-5{fill:#fff;}</style><linearGradient id="linear-gradient" x1="3.72" y1="29.51" x2="42.99" y2="12.92" gradientUnits="userSpaceOnUse"><stop offset="0" stop-color="#e39524"/><stop offset="0.14" stop-color="#e39e2a"/><stop offset="0.34" stop-color="#e3b338"/><stop offset="0.98" stop-color="#e39524"/></linearGradient><linearGradient id="linear-gradient-2" x1="8.89" y1="15.05" x2="38.42" y2="31.43" gradientUnits="userSpaceOnUse"><stop offset="0" stop-color="#e39524"/><stop offset="0.14" stop-color="#e39e2a"/><stop offset="0.34" stop-color="#e3b338"/><stop offset="0.78" stop-color="#fbba63"/></linearGradient></defs><title>bronze</title><g id="Layer_2" data-name="Layer 2"><g id="Layer_1-2" data-name="Layer 1"><ellipse class="cls-1" cx="21.8" cy="21.87" rx="21.3" ry="21.37"/><ellipse class="cls-2" cx="21.8" cy="22.21" rx="16.87" ry="16.93"/><path class="cls-3" d="M33.79,14.34a12.48,12.48,0,0,1-1.95,4.21,19.49,19.49,0,0,1-4.54,4.83,26.6,26.6,0,0,1-4.37,2.54c-1.93,1-3.59,1.72-4.78,2.2l-2.41-3.87"/><path class="cls-3" d="M33.55,14.91a14.35,14.35,0,0,0-4,0,19.34,19.34,0,0,0-6.32,2,27.53,27.53,0,0,0-4.2,2.83C17.32,21,16,22.17,15,23l2.41,3.87"/><path class="cls-3" d="M23.05,32c-1.46.92-.68-.61-1.19-1.44s-2.14-.65-.68-1.57,3.06-1,3.58-.15S24.51,31.11,23.05,32Z"/><path class="cls-3" d="M20,30a2.41,2.41,0,0,0-1.92.91c-.67.75-.79,1.75-.66,1.8s.31-.58.91-.77c.4-.12.93,0,1,.25s-.5.89-.59,1a3.24,3.24,0,0,1-2.82.57c-.77-.19-1.27-.64-1.34-.55s.38.51.68.77a4.13,4.13,0,0,0,1.61,1,3.44,3.44,0,0,0,2,0,4.64,4.64,0,0,0,1.57-1,4.23,4.23,0,0,0,1-1,1.63,1.63,0,0,0,.35-1,1.73,1.73,0,0,0-.21-.66,2.26,2.26,0,0,0-.45-.72A1.93,1.93,0,0,0,20,30Z"/><line class="cls-3" x1="21.81" y1="26.03" x2="22.4" y2="28.74"/><path class="cls-3" d="M13.61,16.84c-1.46.91.24.88.76,1.71s-.35,2.21,1.11,1.3,2.22-2.33,1.7-3.16S15.06,15.92,13.61,16.84Z"/><path class="cls-3" d="M14.06,20.44a2.41,2.41,0,0,1-1.65,1.33,2.22,2.22,0,0,1-1.91-.2c0-.11.66,0,1.09-.48.28-.31.43-.83.24-1.05s-1,.06-1.13.11A3.27,3.27,0,0,0,9,22.44c-.16.78,0,1.43-.09,1.45s-.29-.56-.39-.95a4.2,4.2,0,0,1-.18-1.88,3.57,3.57,0,0,1,.9-1.76,4.89,4.89,0,0,1,1.57-1,4,4,0,0,1,1.32-.43,1.62,1.62,0,0,1,1.07.13,1.73,1.73,0,0,1,.5.48,2.14,2.14,0,0,1,.44.72A1.93,1.93,0,0,1,14.06,20.44Z"/><line class="cls-3" x1="18.42" y1="20.59" x2="16.25" y2="18.86"/><ellipse class="cls-3" cx="25.68" cy="19.82" rx="1.52" ry="1.52"/><line class="cls-3" x1="14.61" y1="26.74" x2="8.9" y2="30.32"/><line class="cls-3" x1="14.85" y1="25.07" x2="12.28" y2="26.68"/><line class="cls-3" x1="16.83" y1="28.44" x2="12.69" y2="31.03"/><line class="cls-3" x1="17.89" y1="20.22" x2="21.9" y2="26.67"/><line class="cls-3" x1="13.38" y1="24.53" x2="10.05" y2="26.69"/><line class="cls-3" x1="15.71" y1="27.51" x2="13.72" y2="28.77"/><g class="cls-4"><path class="cls-5" d="M30.55,39.13a37,37,0,0,0,9.22-11.47c1.33-2.57-2.55-4.85-3.88-2.27A33.79,33.79,0,0,1,27.37,36c-2.23,1.85,1,5,3.18,3.18Z"/></g><g class="cls-4"><path class="cls-5" d="M31,30.37,32.9,28a2.47,2.47,0,0,0,.66-1.59,2.26,2.26,0,0,0-3.85-1.6c-.64.81-1.29,1.62-1.94,2.42a2.42,2.42,0,0,0-.66,1.59A2.25,2.25,0,0,0,31,30.37Z"/></g></g></g></svg>