<svg xmlns="http://www.w3.org/2000/svg" xmlns:xlink="http://www.w3.org/1999/xlink" viewBox="0 0 12.75 12.75"><defs><style>.cls-1{stroke:#fff;fill:url(#linear-gradient);}.cls-1,.cls-2,.cls-3{stroke-miterlimit:10;stroke-width:0.25px;}.cls-2,.cls-3{stroke:#b73f54;}.cls-2{fill:url(#linear-gradient-2);}.cls-3{fill:none;}.cls-4{opacity:0.6;}.cls-5{fill:#fff;}</style><linearGradient id="linear-gradient" x1="0.13" y1="7.48" x2="12.63" y2="7.48" gradientTransform="matrix(1, 0, 0, -1, 0, 13.85)" gradientUnits="userSpaceOnUse"><stop offset="0" stop-color="#d95914"/><stop offset="0.06" stop-color="#da601d"/><stop offset="0.17" stop-color="#dd7437"/><stop offset="0.3" stop-color="#e29560"/><stop offset="0.34" stop-color="#e39f6d"/><stop offset="0.98" stop-color="#d95914"/></linearGradient><linearGradient id="linear-gradient-2" x1="0.67" y1="10.54" x2="11.79" y2="4.38" gradientTransform="matrix(1, 0, 0, -1, 0, 13.85)" gradientUnits="userSpaceOnUse"><stop offset="0.23" stop-color="#e36d24"/><stop offset="0.28" stop-color="#e3732d"/><stop offset="0.35" stop-color="#e38547"/><stop offset="0.44" stop-color="#e39f6d"/><stop offset="0.9" stop-color="#e36d24"/></linearGradient></defs><title>Bronze_Fix</title><g id="Layer_2" data-name="Layer 2"><g id="Layer_1-2" data-name="Layer 1"><circle class="cls-1" cx="6.38" cy="6.38" r="6.25"/><circle class="cls-2" cx="6.38" cy="6.48" r="4.95"/><path class="cls-3" d="M9.91,4.18a3.73,3.73,0,0,1-.57,1.23A6,6,0,0,1,8,6.82a9.72,9.72,0,0,1-1.28.75c-.57.29-1,.5-1.4.64L4.61,7.08"/><path class="cls-3" d="M9.84,4.35a3.82,3.82,0,0,0-1.17,0,5.52,5.52,0,0,0-1.86.58,7.26,7.26,0,0,0-1.23.81c-.51.39-.91.74-1.2,1l.7,1.14"/><path class="cls-3" d="M6.76,9.35c-.43.27-.2-.19-.36-.42s-.62-.19-.19-.46.89-.29,1,0S7.17,9.07,6.76,9.35Z"/><path class="cls-3" d="M5.87,8.77A.7.7,0,0,0,5.3,9c-.19.23-.23.52-.19.53s.09-.17.27-.22.27,0,.3.06-.14.26-.17.28a1,1,0,0,1-.83.17c-.22,0-.37-.19-.39-.16s.11.14.2.22A1.1,1.1,0,0,0,5,10.2a1,1,0,0,0,.58,0A1.32,1.32,0,0,0,6,9.91a1.61,1.61,0,0,0,.24-.28.57.57,0,0,0,.1-.31.39.39,0,0,0-.06-.18.52.52,0,0,0-.14-.21A.45.45,0,0,0,5.87,8.77Z"/><line class="cls-3" x1="6.38" y1="7.6" x2="6.56" y2="8.39"/><path class="cls-3" d="M4,4.9c-.43.28.08.26.23.5s-.11.65.32.38.65-.68.5-.93S4.41,4.63,4,4.9Z"/><path class="cls-3" d="M4.12,6a.73.73,0,0,1-.49.4.65.65,0,0,1-.56-.07.46.46,0,0,0,.31-.14c.13-.14.13-.24.07-.3s-.3,0-.33,0a1,1,0,0,0-.51,1.09,1.43,1.43,0,0,1-.12-.28,1.66,1.66,0,0,1-.05-.55,1.15,1.15,0,0,1,.23-.47,1.36,1.36,0,0,1,.47-.29.89.89,0,0,1,.39-.12A.37.37,0,0,1,4,5.4a.52.52,0,0,1,.14.21A.65.65,0,0,1,4.12,6Z"/><line class="cls-3" x1="5.39" y1="6.01" x2="4.76" y2="5.5"/><circle class="cls-3" cx="7.52" cy="5.78" r="0.44"/><line class="cls-3" x1="4.27" y1="7.81" x2="2.6" y2="8.85"/><line class="cls-3" x1="4.34" y1="7.32" x2="3.59" y2="7.79"/><line class="cls-3" x1="4.91" y1="8.3" x2="3.71" y2="9.06"/><line class="cls-3" x1="5.24" y1="5.89" x2="6.41" y2="7.79"/><line class="cls-3" x1="3.91" y1="7.16" x2="2.93" y2="7.79"/><line class="cls-3" x1="4.59" y1="8.03" x2="4.01" y2="8.4"/><g class="cls-4"><path class="cls-5" d="M9,11.42a11.06,11.06,0,0,0,2.71-3.36c.38-.74-.74-1.41-1.13-.66A10,10,0,0,1,8,10.49C7.37,11,8.31,12,9,11.42Z"/></g><g class="cls-4"><path class="cls-5" d="M9.07,8.86l.56-.71c.53-.64-.39-1.59-.93-.93l-.57.71C7.61,8.58,8.53,9.51,9.07,8.86Z"/></g></g></g></svg>