<svg xmlns="http://www.w3.org/2000/svg" xmlns:xlink="http://www.w3.org/1999/xlink" viewBox="0 0 43.44 43.44"><defs><style>.cls-1{stroke:#fff;fill:url(#linear-gradient);}.cls-1,.cls-2,.cls-3{stroke-miterlimit:10;}.cls-2,.cls-3{stroke:#ff910a;}.cls-2{fill:url(#linear-gradient-2);}.cls-3{fill:none;}.cls-4{opacity:0.6;}.cls-5{fill:#fff;}</style><linearGradient id="linear-gradient" x1="3.72" y1="29.33" x2="42.81" y2="12.8" gradientUnits="userSpaceOnUse"><stop offset="0" stop-color="#ffc500"/><stop offset="0.11" stop-color="#fac809"/><stop offset="0.31" stop-color="#eed123"/><stop offset="0.44" stop-color="#e3d938"/><stop offset="0.98" stop-color="#ffc500"/></linearGradient><linearGradient id="linear-gradient-2" x1="8.99" y1="15" x2="38.39" y2="31.3" gradientUnits="userSpaceOnUse"><stop offset="0" stop-color="#ffdf00"/><stop offset="0.13" stop-color="#ffd602"/><stop offset="0.34" stop-color="#ffbc07"/><stop offset="0.45" stop-color="#ffad0a"/><stop offset="0.83" stop-color="#ffdf00"/></linearGradient></defs><title>gold</title><g id="Layer_2" data-name="Layer 2"><g id="Layer_1-2" data-name="Layer 1"><circle class="cls-1" cx="21.72" cy="21.72" r="21.22"/><circle class="cls-2" cx="21.72" cy="22.06" r="16.8"/><path class="cls-3" d="M33.66,14.24a12.24,12.24,0,0,1-1.94,4.18,19.33,19.33,0,0,1-4.52,4.8,27.6,27.6,0,0,1-4.35,2.52c-1.92,1-3.58,1.7-4.77,2.18l-2.4-3.84"/><path class="cls-3" d="M33.42,14.81a13.77,13.77,0,0,0-4,0,19.7,19.7,0,0,0-6.3,1.95A27.9,27.9,0,0,0,19,19.55c-1.72,1.29-3.09,2.46-4.05,3.32l2.39,3.84"/><path class="cls-3" d="M23,31.79c-1.46.91-.68-.6-1.19-1.43s-2.13-.65-.68-1.55,3-1,3.57-.15S24.42,30.89,23,31.79Z"/><path class="cls-3" d="M20,29.82a2.4,2.4,0,0,0-1.91.9,2.26,2.26,0,0,0-.66,1.79c.11.05.31-.58.91-.76.4-.12.93,0,1,.24s-.5.88-.59,1a3.25,3.25,0,0,1-2.81.56c-.77-.19-1.27-.63-1.33-.55s.37.51.68.77a4.07,4.07,0,0,0,1.6,1,3.41,3.41,0,0,0,1.95,0,4.64,4.64,0,0,0,1.57-1,4.15,4.15,0,0,0,1-1,1.62,1.62,0,0,0,.35-1A1.68,1.68,0,0,0,21.5,31a2.25,2.25,0,0,0-.44-.71A1.88,1.88,0,0,0,20,29.82Z"/><line class="cls-3" x1="21.73" y1="25.85" x2="22.32" y2="28.54"/><path class="cls-3" d="M13.56,16.72c-1.46.91.24.87.76,1.7s-.35,2.19,1.1,1.29,2.22-2.32,1.7-3.14S15,15.81,13.56,16.72Z"/><path class="cls-3" d="M14,20.29a2.44,2.44,0,0,1-1.65,1.33,2.28,2.28,0,0,1-1.9-.2c0-.11.66,0,1.08-.48s.44-.83.25-1-1,.06-1.13.11a3.27,3.27,0,0,0-1.74,2.27c-.17.78,0,1.42-.09,1.44s-.29-.56-.39-.94a4.17,4.17,0,0,1-.18-1.87,3.49,3.49,0,0,1,.89-1.74,4.83,4.83,0,0,1,1.57-1A3.73,3.73,0,0,1,12,17.77a1.65,1.65,0,0,1,1.06.12,1.73,1.73,0,0,1,.5.48,2.09,2.09,0,0,1,.44.71A1.9,1.9,0,0,1,14,20.29Z"/><line class="cls-3" x1="18.35" y1="20.45" x2="16.19" y2="18.73"/><circle class="cls-3" cx="25.59" cy="19.68" r="1.51"/><line class="cls-3" x1="14.56" y1="26.55" x2="8.87" y2="30.11"/><line class="cls-3" x1="14.79" y1="24.89" x2="12.23" y2="26.49"/><line class="cls-3" x1="16.77" y1="28.24" x2="12.64" y2="30.81"/><line class="cls-3" x1="17.83" y1="20.07" x2="21.82" y2="26.48"/><line class="cls-3" x1="13.34" y1="24.36" x2="10.02" y2="26.5"/><line class="cls-3" x1="15.65" y1="27.31" x2="13.67" y2="28.56"/><g class="cls-4"><path class="cls-5" d="M30.45,38.86a36.59,36.59,0,0,0,9.18-11.39c1.34-2.57-2.55-4.84-3.88-2.27a33.53,33.53,0,0,1-8.49,10.48c-2.23,1.85,1,5,3.19,3.18Z"/></g><g class="cls-4"><path class="cls-5" d="M30.84,30.16l1.94-2.4a2.42,2.42,0,0,0,.66-1.59,2.31,2.31,0,0,0-.66-1.59,2.27,2.27,0,0,0-3.18,0L27.66,27A2.42,2.42,0,0,0,27,28.57a2.25,2.25,0,0,0,3.84,1.59Z"/></g></g></g></svg>