<svg xmlns="http://www.w3.org/2000/svg" viewBox="0 0 12.51 12.51"><defs><style>.cls-1,.cls-2{fill:#ccc;}.cls-2,.cls-3,.cls-4,.cls-5{stroke:#b3b3b3;stroke-miterlimit:10;}.cls-2{stroke-width:0.37px;}.cls-3,.cls-4,.cls-5{fill:none;}.cls-3{stroke-width:0.35px;}.cls-4{stroke-width:0.25px;}.cls-5{stroke-width:0.1px;}</style></defs><title>GreyScale</title><g id="Layer_2" data-name="Layer 2"><g id="Layer_1-2" data-name="Layer 1"><circle class="cls-1" cx="6.25" cy="6.25" r="6.25"/><circle class="cls-2" cx="6.25" cy="6.35" r="4.95"/><path class="cls-3" d="M9.77,4.05A3.54,3.54,0,0,1,9.2,5.28,5.56,5.56,0,0,1,7.87,6.69a7.62,7.62,0,0,1-1.29.75c-.56.29-1,.5-1.4.64L4.47,7"/><path class="cls-3" d="M9.7,4.22a4,4,0,0,0-1.17,0,5.75,5.75,0,0,0-1.85.58,7.86,7.86,0,0,0-1.23.82c-.51.39-.92.73-1.2,1L5,7.73"/><path class="cls-4" d="M6.62,9.22c-.43.27-.2-.18-.35-.42s-.63-.19-.2-.46.9-.29,1,0S7.05,9,6.62,9.22Z"/><path class="cls-5" d="M5.73,8.64a.72.72,0,0,0-.56.26c-.2.23-.23.52-.19.53s.09-.17.26-.22.28,0,.31.07-.15.26-.17.28a1,1,0,0,1-.83.17c-.23-.06-.38-.19-.39-.16s.11.15.19.22a1.17,1.17,0,0,0,.48.29,1,1,0,0,0,.57,0,1.37,1.37,0,0,0,.46-.29,1.1,1.1,0,0,0,.29-.29.51.51,0,0,0,.1-.3A.47.47,0,0,0,6.19,9a.67.67,0,0,0-.13-.21A.52.52,0,0,0,5.73,8.64Z"/><line class="cls-3" x1="6.25" y1="7.47" x2="6.43" y2="8.26"/><path class="cls-4" d="M3.85,4.78c-.43.27.07.26.22.5s-.1.65.33.38.65-.68.5-.92S4.28,4.51,3.85,4.78Z"/><path class="cls-5" d="M4,5.83a.7.7,0,0,1-.48.39.67.67,0,0,1-.57-.06s.2,0,.32-.14.13-.24.08-.3-.3,0-.33,0a.92.92,0,0,0-.52.67c0,.23,0,.42,0,.42s-.09-.16-.12-.28A1,1,0,0,1,2.55,5.5,1.46,1.46,0,0,1,3,5.21a1.42,1.42,0,0,1,.39-.12.48.48,0,0,1,.31,0,.53.53,0,0,1,.15.15A.54.54,0,0,1,4,5.48.6.6,0,0,1,4,5.83Z"/><line class="cls-3" x1="5.26" y1="5.88" x2="4.63" y2="5.37"/><circle class="cls-5" cx="7.39" cy="5.65" r="0.44"/><line class="cls-5" x1="4.14" y1="7.68" x2="2.47" y2="8.72"/><line class="cls-5" x1="4.21" y1="7.19" x2="3.46" y2="7.66"/><line class="cls-5" x1="4.79" y1="8.17" x2="3.58" y2="8.93"/><line class="cls-5" x1="5.11" y1="5.77" x2="6.28" y2="7.66"/><line class="cls-5" x1="3.78" y1="7.03" x2="2.8" y2="7.66"/><line class="cls-5" x1="4.46" y1="7.9" x2="3.88" y2="8.27"/></g></g></svg>