<svg xmlns="http://www.w3.org/2000/svg" xmlns:xlink="http://www.w3.org/1999/xlink" viewBox="0 0 743.55 44.2"><defs><style>.cls-1,.cls-9{stroke:#fff;}.cls-1,.cls-10,.cls-11,.cls-2,.cls-3,.cls-6,.cls-7,.cls-8,.cls-9{stroke-miterlimit:10;}.cls-1{fill:url(#linear-gradient);}.cls-2,.cls-3{stroke:#b75954;}.cls-2{fill:url(#linear-gradient-2);}.cls-11,.cls-3,.cls-8{fill:none;}.cls-4{opacity:0.6;}.cls-5{fill:#fff;}.cls-6{stroke:#f2f2f2;fill:url(#linear-gradient-3);}.cls-7,.cls-8{stroke:#666;}.cls-7{fill:url(#linear-gradient-4);}.cls-9{fill:url(#linear-gradient-5);}.cls-10,.cls-11{stroke:#ff910a;}.cls-10{fill:url(#linear-gradient-6);}</style><linearGradient id="linear-gradient" x1="3.72" y1="29.78" x2="42.99" y2="13.18" gradientUnits="userSpaceOnUse"><stop offset="0" stop-color="#e39524"/><stop offset="0.14" stop-color="#e39e2a"/><stop offset="0.34" stop-color="#e3b338"/><stop offset="0.98" stop-color="#e39524"/></linearGradient><linearGradient id="linear-gradient-2" x1="8.89" y1="15.32" x2="38.42" y2="31.7" gradientUnits="userSpaceOnUse"><stop offset="0" stop-color="#e39524"/><stop offset="0.14" stop-color="#e39e2a"/><stop offset="0.34" stop-color="#e3b338"/><stop offset="0.78" stop-color="#fbba63"/></linearGradient><linearGradient id="linear-gradient-3" x1="362.59" y1="29.44" x2="401.84" y2="12.85" gradientUnits="userSpaceOnUse"><stop offset="0" stop-color="#b3b3b3"/><stop offset="0.1" stop-color="#bcbcbc"/><stop offset="0.25" stop-color="#d6d6d6"/><stop offset="0.34" stop-color="#e6e6e6"/><stop offset="0.98" stop-color="#b3b3b3"/></linearGradient><linearGradient id="linear-gradient-4" x1="367.76" y1="14.99" x2="397.27" y2="31.35" gradientUnits="userSpaceOnUse"><stop offset="0" stop-color="#c4cace"/><stop offset="0.13" stop-color="#cdd2d5"/><stop offset="0.34" stop-color="#e6e6e6"/><stop offset="0.78" stop-color="#ccc"/></linearGradient><linearGradient id="linear-gradient-5" x1="703.83" y1="30.09" x2="742.92" y2="13.56" gradientUnits="userSpaceOnUse"><stop offset="0" stop-color="#ffc500"/><stop offset="0.11" stop-color="#fac809"/><stop offset="0.31" stop-color="#eed123"/><stop offset="0.44" stop-color="#e3d938"/><stop offset="0.98" stop-color="#ffc500"/></linearGradient><linearGradient id="linear-gradient-6" x1="709.1" y1="15.76" x2="738.5" y2="32.07" gradientUnits="userSpaceOnUse"><stop offset="0" stop-color="#ffdf00"/><stop offset="0.13" stop-color="#ffd602"/><stop offset="0.34" stop-color="#ffbc07"/><stop offset="0.45" stop-color="#ffad0a"/><stop offset="0.83" stop-color="#ffdf00"/></linearGradient></defs><title>Medals</title><g id="Layer_2" data-name="Layer 2"><g id="Layer_1-2" data-name="Layer 1"><ellipse class="cls-1" cx="21.8" cy="22.14" rx="21.3" ry="21.37"/><ellipse class="cls-2" cx="21.8" cy="22.48" rx="16.87" ry="16.93"/><path class="cls-3" d="M33.79,14.61a12.57,12.57,0,0,1-1.95,4.21,19.49,19.49,0,0,1-4.54,4.83,27.34,27.34,0,0,1-4.37,2.54c-1.93,1-3.59,1.71-4.78,2.2l-2.41-3.87"/><path class="cls-3" d="M33.55,15.18a13.9,13.9,0,0,0-4,0,19.42,19.42,0,0,0-6.32,2A27.53,27.53,0,0,0,19.05,20C17.32,21.26,16,22.44,15,23.3l2.41,3.87"/><path class="cls-3" d="M23.05,32.29c-1.46.91-.68-.61-1.19-1.44s-2.14-.66-.68-1.57,3.06-1,3.58-.15S24.51,31.37,23.05,32.29Z"/><path class="cls-3" d="M20,30.3a2.41,2.41,0,0,0-1.92.9c-.67.76-.79,1.75-.66,1.81s.31-.59.91-.77c.4-.12.93,0,1,.24s-.5.89-.59,1A3.24,3.24,0,0,1,16,34c-.77-.19-1.27-.64-1.34-.55s.38.51.68.77a4,4,0,0,0,1.61,1,3.46,3.46,0,0,0,2,0,4.86,4.86,0,0,0,1.57-1,4.06,4.06,0,0,0,1-1,1.41,1.41,0,0,0,.14-1.68,2.26,2.26,0,0,0-.45-.72A1.93,1.93,0,0,0,20,30.3Z"/><line class="cls-3" x1="21.81" y1="26.3" x2="22.4" y2="29.01"/><path class="cls-3" d="M13.61,17.1c-1.46.92.24.88.76,1.71S14,21,15.48,20.11s2.22-2.33,1.7-3.16S15.06,16.19,13.61,17.1Z"/><path class="cls-3" d="M14.06,20.7A2.43,2.43,0,0,1,12.41,22a2.29,2.29,0,0,1-1.91-.2c0-.12.66,0,1.09-.49.28-.3.43-.83.24-1s-1,.06-1.13.1A3.31,3.31,0,0,0,9,22.71c-.16.78,0,1.43-.09,1.45s-.29-.57-.39-.95a4.22,4.22,0,0,1-.18-1.88,3.52,3.52,0,0,1,.9-1.76,4.57,4.57,0,0,1,1.57-1,4,4,0,0,1,1.32-.43,1.68,1.68,0,0,1,1.07.12,1.92,1.92,0,0,1,.5.49,2,2,0,0,1,.44.71A1.92,1.92,0,0,1,14.06,20.7Z"/><line class="cls-3" x1="18.42" y1="20.86" x2="16.25" y2="19.13"/><ellipse class="cls-3" cx="25.68" cy="20.09" rx="1.52" ry="1.52"/><line class="cls-3" x1="14.61" y1="27.01" x2="8.9" y2="30.59"/><line class="cls-3" x1="14.85" y1="25.33" x2="12.28" y2="26.94"/><line class="cls-3" x1="16.83" y1="28.7" x2="12.69" y2="31.3"/><line class="cls-3" x1="17.89" y1="20.48" x2="21.9" y2="26.93"/><line class="cls-3" x1="13.38" y1="24.8" x2="10.05" y2="26.95"/><line class="cls-3" x1="15.71" y1="27.77" x2="13.72" y2="29.04"/><g class="cls-4"><path class="cls-5" d="M30.55,39.4a37,37,0,0,0,9.22-11.47c1.33-2.57-2.55-4.85-3.88-2.28a33.82,33.82,0,0,1-8.52,10.57c-2.23,1.85,1,5,3.18,3.18Z"/></g><g class="cls-4"><path class="cls-5" d="M31,30.63l1.95-2.42a2.47,2.47,0,0,0,.66-1.59A2.31,2.31,0,0,0,32.9,25a2.29,2.29,0,0,0-3.19,0c-.64.81-1.29,1.61-1.94,2.42A2.42,2.42,0,0,0,27.11,29,2.25,2.25,0,0,0,31,30.63Z"/></g><circle class="cls-6" cx="380.66" cy="21.8" r="21.3"/><circle class="cls-7" cx="380.66" cy="22.14" r="16.87"/><path class="cls-8" d="M392.65,14.3a12.31,12.31,0,0,1-1.95,4.19,19.23,19.23,0,0,1-4.53,4.81,27.5,27.5,0,0,1-4.38,2.54c-1.93,1-3.58,1.7-4.78,2.19l-2.41-3.86"/><path class="cls-8" d="M392.41,14.86a14.35,14.35,0,0,0-4,0,19.16,19.16,0,0,0-6.32,2,27.16,27.16,0,0,0-4.2,2.81c-1.73,1.3-3.1,2.48-4.07,3.34l2.41,3.85"/><path class="cls-8" d="M381.91,31.91c-1.46.91-.67-.61-1.19-1.43s-2.14-.66-.68-1.57,3.06-1,3.58-.15S383.37,31,381.91,31.91Z"/><path class="cls-8" d="M378.89,29.93a2.41,2.41,0,0,0-1.92.9,2.29,2.29,0,0,0-.66,1.8c.1,0,.31-.58.91-.76.4-.13.94,0,1,.24s-.49.88-.59,1a3.24,3.24,0,0,1-2.82.57c-.77-.19-1.27-.64-1.33-.55s.37.5.67.76a4,4,0,0,0,1.61,1,3.44,3.44,0,0,0,2,0,4.64,4.64,0,0,0,1.57-1,3.88,3.88,0,0,0,1-1,1.7,1.7,0,0,0,.36-1,2,2,0,0,0-.22-.66,2.18,2.18,0,0,0-.44-.71A2,2,0,0,0,378.89,29.93Z"/><line class="cls-8" x1="380.67" y1="25.94" x2="381.26" y2="28.65"/><path class="cls-8" d="M372.47,16.78c-1.46.91.25.88.76,1.7s-.35,2.21,1.11,1.3,2.22-2.32,1.71-3.15S373.93,15.87,372.47,16.78Z"/><path class="cls-8" d="M372.92,20.37a2.44,2.44,0,0,1-1.65,1.33,2.3,2.3,0,0,1-1.91-.2c0-.12.66,0,1.09-.48.28-.31.43-.83.24-1.05s-1,.06-1.12.11a3.28,3.28,0,0,0-1.76,2.28c-.16.78,0,1.43-.09,1.45s-.29-.56-.39-.95a4,4,0,0,1-.17-1.87,3.41,3.41,0,0,1,.89-1.75,4.67,4.67,0,0,1,1.57-1,4.18,4.18,0,0,1,1.32-.43A1.62,1.62,0,0,1,372,18a1.73,1.73,0,0,1,.5.48,2.16,2.16,0,0,1,.45.71A2,2,0,0,1,372.92,20.37Z"/><line class="cls-8" x1="377.28" y1="20.52" x2="375.12" y2="18.8"/><circle class="cls-8" cx="384.54" cy="19.75" r="1.52"/><line class="cls-8" x1="373.48" y1="26.65" x2="367.76" y2="30.22"/><line class="cls-8" x1="373.71" y1="24.98" x2="371.14" y2="26.59"/><line class="cls-8" x1="375.69" y1="28.34" x2="371.55" y2="30.93"/><line class="cls-8" x1="376.75" y1="20.15" x2="380.77" y2="26.58"/><line class="cls-8" x1="372.25" y1="24.45" x2="368.91" y2="26.59"/><line class="cls-8" x1="374.57" y1="27.41" x2="372.58" y2="28.67"/><g class="cls-4"><path class="cls-5" d="M390.09,30.69c.71-.88,1.43-1.76,2.14-2.65a2.3,2.3,0,0,0,0-3.18,2.27,2.27,0,0,0-3.18,0l-2.14,2.65a2.3,2.3,0,0,0,0,3.18,2.27,2.27,0,0,0,3.18,0Z"/></g><g class="cls-4"><path class="cls-5" d="M389.42,39a37,37,0,0,0,9.22-11.43c1.33-2.57-2.55-4.85-3.89-2.27a33.63,33.63,0,0,1-8.52,10.52c-2.23,1.85,1,5,3.19,3.18Z"/></g><circle class="cls-9" cx="721.83" cy="22.48" r="21.22"/><circle class="cls-10" cx="721.83" cy="22.82" r="16.8"/><path class="cls-11" d="M733.77,15a12.3,12.3,0,0,1-1.94,4.17,19.33,19.33,0,0,1-4.52,4.8A26.84,26.84,0,0,1,723,26.5c-1.92,1-3.58,1.7-4.77,2.19l-2.4-3.84"/><path class="cls-11" d="M733.53,15.57a14.21,14.21,0,0,0-4,0,19.19,19.19,0,0,0-6.3,2,27.71,27.71,0,0,0-4.18,2.8c-1.72,1.3-3.09,2.47-4.05,3.33l2.4,3.84"/><path class="cls-11" d="M723.08,32.56c-1.46.9-.68-.61-1.19-1.43s-2.13-.65-.68-1.56,3-1,3.57-.15S724.53,31.65,723.08,32.56Z"/><path class="cls-11" d="M720.06,30.58a2.4,2.4,0,0,0-1.91.9,2.27,2.27,0,0,0-.66,1.79c.11,0,.31-.58.91-.76.4-.12.93,0,1,.24s-.5.88-.59,1a3.28,3.28,0,0,1-2.81.57c-.77-.19-1.27-.64-1.33-.55s.37.5.68.76a4.07,4.07,0,0,0,1.6,1,3.4,3.4,0,0,0,2,0,4.75,4.75,0,0,0,1.57-1,4,4,0,0,0,1-1,1.62,1.62,0,0,0,.35-1,1.68,1.68,0,0,0-.21-.66,2.18,2.18,0,0,0-.44-.71A2,2,0,0,0,720.06,30.58Z"/><line class="cls-11" x1="721.84" y1="26.61" x2="722.43" y2="29.3"/><path class="cls-11" d="M713.67,17.48c-1.46.91.25.87.76,1.7s-.35,2.2,1.1,1.29,2.22-2.31,1.7-3.14S715.12,16.57,713.67,17.48Z"/><path class="cls-11" d="M714.12,21.05a2.41,2.41,0,0,1-1.65,1.33,2.24,2.24,0,0,1-1.9-.2c0-.11.66,0,1.09-.48.28-.3.43-.82.24-1s-1,.06-1.12.11A3.28,3.28,0,0,0,709,23c-.16.78,0,1.42-.09,1.44s-.29-.55-.39-.94a4,4,0,0,1-.17-1.87,3.41,3.41,0,0,1,.89-1.74,4.66,4.66,0,0,1,1.56-1,4,4,0,0,1,1.32-.43,1.65,1.65,0,0,1,1.06.12,2,2,0,0,1,.5.48,2.14,2.14,0,0,1,.44.72A1.86,1.86,0,0,1,714.12,21.05Z"/><line class="cls-11" x1="718.46" y1="21.21" x2="716.31" y2="19.49"/><circle class="cls-11" cx="725.7" cy="20.44" r="1.51"/><line class="cls-11" x1="714.67" y1="27.32" x2="708.98" y2="30.87"/><line class="cls-11" x1="714.91" y1="25.65" x2="712.34" y2="27.25"/><line class="cls-11" x1="716.88" y1="29" x2="712.75" y2="31.57"/><line class="cls-11" x1="717.94" y1="20.84" x2="721.93" y2="27.24"/><line class="cls-11" x1="713.45" y1="25.12" x2="710.13" y2="27.26"/><line class="cls-11" x1="715.76" y1="28.07" x2="713.78" y2="29.33"/><g class="cls-4"><path class="cls-5" d="M730.56,39.63a36.74,36.74,0,0,0,9.18-11.4c1.34-2.56-2.54-4.84-3.88-2.27a33.64,33.64,0,0,1-8.48,10.48c-2.24,1.85,1,5,3.18,3.19Z"/></g><g class="cls-4"><path class="cls-5" d="M731,30.92l1.94-2.4a2.42,2.42,0,0,0,.66-1.59,2.31,2.31,0,0,0-.66-1.59,2.27,2.27,0,0,0-3.18,0l-1.94,2.4a2.42,2.42,0,0,0-.66,1.59,2.31,2.31,0,0,0,.66,1.59,2.26,2.26,0,0,0,3.18,0Z"/></g></g></g></svg>