<svg xmlns="http://www.w3.org/2000/svg" xmlns:xlink="http://www.w3.org/1999/xlink" viewBox="0 0 43.6 43.6"><defs><style>.cls-1{stroke:#f2f2f2;fill:url(#linear-gradient);}.cls-1,.cls-2,.cls-3{stroke-miterlimit:10;}.cls-2,.cls-3{stroke:#666;}.cls-2{fill:url(#linear-gradient-2);}.cls-3{fill:none;}.cls-4{opacity:0.6;}.cls-5{fill:#fff;}</style><linearGradient id="linear-gradient" x1="3.73" y1="29.44" x2="42.97" y2="12.85" gradientUnits="userSpaceOnUse"><stop offset="0" stop-color="#b3b3b3"/><stop offset="0.1" stop-color="#bcbcbc"/><stop offset="0.25" stop-color="#d6d6d6"/><stop offset="0.34" stop-color="#e6e6e6"/><stop offset="0.98" stop-color="#b3b3b3"/></linearGradient><linearGradient id="linear-gradient-2" x1="8.9" y1="14.99" x2="38.41" y2="31.35" gradientUnits="userSpaceOnUse"><stop offset="0" stop-color="#c4cace"/><stop offset="0.13" stop-color="#cdd2d5"/><stop offset="0.34" stop-color="#e6e6e6"/><stop offset="0.78" stop-color="#ccc"/></linearGradient></defs><title>silver</title><g id="Layer_2" data-name="Layer 2"><g id="Layer_1-2" data-name="Layer 1"><circle class="cls-1" cx="21.8" cy="21.8" r="21.3"/><circle class="cls-2" cx="21.8" cy="22.14" r="16.87"/><path class="cls-3" d="M33.79,14.3a12.51,12.51,0,0,1-1.95,4.19A19.32,19.32,0,0,1,27.3,23.3a27.34,27.34,0,0,1-4.37,2.54c-1.93,1-3.59,1.7-4.78,2.19l-2.41-3.86"/><path class="cls-3" d="M33.55,14.86a14.35,14.35,0,0,0-4,0,19.09,19.09,0,0,0-6.32,2,27.16,27.16,0,0,0-4.2,2.81C17.32,20.92,16,22.1,15,23l2.41,3.85"/><path class="cls-3" d="M23.05,31.91c-1.46.91-.68-.61-1.19-1.43s-2.14-.66-.68-1.57,3.06-1,3.58-.15S24.51,31,23.05,31.91Z"/><path class="cls-3" d="M20,29.93a2.41,2.41,0,0,0-1.92.9c-.67.76-.79,1.74-.66,1.8s.31-.58.91-.76c.4-.13.93,0,1,.24s-.5.88-.59,1a3.24,3.24,0,0,1-2.82.57c-.77-.19-1.27-.64-1.34-.55s.38.5.68.76a4,4,0,0,0,1.61,1,3.44,3.44,0,0,0,2,0,4.64,4.64,0,0,0,1.57-1,4.06,4.06,0,0,0,1-1,1.63,1.63,0,0,0,.35-1,1.73,1.73,0,0,0-.21-.66,2.22,2.22,0,0,0-.45-.71A1.93,1.93,0,0,0,20,29.93Z"/><line class="cls-3" x1="21.81" y1="25.94" x2="22.4" y2="28.65"/><path class="cls-3" d="M13.61,16.78c-1.46.91.24.88.76,1.7s-.35,2.21,1.11,1.3,2.22-2.32,1.7-3.15S15.06,15.87,13.61,16.78Z"/><path class="cls-3" d="M14.06,20.37a2.44,2.44,0,0,1-1.65,1.33,2.29,2.29,0,0,1-1.91-.2c0-.12.66,0,1.09-.48.28-.31.43-.83.24-1.05s-1,.06-1.13.11A3.3,3.3,0,0,0,9,22.36c-.16.78,0,1.43-.09,1.45s-.29-.56-.39-.95A4.16,4.16,0,0,1,8.29,21a3.48,3.48,0,0,1,.9-1.75,4.57,4.57,0,0,1,1.57-1,4,4,0,0,1,1.32-.43,1.62,1.62,0,0,1,1.07.13,1.73,1.73,0,0,1,.5.48,2,2,0,0,1,.44.71A1.93,1.93,0,0,1,14.06,20.37Z"/><line class="cls-3" x1="18.42" y1="20.52" x2="16.25" y2="18.8"/><circle class="cls-3" cx="25.68" cy="19.75" r="1.52"/><line class="cls-3" x1="14.61" y1="26.65" x2="8.9" y2="30.22"/><line class="cls-3" x1="14.85" y1="24.98" x2="12.28" y2="26.59"/><line class="cls-3" x1="16.83" y1="28.34" x2="12.69" y2="30.93"/><line class="cls-3" x1="17.89" y1="20.15" x2="21.9" y2="26.58"/><line class="cls-3" x1="13.38" y1="24.45" x2="10.05" y2="26.59"/><line class="cls-3" x1="15.71" y1="27.41" x2="13.72" y2="28.67"/><g class="cls-4"><path class="cls-5" d="M31.23,30.69c.71-.88,1.43-1.76,2.14-2.65a2.3,2.3,0,0,0,0-3.18,2.27,2.27,0,0,0-3.18,0c-.72.88-1.43,1.77-2.14,2.65a2.3,2.3,0,0,0,0,3.18,2.27,2.27,0,0,0,3.18,0Z"/></g><g class="cls-4"><path class="cls-5" d="M30.55,39a36.73,36.73,0,0,0,9.22-11.43c1.34-2.57-2.54-4.85-3.88-2.27a33.63,33.63,0,0,1-8.52,10.52c-2.23,1.85,1,5,3.18,3.18Z"/></g></g></g></svg>