<?xml version="1.0" encoding="utf-8"?>
<!-- Generator: Adobe Illustrator 23.0.2, SVG Export Plug-In . SVG Version: 6.00 Build 0)  -->
<svg version="1.1" id="Layer_1" xmlns="http://www.w3.org/2000/svg" xmlns:xlink="http://www.w3.org/1999/xlink" x="0px" y="0px"
	 viewBox="0 0 31.7 24.7" style="enable-background:new 0 0 31.7 24.7;" xml:space="preserve">
<style type="text/css">
	.st0{fill:#FFFFFF;}
	.st1{fill:none;stroke:#FFFFFF;stroke-width:0.62;stroke-miterlimit:10;}
	.st2{fill:#FFFFFF;stroke:#FFFFFF;stroke-width:0.62;stroke-miterlimit:10;}
	.st3{fill:none;stroke:#FFFFFF;stroke-width:0.59;stroke-miterlimit:10;}
</style>
<title>icon_openbox</title>
<path class="st0" d="M15.4,11l-2.5,3c-0.3,0.3-0.2,0.8,0.1,1.1c0.1,0.1,0.3,0.2,0.5,0.2h4.9c0.4,0,0.8-0.3,0.8-0.8l0,0
	c0-0.2-0.1-0.3-0.2-0.5l-2.4-3c-0.3-0.3-0.7-0.4-1.1-0.1C15.4,10.9,15.4,10.9,15.4,11z"/>
<path class="st0" d="M16.6,21.6h-1.5c-0.5,0-0.9-0.4-0.9-0.9v-5.3c0-0.5,0.4-0.9,0.9-0.9h1.5c0.5,0,0.9,0.4,0.9,0.9v5.3
	C17.6,21.2,17.1,21.6,16.6,21.6z"/>
<path class="st1" d="M7.4,8h17.1c0.6,0,1.1,0.5,1.1,1.1v14.2c0,0.6-0.5,1.1-1.1,1.1H7.4c-0.6,0-1.1-0.5-1.1-1.1V9.1
	C6.3,8.5,6.8,8,7.4,8z"/>
<path class="st2" d="M25.2,8.4c0-0.2-0.1-0.3-0.2-0.5l-3.7-4.8c-0.2-0.2-0.4-0.4-0.7-0.4h-9.4c-0.3,0-0.5,0.1-0.7,0.4L6.6,7.9
	C6.5,8.1,6.5,8.2,6.4,8.4H25.2z"/>
<path class="st3" d="M5.7,7.7l-5-3.7c-0.4-0.3-0.5-1-0.2-1.4c0,0,0,0,0,0c0.1-0.1,0.2-0.2,0.3-0.3l4.6-1.9c0.3-0.1,0.6-0.1,0.8,0
	l3.5,1.9c0.5,0.3,0.6,0.9,0.4,1.4L10,3.8L7,7.5C6.7,7.9,6.1,8,5.7,7.7z"/>
<path class="st3" d="M26,7.8L31,4c0.4-0.4,0.5-1,0.1-1.4c0,0,0,0,0,0c-0.1-0.1-0.2-0.2-0.3-0.3l-4.6-1.9c-0.3-0.1-0.5-0.1-0.8,0.1
	l-3.5,1.9c-0.5,0.3-0.6,0.9-0.4,1.4l0.1,0.1l3.1,3.7C25,8,25.6,8.1,26,7.8z"/>
</svg>
