<svg id="Layer_1" data-name="Layer 1" xmlns="http://www.w3.org/2000/svg" viewBox="0 0 24 24"><defs><style>.cls-1{fill:#fff;}</style></defs><title>icon</title><path class="cls-1" d="M12.3,1.33A11.16,11.16,0,0,0,1.17,12.63a11.3,11.3,0,1,0,22.6,0A11.45,11.45,0,0,0,12.3,1.33ZM7.14,12.81C7.05,11.92,7,10.94,7,9.89s.06-2.19.15-3.15A.86.86,0,0,1,8,5.91a.81.81,0,0,1,.86.83,22.08,22.08,0,0,1,.2,3,23.58,23.58,0,0,1-.2,3.09A.86.86,0,0,1,7.14,12.81Zm5,2.51c2.79,0,5.29,2.52,5,3.3-.11.27-.56.36-1,.38H8.35c-.45,0-.91-.1-1-.37C7,17.86,9.38,15.37,12.09,15.32Zm4.72-2.52a.86.86,0,0,1-1.71,0,20.67,20.67,0,0,1,0-6.15A.87.87,0,0,1,16,5.83a.85.85,0,0,1,.85.82,16.62,16.62,0,0,1,.29,3.24A16.7,16.7,0,0,1,16.81,12.8Z"/></svg>