<svg id="Layer_1" data-name="Layer 1" xmlns="http://www.w3.org/2000/svg" viewBox="0 0 24 24"><defs><style>.cls-1,.cls-2{fill:none;stroke:#fff;stroke-miterlimit:10;}.cls-1{stroke-width:1.14px;}.cls-2{stroke-width:0.49px;}.cls-3{fill:#fff;}</style></defs><title>icon</title><path class="cls-1" d="M1.48,3.64A19.27,19.27,0,0,0,3.22,15.87,14.14,14.14,0,0,0,6.43,19.6a13.37,13.37,0,0,0,5.09,2.77,14.63,14.63,0,0,0,5.85-3.54,14.73,14.73,0,0,0,2.45-3,17.08,17.08,0,0,0,1.8-4.76,17.24,17.24,0,0,0-.06-7.47,11.61,11.61,0,0,1-5.31-.23A11.51,11.51,0,0,1,11.72,1,11.39,11.39,0,0,1,6.82,3.6,11.31,11.31,0,0,1,1.48,3.64Z"/><path class="cls-2" d="M4.49,6.37a13.86,13.86,0,0,0,0,4.72A13.61,13.61,0,0,0,5.72,15,9.93,9.93,0,0,0,8,17.64a9.47,9.47,0,0,0,3.59,1.95,10.33,10.33,0,0,0,4.13-2.5A10.75,10.75,0,0,0,17.44,15a12.07,12.07,0,0,0,1.27-3.36,12.18,12.18,0,0,0,0-5.27,8.34,8.34,0,0,1-3.75-.16,8.41,8.41,0,0,1-3.2-1.73A8,8,0,0,1,8.26,6.34,8.08,8.08,0,0,1,4.49,6.37Z"/><path class="cls-2" d="M11.78,1V4.61"/><path class="cls-2" d="M1.48,3.58,4.53,6.63"/><path class="cls-2" d="M11.46,22.38V19.64"/><path class="cls-3" d="M13.44,21.74c5.84-3.15,8.45-8.24,8.15-14.88-.07-1.57-2.53-1.58-2.45,0,.26,5.82-1.83,10-6.93,12.76-1.39.75-.15,2.87,1.23,2.12Z"/><path class="cls-3" d="M21,6.55a1,1,0,0,0,0-2,1,1,0,0,0,0,2Z"/><path class="cls-3" d="M20.75,4.36A7.5,7.5,0,0,0,19,6.42c-.34.87.07,2,0,2.86-.08.63.9.62,1,0a13,13,0,0,1,0-2.42,5.52,5.52,0,0,1,1.43-1.81c.44-.45-.26-1.15-.69-.69Z"/><path class="cls-3" d="M11.35,19.92l.05,1.58c0,.63,1,.63,1,0l-.05-1.58c0-.63-1-.63-1,0Z"/><path class="cls-3" d="M11.67,2.74c0,.08.34,1.2.4,1l.45-.59-.1.07a1,1,0,0,0-.2,1.54c1.11,1.2,3.48,1.45,5,1.54v-2c-1.25.1-1.82-1.06-2.95-1.41s-1.71,1.5-.52,1.89a12.5,12.5,0,0,0,6,.44l-.75-1.79c-.6.34-1.18.69-1.75,1.08a1,1,0,0,0,.23,1.79,1.73,1.73,0,0,0,2.26-.72,1,1,0,0,0-1.69-1l-.17.29.59-.46h-.47l.24,1.79c.57-.38,1.15-.74,1.75-1.08,1-.59.28-2-.76-1.79a10.49,10.49,0,0,1-5-.44l-.52,1.89c.63.2,1,.88,1.59,1.19a3.29,3.29,0,0,0,1.88.29,1,1,0,0,0,0-2c-.92,0-2.94-.22-3.63-1l-.2,1.55c1.08-.78.29-1.63.15-2.67-.17-1.24-2.06-.71-1.89.52Z"/><path class="cls-3" d="M18.78,6.8c.45-.14,1.18-.21,1.39-.7A6.33,6.33,0,0,0,20.44,5l.12-.46c.05-.21.06-.47-.21-.24l.41.23,0-.12c.12-.29-.35-.41-.47-.13l-.05.12c-.1.25.24.38.41.24s.4-.46.22-.74a.39.39,0,0,0-.61-.08c-.28.26-.3.89-.39,1.24s-.1.76-.36.93a3.89,3.89,0,0,1-.91.3c-.3.1-.17.57.13.47Z"/></svg>