<svg id="Layer_1" data-name="Layer 1" xmlns="http://www.w3.org/2000/svg" viewBox="0 0 24 24"><defs><style>.cls-1{fill:red;}</style></defs><title>icon</title><rect class="cls-1" x="0.93" y="5.65" width="7.93" height="7.93" rx="1.27"/><path class="cls-1" d="M20.06,6.2c-.72-.66-1.4-.7-3.75-.69-1.25,0-2.73,0-4.4.11h-.46a.89.89,0,0,0-.88.88v.21c0,.84,0,5.33,0,7.13,0,1.53,1.76,1.34,2.55,3.34.18.47.54,1.71.65,2s.16.74.27,1.23c.28,1.2.35,1.39.55,1.5a1.47,1.47,0,0,0,1.5-.41A3,3,0,0,0,16.78,19c-.09-1.78-1.19-2.68-.82-3.14.18-.22.54-.59,1.51-.41,1.31.24,1.61.4,2.84.53a6.36,6.36,0,0,0,1.94-.39,2.09,2.09,0,0,0,.82-1c.21-.66-.38-.91-.28-1.79.06-.56.3-.57.28-1.08a3.23,3.23,0,0,0-.41-1.23c-.3-.65-.41-.68-.41-1s0-.51,0-.95A1.45,1.45,0,0,0,22,7.84c-.32-.52-.71-.65-1.23-1.1S20.35,6.46,20.06,6.2Z"/></svg>