<svg id="Layer_1" data-name="Layer 1" xmlns="http://www.w3.org/2000/svg" viewBox="0 0 31.66 24.66"><defs><style>.cls-1,.cls-3{fill:#fff;}.cls-2,.cls-4{fill:none;}.cls-2,.cls-3,.cls-4{stroke:#fff;stroke-miterlimit:10;}.cls-2,.cls-3{stroke-width:0.62px;}.cls-4{stroke-width:0.59px;}</style></defs><title>icon_openbox</title><path class="cls-1" d="M16.93,22.33l2.49-2.95a.76.76,0,0,0-.09-1.07.74.74,0,0,0-.49-.18h-4.9a.76.76,0,0,0-.76.76.78.78,0,0,0,.17.48l2.41,2.95a.77.77,0,0,0,1.07.11A.94.94,0,0,0,16.93,22.33Z" transform="translate(-0.49 -0.97)"/><rect class="cls-1" x="14.24" y="10.71" width="3.35" height="7.19" rx="0.94"/><rect class="cls-2" x="6.31" y="7.99" width="19.21" height="16.36" rx="1.07"/><path class="cls-3" d="M25.73,9.37a1,1,0,0,0-.19-.48L21.79,4.07a.87.87,0,0,0-.73-.36H11.62a.88.88,0,0,0-.68.36L7.14,8.89a.93.93,0,0,0-.2.48Z" transform="translate(-0.49 -0.97)"/><path class="cls-4" d="M6.15,8.63l-5-3.75A1,1,0,0,1,1,3.47a.84.84,0,0,1,.31-.25L5.94,1.36a1,1,0,0,1,.83,0L10.22,3.3a1,1,0,0,1,.37,1.36l-.06.1-3,3.73A1,1,0,0,1,6.15,8.63Z" transform="translate(-0.49 -0.97)"/><path class="cls-4" d="M26.5,8.76,31.5,5a1,1,0,0,0,.12-1.41.84.84,0,0,0-.31-.25L26.73,1.48a1,1,0,0,0-.79.06L22.43,3.42a1,1,0,0,0-.38,1.36l.07.11,3.06,3.72A1,1,0,0,0,26.5,8.76Z" transform="translate(-0.49 -0.97)"/></svg>