<svg id="Layer_1" data-name="Layer 1" xmlns="http://www.w3.org/2000/svg" viewBox="0 0 24 24"><defs><style>.cls-1,.cls-3{fill:none;}.cls-1,.cls-2,.cls-3{stroke:#fff;stroke-miterlimit:10;}.cls-1{stroke-width:1.14px;}.cls-2{fill:#fff;}.cls-2,.cls-3{stroke-width:0.49px;}</style></defs><title>icon</title><path class="cls-1" d="M2,3.64A19.27,19.27,0,0,0,3.7,15.87,14.14,14.14,0,0,0,6.91,19.6,13.37,13.37,0,0,0,12,22.37a14.63,14.63,0,0,0,5.85-3.54,14.73,14.73,0,0,0,2.45-3,17.08,17.08,0,0,0,1.8-4.76A17.24,17.24,0,0,0,22,3.64a11.61,11.61,0,0,1-5.31-.23A11.51,11.51,0,0,1,12.2,1,11.39,11.39,0,0,1,7.3,3.6,11.31,11.31,0,0,1,2,3.64Z"/><path class="cls-2" d="M5,6.37a13.86,13.86,0,0,0,0,4.72A13.61,13.61,0,0,0,6.2,15a9.93,9.93,0,0,0,2.27,2.64,9.47,9.47,0,0,0,3.59,1.95,10.33,10.33,0,0,0,4.13-2.5A10.75,10.75,0,0,0,17.92,15a12.07,12.07,0,0,0,1.27-3.36,12.18,12.18,0,0,0,0-5.27,8.34,8.34,0,0,1-3.75-.16,8.33,8.33,0,0,1-3.2-1.73A8,8,0,0,1,8.74,6.34,8.08,8.08,0,0,1,5,6.37Z"/><path class="cls-3" d="M22,3.66l-2.91,2.9"/><path class="cls-3" d="M12.26,1V4.61"/><path class="cls-3" d="M2,3.58,5,6.63"/><path class="cls-3" d="M11.94,22.38V19.64"/></svg>