<svg id="Layer_1" data-name="Layer 1" xmlns="http://www.w3.org/2000/svg" viewBox="0 0 24 24"><defs><style>.cls-1,.cls-2{fill:#fff;}.cls-1,.cls-2,.cls-3,.cls-4{stroke:#fff;stroke-miterlimit:10;}.cls-1{stroke-width:0.76px;}.cls-2{stroke-width:0.15px;}.cls-3,.cls-4{fill:none;}.cls-3{stroke-width:1.06px;}.cls-4{stroke-width:0.47px;}</style></defs><title>icon</title><path class="cls-1" d="M12.25,17.31a1.35,1.35,0,0,0,0-.29A1.14,1.14,0,1,0,10,17a1.35,1.35,0,0,0,0,.29Z"/><path class="cls-2" d="M16.41,11l-3,5.84a2.09,2.09,0,0,0-.65-1.64,2,2,0,0,0-1.63-.51Z"/><path class="cls-3" d="M22.55,17.31c0-.13,0-.26,0-.39a10.92,10.92,0,1,0-21.83,0c0,.13,0,.26,0,.39Z"/><path class="cls-4" d="M20.14,16.94v-.31A8.53,8.53,0,0,0,11.68,8a8.53,8.53,0,0,0-8.46,8.6c0,.1,0,.21,0,.31Z"/></svg>