<svg id="Layer_1" data-name="Layer 1" xmlns="http://www.w3.org/2000/svg" viewBox="0 0 24 24"><defs><style>.cls-1{fill:#fff;}.cls-2{fill:none;stroke:#fff;stroke-miterlimit:10;stroke-width:1.24px;}</style></defs><title>icon</title><path class="cls-1" d="M12.68,8.22V9.39c2.2,0,4.13.08,6.79.19a.77.77,0,0,1,.39.1h0a63.52,63.52,0,0,1-1.06,6.39v.07a20.69,20.69,0,0,1-1.21,4.78.65.65,0,0,1-.09.13,1.22,1.22,0,0,1-.66.34,19.35,19.35,0,0,1-4,.44h-.1a18.48,18.48,0,0,1-4-.44,1.37,1.37,0,0,1-.46-.2,1.91,1.91,0,0,1-.38-.36,15.84,15.84,0,0,1-1-4c-.06-.33-.11-.6-.15-.76A63.52,63.52,0,0,1,5.69,9.68h0a.86.86,0,0,1,.4-.1c2.68-.13,4.71-.19,6.59-.19V8.22m0,0c-1.83,0-3.86,0-6.65.19a1.85,1.85,0,0,0-1.16.42,1.08,1.08,0,0,0-.35,1c.24,2,.58,4.22,1.08,6.51.18.79.69,4.3,1.37,5.2a2.84,2.84,0,0,0,.66.64,2.75,2.75,0,0,0,.84.38,20.26,20.26,0,0,0,4.3.46h.1a20,20,0,0,0,4.2-.46,2.4,2.4,0,0,0,1.29-.71,1.66,1.66,0,0,0,.22-.31c.74-1.24,1.36-5.2,1.36-5.2A64.51,64.51,0,0,0,21,9.81a1.05,1.05,0,0,0-.35-1,1.79,1.79,0,0,0-1.16-.42c-2.68-.11-4.61-.19-6.84-.19Z"/><path class="cls-2" d="M13.12,2l-2.66.54a1.51,1.51,0,0,0-.87.55l-.15.18a1.48,1.48,0,0,0,.45,2.2l.21.12a1.51,1.51,0,0,0,1,.16l2.66-.54a1.56,1.56,0,0,0,.87-.55l.14-.19a1.48,1.48,0,0,0-.44-2.2l-.21-.11A1.45,1.45,0,0,0,13.12,2Z"/><path class="cls-1" d="M3.31,8.27l18.62-3.8c1.27-.26.73-2.2-.54-1.94L2.77,6.33c-1.26.26-.73,2.2.54,1.94Z"/><path class="cls-1" d="M10.38,19.88,8.84,11.12c-.17-.95-1.62-.55-1.46.41l1.55,8.75c.17,1,1.62.55,1.45-.4Z"/><path class="cls-1" d="M16.56,20.28l1.54-8.75c.17-.95-1.29-1.36-1.46-.41L15.1,19.88c-.17.95,1.29,1.36,1.46.4Z"/><path class="cls-1" d="M13.5,20.15V11.26a.76.76,0,0,0-1.51,0v8.89a.76.76,0,0,0,1.51,0Z"/></svg>