<svg id="Layer_1" data-name="Layer 1" xmlns="http://www.w3.org/2000/svg" viewBox="0 0 24 24"><defs><style>.cls-1{fill:none;stroke:#fff;stroke-miterlimit:10;stroke-width:0.92px;}.cls-2{fill:#fff;}</style></defs><title>icon</title><path class="cls-1" d="M18.46,18.82l2-4.81-2-5.21,5,5Z"/><path class="cls-1" d="M13.35,18.82l2-4.81-2-5.21,5,5Z"/><path class="cls-1" d="M8.1,18.69l2-4.81-2-5.22,5,5Z"/><path class="cls-2" d="M.54,10.17H6.43a.2.2,0,0,0,0-.4H.54a.2.2,0,0,0,0,.4Z"/><path class="cls-2" d="M.54,17.24H6.43a.2.2,0,1,0,0-.39H.54a.2.2,0,0,0,0,.39Z"/><path class="cls-2" d="M1.85,13.7H7.74a.2.2,0,0,0,0-.39H1.85a.2.2,0,0,0,0,.39Z"/></svg>