<svg id="Layer_1" data-name="Layer 1" xmlns="http://www.w3.org/2000/svg" viewBox="0 0 24 24"><defs><style>.cls-1{fill:#fff;}</style></defs><title>icon</title><rect class="cls-1" x="1.29" y="9.28" width="7.93" height="7.93" rx="1.27"/><path class="cls-1" d="M20.42,16.66c-.72.65-1.4.7-3.75.69-1.25,0-2.73,0-4.4-.11l-.46,0a.89.89,0,0,1-.88-.87v-.22c0-.84,0-5.33,0-7.13,0-1.53,1.76-1.34,2.55-3.34.18-.47.54-1.7.65-2s.16-.74.27-1.23c.28-1.2.36-1.4.55-1.51.43-.24,1.11.06,1.5.41a3,3,0,0,1,.68,2.46C17.05,5.59,16,6.5,16.32,7a1.42,1.42,0,0,0,1.51.41c1.31-.25,1.61-.4,2.84-.54a6.34,6.34,0,0,1,1.94.4,2,2,0,0,1,.82,1c.22.65-.38.91-.28,1.79.06.55.3.56.28,1.07A3.18,3.18,0,0,1,23,12.28c-.3.65-.41.69-.41,1s0,.52,0,1a1.48,1.48,0,0,1-.27.82c-.32.52-.71.64-1.23,1.09S20.71,16.39,20.42,16.66Z"/></svg>