<svg id="Layer_1" data-name="Layer 1" xmlns="http://www.w3.org/2000/svg" viewBox="0 0 24 24"><defs><style>.cls-1,.cls-3{fill:#fff;}.cls-1,.cls-2,.cls-4{stroke:#fff;stroke-miterlimit:10;}.cls-1{stroke-width:0.17px;}.cls-2,.cls-4{fill:none;}.cls-2{stroke-width:1.47px;}.cls-4{stroke-width:0.63px;}</style></defs><title>icon</title><path class="cls-1" d="M17.74,9.09l-3.95,6.22a2.33,2.33,0,0,0-.55-1.91,2.31,2.31,0,0,0-1.78-.73Z"/><path class="cls-2" d="M2.74,19.45A9.87,9.87,0,0,1,1,13.84C1.17,9.18,5.16,3.36,11.52,3.36A10.48,10.48,0,0,1,22,13.84a10.74,10.74,0,0,1-1.69,5.71"/><path class="cls-3" d="M11.46,16.71a1.57,1.57,0,0,0,0-3.14,1.57,1.57,0,0,0,0,3.14Z"/><path class="cls-4" d="M14.35,20.66H8.69a1,1,0,0,1-1-1.05h0a1,1,0,0,1,.84-1.05h5.66a1.11,1.11,0,0,1,1.26,1.05h0A1,1,0,0,1,14.35,20.66Z"/></svg>