<svg id="Layer_1" data-name="Layer 1" xmlns="http://www.w3.org/2000/svg" viewBox="0 0 24 24"><defs><style>.cls-1,.cls-2,.cls-3,.cls-4{fill:none;stroke:#fff;stroke-miterlimit:10;}.cls-1{stroke-width:1.33px;}.cls-2{stroke-width:0.57px;}.cls-3{stroke-width:0.83px;}.cls-4{stroke-width:0.35px;}.cls-5{fill:#fff;}</style></defs><title>icon</title><path class="cls-1" d="M13,13.76C12,17.29,10.7,23,7.81,23S3.4,17.57,2.47,13.76c-.76-3.14,2.44-6.57,5.34-6.57S13.71,11,13,13.76Z"/><circle class="cls-2" cx="7.71" cy="12.05" r="2"/><path class="cls-3" d="M23,5.65c-.59,2.19-1.4,5.73-3.19,5.73S17.1,8,16.53,5.65C16.05,3.7,18,1.57,19.84,1.57S23.49,3.92,23,5.65Z"/><circle class="cls-4" cx="19.78" cy="4.59" r="1.24"/><path class="cls-5" d="M11.53,22.27l3.1-1.93a.28.28,0,0,0-.28-.49l-3.11,1.93c-.31.19,0,.69.29.49Z"/><path class="cls-5" d="M15.67,19.53l1.83-1.37c.29-.22,0-.71-.29-.49L15.38,19c-.29.22,0,.71.29.49Z"/><path class="cls-5" d="M18.47,17.54c1.14-.79.66-2.17-.49-2.63-.34-.13-.49.42-.15.56.67.26,1.07,1.08.35,1.57-.3.21,0,.71.29.5Z"/><path class="cls-5" d="M16.91,12.41a1.67,1.67,0,0,1,1.5-.26c.35.11.5-.44.15-.55a2.2,2.2,0,0,0-1.94.32c-.29.22,0,.71.29.49Z"/><path class="cls-5" d="M16.82,14.54c-.3-.15-.84-.38-.81-.79a1.46,1.46,0,0,1,.33-.61c.21-.3-.28-.58-.49-.28a1.55,1.55,0,0,0-.4,1c.06.58.62.91,1.08,1.15s.62-.33.29-.5Z"/></svg>