<svg id="Layer_1" data-name="Layer 1" xmlns="http://www.w3.org/2000/svg" viewBox="0 0 24 24"><defs><style>.cls-1,.cls-3{fill:#fff;}.cls-2{fill:none;stroke-width:1.15px;}.cls-2,.cls-3{stroke:#fff;stroke-miterlimit:10;}.cls-3{stroke-width:0.12px;}</style></defs><title>icon</title><path class="cls-1" d="M19.23,15a.74.74,0,0,0,0-1.48.74.74,0,0,0,0,1.48Z"/><path class="cls-1" d="M19.53,11.59a.74.74,0,0,0,0-1.48.74.74,0,0,0,0,1.48Z"/><path class="cls-1" d="M18,7.88A.74.74,0,0,0,18,6.4a.74.74,0,0,0,0,1.48Z"/><circle class="cls-2" cx="12.07" cy="11.93" r="10.93"/><path class="cls-3" d="M16.27,8.75l-2.86,4.51a1.75,1.75,0,0,0-.4-1.38,1.73,1.73,0,0,0-1.29-.54Z"/><path class="cls-2" d="M5.18,16.33a7.68,7.68,0,0,1-1.34-4.4C4,8.28,7.07,3.71,12.07,3.71a8.22,8.22,0,0,1,8.22,8.22A8.38,8.38,0,0,1,19,16.41"/><path class="cls-1" d="M11.53,14.51a1.23,1.23,0,0,0,0-2.46,1.23,1.23,0,0,0,0,2.46Z"/><path class="cls-1" d="M4.92,14.89a.74.74,0,0,0,0-1.48.74.74,0,0,0,0,1.48Z"/><path class="cls-1" d="M4.74,11.66a.74.74,0,0,0,0-1.48.74.74,0,0,0,0,1.48Z"/><path class="cls-1" d="M6.39,7.94a.74.74,0,0,0,0-1.48.74.74,0,0,0,0,1.48Z"/><path class="cls-1" d="M9.5,5.75a.74.74,0,0,0,0-1.48.74.74,0,0,0,0,1.48Z"/><path class="cls-1" d="M13.91,5.52a.74.74,0,0,0,0-1.48.74.74,0,0,0,0,1.48Z"/></svg>