<?xml version="1.0" encoding="utf-8"?>
<!-- Generator: Adobe Illustrator 23.0.2, SVG Export Plug-In . SVG Version: 6.00 Build 0)  -->
<svg version="1.1" id="Layer_1" xmlns="http://www.w3.org/2000/svg" xmlns:xlink="http://www.w3.org/1999/xlink" x="0px" y="0px"
	 viewBox="0 0 24 24" style="enable-background:new 0 0 24 24;" xml:space="preserve">
<style type="text/css">
	.st0{fill:none;stroke:#FFFFFF;stroke-width:0.7;stroke-miterlimit:10;}
	.st1{fill:none;stroke:#FFFFFF;stroke-width:0.83;stroke-miterlimit:10;}
	.st2{fill:none;stroke:#FFFFFF;stroke-width:0.62;stroke-miterlimit:10;}
	.st3{fill:#FFFFFF;}
</style>
<title>AHHHH</title>
<path class="st0" d="M3.6,6.9h17.1c0.6,0,1.1,0.5,1.1,1.1v14.2c0,0.6-0.5,1.1-1.1,1.1H3.6c-0.6,0-1.1-0.5-1.1-1.1V8
	C2.5,7.4,3,6.9,3.6,6.9z"/>
<path class="st1" d="M21.4,7.4c0-0.2-0.1-0.3-0.2-0.5L17.5,2c-0.2-0.2-0.4-0.4-0.7-0.4H7.3C7,1.6,6.8,1.8,6.6,2L2.8,6.9
	C2.7,7,2.7,7.2,2.6,7.4H21.4z"/>
<line class="st2" x1="12.2" y1="1.7" x2="12.2" y2="6.9"/>
<path class="st3" d="M12.8,20.1l2.5-3c0.3-0.3,0.2-0.8-0.1-1.1c-0.1-0.1-0.3-0.2-0.5-0.2H9.8c-0.4,0-0.8,0.3-0.8,0.8
	c0,0.2,0.1,0.4,0.2,0.5l2.4,3C11.9,20.4,12.3,20.4,12.8,20.1C12.7,20.1,12.7,20.1,12.8,20.1z"/>
<path class="st3" d="M13,16.6h-1.5c-0.5,0-0.9-0.4-0.9-0.9v-5.3c0-0.5,0.4-0.9,0.9-0.9H13c0.5,0,0.9,0.4,0.9,0.9v5.3
	C13.9,16.2,13.5,16.6,13,16.6z"/>
</svg>
