<svg id="Layer_1" data-name="Layer 1" xmlns="http://www.w3.org/2000/svg" viewBox="0 0 24 24"><defs><style>.cls-1{fill:#42210b;}.cls-2,.cls-3{fill:#ccc;}.cls-2,.cls-3,.cls-4,.cls-9{stroke:#42210b;}.cls-10,.cls-11,.cls-2,.cls-3,.cls-4,.cls-5,.cls-6,.cls-7,.cls-8,.cls-9{stroke-miterlimit:10;}.cls-2{stroke-width:0.2px;}.cls-3{stroke-width:0.18px;}.cls-4{fill:#c1272d;stroke-width:0.21px;}.cls-5{fill:#c69c6d;stroke-width:0.69px;}.cls-10,.cls-11,.cls-5,.cls-6,.cls-7{stroke:#000;}.cls-6{fill:#2b828b;stroke-width:0.67px;}.cls-7{fill:#9f2800;stroke-width:0.45px;}.cls-8,.cls-9{fill:#8c6239;}.cls-8{stroke:#a67c52;}.cls-10,.cls-8,.cls-9{stroke-width:0.42px;}.cls-11{fill:#c89c6d;stroke-width:0.41px;}</style></defs><title>icon</title><path class="cls-1" d="M8.29,8.31a.29.29,0,0,0,0-.57.29.29,0,0,0,0,.57Z"/><path class="cls-1" d="M8.08,7.38a.29.29,0,0,0,0-.57.29.29,0,0,0,0,.57Z"/><path class="cls-1" d="M7.78,6.41a.29.29,0,0,0,0-.58.29.29,0,0,0,0,.58Z"/><path class="cls-1" d="M7.53,5.44a.29.29,0,0,0,0-.58.29.29,0,0,0,0,.58Z"/><path class="cls-1" d="M7.3,4.42a.29.29,0,0,0,0-.57.29.29,0,0,0,0,.57Z"/><path class="cls-1" d="M7.05,3.48a.29.29,0,0,0,0-.58.29.29,0,0,0,0,.58Z"/><path class="cls-1" d="M6.76,2.43a.29.29,0,0,0,0-.58.29.29,0,0,0,0,.58Z"/><path class="cls-1" d="M6.22,1.68a.29.29,0,0,0,0-.58.29.29,0,0,0,0,.58Z"/><path class="cls-1" d="M5.27,1.29a.29.29,0,0,0,0-.58.29.29,0,0,0,0,.58Z"/><path class="cls-1" d="M4.3,1.42a.29.29,0,0,0,0-.57.29.29,0,0,0,0,.57Z"/><path class="cls-1" d="M3.42,1.91a.29.29,0,0,0,0-.58.29.29,0,0,0,0,.58Z"/><path class="cls-1" d="M3,2.62A.29.29,0,0,0,3,2a.29.29,0,0,0,0,.58Z"/><path class="cls-1" d="M3,3.57A.29.29,0,0,0,3,3a.29.29,0,0,0,0,.58Z"/><path class="cls-1" d="M3.17,4.43a.29.29,0,0,0,0-.58.29.29,0,0,0,0,.58Z"/><path class="cls-1" d="M3.39,5.26a.29.29,0,0,0,0-.57.29.29,0,0,0,0,.57Z"/><path class="cls-1" d="M3.65,6.3a.29.29,0,0,0,0-.58.29.29,0,0,0,0,.58Z"/><path class="cls-1" d="M3.9,7.33a.29.29,0,0,0,0-.57.29.29,0,0,0,0,.57Z"/><path class="cls-1" d="M4.19,8.38a.29.29,0,0,0,0-.57.29.29,0,0,0,0,.57Z"/><path class="cls-1" d="M4.5,9.48a.29.29,0,0,0,0-.58.29.29,0,0,0,0,.58Z"/><rect class="cls-2" x="3.84" y="1.02" width="3.65" height="9.88" rx="1.71" transform="translate(12.64 10.33) rotate(165.58)"/><rect class="cls-3" x="4.3" y="1.38" width="2.81" height="9.5" rx="1.4" transform="translate(12.75 10.64) rotate(165.58)"/><rect class="cls-4" x="4.66" y="8.92" width="7.2" height="6.91" rx="1.36" transform="translate(19.34 22.31) rotate(165.58)"/><path class="cls-1" d="M6.65,14.05a.43.43,0,0,0,0-.86.43.43,0,0,0,0,.86Z"/><path class="cls-1" d="M7.31,14.42l-.9.24c-.36.09-.2.64.15.55L7.47,15c.35-.09.2-.65-.16-.56Z"/><path class="cls-5" d="M7.86,17.19c-.11-.28-1.24-3-3-2.88-1.11.09-1.85,1.34-2.24,2a2.71,2.71,0,0,0-.58,2c.09.4.53.86,1.42,1.76s1,.85,1.08.83c.66-.12.72-2,1.08-2s.46,2,1.11,2.12c.17,0,.39-.11.82-.39a4.44,4.44,0,0,0,.62-.47"/><path class="cls-6" d="M16,23.43a5.09,5.09,0,0,0-5.2,0,2.94,2.94,0,0,1-2-.84,2.86,2.86,0,0,1-.84-2V12a1.74,1.74,0,0,1,.31-.86c.75-1,2.35-.38,5.42-.41,2.8,0,4.24-.57,4.92.33a1.53,1.53,0,0,1,.29.94v8.61A2.86,2.86,0,0,1,16,23.43Z"/><path d="M12.93,18.4v.51a.13.13,0,0,0,.25,0V18.4a.13.13,0,0,0-.25,0Z"/><path d="M14.3,18.53V19a.13.13,0,0,0,.25,0v-.47a.13.13,0,0,0-.25,0Z"/><path d="M10.85,14.55a.88.88,0,0,0,0-1.75.88.88,0,0,0,0,1.75Z"/><path d="M16.38,14.56a.88.88,0,0,0,0-1.75.88.88,0,0,0,0,1.75Z"/><path class="cls-7" d="M21.4,17.46l.28-.1a.89.89,0,0,0,.6-1.22l-.11-.25a1.19,1.19,0,0,0-1.42-.56l-.29.1a.89.89,0,0,0-.59,1.22l.11.25c-2.56.63-3.82,1-3.79,1.13S18,18,21.4,17.46Z"/><circle class="cls-8" cx="13.63" cy="14.64" r="1.46"/><path class="cls-9" d="M14.25,19.35H12.92a1.78,1.78,0,0,1-1.56-.11,1.65,1.65,0,0,1-.69-1.68V17A2.38,2.38,0,0,1,13,14.59a.63.63,0,0,0,.71.5.61.61,0,0,0,.47-.5,2.4,2.4,0,0,1,1.67.7,2.36,2.36,0,0,1,.7,1.68v.59a1.67,1.67,0,0,1-.7,1.68A1.76,1.76,0,0,1,14.25,19.35Z"/><ellipse class="cls-10" cx="13.38" cy="10.47" rx="5.88" ry="1.21"/><rect class="cls-11" x="9.13" y="7.55" width="8.38" height="2.08"/><path class="cls-10" d="M10.79,1.5h5a1.71,1.71,0,0,1,1.71,1.71v7a0,0,0,0,1,0,0H9.08a0,0,0,0,1,0,0v-7A1.71,1.71,0,0,1,10.79,1.5Z"/></svg>