<svg id="Layer_1" data-name="Layer 1" xmlns="http://www.w3.org/2000/svg" viewBox="0 0 24 24"><defs><style>.cls-1,.cls-3{fill:#fff;}.cls-1,.cls-2{stroke:#fff;stroke-miterlimit:10;}.cls-1{stroke-width:1.51px;}.cls-2{fill:none;stroke-width:1.06px;}</style></defs><title>icon</title><path class="cls-1" d="M12.69,17a1.54,1.54,0,0,0,0-.3,1.14,1.14,0,0,0-2.27,0,1,1,0,0,0,0,.3Z"/><path class="cls-2" d="M23,17.32c0-.13,0-.26,0-.4a10.92,10.92,0,0,0-21.83,0c0,.14,0,.27,0,.4Z"/><line class="cls-2" x1="11.9" y1="16.26" x2="17.49" y2="11.73"/><path class="cls-3" d="M2.41,15.76a1.14,1.14,0,0,0,0-2.27,1.14,1.14,0,0,0,0,2.27Z"/><path class="cls-3" d="M21.69,15.54a1.14,1.14,0,0,0,0-2.27,1.14,1.14,0,0,0,0,2.27Z"/><path class="cls-3" d="M19.47,11.28a1.14,1.14,0,0,0,0-2.27,1.14,1.14,0,0,0,0,2.27Z"/><path class="cls-3" d="M4.51,11.5a1.13,1.13,0,0,0,0-2.26,1.13,1.13,0,0,0,0,2.26Z"/><path class="cls-3" d="M8.66,8.73a1.14,1.14,0,0,0,0-2.27,1.14,1.14,0,0,0,0,2.27Z"/><path class="cls-3" d="M14.88,8.73a1.14,1.14,0,0,0,0-2.27,1.14,1.14,0,0,0,0,2.27Z"/></svg>