<svg id="Layer_1" data-name="Layer 1" xmlns="http://www.w3.org/2000/svg" viewBox="0 0 24 24"><defs><style>.cls-1{fill:#fff;}</style></defs><title>Artboard 26</title><path class="cls-1" d="M11.54,5.53A11.29,11.29,0,0,0,.28,17H23A11.46,11.46,0,0,0,11.54,5.53Zm.61,10.71a1.21,1.21,0,0,1,0-2.41A1.21,1.21,0,0,1,12.15,16.24Zm4.06-4.62L14,13.82c-.54.53-1.22-.16-.68-.69l2.23-2.2C16.07,10.4,16.75,11.09,16.21,11.62Zm1.36-1A11.45,11.45,0,0,0,11.49,9a11.77,11.77,0,0,0-7.13,2.73C2.92,12.9,1.74,15.32,1.6,15.22s1.21-3.49,3-5.19A11,11,0,0,1,11.49,7.1a10.45,10.45,0,0,1,7.12,2.72c2,1.78,3.23,5.26,3,5.4S20,12.16,17.57,10.66Z"/></svg>