<svg id="Layer_1" data-name="Layer 1" xmlns="http://www.w3.org/2000/svg" viewBox="0 0 24 24"><defs><style>.cls-1,.cls-2,.cls-4{fill:#fff;}.cls-1,.cls-2,.cls-3,.cls-5{stroke:#fff;stroke-miterlimit:10;}.cls-1{stroke-width:0.92px;}.cls-2,.cls-5{stroke-width:0.3px;}.cls-3,.cls-5{fill:none;}.cls-3{stroke-width:0.45px;}</style></defs><title>Artboard 40</title><rect class="cls-1" x="9.66" y="11.25" width="2.82" height="11.58"/><path class="cls-2" d="M14.64,12.66H7.51L6.17,11.47c3.32,0,6.64-.05,10,0C15.63,11.82,15.13,12.31,14.64,12.66Z"/><path class="cls-2" d="M14.71,13.77a4.65,4.65,0,0,1-3.64,1.86,4.64,4.64,0,0,1-3.63-1.86v-1h7.27Z"/><path class="cls-3" d="M1.65,7.09l5.12,4.83"/><line class="cls-3" x1="3.72" y1="1" x2="1.65" y2="7.24"/><line class="cls-3" x1="8.33" y1="0.41" x2="3.72" y2="1"/><line class="cls-3" x1="8.18" y1="1.6" x2="8.18" y2="0.26"/><line class="cls-3" x1="4.65" y1="2.26" x2="8.33" y2="1.45"/><line class="cls-3" x1="3.72" y1="6.5" x2="4.91" y2="2.19"/><line class="cls-3" x1="8.77" y1="11.55" x2="3.72" y2="6.5"/><path class="cls-4" d="M3.73,1.26a.23.23,0,0,0,0-.45.23.23,0,0,0,0,.45Z"/><path class="cls-4" d="M3.72,1.22a.23.23,0,0,0,0-.45.23.23,0,0,0,0,.45Z"/><path class="cls-4" d="M8.29.42a.11.11,0,0,0,0-.22.11.11,0,1,0,0,.22Z"/><path class="cls-4" d="M8.3,1.7a.12.12,0,0,0,0-.23.12.12,0,0,0,0,.23Z"/><path class="cls-4" d="M8.33,11.27,3.22,6.15c-.61-.61-1.56.34-1,.94l5.12,5.12a.66.66,0,0,0,.94-.94Z"/><path class="cls-4" d="M7.66,10.8,3.82,7a.67.67,0,0,0-.94.94l.65.66a.67.67,0,0,0,1-.94L3.82,7l-.94.94,3.84,3.85a.67.67,0,0,0,.94-.95Z"/><path class="cls-4" d="M3.39,6.23a1.46,1.46,0,0,1,.3-.58L2.44,5.31v.34a.67.67,0,0,0,1.31.18c.35-1,.71-2,1-2.95.24-.65.53-1.29-.14-1.76a.67.67,0,0,0-.81.11c-.41.42-.42,1-.63,1.53a13,13,0,0,0-.76,1.76c-.2.84,1.09,1.19,1.29.35a6.66,6.66,0,0,1,.59-1.34c.16-.35.2-1.09.45-1.36L4,2.28l.1.07-.33-.58a6.55,6.55,0,0,1-.62,1.84L2.46,5.47l1.31.18V5.31A.68.68,0,0,0,2.53,5a3.73,3.73,0,0,0-.43.9c-.27.82,1,1.17,1.29.35Z"/><path class="cls-4" d="M5.24,2.07C5.45,2,5.71,2,5.93,2l.77-.15c.84-.17.48-1.46-.36-1.29-.47.1-1,.1-1.46.24a.67.67,0,0,0,.36,1.29Z"/><path class="cls-4" d="M7.47,1.72a.67.67,0,0,0,0-1.34.67.67,0,0,0,0,1.34Z"/><path class="cls-3" d="M20.7,7.09l-5.12,4.83"/><line class="cls-3" x1="18.62" y1="1" x2="20.7" y2="7.24"/><line class="cls-3" x1="14.02" y1="0.41" x2="18.62" y2="1"/><line class="cls-3" x1="14.17" y1="1.6" x2="14.17" y2="0.26"/><line class="cls-3" x1="17.7" y1="2.26" x2="14.02" y2="1.45"/><line class="cls-3" x1="18.62" y1="6.5" x2="17.43" y2="2.19"/><line class="cls-3" x1="13.57" y1="11.55" x2="18.62" y2="6.5"/><path class="cls-4" d="M18.62,1.26a.23.23,0,0,0,0-.45.23.23,0,0,0,0,.45Z"/><path class="cls-4" d="M18.63,1.22a.23.23,0,0,0,0-.45.23.23,0,0,0,0,.45Z"/><path class="cls-4" d="M14.06.42a.11.11,0,0,0,0-.22.11.11,0,1,0,0,.22Z"/><path class="cls-4" d="M14.05,1.7a.12.12,0,0,0,0-.23.12.12,0,0,0,0,.23Z"/><path class="cls-4" d="M15,12.21l5.12-5.12a.67.67,0,0,0-.95-.94L14,11.27a.67.67,0,0,0,1,.94Z"/><path class="cls-4" d="M15.63,11.75,19.47,7.9,18.53,7l-.66.66c-.61.6.34,1.55.95.94l.65-.66A.67.67,0,0,0,18.53,7L14.68,10.8a.67.67,0,0,0,1,.95Z"/><path class="cls-4" d="M19.51,8.37c.13-.3.41-.41.62-.65a1.28,1.28,0,0,0,.33-.82c.09-.85-1.25-.85-1.33,0,0-.06-.4.25-.43.29a1.57,1.57,0,0,0-.34.51.68.68,0,0,0,.24.91.67.67,0,0,0,.91-.24Z"/><path class="cls-4" d="M19.27,7.06a.67.67,0,0,0,0-1.34.67.67,0,0,0,0,1.34Z"/><path class="cls-4" d="M20.25,5.88a3.42,3.42,0,0,0-.44-.9.67.67,0,0,0-1.24.33v.34l1.31-.18-.66-1.86a6.91,6.91,0,0,1-.63-1.84l-.33.58.11-.07-.81-.11c.24.27.28,1,.45,1.36a7.27,7.27,0,0,1,.59,1.34c.2.84,1.49.49,1.29-.35a12.51,12.51,0,0,0-.77-1.76,4.12,4.12,0,0,0-.62-1.53.67.67,0,0,0-.81-.11c-.68.46-.38,1.1-.15,1.76.35,1,.7,2,1.06,3a.67.67,0,0,0,1.31-.18V5.31l-1.25.34a1.61,1.61,0,0,1,.3.58c.26.82,1.55.47,1.29-.35Z"/><path class="cls-4" d="M17.46.78C17,.64,16.48.64,16,.54c-.84-.17-1.2,1.12-.35,1.29.25,0,.51.11.77.15s.47,0,.69.09c.82.25,1.17-1,.35-1.29Z"/><path class="cls-4" d="M14.88,1.72a.67.67,0,0,0,0-1.34.67.67,0,0,0,0,1.34Z"/><line class="cls-5" x1="14.71" y1="12.88" x2="20.35" y2="7.24"/><path class="cls-4" d="M3.43,6.71a.38.38,0,0,0,0-.75.38.38,0,0,0,0,.75Z"/><path class="cls-4" d="M2,7.38a3.56,3.56,0,0,1,1.17.9l.53-.53a1.35,1.35,0,0,0-.49-.39c-.43-.2-.81.45-.37.65a.86.86,0,0,1,.33.27c.3.38.83-.15.53-.53a4.26,4.26,0,0,0-1.32-1A.38.38,0,0,0,2,7.38Z"/></svg>