<svg id="Layer_1" data-name="Layer 1" xmlns="http://www.w3.org/2000/svg" viewBox="0 0 24 24"><defs><style>.cls-1,.cls-2,.cls-3{fill:none;stroke:#fff;stroke-miterlimit:10;}.cls-1{stroke-width:0.92px;}.cls-2{stroke-width:0.66px;}.cls-3{stroke-width:0.26px;}</style></defs><title>Artboard 32</title><path class="cls-1" d="M23.51,11.61a9.9,9.9,0,0,1-3,2,15.09,15.09,0,0,1-5,1.29,22.51,22.51,0,0,1-3.93-.15c-1.68-.16-3.07-.37-4.07-.55l0-3.54"/><path class="cls-1" d="M23.12,11.88a11.26,11.26,0,0,0-2.62-1.66,15,15,0,0,0-5-1.34A22,22,0,0,0,11.59,9c-1.68.14-3.07.34-4.06.51l0,3.54"/><path class="cls-2" d="M9.12,18.75c-1.34,0-.19-.68-.19-1.44S7.79,16,9.13,16s2.43.62,2.42,1.38S10.46,18.76,9.12,18.75Z"/><path class="cls-3" d="M8,16.19A1.88,1.88,0,0,0,6.32,16c-.76.22-1.25.82-1.19.91s.45-.25.92-.12c.31.08.63.37.59.59s-.7.38-.79.39a2.55,2.55,0,0,1-2.1-.8C3.32,16.5,3.18,16,3.1,16s0,.49.13.79a3.17,3.17,0,0,0,.65,1.31,2.76,2.76,0,0,0,1.31.8,3.81,3.81,0,0,0,1.44,0,3.05,3.05,0,0,0,1-.25,1.34,1.34,0,0,0,.66-.53,1.47,1.47,0,0,0,.13-.52,1.58,1.58,0,0,0,0-.65A1.48,1.48,0,0,0,8,16.19Z"/><line class="cls-1" x1="10.78" y1="14.3" x2="10.05" y2="16.33"/><path class="cls-2" d="M9.19,4.86C7.85,4.85,9,5.54,9,6.3s-1.14,1.3.19,1.31S11.6,7,11.61,6.25,10.53,4.87,9.19,4.86Z"/><path class="cls-3" d="M8,7.41a1.88,1.88,0,0,1-1.64.19c-.75-.23-1.24-.84-1.18-.93s.45.27.92.14c.31-.08.63-.36.59-.59S6,5.84,5.91,5.83A2.54,2.54,0,0,0,3.8,6.6c-.43.45-.58,1-.65.92s0-.49.13-.79a3.19,3.19,0,0,1,.66-1.31,2.74,2.74,0,0,1,1.32-.78,3.65,3.65,0,0,1,1.44,0,3,3,0,0,1,1,.27,1.26,1.26,0,0,1,.65.52A1.58,1.58,0,0,1,8.53,6a1.64,1.64,0,0,1,0,.66A1.53,1.53,0,0,1,8,7.41Z"/><line class="cls-1" x1="10.81" y1="9.32" x2="10.09" y2="7.29"/><circle class="cls-3" cx="15.91" cy="11.83" r="1.18"/><line class="cls-3" x1="5.75" y1="11.78" x2="0.51" y2="11.75"/><line class="cls-3" x1="6.6" y1="10.78" x2="4.24" y2="10.76"/><line class="cls-3" x1="6.51" y1="13.81" x2="2.71" y2="13.79"/><line class="cls-3" x1="10.61" y1="8.86" x2="10.58" y2="14.76"/><line class="cls-3" x1="5.86" y1="9.81" x2="2.77" y2="9.85"/><line class="cls-3" x1="6.15" y1="12.73" x2="4.32" y2="12.73"/></svg>