<svg id="Layer_1" data-name="Layer 1" xmlns="http://www.w3.org/2000/svg" viewBox="0 0 24 24"><defs><style>.cls-1{fill:#fff;}</style></defs><title>Artboard 21</title><rect class="cls-1" x="0.67" y="5.52" width="7.93" height="7.93" rx="1.27"/><path class="cls-1" d="M19.8,6.06c-.73-.66-1.41-.7-3.76-.69-1.25,0-2.73,0-4.4.11h-.46a.9.9,0,0,0-.88.88v.22c0,.84,0,5.33,0,7.13,0,1.53,1.76,1.34,2.55,3.34.18.47.55,1.7.65,2s.16.74.27,1.23c.28,1.2.36,1.4.55,1.51.43.24,1.11-.06,1.5-.41a3.06,3.06,0,0,0,.69-2.46c-.1-1.79-1.19-2.69-.82-3.15a1.39,1.39,0,0,1,1.5-.41c1.31.25,1.61.4,2.85.54a6.65,6.65,0,0,0,1.93-.4,2,2,0,0,0,.82-1c.22-.65-.38-.91-.28-1.79.06-.55.3-.56.28-1.08a3.11,3.11,0,0,0-.41-1.23c-.3-.64-.41-.68-.41-.95s0-.52,0-1a1.48,1.48,0,0,0-.27-.82c-.32-.52-.71-.64-1.23-1.09S20.08,6.33,19.8,6.06Z"/></svg>