<svg id="Layer_1" data-name="Layer 1" xmlns="http://www.w3.org/2000/svg" viewBox="0 0 24 24"><defs><style>.cls-1,.cls-2{fill:none;stroke:#fff;stroke-miterlimit:10;}.cls-1{stroke-width:1.14px;}.cls-2{stroke-width:0.78px;}.cls-3{fill:#fff;}</style></defs><title>Artboard 43</title><path class="cls-1" d="M3.73,6.1a17,17,0,0,0-.06,5.8,16.69,16.69,0,0,0,1.57,4.8A12.23,12.23,0,0,0,8,19.93a11.57,11.57,0,0,0,4.4,2.4,12.66,12.66,0,0,0,5.08-3.07,13.28,13.28,0,0,0,2.12-2.56,14.84,14.84,0,0,0,1.56-4.13,15.05,15.05,0,0,0-.06-6.47c-3-1.8-5.69-3.27-8.7-5.07Z"/><line class="cls-2" x1="12.44" y1="1" x2="12.44" y2="22.25"/><path class="cls-3" d="M12.71,5.43V18.8c0,2.84,4.41,2.85,4.41,0V7.24c0-2.84-4.41-2.85-4.41,0V18.8h4.41V5.43c0-2.84-4.41-2.84-4.41,0Z"/><path class="cls-3" d="M16.18,7v7.5c0,2.84,4.42,2.85,4.42,0V7c0-2.84-4.42-2.84-4.42,0Z"/><path class="cls-3" d="M17.14,18.75c2.84,0,2.84-4.41,0-4.41s-2.85,4.41,0,4.41Z"/><path class="cls-3" d="M17.13,8.51a2.38,2.38,0,0,1,.15.5s0-.47,0,0c0,.07,0,.39,0,.43l0-.24-.09.34a2.22,2.22,0,0,0,1.54,2.71,2.25,2.25,0,0,0,2.71-1.54,5.56,5.56,0,0,0-.05-3.4,2.27,2.27,0,0,0-2.72-1.54,2.24,2.24,0,0,0-1.54,2.72Z"/><path class="cls-3" d="M16.72,8.33c2.84,0,2.85-4.41,0-4.41s-2.84,4.41,0,4.41Z"/><path class="cls-3" d="M13.67,4.19a1,1,0,0,0,0-2,1,1,0,0,0,0,2Z"/><path class="cls-3" d="M12.55,2.65V4.74a1,1,0,0,0,2,0V2.65a1,1,0,0,0-2,0Z"/><path class="cls-3" d="M13.67,22a1,1,0,0,0,0-2,1,1,0,0,0,0,2Z"/><path class="cls-3" d="M13,17.66l-.41.42a1,1,0,0,0,1.38,1.38l.42-.41A1,1,0,0,0,13,17.66Z"/><path class="cls-3" d="M13.39,21a1,1,0,0,0,0-2,1,1,0,0,0,0,2Z"/><path class="cls-3" d="M14.92,4.05a1,1,0,0,0,0-2,1,1,0,0,0,0,2Z"/></svg>