<svg id="Layer_1" data-name="Layer 1" xmlns="http://www.w3.org/2000/svg" viewBox="0 0 24 24"><defs><style>.cls-1{fill:none;stroke:#fff;stroke-miterlimit:10;stroke-width:0.95px;}</style></defs><title>Artboard 17</title><rect class="cls-1" x="1" y="10.15" width="7.84" height="7.84" rx="1.26"/><path class="cls-1" d="M19.92,17.44c-.71.66-1.38.7-3.71.69-1.24,0-2.7,0-4.35-.11H11.4a.89.89,0,0,1-.87-.87v-.22c0-.82,0-5.26,0-7.05,0-1.51,1.74-1.32,2.52-3.3.18-.46.54-1.69.64-2s.16-.74.27-1.22c.28-1.19.36-1.38.55-1.49.42-.24,1.09.05,1.48.41a3,3,0,0,1,.68,2.43c-.1,1.76-1.18,2.66-.81,3.11a1.34,1.34,0,0,0,1.48.4c1.3-.24,1.6-.39,2.82-.52a6.13,6.13,0,0,1,1.91.39,1.94,1.94,0,0,1,.81,1c.22.64-.37.9-.27,1.77.06.55.29.56.27,1.06a3.09,3.09,0,0,1-.4,1.22c-.3.64-.41.68-.41,1s0,.51,0,.94a1.42,1.42,0,0,1-.27.81c-.31.52-.69.64-1.21,1.08S20.21,17.18,19.92,17.44Z"/></svg>