<svg id="Layer_1" data-name="Layer 1" xmlns="http://www.w3.org/2000/svg" viewBox="0 0 24 24"><defs><style>.cls-1{fill:#fff;}.cls-2,.cls-3{fill:none;stroke:#fff;stroke-miterlimit:10;}.cls-2{stroke-width:1.01px;fill-rule:evenodd;}.cls-3{stroke-width:0.84px;}</style></defs><title>Artboard 1</title><path class="cls-1" d="M17.94,8.06a.29.29,0,0,1,.23.1.28.28,0,0,1,.07.24L16.15,21.09a.31.31,0,0,1-.3.26h-.12l-.11,0a15,15,0,0,1-3,.4h-.47a14.85,14.85,0,0,1-3.45-.4l-.12,0H8.49a.34.34,0,0,1-.2-.08.26.26,0,0,1-.1-.18L6.1,8.4a.32.32,0,0,1,.06-.24.31.31,0,0,1,.23-.1H17.94m0-1H6.39A1.31,1.31,0,0,0,5.1,8.57L7.19,21.26a1.34,1.34,0,0,0,1.3,1.1,16.44,16.44,0,0,0,3.68.42h.5a16.49,16.49,0,0,0,3.18-.42,1.31,1.31,0,0,0,1.29-1.1l2.1-12.69a1.31,1.31,0,0,0-1.3-1.52Z"/><path class="cls-2" d="M13.26,4.19H10.74a1.27,1.27,0,0,1-1.35-.84A1.3,1.3,0,0,1,10.74,2h2.69a1.3,1.3,0,0,1,1.35,1.35A1.3,1.3,0,0,1,13.26,4.19Z"/><path class="cls-1" d="M19.67,4.69A.32.32,0,0,1,20,5v.2a.32.32,0,0,1-.32.32H4.33A.32.32,0,0,1,4,5.21V5a.32.32,0,0,1,.32-.32H19.67m0-1H4.33A1.34,1.34,0,0,0,3,5v.2A1.33,1.33,0,0,0,4.33,6.54H19.67A1.33,1.33,0,0,0,21,5.21V5a1.34,1.34,0,0,0-1.33-1.33Z"/><line class="cls-3" x1="7.88" y1="7.38" x2="10.23" y2="22.02"/><line class="cls-3" x1="12.15" y1="22.28" x2="12.02" y2="7.46"/><line class="cls-3" x1="16.63" y1="7.38" x2="14.27" y2="22.02"/></svg>