<svg id="Layer_1" data-name="Layer 1" xmlns="http://www.w3.org/2000/svg" viewBox="0 0 24 24"><defs><style>.cls-1,.cls-3{fill:none;stroke:#fff;stroke-miterlimit:10;}.cls-1{stroke-width:1.33px;}.cls-2{fill:#fff;}.cls-3{stroke-width:0.83px;}</style></defs><title>Artboard 37</title><path class="cls-1" d="M12.52,13.19c-.95,3.52-2.25,9.24-5.14,9.24S3,17,2.05,13.19c-.77-3.14,2.44-6.57,5.33-6.57S13.28,10.4,12.52,13.19Z"/><circle class="cls-2" cx="7.28" cy="11.48" r="2"/><path class="cls-3" d="M22.6,5.08c-.59,2.18-1.4,5.73-3.19,5.73S16.67,7.44,16.1,5.08C15.62,3.13,17.61,1,19.41,1S23.07,3.34,22.6,5.08Z"/><circle class="cls-2" cx="19.35" cy="4.01" r="1.24"/><path class="cls-2" d="M11.1,21.7l3.11-1.93c.31-.19,0-.69-.29-.49l-3.1,1.93c-.32.19,0,.69.28.49Z"/><path class="cls-2" d="M15.24,19l1.83-1.37c.29-.22,0-.71-.29-.49L15,18.47c-.29.22,0,.71.29.49Z"/><path class="cls-2" d="M18,17c1.15-.79.66-2.17-.49-2.63-.34-.13-.49.42-.15.55.67.27,1.07,1.09.36,1.58-.31.21,0,.71.28.5Z"/><path class="cls-2" d="M16.48,11.84a1.68,1.68,0,0,1,1.5-.26c.35.11.5-.44.15-.55a2.2,2.2,0,0,0-1.94.32c-.29.22,0,.71.29.49Z"/><path class="cls-2" d="M16.39,14c-.3-.15-.84-.39-.81-.8a1.48,1.48,0,0,1,.33-.6c.21-.3-.28-.58-.49-.29a1.58,1.58,0,0,0-.4,1c.06.58.62.91,1.08,1.15s.62-.33.29-.5Z"/></svg>