<svg id="Layer_1" data-name="Layer 1" xmlns="http://www.w3.org/2000/svg" viewBox="0 0 24 24"><defs><style>.cls-1{fill:#ff0;}</style></defs><title>Artboard 13</title><path class="cls-1" d="M12.13,1.2A11.16,11.16,0,0,0,1,12.5a11.3,11.3,0,0,0,22.6,0A11.45,11.45,0,0,0,12.13,1.2ZM7,12.67q-.13-1.34-.15-2.91A30.74,30.74,0,0,1,7,6.6a.85.85,0,0,1,.85-.83.81.81,0,0,1,.86.83,25.94,25.94,0,0,1,.2,3,23.42,23.42,0,0,1-.2,3.08A.86.86,0,0,1,7,12.67Zm7.69,5H9.4A.86.86,0,0,1,9.4,16h5.26A.86.86,0,0,1,14.66,17.67Zm2-5a.86.86,0,0,1-1.71,0,21.18,21.18,0,0,1-.23-3.08,20.92,20.92,0,0,1,.23-3.07.87.87,0,0,1,.86-.83.85.85,0,0,1,.85.83,15.88,15.88,0,0,1,.28,3.24A17,17,0,0,1,16.64,12.67Z"/></svg>