<svg id="Layer_1" data-name="Layer 1" xmlns="http://www.w3.org/2000/svg" viewBox="0 0 24 24"><defs><style>.cls-1{fill:none;stroke:#fff;stroke-miterlimit:10;stroke-width:1.14px;}.cls-2{fill:#fff;}</style></defs><title>icon</title><path class="cls-1" d="M3.59,6.78a16.74,16.74,0,0,0,1.5,10.59,12.28,12.28,0,0,0,2.79,3.24A11.59,11.59,0,0,0,12.29,23a12.69,12.69,0,0,0,5.07-3.07,13.24,13.24,0,0,0,2.12-2.57A14.57,14.57,0,0,0,21,13.25,14.92,14.92,0,0,0,21,6.78C18,5,15.3,3.5,12.29,1.7Z"/><path class="cls-2" d="M5.41,8.29a13.22,13.22,0,0,0,0,4.56A13.36,13.36,0,0,0,6.6,16.63a9.78,9.78,0,0,0,2.19,2.54,9.22,9.22,0,0,0,3.47,1.89,9.92,9.92,0,0,0,4-2.42,10,10,0,0,0,1.67-2,11.34,11.34,0,0,0,1.23-3.25,11.83,11.83,0,0,0,0-5.09c-2.37-1.42-4.48-2.58-6.85-4Z"/></svg>