<svg id="Layer_1" data-name="Layer 1" xmlns="http://www.w3.org/2000/svg" viewBox="0 0 24 24"><defs><style>.cls-1,.cls-2,.cls-3{fill:#fff;stroke:#fff;stroke-miterlimit:10;}.cls-1{stroke-width:0.94px;}.cls-2{stroke-width:0.84px;}.cls-3{stroke-width:0.27px;}</style></defs><title>icon</title><path class="cls-1" d="M9.49,12.78H7a6.73,6.73,0,0,1-2.8-7.16,6.88,6.88,0,0,1,4-4.36L7.94,2.82a5.49,5.49,0,0,0-1.87,2.8C5.43,8.08,6.78,11,9.49,12.78Z"/><path class="cls-1" d="M13.16,12.78h2.48a6.73,6.73,0,0,0,2.8-7.16,6.88,6.88,0,0,0-4-4.36l.31,1.56a5.55,5.55,0,0,1,1.87,2.8C17.22,8.08,15.87,11,13.16,12.78Z"/><rect class="cls-2" x="9.88" y="12.78" width="2.56" height="10.5"/><path class="cls-3" d="M14.39,14.05H7.93L6.71,13l9,.13Z"/><rect class="cls-3" x="7.86" y="14.12" width="6.6" height="0.94"/></svg>