<svg id="Layer_1" data-name="Layer 1" xmlns="http://www.w3.org/2000/svg" viewBox="0 0 24 24"><defs><style>.cls-1{fill:#fff;}</style></defs><title>icon</title><path class="cls-1" d="M11.53,1A11.16,11.16,0,0,0,.4,12.31a11.3,11.3,0,0,0,22.6,0A11.45,11.45,0,0,0,11.53,1ZM6.36,12.49c-.08-.9-.14-1.87-.14-2.92a30.68,30.68,0,0,1,.14-3.15.87.87,0,0,1,.86-.83.81.81,0,0,1,.86.83,23.84,23.84,0,0,1,.19,3,23.7,23.7,0,0,1-.19,3.09A.86.86,0,0,1,6.36,12.49Zm5.17,6.19c-2.79,0-5.29-2.52-5-3.3.11-.27.56-.36,1-.38h7.69c.45,0,.91.1,1,.37C16.61,16.14,14.24,18.63,11.53,18.68ZM16,12.48a.86.86,0,0,1-1.71,0A19.76,19.76,0,0,1,14.1,9.4a19.72,19.72,0,0,1,.23-3.07.85.85,0,0,1,.85-.82.86.86,0,0,1,.86.82,16.7,16.7,0,0,1,.28,3.24A17,17,0,0,1,16,12.48Z"/></svg>